<svg xmlns="http://www.w3.org/2000/svg" xmlns:xlink="http://www.w3.org/1999/xlink" width="500" zoomAndPan="magnify" viewBox="0 0 375 374.999991" height="500" preserveAspectRatio="xMidYMid meet" version="1.0"><defs><clipPath id="452bc2cb90"><path d="M 84 85.121094 L 291 85.121094 L 291 289.871094 L 84 289.871094 Z M 84 85.121094 " clip-rule="nonzero"/></clipPath></defs><path fill="#f35695" d="M 187.527344 285.988281 C 183.921875 285.988281 180.902344 283.523438 180.183594 279.988281 L 174.464844 251.898438 C 174.328125 251.226562 173.734375 251.175781 173.554688 251.175781 C 173.167969 251.175781 172.964844 251.390625 172.847656 251.554688 L 156.203125 274.894531 C 154.769531 276.898438 152.566406 278.050781 150.160156 278.050781 C 147.863281 278.050781 145.640625 276.988281 144.207031 275.203125 C 142.804688 273.457031 142.285156 271.164062 142.785156 268.917969 L 148.988281 240.929688 C 149.027344 240.746094 149.058594 240.472656 148.832031 240.195312 C 148.652344 239.96875 148.367188 239.820312 148.105469 239.820312 C 147.957031 239.820312 147.808594 239.867188 147.652344 239.960938 L 122.949219 254.507812 C 121.769531 255.207031 120.445312 255.574219 119.125 255.574219 C 116.339844 255.574219 113.707031 253.929688 112.421875 251.382812 C 111.136719 248.832031 111.398438 245.921875 113.121094 243.59375 L 130.171875 220.550781 C 130.253906 220.4375 130.503906 220.105469 130.257812 219.617188 C 130.160156 219.425781 129.933594 219.109375 129.480469 219.109375 C 129.4375 219.109375 129.390625 219.113281 129.347656 219.117188 L 100.863281 222.363281 C 100.554688 222.398438 100.253906 222.414062 99.960938 222.414062 C 96.539062 222.414062 93.644531 220.164062 92.765625 216.8125 C 91.886719 213.480469 93.316406 210.09375 96.324219 208.394531 L 121.273438 194.277344 C 121.617188 194.085938 121.769531 193.789062 121.726562 193.398438 C 121.6875 193.007812 121.476562 192.75 121.101562 192.632812 L 93.761719 184.011719 C 90.324219 182.929688 88.183594 179.667969 88.5625 176.082031 C 88.9375 172.496094 91.707031 169.75 95.296875 169.402344 L 123.832031 166.65625 C 124.222656 166.617188 124.480469 166.410156 124.601562 166.039062 C 124.722656 165.664062 124.636719 165.34375 124.34375 165.085938 L 102.875 146.089844 C 100.519531 144.003906 99.710938 140.769531 100.816406 137.851562 C 101.941406 134.882812 104.671875 132.960938 107.773438 132.960938 C 108.59375 132.960938 109.414062 133.097656 110.21875 133.367188 L 137.40625 142.460938 C 137.515625 142.5 137.625 142.519531 137.722656 142.519531 C 138.058594 142.519531 138.324219 142.289062 138.460938 142.078125 C 138.691406 141.722656 138.597656 141.425781 138.511719 141.234375 L 126.621094 115.148438 C 125.539062 112.773438 125.714844 110.179688 127.097656 108.027344 C 128.488281 105.863281 130.933594 104.519531 133.476562 104.519531 C 135.316406 104.519531 137.101562 105.226562 138.507812 106.515625 L 159.644531 125.882812 C 159.824219 126.050781 160.011719 126.128906 160.222656 126.128906 C 160.472656 126.128906 160.742188 126.015625 160.921875 125.835938 C 161.082031 125.671875 161.15625 125.472656 161.152344 125.210938 L 160.902344 96.542969 C 160.886719 94.507812 161.640625 92.613281 163.027344 91.214844 C 164.433594 89.792969 166.410156 88.980469 168.441406 88.980469 C 171.445312 88.980469 174.058594 90.707031 175.269531 93.488281 L 186.703125 119.777344 C 186.855469 120.136719 187.136719 120.320312 187.527344 120.320312 C 187.917969 120.320312 188.199219 120.136719 188.355469 119.777344 L 199.785156 93.488281 C 200.996094 90.707031 203.613281 88.980469 206.613281 88.980469 C 208.644531 88.980469 210.617188 89.792969 212.027344 91.214844 C 213.414062 92.613281 214.171875 94.507812 214.152344 96.542969 L 213.902344 125.210938 C 213.902344 125.472656 213.972656 125.671875 214.136719 125.835938 C 214.316406 126.015625 214.582031 126.128906 214.835938 126.128906 C 215.046875 126.128906 215.230469 126.050781 215.414062 125.882812 L 236.546875 106.515625 C 237.953125 105.230469 239.738281 104.519531 241.582031 104.519531 C 244.121094 104.519531 246.566406 105.863281 247.960938 108.027344 C 249.34375 110.179688 249.515625 112.773438 248.433594 115.148438 L 236.546875 141.234375 C 236.457031 141.429688 236.367188 141.726562 236.59375 142.078125 C 236.730469 142.292969 236.996094 142.519531 237.332031 142.519531 C 237.429688 142.519531 237.539062 142.5 237.652344 142.464844 L 264.835938 133.367188 C 265.640625 133.101562 266.460938 132.964844 267.28125 132.964844 C 270.382812 132.964844 273.113281 134.882812 274.238281 137.851562 C 275.34375 140.773438 274.535156 144.003906 272.179688 146.089844 L 250.710938 165.085938 C 250.417969 165.34375 250.328125 165.664062 250.453125 166.039062 C 250.574219 166.410156 250.832031 166.617188 251.222656 166.65625 L 279.757812 169.40625 C 283.34375 169.75 286.113281 172.496094 286.492188 176.082031 C 286.867188 179.667969 284.730469 182.929688 281.292969 184.011719 L 253.953125 192.632812 C 253.578125 192.753906 253.367188 193.007812 253.328125 193.398438 C 253.285156 193.789062 253.4375 194.085938 253.78125 194.277344 L 278.730469 208.394531 C 281.738281 210.097656 283.167969 213.480469 282.289062 216.8125 C 281.410156 220.164062 278.515625 222.417969 275.09375 222.417969 C 274.800781 222.417969 274.5 222.398438 274.191406 222.363281 L 245.710938 219.121094 C 245.664062 219.113281 245.617188 219.113281 245.574219 219.113281 C 245.121094 219.113281 244.894531 219.429688 244.796875 219.617188 C 244.550781 220.105469 244.800781 220.441406 244.882812 220.550781 L 261.933594 243.59375 C 263.65625 245.921875 263.917969 248.835938 262.632812 251.382812 C 261.347656 253.929688 258.71875 255.578125 255.929688 255.578125 C 254.609375 255.578125 253.289062 255.207031 252.105469 254.511719 L 227.40625 239.960938 C 227.246094 239.867188 227.097656 239.824219 226.953125 239.824219 C 226.691406 239.824219 226.402344 239.96875 226.222656 240.195312 C 226 240.472656 226.027344 240.75 226.066406 240.933594 L 232.273438 268.921875 C 232.769531 271.167969 232.253906 273.457031 230.851562 275.203125 C 229.417969 276.988281 227.191406 278.054688 224.898438 278.054688 C 222.488281 278.054688 220.285156 276.902344 218.855469 274.894531 L 202.207031 251.558594 C 202.089844 251.394531 201.890625 251.175781 201.5 251.175781 C 201.320312 251.175781 200.726562 251.230469 200.589844 251.902344 L 194.875 279.992188 C 194.152344 283.523438 191.132812 285.988281 187.527344 285.988281 Z M 187.527344 285.988281 " fill-opacity="1" fill-rule="nonzero"/><g clip-path="url(#452bc2cb90)"><path fill="#4b11ed" d="M 206.613281 92.835938 C 208.464844 92.835938 210.3125 94.195312 210.292969 96.511719 L 210.042969 125.175781 C 210.019531 128.046875 212.367188 129.988281 214.832031 129.988281 C 215.9375 129.988281 217.070312 129.597656 218.019531 128.726562 L 239.15625 109.359375 C 239.902344 108.671875 240.753906 108.378906 241.578125 108.378906 C 243.972656 108.378906 246.140625 110.867188 244.917969 113.546875 L 233.03125 139.632812 C 231.535156 142.917969 234.0625 146.378906 237.332031 146.378906 C 237.832031 146.378906 238.347656 146.296875 238.875 146.121094 L 266.058594 137.027344 C 266.480469 136.886719 266.890625 136.820312 267.277344 136.820312 C 270.363281 136.820312 272.253906 140.867188 269.621094 143.199219 L 248.152344 162.191406 C 245.035156 164.949219 246.707031 170.097656 250.851562 170.496094 L 279.382812 173.242188 C 283.328125 173.625 283.90625 179.140625 280.128906 180.332031 L 252.789062 188.953125 C 248.820312 190.203125 248.257812 195.585938 251.878906 197.632812 L 276.828125 211.75 C 280.136719 213.621094 278.691406 218.554688 275.09375 218.554688 C 274.941406 218.554688 274.785156 218.546875 274.625 218.527344 L 246.144531 215.285156 C 245.949219 215.261719 245.757812 215.25 245.570312 215.25 C 241.765625 215.25 239.417969 219.65625 241.777344 222.84375 L 258.828125 245.886719 C 260.753906 248.488281 258.628906 251.714844 255.929688 251.714844 C 255.320312 251.714844 254.6875 251.554688 254.058594 251.183594 L 229.359375 236.636719 C 228.574219 236.171875 227.746094 235.960938 226.949219 235.960938 C 224.105469 235.960938 221.59375 238.597656 222.296875 241.765625 L 228.5 269.753906 C 229.074219 272.332031 227.011719 274.191406 224.894531 274.191406 C 223.832031 274.191406 222.757812 273.726562 221.992188 272.652344 L 205.34375 249.3125 C 204.371094 247.949219 202.925781 247.316406 201.496094 247.316406 C 199.382812 247.316406 197.300781 248.695312 196.804688 251.128906 L 191.089844 279.21875 C 190.695312 281.160156 189.109375 282.132812 187.527344 282.132812 C 185.941406 282.132812 184.355469 281.160156 183.960938 279.21875 L 178.246094 251.128906 C 177.75 248.699219 175.667969 247.316406 173.554688 247.316406 C 172.125 247.316406 170.683594 247.949219 169.707031 249.3125 L 153.058594 272.652344 C 152.292969 273.726562 151.21875 274.191406 150.15625 274.191406 C 148.039062 274.191406 145.976562 272.332031 146.550781 269.753906 L 152.753906 241.765625 C 153.457031 238.597656 150.945312 235.960938 148.101562 235.960938 C 147.304688 235.960938 146.476562 236.171875 145.691406 236.636719 L 120.992188 251.183594 C 120.367188 251.550781 119.730469 251.714844 119.121094 251.714844 C 116.421875 251.714844 114.296875 248.488281 116.222656 245.886719 L 133.273438 222.84375 C 135.632812 219.65625 133.285156 215.25 129.480469 215.25 C 129.292969 215.25 129.101562 215.261719 128.90625 215.285156 L 100.429688 218.527344 C 100.269531 218.546875 100.113281 218.554688 99.960938 218.554688 C 96.363281 218.554688 94.917969 213.621094 98.226562 211.75 L 123.175781 197.632812 C 126.796875 195.585938 126.230469 190.203125 122.261719 188.949219 L 94.925781 180.332031 C 91.144531 179.140625 91.726562 173.625 95.667969 173.242188 L 124.203125 170.496094 C 128.34375 170.097656 130.019531 164.949219 126.902344 162.191406 L 105.433594 143.199219 C 102.796875 140.867188 104.6875 136.820312 107.773438 136.820312 C 108.164062 136.820312 108.574219 136.886719 108.996094 137.027344 L 136.179688 146.121094 C 136.703125 146.296875 137.222656 146.378906 137.722656 146.378906 C 140.992188 146.378906 143.519531 142.917969 142.019531 139.632812 L 130.132812 113.546875 C 128.910156 110.867188 131.082031 108.378906 133.472656 108.378906 C 134.300781 108.378906 135.148438 108.671875 135.898438 109.359375 L 157.035156 128.726562 C 157.984375 129.597656 159.113281 129.988281 160.21875 129.988281 C 162.6875 129.988281 165.035156 128.046875 165.011719 125.175781 L 164.761719 96.511719 C 164.738281 94.195312 166.585938 92.835938 168.441406 92.835938 C 169.757812 92.835938 171.074219 93.519531 171.730469 95.027344 L 183.160156 121.316406 C 183.992188 123.226562 185.757812 124.179688 187.527344 124.179688 C 189.292969 124.179688 191.0625 123.226562 191.890625 121.316406 L 203.320312 95.027344 C 203.980469 93.519531 205.296875 92.835938 206.613281 92.835938 M 206.613281 85.121094 C 202.050781 85.121094 198.078125 87.738281 196.246094 91.953125 L 187.527344 112.003906 L 178.808594 91.953125 C 176.976562 87.738281 173.003906 85.121094 168.441406 85.121094 C 165.386719 85.121094 162.414062 86.351562 160.285156 88.496094 C 158.167969 90.632812 157.015625 93.503906 157.042969 96.578125 L 157.234375 118.441406 L 141.113281 103.671875 C 138.996094 101.730469 136.28125 100.660156 133.476562 100.660156 C 129.632812 100.660156 125.945312 102.683594 123.851562 105.941406 C 121.773438 109.167969 121.5 113.210938 123.113281 116.75 L 132.179688 136.644531 L 111.445312 129.707031 C 110.246094 129.304688 109.007812 129.101562 107.773438 129.101562 C 103.128906 129.101562 98.882812 132.070312 97.207031 136.484375 C 95.527344 140.917969 96.75 145.820312 100.316406 148.976562 L 116.695312 163.464844 L 94.929688 165.5625 C 89.492188 166.085938 85.296875 170.246094 84.726562 175.675781 C 84.15625 181.109375 87.394531 186.050781 92.601562 187.691406 L 113.457031 194.265625 L 94.425781 205.035156 C 89.871094 207.609375 87.703125 212.738281 89.035156 217.792969 C 90.347656 222.785156 94.839844 226.273438 99.960938 226.273438 C 100.40625 226.273438 100.859375 226.246094 101.304688 226.195312 L 123.027344 223.722656 L 110.019531 241.296875 C 107.453125 244.769531 107.054688 249.296875 108.980469 253.117188 C 110.910156 256.953125 114.894531 259.433594 119.125 259.433594 C 121.132812 259.433594 123.132812 258.878906 124.910156 257.832031 L 143.75 246.738281 L 139.015625 268.082031 C 138.265625 271.476562 139.058594 274.953125 141.199219 277.617188 C 143.355469 280.304688 146.707031 281.910156 150.160156 281.910156 C 153.832031 281.910156 157.179688 280.167969 159.347656 277.132812 L 172.042969 259.332031 L 176.402344 280.757812 C 177.492188 286.109375 182.066406 289.847656 187.527344 289.847656 C 192.988281 289.847656 197.566406 286.109375 198.652344 280.757812 L 203.011719 259.332031 L 215.710938 277.132812 C 217.875 280.167969 221.222656 281.910156 224.894531 281.910156 C 228.347656 281.910156 231.699219 280.304688 233.859375 277.617188 C 235.996094 274.953125 236.789062 271.476562 236.039062 268.082031 L 231.304688 246.738281 L 250.144531 257.832031 C 251.921875 258.878906 253.921875 259.433594 255.929688 259.433594 C 260.160156 259.433594 264.144531 256.953125 266.078125 253.117188 C 268.003906 249.296875 267.601562 244.769531 265.035156 241.296875 L 252.027344 223.722656 L 273.753906 226.195312 C 274.199219 226.246094 274.648438 226.273438 275.09375 226.273438 C 280.214844 226.273438 284.707031 222.785156 286.023438 217.792969 C 287.351562 212.738281 285.183594 207.609375 280.628906 205.035156 L 261.601562 194.265625 L 282.453125 187.691406 C 287.660156 186.050781 290.902344 181.109375 290.328125 175.675781 C 289.757812 170.246094 285.5625 166.085938 280.125 165.5625 L 258.363281 163.464844 L 274.738281 148.976562 C 278.304688 145.820312 279.527344 140.917969 277.847656 136.484375 C 276.171875 132.070312 271.929688 129.101562 267.28125 129.101562 C 266.046875 129.101562 264.8125 129.304688 263.613281 129.707031 L 242.878906 136.644531 L 251.945312 116.75 C 253.558594 113.210938 253.28125 109.167969 251.203125 105.941406 C 249.109375 102.683594 245.421875 100.660156 241.582031 100.660156 C 238.773438 100.660156 236.058594 101.730469 233.941406 103.671875 L 217.820312 118.441406 L 218.011719 96.578125 C 218.039062 93.503906 216.886719 90.632812 214.769531 88.496094 C 212.640625 86.351562 209.667969 85.121094 206.613281 85.121094 Z M 206.613281 85.121094 " fill-opacity="1" fill-rule="nonzero"/></g><path fill="#4b11ed" d="M 208.371094 214.019531 C 207.851562 213.28125 206.835938 213.101562 206.097656 213.625 C 194.945312 221.480469 179.59375 219.054688 171.367188 208.324219 C 172.660156 207.203125 173.621094 205.753906 174.101562 204.054688 C 174.347656 203.1875 173.847656 202.285156 172.976562 202.039062 C 172.109375 201.792969 171.207031 202.296875 170.960938 203.164062 C 170.132812 206.089844 166.996094 207.890625 163.34375 207.546875 C 162.453125 207.464844 161.652344 208.121094 161.566406 209.019531 C 161.480469 209.917969 162.140625 210.714844 163.039062 210.796875 C 163.445312 210.835938 163.84375 210.855469 164.238281 210.855469 C 165.789062 210.855469 167.257812 210.5625 168.574219 210.027344 C 174.164062 217.507812 182.777344 221.507812 191.527344 221.507812 C 197.222656 221.507812 202.976562 219.816406 207.976562 216.292969 C 208.714844 215.773438 208.890625 214.753906 208.371094 214.019531 Z M 208.371094 214.019531 " fill-opacity="1" fill-rule="nonzero"/><path fill="#000000" d="M 218.382812 194.082031 C 216.972656 194.082031 215.828125 192.9375 215.828125 191.53125 C 215.828125 187.964844 212.929688 185.0625 209.363281 185.0625 C 205.796875 185.0625 202.894531 187.964844 202.894531 191.53125 C 202.894531 192.9375 201.753906 194.082031 200.34375 194.082031 C 198.933594 194.082031 197.792969 192.9375 197.792969 191.53125 C 197.792969 185.148438 202.980469 179.960938 209.359375 179.960938 C 215.742188 179.960938 220.933594 185.148438 220.933594 191.53125 C 220.933594 192.9375 219.789062 194.082031 218.382812 194.082031 Z M 218.382812 194.082031 " fill-opacity="1" fill-rule="nonzero"/><path fill="#000000" d="M 174.710938 194.082031 C 173.300781 194.082031 172.160156 192.9375 172.160156 191.53125 C 172.160156 187.964844 169.257812 185.0625 165.691406 185.0625 C 162.125 185.0625 159.222656 187.964844 159.222656 191.53125 C 159.222656 192.9375 158.082031 194.082031 156.671875 194.082031 C 155.261719 194.082031 154.121094 192.9375 154.121094 191.53125 C 154.121094 185.148438 159.3125 179.960938 165.691406 179.960938 C 172.070312 179.960938 177.261719 185.148438 177.261719 191.53125 C 177.261719 192.9375 176.121094 194.082031 174.710938 194.082031 Z M 174.710938 194.082031 " fill-opacity="1" fill-rule="nonzero"/></svg>