<svg xmlns="http://www.w3.org/2000/svg" xmlns:xlink="http://www.w3.org/1999/xlink" width="500" zoomAndPan="magnify" viewBox="0 0 375 374.999991" height="500" preserveAspectRatio="xMidYMid meet" version="1.2"><defs><clipPath id="708eeec5ba"><path d="M 1 2.386719 L 374 2.386719 L 374 372.886719 L 1 372.886719 Z M 1 2.386719 "/></clipPath></defs><g id="1496f13100"><path style=" stroke:none;fill-rule:nonzero;fill:#f35695;fill-opacity:1;" d="M 187.550781 365.589844 C 181.03125 365.589844 175.570312 361.128906 174.269531 354.742188 L 163.933594 303.949219 C 163.6875 302.730469 162.613281 302.636719 162.289062 302.636719 C 161.585938 302.636719 161.222656 303.03125 161.011719 303.328125 L 130.910156 345.523438 C 128.320312 349.152344 124.339844 351.234375 119.984375 351.234375 C 115.835938 351.234375 111.8125 349.308594 109.21875 346.082031 C 106.683594 342.925781 105.746094 338.78125 106.648438 334.722656 L 117.867188 284.117188 C 117.941406 283.785156 117.988281 283.285156 117.585938 282.78125 C 117.257812 282.375 116.742188 282.109375 116.269531 282.109375 C 116 282.109375 115.734375 282.191406 115.449219 282.359375 L 70.785156 308.667969 C 68.648438 309.925781 66.257812 310.589844 63.871094 310.59375 C 58.832031 310.59375 54.074219 307.621094 51.75 303.015625 C 49.425781 298.402344 49.898438 293.136719 53.015625 288.929688 L 83.84375 247.265625 C 83.992188 247.0625 84.441406 246.457031 83.996094 245.574219 C 83.824219 245.234375 83.414062 244.660156 82.597656 244.660156 C 82.515625 244.660156 82.433594 244.664062 82.351562 244.675781 L 30.851562 250.542969 C 30.292969 250.605469 29.746094 250.636719 29.21875 250.636719 C 23.027344 250.636719 17.800781 246.566406 16.203125 240.503906 C 14.617188 234.480469 17.203125 228.359375 22.644531 225.285156 L 67.757812 199.757812 C 68.371094 199.410156 68.648438 198.875 68.574219 198.167969 C 68.5 197.464844 68.117188 197 67.441406 196.785156 L 18.007812 181.199219 C 11.789062 179.238281 7.925781 173.339844 8.605469 166.859375 C 9.285156 160.375 14.296875 155.410156 20.785156 154.785156 L 72.378906 149.816406 C 73.085938 149.746094 73.554688 149.371094 73.773438 148.699219 C 73.992188 148.023438 73.832031 147.445312 73.304688 146.972656 L 34.488281 112.625 C 30.226562 108.855469 28.765625 103.011719 30.765625 97.734375 C 32.800781 92.363281 37.738281 88.894531 43.34375 88.894531 C 44.824219 88.894531 46.3125 89.140625 47.765625 89.625 L 96.921875 106.070312 C 97.125 106.136719 97.320312 106.171875 97.496094 106.171875 C 98.105469 106.171875 98.585938 105.761719 98.835938 105.375 C 99.246094 104.734375 99.082031 104.199219 98.921875 103.851562 L 77.425781 56.683594 C 75.46875 52.390625 75.78125 47.695312 78.28125 43.808594 C 80.800781 39.894531 85.21875 37.464844 89.816406 37.464844 C 93.144531 37.464844 96.375 38.742188 98.914062 41.070312 L 137.132812 76.089844 C 137.460938 76.394531 137.796875 76.535156 138.179688 76.535156 C 138.632812 76.535156 139.117188 76.332031 139.441406 76.003906 C 139.730469 75.710938 139.867188 75.351562 139.863281 74.875 L 139.410156 23.042969 C 139.378906 19.359375 140.742188 15.9375 143.253906 13.402344 C 145.796875 10.835938 149.363281 9.363281 153.039062 9.363281 C 158.46875 9.363281 163.199219 12.488281 165.386719 17.519531 L 186.058594 65.054688 C 186.339844 65.703125 186.839844 66.035156 187.550781 66.035156 C 188.261719 66.035156 188.761719 65.703125 189.042969 65.054688 L 209.714844 17.519531 C 211.902344 12.488281 216.632812 9.363281 222.058594 9.363281 C 225.734375 9.363281 229.304688 10.835938 231.847656 13.40625 C 234.359375 15.9375 235.726562 19.359375 235.691406 23.042969 L 235.242188 74.875 C 235.238281 75.351562 235.371094 75.710938 235.660156 76.003906 C 235.988281 76.332031 236.472656 76.535156 236.925781 76.535156 C 237.308594 76.535156 237.640625 76.394531 237.972656 76.089844 L 276.1875 41.074219 C 278.726562 38.746094 281.960938 37.464844 285.289062 37.464844 C 289.882812 37.464844 294.300781 39.898438 296.820312 43.808594 C 299.320312 47.699219 299.632812 52.390625 297.675781 56.683594 L 276.183594 103.851562 C 276.023438 104.199219 275.859375 104.738281 276.269531 105.375 C 276.519531 105.761719 277 106.175781 277.605469 106.175781 C 277.785156 106.175781 277.976562 106.140625 278.183594 106.074219 L 327.335938 89.628906 C 328.789062 89.140625 330.277344 88.894531 331.757812 88.894531 C 337.367188 88.894531 342.304688 92.363281 344.339844 97.734375 C 346.339844 103.015625 344.878906 108.859375 340.617188 112.628906 L 301.796875 146.972656 C 301.265625 147.441406 301.105469 148.023438 301.328125 148.699219 C 301.546875 149.371094 302.015625 149.75 302.71875 149.816406 L 354.316406 154.785156 C 360.804688 155.410156 365.8125 160.375 366.492188 166.859375 C 367.175781 173.34375 363.308594 179.238281 357.089844 181.199219 L 307.65625 196.789062 C 306.980469 197 306.601562 197.464844 306.527344 198.171875 C 306.453125 198.878906 306.726562 199.410156 307.34375 199.761719 L 352.457031 225.285156 C 357.894531 228.363281 360.484375 234.476562 358.898438 240.507812 C 357.300781 246.566406 352.074219 250.640625 345.886719 250.640625 C 345.886719 250.640625 345.882812 250.640625 345.882812 250.640625 C 345.351562 250.640625 344.808594 250.609375 344.253906 250.546875 L 292.753906 244.679688 C 292.667969 244.667969 292.585938 244.664062 292.503906 244.664062 C 291.6875 244.664062 291.277344 245.234375 291.105469 245.578125 C 290.660156 246.460938 291.109375 247.070312 291.257812 247.269531 L 322.089844 288.933594 C 325.203125 293.144531 325.675781 298.40625 323.351562 303.015625 C 321.03125 307.621094 316.273438 310.597656 311.234375 310.597656 C 308.847656 310.597656 306.457031 309.933594 304.316406 308.671875 L 259.65625 282.363281 C 259.371094 282.195312 259.101562 282.113281 258.835938 282.113281 C 258.363281 282.113281 257.84375 282.378906 257.515625 282.785156 C 257.113281 283.289062 257.164062 283.789062 257.238281 284.121094 L 268.457031 334.726562 C 269.359375 338.789062 268.421875 342.925781 265.886719 346.085938 C 263.296875 349.316406 259.269531 351.242188 255.121094 351.242188 C 250.765625 351.242188 246.78125 349.160156 244.195312 345.53125 L 214.09375 303.332031 C 213.882812 303.035156 213.519531 302.644531 212.816406 302.644531 C 212.492188 302.644531 211.417969 302.738281 211.167969 303.953125 L 200.832031 354.746094 C 199.53125 361.128906 194.070312 365.589844 187.550781 365.589844 Z M 187.550781 365.589844 "/><g clip-rule="nonzero" clip-path="url(#708eeec5ba)"><path style=" stroke:none;fill-rule:nonzero;fill:#4b11ed;fill-opacity:1;" d="M 222.058594 16.339844 C 225.414062 16.339844 228.753906 18.792969 228.714844 22.980469 L 228.261719 74.8125 C 228.21875 80.007812 232.464844 83.511719 236.921875 83.511719 C 238.921875 83.511719 240.964844 82.808594 242.683594 81.234375 L 280.898438 46.214844 C 282.253906 44.976562 283.792969 44.441406 285.285156 44.441406 C 289.613281 44.441406 293.535156 48.945312 291.324219 53.789062 L 269.828125 100.957031 C 267.125 106.894531 271.691406 113.152344 277.601562 113.152344 C 278.507812 113.152344 279.445312 113.003906 280.390625 112.6875 L 329.546875 96.242188 C 330.308594 95.984375 331.050781 95.867188 331.753906 95.867188 C 337.332031 95.867188 340.75 103.1875 335.988281 107.398438 L 297.167969 141.746094 C 291.535156 146.734375 294.558594 156.039062 302.046875 156.757812 L 353.640625 161.726562 C 360.773438 162.414062 361.820312 172.390625 354.988281 174.542969 L 305.554688 190.128906 C 298.378906 192.390625 297.355469 202.125 303.90625 205.828125 L 349.019531 231.355469 C 355 234.738281 352.390625 243.65625 345.878906 243.65625 C 345.605469 243.65625 345.324219 243.640625 345.035156 243.609375 L 293.535156 237.742188 C 293.183594 237.703125 292.839844 237.683594 292.5 237.683594 C 285.621094 237.679688 281.378906 245.648438 285.644531 251.414062 L 316.476562 293.078125 C 319.953125 297.78125 316.113281 303.617188 311.230469 303.617188 C 310.132812 303.617188 308.984375 303.324219 307.851562 302.65625 L 263.191406 276.347656 C 261.769531 275.507812 260.273438 275.132812 258.828125 275.132812 C 253.691406 275.132812 249.148438 279.894531 250.421875 285.625 L 261.636719 336.230469 C 262.671875 340.890625 258.945312 344.257812 255.113281 344.257812 C 253.199219 344.257812 251.253906 343.414062 249.867188 341.472656 L 219.765625 299.273438 C 218.003906 296.804688 215.394531 295.660156 212.808594 295.660156 C 208.984375 295.660156 205.21875 298.15625 204.324219 302.554688 L 193.992188 353.347656 C 193.277344 356.859375 190.414062 358.613281 187.546875 358.613281 C 184.683594 358.613281 181.820312 356.859375 181.105469 353.347656 L 170.769531 302.554688 C 169.875 298.160156 166.109375 295.660156 162.285156 295.660156 C 159.703125 295.660156 157.09375 296.804688 155.328125 299.273438 L 125.226562 341.472656 C 123.839844 343.417969 121.898438 344.257812 119.980469 344.257812 C 116.148438 344.257812 112.421875 340.894531 113.457031 336.230469 L 124.675781 285.625 C 125.945312 279.894531 121.402344 275.132812 116.265625 275.132812 C 114.820312 275.132812 113.328125 275.507812 111.902344 276.347656 L 67.242188 302.65625 C 66.113281 303.320312 64.960938 303.617188 63.867188 303.617188 C 58.976562 303.617188 55.140625 297.78125 58.621094 293.078125 L 89.453125 251.414062 C 93.714844 245.648438 89.472656 237.683594 82.59375 237.683594 C 82.257812 237.683594 81.910156 237.703125 81.558594 237.742188 L 30.0625 243.609375 C 29.773438 243.640625 29.492188 243.65625 29.21875 243.65625 C 22.710938 243.65625 20.097656 234.738281 26.082031 231.351562 L 71.191406 205.828125 C 77.742188 202.125 76.71875 192.390625 69.542969 190.128906 L 20.109375 174.542969 C 13.28125 172.386719 14.328125 162.414062 21.457031 161.726562 L 73.050781 156.757812 C 80.542969 156.035156 83.566406 146.730469 77.929688 141.746094 L 39.109375 107.398438 C 34.347656 103.1875 37.765625 95.867188 43.34375 95.867188 C 44.050781 95.867188 44.789062 95.984375 45.550781 96.242188 L 94.707031 112.6875 C 95.652344 113.003906 96.589844 113.152344 97.496094 113.152344 C 103.410156 113.152344 107.976562 106.894531 105.269531 100.957031 L 83.773438 53.789062 C 81.566406 48.945312 85.488281 44.441406 89.8125 44.441406 C 91.304688 44.441406 92.84375 44.976562 94.199219 46.214844 L 132.414062 81.234375 C 134.132812 82.808594 136.175781 83.511719 138.175781 83.511719 C 142.636719 83.511719 146.882812 80.007812 146.835938 74.8125 L 146.382812 22.980469 C 146.347656 18.792969 149.6875 16.339844 153.039062 16.339844 C 155.417969 16.339844 157.800781 17.574219 158.988281 20.304688 L 179.65625 67.835938 C 181.15625 71.285156 184.351562 73.011719 187.550781 73.011719 C 190.746094 73.011719 193.941406 71.285156 195.441406 67.835938 L 216.109375 20.304688 C 217.296875 17.574219 219.683594 16.339844 222.058594 16.339844 M 222.058594 2.386719 C 213.808594 2.386719 206.628906 7.121094 203.316406 14.738281 L 187.550781 50.992188 L 171.785156 14.738281 C 168.472656 7.121094 161.289062 2.386719 153.039062 2.386719 C 147.515625 2.386719 142.140625 4.613281 138.292969 8.492188 C 134.464844 12.355469 132.382812 17.546875 132.429688 23.105469 L 132.773438 62.636719 L 103.628906 35.929688 C 99.796875 32.417969 94.890625 30.488281 89.816406 30.488281 C 82.871094 30.488281 76.203125 34.144531 72.414062 40.035156 C 68.660156 45.871094 68.160156 53.175781 71.078125 59.578125 L 87.472656 95.550781 L 49.980469 83.007812 C 47.8125 82.28125 45.578125 81.914062 43.34375 81.914062 C 34.941406 81.914062 27.265625 87.277344 24.242188 95.261719 C 21.203125 103.277344 23.410156 112.144531 29.863281 117.851562 L 59.472656 144.046875 L 20.121094 147.835938 C 10.289062 148.785156 2.703125 156.304688 1.671875 166.125 C 0.636719 175.949219 6.496094 184.882812 15.914062 187.851562 L 53.617188 199.738281 L 19.210938 219.207031 C 10.972656 223.867188 7.054688 233.140625 9.457031 242.277344 C 11.835938 251.304688 19.960938 257.609375 29.21875 257.609375 C 30.023438 257.609375 30.839844 257.566406 31.644531 257.472656 L 70.921875 252.996094 L 47.410156 284.777344 C 42.765625 291.054688 42.042969 299.246094 45.523438 306.152344 C 49.019531 313.085938 56.222656 317.570312 63.871094 317.570312 C 67.503906 317.570312 71.117188 316.570312 74.328125 314.675781 L 108.394531 294.613281 L 99.835938 333.210938 C 98.476562 339.347656 99.914062 345.632812 103.78125 350.449219 C 107.683594 355.3125 113.742188 358.214844 119.988281 358.214844 C 126.625 358.214844 132.679688 355.066406 136.59375 349.574219 L 159.554688 317.390625 L 167.433594 356.128906 C 169.402344 365.808594 177.675781 372.566406 187.550781 372.566406 C 197.425781 372.566406 205.699219 365.808594 207.667969 356.128906 L 215.550781 317.390625 L 238.507812 349.574219 C 242.425781 355.066406 248.476562 358.214844 255.117188 358.214844 C 261.363281 358.214844 267.421875 355.3125 271.324219 350.449219 C 275.1875 345.632812 276.625 339.347656 275.265625 333.210938 L 266.710938 294.613281 L 300.773438 314.675781 C 303.984375 316.570312 307.601562 317.570312 311.230469 317.570312 C 318.882812 317.570312 326.085938 313.085938 329.578125 306.152344 C 333.0625 299.242188 332.339844 291.054688 327.695312 284.777344 L 304.179688 252.996094 L 343.460938 257.472656 C 344.265625 257.566406 345.082031 257.609375 345.882812 257.609375 C 355.140625 257.609375 363.265625 251.304688 365.644531 242.277344 C 368.050781 233.140625 364.128906 223.867188 355.894531 219.207031 L 321.484375 199.738281 L 359.1875 187.851562 C 368.605469 184.882812 374.464844 175.949219 373.433594 166.125 C 372.398438 156.304688 364.8125 148.785156 354.984375 147.835938 L 315.628906 144.046875 L 345.238281 117.851562 C 351.691406 112.144531 353.898438 103.277344 350.863281 95.261719 C 347.835938 87.277344 340.160156 81.914062 331.757812 81.914062 C 329.523438 81.914062 327.292969 82.28125 325.121094 83.007812 L 287.632812 95.550781 L 304.027344 59.578125 C 306.941406 53.175781 306.441406 45.871094 302.6875 40.035156 C 298.902344 34.144531 292.234375 30.488281 285.289062 30.488281 C 280.210938 30.488281 275.304688 32.417969 271.476562 35.929688 L 242.328125 62.636719 L 242.671875 23.101562 C 242.71875 17.546875 240.636719 12.355469 236.804688 8.492188 C 232.957031 4.613281 227.585938 2.386719 222.058594 2.386719 Z M 222.058594 2.386719 "/></g><path style=" stroke:none;fill-rule:nonzero;fill:#4b11ed;fill-opacity:1;" d="M 225.242188 235.453125 C 224.300781 234.121094 222.460938 233.800781 221.125 234.742188 C 200.960938 248.945312 173.207031 244.558594 158.332031 225.160156 C 160.667969 223.128906 162.40625 220.511719 163.277344 217.441406 C 163.722656 215.871094 162.8125 214.238281 161.246094 213.792969 C 159.675781 213.347656 158.042969 214.257812 157.597656 215.828125 C 156.097656 221.117188 150.429688 224.375 143.824219 223.753906 C 142.210938 223.605469 140.761719 224.792969 140.609375 226.414062 C 140.457031 228.039062 141.648438 229.476562 143.273438 229.632812 C 144.003906 229.699219 144.726562 229.734375 145.441406 229.734375 C 148.25 229.734375 150.898438 229.203125 153.277344 228.242188 C 163.386719 241.761719 178.960938 248.996094 194.785156 248.996094 C 205.085938 248.996094 215.484375 245.9375 224.527344 239.566406 C 225.863281 238.628906 226.179688 236.785156 225.242188 235.453125 Z M 225.242188 235.453125 "/><path style=" stroke:none;fill-rule:nonzero;fill:#000000;fill-opacity:1;" d="M 243.339844 199.40625 C 240.792969 199.40625 238.726562 197.339844 238.726562 194.792969 C 238.726562 188.34375 233.480469 183.097656 227.03125 183.097656 C 220.582031 183.097656 215.335938 188.34375 215.335938 194.792969 C 215.335938 197.339844 213.273438 199.40625 210.722656 199.40625 C 208.175781 199.40625 206.109375 197.339844 206.109375 194.792969 C 206.109375 183.253906 215.496094 173.871094 227.03125 173.871094 C 238.566406 173.871094 247.953125 183.257812 247.953125 194.792969 C 247.953125 197.339844 245.886719 199.40625 243.339844 199.40625 Z M 243.339844 199.40625 "/><path style=" stroke:none;fill-rule:nonzero;fill:#000000;fill-opacity:1;" d="M 164.378906 199.40625 C 161.828125 199.40625 159.761719 197.339844 159.761719 194.792969 C 159.761719 188.34375 154.515625 183.097656 148.066406 183.097656 C 141.621094 183.097656 136.375 188.34375 136.375 194.792969 C 136.375 197.339844 134.308594 199.40625 131.761719 199.40625 C 129.210938 199.40625 127.148438 197.339844 127.148438 194.792969 C 127.148438 183.253906 136.53125 173.871094 148.066406 173.871094 C 159.601562 173.871094 168.988281 183.257812 168.988281 194.792969 C 168.992188 197.339844 166.921875 199.40625 164.378906 199.40625 Z M 164.378906 199.40625 "/></g></svg>