<svg xmlns="http://www.w3.org/2000/svg" xmlns:xlink="http://www.w3.org/1999/xlink" width="500" zoomAndPan="magnify" viewBox="0 0 375 374.999991" height="500" preserveAspectRatio="xMidYMid meet" version="1.2"><g id="ffb2246b58"><path style=" stroke:none;fill-rule:nonzero;fill:#dde225;fill-opacity:1;" d="M 171.839844 310.011719 C 172.035156 309.816406 172.332031 309.617188 172.527344 309.421875 C 185.492188 296.066406 199.140625 283.496094 213.382812 271.613281 C 227.03125 260.222656 240.878906 248.925781 255.121094 238.125 C 269.851562 226.832031 285.171875 216.421875 301.179688 206.992188 C 307.957031 203.066406 314.828125 199.234375 321.902344 195.894531 C 325.042969 194.324219 328.480469 193.242188 331.917969 192.554688 C 336.042969 191.769531 340.265625 192.066406 344.195312 193.34375 L 344.683594 193.539062 C 348.710938 195.109375 350.378906 197.859375 349.691406 202.179688 C 349.398438 203.949219 349.003906 205.714844 348.515625 207.484375 C 346.84375 212.6875 344.683594 217.796875 342.230469 222.707031 C 335.550781 236.652344 327.988281 250.007812 320.035156 263.167969 C 310.410156 279.078125 300.296875 294.59375 290.277344 310.304688 C 281.929688 323.367188 273.484375 336.429688 264.941406 349.492188 C 260.519531 356.265625 255.808594 362.945312 250.699219 369.328125 C 250.113281 370.113281 249.425781 370.800781 248.738281 371.488281 C 247.363281 372.960938 245.59375 373.945312 243.53125 374.335938 C 241.566406 374.730469 239.40625 374.730469 237.441406 374.238281 C 236.953125 374.140625 236.460938 373.945312 235.96875 373.746094 C 234.300781 372.960938 233.808594 371.980469 234.496094 370.3125 C 235.578125 367.953125 236.65625 365.597656 237.933594 363.339844 C 243.136719 353.8125 248.835938 344.582031 254.628906 335.449219 C 266.117188 317.378906 277.707031 299.40625 289.199219 281.335938 C 298.035156 267.390625 306.777344 253.25 314.632812 238.714844 C 319.445312 230.167969 323.765625 221.332031 327.597656 212.296875 C 328.480469 210.136719 329.167969 207.777344 329.953125 205.519531 C 330.050781 205.125 330.148438 204.734375 330.148438 204.4375 C 329.5625 204.734375 329.167969 204.929688 328.773438 205.125 C 315.714844 212 303.144531 219.660156 291.0625 228.105469 C 276.039062 238.515625 261.503906 249.710938 247.363281 261.203125 C 237.148438 269.453125 227.03125 277.800781 217.210938 286.539062 C 204.152344 298.128906 191.679688 310.304688 179.992188 323.171875 C 176.75 326.804688 173.3125 330.242188 169.972656 333.777344 C 168.992188 334.761719 168.011719 335.644531 166.929688 336.527344 C 164.574219 338.492188 161.726562 339.671875 158.679688 339.867188 C 155.929688 340.257812 153.082031 339.964844 150.429688 339.179688 C 149.546875 338.882812 148.664062 338.492188 147.878906 338 C 146.699219 337.3125 145.914062 335.9375 146.011719 334.5625 C 146.011719 332.992188 146.308594 331.421875 146.699219 329.949219 C 151.316406 310.699219 158.386719 292.136719 167.8125 274.753906 C 174.886719 261.59375 182.546875 248.730469 190.992188 236.355469 C 191.285156 236.0625 191.480469 235.570312 191.582031 235.179688 C 191.1875 235.375 190.894531 235.570312 190.5 235.867188 C 175.375 245.6875 160.253906 255.605469 145.128906 265.425781 C 137.273438 270.433594 129.21875 275.050781 120.871094 279.175781 C 115.371094 281.925781 109.578125 284.085938 103.585938 285.460938 C 97.988281 286.738281 92.195312 287.03125 86.5 286.246094 C 83.847656 285.851562 81.292969 285.164062 78.839844 283.988281 C 72.945312 281.238281 69.605469 276.523438 68.429688 270.238281 C 67.644531 265.425781 67.839844 260.613281 69.019531 255.898438 C 70.589844 249.222656 72.945312 242.839844 76.089844 236.847656 C 76.972656 235.078125 77.953125 233.3125 78.839844 231.542969 L 79.328125 230.464844 C 78.640625 230.757812 78.25 230.855469 77.855469 231.054688 C 70.492188 234.292969 62.832031 237.042969 55.074219 239.300781 C 48.492188 241.265625 41.714844 242.152344 34.84375 242.050781 C 30.421875 241.953125 26.003906 241.070312 21.878906 239.5 C 18.246094 238.125 15.101562 235.472656 13.136719 232.035156 C 11.46875 228.792969 10.78125 225.0625 11.175781 221.429688 C 11.664062 215.535156 13.628906 210.136719 16.183594 204.832031 C 19.914062 197.464844 24.332031 190.492188 29.539062 184.109375 C 36.414062 175.566406 43.777344 167.511719 51.636719 159.953125 C 69.707031 142.078125 89.148438 125.777344 109.96875 111.144531 C 123.816406 101.320312 138.058594 92.1875 152.492188 83.152344 C 175.964844 68.421875 199.925781 54.574219 224.382812 41.414062 C 237.933594 34.148438 251.585938 27.078125 265.332031 20.203125 C 276.527344 14.703125 287.921875 9.597656 299.214844 4.390625 C 302.847656 2.625 306.777344 1.445312 310.804688 0.855469 C 315.222656 0.0703125 319.640625 0.0703125 324.0625 0.757812 C 325.042969 0.953125 326.023438 1.347656 326.910156 1.742188 C 327.5 2.035156 328.085938 2.429688 328.578125 3.015625 C 329.363281 3.703125 329.460938 4.980469 328.773438 5.765625 C 328.675781 5.863281 328.675781 5.863281 328.578125 5.964844 C 327.988281 6.550781 327.300781 6.945312 326.613281 7.339844 C 324.945312 8.027344 323.078125 8.515625 321.214844 8.515625 C 321.113281 8.515625 321.015625 8.515625 320.820312 8.515625 C 317.675781 8.222656 314.730469 9.203125 311.980469 10.480469 C 305.304688 13.523438 298.722656 16.667969 292.046875 19.710938 C 277.511719 26.292969 263.371094 33.753906 249.226562 41.21875 C 214.757812 59.289062 181.171875 78.929688 148.46875 100.144531 C 131.773438 110.847656 115.566406 122.535156 100.148438 135.007812 C 84.238281 147.871094 69.410156 161.914062 55.660156 177.039062 C 48.789062 184.40625 42.796875 192.457031 37.59375 201.101562 C 34.742188 205.8125 32.484375 210.921875 31.011719 216.324219 C 30.128906 219.464844 29.832031 222.707031 30.226562 225.847656 C 30.421875 227.714844 31.109375 229.480469 32.09375 231.054688 C 33.367188 233.117188 35.824219 234.195312 38.277344 233.804688 C 42.011719 233.214844 45.644531 232.328125 49.277344 231.054688 C 58.3125 228.007812 67.25 224.277344 75.792969 220.054688 C 80.507812 217.796875 85.125 215.535156 89.738281 213.277344 C 90.425781 212.984375 91.015625 212.492188 91.507812 211.804688 C 102.800781 196.582031 115.371094 182.246094 129.023438 169.085938 C 152.789062 146.007812 178.519531 124.890625 205.820312 106.132812 C 233.808594 86.6875 263.566406 69.992188 294.597656 56.046875 C 307.070312 50.449219 319.9375 45.738281 332.996094 41.90625 C 337.320312 40.628906 341.738281 39.84375 346.15625 39.550781 C 349.59375 39.355469 353.03125 39.746094 356.273438 40.628906 C 357.84375 41.023438 359.316406 41.808594 360.59375 42.691406 C 362.949219 44.265625 364.03125 47.210938 363.34375 49.960938 C 362.949219 51.824219 362.164062 53.59375 361.183594 55.261719 C 359.121094 58.796875 356.664062 62.136719 353.914062 65.28125 C 348.417969 71.566406 342.425781 77.359375 335.945312 82.664062 C 325.335938 91.5 314.242188 99.457031 302.945312 107.410156 C 288.214844 117.722656 272.796875 127.152344 257.28125 136.382812 C 235.871094 149.148438 213.972656 161.226562 192.070312 173.109375 C 174.589844 182.636719 156.816406 191.671875 139.039062 200.804688 C 128.925781 206.109375 118.710938 211.214844 108.496094 216.421875 C 108.007812 216.617188 107.515625 217.011719 107.121094 217.5 C 100.933594 226.042969 95.730469 235.277344 91.507812 245 C 89.347656 250.007812 87.777344 255.308594 86.988281 260.710938 C 86.5 264.148438 86.597656 267.585938 87.382812 271.023438 C 87.777344 272.792969 88.5625 274.460938 89.542969 275.933594 C 90.132812 276.621094 90.722656 277.308594 91.410156 277.898438 C 92 278.488281 92.882812 278.683594 93.667969 278.488281 C 96.910156 277.800781 100.050781 276.816406 103.097656 275.441406 C 109.675781 272.496094 116.058594 269.058594 122.246094 265.328125 C 132.363281 259.433594 142.183594 252.953125 152.003906 246.472656 C 173.410156 232.328125 194.820312 218.089844 216.132812 203.851562 C 216.621094 203.554688 217.015625 203.164062 217.410156 202.671875 C 234.003906 184.011719 251.585938 166.136719 270.144531 149.34375 C 278.492188 141.585938 287.625 134.613281 297.25 128.425781 C 302.554688 124.988281 308.347656 122.339844 314.4375 120.667969 C 317.972656 119.6875 321.605469 119.292969 325.238281 119.390625 C 327.597656 119.492188 329.953125 119.882812 332.113281 120.765625 C 332.996094 121.0625 333.785156 121.550781 334.472656 122.042969 C 336.335938 123.222656 337.222656 125.480469 336.433594 127.640625 C 336.042969 128.820312 335.550781 130 334.960938 131.078125 C 333.292969 133.925781 331.230469 136.578125 328.972656 138.933594 C 323.175781 145.417969 316.695312 151.308594 309.722656 156.515625 C 300.492188 163.488281 290.964844 169.96875 281.242188 176.253906 C 265.726562 186.371094 250.210938 196.484375 234.691406 206.601562 C 234.003906 206.992188 233.417969 207.582031 232.925781 208.171875 C 211.710938 232.625 193.9375 259.828125 180.089844 288.996094 C 176.949219 295.574219 174.199219 302.253906 171.839844 309.128906 C 171.742188 309.519531 171.546875 309.914062 171.449219 310.304688 Z M 124.996094 194.617188 L 125.191406 194.816406 C 125.488281 194.617188 125.878906 194.519531 126.175781 194.324219 L 141.496094 186.46875 C 177.929688 167.613281 213.972656 148.070312 249.226562 126.953125 C 270.734375 114.1875 291.359375 100.242188 311.195312 85.019531 C 317.972656 79.914062 324.355469 74.414062 330.347656 68.519531 C 334.472656 64.496094 338.203125 60.074219 341.542969 55.261719 C 342.71875 53.59375 343.605469 51.824219 344.292969 49.960938 C 344.488281 49.46875 344.585938 48.878906 344.683594 48.09375 C 343.898438 48.289062 343.40625 48.390625 342.917969 48.585938 C 331.523438 51.925781 320.328125 56.050781 309.429688 60.859375 C 283.304688 72.449219 258.066406 86.199219 234.203125 101.910156 C 206.800781 119.785156 180.972656 139.820312 156.914062 162.015625 C 146.011719 172.03125 135.601562 182.539062 125.878906 193.734375 Z M 272.699219 166.433594 L 272.796875 166.53125 C 272.992188 166.433594 273.289062 166.335938 273.484375 166.140625 C 274.464844 165.453125 275.449219 164.863281 276.429688 164.175781 C 284.875 158.578125 292.929688 152.585938 300.6875 146.203125 C 305.5 142.175781 309.917969 137.757812 313.847656 132.945312 C 314.042969 132.648438 314.339844 132.355469 314.535156 131.960938 C 314.042969 132.0625 313.652344 132.160156 313.257812 132.453125 C 306.972656 136.382812 300.984375 140.800781 295.285156 145.515625 C 287.527344 151.898438 280.261719 158.871094 272.992188 165.84375 C 272.894531 166.039062 272.796875 166.238281 272.699219 166.433594 Z M 272.699219 166.433594 "/></g></svg>