<svg xmlns="http://www.w3.org/2000/svg" xmlns:xlink="http://www.w3.org/1999/xlink" width="500" zoomAndPan="magnify" viewBox="0 0 375 374.999991" height="500" preserveAspectRatio="xMidYMid meet" version="1.0"><defs><clipPath id="12e0cd3dae"><path d="M 116.8125 112.5 L 258 112.5 L 258 262.5 L 116.8125 262.5 Z M 116.8125 112.5 " clip-rule="nonzero"/></clipPath></defs><g clip-path="url(#12e0cd3dae)"><path fill="#dde225" d="M 181.269531 236.570312 C 181.347656 236.492188 181.46875 236.414062 181.546875 236.335938 C 186.734375 230.988281 192.195312 225.957031 197.894531 221.203125 C 203.359375 216.644531 208.902344 212.125 214.601562 207.800781 C 220.496094 203.28125 226.625 199.113281 233.03125 195.339844 C 235.746094 193.769531 238.496094 192.234375 241.328125 190.898438 C 242.582031 190.269531 243.960938 189.839844 245.335938 189.5625 C 246.984375 189.25 248.675781 189.367188 250.25 189.878906 L 250.445312 189.957031 C 252.054688 190.585938 252.722656 191.6875 252.449219 193.414062 C 252.332031 194.121094 252.175781 194.832031 251.976562 195.539062 C 251.308594 197.621094 250.445312 199.664062 249.460938 201.628906 C 246.789062 207.210938 243.761719 212.554688 240.578125 217.824219 C 236.726562 224.191406 232.679688 230.398438 228.671875 236.6875 C 225.328125 241.914062 221.949219 247.144531 218.53125 252.371094 C 216.761719 255.082031 214.875 257.753906 212.832031 260.308594 C 212.59375 260.625 212.320312 260.898438 212.046875 261.175781 C 211.496094 261.765625 210.789062 262.15625 209.960938 262.3125 C 209.175781 262.472656 208.3125 262.472656 207.523438 262.273438 C 207.328125 262.234375 207.132812 262.15625 206.9375 262.078125 C 206.265625 261.765625 206.070312 261.371094 206.347656 260.703125 C 206.777344 259.757812 207.210938 258.816406 207.722656 257.914062 C 209.804688 254.101562 212.085938 250.40625 214.402344 246.75 C 219 239.519531 223.640625 232.324219 228.238281 225.09375 C 231.777344 219.511719 235.273438 213.851562 238.417969 208.035156 C 240.34375 204.617188 242.074219 201.078125 243.605469 197.464844 C 243.960938 196.597656 244.234375 195.65625 244.550781 194.75 C 244.589844 194.59375 244.628906 194.4375 244.628906 194.320312 C 244.390625 194.4375 244.234375 194.515625 244.078125 194.59375 C 238.851562 197.34375 233.820312 200.410156 228.984375 203.792969 C 222.972656 207.957031 217.15625 212.4375 211.496094 217.035156 C 207.40625 220.339844 203.359375 223.679688 199.429688 227.175781 C 194.203125 231.816406 189.210938 236.6875 184.53125 241.835938 C 183.234375 243.292969 181.859375 244.667969 180.523438 246.082031 C 180.128906 246.476562 179.738281 246.828125 179.304688 247.183594 C 178.363281 247.96875 177.222656 248.441406 176.003906 248.519531 C 174.902344 248.675781 173.761719 248.558594 172.703125 248.242188 C 172.347656 248.125 171.996094 247.96875 171.679688 247.773438 C 171.207031 247.496094 170.894531 246.945312 170.933594 246.394531 C 170.933594 245.765625 171.050781 245.136719 171.207031 244.550781 C 173.054688 236.84375 175.886719 229.417969 179.660156 222.460938 C 182.488281 217.195312 185.554688 212.046875 188.933594 207.09375 C 189.050781 206.976562 189.132812 206.777344 189.171875 206.621094 C 189.011719 206.699219 188.894531 206.777344 188.738281 206.894531 C 182.683594 210.828125 176.632812 214.796875 170.578125 218.726562 C 167.433594 220.730469 164.210938 222.578125 160.871094 224.230469 C 158.671875 225.328125 156.351562 226.195312 153.953125 226.746094 C 151.714844 227.253906 149.394531 227.375 147.117188 227.058594 C 146.054688 226.902344 145.03125 226.625 144.050781 226.15625 C 141.691406 225.054688 140.355469 223.167969 139.882812 220.652344 C 139.570312 218.726562 139.648438 216.800781 140.121094 214.914062 C 140.75 212.242188 141.691406 209.6875 142.949219 207.289062 C 143.304688 206.582031 143.695312 205.875 144.050781 205.167969 L 144.246094 204.734375 C 143.972656 204.851562 143.8125 204.890625 143.65625 204.96875 C 140.710938 206.265625 137.644531 207.367188 134.539062 208.273438 C 131.90625 209.058594 129.191406 209.410156 126.441406 209.371094 C 124.671875 209.332031 122.90625 208.980469 121.253906 208.351562 C 119.800781 207.800781 118.542969 206.738281 117.753906 205.363281 C 117.085938 204.066406 116.8125 202.574219 116.96875 201.117188 C 117.167969 198.761719 117.953125 196.597656 118.972656 194.476562 C 120.46875 191.527344 122.238281 188.738281 124.320312 186.183594 C 127.070312 182.765625 130.019531 179.539062 133.164062 176.515625 C 140.394531 169.359375 148.175781 162.835938 156.507812 156.980469 C 162.050781 153.050781 167.75 149.394531 173.527344 145.777344 C 182.921875 139.882812 192.511719 134.34375 202.296875 129.074219 C 207.722656 126.167969 213.183594 123.335938 218.6875 120.585938 C 223.167969 118.382812 227.726562 116.339844 232.246094 114.257812 C 233.703125 113.550781 235.273438 113.078125 236.886719 112.84375 C 238.652344 112.527344 240.421875 112.527344 242.191406 112.804688 C 242.585938 112.882812 242.976562 113.039062 243.332031 113.195312 C 243.566406 113.3125 243.800781 113.472656 244 113.707031 C 244.3125 113.984375 244.351562 114.492188 244.078125 114.808594 C 244.039062 114.847656 244.039062 114.847656 244 114.886719 C 243.761719 115.121094 243.488281 115.28125 243.210938 115.4375 C 242.542969 115.710938 241.796875 115.910156 241.050781 115.910156 C 241.011719 115.910156 240.972656 115.910156 240.894531 115.910156 C 239.636719 115.789062 238.457031 116.183594 237.355469 116.695312 C 234.683594 117.914062 232.050781 119.171875 229.378906 120.390625 C 223.5625 123.023438 217.902344 126.007812 212.242188 128.996094 C 198.445312 136.226562 185.003906 144.089844 171.917969 152.578125 C 165.234375 156.863281 158.75 161.539062 152.578125 166.53125 C 146.210938 171.679688 140.277344 177.300781 134.773438 183.351562 C 132.023438 186.300781 129.625 189.523438 127.542969 192.984375 C 126.402344 194.871094 125.5 196.914062 124.910156 199.074219 C 124.554688 200.332031 124.4375 201.628906 124.59375 202.886719 C 124.671875 203.632812 124.949219 204.339844 125.339844 204.96875 C 125.851562 205.796875 126.835938 206.226562 127.816406 206.070312 C 129.3125 205.835938 130.765625 205.480469 132.21875 204.96875 C 135.835938 203.753906 139.410156 202.257812 142.832031 200.570312 C 144.71875 199.664062 146.566406 198.761719 148.414062 197.855469 C 148.6875 197.738281 148.921875 197.542969 149.121094 197.265625 C 153.640625 191.175781 158.671875 185.4375 164.132812 180.167969 C 173.644531 170.933594 183.941406 162.484375 194.871094 154.976562 C 206.070312 147.195312 217.980469 140.511719 230.398438 134.929688 C 235.390625 132.691406 240.539062 130.804688 245.769531 129.273438 C 247.496094 128.761719 249.265625 128.445312 251.035156 128.328125 C 252.410156 128.25 253.785156 128.40625 255.082031 128.761719 C 255.710938 128.917969 256.300781 129.230469 256.8125 129.585938 C 257.753906 130.214844 258.1875 131.394531 257.914062 132.496094 C 257.753906 133.242188 257.441406 133.949219 257.046875 134.617188 C 256.222656 136.03125 255.238281 137.367188 254.140625 138.625 C 251.9375 141.140625 249.539062 143.460938 246.945312 145.582031 C 242.703125 149.121094 238.261719 152.304688 233.742188 155.488281 C 227.84375 159.613281 221.675781 163.386719 215.464844 167.082031 C 206.894531 172.191406 198.132812 177.027344 189.367188 181.78125 C 182.371094 185.59375 175.257812 189.210938 168.144531 192.863281 C 164.09375 194.988281 160.007812 197.03125 155.917969 199.113281 C 155.722656 199.191406 155.527344 199.351562 155.371094 199.546875 C 152.894531 202.964844 150.808594 206.660156 149.121094 210.550781 C 148.253906 212.554688 147.625 214.679688 147.3125 216.839844 C 147.117188 218.214844 147.15625 219.589844 147.46875 220.96875 C 147.625 221.675781 147.941406 222.34375 148.335938 222.933594 C 148.570312 223.207031 148.804688 223.480469 149.082031 223.71875 C 149.316406 223.953125 149.671875 224.03125 149.984375 223.953125 C 151.28125 223.679688 152.539062 223.285156 153.757812 222.734375 C 156.390625 221.554688 158.945312 220.179688 161.421875 218.6875 C 165.46875 216.328125 169.402344 213.734375 173.332031 211.140625 C 181.898438 205.480469 190.46875 199.78125 198.996094 194.082031 C 199.191406 193.964844 199.351562 193.808594 199.507812 193.613281 C 206.148438 186.144531 213.183594 178.992188 220.613281 172.269531 C 223.953125 169.164062 227.609375 166.375 231.460938 163.898438 C 233.582031 162.523438 235.902344 161.460938 238.339844 160.792969 C 239.753906 160.398438 241.207031 160.242188 242.664062 160.28125 C 243.605469 160.320312 244.550781 160.480469 245.414062 160.832031 C 245.769531 160.949219 246.082031 161.148438 246.355469 161.34375 C 247.105469 161.816406 247.457031 162.71875 247.144531 163.582031 C 246.984375 164.054688 246.789062 164.527344 246.554688 164.960938 C 245.886719 166.097656 245.058594 167.160156 244.15625 168.105469 C 241.835938 170.699219 239.242188 173.054688 236.453125 175.140625 C 232.757812 177.929688 228.945312 180.523438 225.054688 183.039062 C 218.84375 187.085938 212.632812 191.136719 206.425781 195.183594 C 206.148438 195.339844 205.914062 195.578125 205.71875 195.8125 C 197.226562 205.597656 190.113281 216.484375 184.570312 228.160156 C 183.3125 230.792969 182.214844 233.464844 181.269531 236.214844 C 181.230469 236.375 181.152344 236.53125 181.113281 236.6875 Z M 162.523438 190.390625 L 162.601562 190.46875 C 162.71875 190.390625 162.875 190.347656 162.996094 190.269531 L 169.125 187.125 C 183.707031 179.582031 198.132812 171.757812 212.242188 163.308594 C 220.847656 158.199219 229.101562 152.617188 237.042969 146.527344 C 239.753906 144.480469 242.308594 142.28125 244.707031 139.921875 C 246.355469 138.3125 247.851562 136.542969 249.1875 134.617188 C 249.660156 133.949219 250.011719 133.242188 250.289062 132.496094 C 250.367188 132.296875 250.40625 132.0625 250.445312 131.746094 C 250.128906 131.828125 249.933594 131.867188 249.738281 131.945312 C 245.179688 133.28125 240.699219 134.929688 236.335938 136.855469 C 225.878906 141.496094 215.777344 146.996094 206.226562 153.285156 C 195.261719 160.441406 184.925781 168.457031 175.296875 177.339844 C 170.933594 181.347656 166.765625 185.554688 162.875 190.035156 Z M 221.636719 179.109375 L 221.675781 179.148438 C 221.753906 179.109375 221.871094 179.070312 221.949219 178.992188 C 222.34375 178.714844 222.734375 178.480469 223.128906 178.203125 C 226.507812 175.964844 229.730469 173.566406 232.835938 171.011719 C 234.761719 169.402344 236.53125 167.632812 238.101562 165.707031 C 238.183594 165.589844 238.300781 165.46875 238.378906 165.3125 C 238.183594 165.351562 238.023438 165.390625 237.867188 165.507812 C 235.351562 167.082031 232.953125 168.851562 230.675781 170.738281 C 227.570312 173.292969 224.660156 176.082031 221.753906 178.871094 C 221.714844 178.953125 221.675781 179.03125 221.636719 179.109375 Z M 221.636719 179.109375 " fill-opacity="1" fill-rule="nonzero"/></g></svg>