<svg xmlns="http://www.w3.org/2000/svg" xmlns:xlink="http://www.w3.org/1999/xlink" width="500" zoomAndPan="magnify" viewBox="0 0 375 374.999991" height="500" preserveAspectRatio="xMidYMid meet" version="1.0"><defs><clipPath id="5423241d45"><path d="M 115.59375 123 L 259.59375 123 L 259.59375 262.5 L 115.59375 262.5 Z M 115.59375 123 " clip-rule="nonzero"/></clipPath><clipPath id="0493c3f8d0"><path d="M 123 112.5 L 221 112.5 L 221 166 L 123 166 Z M 123 112.5 " clip-rule="nonzero"/></clipPath></defs><g clip-path="url(#5423241d45)"><path fill="#dde225" d="M 115.851562 194.789062 C 115.78125 184.398438 117.238281 175.226562 120.925781 166.453125 C 123.503906 160.320312 126.835938 154.640625 130.976562 149.433594 C 133.171875 146.667969 135.421875 143.945312 137.976562 141.488281 C 146.8125 132.949219 157.113281 127.25 169.265625 124.929688 C 175.273438 123.785156 181.308594 123.292969 187.355469 123.734375 C 193.84375 124.21875 200.277344 125.316406 206.542969 127.171875 C 207.574219 127.480469 208.585938 127.796875 209.683594 127.875 C 210.5 127.933594 211.347656 128.222656 212.089844 128.597656 C 218.664062 131.929688 225.316406 135.125 231.769531 138.707031 C 239.882812 143.210938 246.054688 149.722656 250.550781 157.886719 C 254.382812 164.847656 256.539062 172.347656 257.976562 180.066406 C 259.042969 185.816406 259.429688 191.679688 258.957031 197.503906 C 258.214844 206.824219 255.480469 215.554688 250.464844 223.515625 C 247.335938 228.476562 243.667969 232.972656 239.59375 237.199219 C 234.03125 242.964844 228.121094 248.269531 221.378906 252.652344 C 214.332031 257.234375 206.71875 260.390625 198.390625 261.652344 C 192.910156 262.480469 187.402344 262.402344 181.859375 261.835938 C 174.648438 261.105469 167.636719 259.59375 160.800781 257.222656 C 152.820312 254.453125 145.464844 250.503906 138.878906 245.199219 C 132.890625 240.375 128.078125 234.570312 124.253906 227.867188 C 121.144531 222.410156 118.835938 216.664062 117.535156 210.539062 C 116.371094 205.0625 115.636719 199.503906 115.832031 194.789062 Z M 146.988281 201.027344 C 147.074219 201 147.148438 200.980469 147.21875 200.960938 C 147.910156 200.738281 149.558594 198.253906 149.507812 197.492188 C 149.460938 196.722656 148.566406 196.164062 147.863281 196.464844 C 147.015625 196.828125 145.734375 199.21875 145.917969 200.09375 C 146.042969 200.679688 146.359375 201.035156 146.988281 201.027344 Z M 154.910156 198.648438 C 154.929688 198.121094 154.660156 197.773438 154.1875 197.617188 C 153.640625 197.4375 153.109375 197.523438 152.742188 197.996094 C 152.175781 198.714844 151.789062 199.542969 151.550781 200.429688 C 151.394531 201.007812 151.617188 201.449219 152.167969 201.757812 C 152.726562 202.066406 153.1875 201.960938 153.589844 201.519531 C 154.34375 200.710938 154.601562 199.660156 154.917969 198.648438 Z M 204.542969 190.792969 C 204.722656 191.773438 205.339844 192.621094 206.148438 193.335938 C 206.503906 193.652344 206.9375 193.785156 207.371094 193.429688 C 207.796875 193.085938 208.160156 192.71875 207.929688 192.09375 C 207.582031 191.140625 206.929688 190.417969 206.167969 189.773438 C 205.878906 189.523438 205.53125 189.347656 205.128906 189.558594 C 204.675781 189.800781 204.523438 190.207031 204.53125 190.800781 Z M 199.699219 195.835938 C 199.503906 195.164062 199.34375 194.421875 199.089844 193.710938 C 198.890625 193.140625 198.4375 192.882812 197.832031 193.007812 C 197.195312 193.132812 196.886719 193.679688 196.914062 194.171875 C 196.972656 194.992188 197.195312 195.808594 197.492188 196.578125 C 197.675781 197.070312 198.148438 197.492188 198.765625 197.292969 C 199.378906 197.078125 199.765625 196.617188 199.707031 195.847656 Z M 203.953125 194.21875 C 203.675781 193.660156 203.335938 192.910156 202.914062 192.199219 C 202.664062 191.765625 202.222656 191.648438 201.730469 191.863281 C 201.296875 192.054688 200.882812 192.324219 200.921875 192.84375 C 200.980469 193.757812 201.21875 194.644531 201.855469 195.335938 C 202.25 195.761719 202.796875 195.800781 203.328125 195.546875 C 203.78125 195.335938 204 194.960938 203.953125 194.21875 Z M 142.132812 199.351562 C 143.367188 199.390625 144.773438 197.5625 144.453125 196.445312 C 144.273438 195.800781 143.800781 195.65625 143.222656 195.78125 C 142.308594 195.980469 141.269531 197.378906 141.296875 198.320312 C 141.316406 198.9375 141.585938 199.324219 142.144531 199.351562 Z M 142.132812 199.351562 " fill-opacity="1" fill-rule="nonzero"/></g><path fill="#fa9f6d" d="M 146.988281 201.027344 C 146.359375 201.035156 146.042969 200.679688 145.917969 200.09375 C 145.734375 199.21875 147.015625 196.828125 147.863281 196.464844 C 148.566406 196.15625 149.460938 196.714844 149.507812 197.492188 C 149.558594 198.253906 147.910156 200.738281 147.21875 200.960938 C 147.148438 200.980469 147.074219 201.007812 146.988281 201.027344 Z M 146.988281 201.027344 " fill-opacity="1" fill-rule="nonzero"/><path fill="#fa9f6d" d="M 154.910156 198.648438 C 154.59375 199.660156 154.332031 200.710938 153.582031 201.519531 C 153.175781 201.960938 152.714844 202.066406 152.15625 201.757812 C 151.609375 201.460938 151.386719 201.007812 151.539062 200.429688 C 151.78125 199.542969 152.175781 198.714844 152.734375 197.996094 C 153.101562 197.523438 153.628906 197.4375 154.179688 197.617188 C 154.648438 197.773438 154.917969 198.121094 154.902344 198.648438 Z M 154.910156 198.648438 " fill-opacity="1" fill-rule="nonzero"/><path fill="#fa9f6d" d="M 204.542969 190.792969 C 204.542969 190.195312 204.683594 189.792969 205.136719 189.550781 C 205.53125 189.339844 205.890625 189.511719 206.179688 189.761719 C 206.929688 190.40625 207.59375 191.121094 207.941406 192.082031 C 208.160156 192.707031 207.804688 193.074219 207.382812 193.421875 C 206.949219 193.777344 206.515625 193.640625 206.160156 193.324219 C 205.351562 192.613281 204.742188 191.765625 204.550781 190.78125 Z M 204.542969 190.792969 " fill-opacity="1" fill-rule="nonzero"/><path fill="#fa9f6d" d="M 199.699219 195.835938 C 199.746094 196.609375 199.371094 197.078125 198.753906 197.28125 C 198.136719 197.484375 197.675781 197.058594 197.484375 196.570312 C 197.195312 195.800781 196.964844 194.972656 196.90625 194.164062 C 196.878906 193.671875 197.183594 193.121094 197.820312 192.996094 C 198.4375 192.871094 198.890625 193.132812 199.082031 193.699219 C 199.332031 194.414062 199.503906 195.152344 199.6875 195.828125 Z M 199.699219 195.835938 " fill-opacity="1" fill-rule="nonzero"/><path fill="#fa9f6d" d="M 203.953125 194.21875 C 203.992188 194.953125 203.78125 195.328125 203.328125 195.546875 C 202.796875 195.800781 202.25 195.761719 201.855469 195.335938 C 201.21875 194.644531 200.980469 193.757812 200.921875 192.84375 C 200.890625 192.324219 201.296875 192.054688 201.730469 191.863281 C 202.222656 191.648438 202.664062 191.765625 202.914062 192.199219 C 203.335938 192.910156 203.675781 193.671875 203.953125 194.21875 Z M 203.953125 194.21875 " fill-opacity="1" fill-rule="nonzero"/><path fill="#fa9f6d" d="M 142.132812 199.351562 C 141.574219 199.3125 141.304688 198.9375 141.285156 198.320312 C 141.257812 197.378906 142.296875 195.972656 143.210938 195.78125 C 143.789062 195.65625 144.261719 195.808594 144.445312 196.445312 C 144.761719 197.570312 143.355469 199.390625 142.125 199.351562 Z M 142.132812 199.351562 " fill-opacity="1" fill-rule="nonzero"/><g clip-path="url(#0493c3f8d0)"><path fill="#000000" d="M 167.445312 153.128906 C 164.632812 153.726562 162.179688 154.324219 159.695312 154.765625 C 155.988281 155.421875 152.367188 155.332031 148.941406 153.417969 C 148.152344 152.984375 147.023438 152.984375 146.070312 153.050781 C 142.703125 153.292969 139.351562 153.929688 135.960938 153.28125 C 134.277344 152.964844 132.601562 152.503906 131.410156 151.242188 C 130.636719 150.421875 129.898438 150.433594 128.945312 150.539062 C 127.972656 150.65625 126.941406 150.742188 125.988281 150.566406 C 124.109375 150.222656 123.246094 149.09375 123.167969 147.1875 C 123.082031 145.1875 123.785156 143.414062 124.84375 141.769531 C 126.296875 139.496094 128.367188 137.898438 130.765625 136.78125 C 132.035156 136.183594 132.910156 135.40625 133.429688 134.113281 C 133.691406 133.480469 134.09375 132.902344 134.5 132.34375 C 136.15625 130.03125 137.773438 127.691406 139.523438 125.457031 C 141.921875 122.40625 144.820312 120.117188 148.910156 119.796875 C 149.652344 119.738281 150.394531 119.414062 151.097656 119.113281 C 155.46875 117.226562 160.042969 116.378906 164.789062 116.3125 C 165.867188 116.304688 166.945312 116.265625 168.011719 116.292969 C 171.941406 116.417969 175.726562 116.0625 179.519531 114.636719 C 184.003906 112.980469 188.789062 112.492188 193.59375 113.511719 C 196.964844 114.234375 199.957031 115.609375 202.433594 118.152344 C 203.742188 119.5 205.359375 120.578125 206.9375 121.628906 C 207.429688 121.953125 208.265625 121.828125 208.941406 121.800781 C 211.550781 121.714844 213.976562 122.292969 216.210938 123.640625 C 219.742188 125.777344 221.042969 129.203125 219.800781 133.152344 C 218.828125 136.242188 216.796875 138.476562 214.0625 140.113281 C 210.441406 142.289062 206.417969 143.28125 202.316406 144 C 197.300781 144.886719 192.226562 145.097656 187.144531 144.945312 C 185.390625 144.898438 183.910156 145.3125 182.367188 146.167969 C 179.277344 147.871094 176.070312 149.382812 172.847656 150.816406 C 170.96875 151.644531 170.296875 153.359375 169.390625 154.890625 C 168.820312 155.855469 169.699219 156.632812 170.390625 157.230469 C 172.085938 158.714844 172.980469 160.636719 173.589844 162.738281 C 173.695312 163.101562 173.808594 163.480469 173.859375 163.855469 C 173.964844 164.691406 173.761719 165.453125 172.847656 165.644531 C 171.96875 165.828125 171.59375 165.152344 171.46875 164.433594 C 171.046875 161.996094 169.957031 159.964844 168.136719 158.269531 C 166.675781 156.902344 166.664062 155.152344 167.445312 153.121094 Z M 208.421875 124.324219 C 209.199219 127.027344 208.652344 129.773438 210.828125 131.832031 C 211.664062 132.632812 211.230469 133.75 210.136719 134.25 C 207.273438 135.539062 204.464844 136.972656 201.539062 138.0625 C 197.878906 139.417969 194.105469 140.488281 190.386719 141.691406 C 189.9375 141.835938 189.511719 142.085938 189.070312 142.277344 C 195.316406 142.460938 201.449219 142.113281 207.363281 140.246094 C 209.460938 139.582031 211.511719 138.628906 213.40625 137.511719 C 215.585938 136.230469 217.039062 134.25 217.597656 131.699219 C 218.097656 129.414062 217.402344 127.585938 215.566406 126.230469 C 213.589844 124.773438 211.328125 124.207031 208.429688 124.324219 Z M 138.15625 134.039062 C 139.121094 133.859375 139.753906 133.488281 140.054688 132.929688 C 140.710938 131.71875 140.96875 131.628906 142.203125 132.1875 C 142.617188 132.371094 143.058594 132.765625 143.433594 132.71875 C 145.800781 132.371094 148.335938 132.707031 150.25 130.628906 C 151.269531 129.523438 152.667969 128.761719 153.929688 127.894531 C 154.648438 127.394531 155.449219 127 156.574219 126.355469 C 154.910156 125.121094 153.601562 124.074219 152.214844 123.148438 C 151.050781 122.367188 149.828125 122.253906 148.59375 123.175781 C 146.082031 125.054688 143.511719 126.863281 141 128.742188 C 139.3125 130.003906 138.542969 131.8125 138.15625 134.046875 Z M 131.3125 139.351562 C 128.664062 140.699219 126.644531 142.671875 125.804688 145.667969 C 125.265625 147.621094 125.796875 148.371094 127.722656 148.171875 C 130.925781 147.84375 133.777344 146.4375 136.722656 145.214844 C 136.164062 143.425781 134.433594 143.597656 133.632812 142.644531 C 132.824219 141.691406 132.179688 140.59375 131.304688 139.34375 Z M 153.792969 120.835938 C 155.71875 122.472656 157.402344 123.898438 159.253906 125.46875 C 161.863281 122.417969 165.441406 120.90625 168.890625 119.066406 C 163.84375 118.863281 158.867188 118.757812 153.792969 120.835938 Z M 175.292969 128.308594 C 178.257812 128.308594 180.867188 128.175781 183.457031 128.347656 C 186.285156 128.53125 187.691406 126.585938 189.78125 125.007812 C 185.449219 124.042969 180.835938 124.371094 176.1875 125.871094 C 175.957031 126.507812 175.695312 127.203125 175.292969 128.316406 Z M 205.839844 125.113281 C 204.359375 124.863281 203.75 125.371094 203.269531 126.285156 C 201.585938 129.503906 199.042969 131.863281 195.800781 133.488281 C 195.296875 133.738281 194.855469 134.105469 194.039062 134.644531 C 196.539062 134.585938 198.300781 133.738281 200.007812 132.679688 C 201.429688 131.792969 202.835938 130.820312 204.367188 130.1875 C 205.5625 129.683594 206.070312 128.886719 206.128906 127.789062 C 206.179688 126.914062 205.9375 126.015625 205.820312 125.101562 Z M 181.117188 133.796875 C 184.304688 133.304688 187.078125 132.71875 189.878906 132.476562 C 192.796875 132.21875 194.921875 130.910156 196.539062 128.472656 C 196.269531 128.460938 196.03125 128.375 195.835938 128.453125 C 192.96875 129.570312 190.0625 130.496094 186.960938 130.726562 C 186.527344 130.753906 186.09375 131.003906 185.691406 131.226562 C 184.285156 131.996094 182.898438 132.785156 181.105469 133.796875 Z M 198.03125 118.046875 C 193.296875 115.1875 188.289062 115.082031 183.148438 116.496094 C 188.085938 117.246094 192.988281 118.410156 198.03125 118.046875 Z M 175.550781 136.011719 C 171.519531 134.257812 167.726562 134.363281 163.730469 137.398438 C 168.148438 137.984375 171.824219 136.65625 175.550781 136.011719 Z M 143.308594 135.816406 C 142.808594 137.957031 143.367188 140.441406 144.90625 142.652344 C 145.542969 142.519531 146.253906 142.355469 146.949219 142.203125 C 146.574219 140.960938 146.089844 139.902344 145.976562 138.8125 C 145.859375 137.734375 146.109375 136.617188 146.195312 135.441406 C 145.109375 135.585938 144.195312 135.703125 143.308594 135.816406 Z M 137.792969 137.023438 C 137.222656 141.238281 138.023438 142.960938 141.574219 142.441406 C 141.140625 140.515625 140.699219 138.582031 140.238281 136.550781 C 139.699219 136.589844 139.246094 136.578125 138.820312 136.664062 C 138.457031 136.734375 138.109375 136.90625 137.800781 137.023438 Z M 178.875 122.183594 C 174.953125 122.117188 170.902344 121.078125 166.761719 123.570312 C 171.230469 123.964844 175.148438 124.003906 178.875 122.183594 Z M 133.75 149.875 C 136.5 151.347656 139.292969 151.097656 142.363281 150.808594 C 138.515625 147.871094 137.417969 147.765625 133.75 149.875 Z M 180.328125 130.9375 C 180.296875 130.800781 180.277344 130.667969 180.25 130.53125 C 175.90625 130.714844 171.566406 130.898438 167.222656 131.082031 C 167.726562 131.609375 168.28125 131.929688 168.820312 131.910156 C 172.269531 131.8125 175.707031 131.648438 179.152344 131.464844 C 179.546875 131.449219 179.933594 131.121094 180.328125 130.945312 Z M 159.15625 133.835938 C 156.699219 133.816406 156.035156 134.644531 155.671875 138.0625 C 157.09375 137.386719 158.433594 136.761719 159.78125 136.125 C 159.53125 135.222656 159.359375 134.578125 159.15625 133.835938 Z M 157.894531 139.871094 C 160.011719 140.726562 161.976562 141.316406 164.054688 140.199219 C 162.929688 139.59375 161.949219 139.054688 160.851562 138.464844 C 159.898438 138.917969 158.894531 139.398438 157.894531 139.871094 Z M 149.671875 135.191406 C 148.054688 137.945312 148.046875 138.660156 149.5 140.546875 C 150.039062 140.277344 150.605469 139.988281 151.175781 139.699219 C 150.816406 138.929688 150.480469 138.332031 150.261719 137.6875 C 150.027344 137.003906 149.914062 136.28125 149.664062 135.191406 Z M 181.933594 119.527344 C 177.726562 118.546875 176.542969 118.554688 175.03125 119.421875 C 175.839844 119.460938 176.503906 119.519531 177.167969 119.527344 C 178.757812 119.539062 180.347656 119.527344 181.933594 119.527344 Z M 192.542969 122.734375 C 190.6875 121.203125 189.40625 121.050781 186.238281 121.773438 C 188.519531 122.117188 190.53125 122.425781 192.542969 122.734375 Z M 154.304688 146.8125 C 154.304688 146.660156 154.3125 146.503906 154.324219 146.359375 C 152.425781 146.554688 150.53125 146.746094 148.632812 146.9375 C 148.652344 147.132812 148.679688 147.324219 148.699219 147.527344 C 150.566406 147.285156 152.4375 147.054688 154.292969 146.8125 Z M 163.929688 146.824219 C 163.96875 146.996094 164.007812 147.179688 164.046875 147.351562 L 168.792969 146.3125 C 168.746094 146.109375 168.707031 145.910156 168.660156 145.714844 C 167.078125 146.082031 165.5 146.457031 163.921875 146.824219 Z M 165.328125 150.5 C 165.414062 150.636719 165.5 150.761719 165.585938 150.894531 C 167.175781 150.296875 168.765625 149.691406 170.34375 149.09375 L 170.160156 148.640625 C 168.550781 149.269531 166.933594 149.882812 165.328125 150.511719 Z M 152.550781 136.386719 C 152.734375 136.433594 152.917969 136.484375 153.101562 136.53125 C 153.351562 135.835938 153.601562 135.152344 153.9375 134.21875 C 151.992188 134.480469 152.445312 135.511719 152.5625 136.386719 Z M 195.097656 126.007812 C 193.449219 125.363281 192.832031 126.007812 192.351562 127.007812 C 193.113281 126.730469 193.875 126.460938 195.097656 126.007812 Z M 135.039062 138.3125 C 134.875 138.3125 134.710938 138.3125 134.546875 138.3125 C 134.382812 138.910156 134.210938 139.496094 135.039062 140.363281 Z M 162.882812 127.105469 L 162.988281 127.480469 C 163.691406 127.277344 164.382812 127.078125 165.085938 126.882812 L 165 126.59375 C 164.296875 126.769531 163.585938 126.933594 162.882812 127.105469 Z M 195.367188 120.933594 C 195.886719 121.867188 196.550781 121.40625 197.109375 121.308594 C 197.183594 121.300781 197.242188 121.125 197.378906 120.933594 L 195.355469 120.933594 Z M 163.390625 133.84375 C 162.929688 133.894531 162.476562 133.949219 161.8125 134.019531 C 162.515625 135.117188 162.976562 134.578125 163.390625 133.84375 Z M 163.390625 133.84375 " fill-opacity="1" fill-rule="nonzero"/></g><path fill="#000000" d="M 172.132812 222.140625 C 169.46875 221.863281 166.773438 221.734375 164.132812 221.253906 C 162.429688 220.945312 160.726562 220.292969 159.164062 219.511719 C 155.363281 217.625 153.859375 214.140625 155.152344 210.066406 C 156.160156 206.890625 157.769531 204.011719 160.3125 201.738281 C 163.054688 199.285156 166.15625 197.792969 169.917969 198.023438 C 173.25 198.234375 176.464844 197.867188 179.671875 196.828125 C 182.9375 195.769531 186.355469 195.925781 189.703125 196.609375 C 193.335938 197.339844 195.316406 199.273438 195.65625 202.972656 C 195.894531 205.628906 195.722656 208.34375 195.492188 211.011719 C 195.25 213.726562 193.640625 215.671875 191.304688 217.007812 C 185.941406 220.070312 180.191406 221.8125 173.992188 221.957031 C 173.375 221.96875 172.761719 221.957031 172.144531 221.957031 C 172.144531 222.015625 172.132812 222.074219 172.125 222.140625 Z M 173.367188 208.007812 C 171.574219 208.894531 170.46875 210.367188 169.199219 211.65625 C 167.917969 212.945312 167.109375 212.878906 166.089844 211.386719 C 165.441406 210.453125 164.835938 209.488281 164.054688 208.304688 C 162.199219 209.375 160.464844 210.316406 158.78125 211.347656 C 157.046875 212.417969 156.816406 213.128906 157.808594 214.902344 C 158.269531 215.726562 159.011719 216.566406 159.839844 216.980469 C 161.398438 217.769531 163.066406 218.578125 164.757812 218.800781 C 167.945312 219.214844 171.179688 219.320312 174.386719 219.359375 C 179.488281 219.425781 184.167969 217.761719 188.730469 215.601562 C 191.679688 214.207031 193.199219 212.078125 193.316406 208.785156 C 193.410156 205.976562 193.480469 205.910156 190.476562 204.742188 C 189.839844 206.179688 189.203125 207.640625 188.539062 209.085938 C 187.796875 210.675781 187.085938 210.953125 185.699219 209.941406 C 184.46875 209.046875 183.398438 207.949219 182.203125 206.898438 C 181.953125 207.042969 181.664062 207.160156 181.445312 207.34375 C 180.164062 208.441406 178.902344 209.558594 177.632812 210.664062 C 176.320312 211.800781 175.570312 211.722656 174.65625 210.289062 C 174.203125 209.585938 173.839844 208.824219 173.375 207.988281 Z M 158.414062 208.710938 C 159.925781 207.890625 161.121094 207.1875 162.363281 206.601562 C 164.578125 205.550781 165.183594 205.734375 166.609375 207.699219 C 166.992188 208.21875 167.40625 208.71875 167.851562 209.277344 C 169.304688 207.941406 170.566406 206.707031 171.914062 205.570312 C 173.261719 204.433594 174.117188 204.597656 175.136719 206.070312 C 175.601562 206.734375 176.023438 207.417969 176.449219 208.066406 C 178.085938 206.8125 179.5 205.636719 181.019531 204.597656 C 182.3125 203.722656 182.964844 203.859375 184.0625 204.953125 C 184.804688 205.695312 185.507812 206.484375 186.34375 207.371094 C 187.019531 206.0625 187.527344 204.953125 188.144531 203.894531 C 189.453125 201.644531 189.917969 201.519531 192.382812 202.546875 C 192.488281 202.585938 192.652344 202.492188 192.863281 202.441406 C 192.5625 200.277344 191.109375 199.363281 189.164062 199.023438 C 185.949219 198.457031 182.734375 198.359375 179.585938 199.4375 C 176.707031 200.421875 173.78125 200.890625 170.738281 200.488281 C 170.207031 200.421875 169.660156 200.429688 169.121094 200.449219 C 164.585938 200.585938 159.945312 204.050781 158.40625 208.710938 Z M 158.414062 208.710938 " fill-opacity="1" fill-rule="nonzero"/><path fill="#000000" d="M 205.332031 147.71875 C 210.355469 147.832031 215.21875 149.921875 218.867188 154.488281 C 220.351562 156.34375 221.6875 158.328125 223.09375 160.253906 C 223.535156 160.859375 223.816406 161.503906 223.132812 162.082031 C 222.402344 162.6875 221.785156 162.1875 221.359375 161.648438 C 220.117188 160.082031 218.953125 158.460938 217.761719 156.855469 C 215.421875 153.714844 212.417969 151.578125 208.566406 150.722656 C 205.351562 150 202.105469 149.902344 199.101562 151.433594 C 197.695312 152.148438 196.386719 153.1875 195.308594 154.332031 C 193.902344 155.824219 193.460938 157.796875 194.257812 159.703125 C 194.992188 161.449219 195.960938 163.140625 197.128906 164.625 C 198.109375 165.867188 199.476562 166.828125 200.765625 167.792969 C 202.914062 169.410156 205.148438 170.921875 207.324219 172.5 C 216.007812 178.777344 220.175781 187.742188 222.265625 197.886719 C 222.457031 198.832031 222.34375 199.871094 222.160156 200.835938 C 222.09375 201.199219 221.417969 201.71875 221.050781 201.691406 C 220.675781 201.671875 220.109375 201.113281 220.023438 200.710938 C 219.800781 199.667969 219.953125 198.542969 219.703125 197.503906 C 217.507812 188.492188 213.878906 180.316406 206.050781 174.667969 C 203.5 172.816406 200.921875 171.007812 198.378906 169.140625 C 196.320312 167.628906 194.507812 165.855469 193.191406 163.640625 C 189.953125 158.210938 191.371094 152.839844 196.847656 149.691406 C 199.042969 148.429688 201.816406 147.726562 205.332031 147.71875 Z M 205.332031 147.71875 " fill-opacity="1" fill-rule="nonzero"/><path fill="#000000" d="M 130.023438 206.535156 C 130.378906 200.34375 131.832031 194.546875 134.566406 189.128906 C 136.289062 185.691406 138.300781 182.40625 140.121094 179.019531 C 141.394531 176.648438 142.625 174.253906 143.75 171.816406 C 144.222656 170.785156 144.503906 169.621094 144.617188 168.496094 C 144.886719 165.855469 143.261719 164.132812 140.621094 164.453125 C 139.140625 164.625 137.636719 165.203125 136.289062 165.886719 C 133.652344 167.222656 131.535156 169.253906 129.597656 171.480469 C 125.488281 176.207031 122.726562 181.644531 120.933594 187.625 C 120.730469 188.289062 120.597656 188.992188 120.25 189.570312 C 120.066406 189.878906 119.460938 190.15625 119.132812 190.082031 C 118.796875 190.003906 118.460938 189.511719 118.335938 189.128906 C 118.226562 188.808594 118.382812 188.375 118.480469 188.011719 C 120.511719 180.183594 124.015625 173.15625 129.945312 167.550781 C 131.71875 165.886719 133.824219 164.546875 135.90625 163.246094 C 137.550781 162.21875 139.457031 161.84375 141.441406 161.957031 C 145.050781 162.167969 147.488281 164.757812 147.167969 168.359375 C 147.035156 169.863281 146.640625 171.410156 146.035156 172.796875 C 144.964844 175.261719 143.703125 177.652344 142.421875 180.007812 C 140.816406 182.984375 139.074219 185.890625 137.464844 188.867188 C 134.828125 193.730469 133.324219 198.957031 132.652344 204.425781 C 132.410156 206.332031 132.257812 208.246094 133.140625 210.097656 C 133.304688 210.433594 133.046875 211.359375 132.804688 211.433594 C 132.324219 211.578125 131.515625 211.511719 131.207031 211.183594 C 130.714844 210.664062 130.386719 209.882812 130.234375 209.164062 C 130.03125 208.277344 130.070312 207.332031 130.011719 206.523438 Z M 130.023438 206.535156 " fill-opacity="1" fill-rule="nonzero"/><path fill="#000000" d="M 188.046875 189.570312 C 187.789062 189.109375 187.394531 188.703125 187.394531 188.289062 C 187.394531 187.90625 187.722656 187.421875 188.046875 187.144531 C 189.867188 185.621094 191.726562 184.140625 193.59375 182.667969 C 194.171875 182.214844 194.875 181.945312 195.433594 182.636719 C 196.089844 183.445312 195.519531 184.089844 194.902344 184.582031 C 193.054688 186.074219 191.1875 187.539062 189.300781 188.992188 C 189.011719 189.214844 188.625 189.300781 188.046875 189.558594 Z M 188.046875 189.570312 " fill-opacity="1" fill-rule="nonzero"/><path fill="#000000" d="M 151.984375 187.328125 C 152.089844 187.335938 152.175781 187.328125 152.234375 187.355469 C 154.363281 188.53125 156.519531 189.675781 158.597656 190.9375 C 158.875 191.101562 158.984375 191.988281 158.800781 192.332031 C 158.644531 192.621094 157.816406 192.863281 157.492188 192.699219 C 155.574219 191.753906 153.695312 190.726562 151.847656 189.65625 C 151.492188 189.453125 151.195312 188.984375 151.078125 188.578125 C 150.867188 187.847656 151.28125 187.433594 151.984375 187.328125 Z M 151.984375 187.328125 " fill-opacity="1" fill-rule="nonzero"/></svg>