<svg xmlns="http://www.w3.org/2000/svg" xmlns:xlink="http://www.w3.org/1999/xlink" width="500" zoomAndPan="magnify" viewBox="0 0 375 374.999991" height="500" preserveAspectRatio="xMidYMid meet" version="1.2"><defs><clipPath id="fc2bd6a35d"><path d="M 8 27 L 366.984375 27 L 366.984375 375 L 8 375 Z M 8 27 "/></clipPath></defs><g id="ac3cdd9534"><g clip-rule="nonzero" clip-path="url(#fc2bd6a35d)"><path style=" stroke:none;fill-rule:nonzero;fill:#dde225;fill-opacity:1;" d="M 8.375 205.558594 C 8.207031 179.609375 11.839844 156.6875 21.050781 134.777344 C 27.496094 119.457031 35.816406 105.269531 46.160156 92.257812 C 51.640625 85.355469 57.269531 78.550781 63.644531 72.417969 C 85.722656 51.082031 111.457031 36.84375 141.808594 31.050781 C 156.816406 28.1875 171.894531 26.960938 187 28.066406 C 203.207031 29.269531 219.273438 32.011719 234.929688 36.652344 C 237.503906 37.421875 240.03125 38.214844 242.773438 38.410156 C 244.816406 38.554688 246.933594 39.273438 248.785156 40.210938 C 265.210938 48.535156 281.828125 56.519531 297.945312 65.464844 C 318.21875 76.722656 333.632812 92.980469 344.867188 113.375 C 354.4375 130.761719 359.824219 149.496094 363.410156 168.785156 C 366.078125 183.144531 367.039062 197.792969 365.863281 212.339844 C 364.011719 235.621094 357.179688 257.4375 344.648438 277.328125 C 336.832031 289.710938 327.671875 300.945312 317.496094 311.503906 C 303.59375 325.910156 288.828125 339.160156 271.992188 350.101562 C 254.386719 361.550781 235.363281 369.441406 214.558594 372.589844 C 200.875 374.660156 187.117188 374.464844 173.265625 373.046875 C 155.253906 371.21875 137.742188 367.445312 120.667969 361.527344 C 100.730469 354.601562 82.355469 344.738281 65.90625 331.488281 C 50.945312 319.4375 38.917969 304.9375 29.371094 288.195312 C 21.601562 274.558594 15.832031 260.203125 12.585938 244.90625 C 9.675781 231.222656 7.847656 217.34375 8.328125 205.558594 Z M 86.15625 221.144531 C 86.371094 221.070312 86.5625 221.023438 86.730469 220.976562 C 88.464844 220.421875 92.578125 214.21875 92.457031 212.316406 C 92.335938 210.394531 90.097656 209 88.34375 209.746094 C 86.226562 210.660156 83.027344 216.621094 83.484375 218.8125 C 83.796875 220.277344 84.589844 221.167969 86.15625 221.144531 Z M 105.949219 215.203125 C 105.996094 213.882812 105.324219 213.015625 104.144531 212.628906 C 102.773438 212.171875 101.449219 212.390625 100.535156 213.566406 C 99.117188 215.371094 98.15625 217.441406 97.554688 219.652344 C 97.171875 221.097656 97.722656 222.203125 99.09375 222.972656 C 100.488281 223.742188 101.644531 223.476562 102.652344 222.371094 C 104.53125 220.351562 105.179688 217.730469 105.972656 215.203125 Z M 229.929688 195.578125 C 230.386719 198.03125 231.925781 200.148438 233.945312 201.929688 C 234.835938 202.722656 235.917969 203.058594 237 202.167969 C 238.058594 201.300781 238.972656 200.390625 238.394531 198.824219 C 237.527344 196.445312 235.894531 194.640625 233.992188 193.027344 C 233.273438 192.402344 232.40625 191.972656 231.394531 192.5 C 230.265625 193.101562 229.878906 194.113281 229.90625 195.601562 Z M 217.832031 208.179688 C 217.351562 206.496094 216.941406 204.644531 216.316406 202.867188 C 215.8125 201.445312 214.679688 200.796875 213.164062 201.109375 C 211.578125 201.421875 210.808594 202.792969 210.878906 204.019531 C 211.023438 206.066406 211.578125 208.109375 212.324219 210.03125 C 212.78125 211.257812 213.960938 212.316406 215.5 211.8125 C 217.039062 211.285156 218 210.128906 217.855469 208.203125 Z M 228.460938 204.140625 C 227.765625 202.746094 226.921875 200.871094 225.863281 199.089844 C 225.238281 198.007812 224.132812 197.71875 222.90625 198.25 C 221.824219 198.730469 220.789062 199.402344 220.886719 200.703125 C 221.03125 202.984375 221.632812 205.199219 223.21875 206.929688 C 224.203125 207.988281 225.574219 208.085938 226.898438 207.460938 C 228.027344 206.929688 228.582031 205.992188 228.460938 204.140625 Z M 74.035156 216.960938 C 77.113281 217.054688 80.625 212.484375 79.828125 209.695312 C 79.371094 208.085938 78.195312 207.722656 76.75 208.035156 C 74.464844 208.542969 71.867188 212.027344 71.941406 214.386719 C 71.988281 215.925781 72.664062 216.886719 74.058594 216.960938 Z M 74.035156 216.960938 "/></g><path style=" stroke:none;fill-rule:nonzero;fill:#fa9f6d;fill-opacity:1;" d="M 86.15625 221.144531 C 84.589844 221.167969 83.796875 220.277344 83.484375 218.8125 C 83.027344 216.621094 86.226562 210.660156 88.34375 209.746094 C 90.097656 208.976562 92.335938 210.371094 92.457031 212.316406 C 92.578125 214.21875 88.464844 220.421875 86.730469 220.976562 C 86.5625 221.023438 86.371094 221.097656 86.15625 221.144531 Z M 86.15625 221.144531 "/><path style=" stroke:none;fill-rule:nonzero;fill:#fa9f6d;fill-opacity:1;" d="M 105.949219 215.203125 C 105.15625 217.730469 104.503906 220.351562 102.628906 222.371094 C 101.621094 223.476562 100.464844 223.742188 99.070312 222.972656 C 97.699219 222.226562 97.144531 221.097656 97.53125 219.652344 C 98.132812 217.441406 99.117188 215.371094 100.511719 213.570312 C 101.425781 212.390625 102.75 212.171875 104.121094 212.628906 C 105.300781 213.015625 105.972656 213.882812 105.925781 215.203125 Z M 105.949219 215.203125 "/><path style=" stroke:none;fill-rule:nonzero;fill:#fa9f6d;fill-opacity:1;" d="M 229.929688 195.578125 C 229.929688 194.085938 230.289062 193.078125 231.417969 192.476562 C 232.40625 191.945312 233.296875 192.378906 234.015625 193.003906 C 235.894531 194.617188 237.554688 196.394531 238.417969 198.800781 C 238.972656 200.363281 238.082031 201.277344 237.023438 202.144531 C 235.941406 203.035156 234.859375 202.699219 233.96875 201.902344 C 231.949219 200.125 230.433594 198.007812 229.953125 195.554688 Z M 229.929688 195.578125 "/><path style=" stroke:none;fill-rule:nonzero;fill:#fa9f6d;fill-opacity:1;" d="M 217.832031 208.179688 C 217.953125 210.105469 217.011719 211.285156 215.472656 211.789062 C 213.933594 212.292969 212.78125 211.234375 212.300781 210.007812 C 211.578125 208.085938 211 206.015625 210.855469 203.996094 C 210.785156 202.769531 211.554688 201.398438 213.140625 201.085938 C 214.679688 200.773438 215.8125 201.421875 216.292969 202.84375 C 216.917969 204.621094 217.351562 206.472656 217.808594 208.15625 Z M 217.832031 208.179688 "/><path style=" stroke:none;fill-rule:nonzero;fill:#fa9f6d;fill-opacity:1;" d="M 228.460938 204.140625 C 228.558594 205.96875 228.027344 206.90625 226.898438 207.460938 C 225.574219 208.085938 224.203125 207.988281 223.21875 206.929688 C 221.632812 205.199219 221.03125 202.984375 220.886719 200.703125 C 220.8125 199.402344 221.824219 198.730469 222.90625 198.25 C 224.132812 197.71875 225.238281 198.007812 225.863281 199.089844 C 226.921875 200.871094 227.765625 202.769531 228.460938 204.140625 Z M 228.460938 204.140625 "/><path style=" stroke:none;fill-rule:nonzero;fill:#fa9f6d;fill-opacity:1;" d="M 74.035156 216.960938 C 72.636719 216.863281 71.964844 215.925781 71.917969 214.386719 C 71.84375 212.027344 74.441406 208.519531 76.726562 208.035156 C 78.171875 207.722656 79.347656 208.109375 79.804688 209.695312 C 80.597656 212.511719 77.085938 217.054688 74.007812 216.960938 Z M 74.035156 216.960938 "/><path style=" stroke:none;fill-rule:nonzero;fill:#000000;fill-opacity:1;" d="M 137.261719 101.492188 C 130.238281 102.984375 124.105469 104.476562 117.902344 105.582031 C 108.640625 107.21875 99.597656 107 91.039062 102.214844 C 89.066406 101.132812 86.25 101.132812 83.871094 101.300781 C 75.453125 101.902344 67.082031 103.488281 58.617188 101.878906 C 54.410156 101.085938 50.222656 99.929688 47.242188 96.777344 C 45.316406 94.734375 43.464844 94.757812 41.085938 95.023438 C 38.65625 95.3125 36.082031 95.527344 33.699219 95.09375 C 29.011719 94.230469 26.847656 91.414062 26.652344 86.652344 C 26.4375 81.652344 28.191406 77.226562 30.839844 73.113281 C 34.46875 67.4375 39.640625 63.445312 45.628906 60.65625 C 48.804688 59.164062 50.992188 57.214844 52.292969 53.992188 C 52.941406 52.40625 53.953125 50.964844 54.960938 49.566406 C 59.097656 43.796875 63.136719 37.953125 67.515625 32.371094 C 73.503906 24.746094 80.742188 19.023438 90.964844 18.230469 C 92.816406 18.085938 94.667969 17.269531 96.425781 16.523438 C 107.34375 11.808594 118.765625 9.691406 130.625 9.523438 C 133.316406 9.5 136.011719 9.402344 138.679688 9.476562 C 148.492188 9.789062 157.945312 8.898438 167.421875 5.339844 C 178.628906 1.203125 190.582031 -0.0234375 202.582031 2.523438 C 211 4.328125 218.480469 7.769531 224.660156 14.117188 C 227.933594 17.484375 231.972656 20.179688 235.917969 22.800781 C 237.144531 23.617188 239.234375 23.304688 240.917969 23.234375 C 247.4375 23.015625 253.5 24.460938 259.078125 27.828125 C 267.90625 33.164062 271.152344 41.726562 268.046875 51.589844 C 265.621094 59.308594 260.546875 64.886719 253.714844 68.976562 C 244.671875 74.414062 234.617188 76.890625 224.375 78.691406 C 211.84375 80.90625 199.167969 81.433594 186.46875 81.050781 C 182.09375 80.929688 178.386719 81.964844 174.539062 84.105469 C 166.820312 88.363281 158.8125 92.136719 150.753906 95.722656 C 146.066406 97.789062 144.382812 102.070312 142.121094 105.894531 C 140.703125 108.300781 142.890625 110.246094 144.621094 111.738281 C 148.855469 115.441406 151.089844 120.253906 152.605469 125.496094 C 152.871094 126.410156 153.160156 127.347656 153.28125 128.285156 C 153.542969 130.378906 153.039062 132.277344 150.753906 132.757812 C 148.566406 133.214844 147.628906 131.53125 147.316406 129.726562 C 146.257812 123.644531 143.539062 118.570312 138.992188 114.335938 C 135.339844 110.921875 135.3125 106.542969 137.261719 101.46875 Z M 239.621094 29.535156 C 241.570312 36.292969 240.199219 43.148438 245.632812 48.292969 C 247.726562 50.289062 246.644531 53.078125 243.902344 54.328125 C 236.757812 57.554688 229.738281 61.136719 222.425781 63.855469 C 213.285156 67.246094 203.859375 69.914062 194.574219 72.921875 C 193.445312 73.28125 192.386719 73.90625 191.28125 74.386719 C 206.886719 74.84375 222.207031 73.980469 236.976562 69.3125 C 242.21875 67.652344 247.339844 65.273438 252.078125 62.484375 C 257.515625 59.285156 261.144531 54.328125 262.542969 47.957031 C 263.792969 42.257812 262.058594 37.6875 257.464844 34.296875 C 252.535156 30.664062 246.882812 29.246094 239.644531 29.535156 Z M 64.101562 53.800781 C 66.503906 53.351562 68.085938 52.429688 68.839844 51.035156 C 70.472656 48.003906 71.125 47.789062 74.203125 49.183594 C 75.234375 49.640625 76.34375 50.625 77.28125 50.507812 C 83.195312 49.640625 89.523438 50.480469 94.308594 45.285156 C 96.855469 42.519531 100.34375 40.621094 103.496094 38.457031 C 105.300781 37.207031 107.296875 36.21875 110.109375 34.609375 C 105.949219 31.53125 102.675781 28.910156 99.214844 26.601562 C 96.304688 24.652344 93.25 24.363281 90.171875 26.671875 C 83.894531 31.363281 77.472656 35.882812 71.195312 40.574219 C 66.988281 43.722656 65.0625 48.246094 64.101562 53.824219 Z M 47 67.078125 C 40.386719 70.445312 35.335938 75.375 33.242188 82.855469 C 31.898438 87.734375 33.21875 89.613281 38.03125 89.105469 C 46.039062 88.289062 53.15625 84.777344 60.515625 81.722656 C 59.121094 77.25 54.792969 77.683594 52.796875 75.300781 C 50.777344 72.921875 49.164062 70.179688 46.976562 67.054688 Z M 103.160156 20.828125 C 107.96875 24.917969 112.175781 28.476562 116.796875 32.394531 C 123.3125 24.773438 132.257812 20.996094 140.871094 16.402344 C 128.265625 15.898438 115.832031 15.632812 103.160156 20.828125 Z M 156.863281 39.492188 C 164.269531 39.492188 170.789062 39.152344 177.257812 39.585938 C 184.328125 40.042969 187.839844 35.1875 193.058594 31.242188 C 182.238281 28.835938 170.714844 29.652344 159.101562 33.40625 C 158.523438 34.992188 157.875 36.726562 156.863281 39.515625 Z M 233.175781 31.507812 C 229.472656 30.878906 227.957031 32.15625 226.753906 34.441406 C 222.546875 42.472656 216.195312 48.367188 208.089844 52.429688 C 206.839844 53.054688 205.734375 53.96875 203.691406 55.316406 C 209.941406 55.171875 214.34375 53.054688 218.601562 50.410156 C 222.160156 48.195312 225.671875 45.769531 229.496094 44.179688 C 232.476562 42.929688 233.753906 40.933594 233.898438 38.191406 C 234.015625 36.003906 233.417969 33.765625 233.128906 31.480469 Z M 171.414062 53.199219 C 179.375 51.972656 186.300781 50.507812 193.300781 49.90625 C 200.585938 49.253906 205.902344 45.984375 209.941406 39.898438 C 209.269531 39.875 208.667969 39.660156 208.1875 39.851562 C 201.019531 42.640625 193.757812 44.949219 186.011719 45.527344 C 184.929688 45.601562 183.847656 46.226562 182.835938 46.777344 C 179.328125 48.703125 175.863281 50.675781 171.390625 53.199219 Z M 213.671875 13.851562 C 201.835938 6.710938 189.332031 6.445312 176.488281 9.980469 C 188.828125 11.855469 201.066406 14.765625 213.671875 13.851562 Z M 157.511719 58.730469 C 147.4375 54.355469 137.960938 54.617188 127.980469 62.195312 C 139.019531 63.660156 148.207031 60.34375 157.511719 58.730469 Z M 76.96875 58.25 C 75.71875 63.589844 77.113281 69.792969 80.960938 75.324219 C 82.546875 74.988281 84.328125 74.582031 86.058594 74.195312 C 85.121094 71.09375 83.917969 68.449219 83.628906 65.730469 C 83.339844 63.035156 83.964844 60.246094 84.183594 57.3125 C 81.464844 57.671875 79.179688 57.960938 76.96875 58.25 Z M 63.1875 61.257812 C 61.769531 71.789062 63.765625 76.097656 72.636719 74.796875 C 71.554688 69.988281 70.449219 65.152344 69.296875 60.078125 C 67.949219 60.175781 66.816406 60.148438 65.761719 60.367188 C 64.847656 60.535156 63.980469 60.96875 63.210938 61.257812 Z M 165.808594 24.195312 C 156.023438 24.027344 145.894531 21.429688 135.554688 27.65625 C 146.714844 28.644531 156.503906 28.742188 165.808594 24.195312 Z M 53.085938 93.363281 C 59.964844 97.042969 66.9375 96.417969 74.609375 95.695312 C 64.992188 88.363281 62.25 88.097656 53.085938 93.363281 Z M 169.441406 46.058594 C 169.371094 45.71875 169.320312 45.382812 169.25 45.046875 C 158.402344 45.503906 147.554688 45.960938 136.710938 46.417969 C 137.960938 47.738281 139.355469 48.535156 140.703125 48.484375 C 149.3125 48.246094 157.898438 47.835938 166.507812 47.378906 C 167.492188 47.332031 168.457031 46.511719 169.441406 46.082031 Z M 116.554688 53.296875 C 110.421875 53.246094 108.761719 55.316406 107.847656 63.855469 C 111.40625 62.171875 114.75 60.605469 118.117188 59.019531 C 117.492188 56.757812 117.058594 55.148438 116.554688 53.296875 Z M 113.402344 68.375 C 118.695312 70.515625 123.601562 71.984375 128.796875 69.191406 C 125.984375 67.679688 123.53125 66.332031 120.789062 64.863281 C 118.40625 65.996094 115.90625 67.195312 113.402344 68.375 Z M 92.863281 56.6875 C 88.824219 63.566406 88.800781 65.34375 92.433594 70.058594 C 93.777344 69.386719 95.199219 68.664062 96.617188 67.941406 C 95.726562 66.019531 94.886719 64.527344 94.332031 62.917969 C 93.753906 61.207031 93.464844 59.40625 92.839844 56.6875 Z M 173.457031 17.558594 C 162.949219 15.105469 159.988281 15.128906 156.214844 17.292969 C 158.234375 17.386719 159.894531 17.53125 161.554688 17.558594 C 165.523438 17.582031 169.488281 17.558594 173.457031 17.558594 Z M 199.960938 25.566406 C 195.320312 21.742188 192.121094 21.355469 184.207031 23.160156 C 189.910156 24.027344 194.933594 24.796875 199.960938 25.566406 Z M 104.433594 85.714844 C 104.433594 85.332031 104.457031 84.945312 104.480469 84.585938 C 99.742188 85.066406 95.003906 85.546875 90.265625 86.027344 C 90.316406 86.507812 90.386719 86.992188 90.4375 87.496094 C 95.101562 86.894531 99.765625 86.316406 104.410156 85.714844 Z M 128.484375 85.738281 C 128.578125 86.171875 128.675781 86.628906 128.773438 87.0625 L 140.628906 84.464844 C 140.507812 83.960938 140.414062 83.457031 140.292969 82.972656 C 136.347656 83.886719 132.402344 84.824219 128.460938 85.738281 Z M 131.972656 94.925781 C 132.1875 95.265625 132.402344 95.578125 132.621094 95.914062 C 136.589844 94.421875 140.558594 92.90625 144.5 91.414062 L 144.042969 90.285156 C 140.027344 91.847656 135.988281 93.386719 131.972656 94.953125 Z M 100.054688 59.667969 C 100.511719 59.789062 100.96875 59.910156 101.425781 60.03125 C 102.050781 58.296875 102.675781 56.589844 103.519531 54.257812 C 98.660156 54.90625 99.792969 57.480469 100.082031 59.667969 Z M 206.335938 33.742188 C 202.222656 32.132812 200.683594 33.742188 199.480469 36.242188 C 201.378906 35.546875 203.28125 34.875 206.335938 33.742188 Z M 56.308594 64.480469 C 55.898438 64.480469 55.492188 64.480469 55.082031 64.480469 C 54.671875 65.96875 54.238281 67.4375 56.308594 69.601562 Z M 125.863281 36.484375 L 126.125 37.421875 C 127.882812 36.917969 129.613281 36.414062 131.371094 35.929688 L 131.152344 35.210938 C 129.398438 35.644531 127.617188 36.050781 125.863281 36.484375 Z M 207.007812 21.066406 C 208.308594 23.402344 209.96875 22.246094 211.363281 22.007812 C 211.554688 21.980469 211.699219 21.550781 212.035156 21.066406 L 206.984375 21.066406 Z M 127.136719 53.320312 C 125.984375 53.441406 124.851562 53.585938 123.191406 53.753906 C 124.949219 56.496094 126.101562 55.148438 127.136719 53.320312 Z M 127.136719 53.320312 "/><path style=" stroke:none;fill-rule:nonzero;fill:#000000;fill-opacity:1;" d="M 148.976562 273.886719 C 142.3125 273.191406 135.578125 272.875 128.988281 271.675781 C 124.730469 270.90625 120.476562 269.269531 116.578125 267.320312 C 107.078125 262.605469 103.328125 253.902344 106.550781 243.726562 C 109.074219 235.789062 113.089844 228.601562 119.441406 222.925781 C 126.296875 216.792969 134.039062 213.0625 143.441406 213.640625 C 151.765625 214.167969 159.796875 213.253906 167.804688 210.660156 C 175.960938 208.011719 184.496094 208.398438 192.867188 210.105469 C 201.933594 211.933594 206.886719 216.765625 207.730469 226.003906 C 208.332031 232.640625 207.898438 239.421875 207.320312 246.085938 C 206.71875 252.867188 202.703125 257.726562 196.859375 261.066406 C 183.464844 268.714844 169.105469 273.070312 153.617188 273.429688 C 152.078125 273.453125 150.539062 273.429688 149 273.429688 C 149 273.574219 148.976562 273.71875 148.949219 273.886719 Z M 152.054688 238.582031 C 147.578125 240.792969 144.8125 244.472656 141.640625 247.695312 C 138.441406 250.917969 136.421875 250.75 133.871094 247.023438 C 132.257812 244.691406 130.746094 242.285156 128.796875 239.328125 C 124.15625 241.996094 119.824219 244.351562 115.617188 246.925781 C 111.289062 249.597656 110.710938 251.375 113.1875 255.800781 C 114.34375 257.871094 116.195312 259.960938 118.261719 260.996094 C 122.160156 262.96875 126.320312 264.988281 130.550781 265.542969 C 138.511719 266.574219 146.59375 266.839844 154.601562 266.9375 C 167.347656 267.105469 179.039062 262.945312 190.4375 257.558594 C 197.796875 254.070312 201.597656 248.753906 201.886719 240.527344 C 202.125 233.507812 202.292969 233.335938 194.789062 230.429688 C 193.203125 234.011719 191.617188 237.667969 189.957031 241.273438 C 188.105469 245.242188 186.324219 245.941406 182.863281 243.414062 C 179.785156 241.179688 177.113281 238.4375 174.132812 235.816406 C 173.507812 236.175781 172.785156 236.464844 172.230469 236.921875 C 169.03125 239.664062 165.882812 242.453125 162.707031 245.21875 C 159.4375 248.058594 157.5625 247.863281 155.277344 244.28125 C 154.144531 242.523438 153.230469 240.625 152.078125 238.53125 Z M 114.703125 240.335938 C 118.480469 238.292969 121.460938 236.535156 124.5625 235.070312 C 130.09375 232.449219 131.609375 232.90625 135.167969 237.8125 C 136.132812 239.109375 137.164062 240.359375 138.273438 241.753906 C 141.902344 238.414062 145.054688 235.335938 148.421875 232.496094 C 151.789062 229.65625 153.929688 230.066406 156.480469 233.746094 C 157.632812 235.40625 158.691406 237.113281 159.75 238.726562 C 163.839844 235.597656 167.375 232.664062 171.171875 230.066406 C 174.394531 227.878906 176.03125 228.214844 178.773438 230.957031 C 180.625 232.808594 182.382812 234.78125 184.472656 236.992188 C 186.15625 233.722656 187.429688 230.957031 188.972656 228.3125 C 192.242188 222.683594 193.394531 222.371094 199.554688 224.945312 C 199.816406 225.039062 200.226562 224.800781 200.753906 224.679688 C 200.011719 219.269531 196.378906 216.984375 191.519531 216.140625 C 183.488281 214.722656 175.453125 214.480469 167.589844 217.175781 C 160.398438 219.628906 153.085938 220.808594 145.488281 219.796875 C 144.164062 219.628906 142.792969 219.652344 141.445312 219.703125 C 130.121094 220.039062 118.527344 228.695312 114.679688 240.335938 Z M 114.703125 240.335938 "/><path style=" stroke:none;fill-rule:nonzero;fill:#000000;fill-opacity:1;" d="M 231.902344 87.976562 C 244.457031 88.265625 256.601562 93.484375 265.714844 104.882812 C 269.417969 109.527344 272.761719 114.480469 276.273438 119.289062 C 277.378906 120.804688 278.078125 122.417969 276.371094 123.859375 C 274.542969 125.375 273.003906 124.125 271.945312 122.777344 C 268.84375 118.859375 265.933594 114.816406 262.949219 110.800781 C 257.105469 102.960938 249.601562 97.621094 239.980469 95.480469 C 231.949219 93.675781 223.84375 93.4375 216.339844 97.261719 C 212.828125 99.039062 209.558594 101.636719 206.863281 104.5 C 203.351562 108.226562 202.246094 113.15625 204.242188 117.917969 C 206.070312 122.273438 208.5 126.503906 211.410156 130.210938 C 213.863281 133.3125 217.277344 135.71875 220.5 138.121094 C 225.863281 142.164062 231.445312 145.9375 236.878906 149.882812 C 258.574219 165.5625 268.988281 187.953125 274.207031 213.304688 C 274.6875 215.660156 274.398438 218.257812 273.941406 220.664062 C 273.773438 221.578125 272.089844 222.875 271.175781 222.804688 C 270.238281 222.753906 268.820312 221.359375 268.601562 220.351562 C 268.046875 217.753906 268.433594 214.9375 267.808594 212.339844 C 262.324219 189.832031 253.257812 169.410156 233.703125 155.292969 C 227.332031 150.675781 220.886719 146.15625 214.535156 141.488281 C 209.390625 137.714844 204.867188 133.289062 201.574219 127.757812 C 193.492188 114.191406 197.027344 100.773438 210.710938 92.90625 C 216.195312 89.757812 223.121094 88 231.902344 87.976562 Z M 231.902344 87.976562 "/><path style=" stroke:none;fill-rule:nonzero;fill:#000000;fill-opacity:1;" d="M 43.777344 234.902344 C 44.667969 219.4375 48.300781 204.957031 55.128906 191.417969 C 59.433594 182.832031 64.460938 174.628906 69.007812 166.164062 C 72.179688 160.25 75.261719 154.261719 78.074219 148.175781 C 79.253906 145.601562 79.949219 142.691406 80.238281 139.878906 C 80.910156 133.289062 76.847656 128.984375 70.257812 129.777344 C 66.554688 130.210938 62.800781 131.652344 59.433594 133.359375 C 52.84375 136.703125 47.554688 141.777344 42.71875 147.332031 C 32.449219 159.140625 25.546875 172.730469 21.074219 187.664062 C 20.570312 189.324219 20.234375 191.082031 19.367188 192.523438 C 18.910156 193.292969 17.394531 193.992188 16.578125 193.800781 C 15.734375 193.605469 14.894531 192.378906 14.582031 191.417969 C 14.316406 190.625 14.699219 189.542969 14.941406 188.628906 C 20.015625 169.074219 28.769531 151.519531 43.585938 137.519531 C 48.011719 133.359375 53.277344 130.015625 58.472656 126.769531 C 62.585938 124.195312 67.347656 123.257812 72.300781 123.546875 C 81.320312 124.078125 87.40625 130.546875 86.613281 139.539062 C 86.273438 143.292969 85.289062 147.164062 83.773438 150.628906 C 81.105469 156.785156 77.953125 162.75 74.753906 168.640625 C 70.738281 176.074219 66.386719 183.335938 62.367188 190.769531 C 55.777344 202.914062 52.027344 215.972656 50.34375 229.632812 C 49.742188 234.394531 49.359375 239.183594 51.570312 243.800781 C 51.980469 244.640625 51.328125 246.949219 50.730469 247.144531 C 49.527344 247.503906 47.503906 247.335938 46.734375 246.515625 C 45.507812 245.21875 44.691406 243.269531 44.308594 241.46875 C 43.800781 239.253906 43.898438 236.898438 43.753906 234.878906 Z M 43.777344 234.902344 "/><path style=" stroke:none;fill-rule:nonzero;fill:#000000;fill-opacity:1;" d="M 188.730469 192.523438 C 188.082031 191.371094 187.09375 190.359375 187.09375 189.324219 C 187.09375 188.363281 187.914062 187.160156 188.730469 186.464844 C 193.277344 182.664062 197.917969 178.960938 202.582031 175.28125 C 204.027344 174.148438 205.78125 173.476562 207.175781 175.207031 C 208.8125 177.226562 207.394531 178.839844 205.855469 180.066406 C 201.238281 183.792969 196.570312 187.449219 191.855469 191.082031 C 191.136719 191.632812 190.171875 191.851562 188.730469 192.5 Z M 188.730469 192.523438 "/><path style=" stroke:none;fill-rule:nonzero;fill:#000000;fill-opacity:1;" d="M 98.636719 186.921875 C 98.902344 186.945312 99.117188 186.921875 99.261719 186.992188 C 104.578125 189.925781 109.964844 192.789062 115.160156 195.9375 C 115.855469 196.347656 116.121094 198.5625 115.664062 199.425781 C 115.28125 200.148438 113.210938 200.75 112.394531 200.339844 C 107.609375 197.984375 102.917969 195.410156 98.300781 192.742188 C 97.410156 192.234375 96.664062 191.058594 96.375 190.046875 C 95.847656 188.21875 96.882812 187.183594 98.636719 186.921875 Z M 98.636719 186.921875 "/></g></svg>