<svg xmlns="http://www.w3.org/2000/svg" xmlns:xlink="http://www.w3.org/1999/xlink" width="500" zoomAndPan="magnify" viewBox="0 0 375 374.999991" height="500" preserveAspectRatio="xMidYMid meet" version="1.0"><defs><clipPath id="1d5340af36"><path d="M 116 117.5625 L 262.5 117.5625 L 262.5 257.8125 L 116 257.8125 Z M 116 117.5625 " clip-rule="nonzero"/></clipPath><clipPath id="899e1d81e7"><path d="M 112.5 167 L 128 167 L 128 174 L 112.5 174 Z M 112.5 167 " clip-rule="nonzero"/></clipPath></defs><g clip-path="url(#1d5340af36)"><path fill="#f8dbdb" d="M 191.554688 257.101562 C 180.882812 257.28125 171.402344 255.449219 162.132812 252.414062 C 156.628906 250.617188 151.792969 247.605469 147.234375 244.058594 C 142.933594 240.714844 138.957031 237 135.363281 232.945312 C 128.992188 225.761719 123.378906 218.011719 119.984375 208.917969 C 118.730469 205.554688 117.953125 202.027344 117.40625 198.4375 C 116.792969 194.363281 116.953125 190.296875 117.085938 186.242188 C 117.199219 182.652344 118.085938 179.105469 119.023438 175.628906 C 120.75 169.210938 123.113281 163.027344 126.1875 157.113281 C 130.457031 148.871094 135.863281 141.441406 142.886719 135.375 C 151.148438 128.226562 160.628906 123.246094 171.28125 120.582031 C 174.996094 119.65625 178.746094 118.792969 182.539062 118.417969 C 186.421875 118.027344 190.335938 117.566406 194.257812 117.878906 C 204.902344 118.699219 214.976562 121.480469 224.257812 126.847656 C 228.765625 129.457031 232.953125 132.472656 236.695312 136.148438 C 243.207031 142.527344 248.53125 149.757812 253.019531 157.671875 C 256.5 163.804688 259.277344 170.183594 260.882812 177.066406 C 262.113281 182.320312 262.433594 187.671875 262.019531 193 C 260.976562 206.46875 256.148438 218.625 248.351562 229.550781 C 242.964844 237.113281 236.1875 243.246094 228.152344 248.011719 C 221.441406 251.988281 214.171875 254.265625 206.59375 255.695312 C 201.335938 256.675781 196.042969 257.320312 191.546875 257.085938 Z M 191.554688 257.101562 " fill-opacity="1" fill-rule="nonzero"/></g><path fill="#f35695" d="M 176.109375 190.882812 C 177.265625 190.910156 178.152344 191.195312 178.957031 190.476562 C 179.636719 189.871094 180.25 190.296875 180.636719 190.929688 C 181.074219 191.640625 181.421875 192.460938 181.335938 193.285156 C 181.109375 195.589844 181.140625 197.953125 180.015625 200.097656 C 178.964844 202.09375 177.441406 203.445312 175.117188 203.605469 C 172.527344 203.785156 170.589844 202.492188 169.21875 200.457031 C 167.785156 198.339844 168.699219 194.542969 170.941406 192.671875 C 172.507812 191.355469 174.316406 190.703125 176.109375 190.882812 Z M 176.109375 190.882812 " fill-opacity="1" fill-rule="nonzero"/><path fill="#f35695" d="M 153.757812 192.566406 C 153.585938 193.832031 153.445312 195.023438 153.273438 196.214844 C 153.191406 196.800781 152.859375 197.207031 152.246094 197.214844 C 151.640625 197.234375 151.207031 196.855469 151.128906 196.289062 C 150.910156 194.617188 151.441406 193.019531 151.808594 191.421875 C 151.921875 190.929688 152.441406 190.515625 153.046875 190.683594 C 153.519531 190.816406 153.738281 191.242188 153.757812 191.734375 C 153.765625 192.035156 153.757812 192.339844 153.757812 192.566406 Z M 153.757812 192.566406 " fill-opacity="1" fill-rule="nonzero"/><path fill="#f35695" d="M 204.070312 182.273438 C 204.070312 181.675781 204.039062 181.082031 204.070312 180.488281 C 204.097656 179.929688 204.316406 179.429688 204.949219 179.382812 C 205.554688 179.332031 205.894531 179.777344 206.121094 180.261719 C 206.414062 180.882812 206.289062 181.582031 206.308594 182.246094 C 206.320312 182.992188 206.335938 183.738281 206.261719 184.476562 C 206.207031 185.050781 205.789062 185.421875 205.203125 185.441406 C 204.597656 185.457031 204.191406 185.082031 204.125 184.503906 C 204.050781 183.765625 204.105469 183.019531 204.105469 182.273438 C 204.085938 182.273438 204.078125 182.273438 204.058594 182.273438 Z M 204.070312 182.273438 " fill-opacity="1" fill-rule="nonzero"/><path fill="#f35695" d="M 142.925781 193.339844 C 142.792969 194.476562 142.386719 195.675781 141.761719 196.792969 C 141.554688 197.167969 141.222656 197.574219 140.703125 197.441406 C 140.148438 197.300781 139.710938 196.847656 139.796875 196.308594 C 140.03125 194.824219 140.535156 193.417969 141.449219 192.207031 C 141.6875 191.894531 142.09375 191.828125 142.472656 192.019531 C 142.964844 192.273438 142.898438 192.753906 142.925781 193.339844 Z M 142.925781 193.339844 " fill-opacity="1" fill-rule="nonzero"/><path fill="#f35695" d="M 195.449219 184.53125 C 195.289062 185.230469 195.148438 186.207031 194.835938 187.121094 C 194.644531 187.6875 194.152344 188.207031 193.445312 188 C 192.878906 187.832031 192.6875 187.265625 192.765625 186.707031 C 192.878906 185.816406 193.058594 184.929688 193.207031 184.050781 C 193.339844 183.292969 193.699219 182.746094 194.558594 182.886719 C 195.289062 183.011719 195.449219 183.617188 195.449219 184.53125 Z M 195.449219 184.53125 " fill-opacity="1" fill-rule="nonzero"/><path fill="#f35695" d="M 145.542969 194.675781 C 145.503906 194.324219 145.863281 193.644531 146.082031 192.945312 C 146.242188 192.425781 146.527344 191.894531 147.160156 192.074219 C 147.859375 192.265625 148.3125 192.765625 148.132812 193.578125 C 147.980469 194.230469 147.851562 194.890625 147.621094 195.515625 C 147.425781 196.0625 147.199219 196.753906 146.449219 196.660156 C 145.554688 196.554688 145.601562 195.78125 145.542969 194.675781 Z M 145.542969 194.675781 " fill-opacity="1" fill-rule="nonzero"/><path fill="#f35695" d="M 200.882812 184.597656 C 200.882812 184.824219 200.882812 185.042969 200.882812 185.269531 C 200.855469 186.082031 200.648438 186.828125 199.65625 186.78125 C 198.785156 186.742188 198.625 186.042969 198.625 185.324219 C 198.625 184.730469 198.625 184.125 198.679688 183.539062 C 198.757812 182.878906 199.125 182.40625 199.851562 182.453125 C 200.457031 182.492188 200.769531 182.914062 200.847656 183.484375 C 200.894531 183.851562 200.847656 184.230469 200.847656 184.597656 C 200.847656 184.597656 200.863281 184.597656 200.875 184.597656 Z M 200.882812 184.597656 " fill-opacity="1" fill-rule="nonzero"/><path fill="#000000" d="M 183.3125 194.703125 C 183.351562 197.09375 182.914062 199.371094 181.648438 201.433594 C 179.550781 204.863281 175.847656 205.949219 172.246094 204.125 C 171.320312 203.652344 170.402344 203.046875 169.675781 202.320312 C 165.164062 197.785156 163.632812 192.3125 165.109375 186.128906 C 166.167969 181.6875 169.429688 179.457031 173.539062 180.003906 C 175.421875 180.25 176.933594 181.253906 178.246094 182.527344 C 181.695312 185.855469 183.179688 190.015625 183.3125 194.722656 Z M 180.894531 195.496094 C 180.894531 192.359375 180.601562 191.914062 178.273438 191.261719 C 177.425781 191.015625 176.5 190.902344 175.617188 190.910156 C 172.839844 190.960938 170.457031 193.019531 169.703125 195.921875 C 169.136719 198.113281 170.015625 199.824219 172.539062 201.46875 C 172.792969 201.628906 173.046875 201.78125 173.324219 201.914062 C 175.796875 203.125 178.105469 202.492188 179.542969 200.148438 C 180.554688 198.5 180.882812 196.660156 180.902344 195.488281 Z M 173.019531 182.140625 C 171.941406 182.394531 171.128906 182.472656 170.429688 182.792969 C 170.082031 182.953125 169.949219 183.566406 169.710938 183.984375 C 170.195312 184.203125 170.714844 184.664062 171.167969 184.597656 C 172.226562 184.457031 172.765625 183.664062 173.019531 182.140625 Z M 173.019531 182.140625 " fill-opacity="1" fill-rule="nonzero"/><path fill="#000000" d="M 149.917969 204.824219 C 154.265625 204.84375 157.746094 206.195312 160.921875 208.378906 C 166.628906 212.292969 170.382812 217.832031 173.578125 223.8125 C 173.746094 224.136719 173.917969 224.53125 173.890625 224.882812 C 173.871094 225.210938 173.652344 225.703125 173.417969 225.789062 C 173.058594 225.910156 172.441406 225.875 172.214844 225.636719 C 171.753906 225.164062 171.46875 224.523438 171.128906 223.9375 C 168.324219 219.058594 165.117188 214.511719 160.542969 211.089844 C 157.378906 208.730469 153.917969 207.148438 149.890625 207.226562 C 146.867188 207.28125 144.152344 208.132812 142.71875 211.082031 C 141.28125 214.039062 142.386719 216.726562 144.164062 219.105469 C 144.949219 220.15625 146.140625 220.949219 147.265625 221.667969 C 148.339844 222.347656 149.570312 222.773438 150.734375 223.332031 C 153.464844 224.644531 155.648438 226.59375 157.101562 229.25 C 158.191406 231.234375 159.125 233.304688 160.136719 235.324219 C 160.503906 236.0625 160.683594 236.808594 159.804688 237.28125 C 158.898438 237.765625 158.371094 237.121094 158.011719 236.433594 C 157.28125 235.023438 156.613281 233.585938 155.949219 232.148438 C 154.398438 228.777344 151.941406 226.347656 148.484375 224.9375 C 147.507812 224.542969 146.546875 224.089844 145.628906 223.566406 C 142.140625 221.601562 140.269531 218.511719 139.777344 214.636719 C 139.164062 209.777344 142.652344 205.695312 147.878906 204.96875 C 148.699219 204.851562 149.53125 204.851562 149.929688 204.824219 Z M 149.917969 204.824219 " fill-opacity="1" fill-rule="nonzero"/><path fill="#000000" d="M 191.507812 222.246094 C 191.195312 221.5 190.796875 220.863281 190.683594 220.195312 C 189.636719 214.089844 190.117188 208.132812 192.820312 202.5 C 195.316406 197.300781 199.285156 193.605469 204.75 191.6875 C 206.28125 191.148438 207.992188 190.875 209.617188 190.894531 C 214.550781 190.949219 217.613281 195.25 216.128906 199.976562 C 215.703125 201.328125 215.015625 202.621094 214.25 203.824219 C 212.199219 207.054688 211.195312 210.523438 211.441406 214.363281 C 211.480469 214.957031 211.535156 215.609375 211.347656 216.15625 C 211.207031 216.554688 210.703125 216.980469 210.289062 217.074219 C 210.003906 217.132812 209.550781 216.6875 209.277344 216.367188 C 209.105469 216.167969 209.105469 215.796875 209.089844 215.503906 C 208.8125 211.355469 209.238281 207.359375 211.507812 203.730469 C 212.1875 202.640625 212.832031 201.527344 213.378906 200.375 C 214.238281 198.578125 214.523438 196.714844 213.171875 195.03125 C 211.800781 193.324219 209.882812 192.914062 207.851562 193.339844 C 201.90625 194.589844 197.679688 198.144531 195.023438 203.519531 C 192.5 208.632812 192.148438 214.105469 192.914062 219.675781 C 193.058594 220.742188 193.144531 221.628906 191.5 222.253906 Z M 191.507812 222.246094 " fill-opacity="1" fill-rule="nonzero"/><path fill="#000000" d="M 156.792969 178.21875 C 155.683594 178.351562 154.578125 178.5 153.472656 178.617188 C 152.753906 178.691406 151.960938 178.605469 152 177.707031 C 152.019531 177.28125 152.59375 176.621094 153.039062 176.507812 C 155.316406 175.894531 157.660156 175.875 159.957031 176.394531 C 161.507812 176.742188 161.808594 177.992188 160.5625 179.011719 C 158.226562 180.929688 155.996094 182.90625 154.445312 185.554688 C 154.257812 185.875 153.359375 186.175781 153.160156 186.015625 C 152.773438 185.714844 152.347656 184.96875 152.472656 184.589844 C 152.773438 183.691406 153.292969 182.820312 153.898438 182.085938 C 154.871094 180.882812 155.988281 179.796875 157.035156 178.652344 L 156.792969 178.199219 Z M 156.792969 178.21875 " fill-opacity="1" fill-rule="nonzero"/><path fill="#000000" d="M 185.117188 174.25 C 187.019531 174.75 188.484375 175.097656 189.917969 175.535156 C 190.5625 175.722656 191.1875 176.027344 191.753906 176.375 C 192.40625 176.773438 192.726562 177.492188 192.246094 178.09375 C 191.980469 178.425781 191.109375 178.644531 190.722656 178.464844 C 188.5 177.433594 186.175781 176.921875 183.765625 176.628906 C 182.953125 176.535156 182.074219 176.355469 181.820312 175.363281 C 181.574219 174.410156 182.085938 173.730469 182.785156 173.246094 C 184.265625 172.234375 185.796875 171.269531 187.347656 170.34375 C 188.011719 169.949219 188.792969 170.003906 189.011719 170.816406 C 189.117188 171.222656 188.710938 171.941406 188.324219 172.253906 C 187.453125 172.933594 186.441406 173.445312 185.117188 174.257812 Z M 185.117188 174.25 " fill-opacity="1" fill-rule="nonzero"/><path fill="#000000" d="M 154.9375 161.308594 C 156.914062 161.355469 158.765625 162.5 160.136719 164.457031 C 160.34375 164.757812 160.570312 165.136719 160.5625 165.46875 C 160.542969 165.863281 160.382812 166.433594 160.097656 166.601562 C 159.824219 166.761719 159.230469 166.628906 158.910156 166.433594 C 158.550781 166.207031 158.359375 165.734375 158.058594 165.390625 C 156.953125 164.136719 155.609375 163.351562 153.878906 163.699219 C 152.179688 164.039062 151.515625 165.421875 151.027344 166.886719 C 150.816406 167.519531 150.714844 168.199219 150.609375 168.859375 C 150.488281 169.609375 150.148438 170.277344 149.34375 170.082031 C 148.917969 169.976562 148.398438 169.316406 148.324219 168.84375 C 147.726562 165.363281 151.054688 161.328125 154.917969 161.308594 Z M 154.9375 161.308594 " fill-opacity="1" fill-rule="nonzero"/><path fill="#000000" d="M 183.371094 156.335938 C 185.75 156.367188 188.160156 158.011719 189.039062 160.203125 C 189.316406 160.882812 189.4375 161.660156 188.652344 161.953125 C 188.246094 162.101562 187.585938 161.773438 187.113281 161.507812 C 186.820312 161.347656 186.667969 160.921875 186.460938 160.601562 C 185.496094 159.144531 184.191406 158.332031 182.433594 158.757812 C 180.65625 159.183594 179.675781 160.503906 179.171875 162.199219 C 179.023438 162.699219 179.152344 163.285156 178.957031 163.746094 C 178.8125 164.097656 178.324219 164.589844 178.058594 164.542969 C 177.632812 164.464844 177.214844 164.058594 176.914062 163.699219 C 176.753906 163.511719 176.808594 163.125 176.808594 162.820312 C 176.800781 159.457031 180.003906 156.28125 183.371094 156.320312 Z M 183.371094 156.335938 " fill-opacity="1" fill-rule="nonzero"/><path fill="#000000" d="M 139.265625 158.5 C 139.304688 159.4375 138.632812 160.015625 137.886719 159.769531 C 137.265625 159.558594 136.648438 159.183594 136.175781 158.730469 C 133.339844 156.015625 130.554688 153.257812 127.753906 150.503906 C 127.652344 150.402344 127.546875 150.289062 127.453125 150.175781 C 126.933594 149.542969 126.613281 148.832031 127.328125 148.179688 C 128.039062 147.546875 128.550781 148.152344 129.050781 148.625 C 130.683594 150.183594 132.328125 151.753906 133.972656 153.304688 C 135.457031 154.703125 136.953125 156.082031 138.417969 157.492188 C 138.777344 157.839844 139.070312 158.257812 139.277344 158.492188 Z M 139.265625 158.5 " fill-opacity="1" fill-rule="nonzero"/><g clip-path="url(#899e1d81e7)"><path fill="#000000" d="M 113.484375 167.753906 C 115.65625 168.304688 117.492188 168.730469 119.296875 169.238281 C 121.535156 169.871094 123.746094 170.582031 125.976562 171.253906 C 126.335938 171.367188 126.800781 171.367188 127.027344 171.601562 C 127.394531 171.988281 127.613281 172.519531 127.886719 172.992188 C 127.425781 173.265625 126.988281 173.652344 126.488281 173.765625 C 126.089844 173.851562 125.609375 173.632812 125.183594 173.5 C 121.515625 172.414062 117.851562 171.320312 114.183594 170.230469 C 113.898438 170.148438 113.511719 170.148438 113.339844 169.957031 C 112.980469 169.558594 112.472656 169.039062 112.507812 168.617188 C 112.539062 168.246094 113.246094 167.945312 113.492188 167.746094 Z M 113.484375 167.753906 " fill-opacity="1" fill-rule="nonzero"/></g><path fill="#000000" d="M 141.773438 145.46875 C 141.515625 145.769531 141.300781 146.214844 140.960938 146.375 C 140.703125 146.5 140.175781 146.375 139.949219 146.167969 C 139.578125 145.816406 139.296875 145.34375 139.070312 144.871094 C 137.566406 141.761719 136.074219 138.644531 134.597656 135.515625 C 134.4375 135.183594 134.238281 134.777344 134.304688 134.457031 C 134.382812 134.070312 134.664062 133.625 134.984375 133.425781 C 135.195312 133.292969 135.734375 133.464844 135.976562 133.671875 C 136.300781 133.957031 136.515625 134.390625 136.714844 134.789062 C 138.265625 137.878906 139.804688 140.96875 141.328125 144.078125 C 141.527344 144.476562 141.613281 144.929688 141.78125 145.46875 Z M 141.773438 145.46875 " fill-opacity="1" fill-rule="nonzero"/><path fill="#000000" d="M 117.980469 154.050781 C 118.4375 154.183594 118.824219 154.230469 119.136719 154.410156 C 121.628906 155.789062 124.105469 157.1875 126.582031 158.585938 C 126.773438 158.699219 127.035156 158.84375 127.085938 159.023438 C 127.214844 159.484375 127.460938 160.109375 127.265625 160.421875 C 127.074219 160.722656 126.382812 160.847656 125.929688 160.808594 C 125.523438 160.769531 125.15625 160.390625 124.757812 160.164062 C 122.613281 158.9375 120.46875 157.699219 118.324219 156.46875 C 118 156.28125 117.566406 156.167969 117.386719 155.882812 C 117.179688 155.554688 117.074219 155.050781 117.167969 154.683594 C 117.234375 154.417969 117.699219 154.257812 117.972656 154.058594 Z M 117.980469 154.050781 " fill-opacity="1" fill-rule="nonzero"/><path fill="#000000" d="M 151.5 144.230469 C 151.300781 144.476562 151.089844 144.976562 150.761719 145.070312 C 150.421875 145.164062 149.789062 144.96875 149.609375 144.683594 C 149.136719 143.925781 148.8125 143.078125 148.472656 142.246094 C 148.011719 141.128906 147.585938 140.003906 147.148438 138.890625 C 146.875 138.160156 146.953125 137.414062 147.734375 137.234375 C 148.125 137.140625 148.910156 137.585938 149.097656 137.980469 C 149.929688 139.75 150.617188 141.582031 151.347656 143.398438 C 151.433594 143.605469 151.421875 143.84375 151.488281 144.238281 Z M 151.5 144.230469 " fill-opacity="1" fill-rule="nonzero"/><path fill="#000000" d="M 123.351562 142.945312 C 124.371094 142.898438 125.082031 143.679688 124.929688 144.503906 C 124.851562 144.890625 124.371094 145.421875 124.003906 145.488281 C 123.160156 145.628906 122.765625 144.957031 122.800781 144.230469 C 122.832031 143.738281 123.207031 143.265625 123.351562 142.945312 Z M 123.351562 142.945312 " fill-opacity="1" fill-rule="nonzero"/></svg>