<svg xmlns="http://www.w3.org/2000/svg" xmlns:xlink="http://www.w3.org/1999/xlink" width="500" zoomAndPan="magnify" viewBox="0 0 375 374.999991" height="500" preserveAspectRatio="xMidYMid meet" version="1.2"><g id="f5ff95fbda"><path style=" stroke:none;fill-rule:nonzero;fill:#f8dbdb;fill-opacity:1;" d="M 197.53125 361.320312 C 170.867188 361.769531 147.179688 357.1875 124.011719 349.605469 C 110.265625 345.121094 98.175781 337.585938 86.792969 328.730469 C 76.046875 320.367188 66.101562 311.085938 57.128906 300.957031 C 41.210938 283.007812 27.183594 263.640625 18.703125 240.921875 C 15.5625 232.515625 13.625 223.707031 12.257812 214.730469 C 10.722656 204.550781 11.125 194.398438 11.453125 184.265625 C 11.738281 175.289062 13.957031 166.433594 16.296875 157.742188 C 20.617188 141.707031 26.523438 126.261719 34.195312 111.476562 C 44.871094 90.882812 58.378906 72.320312 75.929688 57.160156 C 96.570312 39.304688 120.257812 26.859375 146.871094 20.199219 C 156.15625 17.882812 165.53125 15.734375 175 14.789062 C 184.707031 13.824219 194.484375 12.664062 204.285156 13.445312 C 230.878906 15.5 256.054688 22.441406 279.246094 35.855469 C 290.511719 42.375 300.972656 49.910156 310.324219 59.097656 C 326.597656 75.039062 339.894531 93.105469 351.109375 112.871094 C 359.800781 128.199219 366.746094 144.140625 370.761719 161.332031 C 373.832031 174.464844 374.632812 187.832031 373.59375 201.152344 C 370.996094 234.804688 358.929688 265.175781 339.445312 292.476562 C 325.984375 311.371094 309.050781 326.699219 288.976562 338.601562 C 272.207031 348.542969 254.046875 354.234375 235.105469 357.800781 C 221.972656 360.257812 208.75 361.863281 197.507812 361.273438 Z M 197.53125 361.320312 "/><path style=" stroke:none;fill-rule:nonzero;fill:#f35695;fill-opacity:1;" d="M 158.941406 195.859375 C 161.824219 195.933594 164.042969 196.640625 166.050781 194.84375 C 167.75 193.335938 169.285156 194.398438 170.253906 195.980469 C 171.339844 197.75 172.214844 199.804688 172 201.859375 C 171.433594 207.621094 171.503906 213.527344 168.695312 218.886719 C 166.074219 223.871094 162.269531 227.246094 156.460938 227.648438 C 149.992188 228.097656 145.148438 224.863281 141.722656 219.785156 C 138.136719 214.496094 140.425781 205 146.023438 200.324219 C 149.941406 197.042969 154.453125 195.414062 158.941406 195.859375 Z M 158.941406 195.859375 "/><path style=" stroke:none;fill-rule:nonzero;fill:#f35695;fill-opacity:1;" d="M 103.085938 200.066406 C 102.664062 203.230469 102.308594 206.207031 101.882812 209.179688 C 101.671875 210.644531 100.84375 211.660156 99.308594 211.683594 C 97.796875 211.730469 96.710938 210.785156 96.523438 209.371094 C 95.980469 205.191406 97.300781 201.199219 98.222656 197.207031 C 98.503906 195.980469 99.804688 194.941406 101.316406 195.363281 C 102.496094 195.695312 103.039062 196.757812 103.085938 197.988281 C 103.109375 198.742188 103.085938 199.496094 103.085938 200.066406 Z M 103.085938 200.066406 "/><path style=" stroke:none;fill-rule:nonzero;fill:#f35695;fill-opacity:1;" d="M 228.800781 174.347656 C 228.800781 172.859375 228.730469 171.371094 228.800781 169.882812 C 228.871094 168.488281 229.414062 167.238281 230.996094 167.121094 C 232.507812 167 233.359375 168.109375 233.925781 169.316406 C 234.65625 170.875 234.351562 172.621094 234.398438 174.273438 C 234.421875 176.140625 234.46875 178.007812 234.277344 179.847656 C 234.136719 181.289062 233.097656 182.210938 231.632812 182.257812 C 230.121094 182.304688 229.105469 181.359375 228.941406 179.917969 C 228.753906 178.078125 228.894531 176.210938 228.894531 174.347656 C 228.847656 174.347656 228.824219 174.347656 228.777344 174.347656 Z M 228.800781 174.347656 "/><path style=" stroke:none;fill-rule:nonzero;fill:#f35695;fill-opacity:1;" d="M 76.023438 202 C 75.691406 204.835938 74.675781 207.835938 73.117188 210.621094 C 72.597656 211.566406 71.773438 212.582031 70.472656 212.25 C 69.078125 211.898438 67.992188 210.761719 68.207031 209.417969 C 68.796875 205.710938 70.046875 202.191406 72.339844 199.167969 C 72.929688 198.386719 73.945312 198.222656 74.890625 198.695312 C 76.117188 199.332031 75.953125 200.539062 76.023438 202 Z M 76.023438 202 "/><path style=" stroke:none;fill-rule:nonzero;fill:#f35695;fill-opacity:1;" d="M 207.261719 179.992188 C 206.859375 181.738281 206.503906 184.171875 205.726562 186.460938 C 205.253906 187.878906 204.027344 189.175781 202.253906 188.65625 C 200.835938 188.234375 200.363281 186.816406 200.554688 185.421875 C 200.835938 183.203125 201.285156 180.984375 201.664062 178.785156 C 201.996094 176.898438 202.890625 175.527344 205.042969 175.882812 C 206.859375 176.1875 207.261719 177.699219 207.261719 179.992188 Z M 207.261719 179.992188 "/><path style=" stroke:none;fill-rule:nonzero;fill:#f35695;fill-opacity:1;" d="M 82.5625 205.332031 C 82.46875 204.457031 83.367188 202.757812 83.910156 201.007812 C 84.3125 199.710938 85.019531 198.386719 86.601562 198.835938 C 88.351562 199.308594 89.484375 200.5625 89.035156 202.59375 C 88.65625 204.222656 88.328125 205.875 87.761719 207.433594 C 87.265625 208.804688 86.699219 210.527344 84.832031 210.289062 C 82.589844 210.03125 82.707031 208.09375 82.5625 205.332031 Z M 82.5625 205.332031 "/><path style=" stroke:none;fill-rule:nonzero;fill:#f35695;fill-opacity:1;" d="M 220.839844 180.15625 C 220.839844 180.722656 220.839844 181.265625 220.839844 181.832031 C 220.769531 183.863281 220.25 185.730469 217.769531 185.613281 C 215.597656 185.515625 215.195312 183.769531 215.195312 181.972656 C 215.195312 180.488281 215.195312 178.976562 215.339844 177.511719 C 215.527344 175.859375 216.449219 174.675781 218.265625 174.792969 C 219.777344 174.890625 220.558594 175.953125 220.746094 177.367188 C 220.863281 178.289062 220.746094 179.234375 220.746094 180.15625 C 220.746094 180.15625 220.792969 180.15625 220.816406 180.15625 Z M 220.839844 180.15625 "/><path style=" stroke:none;fill-rule:nonzero;fill:#000000;fill-opacity:1;" d="M 176.9375 205.402344 C 177.03125 211.378906 175.945312 217.070312 172.78125 222.21875 C 167.539062 230.789062 158.28125 233.507812 149.28125 228.949219 C 146.96875 227.765625 144.675781 226.257812 142.859375 224.4375 C 131.59375 213.101562 127.765625 199.425781 131.453125 183.980469 C 134.097656 172.882812 142.242188 167.308594 152.515625 168.679688 C 157.21875 169.292969 160.996094 171.796875 164.277344 174.984375 C 172.898438 183.296875 176.605469 193.6875 176.9375 205.449219 Z M 170.890625 207.386719 C 170.890625 199.546875 170.160156 198.433594 164.347656 196.804688 C 162.222656 196.191406 159.910156 195.910156 157.714844 195.933594 C 150.769531 196.050781 144.816406 201.199219 142.929688 208.449219 C 141.511719 213.929688 143.707031 218.203125 150.015625 222.3125 C 150.652344 222.714844 151.289062 223.089844 151.972656 223.421875 C 158.160156 226.445312 163.925781 224.863281 167.515625 219.003906 C 170.042969 214.894531 170.867188 210.289062 170.914062 207.363281 Z M 151.21875 174.015625 C 148.527344 174.652344 146.496094 174.84375 144.746094 175.644531 C 143.875 176.046875 143.542969 177.582031 142.953125 178.621094 C 144.15625 179.164062 145.457031 180.320312 146.589844 180.15625 C 149.234375 179.800781 150.582031 177.816406 151.21875 174.015625 Z M 151.21875 174.015625 "/><path style=" stroke:none;fill-rule:nonzero;fill:#000000;fill-opacity:1;" d="M 93.5 230.695312 C 104.363281 230.742188 113.054688 234.121094 120.988281 239.574219 C 135.253906 249.351562 144.628906 263.191406 152.613281 278.140625 C 153.035156 278.945312 153.460938 279.9375 153.390625 280.8125 C 153.34375 281.636719 152.800781 282.867188 152.210938 283.078125 C 151.3125 283.386719 149.777344 283.289062 149.210938 282.699219 C 148.054688 281.519531 147.34375 279.914062 146.496094 278.449219 C 139.480469 266.261719 131.476562 254.902344 120.042969 246.355469 C 112.132812 240.449219 103.488281 236.503906 93.429688 236.695312 C 85.871094 236.835938 79.09375 238.960938 75.503906 246.332031 C 71.914062 253.722656 74.675781 260.429688 79.117188 266.382812 C 81.078125 269.003906 84.050781 270.984375 86.863281 272.78125 C 89.554688 274.480469 92.625 275.542969 95.53125 276.9375 C 102.355469 280.21875 107.8125 285.085938 111.449219 291.722656 C 114.164062 296.679688 116.5 301.851562 119.027344 306.90625 C 119.949219 308.75 120.398438 310.613281 118.203125 311.796875 C 115.933594 313 114.613281 311.394531 113.714844 309.671875 C 111.894531 306.152344 110.21875 302.5625 108.566406 298.972656 C 104.691406 290.539062 98.554688 284.472656 89.910156 280.953125 C 87.476562 279.960938 85.066406 278.828125 82.777344 277.527344 C 74.0625 272.617188 69.386719 264.894531 68.15625 255.210938 C 66.621094 243.070312 75.335938 232.867188 88.398438 231.050781 C 90.453125 230.765625 92.53125 230.765625 93.523438 230.695312 Z M 93.5 230.695312 "/><path style=" stroke:none;fill-rule:nonzero;fill:#000000;fill-opacity:1;" d="M 197.414062 274.222656 C 196.632812 272.355469 195.640625 270.773438 195.359375 269.097656 C 192.738281 253.839844 193.941406 238.960938 200.695312 224.886719 C 206.929688 211.898438 216.851562 202.664062 230.5 197.867188 C 234.324219 196.523438 238.601562 195.835938 242.664062 195.882812 C 254.992188 196.027344 262.644531 206.773438 258.933594 218.582031 C 257.871094 221.957031 256.148438 225.191406 254.234375 228.191406 C 249.109375 236.269531 246.605469 244.9375 247.222656 254.523438 C 247.316406 256.011719 247.457031 257.644531 246.984375 259.011719 C 246.628906 260.003906 245.378906 261.066406 244.339844 261.304688 C 243.632812 261.445312 242.496094 260.335938 241.8125 259.53125 C 241.386719 259.035156 241.386719 258.113281 241.339844 257.382812 C 240.65625 247.015625 241.71875 237.023438 247.386719 227.957031 C 249.085938 225.242188 250.691406 222.453125 252.0625 219.574219 C 254.210938 215.085938 254.921875 210.433594 251.542969 206.230469 C 248.117188 201.953125 243.324219 200.9375 238.246094 202 C 223.390625 205.117188 212.835938 214 206.199219 227.4375 C 199.894531 240.214844 199.019531 253.886719 200.933594 267.796875 C 201.285156 270.464844 201.5 272.6875 197.390625 274.246094 Z M 197.414062 274.222656 "/><path style=" stroke:none;fill-rule:nonzero;fill:#000000;fill-opacity:1;" d="M 110.667969 164.214844 C 107.90625 164.546875 105.140625 164.921875 102.378906 165.207031 C 100.585938 165.394531 98.601562 165.183594 98.695312 162.9375 C 98.742188 161.875 100.183594 160.222656 101.292969 159.941406 C 106.984375 158.40625 112.839844 158.359375 118.578125 159.65625 C 122.453125 160.53125 123.207031 163.648438 120.089844 166.199219 C 114.257812 170.992188 108.683594 175.929688 104.8125 182.542969 C 104.339844 183.34375 102.09375 184.101562 101.597656 183.699219 C 100.632812 182.941406 99.570312 181.078125 99.875 180.132812 C 100.632812 177.886719 101.929688 175.714844 103.441406 173.875 C 105.875 170.875 108.660156 168.160156 111.28125 165.300781 L 110.667969 164.167969 Z M 110.667969 164.214844 "/><path style=" stroke:none;fill-rule:nonzero;fill:#000000;fill-opacity:1;" d="M 181.449219 154.296875 C 186.195312 155.546875 189.855469 156.421875 193.445312 157.507812 C 195.050781 157.980469 196.609375 158.734375 198.027344 159.609375 C 199.65625 160.601562 200.460938 162.394531 199.253906 163.90625 C 198.59375 164.734375 196.421875 165.277344 195.453125 164.828125 C 189.902344 162.253906 184.09375 160.980469 178.070312 160.246094 C 176.039062 160.011719 173.84375 159.5625 173.207031 157.082031 C 172.589844 154.695312 173.867188 152.996094 175.613281 151.792969 C 179.324219 149.265625 183.148438 146.855469 187.023438 144.542969 C 188.675781 143.550781 190.636719 143.691406 191.179688 145.722656 C 191.4375 146.738281 190.421875 148.53125 189.453125 149.3125 C 187.28125 151.011719 184.753906 152.289062 181.449219 154.320312 Z M 181.449219 154.296875 "/><path style=" stroke:none;fill-rule:nonzero;fill:#000000;fill-opacity:1;" d="M 106.039062 121.964844 C 110.976562 122.082031 115.605469 124.941406 119.027344 129.828125 C 119.546875 130.585938 120.113281 131.527344 120.089844 132.355469 C 120.042969 133.347656 119.644531 134.765625 118.933594 135.191406 C 118.25 135.589844 116.761719 135.261719 115.957031 134.765625 C 115.0625 134.199219 114.589844 133.015625 113.832031 132.167969 C 111.070312 129.027344 107.714844 127.066406 103.394531 127.9375 C 99.144531 128.789062 97.488281 132.238281 96.261719 135.898438 C 95.742188 137.480469 95.484375 139.179688 95.222656 140.832031 C 94.914062 142.699219 94.066406 144.375 92.058594 143.878906 C 90.996094 143.621094 89.695312 141.96875 89.507812 140.785156 C 88.019531 132.09375 96.332031 122.011719 105.992188 121.964844 Z M 106.039062 121.964844 "/><path style=" stroke:none;fill-rule:nonzero;fill:#000000;fill-opacity:1;" d="M 177.078125 109.542969 C 183.03125 109.613281 189.050781 113.722656 191.25 119.199219 C 191.933594 120.902344 192.242188 122.835938 190.28125 123.570312 C 189.265625 123.949219 187.613281 123.121094 186.429688 122.460938 C 185.699219 122.058594 185.320312 120.996094 184.800781 120.191406 C 182.394531 116.554688 179.132812 114.523438 174.742188 115.585938 C 170.300781 116.648438 167.84375 119.957031 166.59375 124.183594 C 166.214844 125.4375 166.546875 126.898438 166.050781 128.058594 C 165.695312 128.929688 164.46875 130.160156 163.804688 130.039062 C 162.742188 129.851562 161.703125 128.835938 160.949219 127.9375 C 160.546875 127.464844 160.6875 126.5 160.6875 125.742188 C 160.664062 117.335938 168.671875 109.398438 177.078125 109.496094 Z M 177.078125 109.542969 "/><path style=" stroke:none;fill-rule:nonzero;fill:#000000;fill-opacity:1;" d="M 66.882812 114.949219 C 66.976562 117.289062 65.300781 118.730469 63.433594 118.113281 C 61.875 117.59375 60.339844 116.648438 59.160156 115.515625 C 52.074219 108.738281 45.109375 101.84375 38.117188 94.96875 C 37.859375 94.710938 37.597656 94.425781 37.363281 94.144531 C 36.0625 92.5625 35.261719 90.789062 37.054688 89.160156 C 38.824219 87.578125 40.101562 89.089844 41.351562 90.269531 C 45.4375 94.167969 49.546875 98.085938 53.65625 101.960938 C 57.367188 105.457031 61.097656 108.902344 64.757812 112.421875 C 65.65625 113.296875 66.386719 114.335938 66.90625 114.925781 Z M 66.882812 114.949219 "/><path style=" stroke:none;fill-rule:nonzero;fill:#000000;fill-opacity:1;" d="M 2.457031 138.070312 C 7.886719 139.441406 12.46875 140.503906 16.980469 141.777344 C 22.578125 143.359375 28.105469 145.132812 33.675781 146.808594 C 34.574219 147.09375 35.730469 147.09375 36.300781 147.683594 C 37.21875 148.652344 37.761719 149.972656 38.449219 151.15625 C 37.289062 151.839844 36.203125 152.808594 34.953125 153.089844 C 33.960938 153.304688 32.757812 152.761719 31.695312 152.429688 C 22.53125 149.714844 13.367188 146.972656 4.203125 144.257812 C 3.496094 144.046875 2.527344 144.046875 2.101562 143.574219 C 1.203125 142.582031 -0.0703125 141.28125 0.0234375 140.21875 C 0.09375 139.296875 1.867188 138.542969 2.480469 138.046875 Z M 2.457031 138.070312 "/><path style=" stroke:none;fill-rule:nonzero;fill:#000000;fill-opacity:1;" d="M 73.140625 82.382812 C 72.503906 83.136719 71.960938 84.246094 71.109375 84.648438 C 70.472656 84.957031 69.148438 84.648438 68.582031 84.128906 C 67.664062 83.257812 66.953125 82.074219 66.386719 80.894531 C 62.632812 73.125 58.898438 65.332031 55.214844 57.515625 C 54.816406 56.6875 54.320312 55.671875 54.484375 54.867188 C 54.671875 53.898438 55.382812 52.789062 56.183594 52.292969 C 56.703125 51.964844 58.050781 52.390625 58.664062 52.910156 C 59.46875 53.617188 60.011719 54.703125 60.507812 55.695312 C 64.378906 63.417969 68.230469 71.140625 72.03125 78.910156 C 72.527344 79.902344 72.738281 81.035156 73.164062 82.382812 Z M 73.140625 82.382812 "/><path style=" stroke:none;fill-rule:nonzero;fill:#000000;fill-opacity:1;" d="M 13.699219 103.828125 C 14.832031 104.15625 15.800781 104.273438 16.578125 104.722656 C 22.8125 108.171875 29 111.667969 35.1875 115.164062 C 35.660156 115.445312 36.324219 115.800781 36.441406 116.25 C 36.769531 117.40625 37.386719 118.964844 36.890625 119.742188 C 36.417969 120.5 34.691406 120.808594 33.558594 120.710938 C 32.542969 120.617188 31.621094 119.671875 30.632812 119.105469 C 25.269531 116.035156 19.910156 112.941406 14.546875 109.871094 C 13.746094 109.398438 12.660156 109.117188 12.210938 108.40625 C 11.691406 107.582031 11.429688 106.328125 11.667969 105.410156 C 11.832031 104.746094 12.988281 104.347656 13.675781 103.851562 Z M 13.699219 103.828125 "/><path style=" stroke:none;fill-rule:nonzero;fill:#000000;fill-opacity:1;" d="M 97.441406 79.289062 C 96.945312 79.902344 96.425781 81.152344 95.601562 81.390625 C 94.75 81.625 93.167969 81.128906 92.71875 80.421875 C 91.539062 78.53125 90.734375 76.40625 89.886719 74.328125 C 88.726562 71.542969 87.664062 68.730469 86.578125 65.945312 C 85.894531 64.125 86.082031 62.261719 88.042969 61.8125 C 89.011719 61.574219 90.972656 62.6875 91.445312 63.679688 C 93.523438 68.09375 95.246094 72.675781 97.066406 77.210938 C 97.277344 77.730469 97.253906 78.320312 97.417969 79.3125 Z M 97.441406 79.289062 "/><path style=" stroke:none;fill-rule:nonzero;fill:#000000;fill-opacity:1;" d="M 27.113281 76.078125 C 29.664062 75.957031 31.433594 77.917969 31.054688 79.972656 C 30.867188 80.941406 29.664062 82.265625 28.742188 82.429688 C 26.640625 82.785156 25.648438 81.105469 25.742188 79.289062 C 25.8125 78.058594 26.757812 76.878906 27.113281 76.078125 Z M 27.113281 76.078125 "/></g></svg>