<svg xmlns="http://www.w3.org/2000/svg" xmlns:xlink="http://www.w3.org/1999/xlink" width="500" zoomAndPan="magnify" viewBox="0 0 375 374.999991" height="500" preserveAspectRatio="xMidYMid meet" version="1.2"><defs><clipPath id="371297f342"><path d="M 294 187 L 373.699219 187 L 373.699219 227 L 294 227 Z M 294 187 "/></clipPath></defs><g id="e27fbbedfe"><path style=" stroke:none;fill-rule:nonzero;fill:#f98805;fill-opacity:1;" d="M 1.460938 181.488281 C 0.859375 159.957031 4.15625 140.074219 11.058594 120.921875 C 16.492188 105.828125 23.640625 91.421875 33.660156 78.816406 C 44.125 65.65625 57.152344 55.28125 71.671875 46.753906 C 89.59375 36.21875 108.8125 29.050781 128.894531 24.195312 C 136.601562 22.324219 144.550781 21.414062 152.433594 20.300781 C 162.5625 18.851562 172.671875 19.1875 182.761719 19.5625 C 192.625 19.941406 202.445312 21.65625 212.042969 24.261719 C 226.160156 28.070312 239.675781 33.390625 252.566406 40.273438 C 264.703125 46.730469 275.96875 54.5 285.300781 64.65625 C 290.578125 70.398438 294.984375 76.878906 299.015625 83.582031 C 307.097656 97.054688 313.15625 111.484375 318.078125 126.3125 C 322.484375 139.582031 326.027344 153.167969 328.273438 166.996094 C 329.765625 176.234375 331.347656 185.476562 331.769531 194.894531 C 331.972656 199.28125 332.640625 203.710938 332.574219 208.144531 C 332.328125 222.460938 329.566406 236.3125 324.265625 249.605469 C 318.054688 265.234375 309.28125 279.355469 298.570312 292.3125 C 283.050781 311.085938 264.457031 325.9375 242.4375 336.289062 C 226.804688 343.636719 210.261719 348.316406 193.316406 351.675781 C 176.304688 355.039062 159.066406 355.863281 141.921875 354.636719 C 120.523438 353.101562 100.105469 347.492188 81.445312 336.246094 C 64.054688 325.78125 50.449219 311.574219 38.691406 295.320312 C 28.851562 281.714844 20.902344 267.0625 14.53125 251.585938 C 9.121094 238.425781 5.757812 224.710938 3.488281 210.636719 C 1.863281 200.59375 1.285156 190.554688 1.507812 181.511719 Z M 1.460938 181.488281 "/><path style=" stroke:none;fill-rule:nonzero;fill:#a3dbff;fill-opacity:1;" d="M 182.027344 187.65625 C 181.847656 190.753906 180.464844 192.847656 177.707031 193.292969 C 175.722656 193.601562 174.945312 194.9375 173.609375 195.917969 C 169.957031 198.613281 165.390625 199.480469 161.003906 199.503906 C 158.332031 199.503906 156.820312 196.652344 156.707031 194.09375 C 156.351562 187.144531 152.542969 182.203125 147.980469 177.546875 C 142.457031 171.914062 139.09375 165.210938 137.980469 157.375 C 137.625 154.925781 137.136719 152.476562 136.488281 150.070312 C 135.6875 147.066406 136.421875 144.550781 138.09375 142.054688 C 139.382812 140.140625 140.765625 138.757812 143.238281 139.027344 C 145.441406 139.273438 146.644531 140.695312 147.488281 142.589844 C 148.734375 145.328125 149.851562 148.15625 151.320312 150.785156 C 156.261719 159.558594 162.164062 167.394531 171.472656 172.160156 C 176.613281 174.789062 179.777344 179.285156 181.402344 184.808594 C 181.691406 185.808594 181.847656 186.878906 182.003906 187.65625 Z M 182.027344 187.65625 "/><path style=" stroke:none;fill-rule:nonzero;fill:#a3dbff;fill-opacity:1;" d="M 83.871094 164.390625 C 83.984375 165.882812 83.25 167.128906 82.757812 168.464844 C 81.132812 172.785156 79.464844 177.082031 77.90625 181.402344 C 76.234375 186.011719 75.878906 190.6875 77.125 195.519531 C 78.238281 199.816406 78.953125 204.179688 78.660156 208.679688 C 78.460938 211.90625 77.816406 215 76.367188 217.917969 C 75.144531 220.390625 73.117188 221.882812 70.355469 221.28125 C 68.152344 220.792969 65.703125 220.65625 63.765625 219.832031 C 60.804688 218.566406 57.953125 216.851562 55.082031 215.292969 C 52.921875 214.132812 52.675781 211.527344 53.367188 209.078125 C 54.058594 206.652344 55.035156 204.359375 56.707031 202.488281 C 59.511719 199.371094 60.3125 195.742188 60.226562 191.667969 C 60.113281 187.058594 60.359375 182.449219 61.382812 177.90625 C 62.941406 170.914062 66.546875 165.125 71.648438 160.226562 C 75.234375 156.796875 79.53125 157.175781 82.738281 160.980469 C 83.605469 162.007812 83.917969 163.140625 83.871094 164.410156 Z M 83.871094 164.390625 "/><path style=" stroke:none;fill-rule:nonzero;fill:#000000;fill-opacity:1;" d="M 189.105469 244.949219 C 194.585938 260.003906 197.835938 275.257812 199.683594 290.820312 C 200.507812 297.769531 200.105469 304.648438 198.300781 311.460938 C 196.855469 316.875 193.605469 320.726562 188.4375 322.574219 C 176.726562 326.78125 164.96875 328.699219 153.414062 321.148438 C 152.632812 321.839844 151.875 322.507812 151.140625 323.21875 C 139.785156 334.398438 126.15625 336.78125 111.195312 333.285156 C 106.003906 332.058594 103.066406 327.652344 100.371094 323.488281 C 89.972656 307.410156 81.691406 290.355469 77.371094 271.558594 C 77.125 270.535156 76.746094 269.554688 76.390625 268.464844 C 74.566406 268.199219 72.804688 268.085938 71.113281 267.640625 C 69.398438 267.171875 68.398438 265.90625 68.753906 264.035156 C 69.085938 262.273438 70.46875 262.007812 72.003906 262.03125 C 80.511719 262.164062 88.570312 260.183594 96.273438 256.707031 C 100.90625 254.613281 104.113281 251.320312 105.292969 246.199219 C 107.074219 238.515625 103.914062 231.96875 96.363281 229.832031 C 89.550781 227.917969 82.492188 226.738281 75.476562 225.800781 C 59.3125 223.621094 49.757812 214.066406 44.75 199.148438 C 44.191406 197.476562 43.726562 195.628906 43.882812 193.9375 C 43.992188 192.847656 45.171875 191.445312 46.21875 191.019531 C 46.84375 190.777344 48.535156 191.910156 49.003906 192.800781 C 49.804688 194.339844 49.960938 196.207031 50.515625 197.878906 C 54.347656 209.589844 61.828125 217.363281 74.789062 220.054688 C 78.796875 210.636719 86.476562 205.785156 96.253906 203.914062 C 105.628906 202.109375 114.710938 202.109375 122.238281 209.234375 C 134.152344 193.003906 147.265625 189.128906 164.835938 196.898438 C 171.046875 193.492188 177.640625 190.019531 184.074219 186.277344 C 189.394531 183.183594 192.667969 178.417969 194.050781 172.359375 C 194.25 171.492188 194.472656 170.625 194.695312 169.777344 C 195.117188 168.085938 195.941406 166.59375 197.96875 167.171875 C 199.839844 167.707031 200.0625 169.375 199.773438 171.089844 C 198.390625 179.398438 194.628906 186.277344 187.371094 190.777344 C 181.9375 194.136719 176.234375 197.078125 170.691406 200.261719 C 167.460938 202.109375 164.144531 203.867188 161.070312 205.984375 C 155.929688 209.546875 152.433594 214.421875 151.050781 220.613281 C 148.691406 231.367188 154.304688 239.363281 165.28125 240.652344 C 174.433594 241.746094 183.382812 240.296875 192.15625 237.804688 C 200.773438 235.355469 208.722656 231.414062 216.09375 226.335938 C 216.828125 225.824219 217.519531 224.976562 218.277344 224.886719 C 219.367188 224.777344 220.96875 224.84375 221.550781 225.535156 C 222.105469 226.179688 222.128906 228.074219 221.570312 228.785156 C 220.414062 230.277344 218.832031 231.570312 217.207031 232.59375 C 209.679688 237.378906 201.644531 241.144531 193.046875 243.683594 C 191.734375 244.082031 190.421875 244.550781 189.0625 244.996094 Z M 158.378906 200.351562 C 143.59375 195.296875 130.789062 201.707031 126.625 215.78125 C 126.023438 217.808594 125.644531 219.921875 125.3125 222.039062 C 123.597656 233.148438 125.445312 244.039062 127.558594 254.859375 C 130.855469 271.515625 135.777344 287.679688 144.816406 302.199219 C 147.777344 306.964844 151.742188 311.171875 155.683594 315.226562 C 159 318.632812 163.5 320.214844 168.265625 320.390625 C 174.542969 320.636719 180.667969 319.457031 186.480469 317.074219 C 189.820312 315.695312 191.980469 313.222656 192.734375 309.636719 C 193.136719 307.722656 193.582031 305.828125 193.828125 303.890625 C 194.875 295.476562 193.625 287.214844 192.089844 278.976562 C 189.996094 267.820312 187.570312 256.730469 183.09375 245.839844 C 181.246094 246.019531 179.507812 246.375 177.773438 246.355469 C 172.292969 246.265625 166.683594 246.6875 161.363281 245.6875 C 150.539062 243.636719 143.972656 234.507812 144.75 223.507812 C 145.285156 215.914062 148.492188 209.503906 153.992188 204.246094 C 155.261719 203.042969 156.597656 201.910156 158.378906 200.328125 Z M 148.179688 317.628906 C 144.171875 311.484375 140.339844 306.320312 137.246094 300.773438 C 130.878906 289.375 126.667969 277.058594 123.707031 264.390625 C 120.191406 249.292969 117.183594 234.085938 120.011719 218.453125 C 120.414062 216.269531 119.789062 214.378906 118.164062 213.21875 C 115.757812 211.507812 113.175781 209.414062 110.414062 208.945312 C 101.886719 207.476562 93.757812 209.144531 86.523438 214.089844 C 84.25 215.648438 82.089844 217.539062 81.757812 220.679688 C 87.101562 221.726562 92.199219 222.484375 97.144531 223.796875 C 105.09375 225.914062 110.167969 231.101562 111.261719 239.382812 C 112.417969 248.023438 109.722656 255.503906 101.996094 259.960938 C 97.300781 262.675781 91.867188 264.101562 86.746094 266.058594 C 85.476562 266.550781 84.117188 266.839844 82.78125 267.21875 C 82.78125 268.085938 82.691406 268.621094 82.78125 269.109375 C 87.144531 288.460938 95.585938 306.007812 106.71875 322.308594 C 109.144531 325.847656 112.507812 328.007812 116.828125 328.628906 C 126.601562 330.054688 135.578125 327.960938 143.59375 322.21875 C 145.417969 320.902344 146.820312 319.011719 148.15625 317.628906 Z M 148.179688 317.628906 "/><path style=" stroke:none;fill-rule:nonzero;fill:#000000;fill-opacity:1;" d="M 317.566406 40.160156 C 318.476562 40.808594 319.949219 41.320312 320.238281 42.1875 C 320.503906 43.054688 319.859375 44.546875 319.144531 45.347656 C 318.367188 46.21875 317.097656 46.730469 315.984375 47.242188 C 291.890625 58.175781 267.777344 69.085938 243.660156 79.996094 C 242.859375 80.351562 241.96875 81 241.1875 80.910156 C 240.097656 80.777344 238.539062 80.351562 238.136719 79.550781 C 237.738281 78.792969 238.25 77.148438 238.917969 76.367188 C 239.652344 75.5 241.011719 75.097656 242.125 74.585938 C 265.503906 63.808594 288.90625 53.007812 312.308594 42.253906 C 313.914062 41.519531 315.582031 40.960938 317.609375 40.183594 Z M 317.566406 40.160156 "/><path style=" stroke:none;fill-rule:nonzero;fill:#000000;fill-opacity:1;" d="M 259.070312 139.5625 C 258.269531 139.050781 256.863281 138.625 256.730469 137.9375 C 256.53125 136.957031 256.933594 135.507812 257.601562 134.730469 C 258.355469 133.859375 259.671875 133.4375 260.804688 132.902344 C 284.363281 122.058594 307.921875 111.214844 331.480469 100.394531 C 332.773438 99.792969 334.109375 98.925781 335.421875 98.925781 C 336.582031 98.925781 338.160156 99.660156 338.808594 100.570312 C 339.207031 101.152344 338.539062 102.976562 337.804688 103.710938 C 336.871094 104.691406 335.445312 105.246094 334.152344 105.828125 C 310.527344 116.539062 286.902344 127.203125 263.253906 137.890625 C 261.964844 138.46875 260.628906 138.914062 259.046875 139.539062 Z M 259.070312 139.5625 "/><g clip-rule="nonzero" clip-path="url(#371297f342)"><path style=" stroke:none;fill-rule:nonzero;fill:#000000;fill-opacity:1;" d="M 373.476562 190.398438 C 373.007812 191.066406 372.585938 192.132812 371.808594 192.691406 C 370.515625 193.601562 369.023438 194.226562 367.554688 194.871094 C 345.242188 204.980469 322.929688 215.089844 300.621094 225.179688 C 299.484375 225.691406 298.324219 226.445312 297.167969 226.445312 C 296.144531 226.445312 294.5625 225.777344 294.25 225 C 293.917969 224.175781 294.472656 222.59375 295.1875 221.816406 C 295.964844 220.945312 297.300781 220.589844 298.4375 220.054688 C 320.839844 209.726562 343.261719 199.414062 365.660156 189.105469 C 367.109375 188.4375 368.601562 187.746094 370.136719 187.457031 C 371.964844 187.125 373.121094 188.171875 373.5 190.375 Z M 373.476562 190.398438 "/></g><path style=" stroke:none;fill-rule:nonzero;fill:#000000;fill-opacity:1;" d="M 127.335938 141.519531 C 127.335938 133.328125 130.230469 128.761719 134.707031 127.78125 C 138.984375 126.847656 143.636719 130.121094 145.953125 135.753906 C 147.691406 140.007812 148.203125 144.371094 146.644531 148.78125 C 144.261719 155.617188 137.359375 157.195312 132.28125 152.03125 C 128.894531 148.578125 127.316406 144.304688 127.335938 141.5 Z M 127.335938 141.519531 "/><path style=" stroke:none;fill-rule:nonzero;fill:#000000;fill-opacity:1;" d="M 86.789062 158.222656 C 86.832031 164.410156 84.140625 168.976562 80.265625 169.890625 C 76.546875 170.78125 72.492188 168.242188 69.867188 163.253906 C 67.484375 158.753906 66.347656 154.035156 67.617188 148.914062 C 68.484375 145.441406 70.15625 142.632812 73.917969 141.808594 C 77.503906 141.054688 80.019531 143.011719 82.136719 145.574219 C 85.296875 149.402344 86.523438 153.992188 86.8125 158.199219 Z M 86.789062 158.222656 "/><path style=" stroke:none;fill-rule:nonzero;fill:#000000;fill-opacity:1;" d="M 319.058594 73.226562 C 317.921875 74.71875 317.453125 75.765625 316.652344 76.300781 C 315.183594 77.28125 313.558594 78.039062 311.953125 78.773438 C 298.839844 84.671875 285.699219 90.574219 272.5625 96.429688 C 271.273438 97.007812 269.914062 97.789062 268.578125 97.8125 C 267.597656 97.8125 266.285156 96.964844 265.75 96.097656 C 265.414062 95.539062 266.039062 94.046875 266.683594 93.402344 C 267.53125 92.554688 268.777344 92.089844 269.890625 91.574219 C 283.429688 85.296875 296.96875 79.015625 310.507812 72.761719 C 311.953125 72.09375 313.488281 71.203125 314.980469 71.203125 C 316.207031 71.203125 317.453125 72.382812 319.035156 73.226562 Z M 319.058594 73.226562 "/><path style=" stroke:none;fill-rule:nonzero;fill:#000000;fill-opacity:1;" d="M 307.722656 257.0625 C 306.921875 256.417969 305.742188 255.929688 305.496094 255.148438 C 305.25 254.347656 305.695312 253.054688 306.277344 252.34375 C 306.898438 251.585938 308.011719 251.1875 308.96875 250.742188 C 321.839844 244.773438 334.734375 238.804688 347.601562 232.859375 C 348.5625 232.414062 349.5625 232.015625 350.566406 231.703125 C 352.277344 231.144531 354.0625 231.457031 354.484375 233.261719 C 354.730469 234.285156 353.816406 235.84375 352.992188 236.757812 C 352.210938 237.625 350.898438 238.027344 349.761719 238.539062 C 336.980469 244.28125 324.199219 250.027344 311.398438 255.75 C 310.285156 256.242188 309.101562 256.597656 307.699219 257.085938 Z M 307.722656 257.0625 "/><path style=" stroke:none;fill-rule:nonzero;fill:#000000;fill-opacity:1;" d="M 281.449219 165.746094 C 280.714844 165.210938 279.375 164.765625 279.222656 164.03125 C 278.976562 163.054688 279.355469 161.648438 279.957031 160.804688 C 280.511719 160.023438 281.738281 159.734375 282.695312 159.289062 C 295.230469 153.457031 307.765625 147.644531 320.304688 141.832031 C 321.574219 141.230469 322.929688 140.472656 324.265625 140.40625 C 325.269531 140.363281 326.828125 141.054688 327.230469 141.855469 C 327.628906 142.65625 327.160156 144.214844 326.582031 145.105469 C 326.070312 145.90625 324.890625 146.351562 323.933594 146.777344 C 310.683594 152.765625 297.433594 158.710938 284.1875 164.65625 C 283.386719 165.011719 282.539062 165.300781 281.425781 165.726562 Z M 281.449219 165.746094 "/><path style=" stroke:none;fill-rule:nonzero;fill:#000000;fill-opacity:1;" d="M 335.246094 172.871094 C 334.175781 174.253906 333.6875 175.253906 332.90625 175.835938 C 331.769531 176.65625 330.433594 177.191406 329.144531 177.792969 C 317.496094 183.046875 305.832031 188.28125 294.164062 193.492188 C 292.871094 194.070312 291.535156 194.695312 290.152344 194.804688 C 289.308594 194.871094 287.75 194.183594 287.617188 193.558594 C 287.371094 192.601562 287.90625 191.332031 288.417969 190.328125 C 288.683594 189.796875 289.554688 189.527344 290.199219 189.238281 C 303.070312 183.25 315.960938 177.238281 328.855469 171.292969 C 329.789062 170.847656 331.015625 170.378906 331.90625 170.625 C 333.0625 170.933594 333.996094 171.980469 335.289062 172.871094 Z M 335.246094 172.871094 "/><path style=" stroke:none;fill-rule:nonzero;fill:#000000;fill-opacity:1;" d="M 109.636719 185.03125 C 104.269531 184.851562 100.105469 182.871094 97.1875 178.574219 C 96.140625 177.015625 95.5625 175.121094 97.277344 173.761719 C 99.058594 172.359375 100.4375 173.5625 101.773438 174.988281 C 108.367188 181.890625 116.269531 179.910156 118.964844 170.757812 C 119.164062 170.089844 119.097656 169.132812 119.542969 168.777344 C 120.390625 168.039062 121.527344 167.21875 122.527344 167.21875 C 123.195312 167.21875 124.441406 168.574219 124.441406 169.308594 C 124.441406 171.378906 124.355469 173.628906 123.550781 175.5 C 120.902344 181.601562 115.960938 184.609375 109.613281 185.054688 Z M 109.636719 185.03125 "/><path style=" stroke:none;fill-rule:nonzero;fill:#000000;fill-opacity:1;" d="M 124.507812 117.359375 C 119.476562 117.160156 115.402344 116.226562 112.6875 112.351562 C 111.996094 111.371094 111.351562 110.167969 111.261719 109.011719 C 111.195312 108.164062 111.882812 107.007812 112.621094 106.472656 C 113.066406 106.136719 114.246094 106.5625 115 106.875 C 115.445312 107.050781 115.78125 107.585938 116.046875 108.03125 C 118.007812 111.460938 121.214844 112.039062 124.753906 111.839844 C 126 111.773438 127.335938 111.347656 128.449219 111.683594 C 129.632812 112.039062 131.234375 112.929688 131.5 113.910156 C 132.035156 115.824219 130.386719 116.648438 128.652344 116.894531 C 127.070312 117.117188 125.488281 117.25 124.53125 117.359375 Z M 124.507812 117.359375 "/><path style=" stroke:none;fill-rule:nonzero;fill:#000000;fill-opacity:1;" d="M 83.046875 119.34375 C 83.09375 125.066406 77.238281 132.726562 72.761719 133.59375 C 71.671875 133.792969 70.355469 132.792969 69.132812 132.347656 C 69.53125 131.277344 69.667969 129.964844 70.402344 129.207031 C 71.738281 127.804688 73.628906 126.9375 74.855469 125.488281 C 76.167969 123.929688 77.238281 122.015625 77.882812 120.078125 C 78.4375 118.429688 78.105469 116.003906 80.597656 116.582031 C 81.800781 116.847656 82.625 118.851562 83.027344 119.363281 Z M 83.046875 119.34375 "/></g></svg>