<svg xmlns="http://www.w3.org/2000/svg" xmlns:xlink="http://www.w3.org/1999/xlink" width="500" zoomAndPan="magnify" viewBox="0 0 375 374.999991" height="500" preserveAspectRatio="xMidYMid meet" version="1.0"><defs><clipPath id="c4adea4356"><path d="M 112.5 119.65625 L 246 119.65625 L 246 255.40625 L 112.5 255.40625 Z M 112.5 119.65625 " clip-rule="nonzero"/></clipPath><clipPath id="2b84172681"><path d="M 230 187 L 262.5 187 L 262.5 204 L 230 204 Z M 230 187 " clip-rule="nonzero"/></clipPath></defs><g clip-path="url(#c4adea4356)"><path fill="#f98805" d="M 112.707031 185.140625 C 112.464844 176.472656 113.789062 168.472656 116.566406 160.765625 C 118.753906 154.691406 121.628906 148.894531 125.664062 143.820312 C 129.875 138.527344 135.117188 134.351562 140.957031 130.917969 C 148.171875 126.679688 155.90625 123.796875 163.988281 121.84375 C 167.085938 121.089844 170.285156 120.722656 173.457031 120.273438 C 177.535156 119.691406 181.605469 119.824219 185.664062 119.976562 C 189.632812 120.128906 193.585938 120.820312 197.445312 121.867188 C 203.128906 123.402344 208.566406 125.542969 213.753906 128.3125 C 218.636719 130.910156 223.171875 134.039062 226.925781 138.125 C 229.050781 140.433594 230.824219 143.042969 232.445312 145.738281 C 235.699219 151.160156 238.136719 156.96875 240.117188 162.933594 C 241.890625 168.277344 243.316406 173.742188 244.21875 179.304688 C 244.820312 183.023438 245.457031 186.742188 245.628906 190.535156 C 245.707031 192.300781 245.976562 194.082031 245.949219 195.867188 C 245.851562 201.625 244.738281 207.199219 242.609375 212.550781 C 240.109375 218.839844 236.578125 224.519531 232.265625 229.734375 C 226.023438 237.289062 218.539062 243.265625 209.675781 247.433594 C 203.386719 250.390625 196.730469 252.273438 189.910156 253.625 C 183.066406 254.976562 176.128906 255.308594 169.230469 254.816406 C 160.617188 254.199219 152.402344 251.941406 144.890625 247.414062 C 137.894531 243.203125 132.417969 237.488281 127.6875 230.945312 C 123.726562 225.472656 120.527344 219.574219 117.964844 213.347656 C 115.789062 208.050781 114.433594 202.53125 113.523438 196.867188 C 112.867188 192.828125 112.632812 188.785156 112.722656 185.148438 Z M 112.707031 185.140625 " fill-opacity="1" fill-rule="nonzero"/></g><path fill="#a3dbff" d="M 185.367188 187.621094 C 185.296875 188.867188 184.738281 189.710938 183.628906 189.886719 C 182.832031 190.015625 182.519531 190.550781 181.980469 190.945312 C 180.511719 192.03125 178.675781 192.378906 176.910156 192.386719 C 175.832031 192.386719 175.222656 191.242188 175.179688 190.210938 C 175.035156 187.414062 173.503906 185.425781 171.667969 183.554688 C 169.445312 181.285156 168.089844 178.589844 167.644531 175.433594 C 167.5 174.449219 167.304688 173.464844 167.042969 172.496094 C 166.71875 171.285156 167.015625 170.273438 167.6875 169.269531 C 168.207031 168.5 168.761719 167.945312 169.757812 168.050781 C 170.644531 168.148438 171.128906 168.722656 171.46875 169.484375 C 171.972656 170.585938 172.417969 171.726562 173.011719 172.78125 C 175 176.3125 177.375 179.46875 181.121094 181.386719 C 183.191406 182.441406 184.460938 184.253906 185.117188 186.472656 C 185.234375 186.878906 185.296875 187.308594 185.359375 187.621094 Z M 185.367188 187.621094 " fill-opacity="1" fill-rule="nonzero"/><path fill="#a3dbff" d="M 145.871094 178.257812 C 145.914062 178.859375 145.617188 179.359375 145.421875 179.898438 C 144.765625 181.636719 144.09375 183.367188 143.46875 185.105469 C 142.796875 186.957031 142.652344 188.839844 143.152344 190.785156 C 143.601562 192.515625 143.890625 194.269531 143.773438 196.082031 C 143.691406 197.378906 143.433594 198.625 142.847656 199.800781 C 142.355469 200.792969 141.542969 201.394531 140.429688 201.152344 C 139.542969 200.953125 138.558594 200.902344 137.777344 200.570312 C 136.585938 200.058594 135.4375 199.367188 134.28125 198.742188 C 133.414062 198.277344 133.316406 197.226562 133.59375 196.242188 C 133.871094 195.265625 134.265625 194.34375 134.9375 193.589844 C 136.066406 192.335938 136.390625 190.875 136.351562 189.234375 C 136.308594 187.378906 136.40625 185.523438 136.820312 183.695312 C 137.445312 180.882812 138.898438 178.554688 140.949219 176.582031 C 142.390625 175.203125 144.121094 175.355469 145.414062 176.886719 C 145.761719 177.300781 145.886719 177.757812 145.871094 178.265625 Z M 145.871094 178.257812 " fill-opacity="1" fill-rule="nonzero"/><path fill="#000000" d="M 188.21875 210.675781 C 190.421875 216.734375 191.730469 222.871094 192.472656 229.136719 C 192.804688 231.929688 192.644531 234.699219 191.917969 237.441406 C 191.335938 239.621094 190.027344 241.167969 187.949219 241.914062 C 183.234375 243.605469 178.503906 244.378906 173.851562 241.339844 C 173.539062 241.617188 173.234375 241.886719 172.9375 242.171875 C 168.371094 246.671875 162.886719 247.628906 156.863281 246.222656 C 154.777344 245.730469 153.59375 243.957031 152.507812 242.28125 C 148.324219 235.8125 144.992188 228.949219 143.253906 221.386719 C 143.152344 220.972656 143 220.578125 142.859375 220.140625 C 142.125 220.03125 141.414062 219.988281 140.734375 219.808594 C 140.042969 219.621094 139.640625 219.109375 139.785156 218.355469 C 139.917969 217.648438 140.476562 217.539062 141.09375 217.550781 C 144.515625 217.605469 147.761719 216.804688 150.859375 215.410156 C 152.722656 214.566406 154.015625 213.238281 154.488281 211.179688 C 155.207031 208.085938 153.933594 205.453125 150.894531 204.59375 C 148.152344 203.820312 145.3125 203.347656 142.492188 202.972656 C 135.984375 202.09375 132.140625 198.25 130.125 192.246094 C 129.902344 191.574219 129.714844 190.828125 129.777344 190.148438 C 129.820312 189.710938 130.296875 189.144531 130.71875 188.972656 C 130.96875 188.875 131.648438 189.332031 131.835938 189.691406 C 132.160156 190.308594 132.222656 191.0625 132.445312 191.734375 C 133.988281 196.449219 137 199.574219 142.214844 200.660156 C 143.824219 196.867188 146.917969 194.914062 150.851562 194.164062 C 154.625 193.4375 158.28125 193.4375 161.308594 196.304688 C 166.101562 189.773438 171.378906 188.214844 178.449219 191.339844 C 180.949219 189.96875 183.601562 188.570312 186.191406 187.066406 C 188.332031 185.820312 189.652344 183.902344 190.207031 181.464844 C 190.285156 181.117188 190.375 180.765625 190.464844 180.425781 C 190.636719 179.746094 190.96875 179.144531 191.78125 179.378906 C 192.535156 179.59375 192.625 180.265625 192.507812 180.953125 C 191.953125 184.296875 190.4375 187.066406 187.519531 188.875 C 185.332031 190.230469 183.039062 191.410156 180.804688 192.691406 C 179.507812 193.4375 178.171875 194.144531 176.933594 194.996094 C 174.867188 196.429688 173.457031 198.390625 172.902344 200.882812 C 171.953125 205.210938 174.210938 208.429688 178.628906 208.949219 C 182.3125 209.386719 185.914062 208.804688 189.445312 207.800781 C 192.914062 206.816406 196.109375 205.230469 199.078125 203.1875 C 199.371094 202.980469 199.652344 202.640625 199.957031 202.605469 C 200.394531 202.558594 201.039062 202.585938 201.273438 202.863281 C 201.496094 203.125 201.503906 203.886719 201.28125 204.171875 C 200.816406 204.773438 200.179688 205.292969 199.523438 205.703125 C 196.496094 207.628906 193.261719 209.144531 189.804688 210.167969 C 189.273438 210.328125 188.746094 210.515625 188.199219 210.695312 Z M 175.851562 192.730469 C 169.902344 190.695312 164.75 193.277344 163.074219 198.9375 C 162.832031 199.753906 162.679688 200.605469 162.542969 201.457031 C 161.855469 205.929688 162.597656 210.308594 163.449219 214.664062 C 164.777344 221.367188 166.757812 227.871094 170.394531 233.714844 C 171.585938 235.632812 173.179688 237.324219 174.765625 238.957031 C 176.101562 240.328125 177.914062 240.964844 179.828125 241.035156 C 182.355469 241.132812 184.820312 240.660156 187.160156 239.699219 C 188.503906 239.144531 189.371094 238.148438 189.675781 236.707031 C 189.839844 235.9375 190.019531 235.175781 190.117188 234.394531 C 190.539062 231.007812 190.035156 227.683594 189.417969 224.367188 C 188.574219 219.878906 187.597656 215.417969 185.796875 211.035156 C 185.054688 211.105469 184.355469 211.25 183.65625 211.242188 C 181.453125 211.207031 179.195312 211.375 177.050781 210.972656 C 172.695312 210.148438 170.054688 206.472656 170.367188 202.046875 C 170.582031 198.992188 171.871094 196.410156 174.085938 194.296875 C 174.597656 193.8125 175.132812 193.355469 175.851562 192.71875 Z M 171.746094 239.925781 C 170.132812 237.453125 168.59375 235.371094 167.347656 233.140625 C 164.785156 228.554688 163.089844 223.597656 161.898438 218.5 C 160.484375 212.425781 159.273438 206.304688 160.414062 200.015625 C 160.574219 199.136719 160.324219 198.375 159.667969 197.910156 C 158.699219 197.21875 157.660156 196.375 156.550781 196.1875 C 153.117188 195.597656 149.847656 196.269531 146.933594 198.257812 C 146.023438 198.886719 145.152344 199.648438 145.019531 200.910156 C 147.167969 201.332031 149.21875 201.636719 151.210938 202.164062 C 154.410156 203.015625 156.453125 205.105469 156.890625 208.4375 C 157.355469 211.914062 156.273438 214.925781 153.164062 216.714844 C 151.273438 217.808594 149.085938 218.382812 147.023438 219.171875 C 146.515625 219.367188 145.96875 219.484375 145.429688 219.636719 C 145.429688 219.988281 145.394531 220.203125 145.429688 220.398438 C 147.1875 228.1875 150.582031 235.246094 155.0625 241.804688 C 156.039062 243.230469 157.390625 244.101562 159.128906 244.351562 C 163.066406 244.925781 166.675781 244.082031 169.902344 241.769531 C 170.636719 241.242188 171.199219 240.480469 171.738281 239.925781 Z M 171.746094 239.925781 " fill-opacity="1" fill-rule="nonzero"/><path fill="#000000" d="M 239.910156 128.265625 C 240.277344 128.527344 240.871094 128.734375 240.984375 129.082031 C 241.09375 129.429688 240.832031 130.03125 240.546875 130.355469 C 240.234375 130.703125 239.722656 130.910156 239.273438 131.117188 C 229.578125 135.515625 219.875 139.90625 210.171875 144.296875 C 209.847656 144.441406 209.488281 144.699219 209.175781 144.664062 C 208.738281 144.609375 208.109375 144.441406 207.949219 144.117188 C 207.785156 143.8125 207.992188 143.148438 208.261719 142.835938 C 208.558594 142.488281 209.105469 142.324219 209.550781 142.121094 C 218.960938 137.78125 228.378906 133.4375 237.796875 129.109375 C 238.441406 128.8125 239.113281 128.589844 239.929688 128.277344 Z M 239.910156 128.265625 " fill-opacity="1" fill-rule="nonzero"/><path fill="#000000" d="M 216.371094 168.265625 C 216.046875 168.0625 215.484375 167.890625 215.429688 167.613281 C 215.347656 167.21875 215.511719 166.636719 215.78125 166.320312 C 216.085938 165.972656 216.613281 165.800781 217.070312 165.585938 C 226.550781 161.222656 236.03125 156.859375 245.511719 152.503906 C 246.03125 152.261719 246.566406 151.914062 247.097656 151.914062 C 247.5625 151.914062 248.199219 152.210938 248.457031 152.578125 C 248.621094 152.808594 248.351562 153.542969 248.054688 153.839844 C 247.679688 154.234375 247.105469 154.457031 246.585938 154.691406 C 237.078125 159 227.570312 163.292969 218.054688 167.59375 C 217.535156 167.828125 217 168.007812 216.363281 168.257812 Z M 216.371094 168.265625 " fill-opacity="1" fill-rule="nonzero"/><g clip-path="url(#2b84172681)"><path fill="#000000" d="M 262.410156 188.722656 C 262.222656 188.992188 262.050781 189.421875 261.738281 189.648438 C 261.21875 190.015625 260.617188 190.265625 260.027344 190.523438 C 251.046875 194.59375 242.070312 198.660156 233.089844 202.71875 C 232.632812 202.925781 232.167969 203.230469 231.703125 203.230469 C 231.289062 203.230469 230.652344 202.960938 230.527344 202.648438 C 230.394531 202.316406 230.617188 201.679688 230.90625 201.367188 C 231.21875 201.015625 231.757812 200.875 232.214844 200.660156 C 241.226562 196.5 250.25 192.351562 259.265625 188.203125 C 259.847656 187.933594 260.449219 187.65625 261.066406 187.539062 C 261.800781 187.40625 262.265625 187.828125 262.417969 188.714844 Z M 262.410156 188.722656 " fill-opacity="1" fill-rule="nonzero"/></g><path fill="#000000" d="M 163.359375 169.054688 C 163.359375 165.757812 164.523438 163.921875 166.324219 163.527344 C 168.046875 163.148438 169.917969 164.46875 170.851562 166.734375 C 171.550781 168.445312 171.757812 170.203125 171.128906 171.976562 C 170.171875 174.726562 167.390625 175.363281 165.347656 173.285156 C 163.988281 171.894531 163.351562 170.175781 163.359375 169.046875 Z M 163.359375 169.054688 " fill-opacity="1" fill-rule="nonzero"/><path fill="#000000" d="M 147.042969 175.777344 C 147.0625 178.265625 145.976562 180.105469 144.417969 180.472656 C 142.921875 180.828125 141.289062 179.808594 140.234375 177.800781 C 139.273438 175.992188 138.816406 174.089844 139.328125 172.03125 C 139.675781 170.632812 140.347656 169.503906 141.863281 169.171875 C 143.304688 168.867188 144.320312 169.65625 145.171875 170.6875 C 146.441406 172.226562 146.933594 174.074219 147.050781 175.765625 Z M 147.042969 175.777344 " fill-opacity="1" fill-rule="nonzero"/><path fill="#000000" d="M 240.511719 141.574219 C 240.054688 142.171875 239.867188 142.59375 239.542969 142.808594 C 238.953125 143.203125 238.296875 143.507812 237.652344 143.804688 C 232.375 146.179688 227.085938 148.554688 221.800781 150.910156 C 221.28125 151.144531 220.734375 151.457031 220.195312 151.464844 C 219.804688 151.464844 219.273438 151.125 219.058594 150.777344 C 218.925781 150.550781 219.175781 149.953125 219.433594 149.691406 C 219.777344 149.351562 220.277344 149.164062 220.726562 148.957031 C 226.175781 146.429688 231.621094 143.902344 237.070312 141.386719 C 237.652344 141.117188 238.269531 140.757812 238.871094 140.757812 C 239.363281 140.757812 239.867188 141.234375 240.5 141.574219 Z M 240.511719 141.574219 " fill-opacity="1" fill-rule="nonzero"/><path fill="#000000" d="M 235.949219 215.550781 C 235.628906 215.292969 235.152344 215.09375 235.054688 214.78125 C 234.957031 214.457031 235.132812 213.9375 235.367188 213.652344 C 235.617188 213.347656 236.066406 213.1875 236.453125 213.007812 C 241.628906 210.605469 246.820312 208.203125 252 205.8125 C 252.382812 205.632812 252.785156 205.472656 253.191406 205.34375 C 253.878906 205.121094 254.597656 205.246094 254.765625 205.972656 C 254.867188 206.386719 254.5 207.011719 254.167969 207.378906 C 253.851562 207.730469 253.324219 207.890625 252.867188 208.097656 C 247.722656 210.410156 242.582031 212.71875 237.429688 215.023438 C 236.980469 215.21875 236.503906 215.363281 235.941406 215.5625 Z M 235.949219 215.550781 " fill-opacity="1" fill-rule="nonzero"/><path fill="#000000" d="M 225.375 178.804688 C 225.082031 178.589844 224.542969 178.410156 224.480469 178.113281 C 224.382812 177.71875 224.535156 177.15625 224.777344 176.816406 C 225 176.5 225.492188 176.386719 225.878906 176.207031 C 230.921875 173.859375 235.96875 171.519531 241.011719 169.179688 C 241.523438 168.9375 242.070312 168.632812 242.609375 168.605469 C 243.011719 168.589844 243.636719 168.867188 243.800781 169.191406 C 243.960938 169.511719 243.773438 170.140625 243.539062 170.496094 C 243.332031 170.820312 242.859375 171 242.472656 171.167969 C 237.140625 173.582031 231.808594 175.972656 226.476562 178.367188 C 226.15625 178.507812 225.816406 178.625 225.367188 178.796875 Z M 225.375 178.804688 " fill-opacity="1" fill-rule="nonzero"/><path fill="#000000" d="M 247.023438 181.671875 C 246.59375 182.226562 246.398438 182.628906 246.085938 182.863281 C 245.628906 183.195312 245.089844 183.410156 244.570312 183.652344 C 239.882812 185.765625 235.1875 187.871094 230.492188 189.96875 C 229.972656 190.203125 229.433594 190.453125 228.878906 190.496094 C 228.539062 190.523438 227.914062 190.246094 227.859375 189.996094 C 227.761719 189.609375 227.976562 189.101562 228.179688 188.695312 C 228.289062 188.480469 228.636719 188.375 228.898438 188.257812 C 234.078125 185.847656 239.265625 183.429688 244.453125 181.035156 C 244.828125 180.855469 245.324219 180.667969 245.679688 180.765625 C 246.148438 180.890625 246.523438 181.3125 247.042969 181.671875 Z M 247.023438 181.671875 " fill-opacity="1" fill-rule="nonzero"/><path fill="#000000" d="M 156.238281 186.5625 C 154.078125 186.492188 152.402344 185.695312 151.226562 183.964844 C 150.804688 183.339844 150.574219 182.578125 151.261719 182.03125 C 151.980469 181.464844 152.535156 181.949219 153.074219 182.523438 C 155.726562 185.300781 158.90625 184.503906 159.992188 180.820312 C 160.070312 180.550781 160.042969 180.167969 160.222656 180.023438 C 160.566406 179.726562 161.023438 179.394531 161.425781 179.394531 C 161.695312 179.394531 162.195312 179.941406 162.195312 180.238281 C 162.195312 181.070312 162.160156 181.976562 161.835938 182.730469 C 160.769531 185.183594 158.78125 186.394531 156.226562 186.574219 Z M 156.238281 186.5625 " fill-opacity="1" fill-rule="nonzero"/><path fill="#000000" d="M 162.222656 159.332031 C 160.195312 159.253906 158.558594 158.875 157.464844 157.316406 C 157.1875 156.921875 156.925781 156.4375 156.890625 155.972656 C 156.863281 155.632812 157.140625 155.167969 157.4375 154.953125 C 157.617188 154.816406 158.089844 154.988281 158.394531 155.113281 C 158.574219 155.183594 158.710938 155.398438 158.816406 155.578125 C 159.605469 156.957031 160.894531 157.191406 162.320312 157.109375 C 162.824219 157.082031 163.359375 156.914062 163.808594 157.046875 C 164.28125 157.191406 164.929688 157.550781 165.035156 157.945312 C 165.25 158.714844 164.585938 159.046875 163.890625 159.144531 C 163.253906 159.234375 162.617188 159.289062 162.230469 159.332031 Z M 162.222656 159.332031 " fill-opacity="1" fill-rule="nonzero"/><path fill="#000000" d="M 145.539062 160.128906 C 145.554688 162.433594 143.199219 165.515625 141.398438 165.867188 C 140.957031 165.945312 140.429688 165.542969 139.9375 165.363281 C 140.097656 164.933594 140.152344 164.40625 140.449219 164.101562 C 140.984375 163.535156 141.746094 163.1875 142.238281 162.605469 C 142.769531 161.976562 143.199219 161.207031 143.457031 160.425781 C 143.683594 159.761719 143.546875 158.785156 144.550781 159.019531 C 145.035156 159.125 145.367188 159.933594 145.527344 160.140625 Z M 145.539062 160.128906 " fill-opacity="1" fill-rule="nonzero"/></svg>