<svg xmlns="http://www.w3.org/2000/svg" xmlns:xlink="http://www.w3.org/1999/xlink" width="500" zoomAndPan="magnify" viewBox="0 0 375 374.999991" height="500" preserveAspectRatio="xMidYMid meet" version="1.0"><defs><clipPath id="0bc840a16f"><path d="M 112.5 113.15625 L 262.5 113.15625 L 262.5 261.65625 L 112.5 261.65625 Z M 112.5 113.15625 " clip-rule="nonzero"/></clipPath></defs><g clip-path="url(#0bc840a16f)"><path fill="#f35695" d="M 112.640625 193.648438 C 112.472656 189.855469 113.015625 185.632812 113.492188 181.382812 C 113.820312 178.480469 114.089844 175.582031 114.507812 172.691406 C 115.183594 168.050781 116.34375 163.554688 117.902344 159.152344 C 119.601562 154.375 121.449219 149.65625 124.460938 145.496094 C 127.726562 140.96875 131.660156 137.09375 135.871094 133.457031 C 139.902344 129.972656 144.265625 126.992188 148.863281 124.332031 C 156.800781 119.730469 165.160156 116.265625 174.230469 114.636719 C 178.589844 113.851562 182.980469 113.144531 187.402344 113.265625 C 199.011719 113.582031 210.15625 115.976562 220.40625 121.636719 C 224.417969 123.851562 228.183594 126.457031 231.679688 129.496094 C 239.1875 136.019531 244.96875 143.855469 249.945312 152.390625 C 254.285156 159.839844 257.582031 167.683594 259.589844 176.066406 C 260.652344 180.515625 261.308594 185.035156 261.875 189.585938 C 262.460938 194.273438 262.429688 198.953125 262.132812 203.589844 C 261.753906 209.359375 260.144531 214.933594 258.011719 220.335938 C 255.367188 227.03125 251.78125 233.1875 247.085938 238.601562 C 240.179688 246.558594 232.066406 252.875 221.945312 256.359375 C 216.015625 258.40625 209.945312 259.679688 203.738281 260.511719 C 198.703125 261.199219 193.65625 261.207031 188.613281 261.535156 C 184.492188 261.804688 180.398438 261.535156 176.335938 261.328125 C 167.703125 260.910156 159.292969 259.332031 151.277344 255.773438 C 141.941406 251.644531 134.210938 245.433594 127.589844 237.867188 C 121.617188 231.054688 117.554688 223.078125 115.300781 214.269531 C 113.195312 206.09375 112.480469 202.238281 112.640625 193.648438 Z M 112.640625 193.648438 " fill-opacity="1" fill-rule="nonzero"/></g><path fill="#fff789" d="M 179.085938 236.207031 C 175.847656 236.226562 175.074219 235.542969 174.597656 232.644531 C 173.695312 227.148438 173.476562 221.617188 173.761719 216.066406 C 173.84375 214.496094 174.089844 212.917969 173.742188 211.328125 C 173.523438 210.34375 174.070312 209.628906 174.914062 209.210938 C 175.542969 208.902344 176.15625 208.527344 176.910156 208.496094 C 178.433594 208.449219 179.871094 208.011719 181.273438 207.445312 C 182.992188 206.75 184.839844 206.769531 186.617188 206.429688 C 187.351562 206.292969 187.847656 206.539062 188.207031 207.144531 C 188.730469 208.03125 189.199219 208.925781 189.417969 209.96875 C 190.789062 216.304688 191.851562 222.71875 193.996094 228.878906 C 194.710938 230.933594 194.265625 231.5 192.109375 231.996094 C 190.082031 232.464844 188.207031 233.296875 186.378906 234.25 C 183.945312 235.523438 181.320312 236.03125 179.097656 236.199219 Z M 179.085938 236.207031 " fill-opacity="1" fill-rule="nonzero"/><path fill="#fff789" d="M 220.703125 148.277344 C 220.703125 149.378906 220.824219 150.5 220.664062 151.585938 C 220.546875 152.390625 220.304688 153.390625 219.164062 153.433594 C 218.179688 153.460938 217.875 152.636719 217.566406 151.921875 C 216.144531 148.644531 215.25 145.207031 214.65625 141.703125 C 214.40625 140.222656 214.226562 138.730469 214.136719 137.230469 C 214 134.957031 214.496094 134.191406 216.15625 133.824219 C 217.535156 133.527344 218.082031 134.003906 218.867188 136.40625 C 220.136719 140.261719 220.675781 144.246094 220.703125 148.285156 Z M 220.703125 148.277344 " fill-opacity="1" fill-rule="nonzero"/><path fill="#fefefe" d="M 186.902344 202.507812 C 186.914062 204.882812 186.65625 205.058594 184.230469 205.378906 C 181.660156 205.714844 179.085938 206.082031 176.664062 207.167969 C 175.015625 207.902344 172.78125 206.839844 172.265625 205.191406 C 171.816406 203.769531 173.128906 202.039062 174.835938 201.503906 C 176.761719 200.898438 178.621094 200.105469 180.515625 199.398438 C 181.035156 199.199219 181.539062 198.914062 182.066406 198.832031 C 186.121094 198.1875 186.882812 199.269531 186.914062 202.507812 Z M 186.902344 202.507812 " fill-opacity="1" fill-rule="nonzero"/><path fill="#fefefe" d="M 154.167969 184.816406 C 154.246094 183.675781 154.316406 181.90625 155.726562 181.171875 C 157.277344 180.359375 158.984375 179.5625 160.832031 179.613281 C 162.589844 179.671875 163.75 180.933594 163.761719 182.722656 C 163.761719 183.984375 163.703125 185.265625 163.492188 186.507812 C 163.085938 188.941406 160.941406 190.46875 158.46875 190.230469 C 155.765625 189.964844 154.15625 188.085938 154.15625 184.816406 Z M 154.167969 184.816406 " fill-opacity="1" fill-rule="nonzero"/><path fill="#fff789" d="M 250.800781 131.480469 C 251.117188 133.347656 250.183594 135.195312 249.84375 137.121094 C 249.449219 139.378906 248.832031 141.59375 248.285156 143.816406 C 248.175781 144.273438 248.019531 144.75 247.738281 145.117188 C 247.074219 146.003906 245.914062 145.832031 245.457031 144.832031 C 245.21875 144.304688 245.238281 143.746094 245.265625 143.191406 C 245.632812 137.101562 246.449219 131.074219 247.371094 125.054688 C 247.472656 124.398438 247.550781 123.753906 248.367188 123.683594 C 249.140625 123.613281 249.496094 124.171875 249.707031 124.796875 C 250.402344 126.914062 250.847656 129.078125 250.789062 131.480469 Z M 250.800781 131.480469 " fill-opacity="1" fill-rule="nonzero"/><path fill="#fefefe" d="M 198.046875 178.828125 C 198.046875 181.113281 196.667969 182.882812 194.222656 183.707031 C 192.367188 184.332031 190.707031 183.726562 189.269531 181.839844 C 188.742188 181.144531 187.808594 180.25 188.105469 179.59375 C 188.921875 177.796875 189.269531 175.660156 191.085938 174.4375 C 192.496094 173.484375 193.957031 173.714844 195.375 174.410156 C 197.195312 175.304688 198.066406 176.792969 198.046875 178.820312 Z M 198.046875 178.828125 " fill-opacity="1" fill-rule="nonzero"/><path fill="#fff789" d="M 236.078125 137.292969 C 236.058594 138.902344 235.988281 140.3125 235.691406 141.710938 C 235.335938 143.398438 234.878906 145.089844 235.054688 146.847656 C 235.097656 147.222656 234.996094 147.640625 234.859375 148 C 234.679688 148.464844 234.28125 148.742188 233.765625 148.785156 C 233.25 148.8125 232.859375 148.585938 232.621094 148.109375 C 232.554688 147.96875 232.453125 147.832031 232.433594 147.671875 C 231.699219 142.425781 229.902344 137.253906 231.402344 131.859375 C 231.511719 131.480469 231.558594 131.074219 231.71875 130.726562 C 232.125 129.84375 232.980469 129.542969 233.617188 130.199219 C 234.578125 131.195312 235.683594 132.085938 235.820312 133.695312 C 235.929688 134.957031 236.019531 136.210938 236.070312 137.28125 Z M 236.078125 137.292969 " fill-opacity="1" fill-rule="nonzero"/><path fill="#ffab94" d="M 209.261719 197.660156 C 209.769531 194.285156 210.285156 190.855469 210.8125 187.429688 C 210.910156 186.816406 211.316406 186.378906 211.933594 186.417969 C 212.648438 186.457031 213.105469 186.992188 213.054688 187.699219 C 212.976562 189.03125 212.796875 190.371094 212.617188 191.691406 C 212.351562 193.648438 212.042969 195.59375 211.734375 197.542969 C 211.675781 197.929688 211.625 198.328125 211.496094 198.695312 C 211.296875 199.261719 210.890625 199.628906 210.246094 199.558594 C 209.578125 199.488281 209.320312 199.03125 209.261719 198.425781 C 209.242188 198.1875 209.261719 197.949219 209.261719 197.660156 Z M 209.261719 197.660156 " fill-opacity="1" fill-rule="nonzero"/><path fill="#ffab94" d="M 147.878906 209.035156 C 147.273438 208.945312 146.957031 208.546875 146.90625 207.929688 C 146.847656 207.265625 147.203125 206.71875 147.472656 206.152344 C 148.664062 203.667969 149.867188 201.195312 151.078125 198.714844 C 151.21875 198.433594 151.335938 198.128906 151.523438 197.890625 C 151.832031 197.5 152.238281 197.222656 152.757812 197.414062 C 153.332031 197.621094 153.621094 198.085938 153.53125 198.714844 C 153.5 198.941406 153.414062 199.171875 153.3125 199.378906 C 151.992188 202.238281 150.679688 205.101562 149.351562 207.949219 C 149.070312 208.546875 148.65625 209.003906 147.890625 209.035156 Z M 147.878906 209.035156 " fill-opacity="1" fill-rule="nonzero"/><path fill="#ffab94" d="M 204.792969 194.492188 C 204.582031 195.742188 204.414062 196.996094 204.15625 198.238281 C 204.007812 198.941406 203.511719 199.328125 202.746094 199.152344 C 202.101562 199 201.8125 198.484375 201.882812 197.910156 C 202.070312 196.417969 202.339844 194.9375 202.585938 193.460938 C 202.707031 192.746094 203.105469 192.277344 203.878906 192.367188 C 204.710938 192.457031 204.78125 193.113281 204.773438 193.777344 C 204.773438 194.015625 204.742188 194.253906 204.722656 194.492188 C 204.742188 194.492188 204.761719 194.492188 204.78125 194.492188 Z M 204.792969 194.492188 " fill-opacity="1" fill-rule="nonzero"/><path fill="#ffab94" d="M 216.414062 193.113281 C 216.492188 191.851562 216.75 190.617188 217.136719 189.425781 C 217.355469 188.75 217.882812 188.382812 218.609375 188.59375 C 219.222656 188.769531 219.433594 189.308594 219.34375 189.902344 C 219.175781 191.066406 218.996094 192.226562 218.777344 193.378906 C 218.617188 194.234375 218.460938 195.277344 217.265625 195.046875 C 216.273438 194.859375 216.402344 193.886719 216.421875 193.101562 Z M 216.414062 193.113281 " fill-opacity="1" fill-rule="nonzero"/><path fill="#ffab94" d="M 144.085938 201.265625 C 143.421875 202.785156 142.683594 204.433594 141.335938 205.6875 C 141.046875 205.953125 140.570312 205.894531 140.222656 205.675781 C 139.773438 205.386719 139.605469 204.921875 139.785156 204.445312 C 140.339844 202.964844 141.246094 201.664062 142.179688 200.402344 C 142.476562 199.996094 142.992188 199.933594 143.46875 200.164062 C 143.855469 200.34375 144.046875 200.679688 144.085938 201.265625 Z M 144.085938 201.265625 " fill-opacity="1" fill-rule="nonzero"/><path fill="#ffab94" d="M 158.109375 200.582031 C 158.90625 200.5625 159.5 201.304688 159.210938 202.089844 C 158.753906 203.351562 158.148438 204.5625 157.5625 205.777344 C 157.335938 206.261719 156.847656 206.390625 156.34375 206.3125 C 155.804688 206.222656 155.457031 205.824219 155.527344 205.308594 C 155.746094 203.621094 156.519531 202.160156 157.535156 200.820312 C 157.652344 200.660156 157.953125 200.628906 158.109375 200.570312 Z M 158.109375 200.582031 " fill-opacity="1" fill-rule="nonzero"/><path fill="#fff789" d="M 247.582031 157.296875 C 246.527344 157.316406 245.496094 156.472656 245.484375 155.675781 C 245.484375 154.734375 246.359375 153.859375 247.28125 153.878906 C 248.15625 153.898438 248.832031 154.664062 248.753906 155.648438 C 248.683594 156.429688 248.515625 157.234375 247.582031 157.285156 Z M 247.582031 157.296875 " fill-opacity="1" fill-rule="nonzero"/><path fill="#fff789" d="M 222.570312 162.5 C 222.441406 163.175781 222.183594 163.832031 221.269531 163.820312 C 220.464844 163.8125 219.800781 162.867188 219.910156 161.925781 C 220 161.160156 220.335938 160.554688 221.210938 160.515625 C 221.933594 160.484375 222.621094 161.488281 222.570312 162.5 Z M 222.570312 162.5 " fill-opacity="1" fill-rule="nonzero"/><path fill="#fff789" d="M 236.039062 159.042969 C 235.941406 159.808594 235.53125 160.445312 234.6875 160.34375 C 233.792969 160.234375 233.335938 159.480469 233.359375 158.636719 C 233.378906 157.871094 234.003906 157.605469 234.71875 157.644531 C 235.574219 157.691406 235.988281 158.179688 236.03125 159.054688 Z M 236.039062 159.042969 " fill-opacity="1" fill-rule="nonzero"/><path fill="#000000" d="M 170.824219 202.804688 C 170.785156 200.214844 170.8125 200.152344 173.046875 199.507812 C 176.625 198.464844 180.210938 197.453125 183.796875 196.417969 C 184.101562 196.328125 184.402344 196.230469 184.710938 196.171875 C 186.644531 195.8125 187.480469 196.300781 188.007812 198.257812 C 189.1875 202.628906 190.3125 206.996094 191.464844 211.378906 C 193.03125 217.367188 194.589844 223.355469 196.160156 229.335938 C 196.28125 229.792969 196.4375 230.25 196.507812 230.714844 C 196.796875 232.832031 196.359375 233.445312 194.273438 233.804688 C 188.800781 234.757812 183.328125 235.683594 177.855469 236.617188 C 177.390625 236.695312 176.910156 236.726562 176.433594 236.804688 C 175.242188 236.992188 174.648438 236.476562 174.507812 235.292969 C 174.269531 233.25 173.992188 231.203125 173.753906 229.144531 C 172.789062 220.714844 171.835938 212.269531 170.894531 203.828125 C 170.84375 203.351562 170.824219 202.875 170.8125 202.777344 Z M 194.015625 231.261719 C 191.8125 222.859375 189.695312 214.785156 187.539062 206.539062 C 182.882812 207.632812 178.53125 208.644531 174.132812 209.679688 C 175.085938 217.980469 176 225.988281 176.933594 234.164062 C 182.722656 233.179688 188.175781 232.253906 194.015625 231.261719 Z M 173.863281 207.058594 C 178.332031 206.035156 182.515625 205.070312 186.863281 204.066406 C 186.359375 202.140625 185.929688 200.480469 185.445312 198.613281 C 181.273438 199.816406 177.300781 200.957031 173.304688 202.109375 C 173.496094 203.789062 173.652344 205.191406 173.863281 207.058594 Z M 173.863281 207.058594 " fill-opacity="1" fill-rule="nonzero"/><path fill="#000000" d="M 243.4375 136.875 C 243.628906 133.101562 244.074219 129.414062 245.425781 125.890625 C 245.792969 124.9375 246.261719 124.003906 246.785156 123.128906 C 247.382812 122.144531 248.226562 121.359375 249.488281 121.539062 C 250.730469 121.71875 251.34375 122.671875 251.734375 123.765625 C 251.972656 124.429688 252.167969 125.125 252.257812 125.828125 C 253.273438 133.695312 251.792969 141.117188 248.15625 148.136719 C 247.789062 148.851562 247.382812 149.609375 246.410156 149.449219 C 245.347656 149.269531 244.789062 148.574219 244.671875 147.492188 C 244.273438 143.957031 243.855469 140.421875 243.449219 136.882812 Z M 249.140625 124.539062 C 245.523438 130.945312 245.613281 137.710938 246.867188 144.613281 C 249.746094 138.164062 250.996094 131.519531 249.140625 124.539062 Z M 249.140625 124.539062 " fill-opacity="1" fill-rule="nonzero"/><path fill="#000000" d="M 222.878906 145.933594 C 222.453125 148.824219 222.085938 151.722656 221.546875 154.59375 C 221.417969 155.257812 220.84375 156.074219 220.257812 156.371094 C 219.351562 156.828125 218.578125 156.113281 218.101562 155.359375 C 214.335938 149.4375 211.585938 143.222656 212.6875 135.941406 C 212.835938 134.949219 213.144531 133.914062 213.613281 133.03125 C 214.605469 131.171875 216.421875 130.765625 217.941406 132.175781 C 219.015625 133.171875 219.890625 134.460938 220.574219 135.773438 C 222.015625 138.554688 222.691406 142.277344 222.890625 145.933594 Z M 219.214844 152.585938 C 221.46875 146.121094 219.800781 136.535156 216.074219 134.144531 C 213.214844 137.710938 215.660156 147.78125 219.214844 152.585938 Z M 219.214844 152.585938 " fill-opacity="1" fill-rule="nonzero"/><path fill="#000000" d="M 229.136719 137.3125 C 229.386719 135.425781 229.554688 133.527344 229.910156 131.671875 C 230.101562 130.675781 230.488281 129.671875 231.015625 128.808594 C 232.226562 126.792969 234.261719 126.695312 235.640625 128.621094 C 236.269531 129.503906 236.714844 130.566406 237.003906 131.621094 C 238.09375 135.59375 238.136719 139.644531 237.269531 143.648438 C 236.683594 146.351562 235.792969 148.992188 234.917969 151.625 C 234.726562 152.210938 234.0625 152.636719 233.617188 153.132812 C 233.160156 152.667969 232.472656 152.269531 232.265625 151.714844 C 230.566406 147.074219 229.296875 142.335938 229.144531 137.320312 Z M 233.4375 147.503906 C 236.070312 142.058594 235.980469 133.089844 233.359375 130.082031 C 231.144531 133.339844 231.144531 141.671875 233.4375 147.503906 Z M 233.4375 147.503906 " fill-opacity="1" fill-rule="nonzero"/><path fill="#000000" d="M 158.972656 177.519531 C 163.292969 177.46875 166.671875 180.804688 166.683594 185.117188 C 166.691406 189.316406 163.394531 192.695312 159.234375 192.765625 C 154.992188 192.832031 151.523438 189.386719 151.523438 185.117188 C 151.523438 180.84375 154.742188 177.558594 158.972656 177.519531 Z M 159.171875 190.132812 C 161.945312 190.09375 164.128906 187.878906 164.140625 185.136719 C 164.140625 182.40625 161.925781 180.148438 159.183594 180.121094 C 156.402344 180.082031 154.027344 182.492188 154.097656 185.273438 C 154.167969 188.035156 156.402344 190.183594 159.171875 190.140625 Z M 159.171875 190.132812 " fill-opacity="1" fill-rule="nonzero"/><path fill="#000000" d="M 193.6875 186.207031 C 189.636719 186.238281 186.4375 183.082031 186.4375 179.019531 C 186.4375 174.886719 189.507812 171.808594 193.628906 171.808594 C 197.511719 171.808594 200.71875 174.964844 200.800781 178.859375 C 200.890625 182.902344 197.71875 186.167969 193.699219 186.199219 Z M 198.296875 178.898438 C 198.238281 176.367188 195.972656 174.269531 193.441406 174.378906 C 191.027344 174.488281 188.941406 176.652344 188.949219 179.039062 C 188.949219 181.582031 191.144531 183.726562 193.679688 183.675781 C 196.179688 183.625 198.355469 181.371094 198.296875 178.886719 Z M 198.296875 178.898438 " fill-opacity="1" fill-rule="nonzero"/><path fill="#000000" d="M 246.527344 197.066406 C 246.65625 195.84375 246.816406 194.621094 246.894531 193.390625 C 246.925781 193.011719 246.609375 192.574219 246.707031 192.238281 C 246.867188 191.703125 247.164062 190.917969 247.550781 190.816406 C 247.957031 190.71875 248.734375 191.183594 249 191.613281 C 250.015625 193.269531 249.308594 197.691406 247.929688 199.023438 C 246.796875 200.113281 245.328125 200.195312 244.105469 199 C 242.007812 196.957031 241.203125 194.324219 241.203125 191.472656 C 241.203125 191.015625 241.769531 190.28125 242.207031 190.160156 C 242.960938 189.964844 243.179688 190.6875 243.328125 191.355469 C 243.636719 192.65625 243.925781 193.976562 244.394531 195.226562 C 244.671875 195.972656 245.277344 196.597656 245.734375 197.273438 C 246 197.203125 246.261719 197.125 246.527344 197.054688 Z M 246.527344 197.066406 " fill-opacity="1" fill-rule="nonzero"/><path fill="#000000" d="M 135.363281 178.441406 C 135.195312 180.796875 134.570312 182.523438 133.0625 183.707031 C 132.433594 184.191406 131.460938 184.511719 130.667969 184.46875 C 128.105469 184.332031 125.492188 180.648438 126.15625 178.164062 C 126.285156 177.6875 126.921875 177.101562 127.390625 177.03125 C 128.152344 176.910156 128.285156 177.636719 128.421875 178.324219 C 128.601562 179.234375 128.808594 180.210938 129.304688 180.964844 C 130.339844 182.523438 131.53125 182.394531 132.324219 180.714844 C 132.625 180.082031 132.714844 179.355469 132.871094 178.671875 C 133.039062 177.964844 133.21875 177.042969 134.105469 177.25 C 134.679688 177.390625 135.097656 178.183594 135.375 178.460938 Z M 135.363281 178.441406 " fill-opacity="1" fill-rule="nonzero"/><path fill="#000000" d="M 224.46875 162.53125 C 224.417969 164.457031 223 165.898438 221.179688 165.847656 C 219.15625 165.796875 217.683594 164.039062 217.792969 161.796875 C 217.882812 159.859375 219.105469 158.578125 220.863281 158.578125 C 222.800781 158.578125 224.519531 160.464844 224.46875 162.53125 Z M 221.507812 163.273438 C 222.105469 162.519531 222.085938 161.835938 221.269531 161.339844 C 221.109375 161.238281 220.484375 161.527344 220.414062 161.734375 C 220.15625 162.609375 220.414062 163.246094 221.507812 163.273438 Z M 221.507812 163.273438 " fill-opacity="1" fill-rule="nonzero"/><path fill="#000000" d="M 250.363281 155.855469 C 250.34375 157.863281 249.082031 159.113281 247.105469 159.082031 C 245.019531 159.054688 243.746094 157.5625 243.707031 155.359375 C 243.667969 153.382812 245.15625 152.648438 247.28125 152.417969 C 249.050781 152.230469 250.382812 153.847656 250.371094 155.855469 Z M 248.265625 155.894531 C 247.859375 155.410156 247.589844 155.089844 247.324219 154.761719 C 246.957031 155.101562 246.585938 155.4375 246.21875 155.777344 C 246.519531 156.074219 246.777344 156.5625 247.113281 156.621094 C 247.402344 156.671875 247.769531 156.222656 248.265625 155.894531 Z M 248.265625 155.894531 " fill-opacity="1" fill-rule="nonzero"/><path fill="#000000" d="M 229.523438 220.265625 C 230.714844 219.878906 230.945312 218.828125 231.441406 217.941406 C 231.6875 217.503906 232.394531 217.335938 232.902344 217.046875 C 233.160156 217.574219 233.625 218.089844 233.617188 218.609375 C 233.585938 220.199219 231.867188 222.183594 230.339844 222.652344 C 229.226562 222.988281 228.292969 222.628906 227.527344 221.855469 C 225.996094 220.316406 225.382812 218.371094 225.292969 216.253906 C 225.261719 215.527344 225.472656 214.746094 226.394531 214.703125 C 227.347656 214.65625 227.476562 215.390625 227.578125 216.15625 C 227.777344 217.734375 228.082031 219.285156 229.515625 220.265625 Z M 229.523438 220.265625 " fill-opacity="1" fill-rule="nonzero"/><path fill="#000000" d="M 162.3125 170.109375 C 158.796875 169.382812 155.628906 168.765625 152.5 168.023438 C 152.070312 167.921875 151.523438 167.167969 151.503906 166.691406 C 151.476562 165.867188 152.179688 165.429688 152.984375 165.597656 C 156.222656 166.253906 159.460938 166.929688 162.667969 167.714844 C 163.078125 167.8125 163.671875 168.757812 163.554688 169.066406 C 163.355469 169.5625 162.640625 169.859375 162.3125 170.117188 Z M 162.3125 170.109375 " fill-opacity="1" fill-rule="nonzero"/><path fill="#000000" d="M 237.519531 159.164062 C 237.5 160.773438 236.167969 162.011719 234.421875 162.042969 C 232.761719 162.074219 231.332031 160.621094 231.292969 158.875 C 231.261719 157.414062 233.011719 155.925781 234.6875 155.996094 C 236.289062 156.0625 237.539062 157.464844 237.519531 159.164062 Z M 235.375 159.132812 C 234.945312 158.753906 234.71875 158.4375 234.441406 158.359375 C 234.28125 158.320312 234.011719 158.675781 233.792969 158.855469 C 234.011719 159.101562 234.191406 159.441406 234.46875 159.570312 C 234.617188 159.640625 234.9375 159.363281 235.382812 159.132812 Z M 235.375 159.132812 " fill-opacity="1" fill-rule="nonzero"/><path fill="#000000" d="M 193.359375 158.714844 C 192.921875 159.261719 192.683594 159.667969 192.347656 159.96875 C 190.359375 161.765625 188.34375 163.554688 186.347656 165.332031 C 185.730469 165.878906 185.054688 166.433594 184.320312 165.609375 C 183.753906 164.964844 184.003906 164.226562 184.578125 163.710938 C 186.695312 161.824219 188.851562 159.957031 191.015625 158.121094 C 191.292969 157.882812 191.789062 157.671875 192.089844 157.761719 C 192.535156 157.902344 192.882812 158.328125 193.359375 158.707031 Z M 193.359375 158.714844 " fill-opacity="1" fill-rule="nonzero"/></svg>