<svg xmlns="http://www.w3.org/2000/svg" xmlns:xlink="http://www.w3.org/1999/xlink" width="500" zoomAndPan="magnify" viewBox="0 0 375 374.999991" height="500" preserveAspectRatio="xMidYMid meet" version="1.2"><defs><clipPath id="7862db0610"><path d="M 0 1.640625 L 375 1.640625 L 375 373 L 0 373 Z M 0 1.640625 "/></clipPath></defs><g id="ecec200617"><g clip-rule="nonzero" clip-path="url(#7862db0610)"><path style=" stroke:none;fill-rule:nonzero;fill:#f35695;fill-opacity:1;" d="M 0.347656 202.871094 C -0.0742188 193.386719 1.292969 182.832031 2.484375 172.203125 C 3.304688 164.953125 3.976562 157.703125 5.019531 150.476562 C 6.707031 138.882812 9.613281 127.632812 13.511719 116.632812 C 17.757812 104.6875 22.375 92.894531 29.898438 82.488281 C 38.066406 71.167969 47.902344 61.484375 58.429688 52.394531 C 68.511719 43.679688 79.410156 36.230469 90.90625 29.574219 C 110.746094 18.078125 131.65625 9.414062 154.324219 5.339844 C 165.226562 3.378906 176.203125 1.617188 187.25 1.914062 C 216.277344 2.707031 244.140625 8.691406 269.765625 22.847656 C 279.796875 28.382812 289.207031 34.890625 297.949219 42.488281 C 316.71875 58.800781 331.171875 78.394531 343.613281 99.722656 C 354.464844 118.347656 362.707031 137.960938 367.722656 158.917969 C 370.378906 170.042969 372.019531 181.34375 373.433594 192.714844 C 374.898438 204.433594 374.824219 216.128906 374.078125 227.726562 C 373.136719 242.152344 369.113281 256.082031 363.773438 269.589844 C 357.167969 286.328125 348.207031 301.722656 336.460938 315.253906 C 319.203125 335.144531 298.917969 350.9375 273.613281 359.652344 C 258.789062 364.769531 243.617188 367.945312 228.097656 370.03125 C 215.507812 371.746094 202.894531 371.769531 190.28125 372.589844 C 179.976562 373.261719 169.746094 372.589844 159.589844 372.066406 C 138.011719 371.023438 116.980469 367.078125 96.941406 358.1875 C 73.601562 347.859375 54.28125 332.339844 37.71875 313.417969 C 22.796875 296.382812 12.640625 276.445312 7.003906 254.417969 C 1.738281 233.984375 -0.046875 224.347656 0.347656 202.871094 Z M 0.347656 202.871094 "/></g><path style=" stroke:none;fill-rule:nonzero;fill:#fff789;fill-opacity:1;" d="M 166.46875 309.269531 C 158.375 309.320312 156.4375 307.605469 155.246094 300.355469 C 152.984375 286.625 152.4375 272.792969 153.160156 258.914062 C 153.359375 254.992188 153.976562 251.042969 153.109375 247.070312 C 152.5625 244.609375 153.929688 242.824219 156.039062 241.78125 C 157.605469 241.011719 159.144531 240.066406 161.03125 239.992188 C 164.828125 239.867188 168.429688 238.777344 171.929688 237.359375 C 176.226562 235.621094 180.84375 235.671875 185.289062 234.828125 C 187.128906 234.480469 188.367188 235.101562 189.261719 236.617188 C 190.578125 238.824219 191.746094 241.058594 192.292969 243.667969 C 195.71875 259.507812 198.375 275.550781 203.738281 290.945312 C 205.527344 296.085938 204.410156 297.5 199.023438 298.742188 C 193.957031 299.910156 189.261719 301.996094 184.695312 304.378906 C 178.609375 307.558594 172.054688 308.824219 166.492188 309.246094 Z M 166.46875 309.269531 "/><path style=" stroke:none;fill-rule:nonzero;fill:#fff789;fill-opacity:1;" d="M 270.507812 89.441406 C 270.507812 92.199219 270.808594 95.003906 270.410156 97.710938 C 270.113281 99.722656 269.515625 102.230469 266.660156 102.328125 C 264.203125 102.40625 263.433594 100.34375 262.664062 98.554688 C 259.113281 90.363281 256.878906 81.769531 255.386719 73.003906 C 254.765625 69.304688 254.320312 65.582031 254.097656 61.832031 C 253.75 56.144531 254.992188 54.234375 259.136719 53.3125 C 262.589844 52.570312 263.953125 53.761719 265.914062 59.769531 C 269.09375 69.402344 270.433594 79.363281 270.507812 89.46875 Z M 270.507812 89.441406 "/><path style=" stroke:none;fill-rule:nonzero;fill:#fefefe;fill-opacity:1;" d="M 186.011719 225.019531 C 186.035156 230.953125 185.390625 231.402344 179.332031 232.195312 C 172.898438 233.039062 166.46875 233.957031 160.410156 236.664062 C 156.289062 238.503906 150.699219 235.847656 149.410156 231.722656 C 148.292969 228.171875 151.570312 223.851562 155.839844 222.511719 C 160.65625 220.996094 165.300781 219.011719 170.042969 217.246094 C 171.335938 216.75 172.601562 216.03125 173.917969 215.832031 C 184.046875 214.21875 185.960938 216.925781 186.035156 225.019531 Z M 186.011719 225.019531 "/><path style=" stroke:none;fill-rule:nonzero;fill:#fefefe;fill-opacity:1;" d="M 104.167969 180.796875 C 104.367188 177.941406 104.539062 173.519531 108.066406 171.683594 C 111.941406 169.648438 116.210938 167.660156 120.828125 167.785156 C 125.222656 167.933594 128.128906 171.085938 128.152344 175.554688 C 128.152344 178.710938 128.003906 181.914062 127.484375 185.015625 C 126.464844 191.101562 121.101562 194.925781 114.917969 194.328125 C 108.164062 193.65625 104.144531 188.964844 104.144531 180.796875 Z M 104.167969 180.796875 "/><path style=" stroke:none;fill-rule:nonzero;fill:#fff789;fill-opacity:1;" d="M 345.746094 47.453125 C 346.542969 52.121094 344.207031 56.742188 343.363281 61.558594 C 342.371094 67.195312 340.832031 72.730469 339.464844 78.292969 C 339.191406 79.4375 338.792969 80.628906 338.097656 81.546875 C 336.4375 83.757812 333.53125 83.335938 332.386719 80.828125 C 331.792969 79.511719 331.84375 78.121094 331.917969 76.730469 C 332.835938 61.507812 334.871094 46.4375 337.179688 31.386719 C 337.429688 29.75 337.628906 28.136719 339.664062 27.960938 C 341.601562 27.789062 342.496094 29.179688 343.015625 30.742188 C 344.753906 36.03125 345.871094 41.445312 345.722656 47.453125 Z M 345.746094 47.453125 "/><path style=" stroke:none;fill-rule:nonzero;fill:#fefefe;fill-opacity:1;" d="M 213.871094 165.824219 C 213.871094 171.535156 210.417969 175.953125 204.308594 178.015625 C 199.667969 179.578125 195.519531 178.0625 191.917969 173.347656 C 190.605469 171.609375 188.269531 169.375 189.015625 167.734375 C 191.050781 163.238281 191.917969 157.902344 196.464844 154.847656 C 199.988281 152.464844 203.640625 153.035156 207.191406 154.773438 C 211.734375 157.007812 213.921875 160.730469 213.871094 165.796875 Z M 213.871094 165.824219 "/><path style=" stroke:none;fill-rule:nonzero;fill:#fff789;fill-opacity:1;" d="M 308.949219 61.980469 C 308.898438 66.003906 308.722656 69.527344 307.980469 73.03125 C 307.085938 77.25 305.945312 81.472656 306.390625 85.867188 C 306.488281 86.8125 306.242188 87.855469 305.894531 88.746094 C 305.445312 89.914062 304.453125 90.609375 303.164062 90.710938 C 301.871094 90.785156 300.902344 90.210938 300.308594 89.019531 C 300.132812 88.671875 299.882812 88.324219 299.835938 87.929688 C 297.996094 74.816406 293.503906 61.878906 297.253906 48.398438 C 297.527344 47.453125 297.648438 46.4375 298.046875 45.566406 C 299.066406 43.355469 301.199219 42.613281 302.789062 44.25 C 305.199219 46.734375 307.953125 48.96875 308.300781 52.992188 C 308.574219 56.144531 308.800781 59.273438 308.921875 61.953125 Z M 308.949219 61.980469 "/><path style=" stroke:none;fill-rule:nonzero;fill:#ffab94;fill-opacity:1;" d="M 241.90625 212.902344 C 243.171875 204.460938 244.460938 195.894531 245.777344 187.328125 C 246.027344 185.785156 247.042969 184.695312 248.585938 184.792969 C 250.371094 184.894531 251.515625 186.234375 251.390625 187.996094 C 251.191406 191.324219 250.746094 194.675781 250.296875 197.980469 C 249.625 202.871094 248.855469 207.738281 248.085938 212.605469 C 247.9375 213.574219 247.8125 214.566406 247.492188 215.484375 C 246.996094 216.898438 245.976562 217.820312 244.363281 217.644531 C 242.699219 217.472656 242.054688 216.328125 241.90625 214.8125 C 241.855469 214.21875 241.90625 213.621094 241.90625 212.902344 Z M 241.90625 212.902344 "/><path style=" stroke:none;fill-rule:nonzero;fill:#ffab94;fill-opacity:1;" d="M 88.449219 241.332031 C 86.933594 241.109375 86.140625 240.117188 86.015625 238.578125 C 85.867188 236.914062 86.761719 235.546875 87.429688 234.132812 C 90.410156 227.925781 93.414062 221.742188 96.445312 215.535156 C 96.792969 214.839844 97.089844 214.070312 97.5625 213.472656 C 98.332031 212.503906 99.351562 211.808594 100.640625 212.28125 C 102.082031 212.800781 102.800781 213.96875 102.578125 215.535156 C 102.503906 216.105469 102.28125 216.675781 102.03125 217.199219 C 98.730469 224.347656 95.453125 231.5 92.125 238.625 C 91.429688 240.117188 90.386719 241.257812 88.472656 241.332031 Z M 88.449219 241.332031 "/><path style=" stroke:none;fill-rule:nonzero;fill:#ffab94;fill-opacity:1;" d="M 230.730469 204.980469 C 230.210938 208.109375 229.785156 211.238281 229.140625 214.34375 C 228.769531 216.105469 227.527344 217.074219 225.617188 216.625 C 224 216.253906 223.28125 214.964844 223.457031 213.523438 C 223.925781 209.796875 224.597656 206.097656 225.21875 202.398438 C 225.515625 200.609375 226.507812 199.445312 228.445312 199.667969 C 230.53125 199.890625 230.707031 201.53125 230.679688 203.191406 C 230.679688 203.789062 230.605469 204.386719 230.558594 204.980469 C 230.605469 204.980469 230.65625 204.980469 230.707031 204.980469 Z M 230.730469 204.980469 "/><path style=" stroke:none;fill-rule:nonzero;fill:#ffab94;fill-opacity:1;" d="M 259.78125 201.53125 C 259.980469 198.375 260.628906 195.296875 261.59375 192.316406 C 262.140625 190.628906 263.457031 189.710938 265.269531 190.230469 C 266.808594 190.679688 267.332031 192.019531 267.109375 193.507812 C 266.6875 196.414062 266.238281 199.320312 265.691406 202.199219 C 265.296875 204.335938 264.898438 206.941406 261.917969 206.371094 C 259.433594 205.898438 259.757812 203.464844 259.808594 201.503906 Z M 259.78125 201.53125 "/><path style=" stroke:none;fill-rule:nonzero;fill:#ffab94;fill-opacity:1;" d="M 78.964844 221.914062 C 77.300781 225.714844 75.464844 229.835938 72.085938 232.964844 C 71.367188 233.636719 70.175781 233.488281 69.304688 232.941406 C 68.1875 232.21875 67.765625 231.054688 68.210938 229.863281 C 69.601562 226.160156 71.863281 222.910156 74.195312 219.753906 C 74.941406 218.738281 76.234375 218.589844 77.425781 219.160156 C 78.394531 219.605469 78.863281 220.449219 78.964844 221.914062 Z M 78.964844 221.914062 "/><path style=" stroke:none;fill-rule:nonzero;fill:#ffab94;fill-opacity:1;" d="M 114.023438 220.203125 C 116.011719 220.152344 117.5 222.015625 116.78125 223.976562 C 115.640625 227.128906 114.125 230.160156 112.660156 233.1875 C 112.089844 234.40625 110.871094 234.726562 109.605469 234.53125 C 108.265625 234.304688 107.394531 233.3125 107.570312 232.023438 C 108.117188 227.800781 110.050781 224.152344 112.585938 220.796875 C 112.882812 220.402344 113.628906 220.328125 114.023438 220.175781 Z M 114.023438 220.203125 "/><path style=" stroke:none;fill-rule:nonzero;fill:#fff789;fill-opacity:1;" d="M 337.703125 111.988281 C 335.070312 112.039062 332.488281 109.929688 332.460938 107.941406 C 332.460938 105.582031 334.648438 103.398438 336.957031 103.449219 C 339.140625 103.496094 340.832031 105.410156 340.632812 107.867188 C 340.457031 109.828125 340.035156 111.839844 337.703125 111.964844 Z M 337.703125 111.988281 "/><path style=" stroke:none;fill-rule:nonzero;fill:#fff789;fill-opacity:1;" d="M 275.179688 125 C 274.855469 126.6875 274.210938 128.328125 271.925781 128.304688 C 269.914062 128.277344 268.25 125.917969 268.523438 123.558594 C 268.746094 121.648438 269.589844 120.132812 271.777344 120.035156 C 273.589844 119.960938 275.300781 122.46875 275.179688 125 Z M 275.179688 125 "/><path style=" stroke:none;fill-rule:nonzero;fill:#fff789;fill-opacity:1;" d="M 308.847656 116.359375 C 308.601562 118.269531 307.582031 119.859375 305.472656 119.613281 C 303.238281 119.339844 302.09375 117.453125 302.144531 115.339844 C 302.195312 113.429688 303.757812 112.757812 305.546875 112.859375 C 307.679688 112.980469 308.722656 114.199219 308.824219 116.382812 Z M 308.847656 116.359375 "/><path style=" stroke:none;fill-rule:nonzero;fill:#000000;fill-opacity:1;" d="M 145.808594 225.765625 C 145.710938 219.285156 145.785156 219.132812 151.371094 217.519531 C 160.308594 214.914062 169.273438 212.378906 178.238281 209.796875 C 179.007812 209.574219 179.753906 209.328125 180.523438 209.175781 C 185.363281 208.285156 187.449219 209.5 188.765625 214.390625 C 191.722656 225.316406 194.527344 236.242188 197.40625 247.195312 C 201.332031 262.167969 205.230469 277.140625 209.152344 292.085938 C 209.449219 293.230469 209.847656 294.371094 210.023438 295.539062 C 210.742188 300.828125 209.648438 302.367188 204.433594 303.261719 C 190.753906 305.644531 177.070312 307.953125 163.390625 310.289062 C 162.222656 310.488281 161.03125 310.5625 159.839844 310.761719 C 156.859375 311.234375 155.367188 309.941406 155.019531 306.988281 C 154.425781 301.871094 153.730469 296.757812 153.132812 291.617188 C 150.726562 270.535156 148.339844 249.429688 145.984375 228.320312 C 145.859375 227.128906 145.808594 225.9375 145.785156 225.691406 Z M 203.789062 296.90625 C 198.277344 275.898438 192.988281 255.710938 187.597656 235.101562 C 175.953125 237.832031 165.078125 240.363281 154.078125 242.949219 C 156.460938 263.707031 158.746094 283.71875 161.078125 304.15625 C 175.554688 301.699219 189.1875 299.386719 203.789062 296.90625 Z M 153.40625 236.390625 C 164.582031 233.835938 175.035156 231.425781 185.910156 228.917969 C 184.644531 224.101562 183.578125 219.953125 182.359375 215.285156 C 171.929688 218.289062 162 221.144531 152.015625 224.027344 C 152.488281 228.222656 152.886719 231.722656 153.40625 236.390625 Z M 153.40625 236.390625 "/><path style=" stroke:none;fill-rule:nonzero;fill:#000000;fill-opacity:1;" d="M 327.347656 60.9375 C 327.820312 51.5 328.9375 42.289062 332.3125 33.472656 C 333.234375 31.089844 334.398438 28.757812 335.714844 26.570312 C 337.207031 24.113281 339.316406 22.152344 342.46875 22.597656 C 345.574219 23.042969 347.113281 25.429688 348.082031 28.160156 C 348.675781 29.824219 349.175781 31.5625 349.398438 33.324219 C 351.929688 52.992188 348.230469 71.539062 339.140625 89.09375 C 338.222656 90.882812 337.207031 92.769531 334.773438 92.371094 C 332.113281 91.925781 330.726562 90.1875 330.425781 87.480469 C 329.433594 78.640625 328.390625 69.800781 327.371094 60.960938 Z M 341.601562 30.097656 C 332.5625 46.113281 332.785156 63.023438 335.914062 80.28125 C 343.117188 64.164062 346.242188 47.554688 341.601562 30.097656 Z M 341.601562 30.097656 "/><path style=" stroke:none;fill-rule:nonzero;fill:#000000;fill-opacity:1;" d="M 275.949219 83.582031 C 274.878906 90.808594 273.960938 98.058594 272.621094 105.234375 C 272.296875 106.898438 270.855469 108.933594 269.390625 109.679688 C 267.132812 110.820312 265.195312 109.035156 264.003906 107.148438 C 254.59375 92.347656 247.714844 76.804688 250.472656 58.601562 C 250.84375 56.121094 251.613281 53.539062 252.78125 51.328125 C 255.261719 46.683594 259.808594 45.664062 263.605469 49.191406 C 266.289062 51.675781 268.472656 54.902344 270.1875 58.179688 C 273.789062 65.132812 275.476562 74.445312 275.972656 83.582031 Z M 266.785156 100.21875 C 272.421875 84.054688 268.25 60.09375 258.9375 54.109375 C 251.789062 63.023438 257.894531 88.203125 266.785156 100.21875 Z M 266.785156 100.21875 "/><path style=" stroke:none;fill-rule:nonzero;fill:#000000;fill-opacity:1;" d="M 291.589844 62.03125 C 292.210938 57.3125 292.632812 52.570312 293.527344 47.925781 C 294 45.441406 294.96875 42.933594 296.285156 40.773438 C 299.3125 35.734375 304.402344 35.484375 307.855469 40.300781 C 309.417969 42.511719 310.539062 45.167969 311.257812 47.800781 C 313.988281 57.734375 314.089844 67.863281 311.925781 77.871094 C 310.460938 84.625 308.226562 91.230469 306.042969 97.8125 C 305.570312 99.277344 303.90625 100.34375 302.789062 101.585938 C 301.648438 100.417969 299.933594 99.425781 299.414062 98.035156 C 295.167969 86.4375 291.988281 74.59375 291.617188 62.054688 Z M 302.34375 87.507812 C 308.921875 73.898438 308.699219 51.476562 302.144531 43.953125 C 296.605469 52.097656 296.605469 72.929688 302.34375 87.507812 Z M 302.34375 87.507812 "/><path style=" stroke:none;fill-rule:nonzero;fill:#000000;fill-opacity:1;" d="M 116.1875 162.542969 C 126.988281 162.421875 135.429688 170.765625 135.453125 181.539062 C 135.480469 192.042969 127.234375 200.488281 116.832031 200.660156 C 106.226562 200.835938 97.5625 192.21875 97.5625 181.539062 C 97.5625 170.863281 105.609375 162.644531 116.1875 162.542969 Z M 116.683594 194.082031 C 123.609375 193.980469 129.074219 188.445312 129.097656 181.589844 C 129.097656 174.761719 123.558594 169.125 116.707031 169.050781 C 109.753906 168.953125 103.820312 174.984375 103.992188 181.9375 C 104.167969 188.839844 109.753906 194.203125 116.683594 194.105469 Z M 116.683594 194.082031 "/><path style=" stroke:none;fill-rule:nonzero;fill:#000000;fill-opacity:1;" d="M 202.96875 184.273438 C 192.839844 184.347656 184.84375 176.449219 184.84375 166.292969 C 184.84375 155.964844 192.515625 148.265625 202.820312 148.265625 C 212.53125 148.265625 220.550781 156.164062 220.75 165.898438 C 220.972656 176.003906 213.050781 184.171875 202.996094 184.246094 Z M 214.492188 165.996094 C 214.34375 159.664062 208.679688 154.425781 202.347656 154.699219 C 196.316406 154.972656 191.101562 160.382812 191.125 166.34375 C 191.125 172.699219 196.613281 178.0625 202.945312 177.941406 C 209.203125 177.816406 214.640625 172.179688 214.492188 165.972656 Z M 214.492188 165.996094 "/><path style=" stroke:none;fill-rule:nonzero;fill:#000000;fill-opacity:1;" d="M 335.070312 211.414062 C 335.394531 208.359375 335.789062 205.304688 335.988281 202.226562 C 336.0625 201.28125 335.269531 200.1875 335.515625 199.34375 C 335.914062 198.003906 336.660156 196.042969 337.628906 195.792969 C 338.644531 195.546875 340.582031 196.710938 341.253906 197.78125 C 343.785156 201.925781 342.023438 212.976562 338.570312 216.304688 C 335.742188 219.035156 332.066406 219.234375 329.011719 216.253906 C 323.773438 211.140625 321.761719 204.558594 321.761719 197.433594 C 321.761719 196.289062 323.175781 194.453125 324.269531 194.15625 C 326.15625 193.65625 326.703125 195.472656 327.074219 197.132812 C 327.84375 200.386719 328.5625 203.691406 329.730469 206.820312 C 330.425781 208.679688 331.941406 210.246094 333.082031 211.933594 C 333.753906 211.761719 334.398438 211.5625 335.070312 211.386719 Z M 335.070312 211.414062 "/><path style=" stroke:none;fill-rule:nonzero;fill:#000000;fill-opacity:1;" d="M 57.164062 164.855469 C 56.742188 170.738281 55.175781 175.058594 51.402344 178.015625 C 49.835938 179.230469 47.402344 180.027344 45.417969 179.925781 C 39.011719 179.578125 32.480469 170.367188 34.144531 164.160156 C 34.46875 162.96875 36.054688 161.503906 37.222656 161.328125 C 39.136719 161.03125 39.457031 162.84375 39.804688 164.554688 C 40.253906 166.839844 40.773438 169.273438 42.015625 171.160156 C 44.597656 175.058594 47.578125 174.738281 49.5625 170.539062 C 50.308594 168.953125 50.53125 167.136719 50.929688 165.425781 C 51.351562 163.664062 51.800781 161.351562 54.007812 161.875 C 55.449219 162.222656 56.492188 164.207031 57.1875 164.902344 Z M 57.164062 164.855469 "/><path style=" stroke:none;fill-rule:nonzero;fill:#000000;fill-opacity:1;" d="M 279.921875 125.074219 C 279.796875 129.890625 276.246094 133.492188 271.703125 133.367188 C 266.636719 133.246094 262.960938 128.847656 263.234375 123.238281 C 263.457031 118.394531 266.511719 115.191406 270.90625 115.191406 C 275.75 115.191406 280.042969 119.910156 279.921875 125.074219 Z M 272.519531 126.9375 C 274.011719 125.050781 273.960938 123.335938 271.925781 122.09375 C 271.527344 121.847656 269.964844 122.566406 269.789062 123.089844 C 269.144531 125.273438 269.789062 126.863281 272.519531 126.9375 Z M 272.519531 126.9375 "/><path style=" stroke:none;fill-rule:nonzero;fill:#000000;fill-opacity:1;" d="M 344.65625 108.390625 C 344.605469 113.40625 341.453125 116.535156 336.511719 116.457031 C 331.296875 116.382812 328.117188 112.660156 328.019531 107.148438 C 327.917969 102.207031 331.644531 100.367188 336.957031 99.796875 C 341.378906 99.324219 344.703125 103.371094 344.679688 108.390625 Z M 339.414062 108.488281 C 338.398438 107.269531 337.726562 106.476562 337.054688 105.65625 C 336.136719 106.5 335.21875 107.347656 334.300781 108.191406 C 335.046875 108.933594 335.691406 110.152344 336.535156 110.300781 C 337.253906 110.425781 338.175781 109.308594 339.414062 108.488281 Z M 339.414062 108.488281 "/><path style=" stroke:none;fill-rule:nonzero;fill:#000000;fill-opacity:1;" d="M 292.558594 269.417969 C 295.539062 268.449219 296.109375 265.816406 297.351562 263.605469 C 297.972656 262.515625 299.734375 262.09375 301.003906 261.371094 C 301.648438 262.6875 302.816406 263.980469 302.789062 265.269531 C 302.714844 269.242188 298.417969 274.210938 294.59375 275.375 C 291.816406 276.222656 289.480469 275.328125 287.570312 273.390625 C 283.746094 269.542969 282.203125 264.675781 281.980469 259.386719 C 281.90625 257.574219 282.429688 255.609375 284.738281 255.511719 C 287.121094 255.386719 287.445312 257.226562 287.691406 259.136719 C 288.1875 263.085938 288.960938 266.957031 292.535156 269.417969 Z M 292.558594 269.417969 "/><path style=" stroke:none;fill-rule:nonzero;fill:#000000;fill-opacity:1;" d="M 124.527344 144.019531 C 115.738281 142.207031 107.816406 140.667969 99.996094 138.804688 C 98.929688 138.558594 97.5625 136.671875 97.511719 135.480469 C 97.4375 133.417969 99.203125 132.324219 101.210938 132.746094 C 109.308594 134.386719 117.402344 136.074219 125.421875 138.035156 C 126.441406 138.285156 127.929688 140.644531 127.632812 141.414062 C 127.136719 142.65625 125.347656 143.398438 124.527344 144.046875 Z M 124.527344 144.019531 "/><path style=" stroke:none;fill-rule:nonzero;fill:#000000;fill-opacity:1;" d="M 312.546875 116.65625 C 312.5 120.679688 309.171875 123.785156 304.800781 123.859375 C 300.65625 123.933594 297.078125 120.308594 296.980469 115.9375 C 296.90625 112.289062 301.273438 108.5625 305.472656 108.738281 C 309.46875 108.910156 312.597656 112.410156 312.546875 116.65625 Z M 307.183594 116.582031 C 306.117188 115.640625 305.546875 114.84375 304.851562 114.644531 C 304.453125 114.546875 303.78125 115.441406 303.238281 115.886719 C 303.78125 116.507812 304.230469 117.351562 304.925781 117.675781 C 305.296875 117.847656 306.09375 117.152344 307.210938 116.582031 Z M 307.183594 116.582031 "/><path style=" stroke:none;fill-rule:nonzero;fill:#000000;fill-opacity:1;" d="M 202.148438 115.539062 C 201.058594 116.90625 200.460938 117.921875 199.617188 118.667969 C 194.652344 123.164062 189.609375 127.632812 184.621094 132.078125 C 183.082031 133.441406 181.390625 134.832031 179.554688 132.773438 C 178.140625 131.160156 178.757812 129.320312 180.199219 128.03125 C 185.488281 123.3125 190.878906 118.644531 196.289062 114.050781 C 196.984375 113.453125 198.226562 112.933594 198.972656 113.15625 C 200.089844 113.503906 200.957031 114.570312 202.148438 115.515625 Z M 202.148438 115.539062 "/></g></svg>