<svg xmlns="http://www.w3.org/2000/svg" xmlns:xlink="http://www.w3.org/1999/xlink" width="500" zoomAndPan="magnify" viewBox="0 0 375 374.999991" height="500" preserveAspectRatio="xMidYMid meet" version="1.2"><defs><clipPath id="4e5c1e76d3"><path d="M 0 7.03125 L 374 7.03125 L 374 367.78125 L 0 367.78125 Z M 0 7.03125 "/></clipPath></defs><g id="f8d88e302a"><g clip-rule="nonzero" clip-path="url(#4e5c1e76d3)"><path style=" stroke:none;fill-rule:nonzero;fill:#c2fcf7;fill-opacity:1;" d="M 373.585938 196.730469 C 374.652344 221.214844 370.824219 244.03125 362.59375 266.042969 C 354.285156 288.261719 341.054688 307.039062 322.558594 322.148438 C 299.820312 340.667969 273.410156 351.265625 245.488281 358.796875 C 232.253906 362.363281 218.683594 364.03125 205.191406 366.167969 C 201.519531 366.738281 197.71875 366.324219 193.964844 366.425781 C 190.035156 366.53125 186.074219 366.035156 182.191406 367.363281 C 181.253906 367.675781 180.082031 367.730469 179.09375 367.496094 C 171.28125 365.644531 163.308594 367.027344 155.496094 366.296875 C 134.164062 364.316406 113.273438 360.617188 93.425781 351.945312 C 69.4375 341.449219 51.152344 324.59375 36.070312 303.601562 C 20.960938 282.554688 10.519531 259.476562 4.632812 234.289062 C 2.835938 226.632812 1.792969 218.871094 1.089844 210.980469 C 0.464844 203.710938 0.0195312 196.496094 0.125 189.230469 C 0.359375 170.890625 3.121094 152.945312 8.09375 135.285156 C 13.511719 116.117188 21.71875 98.300781 33.414062 82.125 C 36.589844 77.75 39.847656 73.449219 43.675781 69.621094 C 54.695312 58.605469 65.503906 47.457031 78.96875 39.121094 C 100.824219 25.601562 124.34375 16.746094 149.320312 11.40625 C 165.054688 8.074219 180.96875 7.058594 196.988281 7.761719 C 206.105469 8.175781 215.089844 9.949219 223.972656 11.796875 C 237.179688 14.558594 250.175781 18.101562 262.914062 22.605469 C 284.792969 30.316406 304.613281 41.335938 320.320312 58.761719 C 329.929688 69.414062 338.214844 81.160156 345.742188 93.351562 C 356.5 110.800781 364.703125 129.375 369.027344 149.507812 C 372.441406 165.398438 374.652344 181.363281 373.585938 196.730469 Z M 373.585938 196.730469 "/></g><path style=" stroke:none;fill-rule:nonzero;fill:#fff789;fill-opacity:1;" d="M 150.859375 283.414062 C 155.9375 278.933594 161.667969 275.730469 168.152344 273.855469 C 168.933594 273.621094 169.847656 273.386719 170.367188 272.867188 C 177.375 265.78125 186.882812 264.609375 195.816406 262.1875 C 200.738281 260.859375 205.894531 264.167969 206.234375 269.0625 C 206.808594 277.582031 206.730469 286.046875 202.535156 293.964844 C 198.757812 301.101562 195.683594 303.054688 187.664062 302.507812 C 186.621094 302.429688 185.605469 302.324219 184.589844 302.117188 C 180.96875 301.335938 177.503906 298.546875 173.960938 299.226562 C 170.472656 299.902344 167.476562 302.429688 163.648438 303.082031 C 160.3125 303.628906 158.515625 307.117188 156.5625 309.773438 C 154.347656 312.769531 152.527344 316.078125 149.660156 318.550781 C 145.832031 321.886719 141.300781 322.746094 137.808594 319.332031 C 129.003906 310.738281 120.722656 301.597656 121.269531 287.972656 C 121.660156 278.492188 128.746094 273.492188 137.964844 275.914062 C 142.941406 277.214844 146.691406 280.472656 150.859375 283.390625 Z M 150.859375 283.414062 "/><path style=" stroke:none;fill-rule:nonzero;fill:#fff789;fill-opacity:1;" d="M 260.125 72.667969 C 261.453125 72.722656 262.625 73.292969 263.382812 74.285156 C 267.105469 78.972656 272.289062 81.605469 277.628906 83.6875 C 280.675781 84.886719 280.753906 86.5 279.921875 88.921875 C 277.96875 94.628906 276.820312 100.488281 276.195312 106.453125 C 275.960938 108.71875 274.894531 110.410156 272.730469 111.167969 C 270.855469 111.816406 269.527344 110.515625 268.488281 109.238281 C 264.710938 104.628906 259.8125 101.765625 254.472656 99.261719 C 249.472656 96.945312 249.34375 95.539062 253.015625 91.65625 C 255.488281 89.054688 256.453125 86.136719 256.21875 82.621094 C 256.0625 80.351562 256.035156 78.0625 256.21875 75.796875 C 256.402344 73.527344 257.964844 72.667969 260.097656 72.695312 Z M 260.125 72.667969 "/><path style=" stroke:none;fill-rule:nonzero;fill:#000000;fill-opacity:1;" d="M 130.386719 171.597656 C 136.84375 169.277344 142.863281 167.140625 149.113281 164.902344 C 145.441406 135.46875 154.765625 112.910156 183.105469 101.609375 C 204.097656 93.246094 228.035156 99.523438 242.050781 116.84375 C 260.882812 140.132812 259.160156 164.171875 241.683594 188.292969 C 257.78125 188.839844 269.292969 197.617188 280.234375 207.332031 C 292.632812 218.324219 302.789062 231.242188 311.359375 245.386719 C 312.664062 247.546875 315.085938 249.972656 311.855469 252.417969 C 309.953125 253.878906 308.128906 252.785156 305.734375 248.902344 C 297.945312 236.246094 289.117188 224.367188 278.019531 214.496094 C 271.847656 209 264.96875 204.234375 258.042969 199.675781 C 254.839844 197.566406 250.851562 196.339844 247.050781 195.480469 C 239.730469 193.839844 234.496094 197.382812 233.792969 204.832031 C 233.296875 209.9375 233.558594 215.300781 234.625 220.277344 C 238.167969 236.84375 246.371094 251.300781 255.800781 265.15625 C 256.84375 266.691406 258.144531 268.203125 258.667969 269.921875 C 259.003906 271.015625 258.457031 273.046875 257.625 273.621094 C 256.765625 274.195312 254.996094 273.648438 253.71875 273.257812 C 253.039062 273.046875 252.546875 272.109375 252.078125 271.460938 C 241.605469 256.796875 232.855469 241.269531 228.453125 223.613281 C 226.679688 216.5 225.5625 209.3125 227.332031 201.992188 C 227.515625 201.238281 227.332031 200.378906 227.332031 199.023438 C 212.667969 206.082031 197.925781 207.515625 182.894531 201.886719 C 168.050781 196.339844 157.867188 185.84375 151.511719 170.890625 C 144.6875 173.183594 138.097656 175.425781 130.957031 177.820312 C 131.191406 195.664062 125.4375 211.160156 111.03125 222.671875 C 100.300781 231.242188 87.980469 234.679688 74.308594 233.925781 C 49.5625 232.570312 28.648438 211.863281 26.25 186.15625 C 23.855469 160.371094 41.148438 136.875 66.726562 130.625 C 87.617188 125.519531 119.757812 134.714844 130.332031 171.570312 Z M 154.871094 151.566406 C 154.792969 177.535156 175.578125 198.605469 201.414062 198.761719 C 227.148438 198.917969 248.457031 177.847656 248.613281 152.085938 C 248.769531 126.195312 227.90625 105.097656 202.015625 104.941406 C 176.28125 104.785156 154.972656 125.855469 154.871094 151.539062 Z M 124.082031 181.625 C 124.003906 156.253906 103.84375 136.277344 78.34375 136.328125 C 53.207031 136.378906 32.839844 156.90625 32.890625 182.117188 C 32.945312 207.175781 53.625 227.621094 78.761719 227.519531 C 103.871094 227.414062 124.160156 206.863281 124.054688 181.597656 Z M 124.082031 181.625 "/><path style=" stroke:none;fill-rule:nonzero;fill:#000000;fill-opacity:1;" d="M 175.5 303.105469 C 169.402344 305.789062 164.558594 307.925781 159.714844 310.035156 L 159.246094 309.125 C 157.371094 311.832031 155.675781 314.722656 153.566406 317.222656 C 146.351562 325.714844 136.53125 326.132812 129.449219 317.691406 C 121.0625 307.71875 117.597656 295.789062 118.847656 282.816406 C 119.550781 275.550781 125.75 271.433594 133.460938 272.996094 C 138.902344 274.117188 144.164062 276.226562 150.078125 278.050781 C 154.191406 275.417969 158.933594 272.476562 164.871094 272.371094 C 166.175781 272.371094 167.554688 270.730469 168.699219 269.664062 C 176.226562 262.578125 185.109375 258.359375 195.320312 257.160156 C 203.628906 256.195312 208.34375 259.789062 209.984375 268.023438 C 211.652344 276.277344 211.546875 284.585938 209.855469 292.816406 C 208.136719 301.179688 204.464844 304.695312 196.023438 305.503906 C 192.351562 305.867188 188.546875 305.582031 184.875 305.113281 C 181.386719 304.667969 178 303.652344 175.5 303.082031 Z M 175.578125 295.605469 C 181.957031 298.367188 188.054688 299.355469 194.382812 298.964844 C 200.296875 298.601562 202.09375 297.21875 203.316406 291.4375 C 204.800781 284.457031 204.800781 277.398438 203.65625 270.339844 C 202.691406 264.425781 200.765625 262.941406 194.695312 263.75 C 187.53125 264.6875 181.125 267.605469 175.394531 271.929688 C 171.046875 275.210938 170.003906 277.738281 174.585938 282.6875 C 177.113281 282.113281 179.71875 281.4375 182.347656 280.914062 C 184.433594 280.496094 186.828125 280.160156 187.53125 282.789062 C 188.289062 285.601562 185.945312 286.175781 183.886719 286.722656 C 180.941406 287.53125 178 288.390625 174.953125 289.277344 C 175.1875 291.644531 175.394531 293.46875 175.601562 295.605469 Z M 153.566406 304.851562 C 151.925781 301.726562 150.519531 299.042969 148.851562 295.890625 C 146.066406 297.609375 143.746094 298.9375 141.558594 300.398438 C 139.917969 301.492188 138.121094 302.585938 136.609375 300.710938 C 134.945312 298.652344 136.195312 296.621094 137.992188 295.398438 C 140.542969 293.652344 143.355469 292.296875 146.039062 290.734375 C 146.535156 290.449219 146.953125 289.980469 147.578125 289.433594 C 147.445312 287.660156 147.289062 285.835938 147.132812 283.597656 C 142.261719 282.0625 137.601562 280.210938 132.757812 279.144531 C 128.121094 278.101562 125.152344 280.289062 125.074219 284.847656 C 124.890625 295.34375 127.703125 305.058594 134.421875 313.238281 C 138.566406 318.292969 144.035156 318.109375 148.28125 313.082031 C 150.390625 310.582031 151.847656 307.5625 153.566406 304.851562 Z M 169.351562 293.730469 C 168.492188 289.902344 167.683594 286.070312 166.746094 282.269531 C 166.019531 279.324219 164.195312 278.335938 161.148438 279.167969 C 154.402344 281.019531 152.34375 284.351562 154.324219 291.152344 C 155.078125 293.703125 156.199219 296.203125 157.476562 298.546875 C 160.078125 303.367188 161.695312 303.550781 166.277344 300.761719 C 169.195312 299.015625 169.273438 296.59375 169.324219 293.703125 Z M 169.351562 293.730469 "/><path style=" stroke:none;fill-rule:nonzero;fill:#000000;fill-opacity:1;" d="M 276.144531 123.539062 C 274.269531 122.027344 272.886719 121.195312 271.820312 120.023438 C 269.425781 117.417969 267.289062 114.605469 264.890625 112 C 260.28125 106.972656 254.863281 103.429688 248.015625 102 C 242.285156 100.800781 241.425781 98.144531 245.433594 93.976562 C 252.46875 86.65625 254.917969 78.0625 253.378906 68.1875 C 253.273438 67.5625 252.910156 66.859375 253.09375 66.367188 C 253.535156 65.089844 254.058594 63.058594 254.863281 62.902344 C 256.191406 62.667969 258.457031 63.1875 259.109375 64.179688 C 265.203125 73.554688 274.503906 77.773438 284.714844 80.769531 C 290.367188 82.410156 290.417969 83.480469 287.058594 88.507812 C 282.1875 95.773438 280.285156 104.054688 279.871094 112.703125 C 279.792969 114.578125 280.285156 116.585938 279.738281 118.277344 C 279.164062 120.023438 277.65625 121.457031 276.171875 123.539062 Z M 253.195312 97.023438 C 261.246094 99.082031 266.847656 104.992188 272.523438 110.4375 C 275.078125 102.023438 277.421875 94.367188 279.738281 86.761719 C 273.253906 83.296875 266.792969 79.859375 260.984375 76.785156 C 258.484375 83.296875 255.984375 89.78125 253.195312 97.023438 Z M 253.195312 97.023438 "/><path style=" stroke:none;fill-rule:nonzero;fill:#000000;fill-opacity:1;" d="M 138.746094 235.382812 C 136.324219 234.679688 131.742188 233.484375 127.285156 231.945312 C 125.28125 231.242188 123.484375 229.679688 124.578125 227.179688 C 125.644531 224.730469 127.730469 224.785156 129.8125 225.878906 C 143.695312 233.09375 158.046875 225.488281 165.730469 214.730469 C 166.566406 213.558594 167.347656 212.203125 168.492188 211.421875 C 169.351562 210.847656 171.175781 210.511719 171.800781 211.03125 C 172.710938 211.785156 173.15625 213.324219 173.414062 214.625 C 173.546875 215.277344 172.894531 216.160156 172.425781 216.839844 C 164.871094 227.910156 155 235.046875 138.722656 235.4375 Z M 138.746094 235.382812 "/><path style=" stroke:none;fill-rule:nonzero;fill:#000000;fill-opacity:1;" d="M 197.195312 148.308594 C 203.058594 155.421875 206.105469 162.816406 206.730469 171.125 C 206.910156 173.574219 206.78125 176.179688 206.128906 178.523438 C 204.878906 183.03125 200.6875 184.699219 196.804688 182.171875 C 194.617188 180.738281 192.714844 178.578125 191.308594 176.363281 C 187.53125 170.5 185.632812 163.9375 185.007812 156.984375 C 184.851562 155.265625 184.328125 153.390625 183.417969 151.929688 C 181.855469 149.378906 183.078125 147.972656 185.085938 146.902344 C 187.273438 145.730469 189.667969 144.921875 191.910156 143.804688 C 197.875 140.835938 203.785156 137.785156 209.726562 134.792969 C 210.84375 134.21875 211.914062 133.230469 213.058594 133.175781 C 214.28125 133.152344 215.898438 133.699219 216.679688 134.582031 C 217.175781 135.128906 216.863281 137.136719 216.210938 137.839844 C 214.960938 139.167969 213.320312 140.210938 211.679688 141.070312 C 207.09375 143.492188 202.40625 145.730469 197.222656 148.335938 Z M 197.195312 148.308594 "/><path style=" stroke:none;fill-rule:nonzero;fill:#000000;fill-opacity:1;" d="M 76.546875 173.707031 C 71.832031 173.289062 67.898438 172.925781 63.992188 172.585938 C 62.351562 172.429688 60.554688 172.585938 59.09375 171.988281 C 57.976562 171.542969 56.570312 170.109375 56.570312 169.121094 C 56.570312 168.210938 58.132812 166.804688 59.25 166.515625 C 60.996094 166.074219 62.949219 166.359375 64.824219 166.4375 C 72.691406 166.75 80.585938 167.117188 88.449219 167.429688 C 92.984375 167.609375 93.398438 168.234375 92.566406 172.480469 C 92.226562 174.175781 92.566406 176.023438 92.773438 177.796875 C 93.398438 183.550781 94.625 189.28125 94.648438 195.039062 C 94.703125 200.925781 92.042969 204.726562 88.738281 204.804688 C 83.890625 204.910156 81.730469 201.105469 80.636719 197.410156 C 78.8125 191.289062 77.824219 184.933594 76.597656 178.628906 C 76.339844 177.246094 76.546875 175.789062 76.546875 173.707031 Z M 76.546875 173.707031 "/></g></svg>