<svg xmlns="http://www.w3.org/2000/svg" xmlns:xlink="http://www.w3.org/1999/xlink" width="500" zoomAndPan="magnify" viewBox="0 0 375 374.999991" height="500" preserveAspectRatio="xMidYMid meet" version="1.0"><defs><clipPath id="8573d30dfe"><path d="M 112.5 115.3125 L 262.5 115.3125 L 262.5 260 L 112.5 260 Z M 112.5 115.3125 " clip-rule="nonzero"/></clipPath></defs><g clip-path="url(#8573d30dfe)"><path fill="#c2fcf7" d="M 262.011719 191.230469 C 262.441406 201.03125 260.90625 210.164062 257.613281 218.96875 C 254.289062 227.863281 248.992188 235.378906 241.589844 241.425781 C 232.492188 248.835938 221.921875 253.078125 210.746094 256.089844 C 205.449219 257.519531 200.019531 258.1875 194.621094 259.042969 C 193.148438 259.269531 191.628906 259.105469 190.125 259.144531 C 188.554688 259.1875 186.96875 258.988281 185.414062 259.519531 C 185.039062 259.644531 184.570312 259.667969 184.175781 259.574219 C 181.046875 258.832031 177.859375 259.386719 174.730469 259.09375 C 166.191406 258.300781 157.832031 256.820312 149.890625 253.347656 C 140.289062 249.148438 132.972656 242.402344 126.933594 234.003906 C 120.890625 225.578125 116.710938 216.34375 114.351562 206.261719 C 113.632812 203.199219 113.21875 200.09375 112.9375 196.933594 C 112.6875 194.027344 112.507812 191.136719 112.550781 188.230469 C 112.644531 180.890625 113.75 173.707031 115.738281 166.640625 C 117.90625 158.96875 121.191406 151.839844 125.871094 145.367188 C 127.144531 143.613281 128.445312 141.894531 129.980469 140.363281 C 134.390625 135.953125 138.714844 131.492188 144.105469 128.15625 C 152.851562 122.746094 162.261719 119.199219 172.261719 117.0625 C 178.554688 115.730469 184.925781 115.324219 191.335938 115.605469 C 194.984375 115.769531 198.582031 116.480469 202.136719 117.21875 C 207.421875 118.324219 212.621094 119.742188 217.71875 121.546875 C 226.476562 124.632812 234.410156 129.042969 240.695312 136.015625 C 244.542969 140.277344 247.855469 144.980469 250.867188 149.859375 C 255.175781 156.84375 258.457031 164.273438 260.1875 172.332031 C 261.554688 178.691406 262.441406 185.082031 262.011719 191.230469 Z M 262.011719 191.230469 " fill-opacity="1" fill-rule="nonzero"/></g><path fill="#fff789" d="M 172.875 225.921875 C 174.90625 224.128906 177.199219 222.847656 179.796875 222.097656 C 180.109375 222.003906 180.472656 221.910156 180.683594 221.703125 C 183.488281 218.867188 187.292969 218.398438 190.867188 217.429688 C 192.835938 216.894531 194.902344 218.21875 195.035156 220.179688 C 195.265625 223.589844 195.234375 226.976562 193.554688 230.144531 C 192.046875 233 190.816406 233.785156 187.605469 233.566406 C 187.1875 233.535156 186.78125 233.492188 186.375 233.40625 C 184.925781 233.09375 183.539062 231.980469 182.121094 232.25 C 180.722656 232.523438 179.527344 233.535156 177.992188 233.792969 C 176.660156 234.011719 175.941406 235.410156 175.15625 236.472656 C 174.273438 237.671875 173.542969 238.996094 172.394531 239.984375 C 170.863281 241.320312 169.050781 241.664062 167.652344 240.296875 C 164.128906 236.859375 160.8125 233.199219 161.03125 227.746094 C 161.1875 223.953125 164.023438 221.953125 167.714844 222.921875 C 169.707031 223.441406 171.207031 224.746094 172.875 225.914062 Z M 172.875 225.921875 " fill-opacity="1" fill-rule="nonzero"/><path fill="#fff789" d="M 216.605469 141.582031 C 217.136719 141.601562 217.605469 141.832031 217.90625 142.226562 C 219.398438 144.105469 221.472656 145.15625 223.609375 145.992188 C 224.828125 146.46875 224.859375 147.117188 224.527344 148.085938 C 223.746094 150.367188 223.285156 152.714844 223.035156 155.101562 C 222.941406 156.007812 222.515625 156.6875 221.648438 156.988281 C 220.898438 157.25 220.367188 156.726562 219.949219 156.21875 C 218.4375 154.371094 216.480469 153.226562 214.34375 152.222656 C 212.339844 151.296875 212.289062 150.734375 213.757812 149.179688 C 214.75 148.136719 215.132812 146.972656 215.039062 145.5625 C 214.976562 144.65625 214.96875 143.738281 215.039062 142.832031 C 215.113281 141.925781 215.738281 141.582031 216.59375 141.59375 Z M 216.605469 141.582031 " fill-opacity="1" fill-rule="nonzero"/><path fill="#000000" d="M 164.679688 181.171875 C 167.265625 180.246094 169.675781 179.390625 172.175781 178.492188 C 170.707031 166.714844 174.4375 157.6875 185.78125 153.164062 C 194.183594 149.816406 203.761719 152.328125 209.371094 159.261719 C 216.90625 168.582031 216.21875 178.203125 209.222656 187.855469 C 215.667969 188.074219 220.273438 191.585938 224.652344 195.472656 C 229.613281 199.875 233.679688 205.042969 237.109375 210.703125 C 237.628906 211.570312 238.597656 212.539062 237.308594 213.519531 C 236.546875 214.101562 235.816406 213.664062 234.855469 212.113281 C 231.742188 207.046875 228.207031 202.292969 223.765625 198.339844 C 221.296875 196.140625 218.542969 194.234375 215.769531 192.410156 C 214.488281 191.566406 212.894531 191.074219 211.371094 190.730469 C 208.441406 190.074219 206.347656 191.492188 206.066406 194.472656 C 205.867188 196.515625 205.972656 198.664062 206.398438 200.65625 C 207.816406 207.285156 211.101562 213.070312 214.875 218.617188 C 215.289062 219.230469 215.8125 219.835938 216.019531 220.523438 C 216.15625 220.960938 215.9375 221.773438 215.605469 222.003906 C 215.257812 222.234375 214.550781 222.015625 214.039062 221.859375 C 213.769531 221.773438 213.570312 221.398438 213.382812 221.140625 C 209.191406 215.269531 205.691406 209.058594 203.929688 201.988281 C 203.21875 199.144531 202.769531 196.265625 203.480469 193.335938 C 203.554688 193.035156 203.480469 192.691406 203.480469 192.148438 C 197.613281 194.972656 191.710938 195.546875 185.695312 193.296875 C 179.753906 191.074219 175.679688 186.875 173.136719 180.890625 C 170.40625 181.808594 167.765625 182.703125 164.910156 183.664062 C 165.003906 190.804688 162.699219 197.007812 156.9375 201.613281 C 152.640625 205.042969 147.710938 206.417969 142.238281 206.117188 C 132.335938 205.574219 123.964844 197.289062 123.003906 187 C 122.046875 176.679688 128.96875 167.277344 139.203125 164.773438 C 147.566406 162.730469 160.429688 166.410156 164.660156 181.160156 Z M 174.480469 173.15625 C 174.449219 183.550781 182.765625 191.980469 193.109375 192.046875 C 203.40625 192.109375 211.933594 183.675781 211.996094 173.363281 C 212.058594 163.003906 203.710938 154.558594 193.347656 154.496094 C 183.050781 154.433594 174.523438 162.867188 174.480469 173.144531 Z M 162.160156 185.1875 C 162.128906 175.03125 154.058594 167.039062 143.855469 167.058594 C 133.792969 167.078125 125.644531 175.292969 125.664062 185.382812 C 125.683594 195.410156 133.960938 203.59375 144.019531 203.554688 C 154.070312 203.511719 162.191406 195.285156 162.148438 185.175781 Z M 162.160156 185.1875 " fill-opacity="1" fill-rule="nonzero"/><path fill="#000000" d="M 182.734375 233.804688 C 180.296875 234.878906 178.359375 235.734375 176.417969 236.578125 L 176.230469 236.210938 C 175.480469 237.296875 174.804688 238.453125 173.957031 239.453125 C 171.070312 242.851562 167.140625 243.019531 164.304688 239.640625 C 160.949219 235.648438 159.5625 230.875 160.0625 225.683594 C 160.34375 222.777344 162.824219 221.128906 165.910156 221.753906 C 168.089844 222.203125 170.195312 223.046875 172.5625 223.777344 C 174.210938 222.722656 176.105469 221.546875 178.484375 221.503906 C 179.003906 221.503906 179.558594 220.847656 180.015625 220.417969 C 183.027344 217.585938 186.582031 215.894531 190.667969 215.414062 C 193.996094 215.03125 195.882812 216.46875 196.539062 219.761719 C 197.203125 223.066406 197.164062 226.394531 196.484375 229.6875 C 195.796875 233.03125 194.328125 234.441406 190.949219 234.761719 C 189.480469 234.910156 187.957031 234.792969 186.488281 234.605469 C 185.09375 234.429688 183.738281 234.023438 182.734375 233.792969 Z M 182.765625 230.800781 C 185.320312 231.90625 187.761719 232.304688 190.292969 232.148438 C 192.660156 232 193.378906 231.449219 193.871094 229.132812 C 194.464844 226.339844 194.464844 223.515625 194.003906 220.691406 C 193.617188 218.324219 192.847656 217.730469 190.417969 218.054688 C 187.550781 218.429688 184.988281 219.597656 182.695312 221.328125 C 180.953125 222.640625 180.535156 223.652344 182.371094 225.632812 C 183.382812 225.402344 184.425781 225.132812 185.476562 224.921875 C 186.3125 224.757812 187.269531 224.621094 187.550781 225.671875 C 187.855469 226.800781 186.917969 227.027344 186.09375 227.246094 C 184.914062 227.570312 183.738281 227.914062 182.515625 228.269531 C 182.609375 229.21875 182.695312 229.949219 182.777344 230.800781 Z M 173.957031 234.503906 C 173.300781 233.25 172.738281 232.179688 172.070312 230.917969 C 170.957031 231.605469 170.027344 232.136719 169.152344 232.71875 C 168.496094 233.15625 167.777344 233.597656 167.171875 232.84375 C 166.503906 232.023438 167.007812 231.207031 167.726562 230.71875 C 168.746094 230.019531 169.871094 229.476562 170.945312 228.851562 C 171.144531 228.738281 171.3125 228.550781 171.5625 228.332031 C 171.507812 227.621094 171.445312 226.894531 171.382812 225.996094 C 169.433594 225.382812 167.570312 224.640625 165.628906 224.214844 C 163.773438 223.796875 162.585938 224.671875 162.554688 226.496094 C 162.480469 230.699219 163.609375 234.585938 166.296875 237.859375 C 167.953125 239.882812 170.144531 239.808594 171.84375 237.796875 C 172.6875 236.796875 173.269531 235.585938 173.957031 234.503906 Z M 180.277344 230.050781 C 179.933594 228.519531 179.609375 226.988281 179.234375 225.464844 C 178.941406 224.285156 178.210938 223.890625 176.992188 224.222656 C 174.292969 224.964844 173.46875 226.296875 174.261719 229.019531 C 174.5625 230.042969 175.011719 231.042969 175.523438 231.980469 C 176.566406 233.910156 177.210938 233.980469 179.046875 232.867188 C 180.214844 232.167969 180.246094 231.199219 180.265625 230.042969 Z M 180.277344 230.050781 " fill-opacity="1" fill-rule="nonzero"/><path fill="#000000" d="M 223.015625 161.941406 C 222.265625 161.335938 221.710938 161 221.285156 160.53125 C 220.324219 159.488281 219.472656 158.363281 218.511719 157.320312 C 216.667969 155.308594 214.5 153.890625 211.757812 153.320312 C 209.464844 152.839844 209.121094 151.777344 210.726562 150.109375 C 213.539062 147.179688 214.519531 143.738281 213.90625 139.789062 C 213.863281 139.539062 213.71875 139.257812 213.789062 139.058594 C 213.96875 138.546875 214.175781 137.734375 214.5 137.671875 C 215.03125 137.578125 215.9375 137.785156 216.199219 138.183594 C 218.636719 141.9375 222.359375 143.625 226.445312 144.824219 C 228.707031 145.480469 228.726562 145.90625 227.382812 147.917969 C 225.433594 150.828125 224.671875 154.144531 224.503906 157.601562 C 224.472656 158.355469 224.671875 159.15625 224.453125 159.835938 C 224.222656 160.53125 223.621094 161.105469 223.027344 161.941406 Z M 213.832031 151.328125 C 217.050781 152.152344 219.292969 154.519531 221.566406 156.695312 C 222.585938 153.328125 223.527344 150.265625 224.453125 147.222656 C 221.859375 145.835938 219.273438 144.457031 216.949219 143.226562 C 215.949219 145.835938 214.945312 148.429688 213.832031 151.328125 Z M 213.832031 151.328125 " fill-opacity="1" fill-rule="nonzero"/><path fill="#000000" d="M 168.027344 206.703125 C 167.058594 206.417969 165.222656 205.941406 163.441406 205.324219 C 162.636719 205.042969 161.917969 204.417969 162.355469 203.417969 C 162.785156 202.4375 163.617188 202.457031 164.453125 202.898438 C 170.007812 205.785156 175.75 202.738281 178.828125 198.433594 C 179.160156 197.964844 179.472656 197.421875 179.933594 197.109375 C 180.277344 196.882812 181.003906 196.746094 181.257812 196.953125 C 181.621094 197.257812 181.796875 197.871094 181.902344 198.394531 C 181.953125 198.652344 181.695312 199.007812 181.507812 199.28125 C 178.484375 203.710938 174.53125 206.566406 168.015625 206.722656 Z M 168.027344 206.703125 " fill-opacity="1" fill-rule="nonzero"/><path fill="#000000" d="M 191.417969 171.851562 C 193.765625 174.699219 194.984375 177.660156 195.234375 180.984375 C 195.308594 181.964844 195.253906 183.007812 194.996094 183.945312 C 194.496094 185.75 192.816406 186.414062 191.261719 185.40625 C 190.386719 184.832031 189.625 183.964844 189.0625 183.082031 C 187.550781 180.734375 186.792969 178.109375 186.539062 175.324219 C 186.476562 174.636719 186.269531 173.886719 185.90625 173.300781 C 185.28125 172.28125 185.769531 171.71875 186.570312 171.289062 C 187.449219 170.820312 188.40625 170.5 189.304688 170.050781 C 191.691406 168.863281 194.058594 167.640625 196.433594 166.441406 C 196.882812 166.214844 197.308594 165.816406 197.769531 165.796875 C 198.257812 165.785156 198.902344 166.003906 199.214844 166.359375 C 199.414062 166.578125 199.289062 167.382812 199.027344 167.664062 C 198.527344 168.195312 197.871094 168.613281 197.214844 168.957031 C 195.378906 169.925781 193.503906 170.820312 191.429688 171.863281 Z M 191.417969 171.851562 " fill-opacity="1" fill-rule="nonzero"/><path fill="#000000" d="M 143.132812 182.015625 C 141.246094 181.851562 139.671875 181.703125 138.109375 181.570312 C 137.453125 181.507812 136.734375 181.570312 136.152344 181.328125 C 135.703125 181.152344 135.140625 180.578125 135.140625 180.183594 C 135.140625 179.816406 135.765625 179.253906 136.214844 179.140625 C 136.910156 178.960938 137.691406 179.078125 138.445312 179.109375 C 141.59375 179.234375 144.75 179.378906 147.898438 179.503906 C 149.710938 179.578125 149.878906 179.828125 149.546875 181.527344 C 149.410156 182.203125 149.546875 182.945312 149.628906 183.652344 C 149.878906 185.957031 150.367188 188.25 150.378906 190.554688 C 150.398438 192.910156 149.335938 194.433594 148.011719 194.464844 C 146.074219 194.503906 145.210938 192.984375 144.769531 191.503906 C 144.042969 189.054688 143.644531 186.507812 143.15625 183.988281 C 143.050781 183.433594 143.132812 182.851562 143.132812 182.015625 Z M 143.132812 182.015625 " fill-opacity="1" fill-rule="nonzero"/></svg>