<svg xmlns="http://www.w3.org/2000/svg" xmlns:xlink="http://www.w3.org/1999/xlink" width="500" zoomAndPan="magnify" viewBox="0 0 375 374.999991" height="500" preserveAspectRatio="xMidYMid meet" version="1.2"><defs><clipPath id="de51810188"><path d="M 17 14.179688 L 372 14.179688 L 372 360.679688 L 17 360.679688 Z M 17 14.179688 "/></clipPath><clipPath id="f276e64509"><path d="M 2.132812 131 L 35 131 L 35 174 L 2.132812 174 Z M 2.132812 131 "/></clipPath></defs><g id="df2b047ce1"><g clip-rule="nonzero" clip-path="url(#de51810188)"><path style=" stroke:none;fill-rule:nonzero;fill:#fff789;fill-opacity:1;" d="M 202.429688 14.25 C 209 14.25 213.570312 14.109375 218.140625 14.277344 C 237.523438 15.039062 256.472656 17.347656 274.402344 25.894531 C 292.875 34.726562 309.78125 45.394531 324.515625 59.820312 C 338.753906 73.75 349.871094 89.605469 357.800781 107.675781 C 363.585938 120.863281 367.132812 134.769531 369.703125 149.03125 C 372.585938 164.933594 372.179688 180.863281 371.492188 196.71875 C 370.847656 211.382812 368.230469 225.976562 364.441406 240.289062 C 360.800781 254.097656 356.5625 267.644531 350.015625 280.355469 C 343.730469 292.570312 336.160156 303.949219 325.800781 313.140625 C 316.136719 321.710938 305.46875 328.972656 294.136719 335.210938 C 278.925781 343.589844 262.902344 349.972656 246.042969 353.996094 C 235.234375 356.566406 224.261719 358.398438 213.09375 359.449219 C 204.167969 360.304688 195.285156 360.449219 186.382812 360.257812 C 172.953125 359.972656 159.621094 358.375 146.480469 355.496094 C 141.121094 354.328125 135.789062 353.042969 130.503906 351.613281 C 116.242188 347.757812 103.363281 340.828125 90.816406 333.257812 C 86.292969 330.519531 82.269531 326.996094 78.386719 323.355469 C 65.9375 311.570312 54.4375 299.023438 45.390625 284.332031 C 37.769531 271.929688 32.390625 258.621094 28.152344 244.761719 C 25.222656 235.167969 23.128906 225.3125 21.582031 215.457031 C 20.390625 207.835938 19.460938 200.121094 18.628906 192.410156 C 17.773438 184.242188 17.628906 176.101562 17.796875 167.980469 C 18.367188 141.507812 25.152344 116.722656 38.914062 93.984375 C 44.699219 84.390625 51.152344 75.25 59.054688 67.273438 C 66.554688 59.703125 75.316406 53.628906 84.269531 47.941406 C 100.671875 37.511719 118.289062 29.535156 136.644531 23.203125 C 146.527344 19.800781 156.691406 17.917969 167 16.347656 C 179.476562 14.464844 191.929688 14.109375 202.429688 14.25 Z M 202.429688 14.25 "/></g><path style=" stroke:none;fill-rule:nonzero;fill:#ffdd5b;fill-opacity:1;" d="M 49.578125 201.621094 C 49.507812 200.003906 49.914062 198.359375 51.414062 197.71875 C 55.007812 196.195312 55.414062 192.957031 56.054688 189.789062 C 56.363281 188.3125 56.484375 186.765625 56.914062 185.3125 C 58.148438 181.289062 59.914062 180.71875 63.460938 183.027344 C 67.078125 185.386719 71.769531 185.601562 75.007812 188.8125 C 75.933594 189.742188 77.222656 190.289062 78.246094 191.125 C 82.195312 194.242188 82.292969 195.289062 79.746094 199.671875 C 75.910156 206.242188 72.292969 212.929688 72.507812 220.90625 C 72.554688 222.359375 72.007812 223.574219 70.699219 224.191406 C 69.054688 224.953125 67.53125 224.265625 66.746094 222.882812 C 63.246094 216.789062 57.601562 212.8125 52.601562 208.167969 C 50.746094 206.433594 49.484375 204.335938 49.601562 201.644531 Z M 49.578125 201.621094 "/><path style=" stroke:none;fill-rule:nonzero;fill:#ffdd5b;fill-opacity:1;" d="M 28.246094 150.386719 C 28.007812 154.933594 27.082031 159.386719 25.675781 163.695312 C 24.296875 167.957031 21.105469 168.886719 17.84375 165.933594 C 14.773438 163.148438 12.035156 159.957031 9.273438 156.839844 C 7.25 154.554688 7.390625 152.078125 9.058594 149.554688 C 11.34375 146.078125 13.699219 142.625 14.582031 138.4375 C 14.867188 137.078125 15.84375 135.984375 17.367188 136.101562 C 18.582031 136.199219 19.699219 137.222656 19.628906 138.316406 C 19.4375 142.007812 22.246094 143.410156 24.699219 144.246094 C 28.058594 145.410156 28.507812 147.507812 28.222656 150.386719 Z M 28.246094 150.386719 "/><path style=" stroke:none;fill-rule:nonzero;fill:#ffac92;fill-opacity:1;" d="M 156.003906 184.3125 C 156.382812 187.503906 154.859375 190.480469 155.335938 193.8125 C 155.765625 196.789062 150.644531 198.410156 147.074219 196.695312 C 142.550781 194.527344 137.382812 184.933594 138.027344 179.863281 C 138.3125 177.625 143.097656 174.289062 145.957031 174.339844 C 151.835938 174.433594 155.929688 178.480469 156.003906 184.3125 Z M 156.003906 184.3125 "/><path style=" stroke:none;fill-rule:nonzero;fill:#ffdd5b;fill-opacity:1;" d="M 233.402344 96.128906 C 233.234375 99.199219 232.523438 103.007812 229.378906 105.984375 C 227.046875 108.175781 225.785156 108.367188 223.855469 105.722656 C 221.832031 102.9375 219.5 100.558594 216.808594 98.414062 C 214.714844 96.769531 214.425781 94.390625 216.070312 92.367188 C 218.023438 89.960938 219.449219 87.414062 220.449219 84.511719 C 220.949219 83.035156 221.925781 81.796875 223.738281 81.890625 C 225.449219 81.984375 225.664062 83.414062 226.070312 84.675781 C 226.546875 86.152344 227.210938 87.390625 229 87.746094 C 233.117188 88.582031 233.523438 91.746094 233.402344 96.152344 Z M 233.402344 96.128906 "/><path style=" stroke:none;fill-rule:nonzero;fill:#ffac92;fill-opacity:1;" d="M 199.453125 170.671875 C 198.929688 172.957031 198.191406 175.503906 196.929688 177.839844 C 196.261719 179.050781 195.285156 180.027344 193.714844 179.289062 C 192.453125 178.671875 191.40625 177.601562 191.785156 176.171875 C 192.476562 173.625 193.382812 171.125 194.40625 168.695312 C 194.929688 167.480469 195.976562 166.363281 197.523438 166.742188 C 199.355469 167.195312 199.570312 168.742188 199.453125 170.671875 Z M 199.453125 170.671875 "/><path style=" stroke:none;fill-rule:nonzero;fill:#ffac92;fill-opacity:1;" d="M 203.808594 172.71875 C 203.808594 170.789062 204.355469 169.003906 204.90625 167.195312 C 205.429688 165.433594 206.59375 164.742188 208.332031 165.171875 C 209.855469 165.53125 210.429688 166.671875 210.238281 168.148438 C 209.976562 170.195312 209.785156 172.265625 209.355469 174.289062 C 209 175.957031 208.355469 177.71875 206.167969 177.601562 C 203.738281 177.480469 203.855469 175.578125 203.808594 173.863281 C 203.808594 173.480469 203.808594 173.101562 203.808594 172.71875 Z M 203.808594 172.71875 "/><path style=" stroke:none;fill-rule:nonzero;fill:#ffac92;fill-opacity:1;" d="M 93.078125 197.195312 C 94.957031 197.195312 96.386719 197.957031 96.101562 199.410156 C 95.503906 202.503906 94.933594 205.695312 92.910156 208.265625 C 92.316406 209.027344 91.363281 209.457031 90.410156 209.121094 C 89.503906 208.8125 88.71875 208.050781 88.742188 207.050781 C 88.839844 203.835938 89.386719 200.71875 91.503906 198.148438 C 91.933594 197.621094 92.742188 197.382812 93.078125 197.195312 Z M 93.078125 197.195312 "/><path style=" stroke:none;fill-rule:nonzero;fill:#ffac92;fill-opacity:1;" d="M 99.933594 203.410156 C 99.933594 201.003906 100.527344 199.242188 101.503906 197.597656 C 102.242188 196.359375 103.386719 195.695312 104.816406 196.3125 C 106.148438 196.886719 106.789062 198.003906 106.503906 199.480469 C 106.21875 200.933594 105.933594 202.410156 105.503906 203.835938 C 104.980469 205.644531 104.433594 207.71875 101.957031 207.359375 C 99.21875 206.980469 100.027344 204.671875 99.933594 203.410156 Z M 99.933594 203.410156 "/><path style=" stroke:none;fill-rule:nonzero;fill:#ffac92;fill-opacity:1;" d="M 217.425781 167.316406 C 217.6875 165.316406 216.808594 162.503906 220.070312 162.078125 C 222 161.816406 223.332031 164.601562 223.140625 167.910156 C 222.949219 171.027344 221.238281 172.71875 219.117188 171.839844 C 217.023438 170.980469 217.617188 169.054688 217.425781 167.316406 Z M 217.425781 167.316406 "/><path style=" stroke:none;fill-rule:nonzero;fill:#ffac92;fill-opacity:1;" d="M 117.289062 199.289062 C 117.148438 200.003906 117.097656 201.171875 116.695312 202.171875 C 116.242188 203.265625 115.289062 203.910156 113.980469 203.742188 C 112.957031 203.597656 112.148438 203.003906 111.886719 202.074219 C 111.601562 201.003906 111.550781 199.859375 111.527344 198.742188 C 111.527344 196.503906 112.125 194.148438 114.625 194.148438 C 117.527344 194.148438 117.097656 196.859375 117.265625 199.289062 Z M 117.289062 199.289062 "/><path style=" stroke:none;fill-rule:nonzero;fill:#000000;fill-opacity:1;" d="M 217.664062 201.382812 C 222.117188 190.289062 231 187.21875 241.210938 186.8125 C 250.070312 186.457031 258.566406 188.386719 266.613281 192.242188 C 267.640625 192.742188 268.878906 193.097656 269.566406 193.910156 C 270.304688 194.789062 271.066406 196.3125 270.804688 197.242188 C 270.328125 198.882812 268.710938 199.265625 267.042969 198.550781 C 265.472656 197.882812 263.925781 197.121094 262.328125 196.527344 C 254.042969 193.410156 245.570312 191.550781 236.6875 193.433594 C 234.832031 193.8125 232.972656 194.3125 231.261719 195.097656 C 224.640625 198.121094 222.1875 203.382812 225.117188 210.027344 C 227.238281 214.835938 230.1875 219.40625 233.472656 223.527344 C 240.117188 231.835938 247.234375 239.761719 254.140625 247.859375 C 255.117188 249.023438 256.449219 250.074219 256.902344 251.429688 C 257.28125 252.597656 257.042969 254.382812 256.355469 255.382812 C 255.949219 255.929688 253.804688 255.832031 252.902344 255.285156 C 251.496094 254.429688 250.402344 252.976562 249.28125 251.691406 C 243.570312 245.074219 237.878906 238.429688 232.164062 231.8125 C 231.09375 230.574219 229.925781 229.40625 227.925781 227.242188 C 227.925781 229.765625 227.925781 231.167969 227.925781 232.574219 C 228.046875 238.644531 228.210938 244.738281 228.261719 250.808594 C 228.261719 252.308594 228.261719 253.976562 227.664062 255.261719 C 227.210938 256.214844 225.6875 257.308594 224.738281 257.238281 C 223.832031 257.167969 222.617188 255.761719 222.308594 254.738281 C 221.878906 253.335938 222.1875 251.738281 222.210938 250.214844 C 222.261719 239.929688 222.378906 229.621094 219.761719 219.621094 C 218.714844 215.644531 217.117188 211.644531 214.902344 208.195312 C 211.453125 202.789062 206.285156 201.597656 200.523438 204.503906 C 197.691406 205.933594 194.90625 207.789062 192.621094 210.003906 C 185.097656 217.265625 179.785156 225.953125 177.335938 236.238281 C 177.121094 237.167969 177.097656 238.238281 176.597656 238.976562 C 175.90625 239.929688 174.882812 241.191406 173.90625 241.285156 C 171.976562 241.476562 171.453125 239.714844 171.550781 238.144531 C 171.644531 236.261719 171.859375 234.335938 172.382812 232.527344 C 175.546875 221.714844 181.191406 212.382812 189.382812 204.621094 C 190.621094 203.457031 192 202.410156 193.40625 201.457031 C 201.167969 196.148438 209.046875 194.71875 217.640625 201.457031 Z M 217.664062 201.382812 "/><path style=" stroke:none;fill-rule:nonzero;fill:#000000;fill-opacity:1;" d="M 86.21875 195.289062 C 85.863281 196.097656 85.242188 197.859375 84.386719 199.503906 C 79.910156 208.144531 75.886719 216.90625 74.671875 226.765625 C 74.484375 228.335938 73.007812 230.335938 71.578125 231 C 69.484375 232.027344 68.269531 229.882812 67.199219 228.289062 C 61.699219 220.144531 55.078125 213.167969 46.867188 207.71875 C 45.628906 206.90625 44.652344 205.671875 43.699219 204.480469 C 42.554688 203.074219 42.722656 201.644531 44.078125 200.457031 C 50.652344 194.695312 53.507812 186.789062 56.53125 178.980469 C 58.246094 174.578125 59.414062 174.21875 62.675781 177.601562 C 67.816406 182.933594 73.863281 186.597656 81.03125 188.574219 C 85.386719 189.765625 86.292969 190.980469 86.21875 195.265625 Z M 68.984375 219.550781 C 72.433594 211.121094 75.769531 203.003906 78.984375 195.171875 C 72.746094 191.671875 66.746094 188.265625 60.914062 184.980469 C 57.53125 191.242188 54.246094 197.335938 51.152344 203.050781 C 57.199219 208.644531 63.007812 214.050781 68.984375 219.574219 Z M 68.984375 219.550781 "/><path style=" stroke:none;fill-rule:nonzero;fill:#000000;fill-opacity:1;" d="M 163.289062 144.886719 C 163.621094 142.269531 163.621094 139.53125 164.359375 137.03125 C 166.074219 131.101562 172.191406 129.554688 175.574219 134.554688 C 182.570312 144.910156 184.570312 156.554688 182.214844 168.839844 C 181.714844 171.410156 179.929688 173.289062 177.285156 173.863281 C 174.238281 174.527344 172.191406 172.71875 170.621094 170.433594 C 166.5 164.480469 164.976562 157.625 164 150.625 C 163.738281 148.746094 163.714844 146.839844 163.597656 144.933594 L 163.3125 144.886719 Z M 163.289062 144.886719 "/><path style=" stroke:none;fill-rule:nonzero;fill:#000000;fill-opacity:1;" d="M 99.316406 158.671875 C 99.601562 156.980469 99.71875 154.457031 100.527344 152.195312 C 102.054688 147.957031 106.003906 146.746094 109.695312 149.339844 C 111.195312 150.410156 112.550781 151.886719 113.503906 153.457031 C 117.957031 160.742188 120.097656 168.742188 120.074219 177.265625 C 120.074219 183.242188 118.074219 186.886719 114.625 187.433594 C 109.765625 188.195312 107.503906 184.601562 105.480469 181.148438 C 101.578125 174.457031 99.886719 167.125 99.339844 158.671875 Z M 99.316406 158.671875 "/><g clip-rule="nonzero" clip-path="url(#f276e64509)"><path style=" stroke:none;fill-rule:nonzero;fill:#000000;fill-opacity:1;" d="M 24.582031 173.101562 C 23.890625 172.671875 22.507812 172.078125 21.4375 171.125 C 19.152344 169.148438 17.222656 166.671875 14.773438 164.957031 C 12.175781 163.148438 9.199219 161.863281 6.296875 160.554688 C 2.890625 159.007812 2.035156 156.625 3.699219 153.316406 C 6.84375 147.078125 9.914062 140.816406 12.960938 134.53125 C 14.367188 131.625 15.652344 131.199219 18.058594 133.339844 C 19.460938 134.578125 20.582031 136.125 21.820312 137.554688 C 24.460938 140.601562 27.246094 143.386719 31.507812 144.03125 C 33.960938 144.386719 35.816406 145.910156 34.316406 148.292969 C 30.4375 154.386719 30.34375 161.195312 29.722656 167.980469 C 29.460938 170.980469 27.652344 172.933594 24.582031 173.125 Z M 16.9375 141.386719 C 14.582031 146.078125 12.296875 150.625 10.128906 154.933594 C 14.746094 158.078125 19.175781 161.101562 23.746094 164.21875 C 24.796875 158.980469 25.746094 154.195312 26.675781 149.433594 C 23.460938 146.792969 20.269531 144.171875 16.9375 141.410156 Z M 16.9375 141.386719 "/></g><path style=" stroke:none;fill-rule:nonzero;fill:#000000;fill-opacity:1;" d="M 230.5 115.601562 C 228.761719 114.316406 227.355469 113.652344 226.5 112.554688 C 222.332031 107.316406 217.6875 102.722656 211.832031 99.320312 C 208.59375 97.4375 208.570312 95.128906 210.953125 92.296875 C 214.332031 88.246094 218.046875 84.484375 218.664062 78.722656 C 218.949219 76.128906 222.855469 75.296875 224.425781 77.605469 C 227.59375 82.273438 231.832031 85.011719 237.117188 86.558594 C 238.996094 87.105469 239.425781 88.699219 238.878906 90.722656 C 236.972656 97.84375 235.308594 105.03125 233.355469 112.152344 C 233.023438 113.316406 231.6875 114.222656 230.523438 115.628906 Z M 216.617188 95.105469 C 220.785156 98.582031 224.5 101.699219 228.570312 105.105469 C 229.972656 100.320312 231.261719 96.03125 232.546875 91.652344 C 229.164062 89.582031 226.164062 87.722656 223.046875 85.796875 C 220.832031 89.007812 218.808594 91.9375 216.640625 95.082031 Z M 216.617188 95.105469 "/><path style=" stroke:none;fill-rule:nonzero;fill:#000000;fill-opacity:1;" d="M 161.121094 185.003906 C 160.550781 188.21875 160.382812 191.503906 159.335938 194.480469 C 156.691406 202.074219 149.71875 203.980469 143.527344 198.933594 C 138.789062 195.074219 136.050781 189.886719 134.644531 184.050781 C 133.789062 180.433594 135.121094 177.289062 138.167969 175.101562 C 143.027344 171.601562 148.503906 170.601562 154.359375 171.480469 C 157.050781 171.886719 158.953125 173.363281 159.550781 176.050781 C 160.191406 178.980469 160.574219 181.980469 161.097656 185.003906 Z M 154.859375 186.171875 C 154.644531 183.386719 154.714844 181.648438 154.335938 180.003906 C 154.097656 179.003906 153.40625 177.8125 152.550781 177.339844 C 149.980469 175.910156 141.980469 178.289062 140.574219 180.765625 C 140.242188 181.363281 140.003906 182.265625 140.167969 182.910156 C 141.527344 187.550781 143.597656 191.8125 147.644531 194.695312 C 150.265625 196.550781 152.3125 196.003906 153.453125 192.910156 C 154.335938 190.457031 154.527344 187.765625 154.835938 186.171875 Z M 154.859375 186.171875 "/><path style=" stroke:none;fill-rule:nonzero;fill:#000000;fill-opacity:1;" d="M 209.902344 131.269531 C 209.429688 133.460938 211.453125 136.386719 208.308594 137.363281 C 204.832031 138.4375 204.855469 134.699219 203.40625 133.054688 C 201.167969 132.148438 197.59375 133.746094 197.09375 129.769531 C 196.90625 128.269531 197.5 127.984375 202.476562 126.246094 C 202.285156 124.839844 201.738281 123.292969 202 121.914062 C 202.238281 120.628906 203.070312 118.960938 204.140625 118.460938 C 205.808594 117.675781 206.878906 119.078125 207.332031 120.699219 C 207.691406 121.960938 208.023438 123.222656 208.5 124.914062 C 209.832031 124.792969 211.164062 124.363281 212.308594 124.625 C 213.402344 124.890625 214.953125 125.769531 215.117188 126.625 C 215.308594 127.507812 214.261719 128.914062 213.378906 129.648438 C 212.425781 130.460938 211.023438 130.746094 209.902344 131.246094 Z M 209.902344 131.269531 "/><path style=" stroke:none;fill-rule:nonzero;fill:#000000;fill-opacity:1;" d="M 103.480469 122.316406 C 102.957031 122.839844 102.171875 123.863281 101.171875 124.53125 C 97.601562 126.960938 93.910156 129.222656 90.316406 131.625 C 88.980469 132.507812 87.742188 133.363281 86.292969 131.984375 C 84.625 130.414062 85.21875 128.601562 86.625 127.554688 C 90.554688 124.675781 94.554688 121.792969 98.816406 119.484375 C 101.316406 118.128906 103.578125 119.554688 103.503906 122.292969 Z M 103.480469 122.316406 "/><path style=" stroke:none;fill-rule:nonzero;fill:#000000;fill-opacity:1;" d="M 165.738281 103.746094 C 168.476562 104.367188 172.335938 105.128906 176.121094 106.175781 C 178.023438 106.699219 179.644531 108.054688 178.761719 110.367188 C 178 112.367188 176.285156 112.078125 174.476562 111.628906 C 170.644531 110.675781 166.789062 109.890625 162.90625 109.199219 C 161.191406 108.890625 159.265625 108.84375 159.335938 106.53125 C 159.40625 103.960938 161.527344 103.867188 163.429688 103.722656 C 163.8125 103.699219 164.191406 103.722656 165.714844 103.722656 Z M 165.738281 103.746094 "/></g></svg>