<svg xmlns="http://www.w3.org/2000/svg" xmlns:xlink="http://www.w3.org/1999/xlink" width="500" zoomAndPan="magnify" viewBox="0 0 375 374.999991" height="500" preserveAspectRatio="xMidYMid meet" version="1.0"><defs><clipPath id="5a15319f09"><path d="M 118 117.375 L 262.5 117.375 L 262.5 257.625 L 118 257.625 Z M 118 117.375 " clip-rule="nonzero"/></clipPath><clipPath id="926ca43204"><path d="M 112.5 165 L 126 165 L 126 182 L 112.5 182 Z M 112.5 165 " clip-rule="nonzero"/></clipPath></defs><g clip-path="url(#5a15319f09)"><path fill="#fff789" d="M 193.59375 117.402344 C 196.253906 117.402344 198.101562 117.347656 199.953125 117.414062 C 207.800781 117.722656 215.472656 118.65625 222.730469 122.117188 C 230.210938 125.695312 237.054688 130.011719 243.023438 135.851562 C 248.785156 141.492188 253.289062 147.910156 256.496094 155.226562 C 258.839844 160.566406 260.277344 166.199219 261.316406 171.972656 C 262.484375 178.410156 262.320312 184.859375 262.039062 191.277344 C 261.78125 197.214844 260.71875 203.125 259.1875 208.917969 C 257.710938 214.507812 255.996094 219.992188 253.34375 225.140625 C 250.800781 230.085938 247.734375 234.695312 243.542969 238.414062 C 239.628906 241.882812 235.308594 244.824219 230.722656 247.351562 C 224.5625 250.742188 218.074219 253.324219 211.25 254.953125 C 206.875 255.996094 202.429688 256.738281 197.910156 257.164062 C 194.296875 257.507812 190.699219 257.566406 187.09375 257.488281 C 181.660156 257.375 176.261719 256.730469 170.941406 255.5625 C 168.769531 255.089844 166.613281 254.570312 164.472656 253.992188 C 158.699219 252.429688 153.484375 249.625 148.402344 246.558594 C 146.570312 245.449219 144.941406 244.023438 143.371094 242.550781 C 138.332031 237.777344 133.675781 232.699219 130.011719 226.75 C 126.925781 221.730469 124.75 216.339844 123.03125 210.730469 C 121.847656 206.847656 121 202.855469 120.371094 198.863281 C 119.890625 195.78125 119.515625 192.65625 119.175781 189.535156 C 118.832031 186.226562 118.773438 182.929688 118.839844 179.644531 C 119.070312 168.925781 121.820312 158.890625 127.390625 149.683594 C 129.730469 145.800781 132.34375 142.097656 135.542969 138.871094 C 138.582031 135.804688 142.128906 133.347656 145.753906 131.042969 C 152.394531 126.820312 159.527344 123.59375 166.957031 121.027344 C 170.960938 119.648438 175.074219 118.886719 179.25 118.253906 C 184.300781 117.492188 189.339844 117.347656 193.59375 117.402344 Z M 193.59375 117.402344 " fill-opacity="1" fill-rule="nonzero"/></g><path fill="#ffdd5b" d="M 131.707031 193.265625 C 131.679688 192.609375 131.84375 191.945312 132.449219 191.683594 C 133.90625 191.066406 134.070312 189.753906 134.332031 188.472656 C 134.457031 187.875 134.503906 187.25 134.675781 186.660156 C 135.179688 185.03125 135.890625 184.800781 137.328125 185.734375 C 138.792969 186.691406 140.691406 186.777344 142.003906 188.078125 C 142.378906 188.453125 142.898438 188.675781 143.3125 189.011719 C 144.914062 190.277344 144.953125 190.699219 143.921875 192.472656 C 142.371094 195.132812 140.902344 197.84375 140.992188 201.070312 C 141.011719 201.660156 140.789062 202.152344 140.257812 202.402344 C 139.59375 202.710938 138.976562 202.429688 138.660156 201.871094 C 137.242188 199.40625 134.957031 197.792969 132.933594 195.914062 C 132.179688 195.210938 131.667969 194.363281 131.71875 193.273438 Z M 131.707031 193.265625 " fill-opacity="1" fill-rule="nonzero"/><path fill="#ffdd5b" d="M 123.070312 172.519531 C 122.976562 174.363281 122.597656 176.164062 122.03125 177.910156 C 121.472656 179.632812 120.179688 180.011719 118.859375 178.816406 C 117.617188 177.6875 116.507812 176.394531 115.390625 175.132812 C 114.570312 174.207031 114.628906 173.207031 115.300781 172.183594 C 116.226562 170.777344 117.183594 169.378906 117.539062 167.683594 C 117.65625 167.132812 118.050781 166.6875 118.667969 166.738281 C 119.160156 166.777344 119.609375 167.191406 119.582031 167.632812 C 119.503906 169.128906 120.644531 169.695312 121.636719 170.035156 C 122.996094 170.507812 123.179688 171.355469 123.0625 172.519531 Z M 123.070312 172.519531 " fill-opacity="1" fill-rule="nonzero"/><path fill="#ffac92" d="M 174.796875 186.257812 C 174.949219 187.546875 174.332031 188.753906 174.527344 190.101562 C 174.699219 191.308594 172.625 191.964844 171.179688 191.269531 C 169.347656 190.390625 167.257812 186.507812 167.519531 184.453125 C 167.632812 183.546875 169.570312 182.199219 170.726562 182.21875 C 173.109375 182.257812 174.765625 183.894531 174.796875 186.257812 Z M 174.796875 186.257812 " fill-opacity="1" fill-rule="nonzero"/><path fill="#ffdd5b" d="M 206.132812 150.554688 C 206.066406 151.796875 205.777344 153.339844 204.503906 154.542969 C 203.558594 155.429688 203.046875 155.507812 202.265625 154.4375 C 201.449219 153.308594 200.503906 152.347656 199.414062 151.476562 C 198.566406 150.8125 198.449219 149.847656 199.113281 149.03125 C 199.90625 148.054688 200.484375 147.023438 200.890625 145.847656 C 201.089844 145.25 201.488281 144.75 202.21875 144.789062 C 202.914062 144.828125 203 145.40625 203.164062 145.917969 C 203.355469 146.515625 203.625 147.015625 204.347656 147.160156 C 206.015625 147.496094 206.179688 148.78125 206.132812 150.5625 Z M 206.132812 150.554688 " fill-opacity="1" fill-rule="nonzero"/><path fill="#ffac92" d="M 192.386719 180.734375 C 192.175781 181.660156 191.875 182.691406 191.367188 183.632812 C 191.09375 184.125 190.699219 184.523438 190.0625 184.222656 C 189.554688 183.972656 189.128906 183.539062 189.285156 182.960938 C 189.5625 181.929688 189.929688 180.917969 190.34375 179.933594 C 190.554688 179.441406 190.980469 178.988281 191.605469 179.144531 C 192.347656 179.324219 192.433594 179.953125 192.386719 180.734375 Z M 192.386719 180.734375 " fill-opacity="1" fill-rule="nonzero"/><path fill="#ffac92" d="M 194.152344 181.5625 C 194.152344 180.78125 194.371094 180.058594 194.59375 179.324219 C 194.804688 178.613281 195.277344 178.332031 195.984375 178.507812 C 196.597656 178.652344 196.832031 179.113281 196.753906 179.710938 C 196.648438 180.539062 196.570312 181.378906 196.398438 182.199219 C 196.253906 182.875 195.992188 183.585938 195.105469 183.539062 C 194.121094 183.488281 194.171875 182.71875 194.152344 182.023438 C 194.152344 181.871094 194.152344 181.714844 194.152344 181.5625 Z M 194.152344 181.5625 " fill-opacity="1" fill-rule="nonzero"/><path fill="#ffac92" d="M 149.320312 191.472656 C 150.082031 191.472656 150.660156 191.78125 150.542969 192.367188 C 150.300781 193.621094 150.070312 194.914062 149.25 195.953125 C 149.011719 196.261719 148.625 196.433594 148.238281 196.300781 C 147.875 196.175781 147.554688 195.867188 147.566406 195.460938 C 147.601562 194.160156 147.824219 192.898438 148.683594 191.855469 C 148.855469 191.644531 149.183594 191.546875 149.320312 191.472656 Z M 149.320312 191.472656 " fill-opacity="1" fill-rule="nonzero"/><path fill="#ffac92" d="M 152.09375 193.988281 C 152.09375 193.011719 152.335938 192.300781 152.730469 191.636719 C 153.03125 191.132812 153.492188 190.863281 154.070312 191.113281 C 154.609375 191.347656 154.871094 191.800781 154.753906 192.398438 C 154.640625 192.984375 154.523438 193.582031 154.351562 194.160156 C 154.140625 194.894531 153.917969 195.730469 152.914062 195.585938 C 151.804688 195.433594 152.132812 194.496094 152.09375 193.988281 Z M 152.09375 193.988281 " fill-opacity="1" fill-rule="nonzero"/><path fill="#ffac92" d="M 199.664062 179.375 C 199.769531 178.566406 199.414062 177.425781 200.734375 177.253906 C 201.515625 177.148438 202.054688 178.273438 201.976562 179.613281 C 201.902344 180.878906 201.207031 181.5625 200.347656 181.207031 C 199.5 180.859375 199.742188 180.078125 199.664062 179.375 Z M 199.664062 179.375 " fill-opacity="1" fill-rule="nonzero"/><path fill="#ffac92" d="M 159.121094 192.320312 C 159.0625 192.609375 159.046875 193.082031 158.882812 193.484375 C 158.699219 193.929688 158.3125 194.191406 157.78125 194.121094 C 157.367188 194.0625 157.039062 193.824219 156.933594 193.449219 C 156.820312 193.011719 156.800781 192.550781 156.789062 192.097656 C 156.789062 191.191406 157.03125 190.238281 158.042969 190.238281 C 159.21875 190.238281 159.046875 191.335938 159.113281 192.320312 Z M 159.121094 192.320312 " fill-opacity="1" fill-rule="nonzero"/><path fill="#000000" d="M 199.761719 193.167969 C 201.5625 188.675781 205.160156 187.433594 209.292969 187.269531 C 212.878906 187.125 216.320312 187.90625 219.578125 189.464844 C 219.992188 189.667969 220.496094 189.8125 220.773438 190.140625 C 221.074219 190.496094 221.382812 191.113281 221.277344 191.492188 C 221.082031 192.15625 220.425781 192.308594 219.753906 192.019531 C 219.117188 191.75 218.488281 191.441406 217.84375 191.203125 C 214.488281 189.9375 211.058594 189.1875 207.460938 189.949219 C 206.710938 190.101562 205.960938 190.304688 205.265625 190.625 C 202.585938 191.847656 201.59375 193.976562 202.777344 196.667969 C 203.636719 198.613281 204.832031 200.464844 206.160156 202.132812 C 208.851562 205.496094 211.734375 208.707031 214.527344 211.984375 C 214.921875 212.457031 215.464844 212.878906 215.644531 213.429688 C 215.800781 213.902344 215.703125 214.625 215.425781 215.03125 C 215.261719 215.25 214.394531 215.210938 214.027344 214.992188 C 213.457031 214.644531 213.015625 214.054688 212.5625 213.535156 C 210.25 210.855469 207.945312 208.167969 205.632812 205.488281 C 205.199219 204.984375 204.726562 204.511719 203.914062 203.636719 C 203.914062 204.65625 203.914062 205.226562 203.914062 205.796875 C 203.964844 208.253906 204.03125 210.722656 204.050781 213.179688 C 204.050781 213.785156 204.050781 214.460938 203.808594 214.980469 C 203.625 215.367188 203.007812 215.808594 202.625 215.78125 C 202.257812 215.753906 201.765625 215.183594 201.640625 214.769531 C 201.46875 214.199219 201.59375 213.554688 201.601562 212.9375 C 201.621094 208.773438 201.667969 204.601562 200.609375 200.550781 C 200.183594 198.941406 199.539062 197.324219 198.644531 195.925781 C 197.246094 193.738281 195.152344 193.253906 192.820312 194.429688 C 191.671875 195.007812 190.546875 195.761719 189.621094 196.65625 C 186.574219 199.597656 184.425781 203.117188 183.433594 207.28125 C 183.34375 207.65625 183.335938 208.089844 183.132812 208.386719 C 182.855469 208.773438 182.4375 209.285156 182.042969 209.324219 C 181.261719 209.398438 181.050781 208.6875 181.089844 208.050781 C 181.128906 207.289062 181.214844 206.507812 181.425781 205.777344 C 182.710938 201.398438 184.992188 197.621094 188.308594 194.480469 C 188.8125 194.007812 189.371094 193.582031 189.9375 193.195312 C 193.082031 191.046875 196.273438 190.46875 199.75 193.195312 Z M 199.761719 193.167969 " fill-opacity="1" fill-rule="nonzero"/><path fill="#000000" d="M 146.542969 190.699219 C 146.398438 191.027344 146.148438 191.742188 145.800781 192.40625 C 143.988281 195.90625 142.359375 199.453125 141.867188 203.441406 C 141.792969 204.078125 141.195312 204.890625 140.613281 205.160156 C 139.765625 205.574219 139.273438 204.707031 138.839844 204.058594 C 136.613281 200.761719 133.933594 197.9375 130.609375 195.730469 C 130.109375 195.402344 129.714844 194.902344 129.328125 194.421875 C 128.863281 193.851562 128.933594 193.273438 129.480469 192.792969 C 132.140625 190.460938 133.300781 187.257812 134.523438 184.097656 C 135.21875 182.3125 135.6875 182.167969 137.011719 183.539062 C 139.09375 185.699219 141.539062 187.183594 144.441406 187.980469 C 146.207031 188.464844 146.570312 188.957031 146.542969 190.691406 Z M 139.5625 200.523438 C 140.960938 197.109375 142.3125 193.824219 143.613281 190.652344 C 141.085938 189.234375 138.660156 187.855469 136.296875 186.527344 C 134.929688 189.0625 133.597656 191.527344 132.34375 193.84375 C 134.792969 196.109375 137.144531 198.296875 139.5625 200.53125 Z M 139.5625 200.523438 " fill-opacity="1" fill-rule="nonzero"/><path fill="#000000" d="M 177.746094 170.292969 C 177.878906 169.234375 177.878906 168.125 178.179688 167.113281 C 178.871094 164.714844 181.351562 164.085938 182.71875 166.109375 C 185.554688 170.304688 186.363281 175.015625 185.410156 179.992188 C 185.207031 181.03125 184.484375 181.792969 183.414062 182.023438 C 182.179688 182.292969 181.351562 181.5625 180.714844 180.636719 C 179.046875 178.226562 178.429688 175.449219 178.035156 172.617188 C 177.929688 171.855469 177.917969 171.085938 177.871094 170.3125 L 177.753906 170.292969 Z M 177.746094 170.292969 " fill-opacity="1" fill-rule="nonzero"/><path fill="#000000" d="M 151.84375 175.875 C 151.960938 175.191406 152.007812 174.167969 152.335938 173.253906 C 152.953125 171.539062 154.554688 171.046875 156.046875 172.097656 C 156.65625 172.53125 157.203125 173.128906 157.589844 173.765625 C 159.390625 176.714844 160.257812 179.953125 160.25 183.402344 C 160.25 185.824219 159.441406 187.296875 158.042969 187.519531 C 156.078125 187.828125 155.160156 186.371094 154.339844 184.972656 C 152.761719 182.265625 152.074219 179.296875 151.855469 175.875 Z M 151.84375 175.875 " fill-opacity="1" fill-rule="nonzero"/><g clip-path="url(#926ca43204)"><path fill="#000000" d="M 121.585938 181.714844 C 121.308594 181.542969 120.75 181.300781 120.316406 180.917969 C 119.390625 180.117188 118.609375 179.113281 117.617188 178.417969 C 116.566406 177.6875 115.359375 177.167969 114.183594 176.636719 C 112.804688 176.011719 112.460938 175.046875 113.132812 173.707031 C 114.40625 171.179688 115.648438 168.644531 116.882812 166.101562 C 117.453125 164.925781 117.972656 164.75 118.945312 165.617188 C 119.515625 166.121094 119.96875 166.746094 120.46875 167.324219 C 121.539062 168.558594 122.667969 169.6875 124.390625 169.945312 C 125.386719 170.089844 126.136719 170.707031 125.53125 171.671875 C 123.957031 174.140625 123.921875 176.898438 123.667969 179.644531 C 123.5625 180.859375 122.832031 181.648438 121.585938 181.726562 Z M 118.492188 168.878906 C 117.539062 170.777344 116.613281 172.617188 115.738281 174.363281 C 117.605469 175.632812 119.398438 176.859375 121.25 178.121094 C 121.675781 176 122.058594 174.0625 122.4375 172.136719 C 121.132812 171.066406 119.84375 170.003906 118.492188 168.886719 Z M 118.492188 168.878906 " fill-opacity="1" fill-rule="nonzero"/></g><path fill="#000000" d="M 204.957031 158.4375 C 204.253906 157.917969 203.683594 157.648438 203.335938 157.203125 C 201.648438 155.082031 199.769531 153.222656 197.398438 151.84375 C 196.089844 151.082031 196.078125 150.148438 197.042969 149 C 198.410156 147.363281 199.914062 145.839844 200.164062 143.507812 C 200.28125 142.457031 201.863281 142.117188 202.5 143.054688 C 203.78125 144.941406 205.496094 146.050781 207.636719 146.679688 C 208.398438 146.898438 208.570312 147.546875 208.347656 148.363281 C 207.578125 151.246094 206.902344 154.15625 206.113281 157.039062 C 205.976562 157.511719 205.4375 157.878906 204.964844 158.449219 Z M 199.335938 150.136719 C 201.023438 151.546875 202.527344 152.808594 204.175781 154.1875 C 204.746094 152.25 205.265625 150.515625 205.785156 148.742188 C 204.417969 147.902344 203.203125 147.152344 201.941406 146.371094 C 201.042969 147.671875 200.222656 148.855469 199.347656 150.128906 Z M 199.335938 150.136719 " fill-opacity="1" fill-rule="nonzero"/><path fill="#000000" d="M 176.867188 186.535156 C 176.636719 187.835938 176.570312 189.167969 176.144531 190.371094 C 175.074219 193.449219 172.25 194.21875 169.746094 192.175781 C 167.828125 190.613281 166.71875 188.511719 166.148438 186.152344 C 165.800781 184.683594 166.34375 183.414062 167.574219 182.527344 C 169.542969 181.109375 171.757812 180.703125 174.128906 181.0625 C 175.21875 181.226562 175.992188 181.824219 176.230469 182.910156 C 176.492188 184.097656 176.644531 185.3125 176.859375 186.535156 Z M 174.332031 187.007812 C 174.246094 185.878906 174.273438 185.175781 174.121094 184.511719 C 174.023438 184.105469 173.746094 183.625 173.398438 183.433594 C 172.355469 182.855469 169.117188 183.816406 168.550781 184.820312 C 168.414062 185.0625 168.316406 185.425781 168.386719 185.6875 C 168.933594 187.566406 169.773438 189.292969 171.414062 190.460938 C 172.472656 191.210938 173.300781 190.988281 173.765625 189.734375 C 174.121094 188.742188 174.199219 187.652344 174.324219 187.007812 Z M 174.332031 187.007812 " fill-opacity="1" fill-rule="nonzero"/><path fill="#000000" d="M 196.617188 164.78125 C 196.425781 165.667969 197.246094 166.851562 195.972656 167.25 C 194.566406 167.683594 194.574219 166.167969 193.988281 165.503906 C 193.082031 165.136719 191.636719 165.78125 191.433594 164.171875 C 191.355469 163.566406 191.597656 163.449219 193.609375 162.746094 C 193.535156 162.179688 193.3125 161.550781 193.417969 160.992188 C 193.515625 160.472656 193.851562 159.796875 194.285156 159.59375 C 194.960938 159.277344 195.394531 159.84375 195.578125 160.5 C 195.722656 161.011719 195.855469 161.523438 196.050781 162.207031 C 196.589844 162.160156 197.128906 161.984375 197.59375 162.089844 C 198.035156 162.195312 198.664062 162.554688 198.730469 162.902344 C 198.808594 163.257812 198.382812 163.828125 198.027344 164.125 C 197.640625 164.453125 197.070312 164.570312 196.617188 164.769531 Z M 196.617188 164.78125 " fill-opacity="1" fill-rule="nonzero"/><path fill="#000000" d="M 153.53125 161.15625 C 153.320312 161.367188 153 161.78125 152.597656 162.050781 C 151.152344 163.035156 149.65625 163.953125 148.199219 164.925781 C 147.660156 165.28125 147.160156 165.628906 146.570312 165.070312 C 145.898438 164.433594 146.136719 163.699219 146.707031 163.277344 C 148.296875 162.109375 149.917969 160.945312 151.640625 160.007812 C 152.65625 159.460938 153.570312 160.039062 153.542969 161.148438 Z M 153.53125 161.15625 " fill-opacity="1" fill-rule="nonzero"/><path fill="#000000" d="M 178.738281 153.636719 C 179.847656 153.886719 181.40625 154.195312 182.941406 154.621094 C 183.710938 154.832031 184.367188 155.382812 184.011719 156.316406 C 183.703125 157.125 183.007812 157.011719 182.277344 156.828125 C 180.722656 156.441406 179.160156 156.125 177.589844 155.84375 C 176.898438 155.71875 176.117188 155.699219 176.144531 154.765625 C 176.175781 153.722656 177.03125 153.6875 177.804688 153.628906 C 177.957031 153.617188 178.113281 153.628906 178.726562 153.628906 Z M 178.738281 153.636719 " fill-opacity="1" fill-rule="nonzero"/></svg>