<svg xmlns="http://www.w3.org/2000/svg" xmlns:xlink="http://www.w3.org/1999/xlink" width="500" zoomAndPan="magnify" viewBox="0 0 375 374.999991" height="500" preserveAspectRatio="xMidYMid meet" version="1.0"><defs><clipPath id="6e6cbee896"><path d="M 89.824219 89.824219 L 285.175781 89.824219 L 285.175781 285.175781 L 89.824219 285.175781 Z M 89.824219 89.824219 " clip-rule="nonzero"/></clipPath><clipPath id="e5783f4d5c"><path d="M 187.5 89.824219 L 196.976562 97.835938 L 207.921875 91.957031 L 215.511719 101.757812 L 227.449219 98.265625 L 232.828125 109.421875 L 245.230469 108.476562 L 248.160156 120.5 L 260.488281 122.140625 L 260.839844 134.507812 L 272.558594 138.660156 L 270.316406 150.828125 L 280.910156 157.316406 L 276.171875 168.753906 L 285.175781 177.289062 L 278.152344 187.5 L 285.175781 197.710938 L 276.171875 206.246094 L 280.910156 217.683594 L 270.316406 224.171875 L 272.558594 236.339844 L 260.839844 240.492188 L 260.488281 252.859375 L 248.160156 254.5 L 245.230469 266.523438 L 232.828125 265.578125 L 227.449219 276.734375 L 215.511719 273.242188 L 207.921875 283.042969 L 196.976562 277.164062 L 187.5 285.175781 L 178.023438 277.164062 L 167.078125 283.042969 L 159.488281 273.242188 L 147.550781 276.734375 L 142.171875 265.578125 L 129.769531 266.523438 L 126.839844 254.5 L 114.511719 252.859375 L 114.160156 240.492188 L 102.441406 236.339844 L 104.683594 224.171875 L 94.089844 217.683594 L 98.828125 206.246094 L 89.824219 197.710938 L 96.847656 187.5 L 89.824219 177.289062 L 98.828125 168.753906 L 94.089844 157.316406 L 104.683594 150.828125 L 102.441406 138.660156 L 114.160156 134.507812 L 114.511719 122.140625 L 126.839844 120.5 L 129.769531 108.476562 L 142.171875 109.421875 L 147.550781 98.265625 L 159.488281 101.757812 L 167.078125 91.957031 L 178.023438 97.835938 Z M 187.5 89.824219 " clip-rule="nonzero"/></clipPath><clipPath id="11d4e7c2ea"><path d="M 100 100 L 275 100 L 275 275 L 100 275 Z M 100 100 " clip-rule="nonzero"/></clipPath><clipPath id="2b22960c9d"><path d="M 110.097656 90.789062 L 284.210938 110.097656 L 264.902344 284.210938 L 90.789062 264.902344 Z M 110.097656 90.789062 " clip-rule="nonzero"/></clipPath><clipPath id="3c143d3454"><path d="M 197.152344 100.445312 L 208.335938 111.472656 L 223.582031 107.6875 L 230.8125 121.632812 L 246.480469 122.746094 L 249.046875 138.242188 L 263.601562 144.140625 L 261.253906 159.671875 L 273.277344 169.78125 L 266.246094 183.824219 L 274.554688 197.152344 L 263.527344 208.339844 L 267.3125 223.582031 L 253.367188 230.8125 L 252.253906 246.480469 L 236.757812 249.046875 L 230.859375 263.605469 L 215.328125 261.253906 L 205.21875 273.277344 L 191.175781 266.246094 L 177.847656 274.554688 L 166.660156 263.527344 L 151.417969 267.3125 L 144.1875 253.367188 L 128.519531 252.257812 L 125.953125 236.757812 L 111.394531 230.859375 L 113.746094 215.328125 L 101.722656 205.222656 L 108.753906 191.175781 L 100.445312 177.847656 L 111.472656 166.664062 L 107.6875 151.417969 L 121.632812 144.1875 L 122.742188 128.519531 L 138.242188 125.953125 L 144.140625 111.394531 L 159.671875 113.746094 L 169.777344 101.722656 L 183.824219 108.753906 Z M 197.152344 100.445312 " clip-rule="nonzero"/></clipPath></defs><g clip-path="url(#6e6cbee896)"><g clip-path="url(#e5783f4d5c)"><path fill="#4b11ed" d="M 89.824219 89.824219 L 285.175781 89.824219 L 285.175781 285.175781 L 89.824219 285.175781 Z M 89.824219 89.824219 " fill-opacity="1" fill-rule="nonzero"/></g></g><g clip-path="url(#11d4e7c2ea)"><g clip-path="url(#2b22960c9d)"><g clip-path="url(#3c143d3454)"><path fill="#c2fcf7" d="M 110.097656 90.789062 L 284.210938 110.097656 L 264.902344 284.210938 L 90.789062 264.902344 Z M 110.097656 90.789062 " fill-opacity="1" fill-rule="nonzero"/></g></g></g></svg>