<svg xmlns="http://www.w3.org/2000/svg" xmlns:xlink="http://www.w3.org/1999/xlink" width="500" zoomAndPan="magnify" viewBox="0 0 375 374.999991" height="500" preserveAspectRatio="xMidYMid meet" version="1.2"><defs><clipPath id="0cb96eb4cb"><path d="M 2.410156 2.410156 L 372.589844 2.410156 L 372.589844 372.589844 L 2.410156 372.589844 Z M 2.410156 2.410156 "/></clipPath><clipPath id="351c021375"><path d="M 187.5 2.410156 L 205.457031 17.597656 L 226.195312 6.453125 L 240.582031 25.023438 L 263.199219 18.410156 L 273.390625 39.550781 L 296.890625 37.757812 L 302.441406 60.542969 L 325.804688 63.652344 L 326.472656 87.085938 L 348.675781 94.953125 L 344.429688 118.015625 L 364.5 130.304688 L 355.523438 151.980469 L 372.589844 168.152344 L 359.277344 187.5 L 372.589844 206.847656 L 355.523438 223.019531 L 364.5 244.695312 L 344.429688 256.984375 L 348.675781 280.046875 L 326.472656 287.914062 L 325.804688 311.347656 L 302.441406 314.457031 L 296.890625 337.242188 L 273.390625 335.449219 L 263.199219 356.589844 L 240.582031 349.976562 L 226.195312 368.546875 L 205.457031 357.402344 L 187.5 372.589844 L 169.542969 357.402344 L 148.804688 368.546875 L 134.417969 349.976562 L 111.800781 356.589844 L 101.609375 335.449219 L 78.109375 337.242188 L 72.558594 314.457031 L 49.195312 311.347656 L 48.527344 287.914062 L 26.324219 280.046875 L 30.570312 256.984375 L 10.5 244.695312 L 19.476562 223.019531 L 2.410156 206.847656 L 15.722656 187.5 L 2.410156 168.152344 L 19.476562 151.980469 L 10.5 130.304688 L 30.570312 118.015625 L 26.324219 94.953125 L 48.527344 87.085938 L 49.195312 63.652344 L 72.558594 60.542969 L 78.109375 37.757812 L 101.609375 39.550781 L 111.800781 18.410156 L 134.417969 25.023438 L 148.804688 6.453125 L 169.542969 17.597656 Z M 187.5 2.410156 "/></clipPath><clipPath id="366d28847c"><path d="M 22 22 L 353 22 L 353 353 L 22 353 Z M 22 22 "/></clipPath><clipPath id="f3e9d33b7b"><path d="M 40.828125 4.246094 L 370.753906 40.828125 L 334.171875 370.757812 L 4.242188 334.171875 Z M 40.828125 4.246094 "/></clipPath><clipPath id="de565a9506"><path d="M 205.792969 22.539062 L 226.984375 43.4375 L 255.871094 36.265625 L 269.570312 62.691406 L 299.261719 64.792969 L 304.121094 94.160156 L 331.710938 105.335938 L 327.257812 134.765625 L 350.042969 153.921875 L 336.714844 180.535156 L 352.460938 205.792969 L 331.5625 226.988281 L 338.734375 255.875 L 312.308594 269.570312 L 310.203125 299.261719 L 280.839844 304.125 L 269.664062 331.710938 L 240.234375 327.261719 L 221.078125 350.042969 L 194.464844 336.714844 L 169.207031 352.464844 L 148.011719 331.5625 L 119.125 338.738281 L 105.429688 312.3125 L 75.738281 310.207031 L 70.875 280.839844 L 43.289062 269.664062 L 47.738281 240.234375 L 24.957031 221.078125 L 38.285156 194.464844 L 22.535156 169.207031 L 43.433594 148.015625 L 36.261719 119.128906 L 62.6875 105.429688 L 64.792969 75.738281 L 94.160156 70.878906 L 105.335938 43.289062 L 134.765625 47.742188 L 153.921875 24.957031 L 180.535156 38.285156 Z M 205.792969 22.539062 "/></clipPath></defs><g id="1c611cdb88"><g clip-rule="nonzero" clip-path="url(#0cb96eb4cb)"><g clip-rule="nonzero" clip-path="url(#351c021375)"><path style=" stroke:none;fill-rule:nonzero;fill:#4b11ed;fill-opacity:1;" d="M 2.410156 2.410156 L 372.589844 2.410156 L 372.589844 372.589844 L 2.410156 372.589844 Z M 2.410156 2.410156 "/></g></g><g clip-rule="nonzero" clip-path="url(#366d28847c)"><g clip-rule="nonzero" clip-path="url(#f3e9d33b7b)"><g clip-rule="nonzero" clip-path="url(#de565a9506)"><path style=" stroke:none;fill-rule:nonzero;fill:#c2fcf7;fill-opacity:1;" d="M 40.828125 4.246094 L 370.753906 40.828125 L 334.171875 370.757812 L 4.242188 334.171875 Z M 40.828125 4.246094 "/></g></g></g></g></svg>