<svg xmlns="http://www.w3.org/2000/svg" xmlns:xlink="http://www.w3.org/1999/xlink" width="500" zoomAndPan="magnify" viewBox="0 0 375 374.999991" height="500" preserveAspectRatio="xMidYMid meet" version="1.2"><defs><clipPath id="400467ecc7"><path d="M 4.433594 0 L 370.433594 0 L 370.433594 375 L 4.433594 375 Z M 4.433594 0 "/></clipPath></defs><g id="f5d75d7ac8"><path style=" stroke:none;fill-rule:nonzero;fill:#f6f7f8;fill-opacity:1;" d="M 6.785156 64.222656 L 6.785156 231.503906 C 6.785156 265.648438 34.460938 293.324219 68.605469 293.324219 L 130.992188 293.324219 L 181.703125 369.390625 C 184.433594 373.492188 190.464844 373.492188 193.195312 369.390625 L 243.90625 293.324219 L 306.292969 293.324219 C 340.4375 293.324219 368.113281 265.648438 368.113281 231.503906 L 368.113281 64.222656 C 368.113281 30.078125 340.4375 2.402344 306.292969 2.402344 L 68.605469 2.402344 C 34.460938 2.402344 6.785156 30.078125 6.785156 64.222656 Z M 6.785156 64.222656 "/><path style=" stroke:none;fill-rule:nonzero;fill:#fff789;fill-opacity:1;" d="M 288.597656 81.167969 C 278.40625 70.972656 264.582031 65.246094 250.164062 65.246094 L 215.121094 65.246094 L 215.121094 80.882812 C 212.507812 83.792969 210.214844 87.03125 208.355469 90.59375 L 204.972656 97.085938 L 202.046875 91.480469 C 193.6875 75.457031 177.15625 65.019531 159.085938 65.25 L 123.667969 65.25 L 123.667969 78.988281 C 122.875 79.691406 122.097656 80.414062 121.34375 81.167969 C 111.148438 91.359375 105.421875 105.183594 105.421875 119.601562 L 105.421875 125.800781 C 105.421875 140.214844 111.148438 154.039062 121.34375 164.234375 L 187.351562 230.242188 L 169.929688 230.242188 L 169.929688 246.402344 L 204.972656 246.402344 C 205.871094 246.402344 206.773438 246.058594 207.460938 245.371094 L 288.597656 164.234375 C 298.792969 154.039062 304.519531 140.214844 304.519531 125.800781 L 304.519531 119.601562 C 304.519531 105.183594 298.792969 91.359375 288.597656 81.167969 Z M 288.597656 81.167969 "/><path style=" stroke:none;fill-rule:nonzero;fill:#f35695;fill-opacity:1;" d="M 253.554688 81.167969 C 243.363281 70.972656 229.539062 65.246094 215.121094 65.246094 C 197.550781 65.246094 181.4375 75.015625 173.3125 90.59375 L 169.929688 97.085938 L 167.003906 91.480469 C 158.644531 75.457031 142.113281 65.019531 124.042969 65.25 C 109.878906 65.429688 96.332031 71.136719 86.300781 81.167969 C 76.105469 91.359375 70.378906 105.183594 70.378906 119.601562 L 70.378906 125.800781 C 70.378906 140.214844 76.105469 154.039062 86.300781 164.234375 L 167.4375 245.371094 C 168.8125 246.746094 171.042969 246.746094 172.417969 245.371094 L 253.554688 164.234375 C 263.75 154.039062 269.476562 140.214844 269.476562 125.800781 L 269.476562 119.601562 C 269.476562 105.183594 263.75 91.359375 253.554688 81.167969 Z M 253.554688 81.167969 "/><g clip-rule="nonzero" clip-path="url(#400467ecc7)"><path style=" stroke:none;fill-rule:nonzero;fill:#2d2828;fill-opacity:1;" d="M 306.292969 0.0507812 L 68.605469 0.0507812 C 33.21875 0.0507812 4.433594 28.835938 4.433594 64.222656 L 4.433594 231.503906 C 4.433594 266.890625 33.21875 295.675781 68.605469 295.675781 L 129.734375 295.675781 L 179.742188 370.695312 C 181.464844 373.277344 184.347656 374.820312 187.449219 374.820312 C 190.554688 374.816406 193.433594 373.277344 195.152344 370.695312 L 245.164062 295.675781 L 306.292969 295.675781 C 341.679688 295.675781 370.46875 266.890625 370.46875 231.503906 L 370.46875 64.222656 C 370.46875 28.835938 341.679688 0.0507812 306.292969 0.0507812 Z M 365.761719 231.503906 C 365.761719 264.296875 339.085938 290.972656 306.292969 290.972656 L 243.90625 290.972656 C 243.121094 290.972656 242.386719 291.367188 241.949219 292.019531 L 191.238281 368.085938 C 190.378906 369.375 189 370.113281 187.449219 370.113281 C 185.902344 370.113281 184.519531 369.375 183.660156 368.085938 L 132.949219 292.019531 C 132.515625 291.367188 131.777344 290.972656 130.992188 290.972656 L 68.605469 290.972656 C 35.8125 290.972656 9.136719 264.296875 9.136719 231.503906 L 9.136719 64.222656 C 9.136719 31.429688 35.8125 4.753906 68.605469 4.753906 L 306.292969 4.753906 C 339.085938 4.753906 365.761719 31.429688 365.761719 64.222656 Z M 250.164062 62.894531 L 215.121094 62.894531 C 204.941406 62.894531 195.289062 65.992188 187.226562 71.492188 C 178.945312 65.898438 169.148438 62.753906 159.085938 62.898438 L 124.699219 62.898438 C 124.667969 62.898438 124.640625 62.894531 124.609375 62.894531 C 124.414062 62.894531 124.210938 62.894531 124.015625 62.898438 L 123.667969 62.898438 C 123.601562 62.898438 123.535156 62.914062 123.46875 62.917969 C 108.800781 63.242188 95.027344 69.113281 84.636719 79.503906 C 73.925781 90.214844 68.027344 104.453125 68.027344 119.601562 L 68.027344 125.800781 C 68.027344 140.945312 73.925781 155.1875 84.636719 165.898438 L 165.773438 247.035156 C 166.882812 248.144531 168.359375 248.753906 169.929688 248.753906 L 204.96875 248.753906 C 206.539062 248.753906 208.015625 248.144531 209.125 247.035156 L 290.261719 165.898438 C 300.972656 155.1875 306.871094 140.945312 306.871094 125.800781 L 306.871094 119.601562 C 306.871094 104.453125 300.972656 90.214844 290.261719 79.503906 C 279.550781 68.792969 265.3125 62.894531 250.164062 62.894531 Z M 302.167969 125.800781 C 302.167969 139.6875 296.757812 152.75 286.9375 162.570312 L 205.800781 243.707031 C 205.5 244.003906 205.152344 244.050781 204.96875 244.050781 L 177.066406 244.050781 L 255.21875 165.898438 C 265.929688 155.1875 271.828125 140.945312 271.828125 125.800781 L 271.828125 119.601562 C 271.828125 104.453125 265.929688 90.214844 255.21875 79.503906 C 250.113281 74.398438 244.199219 70.398438 237.773438 67.597656 L 250.164062 67.597656 C 264.054688 67.597656 277.113281 73.007812 286.9375 82.828125 C 296.757812 92.652344 302.167969 105.710938 302.167969 119.601562 Z M 72.734375 119.601562 C 72.734375 105.710938 78.140625 92.652344 87.964844 82.828125 C 96.957031 73.835938 108.710938 68.53125 121.316406 67.714844 C 122.097656 67.664062 122.882812 67.632812 123.667969 67.617188 C 123.804688 67.613281 123.9375 67.605469 124.074219 67.601562 C 124.253906 67.601562 124.429688 67.597656 124.613281 67.597656 C 125.082031 67.597656 125.550781 67.636719 126.019531 67.652344 C 142.09375 68.183594 157.207031 77.785156 164.917969 92.566406 L 167.84375 98.175781 C 168.246094 98.953125 169.050781 99.4375 169.929688 99.4375 C 170.804688 99.4375 171.609375 98.953125 172.015625 98.175781 L 175.398438 91.679688 C 178.359375 86.003906 182.421875 81.15625 187.234375 77.320312 C 187.882812 76.804688 188.542969 76.304688 189.214844 75.828125 C 189.878906 75.359375 190.558594 74.921875 191.242188 74.488281 C 197.613281 70.472656 204.988281 68.082031 212.769531 67.679688 C 213.550781 67.640625 214.332031 67.597656 215.121094 67.597656 C 215.910156 67.597656 216.691406 67.621094 217.472656 67.65625 C 230.480469 68.230469 242.628906 73.5625 251.894531 82.828125 C 261.714844 92.652344 267.125 105.710938 267.125 119.601562 L 267.125 125.800781 C 267.125 139.6875 261.714844 152.75 251.894531 162.570312 L 187.449219 227.015625 L 185.785156 228.675781 L 184.222656 230.242188 L 170.757812 243.707031 C 170.527344 243.9375 170.226562 244.050781 169.929688 244.050781 C 169.628906 244.050781 169.328125 243.933594 169.101562 243.707031 L 167.574219 242.183594 L 87.964844 162.570312 C 78.140625 152.75 72.734375 139.691406 72.734375 125.800781 Z M 159.65625 67.597656 C 168.03125 67.597656 176.199219 70.09375 183.257812 74.511719 C 178.402344 78.605469 174.28125 83.652344 171.226562 89.507812 L 169.929688 92 L 169.089844 90.390625 C 163.785156 80.21875 155.273438 72.285156 145.308594 67.601562 L 159.117188 67.601562 C 159.296875 67.601562 159.472656 67.597656 159.65625 67.597656 Z M 159.65625 67.597656 "/></g></g></svg>