<svg xmlns="http://www.w3.org/2000/svg" xmlns:xlink="http://www.w3.org/1999/xlink" width="500" zoomAndPan="magnify" viewBox="0 0 375 374.999991" height="500" preserveAspectRatio="xMidYMid meet" version="1.2"><defs><clipPath id="c6b3415d0d"><path d="M 0 145.226562 L 375 145.226562 L 375 222 L 0 222 Z M 0 145.226562 "/></clipPath><clipPath id="44e8588b3a"><path d="M 0 145.226562 L 375 145.226562 L 375 229.976562 L 0 229.976562 Z M 0 145.226562 "/></clipPath></defs><g id="220be00835"><g clip-rule="nonzero" clip-path="url(#c6b3415d0d)"><path style=" stroke:none;fill-rule:nonzero;fill:#c2fcf7;fill-opacity:1;" d="M 28.109375 158.527344 L 28.109375 160.996094 C 28.109375 165.90625 25.257812 170.367188 20.800781 172.425781 L 2.644531 180.816406 C 0.0546875 182.015625 0.0546875 185.699219 2.644531 186.894531 L 20.800781 195.285156 C 25.257812 197.347656 28.109375 201.808594 28.109375 206.714844 L 28.109375 209.183594 C 28.109375 216.136719 33.746094 221.777344 40.699219 221.777344 L 362.578125 221.777344 C 369.050781 221.777344 374.296875 216.527344 374.296875 210.054688 L 374.296875 157.65625 C 374.296875 151.183594 369.050781 145.9375 362.578125 145.9375 L 40.699219 145.9375 C 33.746094 145.9375 28.109375 151.574219 28.109375 158.527344 Z M 28.109375 158.527344 "/></g><path style=" stroke:none;fill-rule:nonzero;fill:#fff789;fill-opacity:1;" d="M 68.957031 156.355469 L 77.210938 173.105469 L 95.695312 175.78125 L 82.3125 188.804688 L 85.480469 207.210938 L 68.957031 198.511719 L 52.433594 207.210938 L 55.601562 188.804688 L 42.222656 175.78125 L 60.703125 173.105469 Z M 127.195312 173.105469 L 108.714844 175.78125 L 122.097656 188.804688 L 118.925781 207.210938 L 135.453125 198.511719 L 151.976562 207.210938 L 148.808594 188.804688 L 162.1875 175.78125 L 143.707031 173.105469 L 135.453125 156.355469 Z M 193.691406 173.105469 L 175.207031 175.78125 L 188.589844 188.804688 L 185.421875 207.210938 L 201.945312 198.511719 L 218.46875 207.210938 L 215.300781 188.804688 L 228.679688 175.78125 L 210.199219 173.105469 L 201.945312 156.355469 Z M 260.183594 173.105469 L 241.703125 175.78125 L 255.082031 188.804688 L 251.914062 207.210938 L 268.4375 198.511719 L 284.960938 207.210938 L 281.792969 188.804688 L 295.175781 175.78125 L 276.691406 173.105469 L 268.4375 156.355469 Z M 260.183594 173.105469 "/><path style=" stroke:none;fill-rule:nonzero;fill:#c2fcf7;fill-opacity:1;" d="M 334.933594 156.355469 L 343.1875 173.105469 L 361.667969 175.78125 L 348.289062 188.804688 L 351.457031 207.210938 L 334.933594 198.511719 L 318.40625 207.210938 L 321.574219 188.804688 L 308.195312 175.78125 L 326.675781 173.105469 Z M 334.933594 156.355469 "/><g clip-rule="nonzero" clip-path="url(#44e8588b3a)"><path style=" stroke:none;fill-rule:nonzero;fill:#2d2828;fill-opacity:1;" d="M 362.578125 145.234375 L 40.699219 145.234375 C 33.371094 145.234375 27.40625 151.199219 27.40625 158.527344 L 27.40625 160.996094 C 27.40625 165.613281 24.699219 169.851562 20.503906 171.789062 L 2.351562 180.179688 C 0.902344 180.847656 0 182.257812 0 183.855469 C 0 185.453125 0.902344 186.863281 2.351562 187.535156 L 5.53125 189.003906 C 4.714844 189.753906 4.230469 190.816406 4.230469 191.976562 C 4.230469 193.574219 5.132812 194.984375 6.582031 195.65625 L 24.183594 203.789062 C 25.386719 204.34375 26.457031 205.097656 27.378906 205.992188 C 27.394531 206.234375 27.40625 206.472656 27.40625 206.714844 L 27.40625 209.183594 C 27.40625 212.699219 28.78125 215.898438 31.015625 218.277344 C 31.78125 224.730469 37.28125 229.75 43.933594 229.75 L 358.609375 229.75 C 364.65625 229.75 369.6875 225.3125 370.613281 219.519531 C 373.292969 217.238281 375 213.84375 375 210.054688 L 375 157.65625 C 375 150.808594 369.425781 145.234375 362.578125 145.234375 Z M 373.59375 210.054688 C 373.59375 212.882812 372.523438 215.464844 370.769531 217.414062 C 370.539062 217.667969 370.300781 217.910156 370.050781 218.140625 C 369.808594 218.367188 369.554688 218.578125 369.292969 218.78125 C 367.433594 220.214844 365.105469 221.074219 362.578125 221.074219 L 40.699219 221.074219 C 37.457031 221.074219 34.515625 219.765625 32.367188 217.652344 C 32.109375 217.398438 31.863281 217.132812 31.628906 216.855469 C 31.378906 216.558594 31.140625 216.253906 30.921875 215.933594 C 29.59375 214.015625 28.8125 211.691406 28.8125 209.183594 L 28.8125 206.714844 C 28.8125 206.640625 28.804688 206.570312 28.804688 206.492188 C 28.796875 206.113281 28.773438 205.738281 28.734375 205.367188 C 28.257812 200.738281 25.371094 196.625 21.09375 194.648438 L 8.648438 188.894531 L 7.8125 188.507812 L 6.972656 188.121094 L 2.941406 186.257812 C 1.980469 185.8125 1.40625 184.914062 1.40625 183.855469 C 1.40625 182.796875 1.980469 181.898438 2.941406 181.457031 L 21.09375 173.066406 C 25.78125 170.898438 28.8125 166.160156 28.8125 160.996094 L 28.8125 158.527344 C 28.8125 151.972656 34.144531 146.640625 40.699219 146.640625 L 362.578125 146.640625 C 368.652344 146.640625 373.59375 151.582031 373.59375 157.65625 Z M 229.351562 175.5625 C 229.265625 175.308594 229.046875 175.121094 228.78125 175.082031 L 210.667969 172.464844 L 202.574219 156.042969 C 202.457031 155.804688 202.210938 155.652344 201.945312 155.652344 C 201.675781 155.652344 201.433594 155.804688 201.316406 156.042969 L 193.222656 172.464844 L 175.105469 175.082031 C 174.84375 175.121094 174.621094 175.308594 174.539062 175.5625 C 174.457031 175.816406 174.527344 176.097656 174.71875 176.285156 L 176.15625 177.683594 L 175.105469 177.832031 C 174.84375 177.871094 174.621094 178.058594 174.539062 178.3125 C 174.457031 178.566406 174.527344 178.847656 174.71875 179.03125 L 187.429688 191.40625 L 184.726562 207.089844 C 184.683594 207.355469 184.792969 207.621094 185.007812 207.777344 C 185.03125 207.792969 185.054688 207.804688 185.078125 207.816406 L 184.726562 209.839844 C 184.683594 210.105469 184.789062 210.371094 185.007812 210.527344 C 185.222656 210.6875 185.511719 210.707031 185.75 210.582031 L 201.945312 202.054688 L 218.140625 210.582031 C 218.246094 210.636719 218.355469 210.664062 218.46875 210.664062 C 218.613281 210.664062 218.757812 210.617188 218.882812 210.527344 C 219.097656 210.371094 219.207031 210.105469 219.160156 209.839844 L 218.8125 207.8125 C 218.835938 207.800781 218.859375 207.792969 218.882812 207.777344 C 219.097656 207.621094 219.207031 207.355469 219.160156 207.089844 L 216.460938 191.40625 L 229.171875 179.03125 C 229.363281 178.847656 229.433594 178.566406 229.351562 178.3125 C 229.265625 178.058594 229.046875 177.871094 228.78125 177.832031 L 227.734375 177.683594 L 229.171875 176.285156 C 229.363281 176.097656 229.433594 175.816406 229.351562 175.5625 Z M 225.34375 178.046875 L 224.710938 178.664062 L 214.808594 188.300781 C 214.644531 188.464844 214.570312 188.695312 214.609375 188.925781 L 214.949219 190.914062 L 217.535156 205.921875 L 217.011719 205.648438 L 202.273438 197.886719 C 202.066406 197.78125 201.820312 197.78125 201.617188 197.886719 L 186.875 205.648438 L 186.355469 205.921875 L 188.9375 190.914062 L 189.28125 188.925781 C 189.320312 188.695312 189.246094 188.464844 189.078125 188.300781 L 179.179688 178.664062 L 178.542969 178.046875 L 177.910156 177.429688 L 176.722656 176.269531 L 193.792969 173.800781 C 193.84375 173.792969 193.890625 173.777344 193.9375 173.761719 C 194.105469 173.699219 194.242188 173.578125 194.320312 173.417969 L 201.695312 158.453125 L 201.945312 157.945312 L 202.195312 158.453125 L 209.570312 173.417969 C 209.648438 173.578125 209.785156 173.699219 209.949219 173.761719 C 210 173.777344 210.046875 173.792969 210.097656 173.800781 L 227.167969 176.269531 L 225.980469 177.429688 Z M 96.363281 175.5625 C 96.28125 175.308594 96.058594 175.121094 95.796875 175.082031 L 77.679688 172.464844 L 69.589844 156.042969 C 69.46875 155.804688 69.226562 155.652344 68.957031 155.652344 C 68.691406 155.652344 68.445312 155.804688 68.328125 156.042969 L 60.238281 172.464844 L 42.121094 175.082031 C 41.855469 175.121094 41.636719 175.308594 41.554688 175.5625 C 41.46875 175.816406 41.539062 176.097656 41.730469 176.285156 L 43.167969 177.683594 L 42.121094 177.832031 C 41.855469 177.871094 41.636719 178.058594 41.554688 178.3125 C 41.46875 178.566406 41.539062 178.847656 41.730469 179.03125 L 54.441406 191.40625 L 51.742188 207.089844 C 51.695312 207.355469 51.804688 207.621094 52.019531 207.777344 C 52.042969 207.792969 52.066406 207.804688 52.089844 207.816406 L 51.742188 209.839844 C 51.695312 210.105469 51.804688 210.371094 52.019531 210.527344 C 52.238281 210.6875 52.523438 210.707031 52.761719 210.582031 L 68.957031 202.054688 L 85.15625 210.582031 C 85.257812 210.636719 85.371094 210.664062 85.480469 210.664062 C 85.628906 210.664062 85.773438 210.617188 85.894531 210.527344 C 86.113281 210.371094 86.21875 210.105469 86.175781 209.839844 L 85.824219 207.8125 C 85.847656 207.800781 85.875 207.792969 85.894531 207.777344 C 86.113281 207.621094 86.21875 207.355469 86.175781 207.089844 L 83.476562 191.40625 L 96.183594 179.03125 C 96.375 178.847656 96.445312 178.566406 96.363281 178.3125 C 96.28125 178.058594 96.058594 177.871094 95.796875 177.832031 L 94.75 177.683594 L 96.183594 176.285156 C 96.375 176.097656 96.445312 175.816406 96.363281 175.5625 Z M 92.359375 178.046875 L 91.722656 178.664062 L 81.824219 188.300781 C 81.65625 188.464844 81.582031 188.695312 81.621094 188.925781 L 81.964844 190.914062 L 84.546875 205.921875 L 84.027344 205.648438 L 69.285156 197.886719 C 69.183594 197.832031 69.070312 197.808594 68.957031 197.808594 C 68.84375 197.808594 68.734375 197.832031 68.628906 197.886719 L 53.890625 205.648438 L 53.367188 205.921875 L 55.953125 190.914062 L 56.296875 188.925781 C 56.335938 188.695312 56.257812 188.464844 56.09375 188.300781 L 46.191406 178.664062 L 45.558594 178.046875 L 44.921875 177.429688 L 43.734375 176.269531 L 60.804688 173.800781 C 60.855469 173.792969 60.90625 173.777344 60.953125 173.761719 C 61.117188 173.699219 61.253906 173.578125 61.332031 173.417969 L 68.707031 158.453125 L 68.957031 157.945312 L 69.207031 158.453125 L 76.582031 173.417969 C 76.660156 173.578125 76.800781 173.699219 76.964844 173.761719 C 77.011719 173.777344 77.058594 173.792969 77.113281 173.800781 L 94.183594 176.269531 L 92.992188 177.429688 Z M 295.84375 175.5625 C 295.761719 175.308594 295.539062 175.121094 295.277344 175.082031 L 277.160156 172.464844 L 269.070312 156.042969 C 268.949219 155.804688 268.707031 155.652344 268.4375 155.652344 C 268.171875 155.652344 267.925781 155.804688 267.808594 156.042969 L 259.71875 172.464844 L 241.601562 175.082031 C 241.335938 175.121094 241.117188 175.308594 241.035156 175.5625 C 240.949219 175.816406 241.019531 176.097656 241.210938 176.285156 L 242.648438 177.683594 L 241.601562 177.832031 C 241.335938 177.871094 241.117188 178.058594 241.035156 178.3125 C 240.949219 178.566406 241.019531 178.847656 241.210938 179.03125 L 253.921875 191.40625 L 251.222656 207.089844 C 251.175781 207.355469 251.285156 207.621094 251.5 207.777344 C 251.523438 207.792969 251.546875 207.804688 251.570312 207.816406 L 251.222656 209.839844 C 251.175781 210.105469 251.285156 210.371094 251.5 210.527344 C 251.71875 210.6875 252.003906 210.707031 252.242188 210.582031 L 268.4375 202.054688 L 284.636719 210.582031 C 284.738281 210.636719 284.851562 210.664062 284.960938 210.664062 C 285.109375 210.664062 285.253906 210.617188 285.375 210.527344 C 285.59375 210.371094 285.699219 210.105469 285.65625 209.839844 L 285.304688 207.8125 C 285.328125 207.800781 285.355469 207.792969 285.375 207.777344 C 285.59375 207.621094 285.699219 207.355469 285.65625 207.089844 L 282.953125 191.40625 L 295.664062 179.03125 C 295.855469 178.847656 295.925781 178.566406 295.84375 178.3125 C 295.761719 178.058594 295.539062 177.871094 295.277344 177.832031 L 294.230469 177.683594 L 295.664062 176.285156 C 295.855469 176.097656 295.925781 175.816406 295.84375 175.5625 Z M 291.839844 178.046875 L 291.203125 178.664062 L 281.304688 188.300781 C 281.136719 188.464844 281.0625 188.695312 281.101562 188.925781 L 281.445312 190.914062 L 284.027344 205.921875 L 283.507812 205.648438 L 268.765625 197.886719 C 268.5625 197.78125 268.316406 197.78125 268.109375 197.886719 L 253.371094 205.648438 L 252.847656 205.921875 L 255.433594 190.914062 L 255.773438 188.925781 C 255.816406 188.695312 255.738281 188.464844 255.574219 188.300781 L 245.671875 178.664062 L 245.039062 178.046875 L 244.402344 177.429688 L 243.214844 176.269531 L 260.285156 173.800781 C 260.335938 173.792969 260.386719 173.777344 260.433594 173.761719 C 260.597656 173.699219 260.734375 173.578125 260.816406 173.417969 L 268.1875 158.453125 L 268.4375 157.945312 L 268.6875 158.453125 L 276.0625 173.417969 C 276.140625 173.578125 276.28125 173.699219 276.445312 173.761719 C 276.492188 173.777344 276.539062 173.792969 276.589844 173.800781 L 293.664062 176.269531 L 292.472656 177.429688 Z M 162.855469 175.5625 C 162.773438 175.308594 162.554688 175.121094 162.289062 175.082031 L 144.171875 172.464844 L 136.082031 156.042969 C 135.964844 155.804688 135.71875 155.652344 135.453125 155.652344 C 135.183594 155.652344 134.9375 155.804688 134.820312 156.042969 L 126.730469 172.464844 L 108.613281 175.082031 C 108.347656 175.121094 108.128906 175.308594 108.046875 175.5625 C 107.964844 175.816406 108.03125 176.097656 108.226562 176.285156 L 109.660156 177.683594 L 108.613281 177.832031 C 108.347656 177.871094 108.128906 178.058594 108.046875 178.3125 C 107.964844 178.566406 108.03125 178.847656 108.226562 179.03125 L 120.933594 191.40625 L 118.234375 207.089844 C 118.1875 207.355469 118.296875 207.621094 118.515625 207.777344 C 118.535156 207.792969 118.558594 207.804688 118.582031 207.816406 L 118.234375 209.839844 C 118.1875 210.105469 118.296875 210.371094 118.515625 210.527344 C 118.730469 210.6875 119.019531 210.707031 119.253906 210.582031 L 135.453125 202.054688 L 151.648438 210.582031 C 151.75 210.636719 151.863281 210.664062 151.976562 210.664062 C 152.121094 210.664062 152.265625 210.617188 152.386719 210.527344 C 152.605469 210.371094 152.714844 210.105469 152.667969 209.839844 L 152.320312 207.8125 C 152.34375 207.800781 152.367188 207.792969 152.386719 207.777344 C 152.605469 207.621094 152.714844 207.355469 152.667969 207.089844 L 149.96875 191.40625 L 162.679688 179.03125 C 162.871094 178.847656 162.9375 178.566406 162.855469 178.3125 C 162.773438 178.058594 162.554688 177.871094 162.289062 177.832031 L 161.242188 177.683594 L 162.679688 176.285156 C 162.871094 176.097656 162.9375 175.816406 162.855469 175.5625 Z M 158.851562 178.046875 L 158.214844 178.664062 L 148.316406 188.300781 C 148.152344 188.464844 148.074219 188.695312 148.113281 188.925781 L 148.457031 190.914062 L 151.039062 205.921875 L 150.519531 205.648438 L 135.777344 197.886719 C 135.574219 197.78125 135.328125 197.78125 135.125 197.886719 L 120.382812 205.648438 L 119.863281 205.921875 L 122.445312 190.914062 L 122.789062 188.925781 C 122.828125 188.695312 122.75 188.464844 122.585938 188.300781 L 112.6875 178.664062 L 111.414062 177.429688 L 110.226562 176.269531 L 127.296875 173.800781 C 127.347656 173.792969 127.398438 173.777344 127.445312 173.761719 C 127.609375 173.699219 127.746094 173.578125 127.828125 173.417969 L 135.199219 158.453125 L 135.453125 157.945312 L 135.703125 158.453125 L 143.074219 173.417969 C 143.15625 173.578125 143.292969 173.699219 143.457031 173.761719 C 143.503906 173.777344 143.554688 173.792969 143.605469 173.800781 L 160.675781 176.269531 L 159.488281 177.429688 Z M 362.335938 175.5625 C 362.253906 175.308594 362.035156 175.121094 361.769531 175.082031 L 343.652344 172.464844 L 335.5625 156.042969 C 335.445312 155.804688 335.199219 155.652344 334.933594 155.652344 C 334.664062 155.652344 334.417969 155.804688 334.300781 156.042969 L 326.210938 172.464844 L 308.09375 175.082031 C 307.828125 175.121094 307.609375 175.308594 307.527344 175.5625 C 307.445312 175.816406 307.511719 176.097656 307.703125 176.285156 L 309.140625 177.683594 L 308.09375 177.832031 C 307.828125 177.871094 307.609375 178.058594 307.527344 178.3125 C 307.445312 178.566406 307.511719 178.847656 307.703125 179.03125 L 320.414062 191.40625 L 317.714844 207.089844 C 317.667969 207.355469 317.777344 207.621094 317.996094 207.777344 C 318.015625 207.792969 318.039062 207.804688 318.0625 207.816406 L 317.714844 209.839844 C 317.667969 210.105469 317.777344 210.371094 317.996094 210.527344 C 318.210938 210.6875 318.5 210.707031 318.734375 210.582031 L 334.933594 202.054688 L 351.128906 210.582031 C 351.230469 210.636719 351.34375 210.664062 351.457031 210.664062 C 351.601562 210.664062 351.746094 210.617188 351.867188 210.527344 C 352.085938 210.371094 352.195312 210.105469 352.148438 209.839844 L 351.800781 207.8125 C 351.824219 207.800781 351.847656 207.792969 351.867188 207.777344 C 352.085938 207.621094 352.195312 207.355469 352.148438 207.089844 L 349.449219 191.40625 L 362.160156 179.03125 C 362.351562 178.847656 362.417969 178.566406 362.335938 178.3125 C 362.253906 178.058594 362.035156 177.871094 361.769531 177.832031 L 360.722656 177.683594 L 362.160156 176.285156 C 362.351562 176.097656 362.417969 175.816406 362.335938 175.5625 Z M 358.332031 178.046875 L 357.695312 178.664062 L 347.796875 188.300781 C 347.632812 188.464844 347.554688 188.695312 347.59375 188.925781 L 347.9375 190.914062 L 350.519531 205.921875 L 350 205.648438 L 335.257812 197.886719 C 335.054688 197.78125 334.808594 197.78125 334.605469 197.886719 L 319.863281 205.648438 L 319.34375 205.921875 L 321.925781 190.914062 L 322.269531 188.925781 C 322.308594 188.695312 322.234375 188.464844 322.066406 188.300781 L 312.167969 178.664062 L 310.894531 177.429688 L 309.707031 176.269531 L 326.777344 173.800781 C 326.828125 173.792969 326.878906 173.777344 326.925781 173.761719 C 327.089844 173.699219 327.226562 173.578125 327.308594 173.417969 L 334.679688 158.453125 L 334.933594 157.945312 L 335.183594 158.453125 L 342.554688 173.417969 C 342.636719 173.578125 342.773438 173.699219 342.9375 173.761719 C 342.984375 173.777344 343.035156 173.792969 343.085938 173.800781 L 360.15625 176.269531 L 358.96875 177.429688 Z M 358.332031 178.046875 "/></g></g></svg>