<svg xmlns="http://www.w3.org/2000/svg" xmlns:xlink="http://www.w3.org/1999/xlink" width="500" zoomAndPan="magnify" viewBox="0 0 375 374.999991" height="500" preserveAspectRatio="xMidYMid meet" version="1.2"><defs><clipPath id="1f807fa261"><path d="M 18.75 1.503906 L 356.25 1.503906 L 356.25 373.503906 L 18.75 373.503906 Z M 18.75 1.503906 "/></clipPath><clipPath id="c62ea3ea3b"><path d="M 18.75 1.503906 L 356.25 1.503906 L 356.25 373.503906 L 18.75 373.503906 Z M 18.75 1.503906 "/></clipPath></defs><g id="2c90268777"><g clip-rule="nonzero" clip-path="url(#1f807fa261)"><path style=" stroke:none;fill-rule:nonzero;fill:#2d2828;fill-opacity:1;" d="M 32.230469 373.292969 C 24.871094 373.292969 18.882812 367.304688 18.882812 359.945312 L 18.882812 44.066406 C 18.882812 37.988281 23 32.679688 28.890625 31.15625 L 28.96875 31.136719 L 28.988281 31.058594 C 30.195312 26.359375 33.867188 22.6875 38.566406 21.480469 L 38.640625 21.460938 L 38.660156 21.382812 C 39.871094 16.683594 43.542969 13.011719 48.242188 11.804688 L 48.320312 11.785156 L 48.339844 11.707031 C 49.863281 5.816406 55.171875 1.703125 61.25 1.703125 L 342.785156 1.703125 C 350.144531 1.703125 356.128906 7.6875 356.128906 15.046875 L 356.128906 330.929688 C 356.128906 337.007812 352.015625 342.316406 346.125 343.839844 L 346.046875 343.859375 L 346.027344 343.933594 C 344.820312 348.632812 341.148438 352.304688 336.449219 353.515625 L 336.371094 353.535156 L 336.351562 353.613281 C 335.144531 358.3125 331.472656 361.980469 326.773438 363.1875 L 326.695312 363.210938 L 326.675781 363.285156 C 325.152344 369.179688 319.84375 373.292969 313.765625 373.292969 Z M 32.230469 373.292969 "/></g><path style=" stroke:none;fill-rule:nonzero;fill:#fff789;fill-opacity:1;" d="M 345.378906 343.195312 C 344.359375 348.039062 340.546875 351.851562 335.707031 352.867188 C 334.871094 353.046875 334 353.140625 333.113281 353.140625 L 51.574219 353.140625 C 44.652344 353.140625 39.039062 347.527344 39.039062 340.601562 L 39.039062 24.71875 C 39.039062 23.832031 39.132812 22.964844 39.308594 22.125 C 40.328125 17.285156 44.140625 13.472656 48.980469 12.453125 C 48.953125 12.59375 48.929688 12.734375 48.902344 12.875 C 48.78125 13.582031 48.710938 14.304688 48.710938 15.046875 L 48.710938 330.929688 C 48.710938 337.851562 54.324219 343.46875 61.25 343.46875 L 342.785156 343.46875 C 343.675781 343.46875 344.542969 343.371094 345.378906 343.195312 Z M 187.507812 20.636719 C 190.230469 20.636719 192.4375 18.429688 192.4375 15.707031 C 192.4375 12.984375 190.230469 10.777344 187.507812 10.777344 C 184.785156 10.777344 182.578125 12.984375 182.578125 15.707031 C 182.578125 18.429688 184.785156 20.636719 187.507812 20.636719 Z M 77.230469 56.171875 C 85.097656 56.171875 91.476562 49.792969 91.476562 41.925781 C 91.476562 34.054688 85.097656 27.675781 77.230469 27.675781 C 69.359375 27.675781 62.980469 34.054688 62.980469 41.925781 C 62.980469 49.792969 69.359375 56.171875 77.230469 56.171875 Z M 77.230469 56.171875 "/><path style=" stroke:none;fill-rule:nonzero;fill:#f35695;fill-opacity:1;" d="M 335.707031 352.867188 C 334.6875 357.710938 330.875 361.523438 326.035156 362.542969 C 325.195312 362.71875 324.328125 362.8125 323.4375 362.8125 L 41.902344 362.8125 C 34.976562 362.8125 29.363281 357.199219 29.363281 350.273438 L 29.363281 34.394531 C 29.363281 33.503906 29.460938 32.636719 29.636719 31.796875 C 30.65625 26.957031 34.464844 23.144531 39.308594 22.125 C 39.132812 22.964844 39.039062 23.832031 39.039062 24.71875 L 39.039062 340.601562 C 39.039062 347.527344 44.652344 353.140625 51.574219 353.140625 L 333.113281 353.140625 C 334 353.140625 334.871094 353.046875 335.707031 352.867188 Z M 204.984375 20.636719 C 207.707031 20.636719 209.914062 18.429688 209.914062 15.707031 C 209.914062 12.984375 207.707031 10.777344 204.984375 10.777344 C 202.261719 10.777344 200.054688 12.984375 200.054688 15.707031 C 200.054688 18.429688 202.261719 20.636719 204.984375 20.636719 Z M 104.980469 40.816406 L 139.933594 40.816406 C 141.542969 40.816406 142.847656 39.511719 142.847656 37.902344 L 142.847656 34.800781 C 142.847656 33.191406 141.542969 31.886719 139.933594 31.886719 L 104.980469 31.886719 C 103.371094 31.886719 102.066406 33.191406 102.066406 34.800781 L 102.066406 37.902344 C 102.066406 39.511719 103.371094 40.816406 104.980469 40.816406 Z M 104.980469 40.816406 "/><path style=" stroke:none;fill-rule:nonzero;fill:#4b11ed;fill-opacity:1;" d="M 323.4375 362.8125 C 324.328125 362.8125 325.195312 362.71875 326.035156 362.542969 C 324.839844 368.222656 319.800781 372.484375 313.765625 372.484375 L 32.230469 372.484375 C 25.304688 372.484375 19.691406 366.871094 19.691406 359.945312 L 19.691406 44.066406 C 19.691406 38.03125 23.957031 32.992188 29.636719 31.796875 C 29.460938 32.636719 29.363281 33.503906 29.363281 34.394531 L 29.363281 350.273438 C 29.363281 357.199219 34.976562 362.8125 41.902344 362.8125 Z M 340.164062 66.144531 L 340.164062 290.554688 L 63.871094 290.554688 L 63.871094 66.144531 Z M 290.519531 195.703125 C 290.519531 183.140625 280.332031 172.957031 267.769531 172.957031 L 262.246094 172.957031 C 262.246094 154.578125 247.347656 139.675781 228.96875 139.675781 C 224.691406 139.675781 220.609375 140.492188 216.851562 141.960938 C 209.058594 128.902344 194.796875 120.152344 178.484375 120.152344 C 153.820312 120.152344 133.828125 140.148438 133.828125 164.8125 C 133.828125 167.617188 134.097656 170.359375 134.59375 173.023438 C 122.8125 173.878906 113.515625 183.703125 113.515625 195.703125 C 113.515625 208.265625 123.699219 218.453125 136.261719 218.453125 L 267.769531 218.453125 C 280.332031 218.453125 290.519531 208.265625 290.519531 195.703125 Z M 222.460938 20.636719 C 225.183594 20.636719 227.390625 18.429688 227.390625 15.707031 C 227.390625 12.984375 225.183594 10.777344 222.460938 10.777344 C 219.738281 10.777344 217.53125 12.984375 217.53125 15.707031 C 217.53125 18.429688 219.738281 20.636719 222.460938 20.636719 Z M 104.980469 51.960938 L 158.679688 51.960938 C 160.289062 51.960938 161.59375 50.65625 161.59375 49.046875 C 161.59375 47.4375 160.289062 46.132812 158.679688 46.132812 L 104.980469 46.132812 C 103.371094 46.132812 102.066406 47.4375 102.066406 49.046875 C 102.066406 50.65625 103.371094 51.960938 104.980469 51.960938 Z M 104.980469 51.960938 "/><path style=" stroke:none;fill-rule:nonzero;fill:#f6f7f8;fill-opacity:1;" d="M 342.785156 2.507812 L 61.25 2.507812 C 55.214844 2.507812 50.175781 6.773438 48.980469 12.453125 C 48.953125 12.59375 48.929688 12.734375 48.902344 12.875 C 48.78125 13.582031 48.710938 14.304688 48.710938 15.046875 L 48.710938 330.929688 C 48.710938 337.851562 54.324219 343.464844 61.25 343.464844 L 342.785156 343.464844 C 343.675781 343.464844 344.542969 343.371094 345.378906 343.195312 C 351.058594 342 355.324219 336.964844 355.324219 330.929688 L 355.324219 15.046875 C 355.324219 8.121094 349.710938 2.507812 342.785156 2.507812 Z M 222.460938 10.777344 C 225.183594 10.777344 227.390625 12.984375 227.390625 15.707031 C 227.390625 18.429688 225.183594 20.636719 222.460938 20.636719 C 219.738281 20.636719 217.53125 18.429688 217.53125 15.707031 C 217.53125 12.984375 219.738281 10.777344 222.460938 10.777344 Z M 204.984375 10.777344 C 207.707031 10.777344 209.914062 12.984375 209.914062 15.707031 C 209.914062 18.429688 207.707031 20.636719 204.984375 20.636719 C 202.261719 20.636719 200.054688 18.429688 200.054688 15.707031 C 200.054688 12.984375 202.261719 10.777344 204.984375 10.777344 Z M 187.507812 10.777344 C 190.230469 10.777344 192.4375 12.984375 192.4375 15.707031 C 192.4375 18.429688 190.230469 20.636719 187.507812 20.636719 C 184.785156 20.636719 182.578125 18.429688 182.578125 15.707031 C 182.578125 12.984375 184.785156 10.777344 187.507812 10.777344 Z M 102.066406 34.800781 C 102.066406 33.191406 103.371094 31.886719 104.980469 31.886719 L 139.933594 31.886719 C 141.542969 31.886719 142.847656 33.191406 142.847656 34.800781 L 142.847656 37.902344 C 142.847656 39.511719 141.542969 40.816406 139.933594 40.816406 L 104.980469 40.816406 C 103.371094 40.816406 102.066406 39.511719 102.066406 37.902344 Z M 104.980469 46.132812 L 158.679688 46.132812 C 160.289062 46.132812 161.59375 47.4375 161.59375 49.046875 C 161.59375 50.65625 160.289062 51.960938 158.679688 51.960938 L 104.980469 51.960938 C 103.371094 51.960938 102.066406 50.65625 102.066406 49.046875 C 102.066406 47.4375 103.371094 46.132812 104.980469 46.132812 Z M 77.230469 27.675781 C 85.097656 27.675781 91.476562 34.054688 91.476562 41.925781 C 91.476562 49.792969 85.097656 56.171875 77.230469 56.171875 C 69.359375 56.171875 62.980469 49.792969 62.980469 41.925781 C 62.980469 34.054688 69.359375 27.675781 77.230469 27.675781 Z M 340.164062 290.554688 L 63.871094 290.554688 L 63.871094 66.144531 L 340.164062 66.144531 Z M 113.515625 195.703125 C 113.515625 183.703125 122.8125 173.878906 134.59375 173.023438 C 134.097656 170.359375 133.828125 167.617188 133.828125 164.8125 C 133.828125 140.148438 153.820312 120.152344 178.484375 120.152344 C 194.796875 120.152344 209.058594 128.902344 216.851562 141.960938 C 220.609375 140.492188 224.691406 139.675781 228.96875 139.675781 C 247.347656 139.675781 262.246094 154.578125 262.246094 172.957031 L 267.769531 172.957031 C 280.332031 172.957031 290.519531 183.140625 290.519531 195.703125 C 290.519531 208.265625 280.332031 218.453125 267.769531 218.453125 L 136.261719 218.453125 C 123.699219 218.453125 113.515625 208.265625 113.515625 195.703125 Z M 113.515625 195.703125 "/><path style=" stroke:none;fill-rule:nonzero;fill:#f6f7f8;fill-opacity:1;" d="M 323.851562 102.148438 L 306.832031 102.148438 C 304.96875 102.148438 303.457031 100.636719 303.457031 98.777344 L 303.457031 81.757812 C 303.457031 79.898438 304.96875 78.382812 306.832031 78.382812 L 308.058594 78.382812 L 308.058594 76.917969 C 308.058594 75.058594 309.570312 73.546875 311.429688 73.546875 L 328.449219 73.546875 C 330.3125 73.546875 331.824219 75.058594 331.824219 76.917969 L 331.824219 93.941406 C 331.824219 95.800781 330.3125 97.3125 328.449219 97.3125 L 327.222656 97.3125 L 327.222656 98.777344 C 327.222656 100.636719 325.710938 102.148438 323.851562 102.148438 Z M 306.832031 80.265625 C 306.007812 80.265625 305.339844 80.933594 305.339844 81.757812 L 305.339844 98.777344 C 305.339844 99.597656 306.007812 100.265625 306.832031 100.265625 L 323.851562 100.265625 C 324.671875 100.265625 325.339844 99.597656 325.339844 98.777344 L 325.339844 97.3125 L 311.429688 97.3125 C 309.570312 97.3125 308.058594 95.800781 308.058594 93.941406 L 308.058594 80.265625 Z M 309.941406 93.941406 C 309.941406 94.761719 310.609375 95.429688 311.429688 95.429688 L 328.449219 95.429688 C 329.273438 95.429688 329.941406 94.761719 329.941406 93.941406 L 329.941406 76.917969 C 329.941406 76.097656 329.273438 75.429688 328.449219 75.429688 L 311.429688 75.429688 C 310.609375 75.429688 309.941406 76.097656 309.941406 76.917969 Z M 309.941406 93.941406 "/><g clip-rule="nonzero" clip-path="url(#c62ea3ea3b)"><path style=" stroke:none;fill-rule:nonzero;fill:#2d2828;fill-opacity:1;" d="M 342.785156 1.566406 L 61.25 1.566406 C 55.113281 1.566406 49.730469 5.785156 48.210938 11.675781 C 43.464844 12.894531 39.753906 16.601562 38.53125 21.347656 C 33.785156 22.570312 30.078125 26.28125 28.859375 31.027344 C 22.96875 32.546875 18.75 37.929688 18.75 44.066406 L 18.75 359.945312 C 18.75 367.378906 24.796875 373.425781 32.230469 373.425781 L 313.765625 373.425781 C 319.902344 373.425781 325.285156 369.207031 326.804688 363.320312 C 331.550781 362.101562 335.261719 358.390625 336.484375 353.644531 C 341.226562 352.421875 344.9375 348.714844 346.15625 343.96875 C 352.046875 342.445312 356.265625 337.0625 356.265625 330.929688 L 356.265625 15.046875 C 356.265625 7.613281 350.21875 1.566406 342.785156 1.566406 Z M 354.382812 330.929688 C 354.382812 336.382812 350.515625 341.152344 345.183594 342.273438 C 344.398438 342.441406 343.589844 342.523438 342.785156 342.523438 L 61.25 342.523438 C 54.855469 342.523438 49.652344 337.324219 49.652344 330.929688 L 49.652344 15.046875 C 49.652344 14.242188 49.738281 13.433594 49.902344 12.648438 C 51.023438 7.316406 55.796875 3.449219 61.25 3.449219 L 342.785156 3.449219 C 349.179688 3.449219 354.382812 8.652344 354.382812 15.046875 Z M 344.089844 344.34375 C 342.785156 348.179688 339.542969 351.097656 335.511719 351.949219 C 334.722656 352.113281 333.917969 352.199219 333.113281 352.199219 L 51.574219 352.199219 C 45.183594 352.199219 39.980469 346.996094 39.980469 340.601562 L 39.980469 301.171875 L 47.769531 301.171875 L 47.769531 330.929688 C 47.769531 338.363281 53.816406 344.410156 61.25 344.410156 L 342.785156 344.410156 C 342.789062 344.410156 342.789062 344.410156 342.792969 344.410156 C 343.015625 344.410156 343.238281 344.402344 343.460938 344.390625 C 343.546875 344.386719 343.632812 344.378906 343.71875 344.371094 C 343.84375 344.363281 343.964844 344.359375 344.089844 344.34375 Z M 334.417969 354.019531 C 333.113281 357.855469 329.871094 360.773438 325.839844 361.621094 C 325.050781 361.785156 324.242188 361.871094 323.4375 361.871094 L 41.902344 361.871094 C 35.507812 361.871094 30.304688 356.667969 30.304688 350.273438 L 30.304688 319.578125 C 30.304688 319.578125 30.308594 319.574219 30.308594 319.574219 L 30.308594 310.84375 L 38.097656 310.84375 L 38.097656 340.601562 C 38.097656 348.035156 44.144531 354.082031 51.574219 354.082031 L 333.113281 354.082031 C 333.339844 354.082031 333.566406 354.074219 333.792969 354.0625 C 333.859375 354.0625 333.925781 354.054688 333.992188 354.050781 C 334.136719 354.039062 334.277344 354.03125 334.417969 354.019531 Z M 324.742188 363.691406 C 323.164062 368.3125 318.75 371.542969 313.765625 371.542969 L 32.230469 371.542969 C 25.835938 371.542969 20.632812 366.339844 20.632812 359.945312 L 20.632812 320.515625 L 28.421875 320.515625 L 28.421875 350.273438 C 28.421875 357.707031 34.46875 363.753906 41.902344 363.753906 L 323.4375 363.753906 C 323.664062 363.753906 323.890625 363.75 324.117188 363.738281 C 324.191406 363.734375 324.261719 363.726562 324.332031 363.722656 C 324.46875 363.710938 324.605469 363.703125 324.742188 363.691406 Z M 20.632812 44.066406 C 20.632812 39.082031 23.863281 34.667969 28.484375 33.089844 C 28.472656 33.21875 28.464844 33.347656 28.457031 33.480469 C 28.453125 33.558594 28.445312 33.636719 28.441406 33.714844 C 28.429688 33.941406 28.421875 34.167969 28.421875 34.394531 L 28.421875 94.929688 L 20.632812 94.929688 Z M 30.304688 34.394531 C 30.304688 33.589844 30.390625 32.78125 30.558594 31.992188 C 31.40625 27.960938 34.324219 24.71875 38.160156 23.414062 C 38.144531 23.558594 38.136719 23.699219 38.128906 23.84375 C 38.125 23.910156 38.117188 23.972656 38.113281 24.039062 C 38.101562 24.265625 38.097656 24.492188 38.097656 24.71875 L 38.097656 85.253906 L 30.304688 85.253906 Z M 39.980469 24.71875 C 39.980469 23.917969 40.0625 23.109375 40.230469 22.320312 C 41.078125 18.289062 43.996094 15.046875 47.832031 13.742188 C 47.816406 13.882812 47.808594 14.027344 47.800781 14.167969 C 47.796875 14.234375 47.789062 14.300781 47.785156 14.367188 C 47.773438 14.59375 47.769531 14.820312 47.769531 15.046875 L 47.769531 75.582031 L 39.980469 75.582031 Z M 30.308594 95.871094 L 30.308594 87.140625 L 38.097656 87.140625 L 38.097656 308.960938 L 30.308594 308.960938 Z M 39.980469 86.195312 L 39.980469 77.464844 L 47.769531 77.464844 L 47.769531 299.285156 L 39.980469 299.285156 Z M 28.421875 96.8125 L 28.421875 318.632812 L 20.632812 318.632812 L 20.632812 96.8125 Z M 340.164062 65.203125 L 63.871094 65.203125 C 63.347656 65.203125 62.925781 65.625 62.925781 66.144531 L 62.925781 290.554688 C 62.925781 291.074219 63.347656 291.496094 63.871094 291.496094 L 340.164062 291.496094 C 340.683594 291.496094 341.105469 291.074219 341.105469 290.554688 L 341.105469 66.144531 C 341.105469 65.625 340.683594 65.203125 340.164062 65.203125 Z M 339.222656 289.613281 L 64.8125 289.613281 L 64.8125 67.085938 L 339.222656 67.085938 Z M 187.507812 21.578125 C 190.746094 21.578125 193.378906 18.945312 193.378906 15.707031 C 193.378906 12.46875 190.746094 9.835938 187.507812 9.835938 C 184.269531 9.835938 181.636719 12.46875 181.636719 15.707031 C 181.636719 18.945312 184.269531 21.578125 187.507812 21.578125 Z M 187.507812 11.722656 C 189.707031 11.722656 191.496094 13.507812 191.496094 15.707031 C 191.496094 17.90625 189.707031 19.695312 187.507812 19.695312 C 185.308594 19.695312 183.519531 17.90625 183.519531 15.707031 C 183.519531 13.507812 185.308594 11.722656 187.507812 11.722656 Z M 204.984375 21.578125 C 208.222656 21.578125 210.855469 18.945312 210.855469 15.707031 C 210.855469 12.46875 208.222656 9.835938 204.984375 9.835938 C 201.746094 9.835938 199.113281 12.46875 199.113281 15.707031 C 199.113281 18.945312 201.746094 21.578125 204.984375 21.578125 Z M 204.984375 11.722656 C 207.183594 11.722656 208.972656 13.507812 208.972656 15.707031 C 208.972656 17.90625 207.183594 19.695312 204.984375 19.695312 C 202.785156 19.695312 200.996094 17.90625 200.996094 15.707031 C 200.996094 13.507812 202.785156 11.722656 204.984375 11.722656 Z M 222.460938 21.578125 C 225.699219 21.578125 228.332031 18.945312 228.332031 15.707031 C 228.332031 12.46875 225.699219 9.835938 222.460938 9.835938 C 219.226562 9.835938 216.589844 12.46875 216.589844 15.707031 C 216.589844 18.945312 219.226562 21.578125 222.460938 21.578125 Z M 226.449219 15.707031 C 226.449219 17.90625 224.660156 19.695312 222.460938 19.695312 C 220.265625 19.695312 218.476562 17.90625 218.476562 15.707031 C 218.476562 13.507812 220.265625 11.722656 222.460938 11.722656 C 224.660156 11.722656 226.449219 13.507812 226.449219 15.707031 Z M 84.136719 304.804688 C 82.28125 304.804688 80.574219 305.683594 79.496094 307.140625 C 78.378906 305.675781 76.617188 304.792969 74.796875 304.804688 C 73.089844 304.828125 71.484375 305.503906 70.273438 306.714844 C 69.046875 307.941406 68.367188 309.578125 68.367188 311.316406 L 68.367188 311.949219 C 68.367188 313.6875 69.046875 315.324219 70.273438 316.554688 L 78.585938 324.863281 C 78.832031 325.109375 79.160156 325.246094 79.507812 325.246094 C 79.855469 325.246094 80.183594 325.109375 80.429688 324.863281 L 88.738281 316.554688 C 89.96875 315.324219 90.644531 313.6875 90.644531 311.949219 L 90.644531 311.316406 C 90.644531 309.578125 89.96875 307.941406 88.738281 306.714844 C 87.511719 305.484375 85.875 304.804688 84.136719 304.804688 Z M 88.761719 311.949219 C 88.761719 313.1875 88.28125 314.347656 87.40625 315.222656 L 79.507812 323.121094 L 71.605469 315.222656 C 70.734375 314.347656 70.253906 313.1875 70.253906 311.949219 L 70.253906 311.316406 C 70.253906 310.082031 70.734375 308.917969 71.605469 308.046875 C 72.464844 307.1875 73.605469 306.707031 74.820312 306.691406 C 74.835938 306.691406 74.851562 306.691406 74.867188 306.691406 C 76.308594 306.691406 77.679688 307.542969 78.371094 308.871094 L 78.671875 309.445312 C 78.835938 309.757812 79.15625 309.953125 79.507812 309.953125 C 79.859375 309.953125 80.179688 309.757812 80.34375 309.445312 L 80.6875 308.78125 C 81.363281 307.492188 82.683594 306.691406 84.136719 306.691406 C 85.371094 306.691406 86.53125 307.171875 87.40625 308.046875 C 88.28125 308.917969 88.761719 310.082031 88.761719 311.316406 Z M 119.886719 319.789062 C 120.660156 318.324219 121.066406 316.6875 121.066406 315.027344 C 121.066406 309.390625 116.480469 304.804688 110.847656 304.804688 C 105.210938 304.804688 100.625 309.390625 100.625 315.027344 C 100.625 320.660156 105.210938 325.246094 110.847656 325.246094 C 112.503906 325.246094 114.144531 324.839844 115.609375 324.066406 L 119.878906 325.214844 C 119.960938 325.234375 120.042969 325.246094 120.125 325.246094 C 120.371094 325.246094 120.609375 325.148438 120.789062 324.96875 C 121.027344 324.730469 121.121094 324.382812 121.035156 324.058594 Z M 117.96875 319.910156 L 118.789062 322.972656 L 115.726562 322.148438 C 115.488281 322.085938 115.230469 322.117188 115.011719 322.242188 C 113.75 322.976562 112.308594 323.363281 110.847656 323.363281 C 106.25 323.363281 102.511719 319.621094 102.511719 315.027344 C 102.511719 310.429688 106.25 306.691406 110.847656 306.691406 C 115.441406 306.691406 119.183594 310.429688 119.183594 315.027344 C 119.183594 316.488281 118.796875 317.929688 118.0625 319.191406 C 117.9375 319.410156 117.90625 319.667969 117.96875 319.910156 Z M 152.300781 305.316406 C 152.257812 305.230469 152.199219 305.152344 152.128906 305.082031 C 152.058594 305.011719 151.980469 304.953125 151.894531 304.910156 C 151.789062 304.855469 151.675781 304.824219 151.566406 304.8125 C 151.453125 304.800781 151.339844 304.808594 151.226562 304.835938 C 151.199219 304.84375 151.171875 304.851562 151.140625 304.863281 L 132.597656 311.320312 C 132.207031 311.457031 131.949219 311.832031 131.964844 312.246094 C 131.980469 312.660156 132.265625 313.015625 132.664062 313.121094 L 141.6875 315.523438 L 144.089844 324.546875 C 144.195312 324.945312 144.550781 325.230469 144.964844 325.246094 C 144.976562 325.246094 144.988281 325.246094 145 325.246094 C 145.398438 325.246094 145.757812 324.992188 145.890625 324.613281 L 152.347656 306.066406 C 152.359375 306.039062 152.367188 306.011719 152.375 305.984375 C 152.402344 305.871094 152.410156 305.753906 152.398438 305.640625 C 152.386719 305.527344 152.351562 305.417969 152.300781 305.316406 Z M 136.117188 312.089844 L 147.886719 307.992188 L 142.175781 313.703125 Z M 145.121094 321.09375 L 143.507812 315.035156 L 149.21875 309.324219 Z M 340.164062 304.808594 L 325.296875 304.808594 C 324.777344 304.808594 324.355469 305.230469 324.355469 305.75 L 324.355469 324.304688 C 324.355469 324.648438 324.542969 324.964844 324.839844 325.128906 C 325.140625 325.296875 325.507812 325.289062 325.796875 325.105469 L 332.730469 320.792969 L 339.667969 325.105469 C 339.820312 325.199219 339.992188 325.246094 340.164062 325.246094 C 340.320312 325.246094 340.480469 325.207031 340.621094 325.128906 C 340.921875 324.964844 341.105469 324.648438 341.105469 324.304688 L 341.105469 305.75 C 341.105469 305.230469 340.683594 304.808594 340.164062 304.808594 Z M 339.222656 322.609375 L 333.226562 318.882812 C 333.078125 318.789062 332.902344 318.742188 332.730469 318.742188 C 332.558594 318.742188 332.386719 318.789062 332.234375 318.882812 L 326.242188 322.609375 L 326.242188 306.691406 L 339.222656 306.691406 Z M 77.230469 57.113281 C 85.605469 57.113281 92.417969 50.300781 92.417969 41.925781 C 92.417969 33.546875 85.605469 26.734375 77.230469 26.734375 C 68.851562 26.734375 62.039062 33.546875 62.039062 41.925781 C 62.039062 50.300781 68.851562 57.113281 77.230469 57.113281 Z M 90.535156 41.925781 C 90.535156 49.261719 84.566406 55.230469 77.230469 55.230469 C 69.890625 55.230469 63.921875 49.261719 63.921875 41.925781 C 63.921875 34.585938 69.890625 28.617188 77.230469 28.617188 C 84.566406 28.617188 90.535156 34.585938 90.535156 41.925781 Z M 104.980469 41.757812 L 139.933594 41.757812 C 142.0625 41.757812 143.789062 40.027344 143.789062 37.902344 L 143.789062 34.800781 C 143.789062 32.675781 142.0625 30.945312 139.933594 30.945312 L 104.980469 30.945312 C 102.855469 30.945312 101.125 32.675781 101.125 34.800781 L 101.125 37.902344 C 101.125 40.027344 102.855469 41.757812 104.980469 41.757812 Z M 103.007812 34.800781 C 103.007812 33.714844 103.894531 32.828125 104.980469 32.828125 L 139.933594 32.828125 C 141.023438 32.828125 141.90625 33.714844 141.90625 34.800781 L 141.90625 37.902344 C 141.90625 38.988281 141.023438 39.875 139.933594 39.875 L 104.980469 39.875 C 103.894531 39.875 103.007812 38.988281 103.007812 37.902344 Z M 104.980469 52.902344 L 158.679688 52.902344 C 160.804688 52.902344 162.535156 51.171875 162.535156 49.046875 C 162.535156 46.921875 160.804688 45.191406 158.679688 45.191406 L 104.980469 45.191406 C 102.855469 45.191406 101.125 46.921875 101.125 49.046875 C 101.125 51.171875 102.855469 52.902344 104.980469 52.902344 Z M 104.980469 47.078125 L 158.679688 47.078125 C 159.765625 47.078125 160.648438 47.960938 160.648438 49.046875 C 160.648438 50.132812 159.765625 51.019531 158.679688 51.019531 L 104.980469 51.019531 C 103.894531 51.019531 103.007812 50.132812 103.007812 49.046875 C 103.007812 47.960938 103.894531 47.078125 104.980469 47.078125 Z M 136.261719 219.394531 L 267.769531 219.394531 C 280.832031 219.394531 291.460938 208.765625 291.460938 195.703125 C 291.460938 182.640625 280.832031 172.011719 267.769531 172.011719 L 263.175781 172.011719 C 262.675781 153.578125 247.523438 138.734375 228.96875 138.734375 C 224.953125 138.734375 221.015625 139.429688 217.25 140.804688 C 208.96875 127.464844 194.191406 119.210938 178.484375 119.210938 C 153.339844 119.210938 132.886719 139.667969 132.886719 164.8125 C 132.886719 167.246094 133.089844 169.722656 133.488281 172.183594 C 121.679688 173.566406 112.574219 183.699219 112.574219 195.703125 C 112.574219 208.765625 123.199219 219.394531 136.261719 219.394531 Z M 134.660156 173.960938 C 134.929688 173.941406 135.175781 173.8125 135.339844 173.597656 C 135.503906 173.386719 135.570312 173.113281 135.519531 172.851562 C 135.019531 170.171875 134.769531 167.46875 134.769531 164.8125 C 134.769531 140.707031 154.378906 121.09375 178.484375 121.09375 C 193.792969 121.09375 208.183594 129.277344 216.042969 142.445312 C 216.28125 142.839844 216.765625 143.003906 217.195312 142.839844 C 220.960938 141.367188 224.921875 140.617188 228.96875 140.617188 C 246.796875 140.617188 261.304688 155.125 261.304688 172.957031 C 261.304688 173.476562 261.726562 173.898438 262.246094 173.898438 L 267.769531 173.898438 C 279.792969 173.898438 289.578125 183.679688 289.578125 195.703125 C 289.578125 207.726562 279.792969 217.507812 267.769531 217.507812 L 136.261719 217.507812 C 124.238281 217.507812 114.457031 207.726562 114.457031 195.703125 C 114.457031 184.335938 123.332031 174.785156 134.660156 173.960938 Z M 134.660156 173.960938 "/></g></g></svg>