<svg xmlns="http://www.w3.org/2000/svg" xmlns:xlink="http://www.w3.org/1999/xlink" width="500" zoomAndPan="magnify" viewBox="0 0 375 374.999991" height="500" preserveAspectRatio="xMidYMid meet" version="1.0"><defs><clipPath id="66e9587072"><path d="M 131.25 131.25 L 243.75 131.25 L 243.75 243.75 L 131.25 243.75 Z M 131.25 131.25 " clip-rule="nonzero"/></clipPath><clipPath id="3e5f9cf486"><path d="M 187.5 131.25 L 198.417969 146.75 L 215.625 138.785156 L 217.332031 157.667969 L 236.214844 159.375 L 228.25 176.582031 L 243.75 187.5 L 228.25 198.417969 L 236.214844 215.625 L 217.332031 217.332031 L 215.625 236.214844 L 198.417969 228.25 L 187.5 243.75 L 176.582031 228.25 L 159.375 236.214844 L 157.667969 217.332031 L 138.785156 215.625 L 146.75 198.417969 L 131.25 187.5 L 146.75 176.582031 L 138.785156 159.375 L 157.667969 157.667969 L 159.375 138.785156 L 176.582031 146.75 Z M 187.5 131.25 " clip-rule="nonzero"/></clipPath></defs><g clip-path="url(#66e9587072)"><g clip-path="url(#3e5f9cf486)"><path fill="#f35695" d="M 131.25 131.25 L 243.75 131.25 L 243.75 243.75 L 131.25 243.75 Z M 131.25 131.25 " fill-opacity="1" fill-rule="nonzero"/></g></g></svg>