<svg xmlns="http://www.w3.org/2000/svg" xmlns:xlink="http://www.w3.org/1999/xlink" width="500" zoomAndPan="magnify" viewBox="0 0 375 374.999991" height="500" preserveAspectRatio="xMidYMid meet" version="1.0"><defs><clipPath id="4993cc6499"><path d="M 131.25 150.585938 L 244 150.585938 L 244 224.414062 L 131.25 224.414062 Z M 131.25 150.585938 " clip-rule="nonzero"/></clipPath><clipPath id="87d8752e51"><path d="M 195.125 150.585938 C 196.359375 150.585938 197.601562 150.585938 198.832031 150.585938 C 208.652344 151.820312 214.785156 155.921875 217.582031 162.640625 C 233.949219 161.746094 245.851562 174.445312 238.597656 186.910156 C 241.011719 189.527344 243.023438 192.457031 243.75 196.390625 C 243.75 197.515625 243.75 198.640625 243.75 199.765625 C 241.585938 209.773438 232.265625 216.535156 216.96875 214.714844 C 213.03125 219.855469 206.027344 225 195.128906 224.359375 C 189.492188 224.023438 185.574219 222.070312 182.144531 219.695312 C 178.527344 221.667969 174.613281 223.214844 168.957031 223.234375 C 155.875 223.261719 147.121094 215.660156 146.910156 205.234375 C 138.5 202.792969 132.800781 198.238281 131.25 190.449219 C 131.25 189.320312 131.25 188.191406 131.25 187.070312 C 132.960938 179.351562 138.347656 174.5 147.320312 172.445312 C 146.78125 159.417969 164.722656 151.28125 179.464844 157.019531 C 182.972656 154.179688 187.9375 151.085938 195.125 150.585938 Z M 195.125 150.585938 " clip-rule="nonzero"/></clipPath></defs><g clip-path="url(#4993cc6499)"><g clip-path="url(#87d8752e51)"><path fill="#c2fcf7" d="M 131.25 150.585938 L 243.722656 150.585938 L 243.722656 224.414062 L 131.25 224.414062 Z M 131.25 150.585938 " fill-opacity="1" fill-rule="nonzero"/></g></g></svg>