<svg xmlns="http://www.w3.org/2000/svg" xmlns:xlink="http://www.w3.org/1999/xlink" width="500" zoomAndPan="magnify" viewBox="0 0 375 374.999991" height="500" preserveAspectRatio="xMidYMid meet" version="1.2"><defs><clipPath id="f60528c62d"><path d="M 15.246094 5 L 359.496094 5 L 359.496094 370 L 15.246094 370 Z M 15.246094 5 "/></clipPath></defs><g id="fc7547d675"><path style=" stroke:none;fill-rule:nonzero;fill:#f35695;fill-opacity:1;" d="M 270.9375 347.023438 L 103.824219 347.023438 C 56.246094 347.023438 17.671875 308.453125 17.671875 260.871094 L 17.671875 93.761719 C 17.671875 46.179688 56.246094 7.609375 103.824219 7.609375 L 270.9375 7.609375 C 318.515625 7.609375 357.085938 46.179688 357.085938 93.761719 L 357.085938 260.871094 C 357.085938 308.453125 318.515625 347.023438 270.9375 347.023438 Z M 270.9375 347.023438 "/><path style=" stroke:none;fill-rule:nonzero;fill:#c2fcf7;fill-opacity:1;" d="M 17.671875 209.15625 L 17.671875 260.871094 C 17.671875 308.453125 56.246094 347.023438 103.824219 347.023438 L 270.9375 347.023438 C 318.515625 347.023438 357.089844 308.453125 357.089844 260.871094 L 357.089844 209.15625 Z M 17.671875 209.15625 "/><path style=" stroke:none;fill-rule:nonzero;fill:#f5f1e1;fill-opacity:1;" d="M 197.96875 83.308594 L 217.917969 144.710938 L 282.476562 144.710938 C 288.914062 144.710938 291.589844 152.945312 286.382812 156.730469 L 234.152344 194.679688 L 254.105469 256.078125 C 256.09375 262.199219 249.085938 267.292969 243.878906 263.507812 L 191.648438 225.558594 L 139.417969 263.507812 C 134.210938 267.292969 127.203125 262.199219 129.191406 256.078125 L 149.140625 194.679688 L 96.910156 156.730469 C 91.703125 152.945312 94.378906 144.710938 100.816406 144.710938 L 165.378906 144.710938 L 185.328125 83.308594 C 187.316406 77.1875 195.976562 77.1875 197.96875 83.308594 Z M 197.96875 83.308594 "/><g clip-rule="nonzero" clip-path="url(#f60528c62d)"><path style=" stroke:none;fill-rule:nonzero;fill:#2d2828;fill-opacity:1;" d="M 270.9375 5.183594 L 103.824219 5.183594 C 54.984375 5.183594 15.246094 44.917969 15.246094 93.761719 L 15.246094 260.871094 C 15.246094 262.398438 15.285156 263.914062 15.363281 265.421875 C 16.207031 282.003906 21.628906 297.398438 30.394531 310.359375 C 40.519531 344.535156 72.1875 369.546875 109.605469 369.546875 L 265.15625 369.546875 C 302.570312 369.546875 334.242188 344.535156 344.367188 310.359375 C 353.925781 296.21875 359.515625 279.1875 359.515625 260.871094 L 359.515625 93.761719 C 359.515625 44.917969 319.777344 5.183594 270.9375 5.183594 Z M 354.664062 206.730469 L 240.621094 206.730469 L 237.003906 195.605469 L 287.808594 158.691406 C 291.050781 156.339844 292.339844 152.359375 291.105469 148.550781 C 289.867188 144.742188 286.480469 142.285156 282.476562 142.285156 L 219.679688 142.285156 L 200.273438 82.558594 C 199.035156 78.75 195.648438 76.292969 191.644531 76.292969 C 187.644531 76.292969 184.257812 78.753906 183.023438 82.558594 L 163.617188 142.285156 L 100.816406 142.285156 C 96.8125 142.285156 93.429688 144.742188 92.191406 148.550781 C 90.953125 152.359375 92.246094 156.339844 95.484375 158.695312 L 146.289062 195.605469 L 142.675781 206.730469 L 20.097656 206.730469 L 20.097656 93.761719 C 20.097656 47.59375 57.660156 10.035156 103.824219 10.035156 L 270.9375 10.035156 C 317.101562 10.035156 354.664062 47.59375 354.664062 93.761719 Z M 270.9375 344.597656 L 103.824219 344.597656 C 75.226562 344.597656 49.941406 330.175781 34.832031 308.234375 C 33.933594 306.929688 33.0625 305.609375 32.238281 304.253906 C 31.742188 303.441406 31.277344 302.605469 30.808594 301.773438 C 29.566406 299.566406 28.425781 297.296875 27.386719 294.972656 C 27.15625 294.457031 26.910156 293.949219 26.6875 293.429688 C 22.445312 283.417969 20.097656 272.414062 20.097656 260.871094 L 20.097656 211.582031 L 141.101562 211.582031 L 126.882812 255.328125 C 125.648438 259.136719 126.941406 263.117188 130.179688 265.472656 C 133.417969 267.824219 137.605469 267.824219 140.84375 265.472656 L 191.648438 228.558594 L 242.453125 265.472656 C 244.070312 266.648438 245.925781 267.234375 247.785156 267.234375 C 249.640625 267.234375 251.496094 266.648438 253.117188 265.46875 C 256.355469 263.117188 257.648438 259.136719 256.410156 255.328125 L 242.195312 211.582031 L 354.664062 211.582031 L 354.664062 260.871094 C 354.664062 273.011719 352.042969 284.546875 347.375 294.972656 C 346.332031 297.296875 345.195312 299.566406 343.953125 301.773438 C 342.707031 303.992188 341.367188 306.148438 339.929688 308.234375 C 324.820312 330.175781 299.535156 344.597656 270.9375 344.597656 Z M 146.988281 209.15625 L 147.777344 206.730469 L 151.449219 195.429688 C 151.773438 194.429688 151.417969 193.332031 150.566406 192.714844 L 98.335938 154.769531 C 96.507812 153.4375 96.347656 151.460938 96.804688 150.050781 C 97.261719 148.640625 98.558594 147.136719 100.816406 147.136719 L 165.378906 147.136719 C 166.429688 147.136719 167.359375 146.457031 167.683594 145.460938 L 187.636719 84.058594 C 188.332031 81.910156 190.164062 81.144531 191.648438 81.144531 C 193.128906 81.144531 194.960938 81.910156 195.660156 84.058594 L 215.609375 145.460938 C 215.9375 146.457031 216.867188 147.136719 217.917969 147.136719 L 282.476562 147.136719 C 284.738281 147.136719 286.03125 148.640625 286.492188 150.050781 C 286.949219 151.460938 286.785156 153.4375 284.957031 154.769531 L 232.726562 192.714844 C 231.878906 193.332031 231.523438 194.429688 231.847656 195.429688 L 235.519531 206.730469 L 236.308594 209.15625 L 237.09375 211.582031 L 251.796875 256.828125 C 252.496094 258.976562 251.460938 260.675781 250.265625 261.546875 C 249.066406 262.417969 247.136719 262.875 245.304688 261.546875 L 193.074219 223.597656 C 192.648438 223.289062 192.148438 223.136719 191.648438 223.136719 C 191.144531 223.136719 190.648438 223.289062 190.222656 223.597656 L 137.992188 261.546875 C 136.160156 262.875 134.226562 262.417969 133.03125 261.546875 C 131.832031 260.675781 130.800781 258.976562 131.496094 256.828125 L 146.199219 211.582031 Z M 146.988281 209.15625 "/></g></g></svg>