<svg xmlns="http://www.w3.org/2000/svg" xmlns:xlink="http://www.w3.org/1999/xlink" width="500" zoomAndPan="magnify" viewBox="0 0 375 374.999991" height="500" preserveAspectRatio="xMidYMid meet" version="1.2"><defs><clipPath id="fcb83dad53"><path d="M 0 12.273438 L 375 12.273438 L 375 362.523438 L 0 362.523438 Z M 0 12.273438 "/></clipPath><clipPath id="e726742166"><path d="M 0 12.273438 L 375 12.273438 L 375 362.523438 L 0 362.523438 Z M 0 12.273438 "/></clipPath></defs><g id="76f2ff4617"><g clip-rule="nonzero" clip-path="url(#fcb83dad53)"><path style=" stroke:none;fill-rule:nonzero;fill:#2d2828;fill-opacity:1;" d="M 83.867188 362.183594 C 37.800781 362.183594 0.328125 324.710938 0.328125 278.644531 L 0.328125 96.125 C 0.328125 50.0625 37.800781 12.585938 83.867188 12.585938 L 297.203125 12.585938 C 339.800781 12.585938 374.460938 47.246094 374.460938 89.84375 L 374.460938 284.925781 C 374.460938 327.527344 339.800781 362.183594 297.203125 362.183594 Z M 83.867188 362.183594 "/></g><path style=" stroke:none;fill-rule:nonzero;fill:#dde225;fill-opacity:1;" d="M 372.574219 89.84375 L 372.574219 284.925781 C 372.574219 287.328125 372.449219 289.699219 372.230469 292.042969 C 368.640625 330.332031 336.425781 360.300781 297.203125 360.300781 L 266.386719 360.300781 C 306.917969 360.300781 340.535156 330.761719 346.929688 292.042969 C 347.648438 287.683594 348.039062 283.210938 348.039062 278.644531 L 348.039062 96.125 C 348.039062 91.957031 347.726562 87.863281 347.121094 83.863281 C 341.207031 44.585938 307.316406 14.472656 266.386719 14.472656 L 297.203125 14.472656 C 336.8125 14.472656 369.265625 45.035156 372.316406 83.863281 C 372.472656 85.839844 372.574219 87.828125 372.574219 89.84375 Z M 372.574219 89.84375 "/><path style=" stroke:none;fill-rule:nonzero;fill:#4b11ed;fill-opacity:1;" d="M 347.121094 83.863281 C 341.207031 44.585938 307.316406 14.472656 266.386719 14.472656 L 83.867188 14.472656 C 38.769531 14.472656 2.210938 51.027344 2.210938 96.125 L 2.210938 278.644531 C 2.210938 323.742188 38.769531 360.300781 83.867188 360.300781 L 266.386719 360.300781 C 306.917969 360.300781 340.535156 330.761719 346.929688 292.042969 C 347.648438 287.683594 348.039062 283.210938 348.039062 278.644531 L 348.039062 96.125 C 348.039062 91.957031 347.726562 87.863281 347.121094 83.863281 Z M 262.171875 222.648438 C 270.476562 234.890625 276.273438 248.96875 278.808594 264.15625 C 280.332031 273.292969 273.175781 281.585938 263.914062 281.585938 L 86.339844 281.585938 C 77.078125 281.585938 69.917969 273.292969 71.445312 264.15625 C 73.976562 248.96875 79.777344 234.890625 88.082031 222.648438 C 102.285156 201.710938 123.839844 186.160156 149.046875 179.726562 C 137.984375 173.953125 129.078125 164.625 123.835938 153.257812 C 120.523438 146.078125 118.667969 138.085938 118.667969 129.65625 C 118.667969 110.800781 127.921875 94.117188 142.121094 83.863281 C 151.4375 77.136719 162.878906 73.171875 175.253906 73.199219 C 187.390625 73.226562 198.71875 77.179688 207.988281 83.863281 C 221.597656 93.679688 230.769531 109.378906 231.53125 127.183594 C 231.929688 136.519531 230.054688 145.378906 226.421875 153.257812 C 221.179688 164.625 212.269531 173.953125 201.207031 179.726562 C 226.414062 186.160156 247.96875 201.710938 262.171875 222.648438 Z M 262.171875 222.648438 "/><path style=" stroke:none;fill-rule:nonzero;fill:#f5f1e1;fill-opacity:1;" d="M 263.914062 281.585938 L 86.339844 281.585938 C 77.078125 281.585938 69.917969 273.292969 71.445312 264.15625 C 73.976562 248.96875 79.777344 234.890625 88.082031 222.648438 C 102.285156 201.710938 123.839844 186.160156 149.046875 179.726562 C 137.984375 173.953125 129.078125 164.625 123.835938 153.257812 C 120.523438 146.078125 118.667969 138.085938 118.667969 129.65625 C 118.667969 110.800781 127.921875 94.117188 142.121094 83.863281 C 151.4375 77.136719 162.878906 73.171875 175.253906 73.199219 C 187.390625 73.226562 198.71875 77.179688 207.988281 83.863281 C 221.597656 93.679688 230.769531 109.378906 231.53125 127.183594 C 231.929688 136.519531 230.054688 145.378906 226.421875 153.257812 C 221.179688 164.625 212.269531 173.953125 201.207031 179.726562 C 226.414062 186.160156 247.96875 201.710938 262.171875 222.648438 C 270.476562 234.890625 276.273438 248.96875 278.808594 264.15625 C 280.332031 273.292969 273.175781 281.585938 263.914062 281.585938 Z M 263.914062 281.585938 "/><g clip-rule="nonzero" clip-path="url(#e726742166)"><path style=" stroke:none;fill-rule:nonzero;fill:#2d2828;fill-opacity:1;" d="M 297.203125 12.273438 L 83.867188 12.273438 C 37.628906 12.273438 0.015625 49.890625 0.015625 96.125 L 0.015625 278.644531 C 0.015625 324.882812 37.628906 362.5 83.867188 362.5 L 297.203125 362.5 C 339.972656 362.5 374.773438 327.699219 374.773438 284.925781 L 374.773438 89.84375 C 374.773438 47.070312 339.972656 12.273438 297.203125 12.273438 Z M 370.375 220.453125 L 350.238281 220.453125 L 350.238281 155.457031 L 370.375 155.457031 Z M 370.375 284.925781 C 370.375 286.582031 370.300781 288.21875 370.191406 289.84375 L 349.46875 289.84375 C 349.960938 286.179688 350.238281 282.445312 350.238281 278.644531 L 350.238281 224.847656 L 370.375 224.847656 Z M 83.867188 358.101562 C 80.867188 358.101562 77.910156 357.917969 74.992188 357.59375 C 35.34375 353.164062 4.410156 319.457031 4.410156 278.644531 L 4.410156 96.125 C 4.410156 55.3125 35.34375 21.605469 74.992188 17.175781 C 77.910156 16.851562 80.867188 16.667969 83.867188 16.667969 L 266.386719 16.667969 C 305.261719 16.667969 337.679688 44.738281 344.5 81.664062 C 344.636719 82.398438 344.78125 83.125 344.894531 83.863281 C 345.007812 84.589844 345.089844 85.328125 345.183594 86.0625 C 345.601562 89.359375 345.84375 92.714844 345.84375 96.125 L 345.84375 278.644531 C 345.84375 282.449219 345.558594 286.183594 345.039062 289.84375 C 344.933594 290.582031 344.816406 291.3125 344.691406 292.042969 C 344.566406 292.777344 344.441406 293.515625 344.296875 294.242188 C 337.027344 330.609375 304.863281 358.101562 266.386719 358.101562 Z M 348.964844 81.664062 C 343.648438 51.210938 321.851562 26.363281 293.125 16.667969 L 297.203125 16.667969 C 334.785156 16.667969 365.828125 45.152344 369.90625 81.664062 Z M 293.125 358.101562 C 321.496094 348.527344 343.105469 324.179688 348.761719 294.242188 L 369.761719 294.242188 C 365.171875 330.203125 334.394531 358.101562 297.203125 358.101562 Z M 350.238281 151.058594 L 350.238281 96.125 C 350.238281 92.71875 350.011719 89.363281 349.613281 86.0625 L 370.28125 86.0625 C 370.34375 87.316406 370.375 88.574219 370.375 89.84375 L 370.375 151.058594 Z M 277.144531 277.648438 C 280.40625 273.796875 281.804688 268.746094 280.980469 263.796875 C 278.628906 249.707031 273.539062 236.535156 266.261719 224.847656 C 265.800781 224.113281 265.339844 223.375 264.863281 222.648438 C 264.375 221.910156 263.871094 221.179688 263.367188 220.453125 C 249.894531 201.011719 230.132812 186.203125 206.796875 179.015625 C 215.882812 173.167969 223.042969 164.941406 227.710938 155.457031 C 228.070312 154.726562 228.4375 154 228.765625 153.257812 C 229.085938 152.535156 229.363281 151.792969 229.652344 151.058594 C 232.617188 143.550781 234.082031 135.410156 233.726562 127.089844 C 233.035156 110.914062 225.496094 96.3125 214.027344 86.0625 C 213.183594 85.308594 212.324219 84.570312 211.441406 83.863281 C 210.480469 83.097656 209.488281 82.371094 208.480469 81.664062 C 198.972656 74.992188 187.484375 71.027344 175.257812 71 C 162.972656 71 151.257812 74.730469 141.414062 81.664062 C 140.417969 82.367188 139.4375 83.097656 138.480469 83.863281 C 137.597656 84.570312 136.730469 85.300781 135.882812 86.0625 C 135.140625 86.734375 134.410156 87.421875 133.695312 88.136719 C 122.585938 99.21875 116.46875 113.964844 116.46875 129.65625 C 116.46875 137.125 117.878906 144.359375 120.5 151.058594 C 120.789062 151.800781 121.113281 152.527344 121.433594 153.257812 C 121.757812 153.996094 122.09375 154.730469 122.449219 155.457031 C 127.097656 164.957031 134.285156 173.144531 143.445312 179.019531 C 120.113281 186.207031 100.359375 201.011719 86.886719 220.453125 C 86.382812 221.179688 85.878906 221.910156 85.390625 222.648438 C 84.914062 223.375 84.453125 224.113281 83.992188 224.847656 C 76.71875 236.535156 71.625 249.707031 69.277344 263.796875 C 68.449219 268.746094 69.847656 273.796875 73.109375 277.648438 C 76.410156 281.546875 81.234375 283.78125 86.339844 283.78125 L 263.914062 283.78125 C 269.019531 283.78125 273.839844 281.546875 277.144531 277.648438 Z M 76.464844 274.804688 C 74.039062 271.941406 73 268.191406 73.613281 264.519531 C 76.023438 250.066406 81.445312 236.621094 89.222656 224.847656 C 89.710938 224.109375 90.203125 223.375 90.710938 222.648438 C 91.226562 221.914062 91.742188 221.175781 92.277344 220.453125 C 106.089844 201.738281 126.136719 187.84375 149.589844 181.855469 C 150.472656 181.628906 151.125 180.882812 151.230469 179.980469 C 151.332031 179.074219 150.871094 178.199219 150.0625 177.777344 C 140.230469 172.644531 132.453125 164.804688 127.394531 155.457031 C 127.003906 154.730469 126.636719 154 126.277344 153.257812 C 125.925781 152.527344 125.574219 151.804688 125.253906 151.058594 C 122.410156 144.421875 120.867188 137.167969 120.867188 129.65625 C 120.867188 115.140625 126.527344 101.5 136.800781 91.25 C 138.695312 89.359375 140.703125 87.628906 142.808594 86.0625 C 143.851562 85.285156 144.925781 84.558594 146.015625 83.863281 C 147.238281 83.082031 148.484375 82.34375 149.761719 81.664062 C 157.484375 77.570312 166.136719 75.398438 175.125 75.398438 C 175.167969 75.398438 175.207031 75.398438 175.246094 75.398438 C 184.152344 75.417969 192.636719 77.6875 200.136719 81.664062 C 201.417969 82.347656 202.667969 83.085938 203.890625 83.863281 C 204.984375 84.5625 206.058594 85.292969 207.097656 86.0625 C 219.9375 95.554688 228.617188 110.503906 229.335938 127.277344 C 229.6875 135.570312 228.105469 143.679688 224.921875 151.058594 C 224.605469 151.796875 224.273438 152.53125 223.921875 153.257812 C 223.5625 154 223.183594 154.730469 222.792969 155.457031 C 217.722656 164.8125 209.941406 172.6875 200.191406 177.777344 C 199.382812 178.199219 198.917969 179.074219 199.023438 179.980469 C 199.128906 180.882812 199.78125 181.628906 200.664062 181.855469 C 224.117188 187.84375 244.164062 201.738281 257.976562 220.453125 C 258.511719 221.175781 259.027344 221.914062 259.542969 222.648438 C 260.050781 223.375 260.542969 224.109375 261.03125 224.847656 C 268.808594 236.621094 274.230469 250.066406 276.640625 264.519531 C 277.253906 268.191406 276.214844 271.941406 273.789062 274.804688 C 271.324219 277.714844 267.722656 279.386719 263.914062 279.386719 L 86.339844 279.386719 C 82.527344 279.386719 78.929688 277.714844 76.464844 274.804688 Z M 76.464844 274.804688 "/></g></g></svg>