<svg xmlns="http://www.w3.org/2000/svg" xmlns:xlink="http://www.w3.org/1999/xlink" width="500" zoomAndPan="magnify" viewBox="0 0 375 374.999991" height="500" preserveAspectRatio="xMidYMid meet" version="1.0"><defs><clipPath id="cbd2e691e8"><path d="M 114.273438 112.5 L 260.523438 112.5 L 260.523438 262.5 L 114.273438 262.5 Z M 114.273438 112.5 " clip-rule="nonzero"/></clipPath></defs><path fill="#f6f7f8" d="M 115.214844 138.199219 L 115.214844 205.132812 C 115.214844 218.796875 126.289062 229.871094 139.949219 229.871094 L 164.914062 229.871094 L 185.203125 260.308594 C 186.296875 261.949219 188.710938 261.949219 189.804688 260.308594 L 210.09375 229.871094 L 235.058594 229.871094 C 248.71875 229.871094 259.792969 218.796875 259.792969 205.132812 L 259.792969 138.199219 C 259.792969 124.535156 248.71875 113.460938 235.058594 113.460938 L 139.949219 113.460938 C 126.289062 113.460938 115.214844 124.535156 115.214844 138.199219 Z M 115.214844 138.199219 " fill-opacity="1" fill-rule="nonzero"/><path fill="#fff789" d="M 227.976562 144.980469 C 223.898438 140.898438 218.367188 138.609375 212.597656 138.609375 L 198.578125 138.609375 L 198.578125 144.867188 C 197.53125 146.027344 196.613281 147.324219 195.871094 148.75 L 194.515625 151.347656 L 193.34375 149.105469 C 190 142.695312 183.386719 138.519531 176.15625 138.609375 L 161.984375 138.609375 L 161.984375 144.105469 C 161.667969 144.386719 161.355469 144.675781 161.054688 144.980469 C 156.972656 149.058594 154.683594 154.589844 154.683594 160.359375 L 154.683594 162.835938 C 154.683594 168.605469 156.972656 174.136719 161.054688 178.214844 L 187.464844 204.628906 L 180.492188 204.628906 L 180.492188 211.09375 L 194.515625 211.09375 C 194.875 211.09375 195.238281 210.957031 195.511719 210.683594 L 227.976562 178.21875 C 232.054688 174.136719 234.347656 168.605469 234.347656 162.835938 L 234.347656 160.359375 C 234.347656 154.589844 232.058594 149.058594 227.976562 144.980469 Z M 227.976562 144.980469 " fill-opacity="1" fill-rule="nonzero"/><path fill="#f35695" d="M 213.957031 144.980469 C 209.878906 140.898438 204.34375 138.609375 198.578125 138.609375 C 191.546875 138.609375 185.097656 142.515625 181.847656 148.75 L 180.492188 151.347656 L 179.324219 149.105469 C 175.980469 142.695312 169.363281 138.519531 162.132812 138.609375 C 156.464844 138.683594 151.042969 140.964844 147.03125 144.980469 C 142.953125 149.058594 140.660156 154.589844 140.660156 160.359375 L 140.660156 162.835938 C 140.660156 168.605469 142.953125 174.136719 147.03125 178.21875 L 179.496094 210.683594 C 180.046875 211.234375 180.941406 211.234375 181.492188 210.683594 L 213.957031 178.21875 C 218.035156 174.136719 220.328125 168.605469 220.328125 162.835938 L 220.328125 160.359375 C 220.328125 154.589844 218.035156 149.058594 213.957031 144.980469 Z M 213.957031 144.980469 " fill-opacity="1" fill-rule="nonzero"/><g clip-path="url(#cbd2e691e8)"><path fill="#2d2828" d="M 235.058594 112.519531 L 139.949219 112.519531 C 125.792969 112.519531 114.273438 124.039062 114.273438 138.199219 L 114.273438 205.132812 C 114.273438 219.292969 125.792969 230.8125 139.949219 230.8125 L 164.410156 230.8125 L 184.421875 260.828125 C 185.109375 261.863281 186.261719 262.480469 187.503906 262.480469 C 188.746094 262.480469 189.898438 261.863281 190.585938 260.828125 L 210.597656 230.8125 L 235.058594 230.8125 C 249.21875 230.8125 260.734375 219.292969 260.734375 205.132812 L 260.734375 138.199219 C 260.734375 124.039062 249.21875 112.519531 235.058594 112.519531 Z M 258.851562 205.132812 C 258.851562 218.253906 248.179688 228.929688 235.058594 228.929688 L 210.09375 228.929688 C 209.78125 228.929688 209.484375 229.085938 209.3125 229.347656 L 189.019531 259.785156 C 188.675781 260.300781 188.125 260.597656 187.503906 260.597656 C 186.882812 260.597656 186.332031 260.300781 185.988281 259.785156 L 165.695312 229.347656 C 165.523438 229.085938 165.230469 228.929688 164.914062 228.929688 L 139.949219 228.929688 C 126.828125 228.929688 116.15625 218.253906 116.15625 205.132812 L 116.15625 138.199219 C 116.15625 125.078125 126.828125 114.402344 139.949219 114.402344 L 235.058594 114.402344 C 248.179688 114.402344 258.851562 125.078125 258.851562 138.199219 Z M 212.597656 137.667969 L 198.578125 137.667969 C 194.503906 137.667969 190.640625 138.90625 187.414062 141.109375 C 184.101562 138.867188 180.183594 137.609375 176.15625 137.667969 L 162.394531 137.667969 C 162.382812 137.667969 162.371094 137.667969 162.359375 137.667969 C 162.28125 137.667969 162.199219 137.667969 162.121094 137.667969 L 161.984375 137.667969 C 161.957031 137.667969 161.929688 137.675781 161.902344 137.675781 C 156.035156 137.808594 150.523438 140.15625 146.367188 144.3125 C 142.078125 148.597656 139.71875 154.296875 139.71875 160.359375 L 139.71875 162.835938 C 139.71875 168.898438 142.078125 174.597656 146.367188 178.882812 L 178.832031 211.347656 C 179.277344 211.792969 179.867188 212.035156 180.492188 212.035156 L 194.515625 212.035156 C 195.144531 212.035156 195.734375 211.792969 196.175781 211.347656 L 228.644531 178.882812 C 232.929688 174.597656 235.289062 168.898438 235.289062 162.835938 L 235.289062 160.359375 C 235.289062 154.296875 232.929688 148.597656 228.644531 144.3125 C 224.359375 140.027344 218.660156 137.667969 212.597656 137.667969 Z M 233.40625 162.835938 C 233.40625 168.394531 231.242188 173.621094 227.3125 177.550781 L 194.847656 210.015625 C 194.726562 210.136719 194.585938 210.152344 194.515625 210.152344 L 183.351562 210.152344 L 214.621094 178.882812 C 218.90625 174.597656 221.265625 168.898438 221.265625 162.835938 L 221.265625 160.359375 C 221.265625 154.296875 218.90625 148.597656 214.621094 144.3125 C 212.578125 142.269531 210.210938 140.671875 207.640625 139.550781 L 212.597656 139.550781 C 218.15625 139.550781 223.382812 141.714844 227.3125 145.644531 C 231.242188 149.574219 233.40625 154.800781 233.40625 160.359375 Z M 141.601562 160.359375 C 141.601562 154.800781 143.765625 149.574219 147.695312 145.644531 C 151.292969 142.046875 156 139.921875 161.042969 139.597656 C 161.355469 139.574219 161.667969 139.5625 161.984375 139.558594 C 162.039062 139.554688 162.089844 139.550781 162.144531 139.550781 C 162.21875 139.550781 162.289062 139.550781 162.359375 139.550781 C 162.550781 139.550781 162.738281 139.5625 162.925781 139.570312 C 169.355469 139.785156 175.402344 143.625 178.488281 149.539062 L 179.660156 151.785156 C 179.820312 152.09375 180.144531 152.289062 180.492188 152.289062 C 180.84375 152.289062 181.164062 152.09375 181.328125 151.785156 L 182.683594 149.1875 C 183.867188 146.914062 185.492188 144.972656 187.417969 143.441406 C 187.679688 143.234375 187.941406 143.035156 188.210938 142.84375 C 188.476562 142.65625 188.746094 142.480469 189.023438 142.308594 C 191.570312 140.699219 194.523438 139.742188 197.636719 139.582031 C 197.949219 139.566406 198.261719 139.550781 198.578125 139.550781 C 198.890625 139.550781 199.207031 139.558594 199.519531 139.574219 C 204.722656 139.804688 209.582031 141.9375 213.289062 145.644531 C 217.222656 149.574219 219.386719 154.800781 219.386719 160.359375 L 219.386719 162.835938 C 219.386719 168.394531 217.222656 173.621094 213.289062 177.550781 L 187.503906 203.335938 L 186.839844 204.003906 L 185.273438 205.570312 L 181.433594 209.40625 L 180.824219 210.015625 C 180.734375 210.109375 180.613281 210.152344 180.492188 210.152344 C 180.375 210.152344 180.253906 210.109375 180.164062 210.015625 L 179.550781 209.40625 L 147.695312 177.550781 C 143.765625 173.621094 141.601562 168.394531 141.601562 162.835938 Z M 176.382812 139.550781 C 179.734375 139.550781 183.003906 140.546875 185.828125 142.316406 C 183.882812 143.953125 182.234375 145.972656 181.011719 148.316406 L 180.492188 149.3125 L 180.15625 148.667969 C 178.035156 144.597656 174.628906 141.425781 170.644531 139.550781 L 176.167969 139.550781 C 176.238281 139.550781 176.308594 139.550781 176.382812 139.550781 Z M 176.382812 139.550781 " fill-opacity="1" fill-rule="nonzero"/></g></svg>