<svg xmlns="http://www.w3.org/2000/svg" xmlns:xlink="http://www.w3.org/1999/xlink" width="500" zoomAndPan="magnify" viewBox="0 0 375 374.999991" height="500" preserveAspectRatio="xMidYMid meet" version="1.0"><defs><clipPath id="2afcfc10e2"><path d="M 112.5 170.589844 L 262.5 170.589844 L 262.5 202 L 112.5 202 Z M 112.5 170.589844 " clip-rule="nonzero"/></clipPath><clipPath id="a08cf478e9"><path d="M 112.5 170.589844 L 262.5 170.589844 L 262.5 204.339844 L 112.5 204.339844 Z M 112.5 170.589844 " clip-rule="nonzero"/></clipPath></defs><g clip-path="url(#2afcfc10e2)"><path fill="#c2fcf7" d="M 123.746094 175.910156 L 123.746094 176.894531 C 123.746094 178.859375 122.605469 180.644531 120.824219 181.46875 L 113.5625 184.824219 C 112.523438 185.300781 112.523438 186.777344 113.5625 187.253906 L 120.824219 190.609375 C 122.605469 191.433594 123.746094 193.21875 123.746094 195.183594 L 123.746094 196.167969 C 123.746094 198.953125 126 201.207031 128.78125 201.207031 L 257.527344 201.207031 C 260.117188 201.207031 262.214844 199.109375 262.214844 196.519531 L 262.214844 175.558594 C 262.214844 172.96875 260.117188 170.871094 257.527344 170.871094 L 128.78125 170.871094 C 126 170.871094 123.746094 173.125 123.746094 175.910156 Z M 123.746094 175.910156 " fill-opacity="1" fill-rule="nonzero"/></g><path fill="#fff789" d="M 140.085938 175.039062 L 143.386719 181.738281 L 150.78125 182.808594 L 145.425781 188.019531 L 146.695312 195.378906 L 140.085938 191.898438 L 133.476562 195.378906 L 134.742188 188.019531 L 129.390625 182.808594 L 136.785156 181.738281 Z M 163.378906 181.738281 L 155.988281 182.808594 L 161.339844 188.019531 L 160.070312 195.378906 L 166.679688 191.898438 L 173.289062 195.378906 L 172.023438 188.019531 L 177.375 182.808594 L 169.984375 181.738281 L 166.679688 175.039062 Z M 189.976562 181.738281 L 182.582031 182.808594 L 187.9375 188.019531 L 186.667969 195.378906 L 193.277344 191.898438 L 199.886719 195.378906 L 198.621094 188.019531 L 203.972656 182.808594 L 196.578125 181.738281 L 193.277344 175.039062 Z M 216.574219 181.738281 L 209.179688 182.808594 L 214.53125 188.019531 L 213.265625 195.378906 L 219.875 191.898438 L 226.484375 195.378906 L 225.214844 188.019531 L 230.566406 182.808594 L 223.175781 181.738281 L 219.875 175.039062 Z M 216.574219 181.738281 " fill-opacity="1" fill-rule="nonzero"/><path fill="#c2fcf7" d="M 246.46875 175.039062 L 249.773438 181.738281 L 257.164062 182.808594 L 251.8125 188.019531 L 253.078125 195.378906 L 246.46875 191.898438 L 239.859375 195.378906 L 241.128906 188.019531 L 235.777344 182.808594 L 243.167969 181.738281 Z M 246.46875 175.039062 " fill-opacity="1" fill-rule="nonzero"/><g clip-path="url(#a08cf478e9)"><path fill="#2d2828" d="M 257.527344 170.589844 L 128.78125 170.589844 C 125.851562 170.589844 123.464844 172.976562 123.464844 175.910156 L 123.464844 176.894531 C 123.464844 178.742188 122.382812 180.4375 120.703125 181.210938 L 113.445312 184.566406 C 112.863281 184.835938 112.503906 185.398438 112.503906 186.039062 C 112.503906 186.679688 112.863281 187.242188 113.445312 187.511719 L 114.714844 188.097656 C 114.386719 188.398438 114.195312 188.820312 114.195312 189.289062 C 114.195312 189.925781 114.554688 190.492188 115.136719 190.757812 L 122.175781 194.011719 C 122.65625 194.234375 123.085938 194.535156 123.453125 194.894531 C 123.460938 194.988281 123.464844 195.085938 123.464844 195.183594 L 123.464844 196.167969 C 123.464844 197.574219 124.015625 198.855469 124.910156 199.808594 C 125.214844 202.386719 127.414062 204.394531 130.074219 204.394531 L 255.941406 204.394531 C 258.359375 204.394531 260.371094 202.621094 260.742188 200.304688 C 261.816406 199.390625 262.496094 198.035156 262.496094 196.519531 L 262.496094 175.558594 C 262.496094 172.820312 260.269531 170.589844 257.527344 170.589844 Z M 261.933594 196.519531 C 261.933594 197.648438 261.507812 198.679688 260.804688 199.460938 C 260.714844 199.5625 260.617188 199.660156 260.515625 199.753906 C 260.421875 199.84375 260.320312 199.925781 260.214844 200.007812 C 259.46875 200.582031 258.539062 200.925781 257.527344 200.925781 L 128.78125 200.925781 C 127.484375 200.925781 126.308594 200.402344 125.449219 199.558594 C 125.347656 199.457031 125.246094 199.347656 125.152344 199.238281 C 125.054688 199.121094 124.960938 198.996094 124.871094 198.871094 C 124.339844 198.101562 124.027344 197.171875 124.027344 196.167969 L 124.027344 195.183594 C 124.027344 195.152344 124.023438 195.125 124.023438 195.09375 C 124.023438 194.941406 124.011719 194.792969 123.996094 194.640625 C 123.804688 192.792969 122.652344 191.144531 120.941406 190.355469 L 115.960938 188.054688 L 115.628906 187.898438 L 115.292969 187.746094 L 113.679688 187 C 113.296875 186.820312 113.066406 186.460938 113.066406 186.039062 C 113.066406 185.617188 113.296875 185.257812 113.679688 185.078125 L 120.941406 181.722656 C 122.816406 180.855469 124.027344 178.960938 124.027344 176.894531 L 124.027344 175.910156 C 124.027344 173.285156 126.160156 171.152344 128.78125 171.152344 L 257.527344 171.152344 C 259.957031 171.152344 261.933594 173.128906 261.933594 175.558594 Z M 204.238281 182.722656 C 204.207031 182.621094 204.117188 182.546875 204.011719 182.53125 L 196.765625 181.480469 L 193.53125 174.914062 C 193.484375 174.820312 193.386719 174.757812 193.277344 174.757812 C 193.171875 174.757812 193.074219 174.820312 193.027344 174.914062 L 189.789062 181.480469 L 182.542969 182.53125 C 182.4375 182.546875 182.347656 182.621094 182.316406 182.722656 C 182.28125 182.824219 182.3125 182.933594 182.386719 183.011719 L 182.960938 183.570312 L 182.542969 183.628906 C 182.4375 183.644531 182.347656 183.71875 182.316406 183.820312 C 182.28125 183.921875 182.3125 184.035156 182.386719 184.109375 L 187.472656 189.058594 L 186.390625 195.332031 C 186.375 195.4375 186.417969 195.542969 186.503906 195.609375 C 186.511719 195.613281 186.523438 195.617188 186.53125 195.621094 L 186.390625 196.433594 C 186.375 196.539062 186.417969 196.644531 186.503906 196.707031 C 186.589844 196.769531 186.703125 196.777344 186.800781 196.730469 L 193.277344 193.316406 L 199.757812 196.730469 C 199.796875 196.75 199.84375 196.761719 199.886719 196.761719 C 199.945312 196.761719 200.003906 196.742188 200.050781 196.707031 C 200.140625 196.644531 200.183594 196.539062 200.164062 196.433594 L 200.023438 195.621094 C 200.035156 195.617188 200.042969 195.613281 200.050781 195.609375 C 200.140625 195.542969 200.183594 195.4375 200.164062 195.332031 L 199.085938 189.058594 L 204.167969 184.109375 C 204.246094 184.035156 204.273438 183.921875 204.238281 183.820312 C 204.207031 183.71875 204.117188 183.644531 204.011719 183.628906 L 203.59375 183.570312 L 204.167969 183.011719 C 204.246094 182.933594 204.273438 182.824219 204.238281 182.722656 Z M 202.636719 183.714844 L 202.382812 183.960938 L 198.421875 187.816406 C 198.355469 187.882812 198.328125 187.976562 198.34375 188.066406 L 198.480469 188.863281 L 199.511719 194.867188 L 199.304688 194.757812 L 193.410156 191.652344 C 193.328125 191.609375 193.230469 191.609375 193.148438 191.652344 L 187.25 194.757812 L 187.042969 194.867188 L 188.074219 188.863281 L 188.210938 188.066406 C 188.226562 187.976562 188.199219 187.882812 188.132812 187.816406 L 184.171875 183.960938 L 183.664062 183.46875 L 183.1875 183.003906 L 190.015625 182.015625 C 190.035156 182.015625 190.054688 182.007812 190.074219 182 C 190.140625 181.976562 190.195312 181.929688 190.226562 181.863281 L 193.175781 175.878906 L 193.277344 175.675781 L 193.378906 175.878906 L 196.328125 181.863281 C 196.359375 181.929688 196.414062 181.976562 196.480469 182 C 196.5 182.007812 196.519531 182.015625 196.539062 182.015625 L 203.367188 183.003906 L 202.890625 183.46875 Z M 151.046875 182.722656 C 151.011719 182.621094 150.925781 182.546875 150.820312 182.53125 L 143.574219 181.480469 L 140.335938 174.914062 C 140.289062 174.820312 140.191406 174.757812 140.085938 174.757812 C 139.976562 174.757812 139.878906 174.820312 139.832031 174.914062 L 136.597656 181.480469 L 129.351562 182.53125 C 129.246094 182.546875 129.15625 182.621094 129.125 182.722656 C 129.089844 182.824219 129.117188 182.933594 129.195312 183.011719 L 129.769531 183.570312 L 129.351562 183.628906 C 129.246094 183.644531 129.15625 183.71875 129.125 183.820312 C 129.089844 183.921875 129.117188 184.035156 129.195312 184.109375 L 134.277344 189.058594 L 133.199219 195.332031 C 133.179688 195.4375 133.222656 195.542969 133.308594 195.609375 C 133.320312 195.613281 133.328125 195.617188 133.339844 195.621094 L 133.199219 196.433594 C 133.179688 196.539062 133.222656 196.644531 133.308594 196.707031 C 133.398438 196.769531 133.511719 196.777344 133.605469 196.730469 L 140.085938 193.316406 L 146.5625 196.730469 C 146.605469 196.75 146.648438 196.761719 146.695312 196.761719 C 146.753906 196.761719 146.8125 196.742188 146.859375 196.707031 C 146.945312 196.644531 146.988281 196.539062 146.972656 196.433594 L 146.832031 195.621094 C 146.839844 195.617188 146.851562 195.613281 146.859375 195.609375 C 146.945312 195.542969 146.988281 195.4375 146.972656 195.332031 L 145.890625 189.058594 L 150.976562 184.109375 C 151.050781 184.035156 151.078125 183.921875 151.046875 183.820312 C 151.011719 183.71875 150.925781 183.644531 150.820312 183.628906 L 150.402344 183.570312 L 150.976562 183.011719 C 151.050781 182.933594 151.078125 182.824219 151.046875 182.722656 Z M 149.445312 183.714844 L 149.191406 183.960938 L 145.230469 187.816406 C 145.164062 187.882812 145.132812 187.976562 145.148438 188.066406 L 145.289062 188.863281 L 146.320312 194.867188 L 146.113281 194.757812 L 140.214844 191.652344 C 140.175781 191.628906 140.128906 191.617188 140.085938 191.617188 C 140.039062 191.617188 139.996094 191.628906 139.953125 191.652344 L 134.058594 194.757812 L 133.851562 194.867188 L 134.882812 188.863281 L 135.019531 188.066406 C 135.035156 187.976562 135.003906 187.882812 134.9375 187.816406 L 130.980469 183.960938 L 130.472656 183.46875 L 129.996094 183.003906 L 136.824219 182.015625 C 136.84375 182.015625 136.863281 182.007812 136.882812 182 C 136.949219 181.976562 137.003906 181.929688 137.035156 181.863281 L 139.984375 175.878906 L 140.085938 175.675781 L 140.183594 175.878906 L 143.132812 181.863281 C 143.167969 181.929688 143.222656 181.976562 143.289062 182 C 143.304688 182.007812 143.324219 182.015625 143.347656 182.015625 L 150.175781 183.003906 L 149.699219 183.46875 Z M 230.835938 182.722656 C 230.800781 182.621094 230.714844 182.546875 230.609375 182.53125 L 223.363281 181.480469 L 220.125 174.914062 C 220.078125 174.820312 219.980469 174.757812 219.875 174.757812 C 219.765625 174.757812 219.667969 174.820312 219.621094 174.914062 L 216.386719 181.480469 L 209.140625 182.53125 C 209.035156 182.546875 208.945312 182.621094 208.914062 182.722656 C 208.878906 182.824219 208.90625 182.933594 208.984375 183.011719 L 209.558594 183.570312 L 209.140625 183.628906 C 209.035156 183.644531 208.945312 183.71875 208.914062 183.820312 C 208.878906 183.921875 208.90625 184.035156 208.984375 184.109375 L 214.066406 189.058594 L 212.988281 195.332031 C 212.96875 195.4375 213.011719 195.542969 213.097656 195.609375 C 213.109375 195.613281 213.117188 195.617188 213.128906 195.621094 L 212.988281 196.433594 C 212.96875 196.539062 213.011719 196.644531 213.097656 196.707031 C 213.1875 196.769531 213.300781 196.777344 213.394531 196.730469 L 219.875 193.316406 L 226.351562 196.730469 C 226.394531 196.75 226.4375 196.761719 226.484375 196.761719 C 226.542969 196.761719 226.597656 196.742188 226.648438 196.707031 C 226.734375 196.644531 226.777344 196.539062 226.761719 196.433594 L 226.621094 195.621094 C 226.628906 195.617188 226.640625 195.613281 226.648438 195.609375 C 226.734375 195.542969 226.777344 195.4375 226.761719 195.332031 L 225.679688 189.058594 L 230.765625 184.109375 C 230.839844 184.035156 230.867188 183.921875 230.835938 183.820312 C 230.800781 183.71875 230.714844 183.644531 230.609375 183.628906 L 230.191406 183.570312 L 230.765625 183.011719 C 230.839844 182.933594 230.867188 182.824219 230.835938 182.722656 Z M 229.234375 183.714844 L 228.980469 183.960938 L 225.019531 187.816406 C 224.953125 187.882812 224.921875 187.976562 224.9375 188.066406 L 225.074219 188.863281 L 226.109375 194.867188 L 225.902344 194.757812 L 220.003906 191.652344 C 219.921875 191.609375 219.824219 191.609375 219.742188 191.652344 L 213.847656 194.757812 L 213.636719 194.867188 L 214.671875 188.863281 L 214.808594 188.066406 C 214.824219 187.976562 214.792969 187.882812 214.726562 187.816406 L 210.769531 183.960938 L 210.261719 183.46875 L 209.785156 183.003906 L 216.613281 182.015625 C 216.632812 182.015625 216.652344 182.007812 216.671875 182 C 216.738281 181.976562 216.792969 181.929688 216.824219 181.863281 L 219.773438 175.878906 L 219.875 175.675781 L 219.972656 175.878906 L 222.921875 181.863281 C 222.957031 181.929688 223.011719 181.976562 223.078125 182 C 223.09375 182.007812 223.113281 182.015625 223.136719 182.015625 L 229.964844 183.003906 L 229.488281 183.46875 Z M 177.644531 182.722656 C 177.609375 182.621094 177.523438 182.546875 177.414062 182.53125 L 170.167969 181.480469 L 166.933594 174.914062 C 166.886719 174.820312 166.789062 174.757812 166.679688 174.757812 C 166.574219 174.757812 166.476562 174.820312 166.429688 174.914062 L 163.191406 181.480469 L 155.945312 182.53125 C 155.839844 182.546875 155.753906 182.621094 155.71875 182.722656 C 155.6875 182.824219 155.714844 182.933594 155.792969 183.011719 L 156.367188 183.570312 L 155.945312 183.628906 C 155.839844 183.644531 155.753906 183.71875 155.71875 183.820312 C 155.6875 183.921875 155.714844 184.035156 155.792969 184.109375 L 160.875 189.058594 L 159.796875 195.332031 C 159.777344 195.4375 159.820312 195.542969 159.90625 195.609375 C 159.914062 195.613281 159.925781 195.617188 159.933594 195.621094 L 159.796875 196.433594 C 159.777344 196.539062 159.820312 196.644531 159.90625 196.707031 C 159.992188 196.769531 160.109375 196.777344 160.203125 196.730469 L 166.679688 193.316406 L 173.160156 196.730469 C 173.199219 196.75 173.246094 196.761719 173.289062 196.761719 C 173.347656 196.761719 173.40625 196.742188 173.457031 196.707031 C 173.542969 196.644531 173.585938 196.539062 173.566406 196.433594 L 173.429688 195.621094 C 173.4375 195.617188 173.449219 195.613281 173.457031 195.609375 C 173.542969 195.542969 173.585938 195.4375 173.566406 195.332031 L 172.488281 189.058594 L 177.570312 184.109375 C 177.648438 184.035156 177.675781 183.921875 177.644531 183.820312 C 177.609375 183.71875 177.523438 183.644531 177.414062 183.628906 L 176.996094 183.570312 L 177.570312 183.011719 C 177.648438 182.933594 177.675781 182.824219 177.644531 182.722656 Z M 176.042969 183.714844 L 175.789062 183.960938 L 171.828125 187.816406 C 171.761719 187.882812 171.730469 187.976562 171.746094 188.066406 L 171.882812 188.863281 L 172.917969 194.867188 L 172.707031 194.757812 L 166.8125 191.652344 C 166.730469 191.609375 166.632812 191.609375 166.550781 191.652344 L 160.652344 194.757812 L 160.445312 194.867188 L 161.480469 188.863281 L 161.617188 188.066406 C 161.632812 187.976562 161.601562 187.882812 161.535156 187.816406 L 157.574219 183.960938 L 157.066406 183.46875 L 156.59375 183.003906 L 163.421875 182.015625 C 163.441406 182.015625 163.460938 182.007812 163.480469 182 C 163.546875 181.976562 163.601562 181.929688 163.632812 181.863281 L 166.582031 175.878906 L 166.679688 175.675781 L 166.78125 175.878906 L 169.730469 181.863281 C 169.761719 181.929688 169.816406 181.976562 169.882812 182 C 169.902344 182.007812 169.921875 182.015625 169.941406 182.015625 L 176.769531 183.003906 L 176.296875 183.46875 Z M 257.433594 182.722656 C 257.398438 182.621094 257.3125 182.546875 257.203125 182.53125 L 249.957031 181.480469 L 246.722656 174.914062 C 246.675781 174.820312 246.578125 174.757812 246.46875 174.757812 C 246.363281 174.757812 246.265625 174.820312 246.21875 174.914062 L 242.980469 181.480469 L 235.734375 182.53125 C 235.628906 182.546875 235.542969 182.621094 235.507812 182.722656 C 235.476562 182.824219 235.503906 182.933594 235.578125 183.011719 L 236.15625 183.570312 L 235.734375 183.628906 C 235.628906 183.644531 235.542969 183.71875 235.507812 183.820312 C 235.476562 183.921875 235.503906 184.035156 235.578125 184.109375 L 240.664062 189.058594 L 239.582031 195.332031 C 239.566406 195.4375 239.609375 195.542969 239.695312 195.609375 C 239.703125 195.613281 239.714844 195.617188 239.722656 195.621094 L 239.582031 196.433594 C 239.566406 196.539062 239.609375 196.644531 239.695312 196.707031 C 239.78125 196.769531 239.898438 196.777344 239.992188 196.730469 L 246.46875 193.316406 L 252.949219 196.730469 C 252.988281 196.75 253.035156 196.761719 253.078125 196.761719 C 253.136719 196.761719 253.195312 196.742188 253.246094 196.707031 C 253.332031 196.644531 253.375 196.539062 253.355469 196.433594 L 253.21875 195.621094 C 253.226562 195.617188 253.234375 195.613281 253.246094 195.609375 C 253.332031 195.542969 253.375 195.4375 253.355469 195.332031 L 252.277344 189.058594 L 257.359375 184.109375 C 257.4375 184.035156 257.464844 183.921875 257.433594 183.820312 C 257.398438 183.71875 257.3125 183.644531 257.203125 183.628906 L 256.785156 183.570312 L 257.359375 183.011719 C 257.4375 182.933594 257.464844 182.824219 257.433594 182.722656 Z M 255.832031 183.714844 L 255.574219 183.960938 L 251.617188 187.816406 C 251.550781 187.882812 251.519531 187.976562 251.535156 188.066406 L 251.671875 188.863281 L 252.707031 194.867188 L 252.496094 194.757812 L 246.601562 191.652344 C 246.519531 191.609375 246.421875 191.609375 246.339844 191.652344 L 240.441406 194.757812 L 240.234375 194.867188 L 241.269531 188.863281 L 241.40625 188.066406 C 241.421875 187.976562 241.390625 187.882812 241.324219 187.816406 L 237.363281 183.960938 L 236.855469 183.46875 L 236.382812 183.003906 L 243.207031 182.015625 C 243.230469 182.015625 243.25 182.007812 243.269531 182 C 243.332031 181.976562 243.390625 181.929688 243.421875 181.863281 L 246.371094 175.878906 L 246.46875 175.675781 L 246.570312 175.878906 L 249.519531 181.863281 C 249.550781 181.929688 249.605469 181.976562 249.671875 182 C 249.691406 182.007812 249.710938 182.015625 249.730469 182.015625 L 256.558594 183.003906 L 256.085938 183.46875 Z M 255.832031 183.714844 " fill-opacity="1" fill-rule="nonzero"/></g></svg>