<svg xmlns="http://www.w3.org/2000/svg" xmlns:xlink="http://www.w3.org/1999/xlink" width="500" zoomAndPan="magnify" viewBox="0 0 375 374.999991" height="500" preserveAspectRatio="xMidYMid meet" version="1.2"><defs><clipPath id="b72f1af073"><path d="M 14.660156 0 L 360.410156 0 L 360.410156 375 L 14.660156 375 Z M 14.660156 0 "/></clipPath></defs><g id="b149ca9402"><path style=" stroke:none;fill-rule:nonzero;fill:#264414;fill-opacity:1;" d="M 357.546875 173 L 357.546875 202 C 357.546875 295.917969 281.414062 372.050781 187.496094 372.050781 C 93.578125 372.050781 17.445312 295.917969 17.445312 202 L 17.445312 173 L 19.917969 173 C 33.6875 92.898438 103.46875 31.949219 187.496094 31.949219 C 271.523438 31.949219 341.308594 92.898438 355.074219 173 Z M 357.546875 173 "/><path style=" stroke:none;fill-rule:nonzero;fill:#f6f7f8;fill-opacity:1;" d="M 357.546875 173 C 357.546875 175.78125 357.480469 178.5625 357.34375 181.34375 C 357.207031 184.121094 357 186.898438 356.730469 189.667969 C 356.457031 192.4375 356.113281 195.195312 355.707031 197.949219 C 355.296875 200.703125 354.824219 203.445312 354.28125 206.171875 C 353.738281 208.902344 353.128906 211.617188 352.449219 214.316406 C 351.773438 217.015625 351.03125 219.699219 350.226562 222.363281 C 349.417969 225.023438 348.542969 227.667969 347.605469 230.285156 C 346.667969 232.90625 345.667969 235.503906 344.601562 238.074219 C 343.539062 240.644531 342.410156 243.1875 341.21875 245.703125 C 340.03125 248.21875 338.78125 250.707031 337.46875 253.160156 C 336.15625 255.613281 334.785156 258.035156 333.355469 260.421875 C 331.921875 262.808594 330.433594 265.160156 328.886719 267.472656 C 327.34375 269.789062 325.742188 272.0625 324.082031 274.296875 C 322.425781 276.53125 320.714844 278.726562 318.949219 280.878906 C 317.183594 283.027344 315.363281 285.136719 313.496094 287.199219 C 311.628906 289.257812 309.707031 291.273438 307.742188 293.242188 C 305.773438 295.210938 303.757812 297.128906 301.695312 298.996094 C 299.632812 300.867188 297.527344 302.683594 295.375 304.449219 C 293.222656 306.214844 291.03125 307.925781 288.796875 309.585938 C 286.558594 311.242188 284.285156 312.84375 281.972656 314.390625 C 279.65625 315.9375 277.308594 317.425781 274.921875 318.855469 C 272.53125 320.285156 270.113281 321.65625 267.65625 322.96875 C 265.203125 324.28125 262.71875 325.53125 260.203125 326.722656 C 257.6875 327.914062 255.144531 329.039062 252.570312 330.105469 C 250 331.167969 247.40625 332.171875 244.785156 333.109375 C 242.164062 334.046875 239.523438 334.917969 236.859375 335.726562 C 234.195312 336.535156 231.515625 337.277344 228.816406 337.953125 C 226.117188 338.628906 223.402344 339.238281 220.671875 339.78125 C 217.941406 340.324219 215.199219 340.800781 212.449219 341.207031 C 209.695312 341.617188 206.933594 341.957031 204.164062 342.230469 C 201.394531 342.503906 198.621094 342.707031 195.839844 342.84375 C 193.0625 342.980469 190.28125 343.050781 187.496094 343.050781 C 184.714844 343.050781 181.933594 342.980469 179.152344 342.84375 C 176.371094 342.707031 173.597656 342.503906 170.828125 342.230469 C 168.058594 341.957031 165.296875 341.617188 162.546875 341.207031 C 159.792969 340.800781 157.050781 340.324219 154.320312 339.78125 C 151.59375 339.238281 148.878906 338.628906 146.175781 337.953125 C 143.476562 337.277344 140.796875 336.535156 138.132812 335.726562 C 135.46875 334.917969 132.828125 334.046875 130.207031 333.109375 C 127.589844 332.171875 124.992188 331.167969 122.421875 330.105469 C 119.851562 329.039062 117.304688 327.914062 114.789062 326.722656 C 112.273438 325.53125 109.789062 324.28125 107.335938 322.96875 C 104.882812 321.65625 102.460938 320.285156 100.074219 318.855469 C 97.6875 317.425781 95.335938 315.9375 93.023438 314.390625 C 90.707031 312.84375 88.433594 311.242188 86.199219 309.585938 C 83.960938 307.925781 81.769531 306.214844 79.617188 304.449219 C 77.464844 302.683594 75.359375 300.867188 73.296875 298.996094 C 71.234375 297.128906 69.21875 295.210938 67.253906 293.242188 C 65.285156 291.273438 63.367188 289.257812 61.496094 287.199219 C 59.628906 285.136719 57.8125 283.027344 56.046875 280.878906 C 54.28125 278.726562 52.570312 276.53125 50.910156 274.296875 C 49.253906 272.0625 47.652344 269.789062 46.105469 267.472656 C 44.558594 265.160156 43.070312 262.808594 41.640625 260.421875 C 40.207031 258.035156 38.835938 255.613281 37.523438 253.160156 C 36.214844 250.707031 34.960938 248.21875 33.773438 245.703125 C 32.582031 243.1875 31.457031 240.644531 30.390625 238.074219 C 29.324219 235.503906 28.324219 232.90625 27.386719 230.285156 C 26.449219 227.667969 25.574219 225.023438 24.769531 222.363281 C 23.960938 219.699219 23.21875 217.015625 22.542969 214.316406 C 21.867188 211.617188 21.257812 208.902344 20.714844 206.171875 C 20.171875 203.445312 19.695312 200.703125 19.285156 197.949219 C 18.878906 195.195312 18.539062 192.4375 18.265625 189.667969 C 17.992188 186.898438 17.789062 184.121094 17.652344 181.34375 C 17.515625 178.5625 17.445312 175.78125 17.445312 173 C 17.445312 170.214844 17.515625 167.433594 17.652344 164.65625 C 17.789062 161.875 17.992188 159.101562 18.265625 156.332031 C 18.539062 153.5625 18.878906 150.800781 19.285156 148.046875 C 19.695312 145.292969 20.171875 142.550781 20.714844 139.824219 C 21.257812 137.09375 21.867188 134.378906 22.542969 131.679688 C 23.21875 128.980469 23.960938 126.296875 24.769531 123.636719 C 25.574219 120.972656 26.449219 118.332031 27.386719 115.710938 C 28.324219 113.089844 29.324219 110.492188 30.390625 107.921875 C 31.457031 105.351562 32.582031 102.808594 33.773438 100.292969 C 34.960938 97.777344 36.214844 95.292969 37.523438 92.835938 C 38.835938 90.382812 40.207031 87.960938 41.640625 85.574219 C 43.070312 83.1875 44.558594 80.835938 46.105469 78.523438 C 47.652344 76.210938 49.253906 73.933594 50.910156 71.699219 C 52.570312 69.464844 54.28125 67.269531 56.046875 65.121094 C 57.8125 62.96875 59.628906 60.863281 61.496094 58.800781 C 63.367188 56.738281 65.285156 54.722656 67.253906 52.753906 C 69.21875 50.785156 71.234375 48.867188 73.296875 47 C 75.359375 45.128906 77.464844 43.3125 79.617188 41.546875 C 81.769531 39.78125 83.960938 38.070312 86.199219 36.414062 C 88.433594 34.753906 90.707031 33.152344 93.023438 31.605469 C 95.335938 30.058594 97.6875 28.570312 100.074219 27.140625 C 102.460938 25.710938 104.882812 24.339844 107.335938 23.027344 C 109.789062 21.714844 112.273438 20.464844 114.789062 19.273438 C 117.304688 18.085938 119.851562 16.957031 122.421875 15.890625 C 124.992188 14.828125 127.589844 13.824219 130.207031 12.886719 C 132.828125 11.949219 135.46875 11.078125 138.132812 10.269531 C 140.796875 9.460938 143.476562 8.71875 146.175781 8.042969 C 148.878906 7.367188 151.59375 6.757812 154.320312 6.214844 C 157.050781 5.671875 159.792969 5.195312 162.546875 4.789062 C 165.296875 4.378906 168.058594 4.039062 170.828125 3.765625 C 173.597656 3.492188 176.371094 3.289062 179.152344 3.152344 C 181.933594 3.015625 184.714844 2.949219 187.496094 2.949219 C 190.28125 2.949219 193.0625 3.015625 195.839844 3.152344 C 198.621094 3.289062 201.394531 3.492188 204.164062 3.765625 C 206.933594 4.039062 209.695312 4.378906 212.449219 4.789062 C 215.199219 5.195312 217.941406 5.671875 220.671875 6.214844 C 223.402344 6.757812 226.117188 7.367188 228.816406 8.042969 C 231.515625 8.71875 234.195312 9.460938 236.859375 10.269531 C 239.523438 11.078125 242.164062 11.949219 244.785156 12.886719 C 247.40625 13.824219 250 14.828125 252.570312 15.890625 C 255.144531 16.957031 257.6875 18.085938 260.203125 19.273438 C 262.71875 20.464844 265.203125 21.714844 267.65625 23.027344 C 270.113281 24.339844 272.53125 25.710938 274.921875 27.140625 C 277.308594 28.570312 279.65625 30.058594 281.972656 31.605469 C 284.285156 33.152344 286.558594 34.753906 288.796875 36.414062 C 291.03125 38.070312 293.222656 39.78125 295.375 41.546875 C 297.527344 43.3125 299.632812 45.128906 301.695312 47 C 303.757812 48.867188 305.773438 50.785156 307.742188 52.753906 C 309.707031 54.722656 311.628906 56.738281 313.496094 58.800781 C 315.363281 60.863281 317.183594 62.96875 318.949219 65.121094 C 320.714844 67.269531 322.425781 69.464844 324.082031 71.699219 C 325.742188 73.933594 327.34375 76.210938 328.886719 78.523438 C 330.433594 80.835938 331.921875 83.1875 333.355469 85.574219 C 334.785156 87.960938 336.15625 90.382812 337.46875 92.835938 C 338.78125 95.292969 340.03125 97.777344 341.21875 100.292969 C 342.410156 102.808594 343.539062 105.351562 344.601562 107.921875 C 345.667969 110.492188 346.667969 113.089844 347.605469 115.710938 C 348.542969 118.332031 349.417969 120.972656 350.226562 123.636719 C 351.03125 126.296875 351.773438 128.980469 352.449219 131.679688 C 353.128906 134.378906 353.738281 137.09375 354.28125 139.824219 C 354.824219 142.550781 355.296875 145.292969 355.707031 148.046875 C 356.113281 150.800781 356.457031 153.5625 356.730469 156.332031 C 357 159.101562 357.207031 161.875 357.34375 164.65625 C 357.480469 167.433594 357.546875 170.214844 357.546875 173 Z M 357.546875 173 "/><path style=" stroke:none;fill-rule:nonzero;fill:#c2fcf7;fill-opacity:1;" d="M 273.554688 244.609375 C 273.554688 264.199219 257.671875 280.082031 238.082031 280.082031 C 218.492188 280.082031 202.609375 264.199219 202.609375 244.609375 C 202.609375 240.777344 203.234375 237.097656 204.355469 233.640625 L 146.640625 197.390625 C 140.269531 203.488281 131.648438 207.257812 122.128906 207.257812 C 102.539062 207.257812 86.65625 191.375 86.65625 171.785156 C 86.65625 152.191406 102.539062 136.3125 122.128906 136.3125 C 131.84375 136.3125 140.636719 140.222656 147.042969 146.542969 L 204.183594 111.851562 C 203.164062 108.542969 202.609375 105.03125 202.609375 101.386719 C 202.609375 81.796875 218.492188 65.914062 238.082031 65.914062 C 257.671875 65.914062 273.554688 81.796875 273.554688 101.386719 C 273.554688 120.980469 257.671875 136.859375 238.082031 136.859375 C 228.371094 136.859375 219.578125 132.949219 213.171875 126.628906 L 156.03125 161.320312 C 157.050781 164.628906 157.605469 168.140625 157.605469 171.785156 C 157.605469 175.617188 156.980469 179.296875 155.855469 182.753906 L 213.574219 219.003906 C 219.945312 212.902344 228.566406 209.136719 238.082031 209.136719 C 257.671875 209.136719 273.554688 225.015625 273.554688 244.609375 Z M 273.554688 244.609375 "/><g clip-rule="nonzero" clip-path="url(#b72f1af073)"><path style=" stroke:none;fill-rule:nonzero;fill:#2d2828;fill-opacity:1;" d="M 187.496094 0.160156 C 92.195312 0.160156 14.660156 77.695312 14.660156 173 L 14.660156 202 C 14.660156 297.304688 92.195312 374.839844 187.496094 374.839844 C 282.800781 374.839844 360.335938 297.304688 360.335938 202 L 360.335938 173 C 360.335938 77.695312 282.800781 0.160156 187.496094 0.160156 Z M 187.496094 369.265625 C 101.453125 369.265625 30.382812 303.953125 21.238281 220.300781 C 41.863281 292.683594 108.589844 345.835938 187.496094 345.835938 C 266.40625 345.835938 333.132812 292.683594 353.753906 220.300781 C 344.609375 303.953125 273.542969 369.265625 187.496094 369.265625 Z M 353.753906 154.699219 C 354.3125 159.804688 354.640625 164.976562 354.726562 170.210938 C 354.730469 170.503906 354.734375 170.796875 354.738281 171.09375 C 354.742188 171.726562 354.761719 172.359375 354.761719 173 C 354.761719 173.929688 354.742188 174.855469 354.726562 175.785156 C 354.660156 179.726562 354.457031 183.628906 354.125 187.5 C 353.785156 191.445312 353.3125 195.351562 352.699219 199.214844 C 352.554688 200.144531 352.398438 201.074219 352.238281 202 C 352.074219 202.933594 351.894531 203.863281 351.714844 204.789062 C 336.824219 281.867188 268.859375 340.261719 187.496094 340.261719 C 106.136719 340.261719 38.167969 281.867188 23.277344 204.789062 C 23.097656 203.863281 22.921875 202.933594 22.757812 202 C 22.59375 201.074219 22.441406 200.144531 22.292969 199.214844 C 21.683594 195.351562 21.210938 191.445312 20.871094 187.5 C 20.535156 183.628906 20.335938 179.726562 20.269531 175.785156 C 20.253906 174.855469 20.234375 173.929688 20.234375 173 C 20.234375 172.359375 20.25 171.722656 20.257812 171.082031 C 20.261719 170.792969 20.265625 170.5 20.269531 170.210938 C 20.355469 164.976562 20.679688 159.804688 21.238281 154.699219 C 30.382812 71.046875 101.453125 5.734375 187.496094 5.734375 C 273.542969 5.734375 344.609375 71.046875 353.753906 154.699219 Z M 84.078125 175.785156 C 85.035156 184.9375 89.234375 193.132812 95.496094 199.214844 C 96.511719 200.203125 97.582031 201.132812 98.703125 202 C 100.007812 203.015625 101.378906 203.949219 102.8125 204.789062 C 108.484375 208.125 115.085938 210.046875 122.132812 210.046875 C 129.003906 210.046875 135.640625 208.214844 141.457031 204.789062 C 142.859375 203.960938 144.199219 203.011719 145.5 202 C 145.980469 201.625 146.476562 201.273438 146.945312 200.871094 L 148.742188 202 L 153.179688 204.789062 L 201.089844 234.878906 C 200.246094 238.066406 199.820312 241.332031 199.820312 244.609375 C 199.820312 265.707031 216.984375 282.871094 238.082031 282.871094 C 259.179688 282.871094 276.34375 265.707031 276.34375 244.609375 C 276.34375 223.511719 259.179688 206.347656 238.082031 206.347656 C 228.929688 206.347656 220.203125 209.589844 213.269531 215.519531 L 196.183594 204.789062 L 191.742188 202 L 187.304688 199.214844 L 159.125 181.515625 C 159.621094 179.628906 159.957031 177.710938 160.160156 175.785156 C 160.257812 174.859375 160.320312 173.929688 160.351562 173 C 160.363281 172.59375 160.390625 172.191406 160.390625 171.785156 C 160.390625 171.257812 160.363281 170.734375 160.34375 170.210938 C 160.238281 167.644531 159.894531 165.097656 159.277344 162.609375 L 212.8125 130.105469 C 219.808594 136.277344 228.699219 139.648438 238.082031 139.648438 C 259.179688 139.648438 276.34375 122.484375 276.34375 101.386719 C 276.34375 80.289062 259.179688 63.128906 238.082031 63.128906 C 216.984375 63.128906 199.820312 80.289062 199.820312 101.386719 C 199.820312 104.492188 200.195312 107.566406 200.933594 110.5625 L 147.398438 143.066406 C 140.40625 136.898438 131.511719 133.523438 122.132812 133.523438 C 101.5625 133.523438 84.738281 149.839844 83.910156 170.210938 C 83.886719 170.734375 83.867188 171.257812 83.867188 171.785156 C 83.867188 172.191406 83.886719 172.59375 83.898438 173 C 83.929688 173.933594 83.984375 174.867188 84.078125 175.785156 Z M 89.445312 171.785156 C 89.445312 171.253906 89.5 170.734375 89.523438 170.210938 C 90.351562 152.921875 104.636719 139.097656 122.132812 139.097656 C 130.769531 139.097656 138.921875 142.449219 145.082031 148.527344 C 145.992188 149.425781 147.394531 149.589844 148.488281 148.925781 L 205.628906 114.234375 C 206.722656 113.574219 207.222656 112.25 206.847656 111.03125 C 205.882812 107.910156 205.394531 104.667969 205.394531 101.386719 C 205.394531 83.363281 220.058594 68.703125 238.082031 68.703125 C 256.105469 68.703125 270.769531 83.363281 270.769531 101.386719 C 270.769531 119.410156 256.105469 134.074219 238.082031 134.074219 C 229.441406 134.074219 221.289062 130.726562 215.128906 124.644531 C 214.222656 123.75 212.820312 123.582031 211.726562 124.246094 L 154.585938 158.9375 C 153.492188 159.601562 152.992188 160.921875 153.367188 162.140625 C 154.175781 164.761719 154.625 167.472656 154.757812 170.210938 C 154.78125 170.734375 154.816406 171.257812 154.816406 171.785156 C 154.816406 172.191406 154.785156 172.59375 154.769531 173 C 154.734375 173.929688 154.65625 174.859375 154.542969 175.785156 C 154.285156 177.847656 153.855469 179.890625 153.203125 181.890625 C 152.808594 183.105469 153.289062 184.433594 154.375 185.113281 L 176.824219 199.214844 L 181.261719 202 L 185.699219 204.789062 L 212.089844 221.363281 C 213.171875 222.046875 214.578125 221.898438 215.5 221.015625 C 221.625 215.152344 229.644531 211.921875 238.082031 211.921875 C 256.105469 211.921875 270.769531 226.585938 270.769531 244.609375 C 270.769531 262.632812 256.105469 277.292969 238.082031 277.292969 C 220.058594 277.292969 205.394531 262.632812 205.394531 244.609375 C 205.394531 241.191406 205.9375 237.792969 207.007812 234.5 C 207.402344 233.285156 206.921875 231.957031 205.839844 231.277344 L 163.660156 204.789062 L 159.222656 202 L 154.785156 199.214844 L 148.121094 195.03125 C 147.664062 194.742188 147.152344 194.601562 146.640625 194.601562 C 145.9375 194.601562 145.246094 194.867188 144.710938 195.375 C 143.203125 196.820312 141.578125 198.097656 139.863281 199.214844 C 138.175781 200.3125 136.394531 201.238281 134.550781 202 C 130.648438 203.613281 126.445312 204.46875 122.132812 204.46875 C 117.730469 204.46875 113.539062 203.585938 109.703125 202 C 107.847656 201.234375 106.085938 200.292969 104.417969 199.214844 C 96.484375 194.074219 90.921875 185.601562 89.714844 175.785156 C 89.601562 174.867188 89.539062 173.9375 89.503906 173 C 89.492188 172.59375 89.445312 172.195312 89.445312 171.785156 Z M 89.445312 171.785156 "/></g></g></svg>