<svg xmlns="http://www.w3.org/2000/svg" xmlns:xlink="http://www.w3.org/1999/xlink" width="500" zoomAndPan="magnify" viewBox="0 0 375 374.999991" height="500" preserveAspectRatio="xMidYMid meet" version="1.0"><defs><clipPath id="ea1816cb2f"><path d="M 119.453125 112.5 L 255.203125 112.5 L 255.203125 262.5 L 119.453125 262.5 Z M 119.453125 112.5 " clip-rule="nonzero"/></clipPath><clipPath id="c5f3748e61"><path d="M 119.453125 116 L 250 116 L 250 262.5 L 119.453125 262.5 Z M 119.453125 116 " clip-rule="nonzero"/></clipPath><clipPath id="09c22168a9"><path d="M 131 112.5 L 255.203125 112.5 L 255.203125 251 L 131 251 Z M 131 112.5 " clip-rule="nonzero"/></clipPath><clipPath id="588c12d7a4"><path d="M 119.453125 112.5 L 255.203125 112.5 L 255.203125 262.5 L 119.453125 262.5 Z M 119.453125 112.5 " clip-rule="nonzero"/></clipPath></defs><g clip-path="url(#ea1816cb2f)"><path fill="#2d2828" d="M 124.890625 262.417969 C 121.921875 262.417969 119.507812 260.003906 119.507812 257.035156 L 119.507812 129.664062 C 119.507812 127.214844 121.167969 125.074219 123.542969 124.457031 L 123.574219 124.449219 L 123.582031 124.421875 C 124.070312 122.523438 125.550781 121.042969 127.445312 120.558594 L 127.476562 120.546875 L 127.484375 120.519531 C 127.972656 118.621094 129.453125 117.144531 131.347656 116.65625 L 131.378906 116.648438 L 131.386719 116.617188 C 132 114.242188 134.140625 112.582031 136.589844 112.582031 L 250.113281 112.582031 C 253.082031 112.582031 255.496094 114.996094 255.496094 117.964844 L 255.496094 245.335938 C 255.496094 247.785156 253.835938 249.925781 251.460938 250.542969 L 251.429688 250.550781 L 251.421875 250.582031 C 250.933594 252.476562 249.457031 253.957031 247.558594 254.441406 L 247.53125 254.453125 L 247.519531 254.480469 C 247.035156 256.378906 245.554688 257.855469 243.65625 258.34375 L 243.625 258.351562 L 243.617188 258.382812 C 243.003906 260.757812 240.863281 262.417969 238.414062 262.417969 Z M 124.890625 262.417969 " fill-opacity="1" fill-rule="nonzero"/></g><path fill="#fff789" d="M 251.160156 250.28125 C 250.75 252.234375 249.214844 253.773438 247.261719 254.183594 C 246.921875 254.253906 246.574219 254.292969 246.214844 254.292969 L 132.691406 254.292969 C 129.898438 254.292969 127.636719 252.027344 127.636719 249.234375 L 127.636719 121.863281 C 127.636719 121.503906 127.671875 121.15625 127.746094 120.816406 C 128.15625 118.863281 129.691406 117.328125 131.644531 116.917969 C 131.632812 116.972656 131.625 117.03125 131.613281 117.085938 C 131.5625 117.371094 131.535156 117.664062 131.535156 117.964844 L 131.535156 245.335938 C 131.535156 248.128906 133.800781 250.390625 136.589844 250.390625 L 250.113281 250.390625 C 250.472656 250.390625 250.824219 250.355469 251.160156 250.28125 Z M 187.503906 120.21875 C 188.601562 120.21875 189.488281 119.328125 189.488281 118.230469 C 189.488281 117.132812 188.601562 116.242188 187.503906 116.242188 C 186.40625 116.242188 185.515625 117.132812 185.515625 118.230469 C 185.515625 119.328125 186.40625 120.21875 187.503906 120.21875 Z M 143.035156 134.546875 C 146.207031 134.546875 148.78125 131.972656 148.78125 128.800781 C 148.78125 125.628906 146.207031 123.054688 143.035156 123.054688 C 139.863281 123.054688 137.289062 125.628906 137.289062 128.800781 C 137.289062 131.972656 139.863281 134.546875 143.035156 134.546875 Z M 143.035156 134.546875 " fill-opacity="1" fill-rule="nonzero"/><path fill="#f35695" d="M 247.261719 254.183594 C 246.851562 256.136719 245.3125 257.671875 243.359375 258.082031 C 243.023438 258.152344 242.671875 258.191406 242.3125 258.191406 L 128.789062 258.191406 C 126 258.191406 123.734375 255.929688 123.734375 253.136719 L 123.734375 125.765625 C 123.734375 125.40625 123.773438 125.054688 123.84375 124.71875 C 124.253906 122.765625 125.792969 121.226562 127.746094 120.816406 C 127.671875 121.15625 127.636719 121.503906 127.636719 121.863281 L 127.636719 249.234375 C 127.636719 252.027344 129.898438 254.292969 132.691406 254.292969 L 246.214844 254.292969 C 246.574219 254.292969 246.921875 254.253906 247.261719 254.183594 Z M 194.550781 120.21875 C 195.648438 120.21875 196.539062 119.328125 196.539062 118.230469 C 196.539062 117.132812 195.648438 116.242188 194.550781 116.242188 C 193.453125 116.242188 192.5625 117.132812 192.5625 118.230469 C 192.5625 119.328125 193.453125 120.21875 194.550781 120.21875 Z M 154.226562 128.355469 L 168.320312 128.355469 C 168.96875 128.355469 169.496094 127.828125 169.496094 127.179688 L 169.496094 125.929688 C 169.496094 125.28125 168.96875 124.753906 168.320312 124.753906 L 154.226562 124.753906 C 153.578125 124.753906 153.050781 125.28125 153.050781 125.929688 L 153.050781 127.179688 C 153.050781 127.828125 153.578125 128.355469 154.226562 128.355469 Z M 154.226562 128.355469 " fill-opacity="1" fill-rule="nonzero"/><g clip-path="url(#c5f3748e61)"><path fill="#4b11ed" d="M 242.3125 258.191406 C 242.671875 258.191406 243.023438 258.152344 243.359375 258.082031 C 242.878906 260.375 240.847656 262.09375 238.414062 262.09375 L 124.890625 262.09375 C 122.097656 262.09375 119.835938 259.828125 119.835938 257.035156 L 119.835938 129.664062 C 119.835938 127.230469 121.554688 125.199219 123.84375 124.71875 C 123.773438 125.054688 123.734375 125.40625 123.734375 125.765625 L 123.734375 253.136719 C 123.734375 255.929688 126 258.191406 128.789062 258.191406 Z M 249.058594 138.566406 L 249.058594 229.054688 L 137.648438 229.054688 L 137.648438 138.566406 Z M 229.039062 190.808594 C 229.039062 185.742188 224.933594 181.636719 219.867188 181.636719 L 217.640625 181.636719 C 217.640625 174.226562 211.632812 168.21875 204.21875 168.21875 C 202.496094 168.21875 200.851562 168.546875 199.335938 169.136719 C 196.191406 163.875 190.441406 160.34375 183.863281 160.34375 C 173.917969 160.34375 165.855469 168.40625 165.855469 178.351562 C 165.855469 179.484375 165.964844 180.589844 166.164062 181.664062 C 161.414062 182.007812 157.667969 185.96875 157.667969 190.808594 C 157.667969 195.875 161.773438 199.980469 166.839844 199.980469 L 219.867188 199.980469 C 224.933594 199.980469 229.039062 195.875 229.039062 190.808594 Z M 201.597656 120.21875 C 202.695312 120.21875 203.585938 119.328125 203.585938 118.230469 C 203.585938 117.132812 202.695312 116.242188 201.597656 116.242188 C 200.5 116.242188 199.609375 117.132812 199.609375 118.230469 C 199.609375 119.328125 200.5 120.21875 201.597656 120.21875 Z M 154.226562 132.847656 L 175.878906 132.847656 C 176.527344 132.847656 177.050781 132.320312 177.050781 131.671875 C 177.050781 131.023438 176.527344 130.5 175.878906 130.5 L 154.226562 130.5 C 153.578125 130.5 153.050781 131.023438 153.050781 131.671875 C 153.050781 132.320312 153.578125 132.847656 154.226562 132.847656 Z M 154.226562 132.847656 " fill-opacity="1" fill-rule="nonzero"/></g><g clip-path="url(#09c22168a9)"><path fill="#f6f7f8" d="M 250.113281 112.90625 L 136.589844 112.90625 C 134.15625 112.90625 132.125 114.625 131.644531 116.917969 C 131.632812 116.972656 131.625 117.03125 131.613281 117.085938 C 131.5625 117.371094 131.535156 117.664062 131.535156 117.964844 L 131.535156 245.335938 C 131.535156 248.128906 133.800781 250.390625 136.589844 250.390625 L 250.113281 250.390625 C 250.472656 250.390625 250.824219 250.355469 251.160156 250.28125 C 253.449219 249.800781 255.171875 247.769531 255.171875 245.335938 L 255.171875 117.964844 C 255.171875 115.171875 252.90625 112.90625 250.113281 112.90625 Z M 201.597656 116.242188 C 202.695312 116.242188 203.585938 117.132812 203.585938 118.230469 C 203.585938 119.328125 202.695312 120.21875 201.597656 120.21875 C 200.5 120.21875 199.609375 119.328125 199.609375 118.230469 C 199.609375 117.132812 200.5 116.242188 201.597656 116.242188 Z M 194.550781 116.242188 C 195.648438 116.242188 196.539062 117.132812 196.539062 118.230469 C 196.539062 119.328125 195.648438 120.21875 194.550781 120.21875 C 193.453125 120.21875 192.5625 119.328125 192.5625 118.230469 C 192.5625 117.132812 193.453125 116.242188 194.550781 116.242188 Z M 187.503906 116.242188 C 188.601562 116.242188 189.488281 117.132812 189.488281 118.230469 C 189.488281 119.328125 188.601562 120.21875 187.503906 120.21875 C 186.40625 120.21875 185.515625 119.328125 185.515625 118.230469 C 185.515625 117.132812 186.40625 116.242188 187.503906 116.242188 Z M 153.050781 125.929688 C 153.050781 125.28125 153.578125 124.753906 154.226562 124.753906 L 168.320312 124.753906 C 168.96875 124.753906 169.496094 125.28125 169.496094 125.929688 L 169.496094 127.179688 C 169.496094 127.828125 168.96875 128.355469 168.320312 128.355469 L 154.226562 128.355469 C 153.578125 128.355469 153.050781 127.828125 153.050781 127.179688 Z M 154.226562 130.5 L 175.878906 130.5 C 176.527344 130.5 177.050781 131.023438 177.050781 131.671875 C 177.050781 132.320312 176.527344 132.847656 175.878906 132.847656 L 154.226562 132.847656 C 153.578125 132.847656 153.050781 132.320312 153.050781 131.671875 C 153.050781 131.023438 153.578125 130.5 154.226562 130.5 Z M 143.035156 123.054688 C 146.207031 123.054688 148.78125 125.628906 148.78125 128.800781 C 148.78125 131.972656 146.207031 134.546875 143.035156 134.546875 C 139.863281 134.546875 137.289062 131.972656 137.289062 128.800781 C 137.289062 125.628906 139.863281 123.054688 143.035156 123.054688 Z M 249.058594 229.054688 L 137.648438 229.054688 L 137.648438 138.566406 L 249.058594 138.566406 Z M 157.667969 190.808594 C 157.667969 185.96875 161.414062 182.007812 166.164062 181.664062 C 165.964844 180.589844 165.855469 179.484375 165.855469 178.351562 C 165.855469 168.40625 173.917969 160.34375 183.863281 160.34375 C 190.441406 160.34375 196.191406 163.875 199.335938 169.136719 C 200.851562 168.546875 202.496094 168.21875 204.21875 168.21875 C 211.632812 168.21875 217.640625 174.226562 217.640625 181.636719 L 219.867188 181.636719 C 224.933594 181.636719 229.039062 185.742188 229.039062 190.808594 C 229.039062 195.875 224.933594 199.980469 219.867188 199.980469 L 166.839844 199.980469 C 161.773438 199.980469 157.667969 195.875 157.667969 190.808594 Z M 157.667969 190.808594 " fill-opacity="1" fill-rule="nonzero"/></g><path fill="#f6f7f8" d="M 242.480469 153.085938 L 235.617188 153.085938 C 234.867188 153.085938 234.257812 152.476562 234.257812 151.726562 L 234.257812 144.863281 C 234.257812 144.113281 234.867188 143.503906 235.617188 143.503906 L 236.113281 143.503906 L 236.113281 142.910156 C 236.113281 142.160156 236.722656 141.550781 237.472656 141.550781 L 244.335938 141.550781 C 245.085938 141.550781 245.695312 142.160156 245.695312 142.910156 L 245.695312 149.773438 C 245.695312 150.523438 245.085938 151.136719 244.335938 151.136719 L 243.839844 151.136719 L 243.839844 151.726562 C 243.839844 152.476562 243.230469 153.085938 242.480469 153.085938 Z M 235.617188 144.261719 C 235.285156 144.261719 235.015625 144.53125 235.015625 144.863281 L 235.015625 151.726562 C 235.015625 152.054688 235.285156 152.324219 235.617188 152.324219 L 242.480469 152.324219 C 242.8125 152.324219 243.082031 152.054688 243.082031 151.726562 L 243.082031 151.136719 L 237.472656 151.136719 C 236.722656 151.136719 236.113281 150.523438 236.113281 149.773438 L 236.113281 144.261719 Z M 236.871094 149.773438 C 236.871094 150.105469 237.140625 150.375 237.472656 150.375 L 244.335938 150.375 C 244.667969 150.375 244.933594 150.105469 244.933594 149.773438 L 244.933594 142.910156 C 244.933594 142.582031 244.667969 142.3125 244.335938 142.3125 L 237.472656 142.3125 C 237.140625 142.3125 236.871094 142.582031 236.871094 142.910156 Z M 236.871094 149.773438 " fill-opacity="1" fill-rule="nonzero"/><g clip-path="url(#588c12d7a4)"><path fill="#2d2828" d="M 250.113281 112.527344 L 136.589844 112.527344 C 134.117188 112.527344 131.945312 114.230469 131.332031 116.601562 C 129.417969 117.09375 127.925781 118.589844 127.429688 120.503906 C 125.515625 120.996094 124.023438 122.492188 123.53125 124.40625 C 121.15625 125.019531 119.453125 127.191406 119.453125 129.664062 L 119.453125 257.035156 C 119.453125 260.035156 121.894531 262.472656 124.890625 262.472656 L 238.414062 262.472656 C 240.886719 262.472656 243.058594 260.769531 243.671875 258.398438 C 245.585938 257.90625 247.082031 256.410156 247.574219 254.496094 C 249.488281 254.003906 250.984375 252.507812 251.476562 250.59375 C 253.847656 249.980469 255.550781 247.808594 255.550781 245.335938 L 255.550781 117.964844 C 255.550781 114.964844 253.113281 112.527344 250.113281 112.527344 Z M 254.789062 245.335938 C 254.789062 247.535156 253.230469 249.457031 251.082031 249.910156 C 250.765625 249.976562 250.4375 250.011719 250.113281 250.011719 L 136.589844 250.011719 C 134.011719 250.011719 131.914062 247.914062 131.914062 245.335938 L 131.914062 117.964844 C 131.914062 117.640625 131.949219 117.3125 132.015625 116.996094 C 132.46875 114.847656 134.394531 113.289062 136.589844 113.289062 L 250.113281 113.289062 C 252.691406 113.289062 254.789062 115.386719 254.789062 117.964844 Z M 250.640625 250.746094 C 250.113281 252.292969 248.808594 253.46875 247.183594 253.8125 C 246.863281 253.878906 246.539062 253.910156 246.214844 253.910156 L 132.691406 253.910156 C 130.113281 253.910156 128.015625 251.8125 128.015625 249.234375 L 128.015625 233.335938 L 131.15625 233.335938 L 131.15625 245.335938 C 131.15625 248.332031 133.59375 250.769531 136.589844 250.769531 L 250.113281 250.769531 C 250.117188 250.769531 250.117188 250.769531 250.117188 250.769531 C 250.207031 250.769531 250.296875 250.769531 250.386719 250.765625 C 250.421875 250.761719 250.457031 250.757812 250.492188 250.757812 C 250.542969 250.753906 250.589844 250.75 250.640625 250.746094 Z M 246.742188 254.644531 C 246.214844 256.191406 244.90625 257.371094 243.28125 257.710938 C 242.964844 257.777344 242.636719 257.8125 242.3125 257.8125 L 128.789062 257.8125 C 126.210938 257.8125 124.113281 255.714844 124.113281 253.136719 L 124.113281 237.238281 L 127.253906 237.238281 L 127.253906 249.234375 C 127.253906 252.234375 129.695312 254.671875 132.691406 254.671875 L 246.214844 254.671875 C 246.304688 254.671875 246.398438 254.667969 246.488281 254.664062 C 246.515625 254.664062 246.542969 254.660156 246.570312 254.660156 C 246.625 254.65625 246.683594 254.652344 246.742188 254.644531 Z M 242.839844 258.546875 C 242.203125 260.410156 240.421875 261.710938 238.414062 261.710938 L 124.890625 261.710938 C 122.3125 261.710938 120.214844 259.613281 120.214844 257.035156 L 120.214844 241.136719 L 123.355469 241.136719 L 123.355469 253.136719 C 123.355469 256.132812 125.792969 258.570312 128.789062 258.570312 L 242.3125 258.570312 C 242.40625 258.570312 242.496094 258.570312 242.585938 258.566406 C 242.617188 258.5625 242.644531 258.558594 242.675781 258.558594 C 242.730469 258.554688 242.785156 258.550781 242.839844 258.546875 Z M 120.214844 129.664062 C 120.214844 127.65625 121.515625 125.875 123.378906 125.238281 C 123.375 125.289062 123.371094 125.34375 123.367188 125.394531 C 123.367188 125.425781 123.363281 125.457031 123.363281 125.492188 C 123.355469 125.582031 123.355469 125.671875 123.355469 125.765625 L 123.355469 150.171875 L 120.214844 150.171875 Z M 124.113281 125.765625 C 124.113281 125.441406 124.148438 125.113281 124.214844 124.796875 C 124.558594 123.171875 125.734375 121.863281 127.28125 121.335938 C 127.273438 121.394531 127.273438 121.453125 127.269531 121.507812 C 127.265625 121.535156 127.265625 121.5625 127.261719 121.589844 C 127.257812 121.679688 127.253906 121.773438 127.253906 121.863281 L 127.253906 146.273438 L 124.113281 146.273438 Z M 128.015625 121.863281 C 128.015625 121.539062 128.050781 121.214844 128.117188 120.894531 C 128.457031 119.269531 129.632812 117.960938 131.179688 117.4375 C 131.175781 117.496094 131.171875 117.550781 131.167969 117.609375 C 131.167969 117.636719 131.164062 117.664062 131.164062 117.6875 C 131.160156 117.78125 131.15625 117.871094 131.15625 117.964844 L 131.15625 142.371094 L 128.015625 142.371094 Z M 124.113281 150.554688 L 124.113281 147.03125 L 127.253906 147.03125 L 127.253906 236.476562 L 124.113281 236.476562 Z M 128.015625 146.652344 L 128.015625 143.132812 L 131.15625 143.132812 L 131.15625 232.578125 L 128.015625 232.578125 Z M 123.355469 150.933594 L 123.355469 240.378906 L 120.214844 240.378906 L 120.214844 150.933594 Z M 249.058594 138.1875 L 137.648438 138.1875 C 137.4375 138.1875 137.269531 138.355469 137.269531 138.566406 L 137.269531 229.054688 C 137.269531 229.265625 137.4375 229.4375 137.648438 229.4375 L 249.058594 229.4375 C 249.269531 229.4375 249.4375 229.265625 249.4375 229.054688 L 249.4375 138.566406 C 249.4375 138.355469 249.269531 138.1875 249.058594 138.1875 Z M 248.679688 228.675781 L 138.027344 228.675781 L 138.027344 138.945312 L 248.679688 138.945312 Z M 187.503906 120.597656 C 188.808594 120.597656 189.871094 119.535156 189.871094 118.230469 C 189.871094 116.925781 188.808594 115.863281 187.503906 115.863281 C 186.195312 115.863281 185.136719 116.925781 185.136719 118.230469 C 185.136719 119.535156 186.195312 120.597656 187.503906 120.597656 Z M 187.503906 116.621094 C 188.390625 116.621094 189.109375 117.34375 189.109375 118.230469 C 189.109375 119.117188 188.390625 119.835938 187.503906 119.835938 C 186.617188 119.835938 185.894531 119.117188 185.894531 118.230469 C 185.894531 117.34375 186.617188 116.621094 187.503906 116.621094 Z M 194.550781 120.597656 C 195.855469 120.597656 196.917969 119.535156 196.917969 118.230469 C 196.917969 116.925781 195.855469 115.863281 194.550781 115.863281 C 193.246094 115.863281 192.183594 116.925781 192.183594 118.230469 C 192.183594 119.535156 193.246094 120.597656 194.550781 120.597656 Z M 194.550781 116.621094 C 195.4375 116.621094 196.15625 117.34375 196.15625 118.230469 C 196.15625 119.117188 195.4375 119.835938 194.550781 119.835938 C 193.664062 119.835938 192.941406 119.117188 192.941406 118.230469 C 192.941406 117.34375 193.664062 116.621094 194.550781 116.621094 Z M 201.597656 120.597656 C 202.902344 120.597656 203.964844 119.535156 203.964844 118.230469 C 203.964844 116.925781 202.902344 115.863281 201.597656 115.863281 C 200.292969 115.863281 199.230469 116.925781 199.230469 118.230469 C 199.230469 119.535156 200.292969 120.597656 201.597656 120.597656 Z M 203.203125 118.230469 C 203.203125 119.117188 202.484375 119.835938 201.597656 119.835938 C 200.710938 119.835938 199.988281 119.117188 199.988281 118.230469 C 199.988281 117.34375 200.710938 116.621094 201.597656 116.621094 C 202.484375 116.621094 203.203125 117.34375 203.203125 118.230469 Z M 145.820312 234.800781 C 145.074219 234.800781 144.382812 235.15625 143.949219 235.746094 C 143.5 235.152344 142.789062 234.796875 142.054688 234.800781 C 141.363281 234.8125 140.71875 235.085938 140.230469 235.570312 C 139.734375 236.066406 139.460938 236.726562 139.460938 237.425781 L 139.460938 237.683594 C 139.460938 238.382812 139.734375 239.042969 140.230469 239.539062 L 143.582031 242.890625 C 143.679688 242.988281 143.8125 243.042969 143.953125 243.042969 C 144.09375 243.042969 144.226562 242.988281 144.324219 242.890625 L 147.675781 239.539062 C 148.171875 239.042969 148.445312 238.382812 148.445312 237.683594 L 148.445312 237.425781 C 148.445312 236.726562 148.171875 236.066406 147.675781 235.570312 C 147.179688 235.074219 146.519531 234.800781 145.820312 234.800781 Z M 147.683594 237.683594 C 147.683594 238.179688 147.492188 238.648438 147.140625 239 L 143.953125 242.1875 L 140.769531 239 C 140.414062 238.648438 140.222656 238.179688 140.222656 237.683594 L 140.222656 237.425781 C 140.222656 236.929688 140.414062 236.460938 140.769531 236.109375 C 141.113281 235.761719 141.574219 235.566406 142.0625 235.5625 C 142.070312 235.5625 142.074219 235.5625 142.082031 235.5625 C 142.664062 235.5625 143.214844 235.90625 143.496094 236.441406 L 143.617188 236.671875 C 143.683594 236.796875 143.8125 236.878906 143.953125 236.878906 C 144.09375 236.878906 144.226562 236.796875 144.289062 236.671875 L 144.429688 236.40625 C 144.703125 235.886719 145.234375 235.5625 145.820312 235.5625 C 146.320312 235.5625 146.785156 235.757812 147.140625 236.109375 C 147.492188 236.460938 147.683594 236.929688 147.683594 237.425781 Z M 160.234375 240.84375 C 160.546875 240.253906 160.710938 239.59375 160.710938 238.921875 C 160.710938 236.652344 158.863281 234.800781 156.589844 234.800781 C 154.316406 234.800781 152.46875 236.652344 152.46875 238.921875 C 152.46875 241.195312 154.316406 243.042969 156.589844 243.042969 C 157.257812 243.042969 157.921875 242.878906 158.511719 242.570312 L 160.234375 243.03125 C 160.265625 243.039062 160.296875 243.042969 160.332031 243.042969 C 160.429688 243.042969 160.527344 243.003906 160.601562 242.933594 C 160.695312 242.835938 160.734375 242.695312 160.699219 242.566406 Z M 159.460938 240.890625 L 159.792969 242.128906 L 158.558594 241.796875 C 158.460938 241.769531 158.359375 241.785156 158.269531 241.832031 C 157.761719 242.128906 157.179688 242.285156 156.589844 242.285156 C 154.738281 242.285156 153.230469 240.777344 153.230469 238.921875 C 153.230469 237.070312 154.738281 235.5625 156.589844 235.5625 C 158.445312 235.5625 159.953125 237.070312 159.953125 238.921875 C 159.953125 239.511719 159.796875 240.09375 159.5 240.601562 C 159.449219 240.691406 159.4375 240.792969 159.460938 240.890625 Z M 173.304688 235.007812 C 173.289062 234.972656 173.265625 234.941406 173.238281 234.914062 C 173.207031 234.886719 173.175781 234.863281 173.140625 234.84375 C 173.101562 234.824219 173.054688 234.808594 173.007812 234.804688 C 172.964844 234.800781 172.917969 234.804688 172.871094 234.8125 C 172.863281 234.816406 172.851562 234.820312 172.839844 234.824219 L 165.359375 237.429688 C 165.203125 237.484375 165.101562 237.636719 165.105469 237.800781 C 165.113281 237.96875 165.226562 238.113281 165.386719 238.15625 L 169.027344 239.125 L 169.996094 242.761719 C 170.039062 242.921875 170.179688 243.039062 170.347656 243.042969 C 170.351562 243.042969 170.359375 243.042969 170.363281 243.042969 C 170.523438 243.042969 170.667969 242.941406 170.722656 242.789062 L 173.324219 235.3125 C 173.328125 235.300781 173.332031 235.289062 173.335938 235.277344 C 173.347656 235.230469 173.351562 235.183594 173.34375 235.136719 C 173.339844 235.09375 173.328125 235.050781 173.304688 235.007812 Z M 166.78125 237.738281 L 171.527344 236.085938 L 169.222656 238.390625 Z M 170.410156 241.371094 L 169.761719 238.925781 L 172.0625 236.625 Z M 249.058594 234.804688 L 243.0625 234.804688 C 242.855469 234.804688 242.683594 234.972656 242.683594 235.183594 L 242.683594 242.664062 C 242.683594 242.804688 242.757812 242.929688 242.878906 242.996094 C 243 243.0625 243.148438 243.0625 243.265625 242.988281 L 246.0625 241.25 L 248.855469 242.988281 C 248.917969 243.027344 248.988281 243.046875 249.058594 243.046875 C 249.121094 243.046875 249.183594 243.027344 249.242188 242.996094 C 249.363281 242.929688 249.4375 242.804688 249.4375 242.664062 L 249.4375 235.183594 C 249.4375 234.972656 249.269531 234.804688 249.058594 234.804688 Z M 248.679688 241.980469 L 246.261719 240.480469 C 246.199219 240.441406 246.128906 240.421875 246.0625 240.421875 C 245.992188 240.421875 245.921875 240.441406 245.859375 240.480469 L 243.445312 241.980469 L 243.445312 235.5625 L 248.679688 235.5625 Z M 143.035156 134.925781 C 146.414062 134.925781 149.160156 132.179688 149.160156 128.800781 C 149.160156 125.421875 146.414062 122.675781 143.035156 122.675781 C 139.65625 122.675781 136.910156 125.421875 136.910156 128.800781 C 136.910156 132.179688 139.65625 134.925781 143.035156 134.925781 Z M 148.398438 128.800781 C 148.398438 131.757812 145.992188 134.164062 143.035156 134.164062 C 140.078125 134.164062 137.667969 131.757812 137.667969 128.800781 C 137.667969 125.84375 140.078125 123.433594 143.035156 123.433594 C 145.992188 123.433594 148.398438 125.84375 148.398438 128.800781 Z M 154.226562 128.734375 L 168.320312 128.734375 C 169.175781 128.734375 169.875 128.035156 169.875 127.179688 L 169.875 125.929688 C 169.875 125.070312 169.175781 124.375 168.320312 124.375 L 154.226562 124.375 C 153.367188 124.375 152.671875 125.070312 152.671875 125.929688 L 152.671875 127.179688 C 152.671875 128.035156 153.367188 128.734375 154.226562 128.734375 Z M 153.429688 125.929688 C 153.429688 125.488281 153.785156 125.132812 154.226562 125.132812 L 168.320312 125.132812 C 168.757812 125.132812 169.113281 125.488281 169.113281 125.929688 L 169.113281 127.179688 C 169.113281 127.617188 168.757812 127.972656 168.320312 127.972656 L 154.226562 127.972656 C 153.785156 127.972656 153.429688 127.617188 153.429688 127.179688 Z M 154.226562 133.226562 L 175.878906 133.226562 C 176.734375 133.226562 177.433594 132.53125 177.433594 131.671875 C 177.433594 130.816406 176.734375 130.117188 175.878906 130.117188 L 154.226562 130.117188 C 153.367188 130.117188 152.671875 130.816406 152.671875 131.671875 C 152.671875 132.53125 153.367188 133.226562 154.226562 133.226562 Z M 154.226562 130.878906 L 175.878906 130.878906 C 176.316406 130.878906 176.671875 131.234375 176.671875 131.671875 C 176.671875 132.109375 176.316406 132.46875 175.878906 132.46875 L 154.226562 132.46875 C 153.785156 132.46875 153.429688 132.109375 153.429688 131.671875 C 153.429688 131.234375 153.785156 130.878906 154.226562 130.878906 Z M 166.839844 200.363281 L 219.867188 200.363281 C 225.132812 200.363281 229.417969 196.074219 229.417969 190.808594 C 229.417969 185.542969 225.132812 181.257812 219.867188 181.257812 L 218.015625 181.257812 C 217.8125 173.824219 211.703125 167.835938 204.21875 167.835938 C 202.601562 167.835938 201.011719 168.117188 199.496094 168.671875 C 196.15625 163.292969 190.195312 159.964844 183.863281 159.964844 C 173.726562 159.964844 165.476562 168.214844 165.476562 178.351562 C 165.476562 179.335938 165.558594 180.332031 165.722656 181.324219 C 160.957031 181.882812 157.285156 185.96875 157.285156 190.808594 C 157.285156 196.074219 161.570312 200.363281 166.839844 200.363281 Z M 166.195312 182.042969 C 166.300781 182.035156 166.402344 181.980469 166.464844 181.894531 C 166.53125 181.808594 166.558594 181.699219 166.539062 181.59375 C 166.339844 180.515625 166.238281 179.421875 166.238281 178.351562 C 166.238281 168.632812 174.144531 160.726562 183.863281 160.726562 C 190.035156 160.726562 195.839844 164.023438 199.007812 169.332031 C 199.105469 169.492188 199.300781 169.558594 199.472656 169.492188 C 200.992188 168.898438 202.589844 168.597656 204.21875 168.597656 C 211.410156 168.597656 217.257812 174.445312 217.257812 181.636719 C 217.257812 181.847656 217.429688 182.015625 217.640625 182.015625 L 219.867188 182.015625 C 224.714844 182.015625 228.660156 185.960938 228.660156 190.808594 C 228.660156 195.65625 224.714844 199.601562 219.867188 199.601562 L 166.839844 199.601562 C 161.992188 199.601562 158.046875 195.65625 158.046875 190.808594 C 158.046875 186.226562 161.625 182.375 166.195312 182.042969 Z M 166.195312 182.042969 " fill-opacity="1" fill-rule="nonzero"/></g></svg>