<svg xmlns="http://www.w3.org/2000/svg" xmlns:xlink="http://www.w3.org/1999/xlink" width="500" zoomAndPan="magnify" viewBox="0 0 375 374.999991" height="500" preserveAspectRatio="xMidYMid meet" version="1.0"><defs><clipPath id="e78c32a8bf"><path d="M 116.726562 112.5 L 258.476562 112.5 L 258.476562 262.5 L 116.726562 262.5 Z M 116.726562 112.5 " clip-rule="nonzero"/></clipPath></defs><path fill="#f35695" d="M 221.855469 253.144531 L 153.148438 253.144531 C 133.582031 253.144531 117.726562 237.285156 117.726562 217.722656 L 117.726562 149.015625 C 117.726562 129.453125 133.582031 113.59375 153.148438 113.59375 L 221.855469 113.59375 C 241.417969 113.59375 257.277344 129.453125 257.277344 149.015625 L 257.277344 217.722656 C 257.277344 237.285156 241.417969 253.144531 221.855469 253.144531 Z M 221.855469 253.144531 " fill-opacity="1" fill-rule="nonzero"/><path fill="#c2fcf7" d="M 117.726562 196.457031 L 117.726562 217.722656 C 117.726562 237.285156 133.582031 253.144531 153.148438 253.144531 L 221.855469 253.144531 C 241.417969 253.144531 257.277344 237.285156 257.277344 217.722656 L 257.277344 196.457031 Z M 117.726562 196.457031 " fill-opacity="1" fill-rule="nonzero"/><path fill="#f5f1e1" d="M 191.851562 144.71875 L 200.054688 169.960938 L 226.601562 169.960938 C 229.246094 169.960938 230.347656 173.347656 228.207031 174.90625 L 206.730469 190.507812 L 214.933594 215.75 C 215.75 218.269531 212.871094 220.363281 210.730469 218.804688 L 189.253906 203.203125 L 167.78125 218.804688 C 165.640625 220.363281 162.757812 218.269531 163.574219 215.75 L 171.777344 190.507812 L 150.304688 174.90625 C 148.164062 173.347656 149.261719 169.960938 151.910156 169.960938 L 178.453125 169.960938 L 186.65625 144.71875 C 187.472656 142.199219 191.035156 142.199219 191.851562 144.71875 Z M 191.851562 144.71875 " fill-opacity="1" fill-rule="nonzero"/><g clip-path="url(#e78c32a8bf)"><path fill="#2d2828" d="M 221.855469 112.597656 L 153.148438 112.597656 C 133.066406 112.597656 116.726562 128.933594 116.726562 149.015625 L 116.726562 217.722656 C 116.726562 218.351562 116.742188 218.972656 116.773438 219.59375 C 117.121094 226.410156 119.351562 232.742188 122.953125 238.070312 C 127.117188 252.121094 140.140625 262.402344 155.523438 262.402344 L 219.476562 262.402344 C 234.863281 262.402344 247.882812 252.121094 252.046875 238.070312 C 255.976562 232.257812 258.273438 225.253906 258.273438 217.722656 L 258.273438 149.015625 C 258.273438 128.933594 241.9375 112.597656 221.855469 112.597656 Z M 256.277344 195.460938 L 209.390625 195.460938 L 207.902344 190.886719 L 228.792969 175.710938 C 230.125 174.742188 230.65625 173.105469 230.148438 171.542969 C 229.636719 169.976562 228.246094 168.964844 226.601562 168.964844 L 200.78125 168.964844 L 192.800781 144.410156 C 192.292969 142.84375 190.898438 141.832031 189.253906 141.832031 C 187.609375 141.832031 186.214844 142.84375 185.707031 144.410156 L 177.730469 168.964844 L 151.910156 168.964844 C 150.265625 168.964844 148.871094 169.976562 148.363281 171.542969 C 147.855469 173.105469 148.386719 174.742188 149.71875 175.710938 L 170.605469 190.886719 L 169.121094 195.460938 L 118.722656 195.460938 L 118.722656 149.015625 C 118.722656 130.035156 134.164062 114.589844 153.148438 114.589844 L 221.855469 114.589844 C 240.835938 114.589844 256.277344 130.035156 256.277344 149.015625 Z M 221.855469 252.148438 L 153.144531 252.148438 C 141.386719 252.148438 130.992188 246.21875 124.78125 237.195312 C 124.410156 236.660156 124.050781 236.117188 123.710938 235.558594 C 123.507812 235.222656 123.316406 234.882812 123.125 234.539062 C 122.613281 233.632812 122.144531 232.699219 121.71875 231.742188 C 121.625 231.53125 121.523438 231.324219 121.429688 231.109375 C 119.6875 226.992188 118.722656 222.46875 118.722656 217.722656 L 118.722656 197.457031 L 168.472656 197.457031 L 162.628906 215.445312 C 162.117188 217.007812 162.652344 218.644531 163.980469 219.613281 C 165.3125 220.582031 167.035156 220.582031 168.367188 219.613281 L 189.253906 204.4375 L 210.144531 219.613281 C 210.808594 220.097656 211.570312 220.339844 212.335938 220.339844 C 213.097656 220.339844 213.863281 220.097656 214.527344 219.613281 C 215.859375 218.644531 216.390625 217.007812 215.882812 215.445312 L 210.039062 197.457031 L 256.277344 197.457031 L 256.277344 217.722656 C 256.277344 222.714844 255.203125 227.457031 253.28125 231.742188 C 252.855469 232.699219 252.386719 233.632812 251.875 234.539062 C 251.363281 235.449219 250.8125 236.335938 250.222656 237.195312 C 244.007812 246.21875 233.613281 252.148438 221.855469 252.148438 Z M 170.894531 196.457031 L 171.21875 195.460938 L 172.726562 190.816406 C 172.859375 190.402344 172.714844 189.953125 172.363281 189.699219 L 150.890625 174.097656 C 150.136719 173.550781 150.070312 172.738281 150.261719 172.15625 C 150.449219 171.578125 150.980469 170.960938 151.910156 170.960938 L 178.453125 170.960938 C 178.886719 170.960938 179.269531 170.679688 179.402344 170.269531 L 187.605469 145.023438 C 187.890625 144.140625 188.644531 143.828125 189.253906 143.828125 C 189.863281 143.828125 190.617188 144.140625 190.90625 145.027344 L 199.105469 170.269531 C 199.242188 170.679688 199.625 170.960938 200.054688 170.960938 L 226.601562 170.960938 C 227.527344 170.960938 228.0625 171.578125 228.25 172.15625 C 228.4375 172.738281 228.371094 173.550781 227.621094 174.097656 L 206.144531 189.699219 C 205.796875 189.953125 205.648438 190.402344 205.78125 190.816406 L 207.292969 195.460938 L 207.617188 196.457031 L 207.941406 197.457031 L 213.984375 216.058594 C 214.273438 216.945312 213.847656 217.640625 213.355469 218 C 212.863281 218.359375 212.070312 218.546875 211.316406 218 L 189.839844 202.398438 C 189.664062 202.269531 189.460938 202.207031 189.253906 202.207031 C 189.046875 202.207031 188.84375 202.269531 188.667969 202.398438 L 167.195312 218 C 166.441406 218.546875 165.648438 218.359375 165.15625 218 C 164.660156 217.640625 164.238281 216.945312 164.523438 216.058594 L 170.570312 197.457031 Z M 170.894531 196.457031 " fill-opacity="1" fill-rule="nonzero"/></g></svg>