<svg xmlns="http://www.w3.org/2000/svg" xmlns:xlink="http://www.w3.org/1999/xlink" width="500" zoomAndPan="magnify" viewBox="0 0 375 374.999991" height="500" preserveAspectRatio="xMidYMid meet" version="1.0"><defs><clipPath id="7b2f9611ab"><path d="M 113 123 L 262.5 123 L 262.5 253 L 113 253 Z M 113 123 " clip-rule="nonzero"/></clipPath></defs><g clip-path="url(#7b2f9611ab)"><path fill="#f35695" d="M 164.367188 205.9375 C 161.300781 207.003906 158.402344 208.136719 155.40625 209.101562 C 145.976562 212.101562 136.449219 214.265625 126.457031 212.5 C 123.726562 212.066406 121.0625 211.132812 118.664062 209.734375 C 114.03125 206.9375 112.5 203.039062 113.832031 197.777344 C 114.863281 193.613281 117.730469 190.847656 120.894531 188.347656 C 128.621094 182.21875 137.582031 178.554688 146.878906 175.65625 C 149.042969 174.992188 151.207031 174.390625 153.539062 173.726562 C 152.140625 171.992188 150.808594 170.394531 149.542969 168.761719 C 145.609375 163.765625 142.414062 158.234375 140.015625 152.339844 C 138.449219 148.410156 137.382812 144.34375 137.417969 140.082031 C 137.484375 135.71875 138.75 131.753906 141.8125 128.523438 C 143.378906 126.855469 145.476562 126.324219 147.675781 126.023438 C 152.472656 125.390625 157.203125 125.523438 161.832031 127.125 C 165.863281 128.488281 169.460938 130.820312 172.359375 133.917969 C 173.292969 134.886719 173.757812 136.316406 174.492188 137.617188 L 174.890625 137.449219 C 175.058594 138.582031 175.226562 139.648438 176.691406 139.816406 C 177.15625 139.882812 177.890625 142.414062 177.757812 142.8125 L 179.753906 144.546875 C 181.253906 142.546875 182.652344 140.480469 184.285156 138.617188 C 189.28125 132.917969 195.609375 129.054688 202.539062 126.289062 C 214.832031 121.425781 226.855469 122.394531 238.484375 128.554688 C 240.347656 129.554688 242.011719 130.953125 243.613281 132.351562 C 245.476562 133.984375 245.976562 136.183594 245.511719 138.582031 C 244.910156 141.8125 243.480469 144.84375 241.3125 147.34375 C 236.71875 152.640625 231.652344 157.46875 225.65625 161.234375 C 220.960938 164.164062 216.164062 166.898438 211.402344 169.726562 C 211.199219 169.894531 211 170.0625 210.800781 170.226562 C 212.800781 170.59375 214.597656 170.925781 216.429688 171.226562 C 225.859375 172.726562 234.75 175.824219 243.246094 180.054688 C 246.710938 181.753906 250.207031 183.386719 253.539062 185.316406 C 255.539062 186.449219 257.304688 188.015625 259.003906 189.582031 C 260.933594 191.378906 261.898438 193.777344 262.199219 196.34375 C 262.5 198.640625 261.265625 200.375 259.570312 201.839844 C 258.902344 202.40625 258.4375 203.171875 257.902344 203.871094 C 257.667969 204.238281 257.4375 204.605469 257.171875 204.972656 C 253.304688 208.902344 248.242188 211.402344 242.78125 212.101562 C 231.6875 213.597656 220.761719 213.066406 210.035156 209.667969 C 208.136719 209.070312 206.304688 208.234375 204.207031 207.402344 C 204.371094 208.003906 204.472656 208.46875 204.605469 208.902344 C 205.972656 213.53125 207.105469 218.195312 207.46875 223.058594 C 207.902344 229.320312 206.402344 234.984375 203.007812 240.28125 C 201.207031 243.113281 199.476562 245.945312 196.976562 248.277344 C 194.378906 250.742188 191.148438 252.039062 187.75 252.738281 C 183.851562 253.574219 180.488281 252.238281 177.855469 249.175781 C 174.992188 245.8125 172.960938 241.945312 171.261719 237.917969 C 167.261719 228.488281 165.230469 218.597656 164.597656 208.402344 C 164.597656 207.636719 164.464844 206.835938 164.367188 205.9375 Z M 141.746094 201.507812 L 141.847656 201.175781 C 142.714844 201.140625 143.578125 201.039062 144.410156 200.875 C 149.34375 199.640625 154.273438 198.410156 159.167969 197.042969 C 161.132812 196.511719 162.964844 195.578125 164.832031 194.777344 C 165.164062 194.613281 165.429688 194.3125 165.53125 193.945312 C 166.230469 191.179688 166.863281 188.417969 167.496094 185.617188 C 167.5625 185.382812 167.5625 184.917969 167.464844 184.886719 C 166.230469 184.285156 165.296875 182.984375 163.699219 183.320312 C 160.632812 183.984375 157.570312 184.617188 154.539062 185.382812 C 147.308594 187.21875 140.480469 189.847656 135.117188 195.378906 C 133.6875 196.84375 133.753906 199.109375 135.617188 199.875 C 137.484375 200.640625 139.714844 200.972656 141.746094 201.507812 Z M 239.25 196.410156 C 238.980469 196.175781 238.714844 195.945312 238.449219 195.710938 C 235.316406 193.679688 232.1875 191.679688 229.054688 189.683594 C 221.960938 185.117188 214.367188 181.71875 205.90625 180.6875 C 203.539062 180.386719 201.175781 180.15625 198.808594 179.886719 C 198.777344 180.054688 198.742188 180.222656 198.710938 180.386719 C 210.867188 188.816406 223.660156 195.644531 239.25 196.410156 Z M 195.84375 159.867188 C 196.175781 159.769531 196.511719 159.636719 196.84375 159.503906 C 199.507812 157.835938 202.171875 156.238281 204.804688 154.503906 C 211.265625 150.242188 217.296875 145.445312 222.660156 139.847656 C 223.558594 138.949219 224.292969 137.917969 224.859375 136.785156 C 225.589844 135.152344 224.859375 134.285156 223.160156 134.851562 C 220.726562 135.652344 218.195312 136.484375 216.03125 137.816406 C 208.46875 142.378906 202.671875 148.777344 197.976562 156.171875 C 197.277344 157.238281 196.644531 158.4375 195.84375 159.867188 Z M 157.902344 150.273438 L 161.300781 155.105469 C 161.433594 154.605469 161.5 154.238281 161.601562 153.871094 L 161.933594 153.871094 C 161.933594 154.503906 162 155.105469 162.101562 155.738281 C 162.300781 156.371094 162.566406 156.96875 162.933594 157.535156 C 163.566406 158.636719 164.398438 159.46875 165.832031 159.433594 C 166.132812 159.433594 166.429688 160.066406 166.730469 160.402344 C 166.964844 160.667969 167.230469 160.933594 167.464844 161.199219 C 165.566406 153.171875 162.265625 145.910156 156.605469 139.75 L 156.605469 145.046875 L 156.105469 145.511719 C 156.171875 147.441406 158.136719 148.574219 157.902344 150.273438 Z M 170.925781 215.03125 L 170.328125 215.066406 C 170.292969 215.398438 170.292969 215.730469 170.328125 216.0625 C 170.460938 216.730469 170.660156 217.363281 170.761719 218.03125 C 171.027344 219.695312 171.160156 221.394531 171.527344 223.027344 C 171.894531 224.59375 172.59375 226.089844 173.027344 227.65625 C 174.425781 232.820312 176.222656 237.851562 178.890625 242.546875 C 179.355469 243.378906 180.253906 243.945312 180.953125 244.613281 C 178.890625 239.714844 176.492188 235.050781 174.59375 230.222656 C 172.660156 225.324219 171.460938 220.226562 170.925781 215.03125 Z M 190.28125 228.257812 C 190.679688 225.457031 187.617188 212.199219 186.285156 210.800781 C 187.117188 216.832031 187.984375 222.726562 190.28125 228.257812 Z M 194.011719 222.859375 C 194.34375 219.394531 190.214844 205.171875 188.28125 202.839844 Z M 205.105469 217.195312 C 205.136719 214.097656 202.972656 207.035156 201.707031 206.203125 C 202.875 209.96875 203.972656 213.566406 205.105469 217.195312 Z M 144.046875 134.75 C 141.878906 136.019531 141.214844 138.417969 142.378906 140.179688 C 142.945312 138.382812 143.480469 136.683594 144.046875 134.75 Z M 193.710938 201.574219 L 193.246094 201.707031 L 196.3125 211.898438 L 196.710938 211.765625 Z M 201.273438 212.234375 C 200.972656 209.636719 200.507812 207.070312 199.476562 204.707031 L 199.042969 204.839844 C 199.773438 207.304688 200.542969 209.769531 201.273438 212.234375 Z M 152.941406 136.382812 C 152.171875 137.484375 152.171875 139.414062 152.941406 140.582031 Z M 190.148438 233.054688 L 190.613281 232.820312 C 190.082031 231.71875 189.515625 230.621094 188.980469 229.523438 L 188.714844 229.65625 C 189.183594 230.789062 189.683594 231.921875 190.148438 233.054688 Z M 190.148438 233.054688 " fill-opacity="1" fill-rule="nonzero"/></g></svg>