<svg xmlns="http://www.w3.org/2000/svg" xmlns:xlink="http://www.w3.org/1999/xlink" width="500" zoomAndPan="magnify" viewBox="0 0 375 374.999991" height="500" preserveAspectRatio="xMidYMid meet" version="1.2"><g id="8d8a723ca4"><path style=" stroke:none;fill-rule:nonzero;fill:#f35695;fill-opacity:1;" d="M 132.355469 231.445312 C 125.050781 233.984375 118.140625 236.683594 110.996094 238.988281 C 88.523438 246.132812 65.816406 251.296875 41.996094 247.085938 C 35.484375 246.054688 29.132812 243.832031 23.417969 240.496094 C 12.378906 233.828125 8.726562 224.539062 11.902344 211.992188 C 14.363281 202.066406 21.195312 195.476562 28.738281 189.523438 C 47.15625 174.914062 68.515625 166.179688 90.667969 159.269531 C 95.828125 157.683594 100.992188 156.253906 106.546875 154.664062 C 103.214844 150.535156 100.039062 146.726562 97.019531 142.835938 C 87.652344 130.925781 80.027344 117.742188 74.3125 103.691406 C 70.582031 94.320312 68.039062 84.632812 68.117188 74.472656 C 68.277344 64.070312 71.296875 54.621094 78.601562 46.917969 C 82.332031 42.949219 87.332031 41.679688 92.574219 40.964844 C 104.007812 39.457031 115.28125 39.773438 126.320312 43.585938 C 135.925781 46.839844 144.503906 52.398438 151.410156 59.78125 C 153.632812 62.085938 154.746094 65.5 156.492188 68.59375 L 157.445312 68.199219 C 157.839844 70.898438 158.238281 73.4375 161.730469 73.835938 C 162.84375 73.996094 164.589844 80.027344 164.273438 80.980469 L 169.035156 85.109375 C 172.609375 80.347656 175.945312 75.421875 179.835938 70.976562 C 191.746094 57.398438 206.832031 48.1875 223.347656 41.597656 C 252.644531 30.007812 281.308594 32.308594 309.019531 47 C 313.464844 49.378906 317.4375 52.714844 321.246094 56.050781 C 325.691406 59.941406 326.882812 65.179688 325.773438 70.898438 C 324.34375 78.601562 320.929688 85.824219 315.769531 91.78125 C 304.8125 104.40625 292.742188 115.917969 278.449219 124.890625 C 267.253906 131.878906 255.820312 138.386719 244.46875 145.136719 C 243.992188 145.535156 243.515625 145.929688 243.039062 146.328125 C 247.800781 147.203125 252.089844 147.996094 256.457031 148.710938 C 278.925781 152.28125 300.125 159.667969 320.375 169.75 C 328.632812 173.800781 336.96875 177.691406 344.90625 182.296875 C 349.671875 184.996094 353.878906 188.726562 357.929688 192.460938 C 362.535156 196.746094 364.835938 202.464844 365.550781 208.578125 C 366.265625 214.054688 363.328125 218.183594 359.28125 221.679688 C 357.691406 223.027344 356.578125 224.855469 355.308594 226.523438 C 354.753906 227.394531 354.199219 228.269531 353.5625 229.140625 C 344.351562 238.511719 332.285156 244.464844 319.261719 246.132812 C 292.820312 249.707031 266.777344 248.4375 241.210938 240.339844 C 236.683594 238.910156 232.320312 236.921875 227.316406 234.9375 C 227.714844 236.367188 227.953125 237.480469 228.269531 238.511719 C 231.523438 249.546875 234.222656 260.664062 235.097656 272.257812 C 236.128906 287.183594 232.558594 300.683594 224.457031 313.308594 C 220.171875 320.054688 216.042969 326.804688 210.085938 332.363281 C 203.894531 338.238281 196.191406 341.335938 188.09375 343.003906 C 178.804688 344.988281 170.785156 341.8125 164.511719 334.507812 C 157.683594 326.488281 152.839844 317.277344 148.789062 307.667969 C 139.261719 285.199219 134.417969 261.617188 132.910156 237.320312 C 132.910156 235.496094 132.59375 233.589844 132.355469 231.445312 Z M 78.441406 220.886719 L 78.679688 220.089844 C 80.742188 220.011719 82.808594 219.773438 84.792969 219.375 C 96.542969 216.4375 108.296875 213.5 119.96875 210.246094 C 124.652344 208.976562 129.019531 206.75 133.464844 204.847656 C 134.257812 204.449219 134.894531 203.734375 135.132812 202.859375 C 136.800781 196.269531 138.308594 189.679688 139.816406 183.011719 C 139.976562 182.457031 139.976562 181.34375 139.738281 181.265625 C 136.800781 179.835938 134.578125 176.738281 130.765625 177.53125 C 123.460938 179.121094 116.15625 180.628906 108.929688 182.457031 C 91.699219 186.820312 75.421875 193.09375 62.640625 206.273438 C 59.226562 209.769531 59.386719 215.167969 63.832031 216.996094 C 68.277344 218.820312 73.597656 219.613281 78.441406 220.886719 Z M 310.84375 208.738281 C 310.210938 208.179688 309.574219 207.625 308.941406 207.070312 C 301.476562 202.226562 294.011719 197.460938 286.550781 192.699219 C 269.636719 181.820312 251.535156 173.722656 231.367188 171.257812 C 225.726562 170.546875 220.089844 169.988281 214.453125 169.355469 C 214.375 169.75 214.292969 170.148438 214.214844 170.546875 C 243.195312 190.632812 273.6875 206.910156 310.84375 208.738281 Z M 207.386719 121.632812 C 208.179688 121.394531 208.976562 121.078125 209.769531 120.761719 C 216.121094 116.792969 222.472656 112.980469 228.746094 108.851562 C 244.148438 98.6875 258.519531 87.253906 271.304688 73.914062 C 273.449219 71.769531 275.195312 69.308594 276.542969 66.609375 C 278.292969 62.71875 276.542969 60.65625 272.496094 62.003906 C 266.699219 63.910156 260.664062 65.894531 255.503906 69.070312 C 237.480469 79.949219 223.664062 95.195312 212.46875 112.820312 C 210.800781 115.363281 209.292969 118.21875 207.386719 121.632812 Z M 116.949219 98.765625 L 125.050781 110.28125 C 125.367188 109.089844 125.523438 108.214844 125.761719 107.34375 L 126.558594 107.34375 C 126.558594 108.851562 126.714844 110.28125 126.953125 111.789062 C 127.429688 113.296875 128.066406 114.726562 128.941406 116.078125 C 130.449219 118.695312 132.433594 120.683594 135.847656 120.601562 C 136.5625 120.601562 137.277344 122.109375 137.992188 122.90625 C 138.546875 123.539062 139.183594 124.175781 139.738281 124.8125 C 135.210938 105.675781 127.351562 88.367188 113.851562 73.675781 L 113.851562 86.300781 L 112.664062 87.414062 C 112.820312 92.019531 117.507812 94.71875 116.949219 98.765625 Z M 147.996094 253.121094 L 146.566406 253.199219 C 146.488281 253.996094 146.488281 254.789062 146.566406 255.582031 C 146.882812 257.171875 147.359375 258.679688 147.597656 260.265625 C 148.234375 264.238281 148.550781 268.285156 149.425781 272.175781 C 150.296875 275.910156 151.964844 279.480469 152.996094 283.214844 C 156.332031 295.519531 160.621094 307.511719 166.972656 318.707031 C 168.082031 320.691406 170.226562 322.039062 171.894531 323.628906 C 166.972656 311.957031 161.253906 300.839844 156.730469 289.328125 C 152.125 277.65625 149.265625 265.507812 147.996094 253.121094 Z M 194.128906 284.644531 C 195.078125 277.972656 187.773438 246.371094 184.597656 243.039062 C 186.585938 257.410156 188.648438 271.460938 194.128906 284.644531 Z M 203.019531 271.78125 C 203.8125 263.523438 193.96875 229.617188 189.363281 224.0625 Z M 229.460938 258.28125 C 229.539062 250.898438 224.378906 234.066406 221.363281 232.082031 C 224.140625 241.050781 226.761719 249.628906 229.460938 258.28125 Z M 83.917969 61.765625 C 78.757812 64.785156 77.171875 70.5 79.949219 74.710938 C 81.300781 70.421875 82.570312 66.371094 83.917969 61.765625 Z M 202.304688 221.042969 L 201.195312 221.359375 L 208.5 245.65625 L 209.453125 245.339844 Z M 220.328125 246.453125 C 219.613281 240.257812 218.503906 234.144531 216.042969 228.507812 L 215.007812 228.824219 C 216.757812 234.699219 218.582031 240.574219 220.328125 246.453125 Z M 105.121094 65.65625 C 103.292969 68.277344 103.292969 72.882812 105.121094 75.660156 Z M 193.808594 296.078125 L 194.921875 295.519531 C 193.652344 292.902344 192.300781 290.28125 191.03125 287.660156 L 190.394531 287.976562 C 191.507812 290.675781 192.699219 293.378906 193.808594 296.078125 Z M 193.808594 296.078125 "/></g></svg>