<svg xmlns="http://www.w3.org/2000/svg" xmlns:xlink="http://www.w3.org/1999/xlink" width="500" zoomAndPan="magnify" viewBox="0 0 375 374.999991" height="500" preserveAspectRatio="xMidYMid meet" version="1.0"><defs><clipPath id="283fe16779"><path d="M 112.5 117.410156 L 262.5 117.410156 L 262.5 257.660156 L 112.5 257.660156 Z M 112.5 117.410156 " clip-rule="nonzero"/></clipPath><clipPath id="0242d41f1a"><path d="M 112.5 117.410156 L 262.5 117.410156 L 262.5 257.660156 L 112.5 257.660156 Z M 112.5 117.410156 " clip-rule="nonzero"/></clipPath></defs><g clip-path="url(#283fe16779)"><path fill="#2d2828" d="M 146.066406 257.453125 C 127.628906 257.453125 112.632812 242.453125 112.632812 224.019531 L 112.632812 150.96875 C 112.632812 132.535156 127.628906 117.535156 146.066406 117.535156 L 231.449219 117.535156 C 248.496094 117.535156 262.367188 131.40625 262.367188 148.457031 L 262.367188 226.53125 C 262.367188 243.582031 248.496094 257.453125 231.449219 257.453125 Z M 146.066406 257.453125 " fill-opacity="1" fill-rule="nonzero"/></g><path fill="#dde225" d="M 261.613281 148.457031 L 261.613281 226.53125 C 261.613281 227.492188 261.566406 228.441406 261.476562 229.382812 C 260.039062 244.703125 247.148438 256.699219 231.449219 256.699219 L 219.117188 256.699219 C 235.335938 256.699219 248.792969 244.878906 251.351562 229.382812 C 251.636719 227.636719 251.796875 225.847656 251.796875 224.019531 L 251.796875 150.96875 C 251.796875 149.300781 251.667969 147.664062 251.429688 146.0625 C 249.058594 130.339844 235.496094 118.289062 219.117188 118.289062 L 231.449219 118.289062 C 247.300781 118.289062 260.289062 130.523438 261.511719 146.0625 C 261.574219 146.851562 261.613281 147.648438 261.613281 148.457031 Z M 261.613281 148.457031 " fill-opacity="1" fill-rule="nonzero"/><path fill="#4b11ed" d="M 251.429688 146.0625 C 249.058594 130.339844 235.496094 118.289062 219.117188 118.289062 L 146.066406 118.289062 C 128.015625 118.289062 113.386719 132.921875 113.386719 150.96875 L 113.386719 224.019531 C 113.386719 242.066406 128.015625 256.699219 146.066406 256.699219 L 219.117188 256.699219 C 235.335938 256.699219 248.792969 244.878906 251.351562 229.382812 C 251.636719 227.636719 251.796875 225.847656 251.796875 224.019531 L 251.796875 150.96875 C 251.796875 149.300781 251.667969 147.664062 251.429688 146.0625 Z M 217.429688 201.609375 C 220.753906 206.507812 223.074219 212.140625 224.085938 218.21875 C 224.699219 221.875 221.832031 225.195312 218.125 225.195312 L 147.054688 225.195312 C 143.347656 225.195312 140.484375 221.875 141.09375 218.21875 C 142.109375 212.140625 144.429688 206.507812 147.753906 201.609375 C 153.4375 193.226562 162.0625 187.003906 172.152344 184.429688 C 167.726562 182.117188 164.160156 178.382812 162.0625 173.835938 C 160.738281 170.960938 159.996094 167.761719 159.996094 164.390625 C 159.996094 156.84375 163.695312 150.164062 169.382812 146.0625 C 173.109375 143.371094 177.6875 141.78125 182.640625 141.792969 C 187.5 141.804688 192.03125 143.386719 195.742188 146.0625 C 201.191406 149.988281 204.859375 156.273438 205.164062 163.398438 C 205.324219 167.136719 204.574219 170.679688 203.121094 173.835938 C 201.023438 178.382812 197.457031 182.117188 193.027344 184.429688 C 203.117188 187.003906 211.742188 193.226562 217.429688 201.609375 Z M 217.429688 201.609375 " fill-opacity="1" fill-rule="nonzero"/><path fill="#f5f1e1" d="M 218.125 225.195312 L 147.054688 225.195312 C 143.347656 225.195312 140.484375 221.875 141.09375 218.21875 C 142.109375 212.140625 144.429688 206.507812 147.753906 201.609375 C 153.4375 193.226562 162.0625 187.003906 172.152344 184.429688 C 167.726562 182.117188 164.160156 178.382812 162.0625 173.835938 C 160.738281 170.960938 159.996094 167.761719 159.996094 164.390625 C 159.996094 156.84375 163.695312 150.164062 169.382812 146.0625 C 173.109375 143.371094 177.6875 141.78125 182.640625 141.792969 C 187.5 141.804688 192.03125 143.386719 195.742188 146.0625 C 201.191406 149.988281 204.859375 156.273438 205.164062 163.398438 C 205.324219 167.136719 204.574219 170.679688 203.121094 173.835938 C 201.023438 178.382812 197.457031 182.117188 193.027344 184.429688 C 203.117188 187.003906 211.742188 193.226562 217.429688 201.609375 C 220.753906 206.507812 223.074219 212.140625 224.085938 218.21875 C 224.699219 221.875 221.832031 225.195312 218.125 225.195312 Z M 218.125 225.195312 " fill-opacity="1" fill-rule="nonzero"/><g clip-path="url(#0242d41f1a)"><path fill="#2d2828" d="M 231.449219 117.410156 L 146.066406 117.410156 C 127.558594 117.410156 112.503906 132.464844 112.503906 150.96875 L 112.503906 224.019531 C 112.503906 242.523438 127.558594 257.578125 146.066406 257.578125 L 231.449219 257.578125 C 248.566406 257.578125 262.496094 243.652344 262.496094 226.53125 L 262.496094 148.457031 C 262.496094 131.335938 248.566406 117.410156 231.449219 117.410156 Z M 260.734375 200.726562 L 252.675781 200.726562 L 252.675781 174.714844 L 260.734375 174.714844 Z M 260.734375 226.53125 C 260.734375 227.195312 260.703125 227.851562 260.660156 228.5 L 252.367188 228.5 C 252.5625 227.035156 252.675781 225.539062 252.675781 224.019531 L 252.675781 202.488281 L 260.734375 202.488281 Z M 146.066406 255.820312 C 144.863281 255.820312 143.679688 255.746094 142.515625 255.617188 C 126.644531 253.84375 114.265625 240.351562 114.265625 224.019531 L 114.265625 150.96875 C 114.265625 134.636719 126.644531 121.144531 142.515625 119.371094 C 143.679688 119.242188 144.863281 119.167969 146.066406 119.167969 L 219.117188 119.167969 C 234.671875 119.167969 247.648438 130.402344 250.378906 145.183594 C 250.433594 145.476562 250.492188 145.765625 250.535156 146.0625 C 250.582031 146.351562 250.613281 146.648438 250.652344 146.941406 C 250.820312 148.261719 250.914062 149.605469 250.914062 150.96875 L 250.914062 224.019531 C 250.914062 225.539062 250.800781 227.035156 250.59375 228.5 C 250.550781 228.796875 250.503906 229.089844 250.453125 229.382812 C 250.40625 229.675781 250.355469 229.96875 250.296875 230.261719 C 247.386719 244.816406 234.515625 255.820312 219.117188 255.820312 Z M 252.167969 145.183594 C 250.039062 132.992188 241.3125 123.046875 229.816406 119.167969 L 231.449219 119.167969 C 246.488281 119.167969 258.914062 130.570312 260.546875 145.183594 Z M 229.816406 255.820312 C 241.171875 251.988281 249.820312 242.242188 252.085938 230.261719 L 260.488281 230.261719 C 258.652344 244.65625 246.332031 255.820312 231.449219 255.820312 Z M 252.675781 172.957031 L 252.675781 150.96875 C 252.675781 149.605469 252.585938 148.261719 252.425781 146.941406 L 260.695312 146.941406 C 260.722656 147.441406 260.734375 147.949219 260.734375 148.457031 L 260.734375 172.957031 Z M 223.421875 223.617188 C 224.726562 222.078125 225.285156 220.058594 224.957031 218.074219 C 224.015625 212.4375 221.976562 207.164062 219.066406 202.488281 C 218.878906 202.191406 218.695312 201.898438 218.503906 201.609375 C 218.3125 201.3125 218.109375 201.019531 217.90625 200.726562 C 212.515625 192.949219 204.605469 187.019531 195.265625 184.144531 C 198.902344 181.804688 201.769531 178.511719 203.636719 174.714844 C 203.78125 174.421875 203.925781 174.132812 204.058594 173.835938 C 204.1875 173.546875 204.296875 173.25 204.414062 172.957031 C 205.597656 169.949219 206.1875 166.691406 206.042969 163.363281 C 205.769531 156.886719 202.75 151.042969 198.160156 146.941406 C 197.820312 146.640625 197.480469 146.34375 197.125 146.0625 C 196.738281 145.753906 196.34375 145.464844 195.941406 145.183594 C 192.132812 142.511719 187.535156 140.925781 182.644531 140.914062 C 177.726562 140.914062 173.039062 142.40625 169.097656 145.183594 C 168.699219 145.464844 168.308594 145.753906 167.925781 146.0625 C 167.570312 146.34375 167.222656 146.636719 166.882812 146.941406 C 166.585938 147.210938 166.292969 147.488281 166.007812 147.773438 C 161.5625 152.207031 159.113281 158.109375 159.113281 164.390625 C 159.113281 167.378906 159.679688 170.273438 160.726562 172.957031 C 160.84375 173.253906 160.972656 173.542969 161.101562 173.835938 C 161.230469 174.132812 161.363281 174.425781 161.507812 174.714844 C 163.367188 178.515625 166.246094 181.792969 169.910156 184.144531 C 160.574219 187.023438 152.664062 192.949219 147.273438 200.726562 C 147.074219 201.019531 146.871094 201.3125 146.675781 201.609375 C 146.484375 201.898438 146.300781 202.191406 146.117188 202.488281 C 143.203125 207.164062 141.167969 212.4375 140.226562 218.074219 C 139.894531 220.058594 140.453125 222.078125 141.761719 223.617188 C 143.082031 225.179688 145.011719 226.074219 147.054688 226.074219 L 218.125 226.074219 C 220.167969 226.074219 222.097656 225.179688 223.421875 223.617188 Z M 143.101562 222.480469 C 142.132812 221.335938 141.714844 219.835938 141.960938 218.363281 C 142.925781 212.582031 145.097656 207.199219 148.210938 202.488281 C 148.40625 202.191406 148.601562 201.898438 148.804688 201.609375 C 149.011719 201.3125 149.21875 201.019531 149.429688 200.726562 C 154.960938 193.238281 162.984375 187.675781 172.371094 185.28125 C 172.722656 185.191406 172.984375 184.890625 173.027344 184.53125 C 173.066406 184.167969 172.882812 183.816406 172.558594 183.648438 C 168.625 181.59375 165.511719 178.457031 163.488281 174.714844 C 163.332031 174.425781 163.183594 174.132812 163.039062 173.835938 C 162.898438 173.542969 162.757812 173.253906 162.628906 172.957031 C 161.492188 170.296875 160.875 167.394531 160.875 164.390625 C 160.875 158.582031 163.140625 153.121094 167.25 149.015625 C 168.007812 148.261719 168.8125 147.570312 169.65625 146.941406 C 170.074219 146.628906 170.503906 146.339844 170.941406 146.0625 C 171.429688 145.75 171.929688 145.453125 172.4375 145.183594 C 175.53125 143.542969 178.992188 142.671875 182.589844 142.671875 C 182.605469 142.671875 182.625 142.671875 182.640625 142.671875 C 186.203125 142.679688 189.597656 143.589844 192.601562 145.183594 C 193.113281 145.453125 193.613281 145.75 194.101562 146.0625 C 194.539062 146.339844 194.96875 146.632812 195.386719 146.941406 C 200.523438 150.742188 204 156.722656 204.285156 163.4375 C 204.429688 166.757812 203.792969 170 202.519531 172.957031 C 202.394531 173.25 202.261719 173.546875 202.121094 173.835938 C 201.976562 174.132812 201.824219 174.425781 201.667969 174.714844 C 199.636719 178.460938 196.523438 181.609375 192.621094 183.648438 C 192.296875 183.816406 192.113281 184.167969 192.15625 184.53125 C 192.195312 184.890625 192.457031 185.191406 192.8125 185.28125 C 202.199219 187.675781 210.222656 193.238281 215.75 200.726562 C 215.964844 201.019531 216.171875 201.3125 216.375 201.609375 C 216.578125 201.898438 216.777344 202.191406 216.972656 202.488281 C 220.085938 207.199219 222.253906 212.582031 223.21875 218.363281 C 223.464844 219.835938 223.046875 221.335938 222.078125 222.480469 C 221.089844 223.648438 219.648438 224.316406 218.125 224.316406 L 147.054688 224.316406 C 145.53125 224.316406 144.089844 223.648438 143.101562 222.480469 Z M 143.101562 222.480469 " fill-opacity="1" fill-rule="nonzero"/></g></svg>