<svg xmlns="http://www.w3.org/2000/svg" xmlns:xlink="http://www.w3.org/1999/xlink" width="500" zoomAndPan="magnify" viewBox="0 0 375 374.999991" height="500" preserveAspectRatio="xMidYMid meet" version="1.0"><defs><clipPath id="731e3bac14"><path d="M 118.363281 112.5 L 256.363281 112.5 L 256.363281 262.5 L 118.363281 262.5 Z M 118.363281 112.5 " clip-rule="nonzero"/></clipPath></defs><path fill="#264414" d="M 255.515625 181.699219 L 255.515625 193.300781 C 255.515625 230.867188 225.0625 261.320312 187.496094 261.320312 C 149.929688 261.320312 119.476562 230.867188 119.476562 193.300781 L 119.476562 181.699219 L 120.46875 181.699219 C 125.972656 149.660156 153.886719 125.28125 187.496094 125.28125 C 221.109375 125.28125 249.019531 149.660156 254.527344 181.699219 Z M 255.515625 181.699219 " fill-opacity="1" fill-rule="nonzero"/><path fill="#f6f7f8" d="M 255.515625 181.699219 C 255.515625 182.8125 255.488281 183.925781 255.433594 185.035156 C 255.378906 186.148438 255.296875 187.257812 255.1875 188.367188 C 255.078125 189.472656 254.945312 190.578125 254.78125 191.679688 C 254.617188 192.78125 254.425781 193.878906 254.210938 194.96875 C 253.992188 196.0625 253.75 197.148438 253.476562 198.226562 C 253.207031 199.304688 252.910156 200.378906 252.585938 201.445312 C 252.265625 202.507812 251.914062 203.566406 251.539062 204.613281 C 251.164062 205.664062 250.765625 206.699219 250.339844 207.730469 C 249.914062 208.757812 249.460938 209.773438 248.984375 210.78125 C 248.511719 211.789062 248.007812 212.78125 247.484375 213.761719 C 246.960938 214.746094 246.410156 215.714844 245.839844 216.667969 C 245.265625 217.625 244.671875 218.5625 244.054688 219.488281 C 243.433594 220.414062 242.792969 221.324219 242.132812 222.21875 C 241.46875 223.113281 240.78125 223.988281 240.078125 224.851562 C 239.371094 225.710938 238.644531 226.554688 237.894531 227.378906 C 237.148438 228.203125 236.382812 229.007812 235.59375 229.796875 C 234.808594 230.582031 234 231.351562 233.175781 232.097656 C 232.351562 232.847656 231.507812 233.574219 230.648438 234.277344 C 229.789062 234.984375 228.910156 235.667969 228.015625 236.332031 C 227.121094 236.996094 226.210938 237.636719 225.285156 238.253906 C 224.359375 238.875 223.421875 239.46875 222.464844 240.042969 C 221.511719 240.613281 220.542969 241.164062 219.5625 241.6875 C 218.578125 242.210938 217.585938 242.710938 216.578125 243.1875 C 215.574219 243.664062 214.554688 244.113281 213.527344 244.539062 C 212.5 244.96875 211.460938 245.367188 210.414062 245.742188 C 209.363281 246.117188 208.308594 246.464844 207.242188 246.789062 C 206.175781 247.113281 205.105469 247.410156 204.023438 247.679688 C 202.945312 247.949219 201.859375 248.195312 200.765625 248.410156 C 199.675781 248.628906 198.578125 248.820312 197.476562 248.980469 C 196.375 249.144531 195.273438 249.28125 194.164062 249.390625 C 193.058594 249.5 191.945312 249.582031 190.835938 249.636719 C 189.722656 249.691406 188.609375 249.71875 187.496094 249.71875 C 186.382812 249.71875 185.273438 249.691406 184.160156 249.636719 C 183.046875 249.582031 181.9375 249.5 180.832031 249.390625 C 179.722656 249.28125 178.617188 249.144531 177.515625 248.980469 C 176.414062 248.820312 175.320312 248.628906 174.226562 248.410156 C 173.136719 248.195312 172.050781 247.949219 170.96875 247.679688 C 169.890625 247.410156 168.816406 247.113281 167.753906 246.789062 C 166.6875 246.464844 165.628906 246.117188 164.582031 245.742188 C 163.535156 245.367188 162.496094 244.96875 161.46875 244.539062 C 160.4375 244.113281 159.421875 243.664062 158.414062 243.1875 C 157.410156 242.710938 156.414062 242.210938 155.433594 241.6875 C 154.453125 241.164062 153.484375 240.613281 152.527344 240.042969 C 151.574219 239.46875 150.632812 238.875 149.707031 238.253906 C 148.78125 237.636719 147.871094 236.996094 146.980469 236.332031 C 146.085938 235.667969 145.207031 234.984375 144.347656 234.277344 C 143.484375 233.574219 142.644531 232.847656 141.820312 232.097656 C 140.992188 231.351562 140.1875 230.582031 139.402344 229.796875 C 138.613281 229.007812 137.847656 228.203125 137.097656 227.378906 C 136.351562 226.554688 135.625 225.710938 134.917969 224.851562 C 134.210938 223.988281 133.527344 223.113281 132.863281 222.21875 C 132.199219 221.324219 131.558594 220.414062 130.941406 219.488281 C 130.324219 218.5625 129.726562 217.625 129.15625 216.667969 C 128.582031 215.714844 128.035156 214.746094 127.511719 213.761719 C 126.984375 212.78125 126.484375 211.789062 126.007812 210.78125 C 125.53125 209.773438 125.082031 208.757812 124.65625 207.730469 C 124.230469 206.699219 123.828125 205.664062 123.453125 204.613281 C 123.078125 203.566406 122.730469 202.507812 122.40625 201.445312 C 122.085938 200.378906 121.789062 199.304688 121.515625 198.226562 C 121.246094 197.148438 121.003906 196.0625 120.785156 194.96875 C 120.566406 193.878906 120.378906 192.78125 120.214844 191.679688 C 120.050781 190.578125 119.914062 189.472656 119.804688 188.367188 C 119.695312 187.257812 119.613281 186.148438 119.558594 185.035156 C 119.503906 183.925781 119.476562 182.8125 119.476562 181.699219 C 119.476562 180.585938 119.503906 179.472656 119.558594 178.363281 C 119.613281 177.25 119.695312 176.140625 119.804688 175.03125 C 119.914062 173.925781 120.050781 172.820312 120.214844 171.71875 C 120.378906 170.617188 120.566406 169.519531 120.785156 168.429688 C 121.003906 167.335938 121.246094 166.253906 121.515625 165.171875 C 121.789062 164.09375 122.085938 163.019531 122.40625 161.953125 C 122.730469 160.890625 123.078125 159.832031 123.453125 158.785156 C 123.828125 157.738281 124.230469 156.699219 124.65625 155.667969 C 125.082031 154.640625 125.53125 153.625 126.007812 152.617188 C 126.484375 151.609375 126.984375 150.617188 127.511719 149.636719 C 128.035156 148.652344 128.582031 147.683594 129.15625 146.730469 C 129.726562 145.777344 130.324219 144.835938 130.941406 143.910156 C 131.558594 142.984375 132.199219 142.074219 132.863281 141.179688 C 133.527344 140.285156 134.210938 139.410156 134.917969 138.546875 C 135.625 137.6875 136.351562 136.84375 137.097656 136.019531 C 137.847656 135.195312 138.613281 134.390625 139.402344 133.601562 C 140.1875 132.816406 140.992188 132.046875 141.820312 131.300781 C 142.644531 130.554688 143.484375 129.824219 144.347656 129.121094 C 145.207031 128.414062 146.085938 127.730469 146.980469 127.066406 C 147.871094 126.402344 148.78125 125.761719 149.707031 125.144531 C 150.632812 124.523438 151.574219 123.929688 152.527344 123.359375 C 153.484375 122.785156 154.453125 122.238281 155.433594 121.710938 C 156.414062 121.1875 157.410156 120.6875 158.414062 120.210938 C 159.421875 119.734375 160.4375 119.285156 161.46875 118.859375 C 162.496094 118.433594 163.535156 118.03125 164.582031 117.65625 C 165.628906 117.28125 166.6875 116.933594 167.753906 116.609375 C 168.816406 116.285156 169.890625 115.988281 170.96875 115.71875 C 172.050781 115.449219 173.136719 115.203125 174.226562 114.988281 C 175.320312 114.769531 176.414062 114.578125 177.515625 114.417969 C 178.617188 114.253906 179.722656 114.117188 180.832031 114.007812 C 181.9375 113.898438 183.046875 113.816406 184.160156 113.761719 C 185.273438 113.707031 186.382812 113.679688 187.496094 113.679688 C 188.609375 113.679688 189.722656 113.707031 190.835938 113.761719 C 191.945312 113.816406 193.058594 113.898438 194.164062 114.007812 C 195.273438 114.117188 196.375 114.253906 197.476562 114.417969 C 198.578125 114.578125 199.675781 114.769531 200.765625 114.988281 C 201.859375 115.203125 202.945312 115.449219 204.023438 115.71875 C 205.105469 115.988281 206.175781 116.285156 207.242188 116.609375 C 208.308594 116.933594 209.363281 117.28125 210.414062 117.65625 C 211.460938 118.03125 212.5 118.433594 213.527344 118.859375 C 214.554688 119.285156 215.574219 119.734375 216.578125 120.210938 C 217.585938 120.6875 218.578125 121.1875 219.5625 121.710938 C 220.542969 122.238281 221.511719 122.785156 222.464844 123.359375 C 223.421875 123.929688 224.359375 124.523438 225.285156 125.144531 C 226.210938 125.761719 227.121094 126.402344 228.015625 127.066406 C 228.910156 127.730469 229.789062 128.414062 230.648438 129.121094 C 231.507812 129.824219 232.351562 130.554688 233.175781 131.300781 C 234 132.046875 234.808594 132.816406 235.59375 133.601562 C 236.382812 134.390625 237.148438 135.195312 237.894531 136.019531 C 238.644531 136.84375 239.371094 137.6875 240.078125 138.546875 C 240.78125 139.410156 241.46875 140.285156 242.132812 141.179688 C 242.792969 142.074219 243.433594 142.984375 244.054688 143.910156 C 244.671875 144.835938 245.265625 145.777344 245.839844 146.730469 C 246.410156 147.683594 246.960938 148.652344 247.484375 149.636719 C 248.007812 150.617188 248.511719 151.609375 248.984375 152.617188 C 249.460938 153.625 249.914062 154.640625 250.339844 155.667969 C 250.765625 156.699219 251.164062 157.738281 251.539062 158.785156 C 251.914062 159.832031 252.265625 160.890625 252.585938 161.953125 C 252.910156 163.019531 253.207031 164.09375 253.476562 165.171875 C 253.75 166.253906 253.992188 167.335938 254.210938 168.429688 C 254.425781 169.519531 254.617188 170.617188 254.78125 171.71875 C 254.945312 172.820312 255.078125 173.925781 255.1875 175.03125 C 255.296875 176.140625 255.378906 177.25 255.433594 178.363281 C 255.488281 179.472656 255.515625 180.585938 255.515625 181.699219 Z M 255.515625 181.699219 " fill-opacity="1" fill-rule="nonzero"/><path fill="#c2fcf7" d="M 221.921875 210.34375 C 221.921875 218.179688 215.566406 224.53125 207.730469 224.53125 C 199.894531 224.53125 193.542969 218.179688 193.542969 210.34375 C 193.542969 208.808594 193.792969 207.339844 194.242188 205.957031 L 171.15625 191.457031 C 168.605469 193.894531 165.15625 195.402344 161.351562 195.402344 C 153.515625 195.402344 147.164062 189.050781 147.164062 181.214844 C 147.164062 173.378906 153.515625 167.023438 161.351562 167.023438 C 165.234375 167.023438 168.753906 168.589844 171.316406 171.117188 L 194.171875 157.242188 C 193.761719 155.917969 193.542969 154.511719 193.542969 153.054688 C 193.542969 145.21875 199.894531 138.867188 207.730469 138.867188 C 215.566406 138.867188 221.921875 145.21875 221.921875 153.054688 C 221.921875 160.890625 215.566406 167.246094 207.730469 167.246094 C 203.847656 167.246094 200.328125 165.679688 197.765625 163.152344 L 174.910156 177.027344 C 175.320312 178.351562 175.539062 179.757812 175.539062 181.214844 C 175.539062 182.746094 175.289062 184.21875 174.839844 185.601562 L 197.929688 200.101562 C 200.476562 197.660156 203.925781 196.152344 207.730469 196.152344 C 215.566406 196.152344 221.921875 202.507812 221.921875 210.34375 Z M 221.921875 210.34375 " fill-opacity="1" fill-rule="nonzero"/><g clip-path="url(#731e3bac14)"><path fill="#2d2828" d="M 187.496094 112.566406 C 149.378906 112.566406 118.363281 143.578125 118.363281 181.699219 L 118.363281 193.300781 C 118.363281 231.421875 149.378906 262.433594 187.496094 262.433594 C 225.617188 262.433594 256.632812 231.421875 256.632812 193.300781 L 256.632812 181.699219 C 256.632812 143.578125 225.617188 112.566406 187.496094 112.566406 Z M 187.496094 260.203125 C 153.082031 260.203125 124.652344 234.082031 120.996094 200.621094 C 129.246094 229.574219 155.933594 250.832031 187.496094 250.832031 C 219.058594 250.832031 245.75 229.574219 254 200.621094 C 250.34375 234.082031 221.914062 260.203125 187.496094 260.203125 Z M 254 174.378906 C 254.222656 176.421875 254.351562 178.492188 254.386719 180.585938 C 254.390625 180.703125 254.390625 180.820312 254.390625 180.9375 C 254.394531 181.191406 254.402344 181.445312 254.402344 181.699219 C 254.402344 182.070312 254.394531 182.441406 254.386719 182.8125 C 254.363281 184.390625 254.28125 185.953125 254.148438 187.5 C 254.011719 189.078125 253.820312 190.640625 253.578125 192.1875 C 253.519531 192.558594 253.457031 192.929688 253.394531 193.300781 C 253.328125 193.671875 253.257812 194.042969 253.183594 194.414062 C 247.226562 225.246094 220.042969 248.605469 187.496094 248.605469 C 154.953125 248.605469 127.769531 225.246094 121.8125 194.414062 C 121.738281 194.042969 121.667969 193.671875 121.601562 193.300781 C 121.539062 192.929688 121.476562 192.558594 121.417969 192.1875 C 121.171875 190.640625 120.984375 189.078125 120.847656 187.5 C 120.714844 185.953125 120.632812 184.390625 120.609375 182.8125 C 120.601562 182.441406 120.59375 182.070312 120.59375 181.699219 C 120.59375 181.441406 120.601562 181.1875 120.601562 180.933594 C 120.605469 180.816406 120.605469 180.699219 120.609375 180.585938 C 120.640625 178.492188 120.773438 176.421875 120.996094 174.378906 C 124.652344 140.917969 153.082031 114.796875 187.496094 114.796875 C 221.914062 114.796875 250.34375 140.917969 254 174.378906 Z M 146.132812 182.8125 C 146.511719 186.472656 148.191406 189.753906 150.699219 192.1875 C 151.105469 192.582031 151.53125 192.953125 151.980469 193.300781 C 152.503906 193.707031 153.050781 194.078125 153.625 194.414062 C 155.894531 195.75 158.535156 196.519531 161.351562 196.519531 C 164.101562 196.519531 166.753906 195.785156 169.082031 194.414062 C 169.644531 194.085938 170.179688 193.703125 170.699219 193.300781 C 170.890625 193.152344 171.089844 193.007812 171.277344 192.847656 L 171.996094 193.300781 L 173.769531 194.414062 L 192.933594 206.449219 C 192.597656 207.726562 192.425781 209.03125 192.425781 210.34375 C 192.425781 218.78125 199.292969 225.648438 207.730469 225.648438 C 216.167969 225.648438 223.035156 218.78125 223.035156 210.34375 C 223.035156 201.902344 216.167969 195.039062 207.730469 195.039062 C 204.070312 195.039062 200.578125 196.335938 197.804688 198.707031 L 190.972656 194.414062 L 189.195312 193.300781 L 187.421875 192.1875 L 176.148438 185.105469 C 176.347656 184.351562 176.480469 183.585938 176.5625 182.8125 C 176.601562 182.445312 176.628906 182.070312 176.640625 181.699219 C 176.644531 181.539062 176.65625 181.375 176.65625 181.214844 C 176.65625 181.003906 176.644531 180.792969 176.636719 180.585938 C 176.59375 179.558594 176.457031 178.539062 176.210938 177.542969 L 197.625 164.542969 C 200.421875 167.011719 203.976562 168.359375 207.730469 168.359375 C 216.167969 168.359375 223.035156 161.496094 223.035156 153.054688 C 223.035156 144.617188 216.167969 137.75 207.730469 137.75 C 199.292969 137.75 192.425781 144.617188 192.425781 153.054688 C 192.425781 154.296875 192.578125 155.527344 192.871094 156.726562 L 171.460938 169.726562 C 168.660156 167.257812 165.105469 165.910156 161.351562 165.910156 C 153.125 165.910156 146.394531 172.4375 146.0625 180.585938 C 146.054688 180.792969 146.046875 181.003906 146.046875 181.214844 C 146.046875 181.375 146.054688 181.539062 146.058594 181.699219 C 146.070312 182.074219 146.09375 182.445312 146.132812 182.8125 Z M 148.277344 181.214844 C 148.277344 181 148.296875 180.792969 148.308594 180.585938 C 148.640625 173.667969 154.355469 168.140625 161.351562 168.140625 C 164.808594 168.140625 168.066406 169.480469 170.53125 171.910156 C 170.894531 172.269531 171.457031 172.335938 171.894531 172.070312 L 194.75 158.195312 C 195.1875 157.929688 195.386719 157.402344 195.238281 156.914062 C 194.851562 155.664062 194.65625 154.367188 194.65625 153.054688 C 194.65625 145.847656 200.523438 139.980469 207.730469 139.980469 C 214.941406 139.980469 220.804688 145.847656 220.804688 153.054688 C 220.804688 160.265625 214.941406 166.128906 207.730469 166.128906 C 204.277344 166.128906 201.015625 164.789062 198.550781 162.359375 C 198.1875 162 197.625 161.933594 197.1875 162.199219 L 174.332031 176.074219 C 173.894531 176.339844 173.695312 176.867188 173.847656 177.355469 C 174.167969 178.40625 174.351562 179.488281 174.402344 180.585938 C 174.414062 180.792969 174.425781 181.003906 174.425781 181.214844 C 174.425781 181.375 174.414062 181.539062 174.40625 181.699219 C 174.390625 182.070312 174.363281 182.445312 174.316406 182.8125 C 174.214844 183.640625 174.039062 184.457031 173.78125 185.257812 C 173.621094 185.742188 173.816406 186.273438 174.25 186.546875 L 183.230469 192.1875 L 186.777344 194.414062 L 197.335938 201.046875 C 197.769531 201.320312 198.332031 201.257812 198.699219 200.90625 C 201.148438 198.5625 204.355469 197.269531 207.730469 197.269531 C 214.941406 197.269531 220.804688 203.132812 220.804688 210.34375 C 220.804688 217.550781 214.941406 223.417969 207.730469 223.417969 C 200.523438 223.417969 194.65625 217.550781 194.65625 210.34375 C 194.65625 208.976562 194.875 207.617188 195.300781 206.300781 C 195.460938 205.8125 195.265625 205.28125 194.835938 205.011719 L 177.964844 194.414062 L 176.1875 193.300781 L 174.414062 192.1875 L 171.746094 190.511719 C 171.566406 190.398438 171.359375 190.339844 171.15625 190.339844 C 170.875 190.339844 170.597656 190.445312 170.382812 190.652344 C 169.78125 191.226562 169.132812 191.738281 168.445312 192.1875 C 167.769531 192.625 167.058594 192.996094 166.320312 193.300781 C 164.757812 193.945312 163.078125 194.289062 161.351562 194.289062 C 159.59375 194.289062 157.914062 193.933594 156.382812 193.300781 C 155.636719 192.996094 154.933594 192.617188 154.265625 192.1875 C 151.09375 190.128906 148.867188 186.742188 148.386719 182.8125 C 148.339844 182.445312 148.316406 182.074219 148.300781 181.699219 C 148.296875 181.535156 148.277344 181.378906 148.277344 181.214844 Z M 148.277344 181.214844 " fill-opacity="1" fill-rule="nonzero"/></g></svg>