<svg xmlns="http://www.w3.org/2000/svg" xmlns:xlink="http://www.w3.org/1999/xlink" width="500" zoomAndPan="magnify" viewBox="0 0 375 374.999991" height="500" preserveAspectRatio="xMidYMid meet" version="1.0"><defs><clipPath id="eccc7483cd"><path d="M 113 113.90625 L 262.5 113.90625 L 262.5 260.90625 L 113 260.90625 Z M 113 113.90625 " clip-rule="nonzero"/></clipPath></defs><g clip-path="url(#eccc7483cd)"><path fill="#4b11ed" d="M 261.820312 161.96875 C 262.40625 161.3125 262.300781 160.515625 262.027344 159.792969 C 261.921875 159.515625 261.851562 159.238281 261.886719 158.964844 C 262.027344 157.894531 261.578125 157.066406 260.851562 156.339844 C 260.542969 156.027344 260.160156 155.820312 259.710938 156.0625 C 259.679688 155.925781 259.644531 155.820312 259.574219 155.648438 L 259.265625 155.996094 C 259.265625 155.820312 259.265625 155.71875 259.230469 155.683594 C 258.917969 155.613281 258.640625 155.546875 258.402344 155.441406 C 258.195312 155.304688 257.953125 155.199219 257.710938 155.132812 C 256.570312 154.925781 255.464844 154.683594 254.328125 154.542969 C 253.082031 154.371094 251.839844 154.164062 250.597656 154.128906 C 247.523438 153.992188 244.488281 154.0625 241.449219 154.40625 C 238.167969 154.785156 234.851562 155.132812 231.574219 155.648438 C 226.324219 156.511719 221.144531 157.652344 216 159.101562 C 215.761719 159.171875 215.519531 159.207031 215.277344 159.238281 C 215.347656 159.03125 215.414062 158.859375 215.554688 158.722656 C 217.210938 156.789062 218.9375 154.925781 220.492188 152.886719 C 223.183594 149.398438 225.738281 145.878906 228.328125 142.320312 C 229.328125 140.976562 230.226562 139.558594 231.125 138.144531 C 231.847656 137.003906 232.539062 135.867188 233.128906 134.65625 C 234.164062 132.722656 235.027344 130.6875 235.683594 128.613281 C 236.234375 126.75 236.71875 124.886719 236.546875 122.917969 C 236.40625 121.605469 236.097656 120.363281 234.992188 119.464844 C 233.851562 118.5 232.644531 117.636719 231.367188 116.910156 C 229.15625 115.703125 226.773438 115.046875 224.390625 114.492188 C 223.078125 114.183594 221.699219 114.25 220.351562 114.078125 C 218.765625 113.90625 217.175781 114.011719 215.65625 114.355469 C 212.34375 115.046875 209.371094 116.425781 206.507812 118.152344 C 203.054688 120.226562 199.914062 122.710938 197.082031 125.542969 C 194.800781 127.890625 192.695312 130.410156 190.761719 133.035156 C 188.519531 135.933594 186.515625 139.007812 184.71875 142.21875 C 184.480469 142.667969 184.203125 143.082031 183.890625 143.597656 C 183.824219 143.359375 183.789062 143.21875 183.753906 143.117188 C 183.339844 140.90625 182.996094 138.660156 182.476562 136.488281 C 181.683594 133 180.855469 129.546875 179.058594 126.40625 C 177.917969 124.367188 176.605469 122.574219 174.429688 121.46875 C 172.324219 120.398438 170.082031 119.671875 167.769531 119.363281 C 166.835938 119.222656 165.902344 119.222656 165.003906 119.15625 C 163.902344 119.085938 162.796875 119.015625 161.726562 119.429688 C 161.414062 119.570312 161.070312 119.636719 160.722656 119.636719 C 160.035156 119.570312 159.378906 119.636719 158.722656 119.84375 C 157.617188 120.121094 156.648438 120.742188 155.890625 121.570312 C 155.269531 122.296875 154.75 123.089844 154.371094 123.953125 C 153.820312 125.230469 153.371094 126.542969 153.023438 127.890625 C 152.335938 130.722656 152.472656 133.585938 152.714844 136.453125 C 152.816406 137.796875 153.023438 139.144531 153.265625 140.457031 C 153.578125 142.289062 153.886719 144.117188 154.234375 145.945312 C 154.441406 147.121094 154.75 148.292969 155.027344 149.46875 C 155.269531 150.402344 155.546875 151.296875 155.789062 152.195312 C 155.855469 152.472656 155.925781 152.75 155.925781 153.023438 C 155.925781 153.09375 155.546875 153.265625 155.476562 153.199219 C 155.199219 152.992188 154.925781 152.75 154.683594 152.507812 C 154.613281 152.4375 154.507812 152.367188 154.40625 152.300781 C 153.921875 152.058594 153.472656 151.816406 152.992188 151.574219 C 152.507812 151.332031 152.058594 151.160156 151.609375 150.953125 C 151.160156 150.746094 150.644531 150.46875 150.125 150.261719 C 149.988281 150.226562 149.847656 150.195312 149.710938 150.195312 C 149.503906 150.054688 149.296875 149.917969 149.054688 149.78125 C 148.605469 149.574219 148.15625 149.398438 147.707031 149.226562 C 146.707031 148.847656 145.738281 148.46875 144.738281 148.054688 C 144.152344 147.8125 143.496094 147.8125 142.941406 147.464844 C 142.839844 147.398438 142.703125 147.363281 142.5625 147.363281 C 142.011719 147.222656 141.457031 147.085938 140.90625 146.949219 C 140.148438 146.777344 139.386719 146.570312 138.628906 146.429688 C 137.589844 146.222656 136.589844 146.050781 135.554688 145.914062 C 135.070312 145.878906 134.554688 145.878906 134.070312 145.914062 C 133.964844 145.84375 133.898438 145.738281 133.792969 145.707031 C 133.101562 145.636719 132.378906 145.601562 131.6875 145.464844 C 130.996094 145.324219 130.304688 145.5 129.617188 145.324219 C 129.234375 145.222656 128.789062 145.429688 128.371094 145.5 C 128.199219 145.464844 127.992188 145.324219 127.820312 145.359375 C 127.09375 145.5 126.335938 145.394531 125.644531 145.636719 C 125.542969 145.636719 125.472656 145.636719 125.367188 145.636719 C 124.921875 145.636719 124.507812 145.636719 124.058594 145.671875 C 123.609375 145.707031 123.195312 145.84375 122.882812 145.878906 L 122.605469 146.328125 C 122.398438 145.945312 121.8125 146.5 121.710938 145.945312 C 121.675781 145.914062 121.605469 145.914062 121.570312 145.914062 C 121.121094 146.257812 120.433594 145.945312 120.085938 146.535156 C 120.085938 146.535156 119.984375 146.5 119.914062 146.5 C 119.5 146.570312 119.015625 146.394531 118.773438 146.914062 C 118.738281 146.949219 118.636719 146.984375 118.566406 146.984375 C 118.117188 146.914062 117.667969 147.050781 117.359375 147.363281 C 117.222656 147.5 116.945312 147.535156 116.773438 147.671875 C 116.667969 147.742188 116.632812 147.878906 116.566406 148.054688 C 116.117188 147.914062 115.804688 148.328125 115.597656 148.605469 C 114.976562 149.363281 114.425781 150.195312 113.976562 151.058594 C 112.730469 153.648438 112.59375 156.234375 114.078125 158.789062 C 114.5625 159.621094 115.113281 160.414062 115.703125 161.140625 C 116.53125 162.277344 117.429688 163.347656 118.394531 164.351562 C 119.777344 165.660156 121.191406 166.90625 122.675781 168.042969 C 124.886719 169.804688 127.269531 171.324219 129.824219 172.566406 C 131.859375 173.535156 133.898438 174.5 135.96875 175.398438 C 137.796875 176.191406 139.664062 176.847656 141.5625 177.433594 C 144.1875 178.230469 146.808594 179.023438 149.46875 179.542969 C 152.230469 180.09375 155.027344 180.335938 157.824219 180.714844 C 158.273438 180.785156 158.757812 180.785156 159.273438 180.820312 C 159.207031 180.957031 159.171875 180.992188 159.101562 181.0625 C 157.03125 183.582031 154.925781 186.101562 152.816406 188.621094 C 151.644531 190.070312 150.46875 191.558594 149.296875 193.042969 C 148.292969 194.355469 147.257812 195.632812 146.363281 197.011719 C 144.289062 200.121094 142.253906 203.261719 140.214844 206.402344 C 139.285156 207.851562 138.453125 209.40625 137.625 210.925781 C 136.347656 213.273438 135.070312 215.621094 133.898438 218.039062 C 132.621094 220.730469 131.410156 223.460938 130.304688 226.222656 C 129.476562 228.328125 128.789062 230.503906 128.132812 232.644531 C 127.71875 233.921875 127.511719 235.269531 127.199219 236.578125 C 126.507812 239.480469 126.164062 242.347656 127.164062 245.246094 C 127.683594 246.765625 128.371094 248.144531 129.996094 248.835938 C 131.34375 249.492188 132.929688 249.527344 134.3125 248.976562 C 134.621094 248.835938 134.96875 248.699219 135.3125 248.628906 C 136.453125 248.492188 137.453125 247.9375 138.421875 247.316406 C 139.972656 246.316406 141.390625 245.140625 142.667969 243.761719 C 143.289062 243.105469 144.152344 242.691406 144.667969 241.898438 C 145.082031 241.34375 145.53125 240.828125 146.015625 240.34375 C 146.464844 239.789062 146.949219 239.238281 147.398438 238.6875 C 147.707031 238.273438 147.984375 237.824219 148.363281 237.410156 C 148.605469 237.167969 148.742188 236.855469 148.742188 236.546875 C 149.539062 236.234375 149.605469 235.300781 150.261719 234.886719 L 150.054688 234.851562 L 150.054688 234.714844 L 150.539062 234.613281 L 150.402344 234.199219 C 151.125 234.371094 151.367188 233.816406 151.644531 233.402344 C 151.988281 232.917969 152.300781 232.4375 152.644531 231.953125 C 153.679688 230.46875 154.71875 229.019531 155.71875 227.5 C 156.71875 225.980469 157.582031 224.53125 158.480469 223.046875 C 158.757812 222.597656 159.03125 222.148438 159.273438 221.734375 L 158.859375 221.386719 C 159.515625 221.351562 159.480469 221.351562 159.6875 220.90625 C 159.894531 220.457031 160.242188 219.9375 160.515625 219.453125 C 160.898438 218.796875 161.3125 218.140625 161.691406 217.488281 C 161.933594 217.070312 162.070312 216.625 162.3125 216.207031 C 163.003906 214.964844 163.726562 213.757812 164.382812 212.515625 C 164.730469 211.925781 164.972656 211.304688 165.28125 210.683594 C 165.453125 210.375 165.628906 210.027344 165.867188 209.613281 C 165.9375 209.753906 165.972656 209.925781 166.007812 210.0625 C 166.214844 211.445312 166.351562 212.824219 166.558594 214.171875 C 166.90625 216.242188 167.214844 218.316406 167.628906 220.351562 C 168.355469 223.667969 169.011719 227.015625 169.910156 230.261719 C 171.152344 234.613281 172.53125 238.925781 173.949219 243.207031 C 174.8125 245.796875 175.917969 248.351562 176.917969 250.910156 C 178.058594 253.773438 179.402344 256.46875 181.542969 258.746094 C 182.855469 260.128906 184.339844 261.09375 186.34375 260.4375 C 187.207031 260.160156 188.171875 259.917969 188.484375 258.882812 C 188.554688 258.574219 188.792969 258.367188 189.105469 258.402344 C 189.761719 258.367188 190.140625 257.917969 190.519531 257.46875 C 191.558594 256.363281 192.074219 255.015625 192.558594 253.636719 C 192.695312 253.257812 192.867188 252.875 193.074219 252.53125 C 193.179688 252.289062 193.457031 252.046875 193.421875 251.839844 C 193.285156 251.117188 193.9375 250.597656 193.835938 249.871094 C 193.765625 249.390625 194.007812 248.871094 194.144531 248.386719 C 194.5625 246.835938 194.628906 245.246094 194.664062 243.691406 C 194.734375 241.792969 194.835938 239.894531 194.800781 238.03125 C 194.769531 235.683594 194.59375 233.335938 194.457031 230.988281 C 194.355469 229.5 194.179688 228.050781 194.042969 226.566406 C 193.972656 225.945312 193.835938 225.324219 193.765625 224.703125 C 193.628906 223.460938 193.558594 222.214844 193.421875 220.972656 C 193.351562 220.25 193.214844 219.523438 193.109375 218.796875 C 193.042969 218.246094 192.972656 217.695312 192.902344 217.175781 C 192.867188 217.003906 192.695312 216.863281 192.695312 216.691406 C 192.660156 216.347656 192.765625 215.96875 192.695312 215.621094 C 192.421875 213.929688 192.074219 212.203125 191.765625 210.511719 C 191.660156 210.0625 191.488281 209.613281 191.351562 209.199219 C 191.488281 208.75 191.351562 208.269531 191.039062 207.921875 C 191.351562 207.644531 191.246094 207.199219 190.796875 206.921875 C 190.832031 206.78125 190.902344 206.609375 191.003906 206.472656 C 191.074219 206.402344 191.28125 206.335938 191.316406 206.402344 C 191.589844 206.609375 191.832031 206.851562 192.109375 207.09375 C 192.902344 207.851562 193.664062 208.648438 194.492188 209.339844 C 197.460938 211.789062 200.394531 214.242188 203.46875 216.589844 C 208.300781 220.316406 213.34375 223.769531 218.558594 226.945312 C 221.421875 228.671875 224.390625 230.191406 227.636719 231.054688 C 229.535156 231.574219 231.539062 231.261719 233.160156 230.191406 C 233.367188 230.054688 233.542969 229.847656 233.644531 229.640625 C 233.851562 229.121094 234.300781 228.777344 234.851562 228.671875 C 234.957031 228.636719 235.0625 228.605469 235.164062 228.5 C 235.75 227.707031 236.441406 226.945312 236.890625 226.082031 C 237.234375 225.460938 237.410156 224.773438 237.410156 224.046875 C 237.410156 223.941406 237.546875 223.839844 237.617188 223.734375 C 237.71875 223.632812 237.824219 223.492188 237.890625 223.355469 C 238.03125 222.941406 238.097656 222.527344 238.203125 222.113281 C 238.304688 221.734375 238.375 221.351562 238.445312 220.972656 C 238.445312 220.765625 238.375 220.558594 238.238281 220.421875 C 237.890625 220.007812 237.960938 219.765625 238.445312 219.453125 C 238.582031 219.351562 238.6875 219.246094 238.71875 219.109375 C 239.132812 218.039062 238.859375 216.898438 238.894531 215.761719 C 238.859375 215.3125 238.71875 214.863281 238.511719 214.484375 C 237.0625 211.304688 235.613281 208.164062 234.09375 205.023438 C 232.988281 202.710938 231.539062 200.570312 230.125 198.460938 C 228.222656 195.734375 226.152344 193.144531 223.910156 190.695312 C 222.355469 189 220.664062 187.449219 218.972656 185.894531 C 217.175781 184.273438 215.242188 182.820312 213.171875 181.578125 C 212.996094 181.476562 212.824219 181.335938 212.515625 181.128906 L 213.101562 181.0625 C 215.449219 180.785156 217.796875 180.578125 220.109375 180.265625 C 222.664062 179.886719 225.1875 179.4375 227.707031 178.953125 C 229.5 178.609375 231.296875 178.195312 233.09375 177.746094 C 234.542969 177.367188 236.027344 176.953125 237.476562 176.539062 C 238.925781 176.125 240.308594 175.710938 241.691406 175.191406 C 243.277344 174.605469 244.867188 173.984375 246.453125 173.359375 C 247.871094 172.808594 249.25 172.1875 250.667969 171.566406 C 251.011719 171.429688 251.324219 171.152344 251.667969 171.011719 C 251.910156 170.945312 252.152344 170.875 252.394531 170.839844 C 252.460938 170.566406 252.808594 170.460938 253.152344 170.359375 C 253.429688 170.253906 253.671875 170.117188 253.878906 169.941406 C 254.1875 169.667969 254.464844 169.320312 254.773438 169.046875 C 254.984375 168.871094 255.292969 168.839844 255.535156 168.699219 C 255.742188 168.527344 255.914062 168.355469 256.054688 168.113281 C 256.15625 167.976562 256.191406 167.800781 256.292969 167.664062 C 256.398438 167.527344 256.605469 167.457031 256.605469 167.386719 C 256.398438 166.730469 256.949219 167.113281 257.125 166.972656 C 257.191406 166.90625 257.296875 166.765625 257.398438 166.765625 C 257.988281 166.800781 258.332031 166.421875 258.710938 166.074219 C 259.609375 165.28125 260.609375 164.625 261.058594 163.453125 C 261.230469 162.898438 262.027344 162.726562 261.820312 161.96875 C 261.785156 162.003906 261.820312 161.96875 261.820312 161.96875 Z M 232.503906 132.792969 L 234.371094 126.230469 C 234.644531 128.582031 233.957031 130.929688 232.503906 132.792969 Z M 232.4375 125.75 L 232.574219 125.75 C 232.917969 127.164062 231.917969 128.164062 231.539062 129.339844 L 231.367188 129.304688 C 231.710938 128.097656 232.089844 126.921875 232.4375 125.75 Z M 222.839844 125.507812 C 223.492188 127.820312 222.320312 129.582031 221.042969 131.308594 C 221.664062 129.375 222.25 127.441406 222.839844 125.507812 Z M 155.820312 133.484375 L 155.613281 133.484375 L 155.753906 130.445312 L 155.820312 130.445312 Z M 117.738281 155.027344 C 117.738281 154.820312 117.773438 154.578125 117.808594 154.371094 C 117.875 154.164062 117.980469 153.957031 118.082031 153.785156 L 118.359375 153.921875 C 118.257812 153.75 118.222656 153.648438 118.152344 153.542969 L 118.394531 153.371094 C 118.914062 153.507812 118.636719 154.269531 117.738281 155.027344 Z M 151.921875 167.355469 C 150.710938 166.972656 149.539062 166.59375 148.328125 166.214844 C 147.363281 165.902344 146.429688 165.628906 145.464844 165.28125 C 144.773438 165.003906 144.082031 164.660156 143.390625 164.382812 C 142.941406 164.175781 142.425781 164.039062 141.976562 163.832031 C 141.664062 163.695312 141.390625 163.519531 141.078125 163.3125 C 140.527344 163.003906 140.007812 162.65625 139.457031 162.347656 C 139.144531 162.175781 138.765625 162.140625 138.453125 162.003906 C 138.351562 161.96875 138.28125 161.828125 138.179688 161.691406 C 138.144531 161.691406 137.972656 161.792969 137.902344 161.726562 C 137.625 161.585938 137.28125 161.449219 137.210938 161.207031 C 137.109375 160.792969 136.832031 160.722656 136.519531 160.585938 C 136.417969 160.515625 136.3125 160.414062 136.210938 160.378906 C 136.074219 160.277344 135.898438 160.207031 135.726562 160.171875 C 135.554688 159.964844 135.382812 159.757812 135.210938 159.585938 C 134.96875 159.378906 134.691406 159.171875 134.449219 159 C 134.277344 158.894531 134.105469 158.789062 133.933594 158.6875 C 133.722656 158.480469 133.550781 158.238281 133.34375 158.03125 C 133.070312 157.789062 132.722656 157.582031 132.414062 157.339844 C 132.34375 157.304688 132.238281 157.238281 132.207031 157.132812 C 131.617188 156.234375 131.066406 155.339844 130.511719 154.441406 C 130.480469 154.40625 130.480469 154.335938 130.480469 154.269531 C 131.273438 154.40625 132 154.542969 132.757812 154.648438 C 132.863281 154.648438 133.101562 154.683594 133.101562 154.648438 C 133.378906 154.164062 133.550781 154.371094 133.722656 154.71875 C 133.792969 154.820312 133.863281 154.890625 133.964844 154.925781 C 135.3125 155.40625 136.695312 155.890625 138.039062 156.410156 C 138.628906 156.617188 139.144531 157.066406 139.730469 157.203125 C 140.59375 157.410156 141.25 157.929688 141.976562 158.375 C 142.734375 158.859375 143.460938 159.378906 144.152344 159.929688 C 145.566406 161.171875 146.949219 162.484375 148.363281 163.761719 C 149.46875 164.765625 150.574219 165.765625 151.644531 166.765625 C 151.78125 166.871094 151.886719 167.007812 151.988281 167.144531 Z M 157.996094 128.40625 C 157.929688 128.855469 157.789062 129.304688 157.617188 129.71875 C 156.996094 131.515625 156.925781 133.378906 156.925781 135.242188 L 156.925781 136.695312 C 156.097656 133.792969 156.203125 129.410156 157.066406 128.132812 L 156.925781 128.0625 L 157.859375 127.199219 C 158.238281 127.542969 158.066406 128.027344 157.996094 128.40625 Z M 143.046875 227.914062 L 142.941406 227.84375 C 143.425781 226.707031 143.839844 225.53125 144.359375 224.390625 C 145.394531 222.148438 146.464844 219.902344 147.5 217.625 C 147.949219 216.65625 148.398438 215.691406 148.917969 214.757812 C 149.433594 213.828125 149.988281 212.929688 150.503906 211.996094 C 150.746094 211.582031 150.882812 211.097656 151.089844 210.648438 C 151.230469 210.410156 151.367188 210.203125 151.539062 209.996094 C 151.953125 209.441406 152.300781 208.890625 152.644531 208.300781 C 152.992188 207.714844 153.335938 207.164062 153.75 206.609375 C 153.957031 206.230469 154.09375 205.851562 154.164062 205.4375 L 154.820312 205.230469 C 151.265625 213.066406 147.640625 220.730469 143.046875 227.914062 Z M 161.828125 135.898438 C 161.171875 134.898438 161.171875 131.03125 161.828125 130.132812 Z M 176.675781 155.648438 L 176.332031 153.4375 L 176.46875 153.40625 L 176.8125 155.613281 Z M 177.609375 156.890625 L 175.8125 145.257812 L 175.949219 145.222656 C 177.195312 148.984375 177.402344 152.957031 177.746094 156.859375 Z M 180.921875 149.710938 C 180.4375 146.429688 179.992188 143.253906 179.542969 140.042969 L 179.609375 140.042969 C 179.785156 140.628906 179.957031 141.21875 180.09375 141.804688 C 180.507812 143.875 180.921875 145.945312 181.335938 148.054688 C 181.441406 148.640625 181.300781 149.261719 180.921875 149.710938 Z M 182.613281 146.363281 L 182.441406 146.363281 C 182.164062 144.636719 181.925781 142.910156 181.648438 141.183594 L 181.855469 141.183594 C 182.164062 142.667969 182.511719 144.152344 182.820312 145.636719 C 182.753906 145.878906 182.683594 146.121094 182.613281 146.363281 Z M 217.175781 204.332031 L 215.035156 201.914062 L 215.207031 201.777344 L 217.347656 204.195312 Z M 229.570312 200.328125 L 222.113281 191.625 C 223.5625 191.9375 229.5 198.910156 229.570312 200.328125 Z M 225.875 199.015625 L 225.773438 199.082031 L 220.214844 192.316406 C 222.734375 194.042969 224.289062 196.527344 225.875 199.015625 Z M 221.976562 201.085938 L 221.871094 201.15625 C 220.835938 199.945312 219.835938 198.738281 218.796875 197.53125 C 220.25 198.425781 221.113281 199.738281 221.976562 201.085938 Z M 222.492188 209.234375 C 221.941406 208.957031 216.96875 203.226562 214.550781 200.050781 C 216.691406 201.085938 222.148438 207.40625 222.492188 209.234375 Z M 203.8125 150.125 C 202.433594 151.851562 201.015625 153.578125 199.566406 155.269531 C 198.875 156.097656 198.082031 156.890625 197.355469 157.71875 C 196.425781 158.722656 195.492188 159.722656 194.527344 160.722656 C 193.871094 161.378906 193.144531 162.035156 192.421875 162.625 C 196.078125 151.679688 201.671875 141.90625 209.683594 133.484375 L 209.40625 133.308594 C 209.476562 133.277344 209.511719 133.207031 209.546875 133.207031 C 210.027344 133.171875 210.339844 132.863281 210.617188 132.550781 C 212.964844 130.273438 215.554688 128.269531 218.351562 126.578125 C 218.453125 126.507812 218.558594 126.472656 218.660156 126.40625 C 218.730469 126.40625 218.796875 126.371094 218.867188 126.371094 C 218.589844 127.09375 218.382812 127.785156 218.109375 128.476562 C 216.691406 131.652344 215 134.726562 212.996094 137.558594 C 211.238281 140.179688 209.40625 142.734375 207.578125 145.292969 C 206.367188 146.949219 205.089844 148.535156 203.8125 150.125 Z M 243.625 164.796875 C 240.585938 166.109375 237.476562 167.179688 234.265625 167.976562 C 231.503906 168.632812 228.742188 169.148438 225.980469 169.632812 C 222.390625 170.253906 218.796875 170.632812 215.171875 170.773438 C 213.828125 170.839844 212.515625 170.839844 211.167969 170.839844 C 210.960938 170.804688 210.789062 170.738281 210.582031 170.667969 C 211.445312 170.359375 212.136719 170.046875 212.859375 169.804688 C 213.515625 169.5625 214.207031 169.390625 214.863281 169.183594 C 215.519531 168.976562 216.175781 168.769531 216.863281 168.5625 C 217.210938 168.457031 217.625 168.527344 217.902344 168.355469 C 218.175781 168.183594 218.488281 168.25 218.765625 168.148438 C 219.28125 167.90625 219.800781 167.664062 220.351562 167.492188 C 220.972656 167.285156 221.5625 167.113281 222.183594 166.9375 C 223.046875 166.730469 223.941406 166.523438 224.804688 166.316406 C 225.773438 166.074219 226.738281 165.800781 227.742188 165.59375 C 229.15625 165.28125 230.570312 165.003906 232.023438 164.796875 C 234.472656 164.417969 236.960938 164.039062 239.445312 163.761719 C 240.894531 163.589844 242.347656 163.554688 243.796875 163.554688 C 244.277344 163.589844 244.761719 163.660156 245.210938 163.761719 L 245.246094 164.003906 C 244.726562 164.246094 244.175781 164.558594 243.625 164.796875 Z M 259.988281 158.273438 C 259.917969 157.859375 259.851562 157.445312 259.78125 156.960938 C 260.128906 157.097656 260.128906 157.167969 260.300781 158.203125 C 260.367188 158.03125 260.402344 157.894531 260.472656 157.859375 C 260.574219 157.824219 260.714844 157.789062 260.816406 157.789062 L 260.921875 157.929688 C 260.679688 158.101562 260.472656 158.308594 260.230469 158.480469 C 260.128906 158.480469 260.023438 158.375 259.988281 158.273438 Z M 261.300781 161.792969 C 261.230469 162.003906 261.128906 162.175781 260.988281 162.484375 L 260.75 161.140625 C 260.988281 161.035156 261.230469 161.171875 261.335938 161.414062 C 261.371094 161.554688 261.371094 161.691406 261.300781 161.792969 Z M 261.300781 161.792969 " fill-opacity="1" fill-rule="nonzero"/></g></svg>