<svg xmlns="http://www.w3.org/2000/svg" xmlns:xlink="http://www.w3.org/1999/xlink" width="500" zoomAndPan="magnify" viewBox="0 0 375 374.999991" height="500" preserveAspectRatio="xMidYMid meet" version="1.2"><defs><clipPath id="10ec7b6cd3"><path d="M 2 5.027344 L 373 5.027344 L 373 369 L 2 369 Z M 2 5.027344 "/></clipPath></defs><g id="531e01cf12"><g clip-rule="nonzero" clip-path="url(#10ec7b6cd3)"><path style=" stroke:none;fill-rule:nonzero;fill:#4b11ed;fill-opacity:1;" d="M 371.757812 124.191406 C 373.214844 122.5625 372.957031 120.59375 372.273438 118.796875 C 372.015625 118.113281 371.84375 117.425781 371.929688 116.742188 C 372.273438 114.089844 371.160156 112.035156 369.363281 110.238281 C 368.589844 109.464844 367.648438 108.953125 366.539062 109.550781 C 366.453125 109.210938 366.367188 108.953125 366.195312 108.523438 L 365.425781 109.378906 C 365.425781 108.953125 365.425781 108.695312 365.339844 108.609375 C 364.566406 108.4375 363.882812 108.269531 363.285156 108.011719 C 362.769531 107.667969 362.171875 107.410156 361.570312 107.242188 C 358.746094 106.726562 356.007812 106.128906 353.183594 105.785156 C 350.101562 105.355469 347.019531 104.84375 343.9375 104.757812 C 336.320312 104.414062 328.785156 104.585938 321.253906 105.441406 C 313.121094 106.382812 304.902344 107.242188 296.769531 108.523438 C 283.757812 110.664062 270.917969 113.488281 258.160156 117.085938 C 257.5625 117.257812 256.964844 117.339844 256.363281 117.425781 C 256.535156 116.914062 256.707031 116.484375 257.046875 116.144531 C 261.15625 111.347656 265.4375 106.726562 269.289062 101.675781 C 275.96875 93.03125 282.300781 84.296875 288.722656 75.480469 C 291.203125 72.140625 293.429688 68.632812 295.65625 65.121094 C 297.453125 62.296875 299.167969 59.472656 300.621094 56.476562 C 303.191406 51.683594 305.328125 46.632812 306.957031 41.496094 C 308.324219 36.875 309.523438 32.25 309.097656 27.371094 C 308.753906 24.117188 307.984375 21.035156 305.242188 18.8125 C 302.417969 16.414062 299.421875 14.273438 296.253906 12.476562 C 290.777344 9.480469 284.871094 7.851562 278.964844 6.484375 C 275.710938 5.714844 272.285156 5.882812 268.949219 5.457031 C 265.011719 5.027344 261.070312 5.285156 257.304688 6.140625 C 249.085938 7.851562 241.726562 11.277344 234.621094 15.558594 C 226.058594 20.695312 218.269531 26.855469 211.25 33.878906 C 205.601562 39.699219 200.378906 45.949219 195.585938 52.453125 C 190.019531 59.644531 185.054688 67.261719 180.601562 75.222656 C 180.003906 76.335938 179.320312 77.363281 178.550781 78.648438 C 178.378906 78.050781 178.292969 77.707031 178.207031 77.449219 C 177.179688 71.972656 176.324219 66.40625 175.039062 61.015625 C 173.070312 52.367188 171.015625 43.808594 166.5625 36.015625 C 163.738281 30.964844 160.484375 26.515625 155.09375 23.777344 C 149.871094 21.121094 144.308594 19.324219 138.570312 18.554688 C 136.261719 18.210938 133.949219 18.210938 131.722656 18.039062 C 128.984375 17.867188 126.246094 17.699219 123.589844 18.726562 C 122.820312 19.066406 121.964844 19.238281 121.109375 19.238281 C 119.394531 19.066406 117.769531 19.238281 116.144531 19.753906 C 113.402344 20.4375 111.007812 21.976562 109.125 24.03125 C 107.582031 25.832031 106.296875 27.800781 105.355469 29.9375 C 103.988281 33.105469 102.875 36.359375 102.019531 39.699219 C 100.304688 46.71875 100.648438 53.824219 101.246094 60.929688 C 101.503906 64.265625 102.019531 67.605469 102.617188 70.859375 C 103.386719 75.394531 104.160156 79.933594 105.015625 84.46875 C 105.527344 87.378906 106.296875 90.289062 106.984375 93.203125 C 107.582031 95.511719 108.265625 97.738281 108.867188 99.964844 C 109.039062 100.648438 109.207031 101.332031 109.207031 102.019531 C 109.207031 102.191406 108.265625 102.617188 108.097656 102.445312 C 107.410156 101.933594 106.726562 101.332031 106.128906 100.734375 C 105.957031 100.5625 105.699219 100.390625 105.441406 100.222656 C 104.242188 99.621094 103.132812 99.023438 101.933594 98.421875 C 100.734375 97.824219 99.621094 97.394531 98.507812 96.882812 C 97.394531 96.367188 96.113281 95.683594 94.828125 95.171875 C 94.484375 95.085938 94.140625 95 93.800781 95 C 93.285156 94.65625 92.773438 94.3125 92.171875 93.972656 C 91.0625 93.457031 89.949219 93.03125 88.835938 92.601562 C 86.351562 91.660156 83.957031 90.71875 81.472656 89.691406 C 80.019531 89.09375 78.390625 89.09375 77.023438 88.234375 C 76.765625 88.066406 76.421875 87.980469 76.078125 87.980469 C 74.710938 87.636719 73.339844 87.292969 71.972656 86.953125 C 70.085938 86.523438 68.203125 86.011719 66.320312 85.667969 C 63.753906 85.15625 61.269531 84.726562 58.703125 84.382812 C 57.503906 84.296875 56.21875 84.296875 55.019531 84.382812 C 54.765625 84.210938 54.59375 83.957031 54.335938 83.871094 C 52.625 83.699219 50.828125 83.613281 49.113281 83.269531 C 47.402344 82.929688 45.691406 83.355469 43.976562 82.929688 C 43.035156 82.671875 41.921875 83.183594 40.894531 83.355469 C 40.46875 83.269531 39.953125 82.929688 39.527344 83.015625 C 37.730469 83.355469 35.84375 83.101562 34.132812 83.699219 C 33.875 83.699219 33.707031 83.699219 33.449219 83.699219 C 32.335938 83.699219 31.308594 83.699219 30.195312 83.785156 C 29.082031 83.871094 28.054688 84.210938 27.285156 84.296875 L 26.601562 85.410156 C 26.085938 84.46875 24.632812 85.839844 24.375 84.46875 C 24.289062 84.382812 24.117188 84.382812 24.03125 84.382812 C 22.917969 85.238281 21.207031 84.46875 20.351562 85.925781 C 20.351562 85.925781 20.09375 85.839844 19.921875 85.839844 C 18.894531 86.011719 17.699219 85.582031 17.097656 86.867188 C 17.011719 86.953125 16.753906 87.039062 16.585938 87.039062 C 15.472656 86.867188 14.359375 87.207031 13.589844 87.980469 C 13.246094 88.320312 12.5625 88.40625 12.132812 88.75 C 11.875 88.921875 11.789062 89.261719 11.621094 89.691406 C 10.507812 89.347656 9.734375 90.375 9.222656 91.0625 C 7.679688 92.945312 6.3125 95 5.199219 97.140625 C 2.117188 103.558594 1.773438 109.980469 5.457031 116.316406 C 6.652344 118.367188 8.023438 120.339844 9.480469 122.136719 C 11.535156 124.960938 13.757812 127.613281 16.15625 130.097656 C 19.582031 133.351562 23.089844 136.433594 26.769531 139.257812 C 32.25 143.621094 38.15625 147.390625 44.492188 150.472656 C 49.542969 152.867188 54.59375 155.265625 59.730469 157.492188 C 64.265625 159.460938 68.890625 161.085938 73.597656 162.542969 C 80.101562 164.511719 86.609375 166.480469 93.199219 167.761719 C 100.050781 169.132812 106.984375 169.730469 113.917969 170.671875 C 115.03125 170.84375 116.230469 170.84375 117.511719 170.929688 C 117.339844 171.273438 117.253906 171.359375 117.085938 171.53125 C 111.949219 177.777344 106.726562 184.027344 101.503906 190.277344 C 98.59375 193.871094 95.683594 197.554688 92.773438 201.234375 C 90.289062 204.488281 87.722656 207.65625 85.496094 211.078125 C 80.359375 218.785156 75.308594 226.574219 70.257812 234.363281 C 67.949219 237.960938 65.894531 241.8125 63.839844 245.578125 C 60.671875 251.398438 57.503906 257.21875 54.59375 263.210938 C 51.425781 269.890625 48.429688 276.652344 45.691406 283.5 C 43.636719 288.722656 41.921875 294.117188 40.296875 299.421875 C 39.269531 302.589844 38.757812 305.929688 37.984375 309.183594 C 36.273438 316.375 35.417969 323.476562 37.898438 330.667969 C 39.183594 334.4375 40.894531 337.859375 44.917969 339.570312 C 48.257812 341.199219 52.195312 341.285156 55.621094 339.914062 C 56.390625 339.570312 57.246094 339.230469 58.101562 339.058594 C 60.929688 338.714844 63.410156 337.347656 65.808594 335.804688 C 69.660156 333.324219 73.167969 330.414062 76.335938 326.988281 C 77.878906 325.363281 80.019531 324.335938 81.300781 322.367188 C 82.328125 320.996094 83.441406 319.710938 84.640625 318.511719 C 85.753906 317.144531 86.953125 315.773438 88.066406 314.402344 C 88.835938 313.378906 89.519531 312.265625 90.460938 311.238281 C 91.0625 310.636719 91.402344 309.867188 91.402344 309.097656 C 93.371094 308.328125 93.542969 306.015625 95.167969 304.988281 L 94.65625 304.902344 L 94.65625 304.558594 L 95.855469 304.304688 L 95.511719 303.277344 C 97.308594 303.703125 97.910156 302.332031 98.59375 301.308594 C 99.449219 300.109375 100.21875 298.910156 101.078125 297.710938 C 103.644531 294.03125 106.210938 290.433594 108.695312 286.667969 C 111.179688 282.902344 113.316406 279.304688 115.542969 275.625 C 116.226562 274.511719 116.914062 273.398438 117.511719 272.371094 L 116.484375 271.515625 C 118.113281 271.429688 118.027344 271.429688 118.539062 270.316406 C 119.054688 269.203125 119.910156 267.921875 120.59375 266.722656 C 121.535156 265.097656 122.5625 263.46875 123.503906 261.84375 C 124.105469 260.816406 124.445312 259.703125 125.046875 258.675781 C 126.757812 255.59375 128.554688 252.597656 130.183594 249.515625 C 131.039062 248.058594 131.636719 246.519531 132.40625 244.980469 C 132.835938 244.207031 133.265625 243.351562 133.863281 242.324219 C 134.035156 242.667969 134.121094 243.09375 134.207031 243.4375 C 134.71875 246.863281 135.0625 250.285156 135.574219 253.625 C 136.429688 258.761719 137.203125 263.898438 138.230469 268.949219 C 140.027344 277.167969 141.652344 285.46875 143.878906 293.515625 C 146.960938 304.304688 150.386719 315.003906 153.894531 325.617188 C 156.035156 332.039062 158.773438 338.375 161.257812 344.707031 C 164.082031 351.8125 167.421875 358.492188 172.726562 364.140625 C 175.980469 367.566406 179.660156 369.960938 184.625 368.335938 C 186.765625 367.652344 189.164062 367.050781 189.933594 364.484375 C 190.105469 363.710938 190.703125 363.199219 191.476562 363.285156 C 193.101562 363.199219 194.042969 362.085938 194.984375 360.972656 C 197.554688 358.234375 198.835938 354.894531 200.035156 351.472656 C 200.378906 350.53125 200.804688 349.585938 201.320312 348.730469 C 201.578125 348.132812 202.261719 347.535156 202.175781 347.019531 C 201.832031 345.222656 203.460938 343.9375 203.203125 342.140625 C 203.03125 340.941406 203.632812 339.65625 203.972656 338.460938 C 205 334.605469 205.171875 330.667969 205.257812 326.816406 C 205.429688 322.109375 205.6875 317.398438 205.601562 312.777344 C 205.515625 306.957031 205.085938 301.136719 204.742188 295.3125 C 204.488281 291.632812 204.058594 288.039062 203.714844 284.355469 C 203.546875 282.816406 203.203125 281.273438 203.03125 279.734375 C 202.6875 276.652344 202.519531 273.570312 202.175781 270.488281 C 202.003906 268.691406 201.664062 266.894531 201.40625 265.097656 C 201.234375 263.726562 201.0625 262.355469 200.890625 261.074219 C 200.804688 260.644531 200.378906 260.300781 200.378906 259.875 C 200.292969 259.019531 200.550781 258.078125 200.378906 257.21875 C 199.691406 253.027344 198.835938 248.746094 198.066406 244.550781 C 197.808594 243.4375 197.382812 242.324219 197.039062 241.296875 C 197.382812 240.183594 197.039062 238.984375 196.269531 238.128906 C 197.039062 237.445312 196.78125 236.332031 195.667969 235.648438 C 195.753906 235.304688 195.925781 234.878906 196.183594 234.535156 C 196.355469 234.363281 196.867188 234.191406 196.953125 234.363281 C 197.640625 234.878906 198.238281 235.476562 198.921875 236.074219 C 200.890625 237.960938 202.773438 239.929688 204.828125 241.640625 C 212.191406 247.71875 219.46875 253.796875 227.085938 259.617188 C 239.070312 268.863281 251.570312 277.421875 264.496094 285.296875 C 271.601562 289.578125 278.964844 293.34375 287.011719 295.484375 C 291.71875 296.769531 296.683594 296 300.707031 293.34375 C 301.21875 293.003906 301.648438 292.488281 301.90625 291.976562 C 302.417969 290.691406 303.53125 289.835938 304.902344 289.578125 C 305.160156 289.492188 305.414062 289.40625 305.671875 289.152344 C 307.128906 287.183594 308.839844 285.296875 309.953125 283.160156 C 310.808594 281.617188 311.238281 279.90625 311.238281 278.109375 C 311.238281 277.851562 311.578125 277.59375 311.75 277.335938 C 312.007812 277.082031 312.261719 276.738281 312.433594 276.394531 C 312.777344 275.367188 312.949219 274.339844 313.207031 273.3125 C 313.460938 272.371094 313.632812 271.429688 313.804688 270.488281 C 313.804688 269.976562 313.632812 269.460938 313.289062 269.121094 C 312.433594 268.09375 312.605469 267.492188 313.804688 266.722656 C 314.148438 266.464844 314.402344 266.207031 314.488281 265.867188 C 315.515625 263.210938 314.832031 260.386719 314.917969 257.5625 C 314.832031 256.449219 314.488281 255.335938 313.976562 254.394531 C 310.378906 246.519531 306.785156 238.730469 303.019531 230.9375 C 300.277344 225.203125 296.683594 219.894531 293.171875 214.675781 C 288.464844 207.910156 283.328125 201.492188 277.765625 195.414062 C 273.914062 191.21875 269.71875 187.367188 265.523438 183.515625 C 261.070312 179.492188 256.277344 175.894531 251.140625 172.8125 C 250.714844 172.558594 250.285156 172.214844 249.515625 171.699219 L 250.96875 171.53125 C 256.792969 170.84375 262.613281 170.332031 268.347656 169.5625 C 274.683594 168.617188 280.933594 167.507812 287.179688 166.308594 C 291.632812 165.453125 296.085938 164.425781 300.535156 163.3125 C 304.132812 162.371094 307.8125 161.34375 311.40625 160.316406 C 315.003906 159.289062 318.425781 158.261719 321.851562 156.976562 C 325.789062 155.523438 329.726562 153.980469 333.664062 152.441406 C 337.175781 151.070312 340.597656 149.527344 344.109375 147.988281 C 344.964844 147.644531 345.734375 146.960938 346.589844 146.617188 C 347.191406 146.449219 347.789062 146.277344 348.390625 146.191406 C 348.558594 145.503906 349.417969 145.25 350.273438 144.992188 C 350.957031 144.734375 351.554688 144.394531 352.070312 143.964844 C 352.839844 143.28125 353.523438 142.425781 354.296875 141.738281 C 354.808594 141.3125 355.578125 141.226562 356.179688 140.882812 C 356.691406 140.457031 357.121094 140.027344 357.464844 139.429688 C 357.71875 139.085938 357.804688 138.65625 358.0625 138.316406 C 358.320312 137.972656 358.832031 137.800781 358.832031 137.628906 C 358.320312 136.003906 359.6875 136.945312 360.117188 136.601562 C 360.289062 136.433594 360.542969 136.089844 360.800781 136.089844 C 362.257812 136.175781 363.113281 135.234375 364.054688 134.378906 C 366.28125 132.410156 368.761719 130.78125 369.875 127.871094 C 370.304688 126.5 372.273438 126.074219 371.757812 124.191406 C 371.671875 124.277344 371.757812 124.191406 371.757812 124.191406 Z M 299.082031 51.855469 L 303.703125 35.589844 C 304.386719 41.410156 302.675781 47.230469 299.082031 51.855469 Z M 298.910156 34.390625 L 299.25 34.390625 C 300.109375 37.902344 297.625 40.382812 296.683594 43.292969 L 296.253906 43.207031 C 297.113281 40.210938 298.054688 37.300781 298.910156 34.390625 Z M 275.109375 33.792969 C 276.738281 39.527344 273.828125 43.894531 270.660156 48.171875 C 272.199219 43.378906 273.65625 38.585938 275.109375 33.792969 Z M 108.953125 53.566406 L 108.4375 53.566406 L 108.78125 46.03125 L 108.953125 46.03125 Z M 14.53125 106.984375 C 14.53125 106.46875 14.617188 105.871094 14.699219 105.355469 C 14.871094 104.84375 15.128906 104.328125 15.386719 103.902344 L 16.070312 104.246094 C 15.8125 103.816406 15.726562 103.558594 15.558594 103.300781 L 16.15625 102.875 C 17.441406 103.21875 16.753906 105.101562 14.53125 106.984375 Z M 99.277344 137.542969 C 96.28125 136.601562 93.371094 135.660156 90.375 134.71875 C 87.980469 133.949219 85.667969 133.265625 83.269531 132.410156 C 81.558594 131.722656 79.847656 130.867188 78.132812 130.183594 C 77.019531 129.667969 75.738281 129.328125 74.625 128.8125 C 73.855469 128.46875 73.167969 128.042969 72.398438 127.527344 C 71.027344 126.757812 69.746094 125.902344 68.375 125.132812 C 67.605469 124.703125 66.664062 124.617188 65.894531 124.277344 C 65.636719 124.191406 65.464844 123.847656 65.207031 123.503906 C 65.121094 123.503906 64.695312 123.761719 64.523438 123.589844 C 63.839844 123.25 62.980469 122.90625 62.8125 122.308594 C 62.554688 121.28125 61.871094 121.109375 61.097656 120.765625 C 60.84375 120.59375 60.585938 120.339844 60.328125 120.253906 C 59.984375 119.996094 59.558594 119.824219 59.128906 119.738281 C 58.703125 119.226562 58.273438 118.710938 57.847656 118.285156 C 57.246094 117.769531 56.5625 117.257812 55.960938 116.828125 C 55.535156 116.570312 55.105469 116.316406 54.679688 116.058594 C 54.164062 115.542969 53.738281 114.945312 53.222656 114.429688 C 52.539062 113.832031 51.683594 113.316406 50.910156 112.71875 C 50.742188 112.632812 50.484375 112.460938 50.398438 112.207031 C 48.941406 109.980469 47.574219 107.753906 46.203125 105.527344 C 46.117188 105.441406 46.117188 105.269531 46.117188 105.101562 C 48.085938 105.441406 49.882812 105.785156 51.769531 106.042969 C 52.023438 106.042969 52.625 106.128906 52.625 106.042969 C 53.308594 104.84375 53.738281 105.355469 54.164062 106.214844 C 54.335938 106.46875 54.507812 106.640625 54.765625 106.726562 C 58.101562 107.925781 61.527344 109.125 64.867188 110.40625 C 66.320312 110.921875 67.605469 112.035156 69.058594 112.375 C 71.199219 112.890625 72.828125 114.175781 74.625 115.289062 C 76.507812 116.484375 78.304688 117.769531 80.019531 119.140625 C 83.527344 122.222656 86.953125 125.472656 90.460938 128.640625 C 93.199219 131.125 95.941406 133.605469 98.59375 136.089844 C 98.9375 136.347656 99.191406 136.6875 99.449219 137.03125 Z M 114.34375 40.980469 C 114.175781 42.09375 113.832031 43.207031 113.402344 44.234375 C 111.863281 48.6875 111.691406 53.308594 111.691406 57.933594 L 111.691406 61.527344 C 109.636719 54.335938 109.894531 43.464844 112.035156 40.296875 L 111.691406 40.125 L 114.003906 37.984375 C 114.945312 38.84375 114.515625 40.039062 114.34375 40.980469 Z M 77.277344 287.695312 L 77.019531 287.523438 C 78.21875 284.699219 79.246094 281.789062 80.53125 278.964844 C 83.097656 273.398438 85.753906 267.835938 88.320312 262.183594 C 89.433594 259.789062 90.546875 257.390625 91.832031 255.078125 C 93.113281 252.769531 94.484375 250.542969 95.769531 248.230469 C 96.367188 247.203125 96.710938 246.007812 97.222656 244.894531 C 97.566406 244.292969 97.910156 243.78125 98.335938 243.265625 C 99.363281 241.898438 100.21875 240.527344 101.078125 239.070312 C 101.933594 237.617188 102.789062 236.246094 103.816406 234.878906 C 104.328125 233.9375 104.671875 232.992188 104.84375 231.964844 L 106.46875 231.453125 C 97.652344 250.886719 88.664062 269.890625 77.277344 287.695312 Z M 123.847656 59.558594 C 122.222656 57.074219 122.222656 47.488281 123.847656 45.261719 Z M 160.65625 108.523438 L 159.800781 103.046875 L 160.144531 102.960938 L 161 108.4375 Z M 162.96875 111.605469 L 158.515625 82.757812 L 158.859375 82.671875 C 161.941406 92.003906 162.457031 101.847656 163.3125 111.519531 Z M 171.1875 93.800781 C 169.988281 85.667969 168.875 77.792969 167.761719 69.832031 L 167.933594 69.832031 C 168.363281 71.285156 168.789062 72.742188 169.132812 74.195312 C 170.160156 79.332031 171.1875 84.46875 172.214844 89.691406 C 172.472656 91.148438 172.128906 92.6875 171.1875 93.800781 Z M 175.382812 85.496094 L 174.953125 85.496094 C 174.269531 81.214844 173.667969 76.9375 172.984375 72.65625 L 173.5 72.65625 C 174.269531 76.335938 175.125 80.019531 175.894531 83.699219 C 175.722656 84.296875 175.550781 84.898438 175.382812 85.496094 Z M 261.070312 229.226562 L 255.765625 223.234375 L 256.191406 222.894531 L 261.5 228.886719 Z M 291.804688 219.296875 L 273.3125 197.726562 C 276.910156 198.496094 291.632812 215.789062 291.804688 219.296875 Z M 282.644531 216.042969 L 282.386719 216.214844 L 268.605469 199.4375 C 274.855469 203.71875 278.707031 209.878906 282.644531 216.042969 Z M 272.972656 221.179688 L 272.714844 221.351562 C 270.144531 218.355469 267.664062 215.359375 265.09375 212.363281 C 268.691406 214.589844 270.832031 217.84375 272.972656 221.179688 Z M 274.253906 241.382812 C 272.886719 240.699219 260.558594 226.488281 254.566406 218.613281 C 259.875 221.179688 273.398438 236.847656 274.253906 241.382812 Z M 227.941406 94.828125 C 224.519531 99.109375 221.007812 103.386719 217.414062 107.582031 C 215.703125 109.636719 213.734375 111.605469 211.933594 113.660156 C 209.625 116.144531 207.3125 118.625 204.914062 121.109375 C 203.289062 122.734375 201.492188 124.363281 199.691406 125.816406 C 208.765625 98.679688 222.636719 74.453125 242.496094 53.566406 L 241.8125 53.136719 C 241.980469 53.050781 242.066406 52.882812 242.152344 52.882812 C 243.351562 52.796875 244.121094 52.023438 244.808594 51.253906 C 250.628906 45.605469 257.046875 40.640625 263.984375 36.445312 C 264.238281 36.273438 264.496094 36.1875 264.753906 36.015625 C 264.925781 36.015625 265.09375 35.929688 265.265625 35.929688 C 264.582031 37.730469 264.066406 39.441406 263.382812 41.152344 C 259.875 49.027344 255.679688 56.648438 250.714844 63.667969 C 246.347656 70.171875 241.8125 76.507812 237.273438 82.84375 C 234.277344 86.953125 231.109375 90.890625 227.941406 94.828125 Z M 326.644531 131.210938 C 319.113281 134.460938 311.40625 137.117188 303.445312 139.085938 C 296.597656 140.710938 289.75 141.996094 282.902344 143.195312 C 274 144.734375 265.09375 145.675781 256.105469 146.019531 C 252.769531 146.191406 249.515625 146.191406 246.175781 146.191406 C 245.664062 146.105469 245.234375 145.933594 244.722656 145.761719 C 246.863281 144.992188 248.574219 144.222656 250.371094 143.621094 C 251.996094 143.023438 253.710938 142.59375 255.335938 142.082031 C 256.964844 141.566406 258.589844 141.054688 260.300781 140.539062 C 261.15625 140.285156 262.183594 140.453125 262.871094 140.027344 C 263.554688 139.597656 264.324219 139.769531 265.007812 139.511719 C 266.292969 138.914062 267.578125 138.316406 268.949219 137.886719 C 270.488281 137.375 271.945312 136.945312 273.484375 136.515625 C 275.625 136.003906 277.851562 135.488281 279.992188 134.976562 C 282.386719 134.378906 284.785156 133.691406 287.265625 133.179688 C 290.777344 132.410156 294.285156 131.722656 297.882812 131.210938 C 303.960938 130.269531 310.125 129.328125 316.285156 128.640625 C 319.882812 128.214844 323.476562 128.128906 327.074219 128.128906 C 328.273438 128.214844 329.46875 128.386719 330.582031 128.640625 L 330.667969 129.242188 C 329.382812 129.839844 328.015625 130.609375 326.644531 131.210938 Z M 367.222656 115.03125 C 367.050781 114.003906 366.878906 112.976562 366.707031 111.777344 C 367.5625 112.121094 367.5625 112.292969 367.992188 114.859375 C 368.164062 114.429688 368.25 114.089844 368.421875 114.003906 C 368.675781 113.917969 369.019531 113.832031 369.277344 113.832031 L 369.535156 114.175781 C 368.933594 114.601562 368.421875 115.117188 367.820312 115.542969 C 367.5625 115.542969 367.308594 115.289062 367.222656 115.03125 Z M 370.476562 123.761719 C 370.304688 124.277344 370.046875 124.703125 369.703125 125.472656 L 369.105469 122.136719 C 369.703125 121.878906 370.304688 122.222656 370.5625 122.820312 C 370.644531 123.164062 370.644531 123.503906 370.476562 123.761719 Z M 370.476562 123.761719 "/></g></g></svg>