<svg xmlns="http://www.w3.org/2000/svg" xmlns:xlink="http://www.w3.org/1999/xlink" width="500" zoomAndPan="magnify" viewBox="0 0 375 374.999991" height="500" preserveAspectRatio="xMidYMid meet" version="1.2"><defs><clipPath id="1dc66bc42c"><path d="M 2 100 L 373.410156 100 L 373.410156 275 L 2 275 Z M 2 100 "/></clipPath></defs><g id="120cd31fd0"><g clip-rule="nonzero" clip-path="url(#1dc66bc42c)"><path style=" stroke:none;fill-rule:nonzero;fill:#dde225;fill-opacity:1;" d="M 101.578125 167.398438 C 100.785156 168.113281 100.070312 168.828125 99.277344 169.542969 C 68.296875 199.808594 40.574219 233.328125 16.664062 269.472656 C 13.882812 273.761719 9.988281 275.03125 5.144531 273.523438 C 2.046875 272.570312 1.410156 271.457031 3.078125 268.679688 C 6.972656 262.003906 10.785156 255.253906 15.152344 248.820312 C 33.582031 221.730469 54.792969 196.945312 77.828125 173.75 C 83.628906 167.875 89.503906 162.152344 95.464844 156.515625 C 97.6875 154.449219 99.992188 152.542969 102.453125 150.875 C 106.742188 147.933594 111.507812 147.21875 116.59375 148.332031 C 121.675781 149.445312 123.582031 151.746094 122.867188 156.992188 C 122.3125 161.199219 121.4375 165.410156 120.328125 169.460938 C 116.753906 182.332031 113.019531 195.121094 109.363281 207.988281 C 109.046875 209.019531 108.886719 210.132812 108.96875 211.246094 C 109.683594 210.53125 110.398438 209.734375 111.03125 209.019531 C 122.867188 195.675781 134.785156 182.410156 147.730469 170.097656 C 156.789062 161.359375 166.320312 153.097656 176.328125 145.394531 C 179.1875 143.25 182.207031 141.261719 185.304688 139.433594 C 189.753906 136.894531 194.996094 136.179688 199.921875 137.289062 C 204.847656 138.242188 206.914062 140.785156 206.992188 145.710938 C 207.070312 150.636719 206.039062 155.5625 204.765625 160.328125 C 203.019531 167.160156 200.953125 173.988281 199.128906 180.742188 C 198.808594 181.695312 198.652344 182.726562 198.730469 183.761719 C 199.367188 183.046875 200 182.332031 200.714844 181.617188 C 211.835938 168.90625 222.800781 156.117188 234.160156 143.644531 C 240.511719 136.65625 247.425781 130.0625 254.175781 123.390625 C 255.925781 121.722656 257.832031 120.210938 259.816406 118.78125 C 264.34375 115.605469 269.347656 115.128906 274.511719 116.476562 C 278.484375 117.511719 279.992188 119.65625 279.515625 123.785156 C 279.277344 126.011719 278.800781 128.15625 278.085938 130.300781 C 276.5 134.988281 274.75 139.59375 273.082031 144.203125 C 272.683594 145.074219 272.527344 146.027344 272.527344 147.0625 C 273.320312 146.265625 274.113281 145.394531 274.910156 144.519531 C 284.679688 134.113281 294.371094 123.707031 304.140625 113.378906 C 307.238281 110.203125 310.496094 107.183594 313.914062 104.402344 C 318.597656 100.511719 324.082031 99.875 329.800781 101.304688 C 334.089844 102.339844 335.917969 104.800781 336.074219 109.171875 C 336.074219 112.824219 335.519531 116.558594 334.488281 120.050781 C 331.308594 131.730469 327.019531 143.089844 322.808594 154.371094 C 321.617188 157.46875 320.507812 160.644531 319.632812 163.902344 C 320.269531 163.34375 320.824219 162.949219 321.460938 162.390625 C 329.402344 154.609375 337.347656 146.742188 345.289062 138.957031 C 347.433594 136.8125 349.738281 134.828125 352.121094 132.921875 C 357.207031 129.109375 362.925781 129.027344 368.722656 131.015625 C 371.582031 131.890625 373.410156 134.511719 373.25 137.449219 C 373.332031 140.070312 373.011719 142.691406 372.296875 145.15625 C 370.234375 151.507812 368.007812 157.785156 365.386719 163.902344 C 359.351562 178.042969 351.804688 191.625 342.90625 204.175781 C 341.316406 206.480469 339.570312 208.703125 337.664062 210.769531 C 334.011719 214.742188 326.542969 215.933594 321.777344 213.46875 C 319.550781 212.359375 319.15625 211.246094 320.347656 209.019531 C 322.570312 204.96875 324.875 200.917969 327.097656 196.867188 C 334.40625 183.761719 341 170.257812 346.71875 156.355469 C 347.117188 155.5625 347.277344 154.6875 347.195312 153.734375 C 346.480469 154.449219 345.765625 155.164062 345.050781 155.957031 C 338.457031 163.425781 331.945312 170.972656 325.191406 178.359375 C 321.777344 182.171875 318.121094 185.824219 314.390625 189.320312 C 308.511719 194.644531 301.519531 195.039062 294.210938 193.371094 C 293.257812 193.132812 292.386719 192.738281 291.511719 192.261719 C 289.367188 191.148438 288.097656 189.320312 288.335938 186.859375 C 288.414062 184.792969 288.730469 182.808594 289.289062 180.902344 C 291.433594 174.703125 293.65625 168.507812 296.199219 162.390625 C 301.28125 150.160156 306.683594 138.003906 311.925781 125.851562 C 312.484375 124.5 312.960938 123.152344 313.4375 121.878906 L 312.960938 121.484375 C 312.246094 122.277344 311.449219 122.992188 310.734375 123.785156 C 299.21875 136.417969 288.574219 149.683594 278.007812 163.105469 C 272.605469 169.9375 267.125 176.769531 261.644531 183.523438 C 260.054688 185.507812 258.308594 187.253906 256.480469 189.082031 C 250.761719 194.722656 242.183594 196.390625 234.714844 193.214844 C 231.378906 191.785156 230.347656 189.957031 231.378906 186.539062 C 232.253906 183.679688 233.363281 180.820312 234.714844 178.121094 C 238.605469 170.414062 242.738281 162.867188 246.710938 155.242188 C 248.617188 151.667969 250.523438 148.09375 252.429688 144.441406 C 252.90625 143.644531 253.144531 142.691406 253.066406 141.738281 C 252.351562 142.53125 251.554688 143.25 250.839844 144.042969 C 239.320312 156.910156 228.597656 170.414062 218.035156 184 C 212.789062 190.75 207.308594 197.265625 201.75 203.699219 C 199.605469 206.242188 197.222656 208.542969 194.679688 210.609375 C 188.878906 215.296875 182.285156 215.535156 175.457031 213.3125 C 172.039062 212.199219 170.925781 210.132812 171.5625 206.480469 C 172.117188 203.144531 172.992188 199.886719 174.027344 196.628906 C 177.441406 186.539062 181.09375 176.53125 184.511719 166.445312 C 186.019531 161.914062 187.210938 157.386719 188.484375 152.78125 C 188.722656 151.984375 188.640625 151.191406 188.402344 150.476562 C 187.210938 151.507812 185.941406 152.460938 184.75 153.574219 C 170.292969 166.207031 156.789062 179.867188 144.15625 194.324219 C 136.292969 203.382812 128.667969 212.675781 120.722656 221.730469 C 117.230469 225.78125 113.414062 229.515625 109.601562 233.167969 C 104.359375 238.175781 98.003906 239.128906 91.171875 237.539062 C 86.726562 236.507812 85.136719 234.519531 85.136719 229.992188 C 85.136719 223.71875 86.566406 217.679688 88.3125 211.722656 C 92.445312 197.898438 96.8125 184.15625 101.101562 170.414062 C 101.421875 169.382812 101.660156 168.429688 101.976562 167.398438 Z M 101.578125 167.398438 "/></g></g></svg>