<svg xmlns="http://www.w3.org/2000/svg" xmlns:xlink="http://www.w3.org/1999/xlink" width="500" zoomAndPan="magnify" viewBox="0 0 375 374.999991" height="500" preserveAspectRatio="xMidYMid meet" version="1.0"><defs><clipPath id="025bb585bc"><path d="M 112.5 152.183594 L 262.5 152.183594 L 262.5 222.683594 L 112.5 222.683594 Z M 112.5 152.183594 " clip-rule="nonzero"/></clipPath></defs><g clip-path="url(#025bb585bc)"><path fill="#dde225" d="M 152.890625 179.410156 C 152.570312 179.695312 152.28125 179.984375 151.960938 180.273438 C 139.46875 192.476562 128.292969 205.992188 118.648438 220.566406 C 117.527344 222.296875 115.960938 222.808594 114.003906 222.203125 C 112.757812 221.816406 112.5 221.367188 113.171875 220.246094 C 114.742188 217.558594 116.28125 214.835938 118.042969 212.238281 C 125.472656 201.316406 134.023438 191.324219 143.3125 181.972656 C 145.652344 179.601562 148.023438 177.292969 150.425781 175.019531 C 151.320312 174.1875 152.25 173.417969 153.242188 172.746094 C 154.972656 171.5625 156.894531 171.273438 158.945312 171.722656 C 160.996094 172.167969 161.761719 173.097656 161.476562 175.210938 C 161.25 176.910156 160.898438 178.609375 160.449219 180.242188 C 159.007812 185.429688 157.503906 190.585938 156.03125 195.777344 C 155.902344 196.191406 155.835938 196.640625 155.871094 197.089844 C 156.15625 196.800781 156.445312 196.480469 156.703125 196.191406 C 161.476562 190.8125 166.28125 185.460938 171.5 180.496094 C 175.152344 176.972656 178.996094 173.644531 183.03125 170.535156 C 184.183594 169.671875 185.402344 168.871094 186.652344 168.132812 C 188.445312 167.109375 190.558594 166.820312 192.542969 167.269531 C 194.53125 167.652344 195.363281 168.679688 195.394531 170.664062 C 195.425781 172.648438 195.011719 174.636719 194.5 176.558594 C 193.792969 179.3125 192.960938 182.066406 192.222656 184.789062 C 192.097656 185.175781 192.03125 185.589844 192.0625 186.007812 C 192.320312 185.71875 192.578125 185.429688 192.863281 185.140625 C 197.347656 180.015625 201.769531 174.859375 206.351562 169.832031 C 208.914062 167.011719 211.699219 164.355469 214.421875 161.664062 C 215.125 160.992188 215.894531 160.382812 216.695312 159.804688 C 218.523438 158.523438 220.539062 158.332031 222.621094 158.875 C 224.222656 159.292969 224.832031 160.15625 224.640625 161.824219 C 224.542969 162.71875 224.351562 163.585938 224.0625 164.449219 C 223.421875 166.339844 222.71875 168.199219 222.046875 170.054688 C 221.886719 170.40625 221.820312 170.792969 221.820312 171.207031 C 222.140625 170.886719 222.460938 170.535156 222.78125 170.183594 C 226.722656 165.988281 230.628906 161.792969 234.570312 157.628906 C 235.820312 156.347656 237.132812 155.128906 238.507812 154.007812 C 240.398438 152.4375 242.609375 152.183594 244.914062 152.757812 C 246.644531 153.175781 247.382812 154.167969 247.445312 155.929688 C 247.445312 157.402344 247.222656 158.910156 246.804688 160.316406 C 245.523438 165.027344 243.792969 169.605469 242.097656 174.15625 C 241.617188 175.40625 241.167969 176.6875 240.816406 178 C 241.070312 177.773438 241.296875 177.613281 241.550781 177.390625 C 244.753906 174.25 247.957031 171.082031 251.160156 167.941406 C 252.027344 167.078125 252.953125 166.277344 253.914062 165.507812 C 255.964844 163.96875 258.273438 163.9375 260.609375 164.738281 C 261.761719 165.089844 262.5 166.148438 262.4375 167.332031 C 262.46875 168.390625 262.339844 169.445312 262.050781 170.441406 C 261.21875 173.003906 260.320312 175.53125 259.265625 178 C 256.832031 183.699219 253.789062 189.179688 250.199219 194.238281 C 249.558594 195.167969 248.855469 196.066406 248.085938 196.898438 C 246.613281 198.5 243.601562 198.980469 241.679688 197.988281 C 240.78125 197.539062 240.621094 197.089844 241.101562 196.191406 C 242 194.558594 242.929688 192.925781 243.824219 191.292969 C 246.773438 186.007812 249.429688 180.5625 251.738281 174.957031 C 251.898438 174.636719 251.960938 174.285156 251.929688 173.898438 C 251.640625 174.1875 251.351562 174.476562 251.066406 174.796875 C 248.40625 177.808594 245.78125 180.851562 243.058594 183.828125 C 241.679688 185.367188 240.207031 186.839844 238.699219 188.25 C 236.332031 190.394531 233.511719 190.554688 230.566406 189.882812 C 230.179688 189.785156 229.828125 189.625 229.476562 189.433594 C 228.613281 188.984375 228.097656 188.25 228.195312 187.257812 C 228.226562 186.421875 228.355469 185.621094 228.578125 184.855469 C 229.445312 182.355469 230.339844 179.855469 231.367188 177.390625 C 233.417969 172.457031 235.59375 167.558594 237.707031 162.65625 C 237.933594 162.113281 238.125 161.566406 238.316406 161.054688 L 238.125 160.894531 C 237.835938 161.214844 237.515625 161.503906 237.226562 161.824219 C 232.582031 166.917969 228.292969 172.265625 224.03125 177.679688 C 221.851562 180.433594 219.644531 183.1875 217.433594 185.910156 C 216.792969 186.710938 216.085938 187.417969 215.351562 188.152344 C 213.042969 190.425781 209.585938 191.101562 206.574219 189.820312 C 205.230469 189.242188 204.8125 188.503906 205.230469 187.128906 C 205.582031 185.976562 206.03125 184.820312 206.574219 183.734375 C 208.144531 180.625 209.808594 177.582031 211.410156 174.507812 C 212.179688 173.066406 212.949219 171.625 213.71875 170.152344 C 213.910156 169.832031 214.003906 169.445312 213.972656 169.0625 C 213.683594 169.382812 213.363281 169.671875 213.078125 169.992188 C 208.433594 175.179688 204.109375 180.625 199.847656 186.101562 C 197.734375 188.824219 195.523438 191.453125 193.28125 194.046875 C 192.417969 195.070312 191.457031 196 190.429688 196.832031 C 188.09375 198.722656 185.433594 198.820312 182.679688 197.921875 C 181.300781 197.472656 180.855469 196.640625 181.109375 195.167969 C 181.335938 193.824219 181.6875 192.507812 182.101562 191.195312 C 183.480469 187.128906 184.953125 183.09375 186.332031 179.023438 C 186.941406 177.199219 187.421875 175.371094 187.933594 173.515625 C 188.027344 173.195312 187.996094 172.875 187.902344 172.585938 C 187.421875 173.003906 186.90625 173.386719 186.425781 173.835938 C 180.597656 178.929688 175.152344 184.4375 170.058594 190.265625 C 166.886719 193.917969 163.8125 197.667969 160.609375 201.316406 C 159.199219 202.953125 157.664062 204.457031 156.125 205.929688 C 154.011719 207.949219 151.449219 208.332031 148.695312 207.691406 C 146.902344 207.273438 146.261719 206.472656 146.261719 204.648438 C 146.261719 202.117188 146.835938 199.683594 147.542969 197.28125 C 149.207031 191.707031 150.96875 186.167969 152.699219 180.625 C 152.828125 180.210938 152.921875 179.824219 153.050781 179.410156 Z M 152.890625 179.410156 " fill-opacity="1" fill-rule="nonzero"/></g></svg>