<svg xmlns="http://www.w3.org/2000/svg" xmlns:xlink="http://www.w3.org/1999/xlink" width="500" zoomAndPan="magnify" viewBox="0 0 375 374.999991" height="500" preserveAspectRatio="xMidYMid meet" version="1.0"><defs><clipPath id="a45d242cae"><path d="M 116.316406 113 L 258.816406 113 L 258.816406 262 L 116.316406 262 Z M 116.316406 113 " clip-rule="nonzero"/></clipPath></defs><path fill="#4b11ed" d="M 229.28125 189.167969 L 229.101562 189.015625 L 228.882812 188.84375 L 228.863281 188.828125 L 228.734375 188.734375 C 229.3125 189.21875 229.386719 189.261719 229.28125 189.167969 Z M 229.28125 189.167969 " fill-opacity="1" fill-rule="nonzero"/><g clip-path="url(#a45d242cae)"><path fill="#4b11ed" d="M 258.488281 212.949219 C 257.582031 201.226562 252.035156 190.09375 243.535156 182 C 238.015625 176.789062 231.679688 172.910156 224.523438 170.367188 C 227.230469 167.847656 229.589844 165.035156 231.609375 161.9375 C 233.628906 158.839844 235.246094 155.546875 236.460938 152.054688 C 238.230469 146.964844 239.011719 141.730469 238.808594 136.351562 C 238.667969 132.546875 235.40625 128.269531 231.160156 128.707031 C 225.238281 129.273438 219.617188 130.878906 214.289062 133.519531 C 209.472656 135.90625 205.074219 139.25 201.144531 142.886719 C 197.285156 146.503906 193.929688 150.539062 191.070312 154.984375 C 190.183594 151.964844 189.1875 148.988281 188.09375 146.054688 C 184.367188 136.089844 179.972656 125.910156 173.773438 117.210938 C 171.683594 114.277344 167.65625 112.589844 164.324219 114.734375 C 160.902344 116.933594 160.253906 120.640625 161.847656 124.171875 C 162.902344 126.523438 163.96875 128.859375 165.0625 131.191406 C 165.539062 132.210938 166.007812 133.230469 166.460938 134.257812 C 166.699219 134.800781 166.882812 135.496094 167.207031 135.996094 L 167.382812 136.414062 C 169.191406 140.847656 170.789062 145.355469 172.179688 149.941406 C 172.519531 151.0625 172.847656 152.1875 173.167969 153.320312 C 171.550781 152.648438 169.921875 152.003906 168.28125 151.390625 C 157.171875 147.277344 145.707031 144.835938 133.886719 144.0625 C 130.824219 143.851562 127.417969 143.449219 124.464844 144.457031 C 119.53125 146.140625 116.328125 150.492188 116.382812 155.734375 C 116.449219 162.351562 121.453125 167.363281 126.003906 171.535156 C 134.324219 179.160156 143.8125 184.945312 154.207031 189.265625 C 156.492188 190.214844 158.808594 191.050781 161.167969 191.78125 C 159.410156 193.648438 157.71875 195.566406 156.085938 197.535156 C 153.003906 201.242188 149.941406 205.089844 147.699219 209.367188 C 144.960938 214.605469 143.019531 220.675781 143.777344 226.65625 C 144.125 229.382812 144.832031 231.46875 147.070312 233.203125 C 149.007812 234.699219 151.917969 235.621094 154.347656 234.695312 C 162.878906 231.453125 170.605469 227.171875 177.71875 221.511719 C 177.023438 225.886719 176.191406 230.238281 175.140625 234.542969 C 174.417969 237.5 173.597656 240.425781 172.71875 243.332031 C 172.285156 244.773438 171.875 246.265625 171.546875 247.738281 C 171.082031 249.816406 171.089844 252.035156 170.921875 254.160156 C 170.660156 257.375 173.488281 260.890625 176.589844 261.597656 C 180.199219 262.417969 183.167969 260.929688 185.304688 258.054688 C 185.964844 257.164062 186.632812 256.277344 187.261719 255.367188 C 188.277344 253.894531 188.84375 252.105469 189.5 250.445312 C 190.304688 248.355469 191 246.230469 191.582031 244.066406 C 192.824219 239.683594 193.867188 235.246094 194.714844 230.757812 C 196.476562 221.394531 197.394531 211.945312 197.46875 202.417969 C 199.816406 204.183594 202.261719 205.835938 204.730469 207.351562 C 213.359375 212.703125 222.605469 216.585938 232.464844 219.003906 C 238.21875 220.394531 244.25 221.0625 250.15625 221.273438 C 254.410156 221.421875 258.824219 217.328125 258.488281 212.949219 Z M 208.128906 151.324219 C 208.351562 151.15625 208.570312 150.992188 208.792969 150.832031 C 209.320312 150.453125 209.847656 150.082031 210.375 149.734375 C 211.316406 149.121094 212.304688 148.570312 213.296875 148.042969 C 214.242188 147.542969 215.316406 146.859375 216.351562 146.5625 C 214.800781 147.003906 216.773438 146.398438 217.082031 146.285156 C 217.609375 146.085938 218.136719 145.898438 218.660156 145.722656 C 219.796875 145.34375 220.949219 145.015625 222.117188 144.730469 L 222.617188 144.601562 C 222.519531 144.988281 222.414062 145.371094 222.300781 145.75 C 221.980469 146.839844 221.324219 148.007812 221.105469 149.117188 C 221.042969 149.253906 220.976562 149.382812 220.914062 149.527344 C 220.644531 150.082031 220.363281 150.632812 220.070312 151.175781 C 219.476562 152.257812 218.832031 153.3125 218.136719 154.332031 C 217.84375 154.757812 217.449219 155.183594 217.167969 155.628906 C 217.046875 155.773438 216.925781 155.917969 216.804688 156.0625 C 216.042969 156.9375 215.242188 157.773438 214.398438 158.570312 C 214.003906 158.941406 213.601562 159.304688 213.191406 159.65625 L 212.839844 159.953125 C 211.824219 160.4375 210.855469 161.375 209.890625 161.957031 C 208.828125 162.59375 207.738281 163.179688 206.617188 163.707031 L 206.121094 163.933594 C 205.625 164.121094 205.128906 164.3125 204.628906 164.484375 C 203.457031 164.882812 202.269531 165.222656 201.058594 165.507812 C 200.457031 165.648438 199.851562 165.777344 199.242188 165.886719 L 198.878906 165.949219 C 197.484375 165.921875 195.964844 166.210938 194.574219 166.472656 C 198.285156 160.703125 202.800781 155.652344 208.128906 151.324219 Z M 143.105469 163.097656 C 142.558594 162.710938 142.015625 162.308594 141.476562 161.910156 L 140.976562 161.511719 C 141.617188 161.582031 142.257812 161.65625 142.902344 161.738281 C 150.796875 162.839844 158.519531 164.675781 166.070312 167.242188 C 168.03125 167.921875 169.976562 168.652344 171.898438 169.4375 L 172.496094 169.679688 C 173.253906 170 174.007812 170.328125 174.773438 170.632812 C 175.25 170.824219 175.734375 171.011719 176.210938 171.203125 C 176.375 171.269531 176.707031 171.394531 176.945312 171.484375 L 177.421875 171.6875 C 177.714844 173.335938 177.976562 174.984375 178.210938 176.636719 L 177.636719 177.058594 C 171.011719 175.980469 164.585938 174.191406 158.359375 171.6875 C 152.976562 169.351562 147.894531 166.488281 143.105469 163.101562 Z M 168.128906 206.410156 C 168.457031 205.964844 168.789062 205.523438 169.125 205.078125 L 169.347656 204.789062 L 169.480469 204.617188 C 169.792969 204.230469 170.101562 203.828125 170.414062 203.449219 C 171.199219 202.476562 171.996094 201.519531 172.808594 200.570312 C 174.394531 198.714844 176.039062 196.90625 177.738281 195.136719 L 178.453125 195.214844 C 178.191406 195.585938 177.921875 195.957031 177.652344 196.324219 C 174.761719 199.957031 171.585938 203.320312 168.128906 206.414062 Z M 224.949219 198.394531 C 218.933594 195.78125 213.269531 192.546875 207.960938 188.691406 C 207.375 188.261719 205.15625 186.363281 207.339844 188.25 C 206.710938 187.703125 206.023438 187.199219 205.375 186.671875 C 204.058594 185.621094 202.742188 184.566406 201.464844 183.472656 C 201.09375 183.152344 200.730469 182.828125 200.371094 182.5 C 200.300781 182.394531 200.21875 182.289062 200.144531 182.1875 C 200.050781 182.023438 199.949219 181.863281 199.84375 181.703125 C 201.742188 181.472656 203.621094 181.121094 205.476562 180.652344 C 206.3125 180.441406 207.148438 180.203125 207.984375 179.9375 C 211.855469 180.804688 215.640625 181.957031 219.339844 183.394531 C 219.515625 183.464844 220.289062 183.816406 219.398438 183.40625 L 219.25 183.339844 L 219.675781 183.53125 C 220.203125 183.761719 220.722656 184.003906 221.234375 184.253906 C 222.414062 184.820312 223.570312 185.433594 224.703125 186.09375 C 225.632812 186.632812 226.539062 187.203125 227.429688 187.800781 C 227.871094 188.097656 228.300781 188.410156 228.726562 188.71875 L 228.414062 188.453125 C 228.5625 188.582031 228.71875 188.703125 228.875 188.824219 C 229.03125 188.949219 229.195312 189.089844 229.273438 189.148438 C 230.960938 190.535156 232.542969 192.035156 234.011719 193.652344 C 234.363281 194.027344 234.699219 194.410156 235.023438 194.800781 C 235.171875 194.976562 235.671875 195.609375 235.777344 195.734375 L 235.988281 196.019531 C 236.367188 196.546875 236.734375 197.085938 237.09375 197.636719 C 237.761719 198.664062 238.382812 199.722656 238.960938 200.808594 C 239.230469 201.320312 239.488281 201.835938 239.734375 202.355469 C 239.8125 202.523438 239.890625 202.691406 239.964844 202.863281 L 240.03125 203.039062 C 234.878906 201.902344 229.851562 200.355469 224.957031 198.394531 Z M 224.949219 198.394531 " fill-opacity="1" fill-rule="nonzero"/></g></svg>