<svg xmlns="http://www.w3.org/2000/svg" xmlns:xlink="http://www.w3.org/1999/xlink" width="500" zoomAndPan="magnify" viewBox="0 0 375 374.999991" height="500" preserveAspectRatio="xMidYMid meet" version="1.2"><defs><clipPath id="f81d37800f"><path d="M 9.539062 3 L 365.789062 3 L 365.789062 374 L 9.539062 374 Z M 9.539062 3 "/></clipPath></defs><g id="96e4c41c59"><path style=" stroke:none;fill-rule:nonzero;fill:#4b11ed;fill-opacity:1;" d="M 291.953125 191.667969 L 291.503906 191.292969 L 290.960938 190.859375 L 290.90625 190.820312 L 290.585938 190.589844 C 292.03125 191.792969 292.214844 191.90625 291.953125 191.667969 Z M 291.953125 191.667969 "/><g clip-rule="nonzero" clip-path="url(#f81d37800f)"><path style=" stroke:none;fill-rule:nonzero;fill:#4b11ed;fill-opacity:1;" d="M 364.964844 251.128906 C 362.710938 221.820312 348.835938 193.984375 327.589844 173.746094 C 320.765625 167.300781 313.347656 161.632812 305.339844 156.734375 C 297.335938 151.835938 288.90625 147.8125 280.058594 144.667969 C 286.824219 138.363281 292.726562 131.335938 297.773438 123.59375 C 302.820312 115.847656 306.863281 107.609375 309.902344 98.878906 C 312.09375 92.578125 313.683594 86.125 314.667969 79.523438 C 315.65625 72.925781 316.023438 66.289062 315.769531 59.621094 C 315.414062 50.113281 307.261719 39.414062 296.644531 40.511719 C 289.308594 41.21875 282.09375 42.582031 275.007812 44.601562 C 267.921875 46.625 261.074219 49.273438 254.472656 52.546875 C 242.433594 58.515625 231.4375 66.875 221.609375 75.964844 C 211.964844 85.007812 203.570312 95.089844 196.425781 106.210938 C 194.203125 98.664062 191.722656 91.222656 188.980469 83.882812 C 179.667969 58.96875 168.683594 33.519531 153.183594 11.765625 C 147.960938 4.4375 137.890625 0.222656 129.5625 5.582031 C 121.007812 11.078125 119.382812 20.347656 123.371094 29.179688 C 126.003906 35.050781 128.675781 40.894531 131.40625 46.726562 C 132.601562 49.269531 133.765625 51.824219 134.902344 54.394531 C 135.5 55.75 135.960938 57.492188 136.769531 58.734375 L 137.203125 59.785156 C 141.730469 70.863281 145.726562 82.132812 149.195312 93.601562 C 150.046875 96.40625 150.871094 99.21875 151.671875 102.042969 C 147.628906 100.363281 143.558594 98.757812 139.457031 97.222656 C 125.640625 92.109375 111.53125 88.015625 97.125 84.949219 C 82.71875 81.878906 68.164062 79.859375 53.464844 78.898438 C 45.808594 78.375 37.300781 77.375 29.910156 79.890625 C 17.582031 84.09375 9.574219 94.976562 9.703125 108.078125 C 9.875 124.621094 22.386719 137.15625 33.757812 147.582031 C 54.5625 166.648438 78.28125 181.117188 104.273438 191.910156 C 109.976562 194.285156 115.773438 196.378906 121.667969 198.203125 C 117.277344 202.871094 113.042969 207.664062 108.964844 212.585938 C 101.265625 221.855469 93.601562 231.472656 87.996094 242.171875 C 81.152344 255.261719 76.292969 270.445312 78.195312 285.390625 C 79.066406 292.214844 80.828125 297.421875 86.421875 301.761719 C 91.265625 305.503906 98.546875 307.804688 104.621094 305.496094 C 125.949219 297.382812 145.265625 286.683594 163.050781 272.527344 C 161.304688 283.46875 159.226562 294.34375 156.601562 305.117188 C 154.796875 312.503906 152.742188 319.816406 150.546875 327.089844 C 149.460938 330.691406 148.4375 334.421875 147.617188 338.097656 C 146.457031 343.296875 146.476562 348.847656 146.058594 354.160156 C 145.398438 362.195312 152.472656 370.984375 160.21875 372.746094 C 169.242188 374.796875 176.671875 371.078125 182.011719 363.890625 C 183.664062 361.667969 185.335938 359.453125 186.90625 357.171875 C 189.441406 353.496094 190.855469 349.015625 192.496094 344.867188 C 194.515625 339.644531 196.25 334.328125 197.699219 328.917969 C 200.808594 317.957031 203.417969 306.867188 205.53125 295.648438 C 209.941406 272.234375 212.238281 248.617188 212.421875 224.792969 C 218.292969 229.207031 224.402344 233.339844 230.574219 237.136719 C 241.292969 243.78125 252.464844 249.546875 264.09375 254.433594 C 275.722656 259.316406 287.664062 263.261719 299.917969 266.261719 C 314.296875 269.742188 329.375 271.410156 344.136719 271.9375 C 354.773438 272.3125 365.808594 262.074219 364.964844 251.128906 Z M 239.070312 97.054688 C 239.625 96.640625 240.179688 96.230469 240.738281 95.824219 C 242.054688 94.882812 243.371094 93.957031 244.683594 93.082031 C 247.042969 91.550781 249.507812 90.167969 251.992188 88.855469 C 254.355469 87.605469 257.039062 85.894531 259.632812 85.152344 C 255.75 86.257812 260.683594 84.746094 261.453125 84.453125 C 262.769531 83.964844 264.085938 83.496094 265.402344 83.054688 C 268.246094 82.109375 271.125 81.28125 274.039062 80.574219 L 275.296875 80.253906 C 275.046875 81.214844 274.78125 82.171875 274.503906 83.121094 C 273.703125 85.84375 272.058594 88.769531 271.511719 91.542969 C 271.351562 91.886719 271.195312 92.199219 271.039062 92.5625 C 270.367188 93.957031 269.660156 95.332031 268.925781 96.683594 C 267.445312 99.394531 265.832031 102.027344 264.085938 104.574219 C 263.355469 105.648438 262.375 106.707031 261.671875 107.824219 C 261.371094 108.183594 261.066406 108.546875 260.757812 108.902344 C 258.855469 111.09375 256.851562 113.183594 254.742188 115.175781 C 253.757812 116.101562 252.753906 117.007812 251.726562 117.890625 L 250.84375 118.625 C 248.3125 119.84375 245.890625 122.191406 243.472656 123.644531 C 240.820312 125.238281 238.09375 126.695312 235.292969 128.015625 L 234.050781 128.582031 C 232.8125 129.054688 231.574219 129.527344 230.316406 129.953125 C 227.390625 130.953125 224.417969 131.808594 221.402344 132.519531 C 219.894531 132.875 218.382812 133.191406 216.859375 133.464844 L 215.949219 133.617188 C 212.457031 133.550781 208.660156 134.273438 205.183594 134.933594 C 214.460938 120.503906 225.757812 107.875 239.070312 97.054688 Z M 76.511719 126.496094 C 75.144531 125.523438 73.792969 124.523438 72.445312 123.523438 L 71.1875 122.523438 C 72.792969 122.699219 74.398438 122.886719 76.003906 123.089844 C 95.746094 125.847656 115.050781 130.4375 133.921875 136.859375 C 138.832031 138.554688 143.691406 140.382812 148.5 142.34375 L 149.984375 142.945312 C 151.882812 143.75 153.769531 144.570312 155.679688 145.332031 C 156.875 145.8125 158.082031 146.273438 159.277344 146.753906 C 159.6875 146.917969 160.515625 147.234375 161.113281 147.457031 L 162.304688 147.96875 C 163.035156 152.085938 163.691406 156.210938 164.28125 160.34375 L 162.839844 161.398438 C 146.277344 158.703125 130.210938 154.230469 114.644531 147.96875 C 101.195312 142.128906 88.484375 134.972656 76.519531 126.503906 Z M 139.066406 234.78125 C 139.890625 233.667969 140.722656 232.558594 141.5625 231.449219 L 142.113281 230.726562 L 142.449219 230.296875 C 143.234375 229.324219 144.003906 228.324219 144.785156 227.371094 C 146.742188 224.941406 148.738281 222.546875 150.769531 220.179688 C 154.738281 215.539062 158.847656 211.011719 163.097656 206.59375 L 164.886719 206.785156 C 164.222656 207.71875 163.554688 208.644531 162.878906 209.566406 C 155.65625 218.640625 147.71875 227.050781 139.074219 234.789062 Z M 281.125 214.734375 C 266.082031 208.203125 251.925781 200.117188 238.65625 190.476562 C 237.1875 189.40625 231.640625 184.660156 237.105469 189.375 C 235.523438 188.007812 233.8125 186.742188 232.1875 185.429688 C 228.898438 182.796875 225.605469 180.167969 222.40625 177.433594 C 221.484375 176.632812 220.578125 175.824219 219.675781 175 C 219.5 174.730469 219.300781 174.476562 219.109375 174.21875 C 218.878906 173.8125 218.628906 173.40625 218.359375 173.007812 C 223.109375 172.425781 227.800781 171.550781 232.4375 170.378906 C 234.535156 169.851562 236.625 169.257812 238.710938 168.597656 C 248.390625 170.761719 257.851562 173.644531 267.09375 177.234375 C 267.542969 177.40625 269.472656 178.289062 267.246094 177.269531 L 266.878906 177.097656 L 267.945312 177.578125 C 269.261719 178.15625 270.558594 178.757812 271.832031 179.378906 C 274.78125 180.804688 277.671875 182.339844 280.507812 183.980469 C 282.828125 185.332031 285.101562 186.757812 287.328125 188.257812 C 288.425781 189 289.5 189.773438 290.570312 190.542969 L 289.78125 189.886719 C 290.15625 190.203125 290.550781 190.503906 290.9375 190.8125 C 291.328125 191.121094 291.734375 191.472656 291.933594 191.621094 C 296.15625 195.085938 300.105469 198.839844 303.78125 202.878906 C 304.65625 203.820312 305.5 204.78125 306.308594 205.753906 C 306.675781 206.191406 307.925781 207.777344 308.195312 208.085938 L 308.722656 208.804688 C 309.671875 210.117188 310.589844 211.464844 311.480469 212.839844 C 313.152344 215.414062 314.710938 218.058594 316.152344 220.777344 C 316.828125 222.050781 317.472656 223.339844 318.085938 224.644531 C 318.285156 225.0625 318.476562 225.484375 318.667969 225.90625 L 318.824219 226.347656 C 305.945312 223.511719 293.382812 219.640625 281.140625 214.742188 Z M 281.125 214.734375 "/></g></g></svg>