<svg xmlns="http://www.w3.org/2000/svg" xmlns:xlink="http://www.w3.org/1999/xlink" width="500" zoomAndPan="magnify" viewBox="0 0 375 374.999991" height="500" preserveAspectRatio="xMidYMid meet" version="1.0"><defs><clipPath id="cc8acccd09"><path d="M 116.183594 112.5 L 258.683594 112.5 L 258.683594 262.5 L 116.183594 262.5 Z M 116.183594 112.5 " clip-rule="nonzero"/></clipPath></defs><g clip-path="url(#cc8acccd09)"><path fill="#264414" d="M 211.457031 179.0625 L 211.457031 182.03125 C 211.457031 184.480469 211.042969 186.875 210.3125 189.21875 C 209.738281 191.09375 208.90625 192.867188 207.863281 194.480469 C 206.824219 195.992188 205.675781 197.449219 204.425781 198.855469 C 203.175781 200.210938 201.71875 201.410156 200.101562 202.398438 C 197.707031 203.960938 195.101562 205.003906 192.550781 206.148438 C 189.789062 207.242188 186.871094 208.023438 183.902344 208.390625 C 182.808594 208.546875 181.714844 209.066406 180.671875 208.960938 C 178.796875 208.804688 176.921875 209.484375 175.097656 208.703125 C 174.941406 208.648438 174.734375 208.753906 174.578125 208.753906 C 172.546875 209.171875 170.460938 209.171875 168.429688 208.804688 C 167.492188 208.648438 166.503906 208.597656 165.566406 208.441406 C 163.273438 208.078125 160.929688 207.972656 158.742188 207.085938 C 157.699219 206.671875 156.5 206.722656 155.40625 206.304688 C 153.792969 205.730469 152.230469 205.003906 150.824219 204.066406 C 150.042969 203.542969 149.15625 203.230469 148.375 202.660156 C 147.4375 201.980469 146.238281 201.617188 145.511719 200.835938 C 144.675781 200.003906 143.738281 199.167969 142.800781 198.4375 C 142.28125 198.023438 141.8125 197.5 141.289062 197.085938 C 138.53125 194.949219 136.183594 192.292969 134.363281 189.375 C 132.800781 186.824219 131.601562 184.0625 131.496094 180.882812 C 131.339844 177.550781 131.914062 174.214844 133.164062 171.144531 C 133.996094 169.214844 135.195312 167.546875 136.757812 166.140625 C 138.894531 164.164062 141.394531 162.703125 143.894531 161.296875 C 145.144531 160.621094 146.5 160.097656 147.855469 159.683594 C 148.6875 159.421875 149.46875 159.109375 150.25 158.796875 C 152.125 157.910156 154.15625 157.753906 156.136719 157.546875 C 159.3125 157.128906 162.542969 156.921875 165.773438 156.816406 C 167.960938 156.816406 170.097656 156.921875 172.234375 157.285156 C 175.566406 157.753906 178.902344 158.328125 182.234375 158.902344 C 183.695312 159.160156 185.101562 159.890625 186.558594 159.890625 C 189.109375 159.941406 191.300781 161.035156 193.695312 161.609375 C 195.050781 161.976562 196.351562 162.496094 198.019531 163.070312 C 197.550781 162.132812 197.183594 161.402344 196.820312 160.777344 C 195.621094 158.746094 194.582031 156.660156 193.175781 154.734375 C 192.238281 153.484375 191.402344 152.128906 190.152344 151.085938 C 189.371094 150.410156 188.902344 149.367188 188.226562 148.535156 C 187.601562 147.753906 186.871094 147.023438 186.140625 146.347656 C 184.734375 145.042969 183.382812 143.636719 181.871094 142.441406 C 179.003906 140.148438 176.140625 137.855469 173.222656 135.71875 C 169.421875 132.960938 165.253906 130.613281 160.878906 128.84375 C 157.804688 127.644531 154.679688 126.65625 151.5 125.875 C 148.167969 125.042969 144.78125 124.15625 141.394531 123.425781 C 137.433594 122.539062 133.425781 121.914062 129.414062 121.65625 C 128.996094 121.65625 128.578125 121.5 128.109375 121.445312 C 127.226562 121.34375 126.289062 121.289062 125.402344 121.1875 C 123.164062 120.976562 120.921875 120.351562 118.890625 119.363281 C 117.796875 118.738281 116.964844 117.75 116.546875 116.5 C 116.183594 115.507812 116.652344 114.621094 116.910156 113.683594 C 116.964844 113.425781 117.433594 113.269531 117.746094 113.164062 C 119.203125 112.695312 120.714844 112.539062 122.277344 112.746094 C 123.632812 112.902344 124.933594 113.214844 126.289062 113.476562 C 127.226562 113.632812 128.214844 113.683594 129.152344 113.839844 C 132.746094 114.308594 136.289062 114.675781 139.78125 115.246094 C 142.28125 115.664062 144.78125 116.34375 147.230469 116.914062 C 147.4375 116.96875 147.644531 117.070312 147.855469 117.125 C 147.855469 117.488281 147.90625 117.75 147.957031 118.425781 L 148.84375 117.4375 C 151.449219 118.0625 154.054688 118.632812 156.605469 119.3125 C 160.566406 120.300781 164.367188 121.757812 167.960938 123.632812 C 171.085938 125.25 174.109375 127.125 177.078125 129 C 179.109375 130.300781 181.089844 131.65625 182.964844 133.167969 C 184.839844 134.679688 186.664062 136.1875 188.433594 137.855469 C 190.414062 139.679688 192.339844 141.503906 194.113281 143.535156 C 196.351562 145.980469 198.382812 148.585938 200.257812 151.347656 C 201.875 153.742188 203.070312 156.402344 204.632812 158.847656 C 205.730469 160.566406 206.199219 162.546875 207.5 164.109375 C 207.65625 165.621094 208.957031 166.664062 209.113281 168.171875 C 209.167969 168.433594 209.636719 168.695312 209.949219 168.902344 C 212.1875 170.257812 214.429688 171.558594 216.617188 172.964844 C 220.992188 175.777344 225.160156 178.957031 229.015625 182.5 C 230.992188 184.324219 233.078125 186.09375 234.847656 188.074219 C 236.777344 190.207031 238.496094 192.554688 240.265625 194.84375 C 241.253906 196.148438 242.140625 197.5 242.976562 198.910156 C 243.914062 200.523438 244.695312 202.191406 245.578125 203.804688 C 246.203125 205.003906 246.882812 206.148438 247.507812 207.347656 C 248.234375 208.753906 248.859375 210.160156 249.539062 211.566406 C 250.425781 213.390625 251.414062 215.214844 252.089844 217.089844 C 252.558594 218.390625 253.183594 219.640625 253.339844 221.097656 C 253.601562 222.351562 253.964844 223.601562 254.488281 224.746094 C 255.371094 226.828125 255.996094 228.964844 256.414062 231.207031 C 256.570312 232.144531 256.621094 233.132812 257.089844 234.019531 C 257.246094 234.433594 257.351562 234.851562 257.351562 235.269531 C 257.769531 238.132812 258.238281 241 258.601562 243.917969 C 258.757812 245.425781 258.8125 246.9375 258.707031 248.5 C 258.5 251.15625 258.238281 253.867188 257.871094 256.523438 C 257.613281 258.449219 256.832031 260.273438 255.527344 261.730469 C 254.957031 262.355469 254.488281 262.460938 254.019531 261.730469 C 253.496094 260.898438 253.082031 260.066406 252.714844 259.128906 C 252.144531 257.5625 252.089844 255.84375 251.777344 254.179688 C 251.414062 251.992188 251.414062 249.800781 250.789062 247.613281 C 250.425781 246.363281 250.527344 244.957031 250.371094 243.65625 C 250.164062 241.882812 249.902344 240.113281 249.589844 238.394531 C 249.328125 236.726562 248.914062 235.113281 248.546875 233.445312 C 248.390625 232.664062 248.183594 231.832031 247.871094 231.101562 C 247.558594 230.371094 247.351562 229.539062 247.296875 228.757812 C 247.089844 227.558594 246.777344 226.359375 246.308594 225.214844 C 245.945312 224.121094 245.527344 223.027344 245.109375 221.933594 C 244.539062 220.371094 243.914062 218.753906 243.289062 217.191406 C 243.027344 216.566406 242.714844 215.996094 242.453125 215.371094 C 241.566406 213.234375 240.472656 211.203125 239.328125 209.222656 C 238.703125 208.078125 238.234375 206.878906 237.503906 205.730469 C 237.402344 205.472656 237.347656 205.160156 237.296875 204.898438 C 237.246094 204.742188 237.296875 204.429688 237.191406 204.378906 C 235.996094 203.753906 235.839844 202.398438 235.109375 201.460938 C 234.222656 200.472656 233.492188 199.324219 232.921875 198.125 C 232.503906 197.136719 231.617188 196.667969 231.097656 195.835938 C 230.578125 195 229.742188 194.375 229.066406 193.699219 C 227.921875 192.449219 226.824219 191.199219 225.628906 190 C 224.429688 188.800781 223.179688 187.707031 221.878906 186.613281 C 220.574219 185.519531 219.273438 184.480469 217.917969 183.4375 C 216.148438 182.132812 214.324219 180.832031 212.5 179.582031 C 212.292969 179.425781 211.875 179.21875 211.457031 179.0625 Z M 162.285156 164.578125 C 160.09375 164.839844 158.0625 165.101562 156.03125 165.414062 C 151.707031 166.039062 147.699219 167.808594 144.3125 170.621094 C 143.21875 171.558594 141.914062 172.289062 141.238281 173.746094 C 139.882812 176.5625 139.519531 179.789062 140.195312 182.8125 C 140.71875 185.3125 142.382812 187.136719 144 189.011719 C 145.09375 190.261719 146.394531 191.355469 147.59375 192.554688 C 149.78125 194.6875 152.332031 196.25 154.9375 197.8125 C 155.980469 198.386719 157.023438 198.855469 158.167969 199.273438 C 159.105469 199.636719 160.09375 199.847656 161.085938 199.847656 C 161.660156 199.898438 162.230469 199.949219 162.804688 200.105469 C 164.417969 200.417969 166.035156 200.992188 167.699219 200.992188 C 170.359375 200.992188 172.960938 201.667969 175.621094 201.148438 C 175.777344 201.148438 175.933594 201.148438 176.035156 201.199219 C 176.765625 201.148438 177.546875 201.148438 178.277344 201.097656 C 179.003906 201.042969 179.890625 200.785156 180.722656 200.785156 C 182.753906 200.679688 184.734375 200.316406 186.609375 199.691406 C 189.476562 198.855469 192.238281 197.65625 194.789062 196.042969 C 195.207031 195.78125 195.570312 195.523438 195.933594 195.210938 C 198.070312 193.4375 200.15625 191.5625 201.5625 189.113281 C 202.03125 188.28125 202.5 187.394531 202.863281 186.511719 C 203.019531 186.042969 203.070312 185.519531 203.070312 185 C 203.332031 183.644531 203.539062 182.34375 203.644531 180.9375 C 203.75 179.84375 203.644531 178.695312 203.382812 177.65625 C 203.175781 176.925781 202.707031 176.195312 202.8125 175.519531 C 202.96875 174.058594 202.082031 173.539062 201.039062 173.121094 C 199.0625 172.289062 197.027344 171.402344 195.050781 170.570312 C 193.800781 169.996094 192.496094 169.527344 191.144531 169.113281 C 187.914062 168.277344 184.683594 167.601562 181.453125 166.714844 C 177.808594 165.726562 174.109375 165.359375 170.359375 165.046875 C 167.597656 164.683594 164.886719 164.683594 162.285156 164.578125 Z M 162.285156 164.578125 " fill-opacity="1" fill-rule="nonzero"/></g></svg>