<svg xmlns="http://www.w3.org/2000/svg" xmlns:xlink="http://www.w3.org/1999/xlink" width="500" zoomAndPan="magnify" viewBox="0 0 375 374.999991" height="500" preserveAspectRatio="xMidYMid meet" version="1.2"><defs><clipPath id="ee689ba29a"><path d="M 9.203125 0 L 365.453125 0 L 365.453125 375 L 9.203125 375 Z M 9.203125 0 "/></clipPath></defs><g id="9af7c8a4d1"><g clip-rule="nonzero" clip-path="url(#ee689ba29a)"><path style=" stroke:none;fill-rule:nonzero;fill:#264414;fill-opacity:1;" d="M 247.179688 166.242188 L 247.179688 173.660156 C 247.179688 179.773438 246.140625 185.761719 244.320312 191.613281 C 242.886719 196.300781 240.804688 200.722656 238.203125 204.757812 C 235.601562 208.53125 232.738281 212.171875 229.617188 215.6875 C 226.492188 219.070312 222.851562 222.0625 218.816406 224.535156 C 212.832031 228.4375 206.324219 231.039062 199.949219 233.902344 C 193.054688 236.632812 185.769531 238.585938 178.351562 239.496094 C 175.621094 239.886719 172.886719 241.1875 170.285156 240.929688 C 165.601562 240.539062 160.917969 242.230469 156.363281 240.277344 C 155.972656 240.148438 155.453125 240.40625 155.0625 240.40625 C 149.988281 241.449219 144.78125 241.449219 139.707031 240.539062 C 137.367188 240.148438 134.894531 240.015625 132.550781 239.625 C 126.828125 238.714844 120.972656 238.457031 115.507812 236.242188 C 112.90625 235.203125 109.914062 235.332031 107.179688 234.292969 C 103.144531 232.859375 99.242188 231.039062 95.730469 228.699219 C 93.777344 227.394531 91.566406 226.617188 89.613281 225.183594 C 87.273438 223.492188 84.28125 222.582031 82.457031 220.628906 C 80.375 218.546875 78.035156 216.464844 75.691406 214.644531 C 74.390625 213.605469 73.21875 212.304688 71.917969 211.261719 C 65.023438 205.925781 59.167969 199.292969 54.613281 192.003906 C 50.710938 185.628906 47.71875 178.734375 47.457031 170.796875 C 47.066406 162.46875 48.5 154.140625 51.621094 146.464844 C 53.703125 141.652344 56.695312 137.488281 60.597656 133.976562 C 65.933594 129.03125 72.179688 125.386719 78.425781 121.875 C 81.546875 120.183594 84.929688 118.882812 88.3125 117.839844 C 90.394531 117.191406 92.347656 116.410156 94.296875 115.628906 C 98.984375 113.417969 104.058594 113.027344 109 112.507812 C 116.9375 111.464844 125.003906 110.945312 133.074219 110.683594 C 138.535156 110.683594 143.871094 110.945312 149.207031 111.855469 C 157.535156 113.027344 165.859375 114.457031 174.1875 115.890625 C 177.832031 116.539062 181.34375 118.359375 184.988281 118.359375 C 191.363281 118.492188 196.828125 121.222656 202.8125 122.65625 C 206.195312 123.566406 209.449219 124.867188 213.613281 126.296875 C 212.441406 123.957031 211.53125 122.132812 210.621094 120.574219 C 207.628906 115.5 205.023438 110.292969 201.511719 105.480469 C 199.167969 102.355469 197.089844 98.972656 193.964844 96.371094 C 192.011719 94.679688 190.84375 92.078125 189.152344 89.996094 C 187.589844 88.042969 185.769531 86.222656 183.945312 84.53125 C 180.433594 81.277344 177.050781 77.765625 173.277344 74.773438 C 166.121094 69.046875 158.964844 63.324219 151.679688 57.988281 C 142.179688 51.09375 131.769531 45.238281 120.839844 40.8125 C 113.164062 37.820312 105.359375 35.347656 97.421875 33.398438 C 89.09375 31.316406 80.636719 29.105469 72.179688 27.28125 C 62.289062 25.070312 52.273438 23.507812 42.253906 22.859375 C 41.210938 22.859375 40.171875 22.46875 39 22.335938 C 36.789062 22.078125 34.445312 21.949219 32.234375 21.6875 C 26.640625 21.167969 21.042969 19.605469 15.96875 17.132812 C 13.238281 15.570312 11.15625 13.101562 10.117188 9.976562 C 9.203125 7.503906 10.375 5.292969 11.027344 2.949219 C 11.15625 2.300781 12.328125 1.910156 13.109375 1.648438 C 16.75 0.480469 20.523438 0.0898438 24.429688 0.609375 C 27.8125 1 31.0625 1.78125 34.445312 2.429688 C 36.789062 2.820312 39.261719 2.949219 41.601562 3.339844 C 50.582031 4.511719 59.429688 5.421875 68.144531 6.855469 C 74.390625 7.894531 80.636719 9.585938 86.753906 11.019531 C 87.273438 11.148438 87.792969 11.410156 88.3125 11.539062 C 88.3125 12.449219 88.445312 13.101562 88.574219 14.792969 L 90.785156 12.320312 C 97.292969 13.878906 103.796875 15.3125 110.171875 17.003906 C 120.0625 19.476562 129.558594 23.117188 138.535156 27.800781 C 146.34375 31.835938 153.890625 36.519531 161.308594 41.203125 C 166.382812 44.457031 171.324219 47.839844 176.007812 51.613281 C 180.695312 55.386719 185.246094 59.160156 189.671875 63.324219 C 194.617188 67.878906 199.429688 72.429688 203.855469 77.503906 C 209.449219 83.621094 214.523438 90.125 219.207031 97.023438 C 223.242188 103.007812 226.234375 109.644531 230.136719 115.757812 C 232.867188 120.054688 234.039062 124.996094 237.292969 128.902344 C 237.683594 132.671875 240.9375 135.277344 241.328125 139.050781 C 241.457031 139.699219 242.628906 140.351562 243.410156 140.871094 C 249.003906 144.253906 254.597656 147.507812 260.0625 151.019531 C 270.992188 158.046875 281.402344 165.984375 291.03125 174.832031 C 295.972656 179.382812 301.179688 183.808594 305.601562 188.753906 C 310.417969 194.085938 314.710938 199.941406 319.132812 205.667969 C 321.605469 208.921875 323.816406 212.304688 325.898438 215.816406 C 328.242188 219.851562 330.195312 224.011719 332.40625 228.046875 C 333.96875 231.039062 335.660156 233.902344 337.21875 236.894531 C 339.042969 240.40625 340.601562 243.921875 342.292969 247.433594 C 344.507812 251.988281 346.976562 256.542969 348.667969 261.226562 C 349.839844 264.476562 351.402344 267.601562 351.792969 271.246094 C 352.441406 274.367188 353.355469 277.488281 354.65625 280.351562 C 356.867188 285.558594 358.429688 290.890625 359.46875 296.484375 C 359.859375 298.828125 359.988281 301.300781 361.160156 303.511719 C 361.550781 304.554688 361.8125 305.59375 361.8125 306.636719 C 362.851562 313.792969 364.023438 320.949219 364.933594 328.234375 C 365.324219 332.007812 365.453125 335.78125 365.195312 339.683594 C 364.671875 346.320312 364.023438 353.085938 363.113281 359.722656 C 362.460938 364.535156 360.511719 369.089844 357.257812 372.734375 C 355.824219 374.292969 354.65625 374.554688 353.484375 372.734375 C 352.183594 370.652344 351.140625 368.570312 350.230469 366.226562 C 348.800781 362.324219 348.667969 358.03125 347.890625 353.867188 C 346.976562 348.402344 346.976562 342.9375 345.417969 337.472656 C 344.507812 334.347656 344.765625 330.835938 344.375 327.582031 C 343.855469 323.160156 343.207031 318.734375 342.425781 314.441406 C 341.773438 310.277344 340.734375 306.246094 339.820312 302.082031 C 339.433594 300.128906 338.910156 298.046875 338.128906 296.226562 C 337.351562 294.40625 336.828125 292.324219 336.699219 290.371094 C 336.179688 287.378906 335.398438 284.386719 334.226562 281.523438 C 333.316406 278.789062 332.277344 276.058594 331.234375 273.324219 C 329.804688 269.421875 328.242188 265.390625 326.679688 261.484375 C 326.03125 259.925781 325.25 258.492188 324.597656 256.933594 C 322.386719 251.597656 319.65625 246.523438 316.792969 241.578125 C 315.230469 238.714844 314.058594 235.722656 312.238281 232.859375 C 311.976562 232.210938 311.847656 231.429688 311.71875 230.777344 C 311.585938 230.390625 311.71875 229.609375 311.457031 229.476562 C 308.464844 227.917969 308.074219 224.535156 306.253906 222.191406 C 304.042969 219.71875 302.21875 216.855469 300.789062 213.863281 C 299.746094 211.390625 297.535156 210.222656 296.234375 208.140625 C 294.933594 206.058594 292.851562 204.496094 291.160156 202.804688 C 288.296875 199.683594 285.566406 196.558594 282.574219 193.566406 C 279.578125 190.574219 276.457031 187.839844 273.203125 185.109375 C 269.953125 182.375 266.699219 179.773438 263.316406 177.171875 C 258.890625 173.917969 254.339844 170.667969 249.785156 167.542969 C 249.261719 167.152344 248.222656 166.632812 247.179688 166.242188 Z M 124.355469 130.070312 C 118.890625 130.722656 113.816406 131.371094 108.742188 132.152344 C 97.941406 133.714844 87.921875 138.136719 79.464844 145.164062 C 76.734375 147.507812 73.480469 149.328125 71.789062 152.972656 C 68.40625 159.996094 67.496094 168.066406 69.1875 175.609375 C 70.488281 181.855469 74.652344 186.410156 78.683594 191.09375 C 81.417969 194.21875 84.671875 196.949219 87.664062 199.941406 C 93.128906 205.277344 99.503906 209.179688 106.007812 213.082031 C 108.609375 214.515625 111.214844 215.6875 114.074219 216.726562 C 116.417969 217.636719 118.890625 218.15625 121.363281 218.15625 C 122.792969 218.289062 124.226562 218.417969 125.65625 218.808594 C 129.6875 219.589844 133.722656 221.019531 137.886719 221.019531 C 144.523438 221.019531 151.027344 222.710938 157.664062 221.410156 C 158.054688 221.410156 158.445312 221.410156 158.703125 221.542969 C 160.527344 221.410156 162.476562 221.410156 164.300781 221.28125 C 166.121094 221.152344 168.332031 220.5 170.414062 220.5 C 175.488281 220.238281 180.433594 219.328125 185.117188 217.769531 C 192.273438 215.6875 199.167969 212.695312 205.546875 208.660156 C 206.585938 208.007812 207.496094 207.359375 208.40625 206.578125 C 213.742188 202.152344 218.945312 197.46875 222.460938 191.355469 C 223.632812 189.273438 224.800781 187.0625 225.714844 184.847656 C 226.101562 183.679688 226.234375 182.378906 226.234375 181.074219 C 226.882812 177.691406 227.40625 174.441406 227.664062 170.925781 C 227.925781 168.195312 227.664062 165.332031 227.015625 162.730469 C 226.492188 160.910156 225.324219 159.085938 225.582031 157.394531 C 225.972656 153.753906 223.761719 152.449219 221.160156 151.410156 C 216.214844 149.328125 211.140625 147.117188 206.195312 145.035156 C 203.074219 143.601562 199.820312 142.433594 196.4375 141.390625 C 188.371094 139.308594 180.304688 137.617188 172.238281 135.40625 C 163.128906 132.933594 153.890625 132.023438 144.523438 131.242188 C 137.625 130.332031 130.859375 130.332031 124.355469 130.070312 Z M 124.355469 130.070312 "/></g></g></svg>