<svg xmlns="http://www.w3.org/2000/svg" xmlns:xlink="http://www.w3.org/1999/xlink" width="500" zoomAndPan="magnify" viewBox="0 0 375 374.999991" height="500" preserveAspectRatio="xMidYMid meet" version="1.2"><defs><clipPath id="e551932adb"><path d="M 0 82 L 374 82 L 374 293.316406 L 0 293.316406 Z M 0 82 "/></clipPath></defs><g id="b2fe44624a"><g clip-rule="nonzero" clip-path="url(#e551932adb)"><path style=" stroke:none;fill-rule:nonzero;fill:#f35695;fill-opacity:1;" d="M 0.300781 115.019531 C 1.234375 115.019531 1.914062 115.019531 2.59375 115.105469 C 5.734375 115.53125 8.792969 116.550781 11.679688 117.992188 C 15.328125 119.859375 18.726562 121.984375 21.953125 124.445312 C 23.480469 125.550781 25.09375 126.570312 26.625 127.589844 C 28.746094 129.03125 30.871094 130.476562 33.078125 131.917969 C 35.878906 133.789062 38.765625 135.484375 41.398438 137.355469 C 44.964844 139.730469 48.617188 141.941406 52.4375 143.894531 C 53.203125 144.316406 53.96875 144.910156 54.730469 145.335938 C 55.496094 145.761719 56.175781 146.015625 56.855469 146.355469 C 57.535156 146.695312 58.382812 147.121094 59.148438 147.460938 C 60.335938 147.96875 61.523438 148.394531 62.714844 148.816406 C 64.667969 149.582031 66.535156 150.261719 68.488281 151.027344 C 70.441406 151.789062 72.394531 152.554688 74.433594 153.234375 C 75.367188 153.574219 76.46875 153.574219 77.40625 153.828125 C 82.753906 155.1875 88.1875 156.035156 93.707031 156.375 C 96.171875 156.460938 98.632812 156.800781 101.097656 156.714844 C 103.898438 156.628906 106.699219 156.207031 109.503906 155.949219 C 112.476562 155.695312 115.363281 155.527344 118.335938 155.441406 C 122.242188 155.1875 126.148438 154.761719 129.96875 153.996094 C 133.363281 153.402344 136.761719 152.894531 140.160156 152.382812 C 141.007812 152.214844 141.773438 151.960938 142.621094 151.707031 C 141.007812 148.988281 139.394531 146.523438 138.121094 143.894531 C 136.933594 141.515625 135.996094 139.050781 135.234375 136.503906 C 134.214844 133.277344 133.535156 129.964844 133.109375 126.570312 C 132.769531 124.703125 132.515625 122.75 132.429688 120.878906 C 132.429688 119.4375 132.089844 117.90625 132.601562 116.464844 C 132.769531 115.53125 132.855469 114.597656 132.855469 113.746094 C 132.941406 111.625 133.28125 109.585938 133.789062 107.546875 C 134.042969 106.699219 134.300781 105.933594 134.640625 105.171875 C 135.488281 102.960938 136.253906 100.753906 137.269531 98.714844 C 138.714844 96 140.582031 93.453125 142.707031 91.328125 C 144.148438 89.96875 145.761719 88.78125 147.460938 87.761719 C 148.480469 87 149.5 86.402344 150.519531 85.640625 C 152.386719 84.195312 154.679688 83.261719 156.972656 83.09375 C 157.652344 83.007812 158.246094 82.835938 158.839844 82.582031 C 161.304688 81.816406 163.851562 82.074219 166.398438 82.15625 C 167.839844 82.328125 169.199219 82.667969 170.558594 83.175781 C 170.8125 83.261719 170.984375 83.347656 171.238281 83.429688 C 172.597656 83.515625 173.871094 83.941406 174.976562 84.707031 C 178.117188 86.402344 181.34375 88.015625 183.550781 90.90625 C 186.015625 94.300781 188.902344 97.613281 189.921875 101.773438 C 190.855469 105.085938 191.023438 108.566406 190.429688 111.964844 C 189.921875 114.679688 188.984375 117.230469 188.222656 119.859375 C 187.457031 122.832031 186.523438 125.71875 185.417969 128.609375 C 184.316406 131.238281 183.550781 134.042969 181.597656 136.335938 C 181.171875 137.015625 180.75 137.777344 180.410156 138.457031 C 179.644531 139.730469 178.796875 141.003906 177.945312 142.195312 C 177.351562 143.042969 176.671875 143.808594 175.992188 144.488281 C 173.105469 147.203125 170.390625 150.089844 166.90625 152.128906 C 164.359375 153.574219 161.898438 155.1875 159.179688 156.886719 C 160.878906 158.414062 161.898438 160.453125 163.851562 161.808594 C 165.378906 163.085938 166.90625 164.441406 168.265625 165.972656 C 170.132812 167.667969 172.003906 169.367188 173.871094 170.980469 C 174.039062 171.066406 174.210938 171.152344 174.296875 171.320312 C 176.589844 173.699219 179.476562 175.3125 182.023438 177.265625 C 183.722656 178.625 185.335938 179.984375 187.203125 181.171875 C 188.5625 182.105469 189.921875 183.125 191.277344 184.058594 C 194.164062 185.925781 197.054688 187.878906 199.941406 189.664062 C 202.316406 191.105469 204.695312 192.550781 207.160156 193.824219 C 210.300781 195.4375 213.441406 196.882812 216.585938 198.410156 C 217.433594 198.835938 218.28125 199.429688 219.132812 199.769531 C 222.105469 200.957031 225.074219 202.0625 228.132812 203.25 C 229.40625 203.757812 230.765625 204.097656 232.125 204.355469 C 231.699219 203.503906 231.273438 202.65625 230.765625 201.804688 C 229.660156 199.851562 229.238281 197.644531 228.304688 195.691406 C 228.21875 195.4375 228.132812 195.097656 228.132812 194.84375 C 227.964844 193.230469 227.453125 191.703125 226.773438 190.257812 C 226.09375 188.984375 226.09375 187.285156 225.753906 185.84375 C 225.5 184.566406 225.160156 183.292969 224.820312 182.105469 C 224.734375 181.9375 224.734375 181.765625 224.652344 181.597656 C 224.566406 179.558594 223.632812 177.519531 223.632812 175.566406 C 223.632812 172.851562 222.445312 170.472656 222.699219 167.753906 C 222.867188 166.140625 222.359375 164.441406 222.273438 162.746094 C 222.1875 161.640625 222.613281 160.367188 222.273438 159.347656 C 221.679688 157.648438 223.121094 156.121094 222.445312 154.421875 C 223.292969 153.660156 222.78125 152.722656 222.78125 151.875 C 222.867188 150.855469 223.121094 149.835938 223.378906 148.902344 C 223.546875 147.96875 223.71875 147.035156 223.972656 146.101562 C 224.820312 143.722656 225.753906 141.34375 226.6875 139.050781 C 227.199219 137.949219 227.625 136.84375 227.964844 135.65625 C 228.386719 133.53125 229.746094 132.003906 231.019531 130.390625 C 232.71875 128.183594 234.5 126.058594 236.285156 123.9375 C 236.710938 123.425781 237.21875 123.003906 237.730469 122.664062 C 238.066406 122.324219 238.664062 122.152344 238.832031 121.730469 C 239.511719 120.199219 241.039062 119.691406 242.144531 118.757812 C 243.589844 117.652344 245.117188 116.71875 246.644531 115.785156 C 250.125 113.746094 253.609375 111.539062 257.515625 110.265625 C 259.46875 109.671875 261.335938 109.078125 263.375 108.566406 C 264.054688 108.480469 264.730469 108.398438 265.410156 108.398438 C 265.835938 108.398438 266.261719 108.398438 266.683594 108.226562 C 270.167969 106.867188 273.902344 107.207031 277.554688 107.207031 C 280.101562 107.207031 282.566406 107.207031 285.113281 107.378906 C 286.386719 107.464844 287.574219 107.71875 288.847656 107.886719 C 290.800781 108.144531 292.839844 108.226562 294.707031 108.738281 C 296.914062 109.246094 299.039062 110.09375 301.246094 110.773438 C 301.5 110.859375 301.839844 111.03125 302.097656 111.113281 C 306.851562 112.21875 311.4375 114 315.511719 116.632812 C 318.570312 118.503906 321.457031 120.457031 324.257812 122.578125 C 327.910156 125.464844 331.308594 128.609375 334.449219 132.175781 C 337.507812 135.316406 340.140625 138.796875 342.261719 142.617188 C 344.386719 146.609375 346.082031 150.855469 347.355469 155.1875 C 347.953125 156.886719 348.375 158.667969 348.628906 160.453125 C 348.96875 162.660156 349.226562 164.867188 349.394531 167.074219 C 349.648438 169.539062 349.648438 172 349.480469 174.464844 C 349.140625 177.691406 348.886719 180.917969 347.695312 183.972656 C 347.441406 184.738281 347.273438 185.503906 347.101562 186.265625 C 346.507812 188.472656 345.742188 190.683594 344.722656 192.71875 C 344.214844 193.824219 343.707031 194.84375 343.109375 195.863281 C 342.769531 196.371094 342.347656 196.796875 341.921875 197.222656 C 341.242188 197.898438 340.648438 198.578125 340.222656 199.429688 C 339.96875 200.109375 339.714844 201.128906 338.527344 201.042969 C 338.269531 201.042969 337.847656 201.46875 337.761719 201.722656 C 337.25 203.675781 335.46875 204.609375 334.109375 205.882812 C 330.882812 208.769531 327.402344 211.316406 323.582031 213.523438 C 321.117188 215.136719 318.484375 216.496094 315.769531 217.601562 C 311.605469 219.128906 307.445312 220.828125 302.945312 221.253906 C 301.585938 221.421875 300.3125 221.761719 298.953125 222.1875 C 296.578125 222.78125 294.199219 223.375 291.734375 223.121094 C 290.71875 223.035156 289.613281 223.460938 288.59375 223.546875 C 285.113281 223.714844 281.714844 224.308594 278.234375 223.800781 C 276.789062 223.546875 275.261719 223.886719 273.734375 223.886719 C 271.015625 223.886719 268.382812 223.714844 265.75 223.375 C 263.714844 223.035156 261.675781 223.035156 259.722656 222.78125 C 258.789062 222.695312 257.9375 222.273438 257.003906 222.015625 C 256.242188 221.847656 255.476562 221.761719 254.710938 221.761719 C 255.050781 222.273438 255.390625 222.867188 255.730469 223.375 C 257.257812 225.074219 258.449219 226.941406 259.976562 228.640625 C 261.25 230.167969 262.777344 231.527344 263.96875 233.054688 C 265.242188 234.753906 267.023438 235.941406 268.214844 237.640625 C 268.976562 238.914062 269.996094 240.019531 271.101562 240.953125 C 273.140625 242.566406 275.09375 244.265625 277.046875 245.964844 C 277.214844 246.132812 277.46875 246.304688 277.640625 246.472656 C 279.082031 248.339844 281.207031 249.273438 283.074219 250.632812 C 284.433594 251.652344 285.707031 252.757812 286.980469 253.777344 C 288.253906 254.792969 289.78125 255.898438 291.226562 256.832031 C 294.113281 258.617188 297 260.570312 300.058594 262.097656 C 301.757812 262.945312 303.113281 264.476562 305.152344 264.730469 C 305.238281 264.730469 305.40625 264.816406 305.492188 264.898438 C 308.632812 267.109375 312.285156 268.210938 315.683594 269.824219 C 318.570312 271.183594 321.542969 272.289062 324.515625 273.390625 C 328.503906 274.921875 332.75 275.855469 336.742188 277.296875 C 341.074219 278.742188 345.574219 279.84375 350.074219 280.695312 C 354.828125 281.796875 359.671875 282.308594 364.511719 282.308594 C 366.292969 282.308594 367.992188 282.308594 369.773438 282.308594 C 370.625 282.222656 371.472656 282.734375 371.8125 283.496094 C 372.066406 283.921875 372.324219 284.347656 372.664062 284.6875 C 374.699219 287.148438 373.511719 291.054688 369.945312 292.242188 C 367.398438 293.007812 364.679688 293.175781 362.046875 292.839844 C 360.09375 292.582031 358.226562 292.414062 356.273438 292.328125 C 353.300781 292.160156 350.414062 291.820312 347.527344 291.140625 C 346.167969 290.800781 344.722656 290.628906 343.367188 290.289062 C 342.007812 289.949219 340.394531 289.355469 338.949219 288.933594 C 336.0625 288.167969 333.175781 287.402344 330.289062 286.640625 C 329.863281 286.554688 329.4375 286.214844 329.015625 286.128906 C 326.890625 285.449219 324.769531 284.855469 322.644531 284.175781 C 320.949219 283.582031 319.335938 282.816406 317.636719 282.222656 C 315.429688 281.375 313.050781 280.609375 310.925781 279.589844 C 308.039062 278.316406 305.238281 276.789062 302.4375 275.34375 C 299.632812 273.902344 296.746094 272.542969 293.945312 270.929688 C 291.394531 269.484375 288.933594 267.871094 286.472656 266.257812 C 283.667969 264.390625 280.867188 262.523438 278.0625 260.570312 C 276.535156 259.464844 275.261719 258.191406 273.820312 257.003906 C 273.394531 256.664062 272.96875 256.324219 272.542969 255.984375 C 269.742188 254.117188 267.109375 251.90625 264.816406 249.359375 C 263.796875 248.257812 262.523438 247.40625 261.503906 246.304688 C 260.402344 245.367188 259.46875 244.351562 258.617188 243.160156 C 258.195312 242.566406 257.597656 241.972656 257.003906 241.460938 C 256.410156 240.953125 255.816406 240.445312 255.390625 239.765625 C 254.117188 237.21875 251.824219 235.605469 250.042969 233.480469 C 248.003906 231.019531 246.050781 228.46875 244.265625 225.839844 C 242.824219 223.714844 241.71875 221.507812 240.191406 219.46875 C 239.597656 218.703125 238.746094 218.195312 237.898438 217.855469 C 236.113281 217.175781 234.246094 216.75 232.378906 216.242188 C 231.359375 215.902344 230.339844 215.5625 229.320312 215.222656 C 227.625 214.714844 226.011719 214.203125 224.3125 213.609375 C 222.105469 212.847656 219.980469 211.910156 217.773438 211.0625 C 214.886719 209.875 211.914062 208.601562 209.113281 207.242188 C 206.902344 206.222656 204.78125 204.949219 202.574219 203.757812 C 200.195312 202.402344 197.734375 201.128906 195.355469 199.683594 C 192.808594 198.15625 190.261719 196.457031 187.796875 194.84375 C 185.164062 193.058594 182.449219 191.277344 179.898438 189.410156 C 177.691406 187.796875 175.738281 185.925781 173.445312 184.566406 C 170.898438 183.039062 168.859375 180.832031 166.398438 179.21875 C 165.464844 178.539062 164.613281 177.773438 163.851562 176.925781 C 161.898438 175.140625 159.945312 173.359375 158.074219 171.574219 C 155.613281 169.199219 153.234375 166.734375 150.941406 164.273438 C 150.265625 163.421875 149.667969 162.574219 149.160156 161.554688 C 148.054688 161.808594 147.035156 161.980469 146.019531 162.234375 C 144.066406 162.746094 142.113281 163.253906 140.160156 163.761719 C 138.546875 164.101562 136.933594 164.273438 135.316406 164.527344 C 133.535156 164.953125 131.75 165.207031 129.96875 165.375 C 128.101562 165.375 126.402344 166.3125 124.449219 165.800781 C 124.195312 165.714844 123.855469 165.972656 123.601562 166.054688 C 121.902344 166.652344 120.03125 166.652344 118.25 166.734375 C 115.957031 166.992188 113.578125 166.992188 111.285156 166.820312 C 110.863281 166.820312 110.269531 167.414062 109.929688 167.328125 C 108.652344 166.652344 107.464844 167.667969 106.105469 167.414062 C 104.832031 167.328125 103.472656 167.328125 102.199219 167.585938 C 101.011719 167.667969 99.90625 167.585938 98.71875 167.753906 C 96.597656 167.839844 94.386719 167.753906 92.265625 167.585938 C 86.832031 167.328125 81.480469 166.226562 76.128906 165.207031 C 74.433594 164.78125 72.734375 164.359375 71.035156 163.761719 C 69.507812 163.339844 67.894531 162.914062 66.367188 162.320312 C 62.460938 160.875 58.382812 159.773438 54.730469 157.648438 C 52.015625 156.035156 49.042969 154.933594 46.15625 153.402344 C 43.691406 152.214844 41.316406 150.769531 39.105469 149.074219 C 37.75 148.222656 36.390625 147.375 34.945312 146.695312 C 34.351562 146.355469 33.671875 145.929688 33.078125 145.507812 C 29.765625 143.128906 26.453125 140.664062 23.140625 138.375 C 19.832031 136.082031 16.605469 134.042969 13.460938 131.75 C 9.214844 128.609375 5.140625 125.296875 2.421875 120.710938 C 1.402344 118.671875 0.640625 116.890625 0.300781 115.019531 Z M 289.019531 212.507812 C 290.800781 212.167969 293.011719 211.742188 295.132812 211.570312 C 299.039062 211.230469 302.691406 209.957031 306.425781 209.109375 C 308.039062 208.601562 309.652344 208.003906 311.183594 207.324219 C 312.371094 206.816406 313.558594 206.222656 314.832031 205.796875 C 315.429688 205.628906 316.023438 205.289062 316.53125 204.949219 C 318.230469 203.757812 320.097656 202.824219 321.882812 201.722656 C 323.15625 200.957031 324.429688 200.109375 325.617188 199.257812 C 327.148438 197.984375 328.503906 196.625 329.863281 195.183594 C 331.222656 193.738281 332.410156 192.210938 333.601562 190.597656 C 334.109375 189.832031 334.621094 188.984375 334.960938 188.050781 C 335.976562 185.84375 337.335938 183.71875 337.929688 181.339844 C 339.121094 176.753906 339.628906 172.085938 339.542969 167.414062 C 339.375 164.527344 338.949219 161.640625 338.015625 158.921875 C 336.914062 154.933594 335.46875 151.109375 333.683594 147.460938 C 332.410156 144.996094 330.882812 142.703125 329.015625 140.582031 C 326.550781 137.777344 323.835938 135.144531 321.117188 132.597656 C 318.058594 129.625 314.664062 127.078125 310.925781 125.042969 C 308.296875 123.597656 305.578125 122.324219 302.773438 121.21875 C 300.226562 120.285156 297.511719 119.859375 294.964844 118.925781 C 293.519531 118.417969 291.992188 117.992188 290.378906 117.738281 C 289.1875 117.570312 288 117.570312 286.8125 117.484375 C 285.113281 117.3125 283.328125 117.144531 281.632812 116.972656 C 280.78125 116.890625 279.933594 116.890625 279.082031 116.972656 C 278.320312 116.972656 277.386719 117.3125 276.707031 116.972656 C 275.855469 116.632812 275.175781 117.144531 274.414062 117.144531 C 273.648438 117.230469 272.882812 117.3125 272.121094 117.570312 C 270.507812 117.738281 268.894531 117.90625 267.28125 118.078125 C 263.796875 118.585938 260.488281 119.691406 257.34375 121.21875 C 256.324219 121.730469 255.390625 122.324219 254.457031 123.003906 C 250.296875 125.636719 245.964844 128.097656 242.652344 131.917969 C 241.039062 133.617188 239.597656 135.484375 238.492188 137.523438 C 237.898438 138.710938 237.304688 139.902344 236.539062 141.003906 C 235.859375 141.941406 235.4375 142.957031 235.179688 144.0625 C 234.839844 145.761719 234.160156 147.375 233.738281 149.074219 C 233.226562 150.601562 232.886719 152.214844 232.632812 153.828125 C 232.378906 156.375 232.207031 158.921875 232.125 161.554688 C 232.125 162.914062 232.207031 164.359375 232.378906 165.714844 C 232.546875 168.09375 232.804688 170.472656 233.058594 172.851562 C 233.144531 173.359375 233.738281 173.867188 233.652344 174.292969 C 233.398438 176.925781 234.585938 179.386719 235.011719 181.9375 C 235.4375 183.890625 235.945312 185.84375 236.625 187.710938 C 237.21875 189.75 237.8125 191.871094 238.324219 193.992188 C 240.191406 195.183594 239.085938 197.898438 240.871094 199.089844 C 241.039062 199.175781 241.039062 199.515625 241.125 199.769531 C 241.378906 200.363281 241.632812 200.957031 241.890625 201.550781 C 242.570312 202.824219 243.417969 204.097656 244.011719 205.457031 C 244.863281 207.410156 245.964844 208.941406 248.257812 209.277344 C 250.550781 209.617188 253.097656 210.128906 255.476562 210.636719 C 256.664062 210.894531 257.855469 211.230469 258.957031 211.402344 C 261.84375 211.742188 264.730469 211.996094 267.621094 212.335938 C 269.828125 212.507812 272.035156 212.761719 274.242188 212.847656 C 276.449219 212.929688 278.574219 212.675781 280.695312 212.675781 C 283.5 212.421875 286.132812 212.507812 289.019531 212.507812 Z M 152.640625 148.054688 C 155.359375 146.523438 157.90625 145.25 160.285156 143.894531 C 161.726562 142.957031 163.171875 141.941406 164.53125 140.921875 C 166.226562 139.730469 167.757812 138.289062 168.945312 136.589844 C 170.390625 134.296875 172.851562 132.769531 173.53125 129.964844 C 175.144531 128.4375 175.484375 126.230469 176.332031 124.277344 C 176.503906 123.9375 176.25 123.425781 176.417969 123.257812 C 177.4375 122.238281 177.523438 120.964844 177.945312 119.691406 C 178.625 117.992188 179.21875 116.210938 179.730469 114.425781 C 180.324219 112.132812 180.664062 109.757812 180.835938 107.464844 C 180.917969 104.152344 179.730469 101.007812 177.4375 98.632812 C 175.652344 96.679688 173.871094 94.8125 171.238281 93.792969 C 169.117188 92.859375 166.738281 92.433594 164.445312 92.433594 C 161.726562 92.601562 159.09375 93.28125 156.546875 94.300781 C 153.914062 95.40625 151.621094 97.1875 149.753906 99.3125 C 148.734375 100.332031 147.800781 101.433594 147.121094 102.707031 C 145.933594 105.253906 144.234375 107.71875 143.808594 110.605469 C 143.46875 112.644531 142.789062 114.597656 142.621094 116.632812 C 142.453125 119.097656 142.453125 121.558594 142.707031 123.9375 C 142.875 127.078125 143.554688 130.136719 144.574219 133.023438 C 145.253906 134.890625 146.019531 136.675781 146.867188 138.457031 C 147.632812 139.902344 148.566406 141.175781 149.414062 142.535156 C 149.753906 143.128906 150.007812 143.722656 150.347656 144.316406 C 151.027344 145.589844 151.792969 146.78125 152.640625 148.054688 Z M 152.640625 148.054688 "/></g></g></svg>