<svg xmlns="http://www.w3.org/2000/svg" xmlns:xlink="http://www.w3.org/1999/xlink" width="500" zoomAndPan="magnify" viewBox="0 0 375 374.999991" height="500" preserveAspectRatio="xMidYMid meet" version="1.0"><defs><clipPath id="119406e64c"><path d="M 112.5 145.226562 L 262 145.226562 L 262 229.976562 L 112.5 229.976562 Z M 112.5 145.226562 " clip-rule="nonzero"/></clipPath></defs><g clip-path="url(#119406e64c)"><path fill="#f35695" d="M 112.625 158.507812 C 112.996094 158.507812 113.269531 158.507812 113.542969 158.542969 C 114.796875 158.710938 116.019531 159.117188 117.175781 159.695312 C 118.636719 160.445312 119.996094 161.292969 121.285156 162.277344 C 121.894531 162.71875 122.542969 163.125 123.152344 163.535156 C 124.003906 164.113281 124.851562 164.6875 125.734375 165.265625 C 126.855469 166.015625 128.011719 166.691406 129.0625 167.441406 C 130.488281 168.390625 131.949219 169.273438 133.480469 170.054688 C 133.785156 170.226562 134.089844 170.464844 134.394531 170.632812 C 134.703125 170.804688 134.972656 170.90625 135.246094 171.039062 C 135.515625 171.175781 135.855469 171.347656 136.160156 171.480469 C 136.636719 171.6875 137.113281 171.855469 137.589844 172.027344 C 138.371094 172.332031 139.117188 172.601562 139.898438 172.910156 C 140.679688 173.214844 141.460938 173.519531 142.277344 173.792969 C 142.648438 173.929688 143.089844 173.929688 143.464844 174.03125 C 145.605469 174.574219 147.777344 174.914062 149.984375 175.046875 C 150.96875 175.082031 151.957031 175.21875 152.941406 175.183594 C 154.0625 175.152344 155.183594 174.980469 156.304688 174.878906 C 157.492188 174.777344 158.648438 174.707031 159.835938 174.675781 C 161.398438 174.574219 162.960938 174.402344 164.488281 174.097656 C 165.847656 173.859375 167.207031 173.65625 168.5625 173.453125 C 168.902344 173.382812 169.210938 173.28125 169.550781 173.179688 C 168.902344 172.09375 168.257812 171.109375 167.75 170.054688 C 167.273438 169.105469 166.898438 168.121094 166.59375 167.101562 C 166.1875 165.808594 165.914062 164.484375 165.746094 163.125 C 165.609375 162.378906 165.507812 161.597656 165.472656 160.851562 C 165.472656 160.273438 165.335938 159.664062 165.542969 159.085938 C 165.609375 158.710938 165.644531 158.335938 165.644531 158 C 165.675781 157.148438 165.8125 156.332031 166.015625 155.519531 C 166.117188 155.179688 166.222656 154.875 166.355469 154.566406 C 166.695312 153.683594 167.003906 152.800781 167.410156 151.988281 C 167.988281 150.898438 168.734375 149.878906 169.582031 149.03125 C 170.160156 148.488281 170.804688 148.011719 171.484375 147.605469 C 171.894531 147.300781 172.300781 147.0625 172.707031 146.753906 C 173.457031 146.179688 174.371094 145.804688 175.289062 145.738281 C 175.5625 145.703125 175.800781 145.636719 176.035156 145.53125 C 177.023438 145.226562 178.039062 145.328125 179.058594 145.363281 C 179.636719 145.429688 180.179688 145.566406 180.722656 145.769531 C 180.824219 145.804688 180.894531 145.839844 180.996094 145.871094 C 181.539062 145.90625 182.046875 146.078125 182.488281 146.382812 C 183.746094 147.0625 185.039062 147.707031 185.921875 148.863281 C 186.90625 150.21875 188.058594 151.542969 188.46875 153.210938 C 188.839844 154.535156 188.910156 155.925781 188.671875 157.285156 C 188.46875 158.371094 188.09375 159.390625 187.789062 160.445312 C 187.484375 161.632812 187.109375 162.789062 186.667969 163.941406 C 186.226562 164.996094 185.921875 166.117188 185.140625 167.03125 C 184.96875 167.304688 184.800781 167.609375 184.664062 167.882812 C 184.359375 168.390625 184.019531 168.902344 183.679688 169.375 C 183.441406 169.714844 183.167969 170.023438 182.898438 170.292969 C 181.742188 171.378906 180.65625 172.535156 179.261719 173.351562 C 178.246094 173.929688 177.257812 174.574219 176.171875 175.253906 C 176.851562 175.863281 177.257812 176.679688 178.039062 177.222656 C 178.652344 177.730469 179.261719 178.273438 179.808594 178.886719 C 180.554688 179.566406 181.300781 180.246094 182.046875 180.890625 C 182.117188 180.925781 182.183594 180.957031 182.21875 181.027344 C 183.136719 181.976562 184.289062 182.621094 185.308594 183.402344 C 185.988281 183.949219 186.632812 184.492188 187.382812 184.964844 C 187.925781 185.339844 188.46875 185.746094 189.011719 186.121094 C 190.167969 186.867188 191.320312 187.648438 192.476562 188.363281 C 193.425781 188.941406 194.378906 189.519531 195.363281 190.027344 C 196.621094 190.671875 197.875 191.25 199.132812 191.863281 C 199.472656 192.03125 199.8125 192.269531 200.152344 192.40625 C 201.339844 192.878906 202.53125 193.320312 203.753906 193.796875 C 204.261719 194 204.804688 194.136719 205.347656 194.238281 C 205.179688 193.898438 205.007812 193.558594 204.804688 193.21875 C 204.363281 192.4375 204.195312 191.554688 203.820312 190.773438 C 203.785156 190.671875 203.753906 190.535156 203.753906 190.433594 C 203.683594 189.789062 203.480469 189.179688 203.207031 188.601562 C 202.9375 188.089844 202.9375 187.410156 202.800781 186.835938 C 202.699219 186.324219 202.5625 185.816406 202.425781 185.339844 C 202.394531 185.273438 202.394531 185.203125 202.359375 185.136719 C 202.324219 184.320312 201.953125 183.507812 201.953125 182.726562 C 201.953125 181.636719 201.476562 180.6875 201.578125 179.601562 C 201.644531 178.953125 201.441406 178.273438 201.410156 177.597656 C 201.375 177.15625 201.542969 176.644531 201.410156 176.238281 C 201.171875 175.558594 201.75 174.945312 201.476562 174.265625 C 201.816406 173.960938 201.613281 173.589844 201.613281 173.25 C 201.644531 172.839844 201.75 172.433594 201.851562 172.058594 C 201.917969 171.6875 201.984375 171.3125 202.089844 170.9375 C 202.425781 169.988281 202.800781 169.035156 203.175781 168.121094 C 203.378906 167.679688 203.546875 167.238281 203.683594 166.761719 C 203.855469 165.910156 204.398438 165.300781 204.90625 164.65625 C 205.585938 163.773438 206.300781 162.921875 207.011719 162.074219 C 207.183594 161.871094 207.386719 161.699219 207.589844 161.566406 C 207.726562 161.429688 207.964844 161.359375 208.03125 161.191406 C 208.304688 160.578125 208.914062 160.375 209.355469 160.003906 C 209.933594 159.5625 210.546875 159.1875 211.15625 158.8125 C 212.550781 158 213.941406 157.113281 215.503906 156.605469 C 216.285156 156.367188 217.03125 156.128906 217.847656 155.925781 C 218.121094 155.890625 218.390625 155.859375 218.664062 155.859375 C 218.832031 155.859375 219.003906 155.859375 219.171875 155.789062 C 220.566406 155.246094 222.058594 155.382812 223.519531 155.382812 C 224.539062 155.382812 225.523438 155.382812 226.542969 155.449219 C 227.050781 155.484375 227.527344 155.585938 228.039062 155.65625 C 228.820312 155.757812 229.632812 155.789062 230.382812 155.996094 C 231.265625 156.199219 232.113281 156.539062 232.996094 156.808594 C 233.097656 156.84375 233.234375 156.910156 233.335938 156.945312 C 235.238281 157.386719 237.070312 158.101562 238.703125 159.152344 C 239.925781 159.898438 241.078125 160.679688 242.199219 161.53125 C 243.660156 162.683594 245.019531 163.941406 246.277344 165.367188 C 247.5 166.625 248.550781 168.019531 249.402344 169.546875 C 250.25 171.144531 250.929688 172.839844 251.4375 174.574219 C 251.675781 175.253906 251.847656 175.964844 251.949219 176.679688 C 252.085938 177.5625 252.1875 178.445312 252.253906 179.328125 C 252.355469 180.3125 252.355469 181.296875 252.289062 182.28125 C 252.152344 183.574219 252.050781 184.863281 251.574219 186.085938 C 251.472656 186.394531 251.40625 186.699219 251.335938 187.003906 C 251.097656 187.886719 250.792969 188.769531 250.386719 189.585938 C 250.183594 190.027344 249.980469 190.433594 249.742188 190.84375 C 249.605469 191.046875 249.433594 191.214844 249.265625 191.386719 C 248.992188 191.65625 248.757812 191.929688 248.585938 192.269531 C 248.484375 192.539062 248.382812 192.949219 247.90625 192.914062 C 247.804688 192.914062 247.636719 193.085938 247.601562 193.1875 C 247.398438 193.96875 246.683594 194.339844 246.140625 194.851562 C 244.851562 196.003906 243.457031 197.023438 241.929688 197.90625 C 240.945312 198.550781 239.890625 199.097656 238.804688 199.539062 C 237.140625 200.148438 235.476562 200.828125 233.675781 200.996094 C 233.132812 201.066406 232.621094 201.203125 232.078125 201.371094 C 231.128906 201.609375 230.175781 201.847656 229.191406 201.746094 C 228.785156 201.710938 228.34375 201.882812 227.933594 201.914062 C 226.542969 201.984375 225.183594 202.21875 223.792969 202.015625 C 223.214844 201.914062 222.601562 202.050781 221.992188 202.050781 C 220.90625 202.050781 219.851562 201.984375 218.796875 201.847656 C 217.984375 201.710938 217.167969 201.710938 216.386719 201.609375 C 216.011719 201.574219 215.675781 201.40625 215.300781 201.304688 C 214.996094 201.234375 214.6875 201.203125 214.382812 201.203125 C 214.519531 201.40625 214.65625 201.644531 214.789062 201.847656 C 215.402344 202.527344 215.878906 203.273438 216.488281 203.953125 C 217 204.5625 217.609375 205.109375 218.085938 205.71875 C 218.59375 206.398438 219.308594 206.875 219.785156 207.554688 C 220.089844 208.0625 220.496094 208.503906 220.9375 208.878906 C 221.753906 209.523438 222.535156 210.203125 223.316406 210.882812 C 223.382812 210.949219 223.484375 211.019531 223.554688 211.085938 C 224.132812 211.832031 224.980469 212.207031 225.726562 212.75 C 226.269531 213.15625 226.78125 213.597656 227.289062 214.007812 C 227.800781 214.414062 228.410156 214.855469 228.988281 215.230469 C 230.144531 215.941406 231.296875 216.722656 232.519531 217.335938 C 233.199219 217.675781 233.742188 218.285156 234.558594 218.386719 C 234.59375 218.386719 234.660156 218.421875 234.695312 218.457031 C 235.949219 219.339844 237.410156 219.78125 238.769531 220.425781 C 239.925781 220.96875 241.113281 221.410156 242.300781 221.851562 C 243.898438 222.464844 245.597656 222.835938 247.195312 223.414062 C 248.925781 223.992188 250.726562 224.433594 252.527344 224.773438 C 254.429688 225.214844 256.363281 225.417969 258.300781 225.417969 C 259.011719 225.417969 259.691406 225.417969 260.40625 225.417969 C 260.746094 225.386719 261.085938 225.589844 261.222656 225.894531 C 261.324219 226.0625 261.425781 226.234375 261.5625 226.371094 C 262.375 227.355469 261.902344 228.917969 260.472656 229.394531 C 259.453125 229.699219 258.367188 229.765625 257.316406 229.628906 C 256.535156 229.527344 255.785156 229.460938 255.003906 229.425781 C 253.816406 229.359375 252.660156 229.222656 251.507812 228.953125 C 250.964844 228.816406 250.386719 228.746094 249.84375 228.613281 C 249.300781 228.476562 248.652344 228.238281 248.078125 228.066406 C 246.921875 227.761719 245.765625 227.457031 244.613281 227.152344 C 244.441406 227.117188 244.273438 226.980469 244.101562 226.945312 C 243.253906 226.675781 242.40625 226.4375 241.554688 226.167969 C 240.875 225.929688 240.230469 225.621094 239.550781 225.386719 C 238.667969 225.046875 237.71875 224.738281 236.867188 224.332031 C 235.714844 223.824219 234.59375 223.210938 233.472656 222.632812 C 232.351562 222.054688 231.195312 221.511719 230.074219 220.867188 C 229.054688 220.289062 228.070312 219.644531 227.085938 219 C 225.964844 218.253906 224.84375 217.503906 223.722656 216.722656 C 223.113281 216.28125 222.601562 215.773438 222.027344 215.296875 C 221.855469 215.160156 221.6875 215.027344 221.515625 214.890625 C 220.394531 214.140625 219.34375 213.257812 218.425781 212.242188 C 218.019531 211.800781 217.507812 211.460938 217.101562 211.019531 C 216.660156 210.644531 216.285156 210.238281 215.945312 209.761719 C 215.777344 209.523438 215.539062 209.285156 215.300781 209.082031 C 215.0625 208.878906 214.824219 208.675781 214.65625 208.402344 C 214.144531 207.382812 213.230469 206.738281 212.515625 205.890625 C 211.699219 204.902344 210.917969 203.886719 210.207031 202.832031 C 209.628906 201.984375 209.1875 201.101562 208.574219 200.285156 C 208.335938 199.980469 207.996094 199.773438 207.660156 199.640625 C 206.945312 199.367188 206.199219 199.199219 205.449219 198.992188 C 205.042969 198.859375 204.636719 198.722656 204.226562 198.585938 C 203.546875 198.382812 202.902344 198.179688 202.222656 197.941406 C 201.339844 197.636719 200.492188 197.261719 199.609375 196.921875 C 198.453125 196.445312 197.265625 195.9375 196.144531 195.394531 C 195.261719 194.984375 194.410156 194.476562 193.527344 194 C 192.578125 193.457031 191.59375 192.949219 190.640625 192.371094 C 189.621094 191.757812 188.605469 191.082031 187.617188 190.433594 C 186.566406 189.722656 185.480469 189.007812 184.460938 188.261719 C 183.578125 187.617188 182.796875 186.867188 181.878906 186.324219 C 180.859375 185.714844 180.042969 184.832031 179.058594 184.183594 C 178.6875 183.914062 178.347656 183.609375 178.039062 183.269531 C 177.257812 182.554688 176.476562 181.839844 175.730469 181.128906 C 174.746094 180.175781 173.796875 179.191406 172.878906 178.207031 C 172.605469 177.867188 172.367188 177.527344 172.164062 177.121094 C 171.722656 177.222656 171.316406 177.289062 170.90625 177.390625 C 170.125 177.597656 169.34375 177.800781 168.566406 178.003906 C 167.917969 178.140625 167.273438 178.207031 166.628906 178.308594 C 165.914062 178.480469 165.203125 178.582031 164.488281 178.648438 C 163.742188 178.648438 163.0625 179.023438 162.28125 178.820312 C 162.179688 178.785156 162.042969 178.886719 161.941406 178.921875 C 161.261719 179.160156 160.515625 179.160156 159.800781 179.191406 C 158.882812 179.292969 157.933594 179.292969 157.015625 179.226562 C 156.847656 179.226562 156.609375 179.464844 156.472656 179.429688 C 155.964844 179.160156 155.488281 179.566406 154.945312 179.464844 C 154.433594 179.429688 153.890625 179.429688 153.382812 179.53125 C 152.90625 179.566406 152.464844 179.53125 151.988281 179.601562 C 151.140625 179.632812 150.257812 179.601562 149.40625 179.53125 C 147.234375 179.429688 145.09375 178.988281 142.953125 178.582031 C 142.277344 178.410156 141.597656 178.242188 140.917969 178.003906 C 140.304688 177.832031 139.660156 177.664062 139.046875 177.425781 C 137.488281 176.847656 135.855469 176.40625 134.394531 175.558594 C 133.308594 174.914062 132.121094 174.472656 130.964844 173.859375 C 129.980469 173.382812 129.027344 172.808594 128.144531 172.128906 C 127.601562 171.789062 127.058594 171.449219 126.480469 171.175781 C 126.242188 171.039062 125.972656 170.871094 125.734375 170.699219 C 124.410156 169.75 123.085938 168.765625 121.761719 167.847656 C 120.4375 166.929688 119.144531 166.117188 117.886719 165.199219 C 116.191406 163.941406 114.558594 162.617188 113.472656 160.785156 C 113.066406 159.96875 112.761719 159.253906 112.625 158.507812 Z M 228.105469 197.5 C 228.820312 197.363281 229.703125 197.195312 230.550781 197.125 C 232.113281 196.988281 233.574219 196.480469 235.066406 196.140625 C 235.714844 195.9375 236.359375 195.699219 236.96875 195.425781 C 237.445312 195.222656 237.921875 194.984375 238.429688 194.816406 C 238.667969 194.75 238.90625 194.613281 239.109375 194.476562 C 239.789062 194 240.535156 193.628906 241.25 193.1875 C 241.757812 192.878906 242.269531 192.539062 242.746094 192.199219 C 243.355469 191.691406 243.898438 191.148438 244.441406 190.570312 C 244.984375 189.992188 245.460938 189.382812 245.9375 188.738281 C 246.140625 188.429688 246.34375 188.089844 246.480469 187.71875 C 246.886719 186.835938 247.429688 185.984375 247.667969 185.035156 C 248.144531 183.199219 248.347656 181.332031 248.3125 179.464844 C 248.246094 178.308594 248.078125 177.15625 247.703125 176.066406 C 247.261719 174.472656 246.683594 172.941406 245.972656 171.480469 C 245.460938 170.496094 244.851562 169.582031 244.101562 168.730469 C 243.117188 167.609375 242.03125 166.558594 240.945312 165.539062 C 239.722656 164.351562 238.363281 163.332031 236.867188 162.515625 C 235.816406 161.9375 234.726562 161.429688 233.609375 160.988281 C 232.589844 160.613281 231.5 160.445312 230.484375 160.070312 C 229.90625 159.867188 229.292969 159.695312 228.648438 159.59375 C 228.171875 159.527344 227.699219 159.527344 227.222656 159.492188 C 226.542969 159.425781 225.828125 159.355469 225.148438 159.289062 C 224.8125 159.253906 224.472656 159.253906 224.132812 159.289062 C 223.824219 159.289062 223.453125 159.425781 223.179688 159.289062 C 222.839844 159.152344 222.570312 159.355469 222.261719 159.355469 C 221.957031 159.390625 221.652344 159.425781 221.347656 159.527344 C 220.699219 159.59375 220.054688 159.664062 219.410156 159.730469 C 218.019531 159.933594 216.691406 160.375 215.4375 160.988281 C 215.027344 161.191406 214.65625 161.429688 214.28125 161.699219 C 212.617188 162.753906 210.886719 163.738281 209.558594 165.265625 C 208.914062 165.945312 208.335938 166.691406 207.894531 167.507812 C 207.660156 167.984375 207.421875 168.460938 207.113281 168.902344 C 206.84375 169.273438 206.671875 169.683594 206.570312 170.125 C 206.433594 170.804688 206.164062 171.449219 205.992188 172.128906 C 205.789062 172.738281 205.65625 173.382812 205.550781 174.03125 C 205.449219 175.046875 205.382812 176.066406 205.347656 177.121094 C 205.347656 177.664062 205.382812 178.242188 205.449219 178.785156 C 205.519531 179.734375 205.621094 180.6875 205.722656 181.636719 C 205.757812 181.839844 205.992188 182.046875 205.960938 182.214844 C 205.859375 183.269531 206.332031 184.253906 206.503906 185.273438 C 206.671875 186.054688 206.878906 186.835938 207.148438 187.582031 C 207.386719 188.398438 207.625 189.246094 207.828125 190.09375 C 208.574219 190.570312 208.132812 191.65625 208.847656 192.132812 C 208.914062 192.167969 208.914062 192.304688 208.949219 192.40625 C 209.050781 192.640625 209.152344 192.878906 209.253906 193.117188 C 209.527344 193.628906 209.867188 194.136719 210.105469 194.679688 C 210.445312 195.460938 210.886719 196.074219 211.800781 196.207031 C 212.71875 196.34375 213.738281 196.546875 214.6875 196.753906 C 215.164062 196.855469 215.640625 196.988281 216.082031 197.058594 C 217.238281 197.195312 218.390625 197.296875 219.546875 197.429688 C 220.429688 197.5 221.3125 197.601562 222.195312 197.636719 C 223.078125 197.667969 223.925781 197.566406 224.777344 197.566406 C 225.898438 197.464844 226.949219 197.5 228.105469 197.5 Z M 173.558594 171.71875 C 174.644531 171.109375 175.664062 170.597656 176.613281 170.054688 C 177.191406 169.683594 177.769531 169.273438 178.3125 168.867188 C 178.992188 168.390625 179.601562 167.8125 180.078125 167.136719 C 180.65625 166.21875 181.640625 165.605469 181.914062 164.484375 C 182.558594 163.875 182.695312 162.992188 183.035156 162.210938 C 183.101562 162.074219 183 161.871094 183.066406 161.800781 C 183.476562 161.394531 183.507812 160.886719 183.679688 160.375 C 183.949219 159.695312 184.1875 158.984375 184.390625 158.269531 C 184.628906 157.351562 184.765625 156.402344 184.832031 155.484375 C 184.867188 154.160156 184.390625 152.902344 183.476562 151.953125 C 182.761719 151.171875 182.046875 150.425781 180.996094 150.015625 C 180.148438 149.644531 179.195312 149.472656 178.277344 149.472656 C 177.191406 149.539062 176.140625 149.8125 175.121094 150.21875 C 174.066406 150.660156 173.148438 151.375 172.402344 152.222656 C 171.996094 152.632812 171.621094 153.074219 171.347656 153.582031 C 170.875 154.601562 170.195312 155.585938 170.023438 156.742188 C 169.890625 157.554688 169.617188 158.335938 169.550781 159.152344 C 169.480469 160.136719 169.480469 161.121094 169.582031 162.074219 C 169.652344 163.332031 169.921875 164.554688 170.332031 165.707031 C 170.601562 166.457031 170.90625 167.167969 171.246094 167.882812 C 171.554688 168.460938 171.925781 168.96875 172.265625 169.511719 C 172.402344 169.75 172.503906 169.988281 172.640625 170.226562 C 172.910156 170.734375 173.21875 171.210938 173.558594 171.71875 Z M 173.558594 171.71875 " fill-opacity="1" fill-rule="nonzero"/></g></svg>