<svg xmlns="http://www.w3.org/2000/svg" xmlns:xlink="http://www.w3.org/1999/xlink" width="500" zoomAndPan="magnify" viewBox="0 0 375 374.999991" height="500" preserveAspectRatio="xMidYMid meet" version="1.2"><defs><clipPath id="5683e3ebfd"><path d="M 1 7.03125 L 375 7.03125 L 375 367.78125 L 1 367.78125 Z M 1 7.03125 "/></clipPath></defs><g id="e1a3259212"><g clip-rule="nonzero" clip-path="url(#5683e3ebfd)"><path style=" stroke:none;fill-rule:nonzero;fill:#c2fcf7;fill-opacity:1;" d="M 1.414062 196.730469 C 0.347656 221.214844 4.175781 244.03125 12.40625 266.042969 C 20.714844 288.261719 33.945312 307.039062 52.441406 322.148438 C 75.179688 340.667969 101.589844 351.265625 129.511719 358.796875 C 142.746094 362.363281 156.316406 364.03125 169.808594 366.167969 C 173.480469 366.738281 177.28125 366.324219 181.035156 366.425781 C 184.964844 366.53125 188.925781 366.035156 192.808594 367.363281 C 193.746094 367.675781 194.917969 367.730469 195.90625 367.496094 C 203.71875 365.644531 211.691406 367.027344 219.503906 366.296875 C 240.835938 364.316406 261.726562 360.617188 281.574219 351.945312 C 305.5625 341.449219 323.847656 324.59375 338.929688 303.601562 C 354.039062 282.554688 364.480469 259.476562 370.367188 234.289062 C 372.164062 226.632812 373.207031 218.871094 373.910156 210.980469 C 374.535156 203.710938 374.980469 196.496094 374.875 189.230469 C 374.640625 170.890625 371.878906 152.945312 366.90625 135.285156 C 361.488281 116.117188 353.28125 98.300781 341.585938 82.125 C 338.410156 77.75 335.152344 73.449219 331.324219 69.621094 C 320.304688 58.605469 309.496094 47.457031 296.03125 39.121094 C 274.175781 25.601562 250.65625 16.746094 225.679688 11.40625 C 209.945312 8.074219 194.03125 7.058594 178.011719 7.761719 C 168.894531 8.175781 159.910156 9.949219 151.027344 11.796875 C 137.820312 14.558594 124.824219 18.101562 112.085938 22.605469 C 90.207031 30.316406 70.386719 41.335938 54.679688 58.761719 C 45.070312 69.414062 36.785156 81.160156 29.257812 93.351562 C 18.5 110.800781 10.296875 129.375 5.972656 149.507812 C 2.558594 165.398438 0.347656 181.363281 1.414062 196.730469 Z M 1.414062 196.730469 "/></g><path style=" stroke:none;fill-rule:nonzero;fill:#fff789;fill-opacity:1;" d="M 224.140625 283.414062 C 219.0625 278.933594 213.332031 275.730469 206.847656 273.855469 C 206.066406 273.621094 205.152344 273.386719 204.632812 272.867188 C 197.625 265.78125 188.117188 264.609375 179.183594 262.1875 C 174.261719 260.859375 169.105469 264.167969 168.765625 269.0625 C 168.191406 277.582031 168.269531 286.046875 172.464844 293.964844 C 176.242188 301.101562 179.3125 303.054688 187.335938 302.507812 C 188.378906 302.429688 189.394531 302.324219 190.410156 302.117188 C 194.03125 301.335938 197.496094 298.546875 201.039062 299.226562 C 204.527344 299.902344 207.523438 302.429688 211.351562 303.082031 C 214.6875 303.628906 216.484375 307.117188 218.4375 309.773438 C 220.652344 312.769531 222.472656 316.078125 225.339844 318.550781 C 229.167969 321.886719 233.699219 322.746094 237.191406 319.332031 C 245.996094 310.738281 254.277344 301.597656 253.730469 287.972656 C 253.339844 278.492188 246.253906 273.492188 237.035156 275.914062 C 232.058594 277.214844 228.308594 280.472656 224.140625 283.390625 Z M 224.140625 283.414062 "/><path style=" stroke:none;fill-rule:nonzero;fill:#fff789;fill-opacity:1;" d="M 114.875 72.667969 C 113.546875 72.722656 112.375 73.292969 111.617188 74.285156 C 107.894531 78.972656 102.710938 81.605469 97.371094 83.6875 C 94.324219 84.886719 94.246094 86.5 95.078125 88.921875 C 97.03125 94.628906 98.179688 100.488281 98.804688 106.453125 C 99.039062 108.71875 100.105469 110.410156 102.269531 111.167969 C 104.144531 111.816406 105.472656 110.515625 106.511719 109.238281 C 110.289062 104.628906 115.1875 101.765625 120.527344 99.261719 C 125.527344 96.945312 125.65625 95.539062 121.984375 91.65625 C 119.511719 89.054688 118.546875 86.136719 118.78125 82.621094 C 118.9375 80.351562 118.964844 78.0625 118.78125 75.796875 C 118.597656 73.527344 117.035156 72.667969 114.902344 72.695312 Z M 114.875 72.667969 "/><path style=" stroke:none;fill-rule:nonzero;fill:#000000;fill-opacity:1;" d="M 244.613281 171.597656 C 238.15625 169.277344 232.136719 167.140625 225.886719 164.902344 C 229.558594 135.46875 220.234375 112.910156 191.894531 101.609375 C 170.902344 93.246094 146.964844 99.523438 132.949219 116.84375 C 114.117188 140.132812 115.839844 164.171875 133.316406 188.292969 C 117.21875 188.839844 105.707031 197.617188 94.765625 207.332031 C 82.367188 218.324219 72.210938 231.242188 63.640625 245.386719 C 62.335938 247.546875 59.914062 249.972656 63.144531 252.417969 C 65.046875 253.878906 66.871094 252.785156 69.265625 248.902344 C 77.054688 236.246094 85.882812 224.367188 96.980469 214.496094 C 103.152344 209 110.03125 204.234375 116.957031 199.675781 C 120.160156 197.566406 124.148438 196.339844 127.949219 195.480469 C 135.269531 193.839844 140.503906 197.382812 141.207031 204.832031 C 141.703125 209.9375 141.441406 215.300781 140.375 220.277344 C 136.832031 236.84375 128.628906 251.300781 119.199219 265.15625 C 118.15625 266.691406 116.855469 268.203125 116.332031 269.921875 C 115.996094 271.015625 116.542969 273.046875 117.375 273.621094 C 118.234375 274.195312 120.003906 273.648438 121.28125 273.257812 C 121.960938 273.046875 122.453125 272.109375 122.921875 271.460938 C 133.394531 256.796875 142.144531 241.269531 146.546875 223.613281 C 148.320312 216.5 149.4375 209.3125 147.667969 201.992188 C 147.484375 201.238281 147.667969 200.378906 147.667969 199.023438 C 162.332031 206.082031 177.074219 207.515625 192.101562 201.886719 C 206.949219 196.339844 217.132812 185.84375 223.488281 170.890625 C 230.3125 173.183594 236.902344 175.425781 244.042969 177.820312 C 243.808594 195.664062 249.5625 211.160156 263.96875 222.671875 C 274.699219 231.242188 287.019531 234.679688 300.691406 233.925781 C 325.4375 232.570312 346.351562 211.863281 348.75 186.15625 C 351.144531 160.371094 333.851562 136.875 308.273438 130.625 C 287.382812 125.519531 255.242188 134.714844 244.667969 171.570312 Z M 220.128906 151.566406 C 220.207031 177.535156 199.421875 198.605469 173.585938 198.761719 C 147.851562 198.917969 126.542969 177.847656 126.386719 152.085938 C 126.230469 126.195312 147.09375 105.097656 172.984375 104.941406 C 198.71875 104.785156 220.027344 125.855469 220.128906 151.539062 Z M 250.917969 181.625 C 250.996094 156.253906 271.15625 136.277344 296.65625 136.328125 C 321.792969 136.378906 342.160156 156.90625 342.109375 182.117188 C 342.054688 207.175781 321.375 227.621094 296.238281 227.519531 C 271.128906 227.414062 250.839844 206.863281 250.945312 181.597656 Z M 250.917969 181.625 "/><path style=" stroke:none;fill-rule:nonzero;fill:#000000;fill-opacity:1;" d="M 199.5 303.105469 C 205.597656 305.789062 210.441406 307.925781 215.285156 310.035156 L 215.753906 309.125 C 217.628906 311.832031 219.324219 314.722656 221.433594 317.222656 C 228.648438 325.714844 238.46875 326.132812 245.550781 317.691406 C 253.9375 307.71875 257.402344 295.789062 256.152344 282.816406 C 255.449219 275.550781 249.25 271.433594 241.539062 272.996094 C 236.097656 274.117188 230.835938 276.226562 224.921875 278.050781 C 220.808594 275.417969 216.066406 272.476562 210.128906 272.371094 C 208.824219 272.371094 207.445312 270.730469 206.300781 269.664062 C 198.773438 262.578125 189.890625 258.359375 179.679688 257.160156 C 171.371094 256.195312 166.65625 259.789062 165.015625 268.023438 C 163.347656 276.277344 163.453125 284.585938 165.144531 292.816406 C 166.863281 301.179688 170.535156 304.695312 178.976562 305.503906 C 182.648438 305.867188 186.453125 305.582031 190.125 305.113281 C 193.613281 304.667969 197 303.652344 199.5 303.082031 Z M 199.421875 295.605469 C 193.042969 298.367188 186.945312 299.355469 180.617188 298.964844 C 174.703125 298.601562 172.90625 297.21875 171.683594 291.4375 C 170.199219 284.457031 170.199219 277.398438 171.34375 270.339844 C 172.308594 264.425781 174.234375 262.941406 180.304688 263.75 C 187.46875 264.6875 193.875 267.605469 199.605469 271.929688 C 203.953125 275.210938 204.996094 277.738281 200.414062 282.6875 C 197.886719 282.113281 195.28125 281.4375 192.652344 280.914062 C 190.566406 280.496094 188.171875 280.160156 187.46875 282.789062 C 186.710938 285.601562 189.054688 286.175781 191.113281 286.722656 C 194.058594 287.53125 197 288.390625 200.046875 289.277344 C 199.8125 291.644531 199.605469 293.46875 199.398438 295.605469 Z M 221.433594 304.851562 C 223.074219 301.726562 224.480469 299.042969 226.148438 295.890625 C 228.933594 297.609375 231.253906 298.9375 233.441406 300.398438 C 235.082031 301.492188 236.878906 302.585938 238.390625 300.710938 C 240.054688 298.652344 238.804688 296.621094 237.007812 295.398438 C 234.457031 293.652344 231.644531 292.296875 228.960938 290.734375 C 228.464844 290.449219 228.046875 289.980469 227.421875 289.433594 C 227.554688 287.660156 227.710938 285.835938 227.867188 283.597656 C 232.738281 282.0625 237.398438 280.210938 242.242188 279.144531 C 246.878906 278.101562 249.847656 280.289062 249.925781 284.847656 C 250.109375 295.34375 247.296875 305.058594 240.578125 313.238281 C 236.433594 318.292969 230.964844 318.109375 226.71875 313.082031 C 224.609375 310.582031 223.152344 307.5625 221.433594 304.851562 Z M 205.648438 293.730469 C 206.507812 289.902344 207.316406 286.070312 208.253906 282.269531 C 208.980469 279.324219 210.804688 278.335938 213.851562 279.167969 C 220.597656 281.019531 222.65625 284.351562 220.675781 291.152344 C 219.921875 293.703125 218.800781 296.203125 217.523438 298.546875 C 214.921875 303.367188 213.304688 303.550781 208.722656 300.761719 C 205.804688 299.015625 205.726562 296.59375 205.675781 293.703125 Z M 205.648438 293.730469 "/><path style=" stroke:none;fill-rule:nonzero;fill:#000000;fill-opacity:1;" d="M 98.855469 123.539062 C 100.730469 122.027344 102.113281 121.195312 103.179688 120.023438 C 105.574219 117.417969 107.710938 114.605469 110.109375 112 C 114.71875 106.972656 120.136719 103.429688 126.984375 102 C 132.714844 100.800781 133.574219 98.144531 129.566406 93.976562 C 122.53125 86.65625 120.082031 78.0625 121.621094 68.1875 C 121.726562 67.5625 122.089844 66.859375 121.90625 66.367188 C 121.464844 65.089844 120.941406 63.058594 120.136719 62.902344 C 118.808594 62.667969 116.542969 63.1875 115.890625 64.179688 C 109.796875 73.554688 100.496094 77.773438 90.285156 80.769531 C 84.632812 82.410156 84.582031 83.480469 87.941406 88.507812 C 92.8125 95.773438 94.714844 104.054688 95.128906 112.703125 C 95.207031 114.578125 94.714844 116.585938 95.261719 118.277344 C 95.835938 120.023438 97.34375 121.457031 98.828125 123.539062 Z M 121.804688 97.023438 C 113.753906 99.082031 108.152344 104.992188 102.476562 110.4375 C 99.921875 102.023438 97.578125 94.367188 95.261719 86.761719 C 101.746094 83.296875 108.207031 79.859375 114.015625 76.785156 C 116.515625 83.296875 119.015625 89.78125 121.804688 97.023438 Z M 121.804688 97.023438 "/><path style=" stroke:none;fill-rule:nonzero;fill:#000000;fill-opacity:1;" d="M 236.253906 235.382812 C 238.675781 234.679688 243.257812 233.484375 247.714844 231.945312 C 249.71875 231.242188 251.515625 229.679688 250.421875 227.179688 C 249.355469 224.730469 247.269531 224.785156 245.1875 225.878906 C 231.304688 233.09375 216.953125 225.488281 209.269531 214.730469 C 208.433594 213.558594 207.652344 212.203125 206.507812 211.421875 C 205.648438 210.847656 203.824219 210.511719 203.199219 211.03125 C 202.289062 211.785156 201.84375 213.324219 201.585938 214.625 C 201.453125 215.277344 202.105469 216.160156 202.574219 216.839844 C 210.128906 227.910156 220 235.046875 236.277344 235.4375 Z M 236.253906 235.382812 "/><path style=" stroke:none;fill-rule:nonzero;fill:#000000;fill-opacity:1;" d="M 177.804688 148.308594 C 171.941406 155.421875 168.894531 162.816406 168.269531 171.125 C 168.089844 173.574219 168.21875 176.179688 168.871094 178.523438 C 170.121094 183.03125 174.3125 184.699219 178.195312 182.171875 C 180.382812 180.738281 182.285156 178.578125 183.691406 176.363281 C 187.46875 170.5 189.367188 163.9375 189.992188 156.984375 C 190.148438 155.265625 190.671875 153.390625 191.582031 151.929688 C 193.144531 149.378906 191.921875 147.972656 189.914062 146.902344 C 187.726562 145.730469 185.332031 144.921875 183.089844 143.804688 C 177.125 140.835938 171.214844 137.785156 165.273438 134.792969 C 164.15625 134.21875 163.085938 133.230469 161.941406 133.175781 C 160.71875 133.152344 159.101562 133.699219 158.320312 134.582031 C 157.824219 135.128906 158.136719 137.136719 158.789062 137.839844 C 160.039062 139.167969 161.679688 140.210938 163.320312 141.070312 C 167.90625 143.492188 172.59375 145.730469 177.777344 148.335938 Z M 177.804688 148.308594 "/><path style=" stroke:none;fill-rule:nonzero;fill:#000000;fill-opacity:1;" d="M 298.453125 173.707031 C 303.167969 173.289062 307.101562 172.925781 311.007812 172.585938 C 312.648438 172.429688 314.445312 172.585938 315.90625 171.988281 C 317.023438 171.542969 318.429688 170.109375 318.429688 169.121094 C 318.429688 168.210938 316.867188 166.804688 315.75 166.515625 C 314.003906 166.074219 312.050781 166.359375 310.175781 166.4375 C 302.308594 166.75 294.414062 167.117188 286.550781 167.429688 C 282.015625 167.609375 281.601562 168.234375 282.433594 172.480469 C 282.773438 174.175781 282.433594 176.023438 282.226562 177.796875 C 281.601562 183.550781 280.375 189.28125 280.351562 195.039062 C 280.296875 200.925781 282.957031 204.726562 286.261719 204.804688 C 291.109375 204.910156 293.269531 201.105469 294.363281 197.410156 C 296.1875 191.289062 297.175781 184.933594 298.402344 178.628906 C 298.660156 177.246094 298.453125 175.789062 298.453125 173.707031 Z M 298.453125 173.707031 "/></g></svg>