<svg xmlns="http://www.w3.org/2000/svg" xmlns:xlink="http://www.w3.org/1999/xlink" width="500" zoomAndPan="magnify" viewBox="0 0 375 374.999991" height="500" preserveAspectRatio="xMidYMid meet" version="1.2"><g id="07a751368e"><path style=" stroke:none;fill-rule:nonzero;fill:#5e3528;fill-opacity:1;" d="M 306.019531 249.695312 C 316.113281 250.328125 327.003906 249.097656 336.152344 254.308594 C 343.941406 258.558594 347.894531 268.269531 345.578125 276.785156 C 343.417969 285.160156 337.921875 291.980469 330.839844 296.792969 C 321.03125 303.503906 308.910156 307.398438 297.335938 309.691406 C 287.503906 311.699219 277.988281 311.398438 268.011719 311.019531 C 260.453125 310.707031 252.925781 309.90625 245.535156 308.246094 C 235.320312 305.964844 224.355469 306.3125 214.085938 308.078125 C 201.175781 310.335938 188.070312 314.351562 174.847656 313.707031 C 162.246094 312.976562 150.089844 308.378906 139.507812 301.617188 C 136.59375 299.707031 134.097656 296.804688 131.71875 294.273438 C 128.339844 295.074219 124.957031 295.871094 121.578125 296.683594 C 123.777344 304.507812 124.085938 313.707031 119.546875 320.789062 C 116.871094 325.316406 111.820312 327.800781 107.257812 330.042969 C 94.8125 335.683594 81.671875 339.613281 68.210938 341.976562 C 62.46875 342.96875 56.867188 341.929688 51.667969 339.359375 C 41.148438 334.226562 32.917969 325.171875 26.289062 315.722656 C 11.765625 294.90625 4 269.859375 1.398438 244.765625 C 0 228.386719 0.992188 210.84375 7.355469 195.507812 C 8.191406 193.214844 10.628906 192.246094 12.578125 191.085938 C 24.378906 184.816406 37.457031 180.503906 50.058594 176.097656 C 56.664062 173.898438 64.390625 170.804688 71.414062 172.417969 C 75.199219 174.136719 78.507812 177.136719 81.851562 179.585938 C 82.699219 173.769531 83.238281 168.261719 85.699219 162.828125 C 88.21875 157.285156 91.394531 151.828125 94.929688 146.871094 C 102.671875 136.300781 112.574219 129.335938 121.722656 119.914062 C 129.535156 111.886719 137 103.894531 142.386719 93.980469 C 152.082031 80.089844 157.089844 64.039062 166.476562 50.003906 C 169.988281 44.316406 174.179688 39.324219 180.246094 36.269531 C 188.488281 32.039062 199.65625 32.363281 207.121094 38.144531 C 213.378906 43.003906 217.035156 50.027344 218.863281 57.625 C 222.101562 70.964844 219.855469 85.011719 215.636719 97.863281 C 213.796875 103.8125 210.824219 109.125 208.066406 114.667969 C 220.523438 105.652344 232.539062 96.035156 243.660156 85.394531 C 258.039062 72.804688 269.816406 59.523438 285.894531 48.761719 C 292.320312 44.496094 300.261719 43.074219 307.738281 45.082031 C 316.160156 47.828125 322.191406 55.59375 323.160156 64.347656 C 324.496094 75.800781 319.933594 87.449219 313.589844 96.789062 C 307.117188 106.703125 298.863281 114.621094 290.695312 123.054688 C 305.542969 115.625 321.308594 104.207031 337.660156 100.671875 C 347.070312 98.582031 359.363281 99.691406 366.398438 107 C 373.71875 114.96875 373.585938 126.289062 369.335938 135.726562 C 364.234375 147.457031 354.378906 154.898438 344.335938 162.183594 C 327.316406 174.019531 306.867188 182.285156 288.113281 190.945312 C 302.066406 188.304688 315.859375 184.578125 329.535156 180.742188 C 337.40625 178.617188 344.597656 176.324219 352.910156 176.875 C 364.390625 177.351562 374.21875 188.089844 374.292969 199.484375 C 374.960938 213.601562 365.25 226.488281 353.617188 233.570312 C 339.726562 242.339844 321.894531 246.328125 306.019531 249.695312 Z M 306.019531 249.695312 "/><path style=" stroke:none;fill-rule:nonzero;fill:#ffe3d4;fill-opacity:1;" d="M 268.859375 248.910156 C 261.671875 250.28125 254.945312 250.855469 248.066406 253.398438 C 254.46875 255.929688 261.695312 256.277344 268.65625 257.363281 C 283.777344 257.460938 298.984375 257.949219 314.070312 258.859375 C 319.777344 259.335938 327.066406 259.71875 331.628906 263.585938 C 333.945312 265.488281 334.554688 268.03125 335.1875 270.8125 C 334.019531 271.945312 332.878906 273.078125 331.734375 274.183594 C 332.878906 273.078125 334.019531 271.945312 335.1875 270.8125 C 334.53125 276.285156 332.320312 280.894531 328.152344 284.539062 C 320.613281 291.15625 309.949219 294.796875 300.371094 297.269531 C 287.136719 300.804688 274.414062 300.148438 260.894531 299.992188 C 247.375 299.503906 233.828125 297.484375 220.285156 297.484375 C 203.753906 297.542969 185.597656 304.617188 169.5 301.234375 C 160.777344 299.421875 151.84375 295.96875 144.894531 290.292969 C 136.925781 283.34375 131.265625 273.65625 128.78125 263.410156 C 126.871094 255.8125 127.074219 248.40625 126.261719 240.738281 C 126.503906 240.308594 126.753906 239.878906 127.003906 239.453125 C 126.753906 239.878906 126.503906 240.308594 126.261719 240.738281 C 123.371094 245.398438 121.613281 250.113281 120.851562 255.550781 C 119.941406 265.308594 121.589844 274.660156 124.984375 283.785156 C 114.769531 287.011719 104.558594 290.105469 94.609375 294.128906 C 85.042969 278.613281 77.957031 261.089844 73.300781 243.496094 C 70.015625 233.488281 67.867188 222.953125 67.410156 212.429688 C 73.96875 211.308594 79.355469 208.261719 85.316406 205.550781 C 88.746094 212.050781 92.363281 216.074219 98.503906 220.109375 C 96.449219 211.070312 92.839844 202.898438 92.566406 193.453125 C 91.5625 181.9375 94.144531 171.617188 100.484375 161.992188 C 108.976562 147.789062 121.21875 140.003906 132.125 127.914062 C 141.679688 117.953125 149.242188 106.59375 156.324219 94.792969 C 165.785156 80.519531 170.167969 65.78125 180.691406 52.25 C 183.519531 48.714844 187.257812 46.875 191.714844 46.242188 C 196.242188 45.882812 200.375 48.257812 202.796875 52.011719 C 207.671875 59.285156 208.386719 68.839844 207.742188 77.332031 C 206.308594 92.964844 200.339844 108.195312 190.007812 120.089844 C 185.097656 125.992188 179.496094 131.976562 176.867188 139.296875 C 175.507812 143.453125 173.75 146.988281 174.980469 151.480469 C 179.902344 173.566406 181.285156 197.5625 171.601562 218.605469 C 176.484375 213.242188 180.582031 207.285156 183.304688 200.535156 C 190.113281 182.691406 190.6875 163.042969 184.59375 144.910156 C 195.058594 139.691406 204.101562 132.550781 213.453125 125.644531 C 222.804688 118.621094 232.144531 111.8125 240.996094 104.207031 C 253 93.539062 264.847656 82.707031 276.46875 71.621094 C 282.726562 66.558594 288.925781 60.097656 296.355469 56.859375 C 301.347656 54.902344 305.207031 56.238281 309.101562 59.59375 C 313.199219 66.390625 312.363281 73.988281 309.984375 81.203125 C 306.902344 90.101562 300.8125 98.339844 294.792969 105.484375 C 278.152344 125.023438 256.882812 141.722656 236.027344 156.558594 C 233.554688 158.359375 230.785156 160.128906 228.71875 162.398438 C 229.230469 163.734375 229.898438 165.011719 230.53125 166.304688 C 235.144531 163.890625 239.742188 161.40625 244.183594 158.695312 C 247.578125 156.089844 251.078125 153.640625 254.671875 151.324219 C 260.367188 147.632812 266.734375 145.28125 272.585938 141.792969 C 286.847656 133.335938 302.304688 126.542969 317.402344 119.695312 C 326.660156 115.753906 337.886719 110.644531 348.109375 111.730469 C 351.8125 112.316406 356.003906 112.972656 358.5 116.089844 C 361.226562 119.433594 361.261719 124.261719 360.414062 128.285156 C 358.644531 135.796875 353.855469 141.878906 348.289062 147.023438 C 334.21875 160.269531 315.800781 169.777344 298.699219 178.640625 C 285.570312 185.101562 272.359375 191.742188 258.804688 197.261719 C 254.300781 199.113281 249.796875 200.953125 245.546875 203.355469 C 247.433594 204.296875 249.128906 205.324219 251.292969 205.445312 C 258.085938 205.933594 265.085938 204.558594 271.871094 203.976562 C 271.207031 204.238281 270.539062 204.503906 269.875 204.78125 C 270.539062 204.503906 271.207031 204.238281 271.871094 203.976562 C 293.824219 200.09375 315.644531 196.210938 337.253906 190.800781 C 343.679688 189.449219 350.917969 187.3125 357.117188 190.539062 C 357.078125 191.070312 357.039062 191.597656 357.003906 192.121094 C 357.039062 191.597656 357.078125 191.070312 357.117188 190.539062 C 359.433594 192.808594 361.570312 195.125 362.097656 198.46875 C 363.21875 206.113281 359.515625 213.386719 354.40625 218.820312 C 346.878906 226.726562 336.464844 231.242188 326.417969 235.015625 C 307.597656 242.066406 288.519531 245.253906 268.859375 248.910156 Z M 323.496094 280.921875 C 322.476562 281.554688 321.410156 282.132812 320.28125 282.652344 C 321.410156 282.132812 322.476562 281.554688 323.496094 280.921875 Z M 111.316406 202.386719 C 111.671875 203.433594 112.089844 204.457031 112.558594 205.453125 C 112.089844 204.457031 111.671875 203.433594 111.316406 202.386719 Z M 119.5 268.089844 C 118.417969 268.710938 117.257812 269.195312 116.039062 269.550781 C 117.257812 269.195312 118.417969 268.710938 119.5 268.089844 C 119.617188 267.851562 119.722656 267.601562 119.816406 267.34375 C 119.722656 267.601562 119.617188 267.851562 119.5 268.089844 Z M 130.140625 219.691406 C 129.871094 219.871094 129.597656 220.046875 129.328125 220.222656 C 129.597656 220.046875 129.871094 219.871094 130.140625 219.691406 Z M 133.726562 148.625 C 132.847656 149.734375 131.953125 150.800781 131.050781 151.835938 C 131.953125 150.800781 132.847656 149.734375 133.726562 148.625 C 134.964844 147.085938 136.238281 145.574219 137.535156 144.085938 C 136.238281 145.574219 134.964844 147.085938 133.726562 148.625 Z M 149.527344 130.996094 C 147.519531 133.171875 145.496094 135.328125 143.484375 137.5 C 145.496094 135.328125 147.519531 133.171875 149.527344 130.996094 C 150.121094 130.355469 150.703125 129.703125 151.269531 129.046875 C 150.703125 129.703125 150.121094 130.355469 149.527344 130.996094 Z M 284.359375 103.105469 C 282.679688 104.917969 280.960938 106.695312 279.207031 108.433594 C 280.960938 106.695312 282.679688 104.917969 284.359375 103.105469 Z M 273.75 113.582031 C 272.09375 115.074219 270.40625 116.53125 268.6875 117.953125 C 270.40625 116.53125 272.09375 115.074219 273.75 113.582031 Z M 352.148438 124.535156 C 352.269531 124.246094 352.371094 123.960938 352.453125 123.675781 C 352.371094 123.960938 352.269531 124.246094 352.148438 124.535156 C 351.976562 124.914062 351.796875 125.289062 351.601562 125.660156 C 351.796875 125.289062 351.976562 124.914062 352.148438 124.535156 Z M 238.101562 277.660156 C 237.8125 278.472656 237.578125 279.300781 237.417969 280.148438 C 237.578125 279.300781 237.8125 278.472656 238.101562 277.660156 Z M 184.082031 219.613281 C 183.75 220.277344 183.421875 220.949219 183.089844 221.617188 C 183.964844 222.082031 184.828125 222.558594 185.679688 223.042969 C 184.828125 222.558594 183.964844 222.082031 183.089844 221.617188 C 183.421875 220.949219 183.75 220.277344 184.082031 219.613281 Z M 193.1875 215.582031 C 193.808594 215.867188 194.417969 216.179688 195.011719 216.515625 C 194.417969 216.179688 193.808594 215.867188 193.1875 215.582031 Z M 188.035156 288.121094 C 186.511719 288.175781 184.984375 288.171875 183.46875 288.113281 C 184.984375 288.171875 186.511719 288.175781 188.035156 288.121094 C 191.859375 288.214844 195.652344 287.96875 199.339844 287.328125 C 195.652344 287.96875 191.859375 288.214844 188.035156 288.121094 Z M 228.933594 175.203125 C 225.382812 168.535156 219.925781 159.804688 211.589844 159.171875 C 217.09375 165.035156 220.464844 173.351562 223.175781 180.828125 C 228.261719 196.089844 231.1875 211.964844 232.191406 228.019531 C 232.8125 238.003906 233.757812 248.574219 231.941406 258.464844 C 234.117188 255.882812 235.203125 252.898438 236.003906 249.660156 C 242.511719 225.246094 240.085938 197.90625 228.933594 175.203125 Z M 240.472656 177.714844 C 240.542969 178.128906 240.617188 178.546875 240.683594 178.964844 C 240.617188 178.546875 240.542969 178.128906 240.472656 177.714844 Z M 240.910156 289.683594 C 240.503906 289.683594 240.140625 289.613281 239.820312 289.492188 C 240.140625 289.613281 240.503906 289.683594 240.910156 289.6875 C 247.492188 290.796875 254.253906 290.941406 260.894531 291.523438 C 262.824219 291.617188 264.746094 291.699219 266.664062 291.765625 C 264.746094 291.699219 262.824219 291.617188 260.894531 291.523438 C 254.253906 290.941406 247.492188 290.796875 240.910156 289.683594 Z M 248.136719 227.683594 C 248.101562 227.417969 248.078125 227.15625 248.066406 226.890625 C 248.078125 227.15625 248.101562 227.417969 248.136719 227.683594 C 248.175781 227.90625 248.222656 228.128906 248.273438 228.355469 C 248.222656 228.128906 248.175781 227.90625 248.136719 227.683594 Z M 354.105469 204.191406 C 354.464844 203.582031 354.773438 202.96875 355.042969 202.351562 C 354.773438 202.96875 354.464844 203.582031 354.105469 204.191406 C 353.140625 205.875 351.949219 207.34375 350.609375 208.640625 C 351.949219 207.34375 353.140625 205.875 354.105469 204.191406 Z M 354.105469 204.191406 "/><path style=" stroke:none;fill-rule:nonzero;fill:#f35695;fill-opacity:1;" d="M 65.953125 188.234375 C 58.488281 192.808594 58.109375 201 57.402344 208.882812 C 56.972656 224.804688 60.53125 241.023438 65.429688 256.109375 C 67.339844 262.371094 70.71875 268.101562 70.480469 274.578125 C 70.421875 281.597656 68.320312 289.410156 63.804688 294.917969 C 58.382812 301.460938 48.839844 302.070312 41.351562 299.335938 C 31.832031 295.074219 26.265625 285.972656 22.261719 276.773438 C 13.949219 258.808594 11.285156 238.027344 13.03125 218.414062 C 13.808594 213.0625 14.761719 206.914062 17.75 202.289062 C 18.726562 200.582031 20.328125 200.210938 22.011719 199.460938 C 36.011719 194.050781 49.84375 188.613281 64.054688 183.765625 C 66.550781 182.679688 68.546875 184.304688 70.792969 185.292969 C 75.128906 187.5625 78.269531 191.050781 81.101562 194.957031 C 76.179688 197.347656 71.199219 199.519531 65.980469 201.15625 C 65.070312 196.808594 65.667969 192.605469 65.953125 188.234375 Z M 50.128906 257.234375 C 44.179688 254.738281 37.132812 256.957031 33.417969 262.128906 C 27.375 270.671875 30.730469 284.261719 40.8125 288.074219 C 48.132812 291.144531 56.636719 287.117188 59.527344 279.890625 C 63.160156 271.316406 58.703125 260.746094 50.128906 257.234375 Z M 50.128906 257.234375 "/><path style=" stroke:none;fill-rule:nonzero;fill:#ffffff;fill-opacity:1;" d="M 50.917969 280.871094 C 47.789062 283.488281 43.1875 282.890625 40.371094 280.117188 C 35.890625 275.972656 35.761719 268.402344 40.273438 264.222656 C 42.832031 261.582031 46.988281 261.316406 50.070312 263.15625 C 56.160156 266.980469 56.472656 276.425781 50.917969 280.871094 Z M 50.917969 280.871094 "/><path style=" stroke:none;fill-rule:nonzero;fill:#f35695;fill-opacity:1;" d="M 64.007812 302.335938 C 71.507812 297.089844 73.875 289.136719 75.738281 280.632812 C 81.316406 290.484375 87.144531 299.671875 96.199219 306.742188 C 99.566406 309.394531 103.449219 310.550781 107.519531 311.664062 C 105.203125 308.925781 102.992188 306.144531 100.976562 303.195312 C 104.234375 302.179688 107.496094 301.140625 110.746094 300.113281 C 111.925781 304.960938 113.074219 309.558594 112.058594 314.589844 C 111.367188 316.058594 109.289062 316.824219 107.960938 317.648438 C 95.421875 324 81.722656 328.253906 68.007812 331.226562 C 64.558594 332.148438 60.734375 330.019531 57.773438 328.433594 C 47 322.199219 39.285156 311.496094 32.738281 301.175781 C 42.199219 307.0625 54.417969 308.914062 64.007812 302.335938 Z M 64.007812 302.335938 "/><path style=" stroke:none;fill-rule:nonzero;fill:#e5b1a3;fill-opacity:1;" d="M 181.621094 60.359375 C 178.132812 68.421875 176.164062 77.140625 173.199219 85.40625 C 170.476562 92.941406 168.078125 100.683594 164.71875 107.957031 C 160.671875 116.328125 155.859375 124.152344 149.527344 130.996094 C 144.175781 136.800781 138.683594 142.460938 133.726562 148.625 C 126.703125 157.488281 118.664062 163.628906 113.5625 173.863281 C 108.011719 184.816406 107.769531 199.902344 115.285156 210.019531 C 119.128906 215.261719 124.445312 217.136719 130.140625 219.691406 C 125.792969 222.546875 121.507812 225.007812 116.167969 225.320312 C 109.707031 225.964844 103.722656 223.789062 98.503906 220.109375 C 96.449219 211.070312 92.839844 202.898438 92.566406 193.453125 C 91.5625 181.9375 94.144531 171.617188 100.484375 161.992188 C 108.976562 147.789062 121.21875 140.003906 132.125 127.914062 C 141.679688 117.953125 149.242188 106.59375 156.324219 94.792969 C 165.785156 80.519531 170.167969 65.78125 180.691406 52.25 C 183.519531 48.714844 187.257812 46.875 191.714844 46.242188 C 187.449219 50.277344 183.949219 54.949219 181.621094 60.359375 Z M 181.621094 60.359375 "/><path style=" stroke:none;fill-rule:nonzero;fill:#e5b1a3;fill-opacity:1;" d="M 268.859375 248.910156 C 261.671875 250.28125 254.945312 250.855469 248.066406 253.398438 C 254.46875 255.929688 261.695312 256.277344 268.65625 257.363281 C 260.929688 259.429688 252.761719 260.816406 246.550781 266.238281 C 241.460938 270.648438 236.671875 276.953125 237.171875 284.046875 C 237.425781 286.328125 238.007812 289.660156 240.910156 289.6875 C 247.492188 290.796875 254.253906 290.941406 260.894531 291.523438 C 281.460938 292.527344 301.527344 292.144531 320.28125 282.652344 C 326.3125 279.890625 330.515625 275.339844 335.1875 270.8125 C 334.53125 276.285156 332.320312 280.894531 328.152344 284.539062 C 320.613281 291.15625 309.949219 294.796875 300.371094 297.269531 C 287.136719 300.804688 274.414062 300.148438 260.894531 299.992188 C 247.375 299.503906 233.828125 297.484375 220.285156 297.484375 C 203.753906 297.542969 185.597656 304.617188 169.5 301.234375 C 160.777344 299.421875 151.84375 295.96875 144.894531 290.292969 C 136.925781 283.34375 131.265625 273.65625 128.78125 263.410156 C 126.871094 255.8125 127.074219 248.40625 126.261719 240.738281 C 130.167969 233.847656 134.871094 227.660156 141.261719 222.882812 C 137.964844 234.179688 137.726562 245.730469 139.769531 257.269531 C 141.511719 265.726562 146.445312 273.132812 153.410156 278.195312 C 163.476562 285.421875 175.710938 288.550781 188.035156 288.121094 C 200.265625 288.417969 212.199219 285.230469 221.382812 276.90625 C 226.902344 271.875 229.253906 265.222656 231.941406 258.464844 C 234.117188 255.882812 235.203125 252.898438 236.003906 249.660156 C 242.511719 225.246094 240.085938 197.90625 228.933594 175.203125 C 225.382812 168.535156 219.925781 159.804688 211.589844 159.171875 C 207.992188 155.816406 204.851562 152.316406 202.453125 147.992188 C 210.585938 144.863281 219.246094 144.792969 227.460938 142.042969 C 238.476562 138.652344 247.648438 132.644531 257.273438 126.457031 C 273.101562 115.851562 286.441406 102.1875 297.742188 86.898438 C 303.691406 78.679688 308.371094 69.925781 309.101562 59.59375 C 313.199219 66.390625 312.363281 73.988281 309.984375 81.203125 C 306.902344 90.101562 300.8125 98.339844 294.792969 105.484375 C 278.152344 125.023438 256.882812 141.722656 236.027344 156.558594 C 233.554688 158.359375 230.785156 160.128906 228.71875 162.398438 C 229.230469 163.734375 229.898438 165.011719 230.53125 166.304688 C 235.144531 163.890625 239.742188 161.40625 244.183594 158.695312 C 242.609375 161.96875 240.960938 165.382812 240.125 168.929688 C 239.347656 172.285156 240.136719 175.632812 240.683594 178.964844 C 258.625 176.945312 275.3125 170.421875 291.804688 163.402344 C 307.703125 156.210938 323.339844 148.566406 338.078125 139.179688 C 343.453125 135.488281 349.4375 130.601562 352.148438 124.535156 C 354.128906 119.949219 350.464844 115.410156 348.109375 111.730469 C 351.8125 112.316406 356.003906 112.972656 358.5 116.089844 C 361.226562 119.433594 361.261719 124.261719 360.414062 128.285156 C 358.644531 135.796875 353.855469 141.878906 348.289062 147.023438 C 334.21875 160.269531 315.800781 169.777344 298.699219 178.640625 C 285.570312 185.101562 272.359375 191.742188 258.804688 197.261719 C 254.300781 199.113281 249.796875 200.953125 245.546875 203.355469 C 247.433594 204.296875 249.128906 205.324219 251.292969 205.445312 C 258.085938 205.933594 265.085938 204.558594 271.871094 203.976562 C 264.777344 206.769531 257.65625 210.28125 252.535156 216.085938 C 249.820312 219.191406 247.578125 223.457031 248.136719 227.683594 C 248.53125 230.046875 249.917969 232.808594 252.582031 233.09375 C 256.476562 233.703125 260.546875 233.5 264.488281 233.429688 C 282.441406 232.867188 299.914062 229.453125 317.164062 224.566406 C 325.09375 222.226562 332.785156 219 340.238281 215.40625 C 345.648438 212.71875 351.011719 209.589844 354.105469 204.191406 C 356.648438 199.855469 356.757812 195.410156 357.117188 190.539062 C 359.433594 192.808594 361.570312 195.125 362.097656 198.46875 C 363.21875 206.113281 359.515625 213.386719 354.40625 218.820312 C 346.878906 226.726562 336.464844 231.242188 326.417969 235.015625 C 307.597656 242.066406 288.519531 245.253906 268.859375 248.910156 Z M 268.859375 248.910156 "/><path style=" stroke:none;fill-rule:nonzero;fill:#e5b1a3;fill-opacity:1;" d="M 183.089844 221.617188 C 184.417969 218.941406 185.707031 216.277344 187.1875 213.683594 C 192.910156 214.738281 197.542969 217.519531 201.542969 221.6875 C 209.523438 229.90625 215.015625 240.34375 216.976562 251.65625 C 207.945312 238.589844 197.089844 229.09375 183.089844 221.617188 Z M 183.089844 221.617188 "/><path style=" stroke:none;fill-rule:nonzero;fill:#e5b1a3;fill-opacity:1;" d="M 119.5 268.089844 C 121.183594 264.675781 120.097656 259.417969 120.851562 255.550781 C 119.941406 265.308594 121.589844 274.660156 124.984375 283.785156 C 114.769531 287.011719 104.558594 290.105469 94.609375 294.128906 C 85.042969 278.613281 77.957031 261.089844 73.300781 243.496094 C 79.859375 252.46875 85.375 261.460938 95.589844 266.742188 C 102.394531 270.335938 112.574219 272.066406 119.5 268.089844 Z M 119.5 268.089844 "/></g></svg>