<svg xmlns="http://www.w3.org/2000/svg" xmlns:xlink="http://www.w3.org/1999/xlink" width="500" zoomAndPan="magnify" viewBox="0 0 375 374.999991" height="500" preserveAspectRatio="xMidYMid meet" version="1.2"><g id="ca4a2ce372"><path style=" stroke:none;fill-rule:nonzero;fill:#5e3528;fill-opacity:1;" d="M 362.261719 167.398438 C 362.617188 172.191406 364.183594 176.855469 364.667969 181.667969 C 366.164062 192.476562 365.035156 204.855469 359.550781 214.492188 C 354.59375 222.925781 345.953125 228.058594 337.417969 232.285156 C 338.429688 247.980469 333.074219 264.246094 323.453125 276.625 C 315.0625 287.007812 302.921875 289.546875 290.203125 290.175781 C 282.355469 291.054688 274.804688 289.675781 267.03125 289.222656 C 258.976562 294.589844 250.734375 299.300781 241.257812 301.675781 C 223.421875 305.914062 205.074219 306.164062 188.121094 298.40625 C 178.820312 294.839844 172.160156 288.34375 164.226562 282.710938 C 166.132812 291.773438 168.613281 299.855469 165.164062 309.007812 C 162.628906 316.003906 156.847656 320.097656 150.96875 324.144531 C 138.660156 332.023438 125.5625 338.519531 111.863281 343.578125 C 104.03125 346.894531 96.039062 348.375 87.679688 346.042969 C 71.882812 341.832031 57.699219 329.792969 47.050781 317.765625 C 29.832031 298.316406 17.964844 275.289062 10.148438 250.617188 C 3.519531 229.425781 -0.046875 205.445312 4.207031 183.441406 C 4.957031 180.390625 5.015625 177.136719 7.726562 175.097656 C 19.988281 165.066406 34.816406 157.554688 48.722656 150.03125 C 56.890625 145.9375 65.691406 140.4375 74.710938 138.972656 C 77.410156 138.429688 79.714844 139.351562 82.164062 140.363281 C 90.789062 144.222656 98.269531 149.753906 105.21875 156.089844 C 105.03125 148.710938 104.808594 141.582031 106.496094 134.320312 C 110.132812 119.363281 116.234375 104.957031 123.523438 91.421875 C 132.898438 74.15625 146.566406 59.710938 164.871094 51.980469 C 184.203125 43.136719 206.996094 43.296875 225.917969 53.199219 C 237.578125 43.136719 251.378906 36.859375 266.265625 33.191406 C 281.300781 29.613281 296.480469 26.648438 311.734375 30.917969 C 326.871094 35.523438 337.5625 49.046875 340.46875 64.332031 C 341.847656 72.953125 339.148438 80.683594 335.042969 88.121094 C 343.371094 88.222656 350.867188 89.761719 356.910156 95.910156 C 371.488281 110.28125 374.980469 134.558594 368.921875 153.566406 C 367.585938 158.699219 364.535156 162.734375 362.261719 167.398438 Z M 362.261719 167.398438 "/><path style=" stroke:none;fill-rule:nonzero;fill:#ffe3d4;fill-opacity:1;" d="M 244.601562 159.492188 C 238.796875 159.917969 233.953125 162.015625 228.5 163.789062 C 226.5625 154.488281 223.6875 144.179688 224.933594 134.675781 C 225.742188 128.9375 230.039062 123.644531 235.980469 122.867188 C 242.417969 122.96875 250.457031 125.933594 252.875 132.460938 C 255.839844 141.199219 257.699219 150.398438 258.375 159.609375 C 253.8125 159.507812 249.164062 159.199219 244.601562 159.492188 Z M 244.601562 159.492188 "/><path style=" stroke:none;fill-rule:nonzero;fill:#ffe3d4;fill-opacity:1;" d="M 80.871094 188.664062 C 90.992188 185.011719 100.160156 177.871094 108.566406 171.285156 C 110.425781 175.742188 111.980469 180.203125 114.371094 184.441406 C 117.46875 190.074219 121.5 194.53125 125.195312 199.738281 C 123.320312 192.625 120.296875 185.964844 118.65625 178.792969 C 114.109375 154.109375 120.3125 129.261719 132.515625 107.714844 C 139.804688 94.164062 147.8125 81.710938 160.75 72.867188 C 171.0625 65.914062 183.75 61.117188 196.320312 61.675781 C 213.171875 61.75 229.714844 71.035156 237.753906 85.992188 C 243.253906 96.171875 246.097656 108.214844 249.164062 119.332031 C 243.519531 117.441406 238.324219 115.238281 232.238281 116.617188 C 223.921875 118.628906 218.523438 126.417969 217.820312 134.703125 C 216.957031 146.980469 219.785156 159.417969 226.285156 169.90625 C 232.621094 169.070312 238.324219 166.195312 244.632812 165.371094 C 248.871094 164.816406 253.210938 164.742188 257.464844 164.609375 C 256.734375 166.03125 255.96875 167.441406 255.207031 168.847656 C 253.183594 172.207031 251.175781 175.417969 247.492188 177.136719 C 237.945312 181.507812 227.132812 179.835938 218.464844 174.246094 C 205.53125 165.855469 195.335938 152.875 189.453125 138.679688 C 185.421875 129.671875 183.984375 120.257812 180.933594 110.972656 C 180.125 118.847656 179.992188 126.652344 182.03125 134.367188 C 186.109375 150.574219 188.105469 167.042969 186.332031 183.75 C 185.390625 192.40625 182.324219 200.867188 182.457031 209.375 C 187.621094 205.28125 192.300781 201.085938 194.925781 194.882812 C 197.742188 188.679688 198.34375 182.34375 198.8125 175.625 C 203.769531 181.082031 209.019531 185.160156 215.53125 188.648438 C 215.949219 189.703125 216.390625 190.746094 216.835938 191.789062 C 216.390625 190.746094 215.949219 189.703125 215.53125 188.648438 C 221.574219 190.777344 227.839844 191.921875 234.175781 192.785156 C 235.097656 200.792969 236.550781 208.257812 240.496094 215.375 C 234.671875 223.691406 230.347656 233.589844 228.996094 243.695312 C 227.824219 252.714844 231.8125 260.328125 236.507812 267.660156 C 240.4375 273.734375 245.644531 277.988281 251.027344 282.695312 C 237.988281 288.652344 223.730469 291.4375 209.417969 290.585938 C 196.40625 289.3125 182.839844 284.292969 173.230469 275.214844 C 164.375 266.765625 157.421875 256.824219 151.65625 246.070312 C 151.289062 254.886719 153.59375 262.703125 156.980469 270.726562 C 147.140625 273.398438 138.425781 277.578125 129.949219 283.210938 C 121.957031 274.261719 115.28125 264.332031 109.253906 253.976562 C 110.027344 254.183594 110.792969 254.398438 111.554688 254.613281 C 110.792969 254.398438 110.027344 254.183594 109.253906 253.976562 C 96.785156 233.765625 86.710938 211.734375 80.871094 188.664062 Z M 224.304688 170.964844 C 223.886719 170.789062 223.488281 170.582031 223.109375 170.347656 C 223.488281 170.582031 223.886719 170.789062 224.304688 170.964844 Z M 218.980469 165.019531 C 219.070312 165.25 219.164062 165.476562 219.261719 165.695312 C 219.164062 165.476562 219.070312 165.25 218.980469 165.019531 C 218.390625 163.496094 217.898438 161.96875 217.433594 160.449219 C 217.898438 161.96875 218.390625 163.496094 218.980469 165.019531 Z M 211.21875 146.289062 C 211.511719 146.65625 211.785156 147.027344 212.042969 147.402344 C 211.785156 147.027344 211.511719 146.65625 211.21875 146.289062 C 210.589844 145.441406 209.972656 144.585938 209.378906 143.722656 C 209.972656 144.585938 210.589844 145.441406 211.21875 146.289062 Z M 176.769531 213.941406 C 175.222656 215.09375 173.621094 216.160156 171.933594 217.074219 C 173.621094 216.160156 175.222656 215.09375 176.769531 213.941406 Z M 170.253906 252.84375 C 169.117188 252.523438 167.996094 252.160156 166.894531 251.75 C 167.996094 252.160156 169.117188 252.523438 170.253906 252.84375 Z M 166.289062 219.339844 C 165.089844 219.65625 163.875 219.875 162.648438 220.011719 C 163.875 219.875 165.089844 219.65625 166.289062 219.339844 Z M 147.257812 236.683594 C 148.257812 238.109375 149.339844 239.453125 150.488281 240.714844 C 149.339844 239.453125 148.257812 238.109375 147.257812 236.683594 Z M 137.621094 187.328125 C 137.269531 187.335938 136.921875 187.332031 136.578125 187.320312 C 136.921875 187.332031 137.269531 187.335938 137.621094 187.328125 Z M 137.621094 187.328125 "/><path style=" stroke:none;fill-rule:nonzero;fill:#ffe3d4;fill-opacity:1;" d="M 293.152344 243.210938 C 303.917969 242.476562 314.167969 239.75 324.628906 237.332031 C 323.734375 243.519531 322.265625 249.460938 319.832031 255.238281 C 317.03125 261.957031 313.757812 269.804688 306.867188 273.222656 C 299.371094 276.902344 289.46875 276.667969 281.285156 276.695312 C 268.261719 276.652344 255.324219 271.886719 247.226562 261.324219 C 243.78125 256.707031 239.953125 250.898438 240.410156 244.898438 C 240.832031 237.519531 243.929688 230.054688 247.476562 223.660156 C 255.28125 229.015625 261.96875 235.085938 270.445312 239.574219 C 270.269531 240.230469 270.070312 240.910156 269.871094 241.605469 C 270.070312 240.910156 270.269531 240.230469 270.445312 239.574219 C 277.515625 243.433594 285.261719 244.195312 293.152344 243.210938 Z M 293.152344 243.210938 "/><path style=" stroke:none;fill-rule:nonzero;fill:#ffe3d4;fill-opacity:1;" d="M 306.820312 94.25 C 293.152344 102.140625 278.21875 108.597656 263.613281 114.550781 C 261.574219 107.570312 259.769531 100.527344 257.523438 93.664062 C 258.140625 93.429688 258.753906 93.199219 259.367188 92.976562 C 258.753906 93.199219 258.140625 93.429688 257.523438 93.664062 C 254.972656 86.15625 251.714844 78.644531 247.242188 72.089844 C 244.367188 67.804688 240.246094 64.167969 236.742188 60.355469 C 249.808594 51.246094 266.371094 46.480469 281.785156 43.0625 C 293.503906 40.90625 307.1875 40.027344 316.898438 48.242188 C 321.78125 52.964844 325.773438 59.242188 326.902344 66.003906 C 327.824219 71.691406 325.976562 77.515625 322.425781 81.976562 C 318.394531 87.09375 312.394531 90.996094 306.820312 94.25 Z M 286.710938 82.957031 C 286.117188 83.238281 285.519531 83.511719 284.917969 83.777344 C 285.519531 83.511719 286.117188 83.238281 286.710938 82.957031 C 289.058594 81.855469 291.378906 80.675781 293.65625 79.414062 C 291.378906 80.675781 289.058594 81.855469 286.710938 82.957031 Z M 286.710938 82.957031 "/><path style=" stroke:none;fill-rule:nonzero;fill:#ffe3d4;fill-opacity:1;" d="M 331.519531 171.753906 C 311.03125 178.835938 288.207031 182.476562 266.867188 177.164062 C 270.636719 167.191406 272.382812 156.953125 271.472656 146.277344 C 270.007812 137.433594 267.394531 129.117188 265.253906 120.460938 C 280.742188 116.195312 296.996094 111.675781 311.589844 104.898438 C 316.238281 102.800781 320.609375 99.722656 325.609375 99.078125 C 331.578125 98.195312 339.015625 98.035156 344.472656 101.058594 C 350.867188 105.003906 354.5625 113.097656 356.542969 120.066406 C 359.199219 131.726562 359.433594 143.839844 354.195312 154.839844 C 349.546875 163.65625 340.554688 168.46875 331.519531 171.753906 Z M 331.519531 171.753906 "/><path style=" stroke:none;fill-rule:nonzero;fill:#ffe3d4;fill-opacity:1;" d="M 272.851562 191.699219 C 294.941406 195.101562 316.839844 191.480469 337.578125 183.632812 C 342.34375 181.816406 346.644531 178.984375 351.425781 177.28125 C 353.082031 182.828125 352.789062 189.175781 352.304688 194.898438 C 351.613281 201.144531 351.085938 206.925781 346.453125 211.632812 C 339.25 219.070312 328.398438 223.527344 318.570312 226.285156 C 307.890625 229.175781 296.789062 231.726562 285.699219 232.195312 C 277.441406 232.535156 270.976562 227.988281 264.519531 223.511719 C 259.328125 219.714844 253.625 215.535156 249.824219 210.285156 C 245.921875 204.886719 246.011719 198.316406 245.46875 191.933594 C 249.5625 190.511719 253.710938 188.53125 257.996094 187.84375 C 263.011719 188.164062 267.96875 190.511719 272.851562 191.699219 Z M 301.296875 215.171875 C 300.304688 215.136719 299.316406 215.074219 298.332031 214.988281 C 299.316406 215.074219 300.304688 215.136719 301.296875 215.171875 Z M 282.796875 211.074219 C 285 212.066406 287.292969 212.867188 289.644531 213.492188 C 287.292969 212.867188 285 212.066406 282.796875 211.074219 C 282.015625 210.703125 281.289062 210.296875 280.609375 209.863281 C 281.289062 210.296875 282.015625 210.703125 282.796875 211.074219 Z M 270.246094 192.851562 C 270.097656 192.34375 269.949219 191.832031 269.800781 191.320312 C 269.949219 191.832031 270.097656 192.34375 270.246094 192.851562 Z M 270.246094 192.851562 "/><path style=" stroke:none;fill-rule:nonzero;fill:#f98805;fill-opacity:1;" d="M 94.558594 164.933594 C 89.160156 168.378906 83.675781 171.679688 78.234375 175.054688 C 74.652344 169.964844 75.652344 164.949219 75.460938 159.109375 C 66.632812 166.03125 67.773438 176.109375 68.449219 186.183594 C 71.542969 209.859375 81.605469 233.222656 93.429688 253.816406 C 98.546875 263.820312 97.84375 276.945312 93.355469 287.066406 C 87.988281 298.476562 73.730469 302.113281 62.523438 297.730469 C 50.671875 293.109375 42.429688 282.007812 36.195312 271.386719 C 29.714844 261.339844 25.535156 250.339844 22.011719 238.957031 C 17.421875 223.511719 14.839844 207.628906 17.21875 191.539062 C 18.054688 188.164062 18.65625 183.792969 22.101562 182.109375 C 36.988281 173.441406 51.933594 164.859375 67.144531 156.761719 C 69.535156 155.53125 71.957031 153.976562 74.582031 153.332031 C 82.546875 154.652344 89.308594 158.890625 94.558594 164.933594 Z M 49.867188 253.859375 C 43.765625 263.90625 47.84375 277.695312 58.019531 283.328125 C 66.265625 287.902344 77.074219 285.351562 81.957031 277.152344 C 88.484375 266.136719 82.867188 251.292969 71.015625 246.804688 C 63.285156 243.679688 54.179688 246.761719 49.867188 253.859375 Z M 49.867188 253.859375 "/><path style=" stroke:none;fill-rule:nonzero;fill:#ffffff;fill-opacity:1;" d="M 73.804688 274.777344 C 71.046875 277.519531 66.867188 278.441406 63.273438 276.859375 C 55.644531 273.761719 52.742188 263.65625 57.433594 256.910156 C 60.03125 252.964844 64.871094 251.601562 69.269531 253.097656 C 77.691406 256.191406 79.847656 268.484375 73.804688 274.777344 Z M 73.804688 274.777344 "/><path style=" stroke:none;fill-rule:nonzero;fill:#f98805;fill-opacity:1;" d="M 96.097656 295.660156 C 102.417969 287.960938 103.152344 279.265625 104.195312 269.757812 C 111.746094 279.804688 120.769531 289.734375 131.503906 296.410156 C 136.402344 299.535156 141.683594 300.914062 147.449219 301.277344 C 144.601562 298.257812 141.625 295.382812 138.777344 292.347656 C 142.621094 290.542969 146.421875 288.679688 150.292969 286.964844 C 152.714844 292.816406 154.398438 298.59375 154.632812 304.976562 C 139.851562 316.828125 122.308594 325.507812 104.679688 332.257812 C 99.867188 334.574219 94.558594 332.328125 89.921875 330.628906 C 76.414062 324.90625 64.753906 313.46875 55.453125 302.335938 C 68.757812 308.597656 86.359375 307.746094 96.097656 295.660156 Z M 96.097656 295.660156 "/><path style=" stroke:none;fill-rule:nonzero;fill:#e5b1a3;fill-opacity:1;" d="M 306.820312 94.25 C 293.152344 102.140625 278.21875 108.597656 263.613281 114.550781 C 261.574219 107.570312 259.769531 100.527344 257.523438 93.664062 C 267.351562 89.910156 277.164062 87.460938 286.710938 82.957031 C 295.058594 79.042969 303.039062 74.128906 310.078125 68.160156 C 312.777344 65.753906 315.988281 62.71875 317.074219 59.183594 C 317.851562 55.707031 317.117188 51.773438 316.898438 48.242188 C 321.78125 52.964844 325.773438 59.242188 326.902344 66.003906 C 327.824219 71.691406 325.976562 77.515625 322.425781 81.976562 C 318.394531 87.09375 312.394531 90.996094 306.820312 94.25 Z M 306.820312 94.25 "/><path style=" stroke:none;fill-rule:nonzero;fill:#e5b1a3;fill-opacity:1;" d="M 247.492188 177.136719 C 237.945312 181.507812 227.132812 179.835938 218.464844 174.246094 C 205.53125 165.855469 195.335938 152.875 189.453125 138.679688 C 185.421875 129.671875 183.984375 120.257812 180.933594 110.972656 C 180.125 118.847656 179.992188 126.652344 182.03125 134.367188 C 186.109375 150.574219 188.105469 167.042969 186.332031 183.75 C 185.390625 192.40625 182.324219 200.867188 182.457031 209.375 C 178.191406 212.894531 173.90625 216.605469 168.65625 218.585938 C 162.421875 220.945312 155.484375 220.476562 149.207031 218.496094 C 139.351562 215.242188 130.710938 208.554688 125.199219 199.738281 C 123.320312 192.625 120.296875 185.964844 118.65625 178.792969 C 124.242188 183.546875 129.933594 187.433594 137.621094 187.328125 C 147.710938 187.5625 156.21875 181.316406 160.808594 172.632812 C 168.554688 158.40625 166.96875 142.214844 169.375 126.652344 C 170.445312 119.90625 171.824219 111.425781 176.402344 106.101562 C 180.417969 101.644531 185.539062 101.671875 191.066406 101.160156 C 195.71875 117.25 201.101562 132.707031 211.21875 146.289062 C 215.707031 151.980469 216.472656 158.507812 218.980469 165.019531 C 220.417969 168.6875 223.011719 171.269531 227.089844 171.636719 C 236.390625 172.367188 246.097656 170.710938 255.207031 168.847656 C 253.183594 172.207031 251.175781 175.417969 247.492188 177.136719 Z M 247.492188 177.136719 "/><path style=" stroke:none;fill-rule:nonzero;fill:#e5b1a3;fill-opacity:1;" d="M 331.519531 171.753906 C 311.03125 178.835938 288.207031 182.476562 266.867188 177.164062 C 270.636719 167.191406 272.382812 156.953125 271.472656 146.277344 C 271.988281 149.386719 272.425781 152.507812 272.835938 155.632812 C 291.859375 156.117188 310.753906 153.066406 328.777344 147.023438 C 337.535156 144.03125 345.585938 140.496094 351.484375 133.03125 C 354.636719 129.292969 356.074219 124.890625 356.542969 120.066406 C 359.199219 131.726562 359.433594 143.839844 354.195312 154.839844 C 349.546875 163.65625 340.554688 168.46875 331.519531 171.753906 Z M 331.519531 171.753906 "/><path style=" stroke:none;fill-rule:nonzero;fill:#e5b1a3;fill-opacity:1;" d="M 272.851562 191.699219 L 269.800781 191.320312 C 272.164062 199.546875 274.480469 207.085938 282.796875 211.074219 C 296.890625 217.410156 314.667969 216.003906 328.632812 209.933594 C 337.679688 206.207031 344.195312 200.03125 352.304688 194.898438 C 351.613281 201.144531 351.085938 206.925781 346.453125 211.632812 C 339.25 219.070312 328.398438 223.527344 318.570312 226.285156 C 307.890625 229.175781 296.789062 231.726562 285.699219 232.195312 C 277.441406 232.535156 270.976562 227.988281 264.519531 223.511719 C 259.328125 219.714844 253.625 215.535156 249.824219 210.285156 C 245.921875 204.886719 246.011719 198.316406 245.46875 191.933594 C 249.5625 190.511719 253.710938 188.53125 257.996094 187.84375 C 263.011719 188.164062 267.96875 190.511719 272.851562 191.699219 Z M 272.851562 191.699219 "/><path style=" stroke:none;fill-rule:nonzero;fill:#e5b1a3;fill-opacity:1;" d="M 133.585938 255.371094 C 141.492188 251.660156 144.703125 244.5625 147.257812 236.683594 C 158.652344 252.890625 180.140625 258.699219 198.386719 251.292969 C 206.628906 247.773438 214.269531 241.304688 218.746094 233.515625 C 223.980469 223.761719 224.625 211.546875 220.769531 201.203125 C 219.199219 196.953125 217.203125 192.859375 215.53125 188.648438 C 221.574219 190.777344 227.839844 191.921875 234.175781 192.785156 C 235.097656 200.792969 236.550781 208.257812 240.496094 215.375 C 234.671875 223.691406 230.347656 233.589844 228.996094 243.695312 C 227.824219 252.714844 231.8125 260.328125 236.507812 267.660156 C 240.4375 273.734375 245.644531 277.988281 251.027344 282.695312 C 237.988281 288.652344 223.730469 291.4375 209.417969 290.585938 C 196.40625 289.3125 182.839844 284.292969 173.234375 275.214844 C 164.375 266.765625 157.421875 256.824219 151.65625 246.070312 C 151.289062 254.886719 153.59375 262.703125 156.980469 270.726562 C 147.140625 273.398438 138.425781 277.578125 129.949219 283.210938 C 121.957031 274.261719 115.28125 264.332031 109.253906 253.976562 C 117.480469 256.191406 125.226562 259.15625 133.585938 255.371094 Z M 133.585938 255.371094 "/><path style=" stroke:none;fill-rule:nonzero;fill:#e5b1a3;fill-opacity:1;" d="M 247.230469 261.324219 C 243.78125 256.707031 239.953125 250.898438 240.410156 244.898438 C 240.832031 237.519531 243.929688 230.054688 247.476562 223.660156 C 255.28125 229.015625 261.96875 235.085938 270.445312 239.574219 C 269.640625 242.566406 268.363281 246.101562 268.820312 249.226562 C 269.890625 254.125 274.027344 257.527344 278.441406 259.449219 C 285.113281 262.351562 293.078125 262.703125 300.234375 262 C 307.46875 261.207031 313.332031 258.171875 319.832031 255.238281 C 317.03125 261.957031 313.757812 269.804688 306.867188 273.222656 C 299.371094 276.902344 289.46875 276.667969 281.285156 276.695312 C 268.261719 276.652344 255.324219 271.886719 247.230469 261.324219 Z M 247.230469 261.324219 "/></g></svg>