<svg xmlns="http://www.w3.org/2000/svg" xmlns:xlink="http://www.w3.org/1999/xlink" width="500" zoomAndPan="magnify" viewBox="0 0 375 374.999991" height="500" preserveAspectRatio="xMidYMid meet" version="1.2"><g id="e3e8b907a0"><path style=" stroke:none;fill-rule:nonzero;fill:#5e3528;fill-opacity:1;" d="M 12.472656 168.667969 C 25.390625 161.953125 39.671875 157.429688 53.421875 152.703125 C 58.335938 151.140625 64.742188 148.996094 69.820312 150.394531 C 77.507812 154.160156 84.089844 161.003906 89.429688 167.589844 C 92.867188 154.765625 97.117188 141.3125 103.890625 129.824219 C 111.65625 116.765625 118.324219 104.507812 130.023438 94.382812 C 137.199219 88.511719 145.9375 84.628906 155.234375 83.917969 C 164.613281 83.015625 173.46875 84.578125 182.753906 85.375 C 189.726562 86.035156 196.527344 85.585938 203.429688 87.101562 C 208.851562 88.367188 214.632812 88.558594 218.183594 93.449219 C 221.285156 97.523438 220.964844 101.832031 220.730469 106.675781 C 248.34375 89.859375 278.859375 74.492188 311.140625 69.636719 C 320.257812 68.050781 329.089844 70.0625 337.472656 73.636719 C 344.4375 76.753906 351.019531 81.714844 354.40625 88.710938 C 358.089844 96.066406 356.71875 105.753906 351.082031 111.742188 C 344.664062 117.878906 336.347656 122.332031 328.167969 125.644531 C 311.945312 132.207031 295.355469 138.152344 279.367188 145.304688 C 299.710938 144.203125 318.609375 140.496094 339.109375 144.082031 C 349.882812 146.023438 360.03125 148.691406 367.242188 157.558594 C 374.988281 166.734375 374.503906 181.039062 366.296875 189.753906 C 361.773438 194.550781 355.308594 196.160156 349.089844 197.546875 C 336.503906 200.332031 324.378906 200.390625 311.625 201.714844 C 301.285156 202.554688 291.019531 203.800781 280.8125 205.695312 C 283.925781 219.359375 281.382812 232.386719 273.777344 244.0625 C 271.304688 248.207031 267.480469 251.261719 264.851562 255.214844 C 263.253906 265.800781 259.011719 275.738281 252.085938 283.941406 C 245.527344 292.019531 235.839844 296.753906 225.890625 299.230469 C 206.425781 304.074219 185.265625 303.503906 165.570312 300.367188 C 155.730469 299.621094 145.914062 295.132812 137.472656 290.230469 C 131.019531 286.453125 126.234375 281.148438 121.035156 275.914062 C 121.308594 283.113281 122.230469 289.53125 118.691406 296.1875 C 115.847656 301.644531 110.996094 304.226562 105.675781 306.796875 C 92.804688 312.585938 79.210938 316.671875 65.273438 318.898438 C 56.570312 320.023438 48.210938 315.546875 41.566406 310.347656 C 30.164062 301.277344 21.53125 288.097656 15.183594 275.121094 C 5.441406 254.835938 0.464844 232.113281 0.0390625 209.648438 C 0.394531 197.121094 1.699219 185.113281 6.589844 173.449219 C 7.441406 171.105469 10.449219 169.851562 12.472656 168.667969 Z M 12.472656 168.667969 "/><path style=" stroke:none;fill-rule:nonzero;fill:#ffe3d4;fill-opacity:1;" d="M 101.863281 207.089844 C 98.144531 197.144531 95.457031 186.867188 98.324219 176.292969 C 102.65625 159.972656 109.597656 144.605469 118.621094 130.347656 C 124.066406 120.554688 129.871094 111.414062 138.21875 103.773438 C 142.742188 99.996094 147.878906 96.632812 154.027344 96.847656 C 162.195312 97.121094 170.535156 98.589844 178.65625 99.464844 C 179.105469 102.332031 179.140625 105.917969 180.847656 108.359375 C 182.789062 111.234375 185.808594 112.832031 188.757812 114.503906 C 193.636719 114.777344 198.457031 114.3125 203.3125 114.042969 C 196.324219 119.238281 188.226562 122.792969 179.933594 125.363281 C 174.027344 127.171875 167.941406 128.097656 161.769531 127.113281 C 156.953125 126.332031 152.15625 125.5625 147.265625 125.363281 C 145.878906 127.527344 143.796875 129.007812 145.867188 131.554688 C 148.34375 134.066406 153.101562 134.375 156.417969 134.738281 C 165.277344 134.964844 173.648438 133.851562 182.304688 132.324219 C 192.464844 130.960938 201.867188 127.5625 211.195312 123.46875 C 230.238281 115.144531 247.539062 104 266.898438 96.253906 C 285.597656 88.332031 304.070312 82.367188 324.699219 83.632812 C 327.847656 83.917969 330.605469 85.054688 333.449219 86.320312 C 333.382812 87.480469 333.300781 88.636719 333.207031 89.789062 C 333.300781 88.636719 333.382812 87.480469 333.449219 86.320312 C 337.867188 88.757812 341.511719 92.207031 342.753906 97.261719 C 343.441406 100.601562 341.488281 103.679688 340.113281 106.582031 C 337.15625 102.425781 334.515625 98.125 332.902344 93.246094 C 332.207031 91.402344 331.484375 89.554688 330.738281 87.71875 C 322.269531 89.730469 314.417969 92.003906 308.425781 98.71875 C 306.238281 101.0625 305.667969 103.894531 305.125 106.949219 C 305.976562 109.269531 306.757812 112.597656 308.890625 114.078125 C 311.53125 115.851562 314.882812 116.765625 317.828125 117.902344 C 299.664062 125.894531 281.488281 133.601562 264.058594 143.160156 C 255.246094 148.25 246.035156 153.863281 239.011719 161.324219 L 241.785156 161.125 C 248.179688 158.980469 254.667969 158.554688 261.320312 157.855469 C 275.152344 155.816406 288.5 156.078125 302.386719 155.605469 C 313.554688 155.367188 325.125 154.929688 336.113281 156.941406 C 343.476562 158.328125 350.371094 159.535156 356.171875 164.675781 C 358.953125 167.589844 360.554688 172.003906 359.726562 176.019531 C 359.214844 178.351562 357.675781 180.613281 356.480469 182.664062 C 354.585938 177.085938 354.324219 171.378906 354.335938 165.550781 C 342.875 163.300781 331.742188 163.503906 321.914062 170.5 C 320.386719 173.203125 318.328125 176.457031 319.0625 179.691406 C 319.84375 182.699219 322.507812 185.386719 324.425781 187.789062 C 313.070312 189.09375 301.773438 191.128906 290.546875 193.285156 C 270.15625 197.238281 247.835938 203.597656 230.664062 215.652344 L 233.671875 215.9375 C 243.628906 213.863281 253.386719 211.164062 263.394531 209.210938 C 265.160156 208.914062 266.945312 208.691406 268.734375 208.535156 C 270.582031 216.445312 269.929688 223.527344 266.554688 230.894531 C 262.875 239.550781 255.863281 245.648438 247.644531 249.886719 C 237.320312 254.824219 226.757812 258.910156 215.636719 261.714844 C 221.488281 262.816406 227.210938 263.648438 233.144531 263.304688 C 232.929688 263.320312 232.71875 263.335938 232.503906 263.351562 C 232.71875 263.335938 232.929688 263.320312 233.144531 263.304688 C 233.722656 263.261719 234.304688 263.21875 234.878906 263.171875 C 239.535156 262.6875 244.082031 261.597656 248.496094 260.058594 C 250.25 259.417969 252.015625 258.78125 253.777344 258.175781 C 250.699219 266.167969 246.519531 274.386719 239.839844 279.976562 C 232.699219 285.789062 223.179688 288.230469 214.277344 289.734375 C 203.371094 291.640625 192.320312 291.949219 181.296875 291.167969 C 167.941406 290.574219 154.675781 287.234375 142.5625 281.585938 C 137.355469 279.207031 132.925781 275.582031 129.359375 271.117188 C 124.375 264.675781 120.078125 257.417969 117.53125 249.660156 C 116.867188 248.453125 116.167969 247.269531 115.457031 246.109375 C 113.8125 252.585938 115.078125 258.660156 116.5 265.019531 C 108.1875 266.132812 101.035156 268.253906 93.457031 271.804688 C 89.503906 265.648438 86.1875 259.148438 83.191406 252.480469 C 74.464844 232.777344 67.9375 211.828125 65.796875 190.324219 C 74.34375 188.644531 82.609375 184.035156 90.140625 179.773438 C 91.632812 189.96875 96.074219 198.707031 101.863281 207.089844 Z M 240.804688 137.003906 C 239.117188 138.035156 237.429688 139.09375 235.765625 140.191406 C 237.429688 139.09375 239.117188 138.035156 240.804688 137.003906 Z M 221.546875 214.421875 C 221.742188 214.597656 221.949219 214.765625 222.160156 214.917969 C 221.949219 214.765625 221.746094 214.597656 221.546875 214.421875 C 221.304688 214.144531 221.097656 213.867188 220.917969 213.585938 C 221.097656 213.867188 221.304688 214.144531 221.546875 214.421875 Z M 217.398438 161.714844 C 217.386719 161.515625 217.382812 161.308594 217.390625 161.097656 C 217.40625 160.820312 217.4375 160.542969 217.476562 160.265625 C 217.4375 160.542969 217.40625 160.820312 217.390625 161.097656 C 217.382812 161.308594 217.386719 161.515625 217.398438 161.714844 Z M 97.234375 213.128906 C 97.4375 213.5625 97.636719 213.992188 97.839844 214.421875 C 97.636719 213.992188 97.4375 213.5625 97.234375 213.128906 Z M 101.757812 239.5625 C 101.824219 239.835938 101.882812 240.105469 101.933594 240.378906 C 101.882812 240.105469 101.824219 239.835938 101.757812 239.5625 C 101.378906 237.910156 100.988281 236.273438 100.601562 234.636719 C 100.988281 236.273438 101.378906 237.910156 101.757812 239.5625 Z M 100.515625 248.574219 C 100.085938 249.195312 99.558594 249.773438 98.9375 250.308594 C 99.558594 249.773438 100.085938 249.195312 100.515625 248.574219 Z M 98.21875 250.882812 C 98.402344 250.746094 98.574219 250.605469 98.746094 250.464844 C 98.574219 250.605469 98.402344 250.746094 98.21875 250.882812 C 97.875 251.140625 97.523438 251.375 97.167969 251.582031 C 97.523438 251.375 97.875 251.140625 98.21875 250.882812 Z M 98.21875 250.882812 "/><path style=" stroke:none;fill-rule:nonzero;fill:#ffe3d4;fill-opacity:1;" d="M 203.796875 100.363281 C 206.390625 100.460938 208.261719 102.851562 207.5625 105.265625 C 206.671875 108.652344 203.050781 110.394531 199.972656 111.316406 C 195.128906 112.65625 190.082031 112.5625 186.542969 108.535156 C 184.03125 106.109375 184.519531 103.453125 184.460938 100.257812 C 190.878906 100.164062 197.390625 99.890625 203.796875 100.363281 Z M 203.796875 100.363281 "/><path style=" stroke:none;fill-rule:nonzero;fill:#ffe3d4;fill-opacity:1;" d="M 312.582031 111.601562 C 309.46875 109.992188 309.574219 106.902344 309.625 103.871094 C 314.027344 97.535156 320.648438 94.515625 327.859375 92.539062 C 328.464844 93.699219 329.03125 94.882812 329.578125 96.078125 C 331.566406 100.519531 334.125 104.640625 336.65625 108.785156 C 329.125 113.035156 320.847656 115.628906 312.582031 111.601562 Z M 312.582031 111.601562 "/><path style=" stroke:none;fill-rule:nonzero;fill:#ffe3d4;fill-opacity:1;" d="M 328.890625 171.296875 C 335.273438 168.546875 343.265625 167.730469 350.0625 169.019531 C 351.316406 173.804688 351.71875 178.789062 352.832031 183.621094 C 346.628906 184.769531 340.339844 186.015625 334.039062 186.441406 C 329.421875 187.175781 324.082031 183.207031 322.957031 178.789062 C 322.898438 174.953125 325.65625 172.691406 328.890625 171.296875 Z M 328.890625 171.296875 "/><path style=" stroke:none;fill-rule:nonzero;fill:#c2fcf7;fill-opacity:1;" d="M 19.425781 178.054688 C 33.46875 172.539062 47.535156 167.054688 61.78125 162.105469 C 63.226562 161.679688 64.46875 161.136719 65.972656 161.703125 C 71.8125 163.738281 76.382812 167.882812 79.625 173.09375 C 74.785156 175.191406 69.976562 177.308594 64.992188 179.0625 C 63.734375 174.730469 64.433594 170.667969 65.074219 166.308594 C 57.765625 169.933594 57.140625 177.476562 56.359375 184.722656 C 55.351562 204.582031 60.714844 225.246094 67.84375 243.65625 C 70.210938 250.195312 69.3125 257.109375 67.144531 263.5625 C 65.605469 268.015625 63.308594 272.042969 59.378906 274.800781 C 54.476562 278.402344 47.5 278.648438 41.851562 276.921875 C 34.816406 274.492188 29.335938 268.621094 25.617188 262.355469 C 16.511719 246.546875 12.472656 228.9375 11.574219 210.832031 C 11.242188 201.929688 12.09375 192.65625 14.925781 184.179688 C 15.859375 182.023438 16.949219 178.789062 19.425781 178.054688 Z M 30.117188 254.328125 C 32 260.980469 37.992188 266.261719 45.097656 266.132812 C 51.550781 266.273438 57.175781 261.550781 58.902344 255.476562 C 61.757812 246.679688 55.957031 236.164062 46.945312 233.960938 C 42.3125 233.023438 37.445312 234.269531 34.023438 237.582031 C 29.679688 241.941406 28.339844 248.5 30.117188 254.328125 Z M 30.117188 254.328125 "/><path style=" stroke:none;fill-rule:nonzero;fill:#ffffff;fill-opacity:1;" d="M 47.027344 239.691406 C 52.4375 241.171875 55.03125 248.074219 53.148438 253.070312 C 51.964844 257.074219 48.4375 260.234375 44.066406 259.667969 C 38.511719 258.746094 35.363281 253.097656 36.121094 247.753906 C 36.726562 242.378906 41.460938 238.09375 47.027344 239.691406 Z M 47.027344 239.691406 "/><path style=" stroke:none;fill-rule:nonzero;fill:#c2fcf7;fill-opacity:1;" d="M 65.960938 276.625 C 71.195312 271.320312 72.617188 264.925781 74.523438 258.011719 C 79.96875 267.636719 85.664062 276.554688 94.441406 283.539062 C 97.695312 286.144531 101.472656 287.484375 105.511719 288.347656 C 103.464844 285.648438 101.367188 282.984375 99.425781 280.210938 C 102.683594 279.171875 105.949219 278.140625 109.230469 277.179688 C 110.070312 281.5625 111.941406 287.886719 110.023438 292.066406 C 107.394531 294.351562 103.867188 295.726562 100.738281 297.207031 C 89.679688 302.046875 78.015625 305.648438 66.1875 308.074219 C 62.964844 308.832031 59.140625 306.558594 56.359375 305.089844 C 45.925781 298.921875 38.214844 288.527344 31.953125 278.378906 C 35.683594 280.152344 39 282.09375 43.132812 282.890625 C 51.3125 284.570312 60.039062 282.757812 65.960938 276.625 Z M 65.960938 276.625 "/><path style=" stroke:none;fill-rule:nonzero;fill:#e5b1a3;fill-opacity:1;" d="M 342.753906 97.261719 C 343.441406 100.601562 341.488281 103.679688 340.113281 106.582031 C 337.15625 102.425781 334.515625 98.125 332.902344 93.246094 C 333.117188 90.9375 333.316406 88.640625 333.449219 86.320312 C 337.867188 88.761719 341.511719 92.207031 342.753906 97.261719 Z M 342.753906 97.261719 "/><path style=" stroke:none;fill-rule:nonzero;fill:#e5b1a3;fill-opacity:1;" d="M 312.582031 111.601562 C 309.46875 109.992188 309.574219 106.902344 309.625 103.871094 C 317.4375 103.550781 322.933594 99.570312 329.578125 96.078125 C 331.566406 100.519531 334.125 104.640625 336.65625 108.785156 C 329.125 113.035156 320.847656 115.628906 312.582031 111.601562 Z M 312.582031 111.601562 "/><path style=" stroke:none;fill-rule:nonzero;fill:#e5b1a3;fill-opacity:1;" d="M 222.824219 167.480469 C 219.546875 166.996094 217.296875 164.4375 217.390625 161.097656 C 217.664062 156.636719 221.011719 152.40625 224.058594 149.351562 C 229.695312 143.859375 236.609375 139.511719 243.335938 135.472656 C 262.875 124.164062 284.117188 115.15625 305.125 106.949219 C 305.976562 109.269531 306.757812 112.597656 308.890625 114.078125 C 311.53125 115.851562 314.882812 116.765625 317.828125 117.902344 C 299.664062 125.894531 281.488281 133.605469 264.058594 143.160156 C 255.246094 148.25 246.035156 153.863281 239.011719 161.324219 L 241.785156 161.125 C 236.0625 164.804688 229.90625 168.300781 222.824219 167.480469 Z M 222.824219 167.480469 "/><path style=" stroke:none;fill-rule:nonzero;fill:#e5b1a3;fill-opacity:1;" d="M 179.933594 125.363281 C 174.027344 127.171875 167.941406 128.097656 161.769531 127.113281 C 156.953125 126.332031 152.15625 125.5625 147.265625 125.363281 C 151.304688 120.601562 156.914062 119.628906 162.742188 118.601562 C 171.445312 117.296875 180.171875 116.539062 188.757812 114.503906 C 193.636719 114.777344 198.457031 114.3125 203.3125 114.042969 C 196.324219 119.238281 188.226562 122.792969 179.933594 125.363281 Z M 179.933594 125.363281 "/><path style=" stroke:none;fill-rule:nonzero;fill:#e5b1a3;fill-opacity:1;" d="M 359.726562 176.019531 C 359.214844 178.351562 357.675781 180.613281 356.480469 182.664062 C 354.585938 177.085938 354.324219 171.378906 354.335938 165.550781 L 356.171875 164.675781 C 358.953125 167.589844 360.554688 172.003906 359.726562 176.019531 Z M 359.726562 176.019531 "/><path style=" stroke:none;fill-rule:nonzero;fill:#e5b1a3;fill-opacity:1;" d="M 328.890625 171.296875 C 335.273438 168.546875 343.265625 167.730469 350.0625 169.019531 C 351.316406 173.804688 351.71875 178.789062 352.832031 183.621094 C 346.628906 184.769531 340.339844 186.015625 334.039062 186.441406 C 329.421875 187.175781 324.082031 183.207031 322.957031 178.789062 C 322.898438 174.953125 325.65625 172.691406 328.890625 171.296875 Z M 328.890625 171.296875 "/><path style=" stroke:none;fill-rule:nonzero;fill:#e5b1a3;fill-opacity:1;" d="M 233.671875 215.9375 C 229.824219 217.0625 224.707031 217.261719 221.546875 214.421875 C 218.964844 211.472656 220.160156 208.203125 221.972656 205.246094 C 226.660156 197.984375 234.902344 193.734375 242.589844 190.347656 C 261.75 182.128906 282.1875 176.613281 302.742188 173.273438 C 309.113281 172.195312 315.589844 171.746094 321.914062 170.5 C 320.386719 173.203125 318.328125 176.457031 319.0625 179.691406 C 319.84375 182.699219 322.507812 185.386719 324.425781 187.789062 C 313.070312 189.09375 301.773438 191.128906 290.546875 193.285156 C 270.15625 197.238281 247.835938 203.597656 230.664062 215.652344 Z M 233.671875 215.9375 "/><path style=" stroke:none;fill-rule:nonzero;fill:#e5b1a3;fill-opacity:1;" d="M 215.636719 261.714844 C 222.054688 262.925781 228.320312 263.8125 234.878906 263.171875 C 228.558594 263.660156 222.113281 264.109375 215.769531 263.835938 C 212.273438 263.730469 207.859375 261.042969 208.199219 257.109375 C 208.839844 254.421875 212.074219 252.3125 214.277344 250.871094 C 221.785156 246.488281 230.570312 244.605469 238.347656 240.613281 C 245.941406 236.8125 254.609375 232.148438 259.214844 224.746094 C 262.316406 219.953125 262.898438 214.777344 263.394531 209.210938 C 265.160156 208.914062 266.945312 208.691406 268.734375 208.535156 C 270.582031 216.445312 269.929688 223.527344 266.554688 230.894531 C 262.875 239.550781 255.863281 245.648438 247.644531 249.886719 C 237.320312 254.824219 226.757812 258.910156 215.636719 261.714844 Z M 215.636719 261.714844 "/><path style=" stroke:none;fill-rule:nonzero;fill:#e5b1a3;fill-opacity:1;" d="M 98.21875 250.882812 C 102.007812 248.144531 102.8125 243.929688 101.757812 239.5625 C 99.746094 230.761719 97.328125 222.25 97.234375 213.128906 C 100.300781 219.585938 102.929688 226.167969 106.519531 232.363281 C 109.183594 237.15625 112.390625 241.5625 115.457031 246.109375 C 113.8125 252.585938 115.078125 258.660156 116.5 265.019531 C 108.1875 266.132812 101.035156 268.253906 93.457031 271.804688 C 89.503906 265.648438 86.1875 259.148438 83.191406 252.480469 C 88.355469 253.167969 93.71875 254.292969 98.21875 250.882812 Z M 98.21875 250.882812 "/><path style=" stroke:none;fill-rule:nonzero;fill:#e5b1a3;fill-opacity:1;" d="M 137.921875 268.476562 C 157.011719 280.996094 180.101562 285.519531 202.660156 282.816406 C 218.371094 281.3125 233.386719 275.738281 245.371094 265.304688 C 247.042969 263.894531 247.738281 262.035156 248.496094 260.058594 C 250.25 259.417969 252.015625 258.78125 253.777344 258.175781 C 250.699219 266.167969 246.519531 274.386719 239.839844 279.976562 C 232.699219 285.789062 223.179688 288.230469 214.277344 289.734375 C 203.371094 291.640625 192.320312 291.949219 181.296875 291.167969 C 167.941406 290.574219 154.675781 287.234375 142.5625 281.585938 C 137.355469 279.207031 132.925781 275.582031 129.359375 271.117188 C 124.375 264.675781 120.078125 257.417969 117.53125 249.660156 C 123.605469 256.765625 130.058594 263.316406 137.921875 268.476562 Z M 137.921875 268.476562 "/></g></svg>