<svg xmlns="http://www.w3.org/2000/svg" xmlns:xlink="http://www.w3.org/1999/xlink" width="500" zoomAndPan="magnify" viewBox="0 0 375 374.999991" height="500" preserveAspectRatio="xMidYMid meet" version="1.2"><g id="efa924d220"><path style=" stroke:none;fill-rule:nonzero;fill:#5e3528;fill-opacity:1;" d="M 17.011719 143.375 C 31.546875 135.660156 47.640625 130.320312 63.140625 124.855469 C 71.628906 122.097656 81.046875 118.175781 89.992188 118.128906 C 93.691406 117.988281 97.238281 120.585938 100.183594 122.601562 C 107.773438 127.878906 113.882812 134.523438 119.914062 141.453125 C 120.449219 135.644531 120.84375 129.972656 122.453125 124.335938 C 125.585938 113.277344 131.507812 104.160156 136.421875 94.300781 C 144.609375 76.03125 154.988281 59.371094 170.140625 46.0625 C 179.023438 38.738281 190.203125 33.429688 201.75 32.34375 C 217.402344 30.28125 231.46875 34.011719 247.390625 34.5 C 256.320312 34.863281 267.078125 34.847656 275.234375 38.910156 C 281.722656 42.484375 284.132812 48.34375 284.808594 55.464844 C 300.828125 53.652344 322.371094 55.730469 333.835938 68.503906 C 343.414062 78.613281 345.679688 91.96875 343.855469 105.421875 C 350.832031 108.050781 355.792969 111.863281 359.667969 118.269531 C 368.296875 132.320312 370.34375 150.605469 365.902344 166.402344 C 364.957031 170.765625 362.972656 175.1875 362.738281 179.628906 C 366.40625 186.054688 370.1875 191.976562 371.367188 199.457031 C 375.023438 218.910156 366.894531 240.4375 353.320312 254.488281 C 351.242188 256.929688 348.957031 258.738281 348.625 262.1875 C 346.46875 276.363281 339.585938 289.828125 329.964844 300.410156 C 319.960938 311.027344 306.136719 316.445312 292.101562 319.3125 C 280.542969 321.546875 268.699219 322.996094 256.902344 322.824219 C 241.734375 322.585938 226.742188 321.972656 212.015625 318.097656 C 200.597656 315.246094 189.90625 310.429688 179.824219 304.410156 C 173.382812 300.585938 168.328125 295.5625 162.25 290.757812 C 162.25 300.019531 162.53125 308.332031 156.660156 316.082031 C 151.320312 323.167969 141.175781 327.058594 133.191406 330.351562 C 118.75 336.082031 103.789062 340.289062 88.449219 342.808594 C 77.375 344.445312 66.933594 339.484375 58.195312 333.121094 C 43.609375 322.207031 32.335938 306.175781 23.859375 290.207031 C 10.410156 264.597656 3.152344 235.652344 1.292969 206.859375 C 0.363281 187.976562 2.269531 167.691406 9.433594 150.054688 C 10.679688 146.320312 13.90625 145.234375 17.011719 143.375 Z M 17.011719 143.375 "/><path style=" stroke:none;fill-rule:nonzero;fill:#ffe3d4;fill-opacity:1;" d="M 88.527344 171.804688 C 99.914062 169.644531 110.765625 163.675781 120.6875 157.847656 C 123.003906 171.078125 127.851562 181.882812 135.554688 192.8125 C 133.601562 185.929688 131.238281 179.410156 130.515625 172.226562 C 129.160156 157.660156 131.332031 142.839844 136.6875 129.234375 C 141.824219 116.476562 147.933594 104.253906 155.273438 92.632812 C 161.964844 80.253906 169.652344 68.722656 179.890625 58.976562 C 185.953125 53.652344 193.261719 48.753906 201.671875 48.941406 C 218.128906 49.351562 233.988281 53.464844 250.585938 53.351562 C 256.917969 53.621094 263.660156 52.707031 269.847656 54 C 275 55.304688 273.753906 62.867188 272.808594 66.675781 C 267.785156 73.574219 259.816406 77.402344 252.335938 81.023438 C 238.949219 87.089844 225.324219 91.96875 210.394531 89.261719 C 203.574219 87.875 197.164062 87.152344 190.25 88.394531 C 190.269531 92.238281 189.496094 95.136719 193.699219 96.929688 C 203.96875 101.121094 216.960938 99.433594 227.515625 96.996094 C 241.609375 93.261719 255.40625 86.648438 268.023438 79.402344 C 274.984375 75.734375 280.96875 71.636719 288.859375 70.269531 C 295.109375 68.929688 301.316406 69.558594 307.425781 71.246094 C 312.640625 72.582031 317.472656 73.921875 321.648438 77.542969 C 330.703125 85.105469 332.925781 99.5 328.703125 110.128906 C 324.640625 119.484375 315.820312 127.265625 307.898438 133.421875 C 299.09375 140.523438 289.1875 145.769531 279.882812 152.085938 C 294.324219 151.550781 306.464844 145.34375 318.121094 137.359375 C 326.484375 132.382812 332.941406 125.6875 338.71875 117.941406 C 341.019531 119.5 343.710938 121.027344 345.570312 123.105469 C 345.671875 123.667969 345.773438 124.226562 345.875 124.789062 C 345.773438 124.226562 345.671875 123.667969 345.570312 123.105469 C 350.988281 129.640625 353.003906 138.667969 353.730469 146.933594 C 354.675781 158.402344 351.335938 170.007812 343.839844 178.796875 C 335.113281 189.082031 324.484375 197.851562 312.671875 204.386719 C 305.175781 208.910156 296.984375 212.074219 289.804688 217.019531 C 289.636719 217.003906 289.46875 216.988281 289.300781 216.972656 C 289.46875 216.988281 289.636719 217.003906 289.804688 217.019531 C 301.726562 216.578125 313.820312 212.941406 324.875 208.578125 C 334.71875 204.671875 343.445312 198.78125 350.941406 191.300781 L 352.011719 190.121094 C 355.886719 200.5625 357.636719 211.113281 353.902344 221.902344 C 349.871094 235.554688 339.949219 245.777344 327.539062 252.296875 C 314.214844 258.976562 300.292969 263.953125 286.054688 268.25 C 287.425781 268.675781 288.8125 269.085938 290.195312 269.480469 C 304.230469 272.316406 318.496094 269.433594 331.757812 264.613281 C 332.75 264.296875 333.757812 263.96875 334.75 263.652344 C 330.78125 274.078125 326.042969 283.636719 317.820312 291.417969 C 311.617188 297.277344 303.046875 300.882812 294.90625 303.136719 C 274.652344 308.492188 254.003906 309.214844 233.230469 307.453125 C 219.449219 306.160156 204.582031 303.386719 192.394531 296.570312 C 174.375 286.472656 161.445312 267.101562 155.492188 247.652344 L 154.234375 245.382812 C 153.203125 243.515625 152.113281 241.6875 150.996094 239.875 C 149.539062 237.507812 148.035156 235.167969 146.550781 232.816406 C 148.035156 235.167969 149.539062 237.507812 150.996094 239.875 C 152.113281 241.6875 153.203125 243.515625 154.234375 245.382812 C 152.625 254.265625 153.777344 262.707031 155.933594 271.371094 C 145.019531 272.535156 134.878906 275.828125 124.941406 280.378906 C 119.742188 271.386719 114.890625 262.21875 110.703125 252.707031 C 111.027344 252.765625 111.355469 252.824219 111.6875 252.886719 C 111.355469 252.824219 111.027344 252.765625 110.703125 252.707031 C 99.726562 227.210938 90.875 199.570312 88.527344 171.804688 Z M 202.347656 76.742188 C 205.339844 76.011719 208.402344 75.625 211.503906 75.449219 C 212.835938 75.375 214.171875 75.335938 215.515625 75.328125 C 214.171875 75.335938 212.835938 75.375 211.503906 75.449219 C 208.402344 75.625 205.339844 76.011719 202.347656 76.742188 C 201.976562 76.835938 201.617188 76.941406 201.265625 77.050781 C 201.617188 76.941406 201.976562 76.835938 202.347656 76.742188 Z M 318.890625 276.589844 C 317.5625 277.484375 316.199219 278.34375 314.808594 279.179688 C 316.199219 278.34375 317.5625 277.484375 318.890625 276.589844 Z M 283.613281 252.457031 C 284.238281 252.023438 284.871094 251.613281 285.515625 251.214844 C 284.871094 251.613281 284.238281 252.023438 283.613281 252.457031 C 283.277344 252.722656 282.917969 252.996094 282.550781 253.285156 C 282.917969 252.996094 283.277344 252.722656 283.613281 252.457031 Z M 252.179688 294.363281 C 250.453125 294.355469 248.722656 294.308594 246.992188 294.226562 C 248.722656 294.308594 250.453125 294.355469 252.179688 294.363281 Z M 241.796875 293.882812 C 240.0625 293.730469 238.328125 293.542969 236.597656 293.324219 C 238.328125 293.542969 240.0625 293.730469 241.796875 293.882812 Z M 193.5625 279.8125 C 191.03125 278.464844 188.554688 277.027344 186.140625 275.496094 C 188.554688 277.027344 191.03125 278.464844 193.5625 279.8125 Z M 174.644531 267.070312 C 175.550781 267.835938 176.472656 268.585938 177.40625 269.320312 C 176.472656 268.585938 175.550781 267.835938 174.644531 267.070312 C 173.78125 266.359375 172.933594 265.625 172.09375 264.871094 C 172.933594 265.625 173.78125 266.359375 174.644531 267.070312 Z M 134.863281 229.761719 C 135.027344 230.398438 135.191406 231.039062 135.347656 231.683594 C 135.191406 231.039062 135.027344 230.398438 134.863281 229.761719 C 134.535156 228.484375 134.207031 227.222656 133.917969 225.980469 C 131.632812 217.144531 130.40625 208.121094 129.664062 199.019531 C 130.40625 208.121094 131.632812 217.144531 133.917969 225.980469 C 134.207031 227.222656 134.535156 228.484375 134.863281 229.761719 Z M 122.925781 254.054688 C 121.582031 254.148438 120.214844 254.109375 118.847656 253.988281 C 120.214844 254.109375 121.582031 254.148438 122.925781 254.054688 Z M 117.808594 253.878906 C 116.425781 253.722656 115.046875 253.492188 113.695312 253.25 C 115.046875 253.492188 116.425781 253.722656 117.808594 253.878906 Z M 117.808594 253.878906 "/><path style=" stroke:none;fill-rule:nonzero;fill:#4b11ed;fill-opacity:1;" d="M 23.105469 158.875 C 24.492188 156.117188 26.996094 155.566406 29.59375 154.414062 C 47.925781 147.375 65.988281 140.210938 84.621094 133.910156 C 87.472656 132.777344 89.660156 134.289062 92.230469 135.390625 C 98.496094 138.445312 102.875 143.359375 106.984375 148.839844 C 100.65625 151.753906 94.230469 154.351562 87.820312 157.0625 C 84.9375 151.140625 86.558594 146.039062 87.535156 139.910156 C 84.289062 142.164062 81.15625 143.722656 79.613281 147.597656 C 74.101562 161.03125 75.25 176.085938 77 190.152344 C 79.410156 207.160156 83.785156 223.917969 90.070312 239.902344 C 95.378906 252.046875 92.796875 267.371094 85.820312 278.332031 C 78.320312 289.59375 62.621094 291.105469 51.4375 284.804688 C 41.058594 278.851562 34.476562 268.265625 29.765625 257.589844 C 19.355469 235.113281 15.214844 209.570312 16.585938 184.921875 C 17.417969 176.246094 18.742188 166.558594 23.105469 158.875 Z M 49.625 269.273438 C 57.46875 274.851562 69.0625 273.699219 75.1875 266.078125 C 84.542969 255.101562 79.929688 237.320312 67.109375 231.289062 C 59.390625 227.554688 49.484375 229.964844 44.367188 236.847656 C 36.808594 246.800781 39.359375 262.1875 49.625 269.273438 Z M 49.625 269.273438 "/><path style=" stroke:none;fill-rule:nonzero;fill:#ffffff;fill-opacity:1;" d="M 63.910156 237.683594 C 73.960938 241.070312 75.0625 256.550781 66.683594 262.363281 C 62.777344 265.289062 57.644531 264.582031 53.941406 261.714844 C 47.65625 256.472656 46.808594 246.375 52.667969 240.453125 C 55.59375 237.210938 59.832031 236.5 63.910156 237.683594 Z M 63.910156 237.683594 "/><path style=" stroke:none;fill-rule:nonzero;fill:#4b11ed;fill-opacity:1;" d="M 88.308594 287.101562 C 95.378906 280.046875 97.519531 271.324219 99.960938 262 C 107.046875 274.15625 115.300781 287.558594 126.75 296.082031 C 130.957031 299.402344 135.757812 301.105469 140.941406 302.222656 C 138.390625 298.632812 135.679688 295.121094 133.097656 291.542969 C 137.382812 290.128906 141.664062 288.742188 145.964844 287.355469 C 147.980469 294 148.34375 300.441406 147.792969 307.339844 C 132.484375 316.445312 114.890625 322.175781 97.710938 326.585938 C 91.820312 327.753906 87.1875 330.273438 81.328125 327.3125 C 64.949219 320.335938 52.257812 303.433594 43.167969 288.679688 C 48.585938 291.65625 53.707031 294.554688 59.957031 295.324219 C 70.273438 296.882812 80.761719 294.554688 88.308594 287.101562 Z M 88.308594 287.101562 "/><path style=" stroke:none;fill-rule:nonzero;fill:#e5b1a3;fill-opacity:1;" d="M 210.394531 89.261719 C 203.574219 87.875 197.164062 87.152344 190.25 88.394531 C 192.378906 82.191406 195.890625 78.425781 202.347656 76.742188 C 216.035156 73.402344 231.121094 77.277344 245.25 75.417969 C 255.1875 74.660156 264.035156 71.148438 272.808594 66.675781 C 267.785156 73.574219 259.816406 77.402344 252.335938 81.023438 C 238.949219 87.089844 225.324219 91.96875 210.394531 89.261719 Z M 210.394531 89.261719 "/><path style=" stroke:none;fill-rule:nonzero;fill:#e5b1a3;fill-opacity:1;" d="M 307.425781 71.246094 C 312.640625 72.582031 317.472656 73.921875 321.648438 77.542969 C 330.703125 85.105469 332.925781 99.5 328.703125 110.128906 C 324.640625 119.484375 315.820312 127.265625 307.898438 133.421875 C 299.09375 140.523438 289.1875 145.769531 279.878906 152.085938 C 276.257812 151.753906 271.582031 151.769531 269.769531 147.957031 C 267.25 143.125 269.832031 138.460938 273.03125 134.761719 C 283.15625 123.53125 299.898438 118.648438 310.230469 109.011719 C 315.648438 103.671875 321.410156 95.246094 320.121094 87.292969 C 318.953125 79.636719 313.488281 75.230469 307.425781 71.246094 Z M 307.425781 71.246094 "/><path style=" stroke:none;fill-rule:nonzero;fill:#e5b1a3;fill-opacity:1;" d="M 312.671875 204.386719 C 305.175781 208.910156 296.984375 212.074219 289.804688 217.019531 C 286.890625 216.765625 283.394531 216.40625 281.816406 213.554688 C 279.171875 208.183594 279.3125 201.492188 282.808594 196.496094 C 286.417969 191.222656 292.480469 187.789062 298.179688 185.160156 C 308.480469 180.433594 318.433594 177.613281 327.414062 170.292969 C 334.230469 164.636719 340.703125 157.769531 344.671875 149.800781 C 348.816406 141.25 347.191406 132.066406 345.570312 123.105469 C 350.988281 129.640625 353.003906 138.667969 353.730469 146.933594 C 354.675781 158.402344 351.335938 170.007812 343.839844 178.796875 C 335.113281 189.082031 324.484375 197.851562 312.671875 204.386719 Z M 312.671875 204.386719 "/><path style=" stroke:none;fill-rule:nonzero;fill:#e5b1a3;fill-opacity:1;" d="M 286.054688 268.25 C 287.425781 268.675781 288.8125 269.085938 290.195312 269.480469 C 285.0625 268.644531 279.976562 266.597656 277.976562 261.386719 C 276.683594 257.402344 280.9375 254.582031 283.613281 252.457031 C 293.582031 245.574219 306.574219 243.070312 317.457031 237.476562 C 328.609375 231.902344 341.335938 225.257812 347.113281 213.601562 C 350.941406 206.53125 351.082031 199.128906 350.941406 191.300781 L 352.011719 190.121094 C 355.886719 200.5625 357.636719 211.113281 353.902344 221.902344 C 349.871094 235.554688 339.949219 245.777344 327.539062 252.296875 C 314.214844 258.976562 300.292969 263.953125 286.054688 268.25 Z M 286.054688 268.25 "/><path style=" stroke:none;fill-rule:nonzero;fill:#e5b1a3;fill-opacity:1;" d="M 126.957031 253.304688 C 132.152344 251.621094 136.671875 247.070312 136.78125 241.367188 C 136.832031 236.265625 135.082031 230.941406 133.917969 225.980469 C 131.632812 217.144531 130.40625 208.121094 129.664062 199.019531 C 133.382812 207.253906 136.609375 215.585938 141.019531 223.507812 C 145.066406 231.035156 150.105469 237.917969 154.234375 245.382812 C 152.625 254.265625 153.777344 262.707031 155.933594 271.371094 C 145.019531 272.535156 134.878906 275.828125 124.941406 280.378906 C 119.742188 271.386719 114.890625 262.21875 110.703125 252.707031 C 115.914062 253.636719 121.789062 254.992188 126.957031 253.304688 Z M 126.957031 253.304688 "/><path style=" stroke:none;fill-rule:nonzero;fill:#e5b1a3;fill-opacity:1;" d="M 174.644531 267.070312 C 195.875 284.992188 224.585938 294.207031 252.179688 294.363281 C 273.140625 294.285156 293.550781 291.308594 311.992188 280.835938 C 319.585938 276.472656 326.546875 271.8125 331.757812 264.613281 C 332.75 264.296875 333.757812 263.96875 334.75 263.652344 C 330.78125 274.078125 326.042969 283.636719 317.820312 291.417969 C 311.617188 297.277344 303.046875 300.882812 294.90625 303.136719 C 274.652344 308.492188 254.003906 309.214844 233.230469 307.453125 C 219.449219 306.160156 204.582031 303.386719 192.394531 296.570312 C 174.375 286.472656 161.445312 267.101562 155.492188 247.652344 C 161.699219 254.265625 167.746094 261.371094 174.644531 267.070312 Z M 174.644531 267.070312 "/></g></svg>