<svg xmlns="http://www.w3.org/2000/svg" xmlns:xlink="http://www.w3.org/1999/xlink" width="500" zoomAndPan="magnify" viewBox="0 0 375 374.999991" height="500" preserveAspectRatio="xMidYMid meet" version="1.2"><g id="3bbc3aff45"><path style=" stroke:none;fill-rule:nonzero;fill:#5e3528;fill-opacity:1;" d="M 68.980469 249.695312 C 58.886719 250.328125 47.996094 249.097656 38.847656 254.308594 C 31.058594 258.558594 27.105469 268.269531 29.421875 276.785156 C 31.582031 285.160156 37.078125 291.980469 44.160156 296.792969 C 53.96875 303.503906 66.089844 307.398438 77.664062 309.691406 C 87.496094 311.699219 97.011719 311.398438 106.988281 311.019531 C 114.546875 310.707031 122.074219 309.90625 129.464844 308.246094 C 139.679688 305.964844 150.644531 306.3125 160.914062 308.078125 C 173.824219 310.335938 186.929688 314.351562 200.152344 313.707031 C 212.753906 312.976562 224.910156 308.378906 235.492188 301.617188 C 238.40625 299.707031 240.902344 296.804688 243.28125 294.273438 C 246.660156 295.074219 250.042969 295.871094 253.421875 296.683594 C 251.222656 304.507812 250.914062 313.707031 255.453125 320.789062 C 258.128906 325.316406 263.179688 327.800781 267.742188 330.042969 C 280.1875 335.683594 293.328125 339.613281 306.789062 341.976562 C 312.53125 342.96875 318.132812 341.929688 323.332031 339.359375 C 333.851562 334.226562 342.082031 325.171875 348.710938 315.722656 C 363.234375 294.90625 371 269.859375 373.601562 244.765625 C 375 228.386719 374.007812 210.84375 367.644531 195.507812 C 366.808594 193.214844 364.371094 192.246094 362.421875 191.085938 C 350.621094 184.816406 337.542969 180.503906 324.941406 176.097656 C 318.335938 173.898438 310.609375 170.804688 303.585938 172.417969 C 299.800781 174.136719 296.492188 177.136719 293.148438 179.585938 C 292.300781 173.769531 291.761719 168.261719 289.300781 162.828125 C 286.78125 157.285156 283.605469 151.828125 280.070312 146.871094 C 272.328125 136.300781 262.425781 129.335938 253.277344 119.914062 C 245.464844 111.886719 238 103.894531 232.613281 93.980469 C 222.917969 80.089844 217.910156 64.039062 208.523438 50.003906 C 205.011719 44.316406 200.820312 39.324219 194.753906 36.269531 C 186.511719 32.039062 175.34375 32.363281 167.878906 38.144531 C 161.621094 43.003906 157.964844 50.027344 156.136719 57.625 C 152.898438 70.964844 155.144531 85.011719 159.363281 97.863281 C 161.203125 103.8125 164.175781 109.125 166.933594 114.667969 C 154.476562 105.652344 142.460938 96.035156 131.339844 85.394531 C 116.960938 72.804688 105.183594 59.523438 89.105469 48.761719 C 82.679688 44.496094 74.738281 43.074219 67.261719 45.082031 C 58.839844 47.828125 52.808594 55.59375 51.839844 64.347656 C 50.503906 75.800781 55.066406 87.449219 61.410156 96.789062 C 67.882812 106.703125 76.136719 114.621094 84.304688 123.054688 C 69.457031 115.625 53.691406 104.207031 37.339844 100.671875 C 27.929688 98.582031 15.636719 99.691406 8.601562 107 C 1.28125 114.96875 1.414062 126.289062 5.664062 135.726562 C 10.765625 147.457031 20.621094 154.898438 30.664062 162.183594 C 47.683594 174.019531 68.132812 182.285156 86.886719 190.945312 C 72.933594 188.304688 59.140625 184.578125 45.464844 180.742188 C 37.59375 178.617188 30.402344 176.324219 22.089844 176.875 C 10.609375 177.351562 0.78125 188.089844 0.707031 199.484375 C 0.0390625 213.601562 9.75 226.488281 21.382812 233.570312 C 35.273438 242.339844 53.105469 246.328125 68.980469 249.695312 Z M 68.980469 249.695312 "/><path style=" stroke:none;fill-rule:nonzero;fill:#ffe3d4;fill-opacity:1;" d="M 106.140625 248.910156 C 113.328125 250.28125 120.054688 250.855469 126.933594 253.398438 C 120.53125 255.929688 113.304688 256.277344 106.34375 257.363281 C 91.222656 257.460938 76.015625 257.949219 60.929688 258.859375 C 55.222656 259.335938 47.933594 259.71875 43.371094 263.585938 C 41.054688 265.488281 40.445312 268.03125 39.8125 270.8125 C 40.980469 271.945312 42.121094 273.078125 43.265625 274.183594 C 42.121094 273.078125 40.980469 271.945312 39.8125 270.8125 C 40.46875 276.285156 42.679688 280.894531 46.847656 284.539062 C 54.386719 291.15625 65.050781 294.796875 74.628906 297.269531 C 87.863281 300.804688 100.585938 300.148438 114.105469 299.992188 C 127.625 299.503906 141.171875 297.484375 154.714844 297.484375 C 171.246094 297.542969 189.402344 304.617188 205.5 301.234375 C 214.222656 299.421875 223.15625 295.96875 230.105469 290.292969 C 238.074219 283.34375 243.734375 273.65625 246.21875 263.410156 C 248.128906 255.8125 247.925781 248.40625 248.738281 240.738281 C 248.496094 240.308594 248.246094 239.878906 247.996094 239.453125 C 248.246094 239.878906 248.496094 240.308594 248.738281 240.738281 C 251.628906 245.398438 253.386719 250.113281 254.148438 255.550781 C 255.058594 265.308594 253.410156 274.660156 250.015625 283.785156 C 260.230469 287.011719 270.441406 290.105469 280.390625 294.128906 C 289.957031 278.613281 297.042969 261.089844 301.699219 243.496094 C 304.984375 233.488281 307.132812 222.953125 307.589844 212.429688 C 301.03125 211.308594 295.644531 208.261719 289.683594 205.550781 C 286.253906 212.050781 282.636719 216.074219 276.496094 220.109375 C 278.550781 211.070312 282.160156 202.898438 282.433594 193.453125 C 283.4375 181.9375 280.855469 171.617188 274.515625 161.992188 C 266.023438 147.789062 253.78125 140.003906 242.875 127.914062 C 233.320312 117.953125 225.757812 106.59375 218.675781 94.792969 C 209.214844 80.519531 204.832031 65.78125 194.308594 52.25 C 191.480469 48.714844 187.742188 46.875 183.285156 46.242188 C 178.757812 45.882812 174.625 48.257812 172.203125 52.011719 C 167.328125 59.285156 166.613281 68.839844 167.257812 77.332031 C 168.691406 92.964844 174.660156 108.195312 184.992188 120.089844 C 189.902344 125.992188 195.503906 131.976562 198.132812 139.296875 C 199.492188 143.453125 201.25 146.988281 200.019531 151.480469 C 195.097656 173.566406 193.714844 197.5625 203.398438 218.605469 C 198.515625 213.242188 194.417969 207.285156 191.695312 200.535156 C 184.886719 182.691406 184.3125 163.042969 190.40625 144.910156 C 179.941406 139.691406 170.898438 132.550781 161.546875 125.644531 C 152.195312 118.621094 142.855469 111.8125 134.003906 104.207031 C 122 93.539062 110.152344 82.707031 98.53125 71.621094 C 92.273438 66.558594 86.074219 60.097656 78.644531 56.859375 C 73.652344 54.902344 69.792969 56.238281 65.898438 59.59375 C 61.800781 66.390625 62.636719 73.988281 65.015625 81.203125 C 68.097656 90.101562 74.1875 98.339844 80.207031 105.484375 C 96.847656 125.023438 118.117188 141.722656 138.972656 156.558594 C 141.445312 158.359375 144.214844 160.128906 146.28125 162.398438 C 145.769531 163.734375 145.101562 165.011719 144.46875 166.304688 C 139.855469 163.890625 135.257812 161.40625 130.816406 158.695312 C 127.421875 156.089844 123.921875 153.640625 120.328125 151.324219 C 114.632812 147.632812 108.265625 145.28125 102.414062 141.792969 C 88.152344 133.335938 72.695312 126.542969 57.597656 119.695312 C 48.339844 115.753906 37.113281 110.644531 26.890625 111.730469 C 23.1875 112.316406 18.996094 112.972656 16.5 116.089844 C 13.773438 119.433594 13.738281 124.261719 14.585938 128.285156 C 16.355469 135.796875 21.144531 141.878906 26.710938 147.023438 C 40.78125 160.269531 59.199219 169.777344 76.300781 178.640625 C 89.429688 185.101562 102.640625 191.742188 116.195312 197.261719 C 120.699219 199.113281 125.203125 200.953125 129.453125 203.355469 C 127.566406 204.296875 125.871094 205.324219 123.707031 205.445312 C 116.914062 205.933594 109.914062 204.558594 103.128906 203.976562 C 103.792969 204.238281 104.460938 204.503906 105.125 204.78125 C 104.460938 204.503906 103.792969 204.238281 103.128906 203.976562 C 81.175781 200.09375 59.355469 196.210938 37.746094 190.800781 C 31.320312 189.449219 24.082031 187.3125 17.882812 190.539062 C 17.921875 191.070312 17.960938 191.597656 17.996094 192.121094 C 17.960938 191.597656 17.921875 191.070312 17.882812 190.539062 C 15.566406 192.808594 13.429688 195.125 12.902344 198.46875 C 11.78125 206.113281 15.484375 213.386719 20.59375 218.820312 C 28.121094 226.726562 38.535156 231.242188 48.582031 235.015625 C 67.402344 242.066406 86.480469 245.253906 106.140625 248.910156 Z M 51.503906 280.921875 C 52.523438 281.554688 53.589844 282.132812 54.71875 282.652344 C 53.589844 282.132812 52.523438 281.554688 51.503906 280.921875 Z M 263.683594 202.386719 C 263.328125 203.433594 262.910156 204.457031 262.441406 205.453125 C 262.910156 204.457031 263.328125 203.433594 263.683594 202.386719 Z M 255.5 268.089844 C 256.582031 268.710938 257.742188 269.195312 258.960938 269.550781 C 257.742188 269.195312 256.582031 268.710938 255.5 268.089844 C 255.382812 267.851562 255.277344 267.601562 255.183594 267.34375 C 255.277344 267.601562 255.382812 267.851562 255.5 268.089844 Z M 244.859375 219.691406 C 245.128906 219.871094 245.402344 220.046875 245.671875 220.222656 C 245.402344 220.046875 245.128906 219.871094 244.859375 219.691406 Z M 241.273438 148.625 C 242.152344 149.734375 243.046875 150.800781 243.949219 151.835938 C 243.046875 150.800781 242.152344 149.734375 241.273438 148.625 C 240.035156 147.085938 238.761719 145.574219 237.464844 144.085938 C 238.761719 145.574219 240.035156 147.085938 241.273438 148.625 Z M 225.472656 130.996094 C 227.480469 133.171875 229.503906 135.328125 231.515625 137.5 C 229.503906 135.328125 227.480469 133.171875 225.472656 130.996094 C 224.878906 130.355469 224.296875 129.703125 223.730469 129.046875 C 224.296875 129.703125 224.878906 130.355469 225.472656 130.996094 Z M 90.640625 103.105469 C 92.320312 104.917969 94.039062 106.695312 95.792969 108.433594 C 94.039062 106.695312 92.320312 104.917969 90.640625 103.105469 Z M 101.25 113.582031 C 102.90625 115.074219 104.59375 116.53125 106.3125 117.953125 C 104.59375 116.53125 102.90625 115.074219 101.25 113.582031 Z M 22.851562 124.535156 C 22.730469 124.246094 22.628906 123.960938 22.546875 123.675781 C 22.628906 123.960938 22.730469 124.246094 22.851562 124.535156 C 23.023438 124.914062 23.203125 125.289062 23.398438 125.660156 C 23.203125 125.289062 23.023438 124.914062 22.851562 124.535156 Z M 136.898438 277.660156 C 137.1875 278.472656 137.421875 279.300781 137.582031 280.148438 C 137.421875 279.300781 137.1875 278.472656 136.898438 277.660156 Z M 190.917969 219.613281 C 191.25 220.277344 191.578125 220.949219 191.910156 221.617188 C 191.035156 222.082031 190.171875 222.558594 189.320312 223.042969 C 190.171875 222.558594 191.035156 222.082031 191.910156 221.617188 C 191.578125 220.949219 191.25 220.277344 190.917969 219.613281 Z M 181.8125 215.582031 C 181.191406 215.867188 180.582031 216.179688 179.988281 216.515625 C 180.582031 216.179688 181.191406 215.867188 181.8125 215.582031 Z M 186.964844 288.121094 C 188.488281 288.175781 190.015625 288.171875 191.53125 288.113281 C 190.015625 288.171875 188.488281 288.175781 186.964844 288.121094 C 183.140625 288.214844 179.347656 287.96875 175.660156 287.328125 C 179.347656 287.96875 183.140625 288.214844 186.964844 288.121094 Z M 146.066406 175.203125 C 149.617188 168.535156 155.074219 159.804688 163.410156 159.171875 C 157.90625 165.035156 154.535156 173.351562 151.824219 180.828125 C 146.738281 196.089844 143.8125 211.964844 142.808594 228.019531 C 142.1875 238.003906 141.242188 248.574219 143.058594 258.464844 C 140.882812 255.882812 139.796875 252.898438 138.996094 249.660156 C 132.488281 225.246094 134.914062 197.90625 146.066406 175.203125 Z M 134.527344 177.714844 C 134.457031 178.128906 134.382812 178.546875 134.316406 178.964844 C 134.382812 178.546875 134.457031 178.128906 134.527344 177.714844 Z M 134.089844 289.683594 C 134.496094 289.683594 134.859375 289.613281 135.179688 289.492188 C 134.859375 289.613281 134.496094 289.683594 134.089844 289.6875 C 127.507812 290.796875 120.746094 290.941406 114.105469 291.523438 C 112.175781 291.617188 110.253906 291.699219 108.335938 291.765625 C 110.253906 291.699219 112.175781 291.617188 114.105469 291.523438 C 120.746094 290.941406 127.507812 290.796875 134.089844 289.683594 Z M 126.863281 227.683594 C 126.898438 227.417969 126.921875 227.15625 126.933594 226.890625 C 126.921875 227.15625 126.898438 227.417969 126.863281 227.683594 C 126.824219 227.90625 126.777344 228.128906 126.726562 228.355469 C 126.777344 228.128906 126.824219 227.90625 126.863281 227.683594 Z M 20.894531 204.191406 C 20.535156 203.582031 20.226562 202.96875 19.957031 202.351562 C 20.226562 202.96875 20.535156 203.582031 20.894531 204.191406 C 21.859375 205.875 23.050781 207.34375 24.390625 208.640625 C 23.050781 207.34375 21.859375 205.875 20.894531 204.191406 Z M 20.894531 204.191406 "/><path style=" stroke:none;fill-rule:nonzero;fill:#f35695;fill-opacity:1;" d="M 309.046875 188.234375 C 316.511719 192.808594 316.890625 201 317.597656 208.882812 C 318.027344 224.804688 314.46875 241.023438 309.570312 256.109375 C 307.660156 262.371094 304.28125 268.101562 304.519531 274.578125 C 304.578125 281.597656 306.679688 289.410156 311.195312 294.917969 C 316.617188 301.460938 326.160156 302.070312 333.648438 299.335938 C 343.167969 295.074219 348.734375 285.972656 352.738281 276.773438 C 361.050781 258.808594 363.714844 238.027344 361.96875 218.414062 C 361.191406 213.0625 360.238281 206.914062 357.25 202.289062 C 356.273438 200.582031 354.671875 200.210938 352.988281 199.460938 C 338.988281 194.050781 325.15625 188.613281 310.945312 183.765625 C 308.449219 182.679688 306.453125 184.304688 304.207031 185.292969 C 299.871094 187.5625 296.730469 191.050781 293.898438 194.957031 C 298.820312 197.347656 303.800781 199.519531 309.019531 201.15625 C 309.929688 196.808594 309.332031 192.605469 309.046875 188.234375 Z M 324.871094 257.234375 C 330.820312 254.738281 337.867188 256.957031 341.582031 262.128906 C 347.625 270.671875 344.269531 284.261719 334.1875 288.074219 C 326.867188 291.144531 318.363281 287.117188 315.472656 279.890625 C 311.839844 271.316406 316.296875 260.746094 324.871094 257.234375 Z M 324.871094 257.234375 "/><path style=" stroke:none;fill-rule:nonzero;fill:#ffffff;fill-opacity:1;" d="M 324.082031 280.871094 C 327.210938 283.488281 331.8125 282.890625 334.628906 280.117188 C 339.109375 275.972656 339.238281 268.402344 334.726562 264.222656 C 332.167969 261.582031 328.011719 261.316406 324.929688 263.15625 C 318.839844 266.980469 318.527344 276.425781 324.082031 280.871094 Z M 324.082031 280.871094 "/><path style=" stroke:none;fill-rule:nonzero;fill:#f35695;fill-opacity:1;" d="M 310.992188 302.335938 C 303.492188 297.089844 301.125 289.136719 299.261719 280.632812 C 293.683594 290.484375 287.855469 299.671875 278.800781 306.742188 C 275.433594 309.394531 271.550781 310.550781 267.480469 311.664062 C 269.796875 308.925781 272.007812 306.144531 274.023438 303.195312 C 270.765625 302.179688 267.503906 301.140625 264.253906 300.113281 C 263.074219 304.960938 261.925781 309.558594 262.941406 314.589844 C 263.632812 316.058594 265.710938 316.824219 267.039062 317.648438 C 279.578125 324 293.277344 328.253906 306.992188 331.226562 C 310.441406 332.148438 314.265625 330.019531 317.226562 328.433594 C 328 322.199219 335.714844 311.496094 342.261719 301.175781 C 332.800781 307.0625 320.582031 308.914062 310.992188 302.335938 Z M 310.992188 302.335938 "/><path style=" stroke:none;fill-rule:nonzero;fill:#e5b1a3;fill-opacity:1;" d="M 193.378906 60.359375 C 196.867188 68.421875 198.835938 77.140625 201.800781 85.40625 C 204.523438 92.941406 206.921875 100.683594 210.28125 107.957031 C 214.328125 116.328125 219.140625 124.152344 225.472656 130.996094 C 230.824219 136.800781 236.316406 142.460938 241.273438 148.625 C 248.296875 157.488281 256.335938 163.628906 261.4375 173.863281 C 266.988281 184.816406 267.230469 199.902344 259.714844 210.019531 C 255.871094 215.261719 250.554688 217.136719 244.859375 219.691406 C 249.207031 222.546875 253.492188 225.007812 258.832031 225.320312 C 265.292969 225.964844 271.277344 223.789062 276.496094 220.109375 C 278.550781 211.070312 282.160156 202.898438 282.433594 193.453125 C 283.4375 181.9375 280.855469 171.617188 274.515625 161.992188 C 266.023438 147.789062 253.78125 140.003906 242.875 127.914062 C 233.320312 117.953125 225.757812 106.59375 218.675781 94.792969 C 209.214844 80.519531 204.832031 65.78125 194.308594 52.25 C 191.480469 48.714844 187.742188 46.875 183.285156 46.242188 C 187.550781 50.277344 191.050781 54.949219 193.378906 60.359375 Z M 193.378906 60.359375 "/><path style=" stroke:none;fill-rule:nonzero;fill:#e5b1a3;fill-opacity:1;" d="M 106.140625 248.910156 C 113.328125 250.28125 120.054688 250.855469 126.933594 253.398438 C 120.53125 255.929688 113.304688 256.277344 106.34375 257.363281 C 114.070312 259.429688 122.238281 260.816406 128.449219 266.238281 C 133.539062 270.648438 138.328125 276.953125 137.828125 284.046875 C 137.574219 286.328125 136.992188 289.660156 134.089844 289.6875 C 127.507812 290.796875 120.746094 290.941406 114.105469 291.523438 C 93.539062 292.527344 73.472656 292.144531 54.71875 282.652344 C 48.6875 279.890625 44.484375 275.339844 39.8125 270.8125 C 40.46875 276.285156 42.679688 280.894531 46.847656 284.539062 C 54.386719 291.15625 65.050781 294.796875 74.628906 297.269531 C 87.863281 300.804688 100.585938 300.148438 114.105469 299.992188 C 127.625 299.503906 141.171875 297.484375 154.714844 297.484375 C 171.246094 297.542969 189.402344 304.617188 205.5 301.234375 C 214.222656 299.421875 223.15625 295.96875 230.105469 290.292969 C 238.074219 283.34375 243.734375 273.65625 246.21875 263.410156 C 248.128906 255.8125 247.925781 248.40625 248.738281 240.738281 C 244.832031 233.847656 240.128906 227.660156 233.738281 222.882812 C 237.035156 234.179688 237.273438 245.730469 235.230469 257.269531 C 233.488281 265.726562 228.554688 273.132812 221.589844 278.195312 C 211.523438 285.421875 199.289062 288.550781 186.964844 288.121094 C 174.734375 288.417969 162.800781 285.230469 153.617188 276.90625 C 148.097656 271.875 145.746094 265.222656 143.058594 258.464844 C 140.882812 255.882812 139.796875 252.898438 138.996094 249.660156 C 132.488281 225.246094 134.914062 197.90625 146.066406 175.203125 C 149.617188 168.535156 155.074219 159.804688 163.410156 159.171875 C 167.007812 155.816406 170.148438 152.316406 172.546875 147.992188 C 164.414062 144.863281 155.753906 144.792969 147.539062 142.042969 C 136.523438 138.652344 127.351562 132.644531 117.726562 126.457031 C 101.898438 115.851562 88.558594 102.1875 77.257812 86.898438 C 71.308594 78.679688 66.628906 69.925781 65.898438 59.59375 C 61.800781 66.390625 62.636719 73.988281 65.015625 81.203125 C 68.097656 90.101562 74.1875 98.339844 80.207031 105.484375 C 96.847656 125.023438 118.117188 141.722656 138.972656 156.558594 C 141.445312 158.359375 144.214844 160.128906 146.28125 162.398438 C 145.769531 163.734375 145.101562 165.011719 144.46875 166.304688 C 139.855469 163.890625 135.257812 161.40625 130.816406 158.695312 C 132.390625 161.96875 134.039062 165.382812 134.875 168.929688 C 135.652344 172.285156 134.863281 175.632812 134.316406 178.964844 C 116.375 176.945312 99.6875 170.421875 83.195312 163.402344 C 67.296875 156.210938 51.660156 148.566406 36.921875 139.179688 C 31.546875 135.488281 25.5625 130.601562 22.851562 124.535156 C 20.871094 119.949219 24.535156 115.410156 26.890625 111.730469 C 23.1875 112.316406 18.996094 112.972656 16.5 116.089844 C 13.773438 119.433594 13.738281 124.261719 14.585938 128.285156 C 16.355469 135.796875 21.144531 141.878906 26.710938 147.023438 C 40.78125 160.269531 59.199219 169.777344 76.300781 178.640625 C 89.429688 185.101562 102.640625 191.742188 116.195312 197.261719 C 120.699219 199.113281 125.203125 200.953125 129.453125 203.355469 C 127.566406 204.296875 125.871094 205.324219 123.707031 205.445312 C 116.914062 205.933594 109.914062 204.558594 103.128906 203.976562 C 110.222656 206.769531 117.34375 210.28125 122.464844 216.085938 C 125.179688 219.191406 127.421875 223.457031 126.863281 227.683594 C 126.46875 230.046875 125.082031 232.808594 122.417969 233.09375 C 118.523438 233.703125 114.453125 233.5 110.511719 233.429688 C 92.558594 232.867188 75.085938 229.453125 57.835938 224.566406 C 49.90625 222.226562 42.214844 219 34.761719 215.40625 C 29.351562 212.71875 23.988281 209.589844 20.894531 204.191406 C 18.351562 199.855469 18.242188 195.410156 17.882812 190.539062 C 15.566406 192.808594 13.429688 195.125 12.902344 198.46875 C 11.78125 206.113281 15.484375 213.386719 20.59375 218.820312 C 28.121094 226.726562 38.535156 231.242188 48.582031 235.015625 C 67.402344 242.066406 86.480469 245.253906 106.140625 248.910156 Z M 106.140625 248.910156 "/><path style=" stroke:none;fill-rule:nonzero;fill:#e5b1a3;fill-opacity:1;" d="M 191.910156 221.617188 C 190.582031 218.941406 189.292969 216.277344 187.8125 213.683594 C 182.089844 214.738281 177.457031 217.519531 173.457031 221.6875 C 165.476562 229.90625 159.984375 240.34375 158.023438 251.65625 C 167.054688 238.589844 177.910156 229.09375 191.910156 221.617188 Z M 191.910156 221.617188 "/><path style=" stroke:none;fill-rule:nonzero;fill:#e5b1a3;fill-opacity:1;" d="M 255.5 268.089844 C 253.816406 264.675781 254.902344 259.417969 254.148438 255.550781 C 255.058594 265.308594 253.410156 274.660156 250.015625 283.785156 C 260.230469 287.011719 270.441406 290.105469 280.390625 294.128906 C 289.957031 278.613281 297.042969 261.089844 301.699219 243.496094 C 295.140625 252.46875 289.625 261.460938 279.410156 266.742188 C 272.605469 270.335938 262.425781 272.066406 255.5 268.089844 Z M 255.5 268.089844 "/></g></svg>