<svg xmlns="http://www.w3.org/2000/svg" xmlns:xlink="http://www.w3.org/1999/xlink" width="500" zoomAndPan="magnify" viewBox="0 0 375 374.999991" height="500" preserveAspectRatio="xMidYMid meet" version="1.2"><g id="c7572f9012"><path style=" stroke:none;fill-rule:nonzero;fill:#5e3528;fill-opacity:1;" d="M 12.738281 167.398438 C 12.382812 172.191406 10.816406 176.855469 10.332031 181.667969 C 8.835938 192.476562 9.964844 204.855469 15.449219 214.492188 C 20.40625 222.925781 29.046875 228.058594 37.582031 232.285156 C 36.570312 247.976562 41.925781 264.246094 51.546875 276.625 C 59.9375 287.007812 72.078125 289.546875 84.796875 290.175781 C 92.644531 291.054688 100.195312 289.675781 107.96875 289.222656 C 116.023438 294.589844 124.265625 299.300781 133.742188 301.675781 C 151.578125 305.914062 169.925781 306.164062 186.878906 298.40625 C 196.179688 294.839844 202.839844 288.34375 210.773438 282.710938 C 208.867188 291.773438 206.386719 299.855469 209.835938 309.007812 C 212.371094 316.003906 218.152344 320.097656 224.03125 324.144531 C 236.339844 332.023438 249.4375 338.519531 263.136719 343.578125 C 270.96875 346.894531 278.960938 348.375 287.320312 346.042969 C 303.117188 341.832031 317.300781 329.792969 327.949219 317.765625 C 345.167969 298.316406 357.035156 275.289062 364.851562 250.617188 C 371.480469 229.425781 375.046875 205.445312 370.792969 183.441406 C 370.042969 180.390625 369.984375 177.136719 367.273438 175.097656 C 355.011719 165.066406 340.183594 157.554688 326.277344 150.03125 C 318.109375 145.9375 309.308594 140.4375 300.289062 138.972656 C 297.589844 138.429688 295.285156 139.351562 292.835938 140.363281 C 284.210938 144.222656 276.730469 149.753906 269.78125 156.089844 C 269.96875 148.710938 270.191406 141.582031 268.503906 134.320312 C 264.867188 119.363281 258.765625 104.957031 251.476562 91.421875 C 242.101562 74.15625 228.433594 59.710938 210.128906 51.980469 C 190.796875 43.136719 168.003906 43.296875 149.082031 53.199219 C 137.421875 43.136719 123.621094 36.859375 108.734375 33.191406 C 93.699219 29.613281 78.519531 26.648438 63.265625 30.917969 C 48.128906 35.523438 37.4375 49.046875 34.53125 64.332031 C 33.152344 72.953125 35.851562 80.683594 39.957031 88.121094 C 31.628906 88.222656 24.132812 89.761719 18.089844 95.910156 C 3.511719 110.28125 0.0195312 134.558594 6.078125 153.566406 C 7.414062 158.699219 10.464844 162.734375 12.738281 167.398438 Z M 12.738281 167.398438 "/><path style=" stroke:none;fill-rule:nonzero;fill:#ffe3d4;fill-opacity:1;" d="M 130.398438 159.492188 C 136.203125 159.917969 141.046875 162.015625 146.5 163.789062 C 148.4375 154.488281 151.3125 144.179688 150.066406 134.675781 C 149.257812 128.9375 144.960938 123.644531 139.019531 122.867188 C 132.582031 122.96875 124.542969 125.933594 122.125 132.460938 C 119.160156 141.199219 117.300781 150.398438 116.625 159.609375 C 121.1875 159.503906 125.835938 159.199219 130.398438 159.492188 Z M 130.398438 159.492188 "/><path style=" stroke:none;fill-rule:nonzero;fill:#ffe3d4;fill-opacity:1;" d="M 294.128906 188.664062 C 284.007812 185.011719 274.839844 177.871094 266.433594 171.285156 C 264.574219 175.742188 263.019531 180.203125 260.628906 184.441406 C 257.53125 190.070312 253.5 194.53125 249.804688 199.738281 C 251.679688 192.625 254.703125 185.964844 256.34375 178.792969 C 260.890625 154.109375 254.6875 129.261719 242.484375 107.714844 C 235.195312 94.164062 227.1875 81.710938 214.25 72.867188 C 203.9375 65.914062 191.25 61.117188 178.679688 61.675781 C 161.828125 61.75 145.285156 71.03125 137.246094 85.992188 C 131.746094 96.171875 128.902344 108.214844 125.835938 119.332031 C 131.480469 117.441406 136.675781 115.238281 142.761719 116.617188 C 151.078125 118.628906 156.476562 126.417969 157.179688 134.703125 C 158.042969 146.980469 155.214844 159.417969 148.714844 169.90625 C 142.378906 169.070312 136.675781 166.195312 130.367188 165.371094 C 126.128906 164.816406 121.789062 164.742188 117.535156 164.609375 C 118.265625 166.03125 119.03125 167.441406 119.792969 168.847656 C 121.816406 172.207031 123.824219 175.417969 127.507812 177.136719 C 137.054688 181.507812 147.867188 179.835938 156.535156 174.246094 C 169.46875 165.855469 179.664062 152.875 185.546875 138.679688 C 189.578125 129.671875 191.015625 120.257812 194.066406 110.972656 C 194.875 118.847656 195.007812 126.652344 192.96875 134.367188 C 188.890625 150.574219 186.894531 167.042969 188.667969 183.75 C 189.609375 192.40625 192.675781 200.867188 192.542969 209.375 C 187.378906 205.28125 182.699219 201.085938 180.074219 194.882812 C 177.257812 188.679688 176.65625 182.34375 176.1875 175.625 C 171.230469 181.082031 165.980469 185.160156 159.46875 188.648438 C 159.050781 189.703125 158.609375 190.746094 158.164062 191.789062 C 158.609375 190.746094 159.050781 189.703125 159.46875 188.648438 C 153.425781 190.777344 147.160156 191.921875 140.824219 192.785156 C 139.902344 200.792969 138.449219 208.257812 134.503906 215.375 C 140.328125 223.691406 144.652344 233.589844 146.003906 243.695312 C 147.175781 252.714844 143.1875 260.328125 138.492188 267.660156 C 134.5625 273.734375 129.355469 277.988281 123.972656 282.695312 C 137.011719 288.652344 151.269531 291.4375 165.582031 290.585938 C 178.59375 289.3125 192.160156 284.292969 201.765625 275.214844 C 210.625 266.765625 217.578125 256.824219 223.34375 246.070312 C 223.710938 254.886719 221.40625 262.703125 218.019531 270.726562 C 227.859375 273.398438 236.574219 277.578125 245.050781 283.210938 C 253.042969 274.261719 259.71875 264.332031 265.746094 253.976562 C 264.972656 254.183594 264.207031 254.398438 263.445312 254.613281 C 264.207031 254.398438 264.972656 254.183594 265.746094 253.976562 C 278.214844 233.765625 288.289062 211.734375 294.128906 188.664062 Z M 150.695312 170.964844 C 151.113281 170.789062 151.511719 170.582031 151.890625 170.347656 C 151.511719 170.582031 151.113281 170.789062 150.695312 170.964844 Z M 156.019531 165.019531 C 155.929688 165.25 155.835938 165.476562 155.738281 165.695312 C 155.835938 165.476562 155.929688 165.25 156.019531 165.019531 C 156.609375 163.496094 157.101562 161.96875 157.566406 160.449219 C 157.101562 161.96875 156.609375 163.496094 156.019531 165.019531 Z M 163.78125 146.289062 C 163.488281 146.65625 163.214844 147.027344 162.957031 147.402344 C 163.214844 147.027344 163.488281 146.65625 163.78125 146.289062 C 164.410156 145.441406 165.027344 144.585938 165.621094 143.722656 C 165.027344 144.585938 164.410156 145.441406 163.78125 146.289062 Z M 198.230469 213.941406 C 199.777344 215.09375 201.378906 216.160156 203.066406 217.074219 C 201.378906 216.160156 199.777344 215.09375 198.230469 213.941406 Z M 204.746094 252.84375 C 205.882812 252.523438 207.003906 252.160156 208.105469 251.75 C 207.003906 252.160156 205.882812 252.523438 204.746094 252.84375 Z M 208.710938 219.339844 C 209.910156 219.65625 211.125 219.875 212.351562 220.011719 C 211.125 219.875 209.910156 219.65625 208.710938 219.339844 Z M 227.742188 236.683594 C 226.742188 238.109375 225.660156 239.453125 224.511719 240.714844 C 225.660156 239.453125 226.742188 238.109375 227.742188 236.683594 Z M 237.378906 187.328125 C 237.730469 187.335938 238.078125 187.332031 238.421875 187.320312 C 238.078125 187.332031 237.730469 187.335938 237.378906 187.328125 Z M 237.378906 187.328125 "/><path style=" stroke:none;fill-rule:nonzero;fill:#ffe3d4;fill-opacity:1;" d="M 81.847656 243.210938 C 71.082031 242.476562 60.832031 239.75 50.371094 237.332031 C 51.265625 243.519531 52.734375 249.460938 55.167969 255.238281 C 57.96875 261.957031 61.242188 269.804688 68.132812 273.222656 C 75.628906 276.902344 85.53125 276.667969 93.714844 276.695312 C 106.738281 276.652344 119.675781 271.886719 127.769531 261.324219 C 131.21875 256.707031 135.046875 250.898438 134.589844 244.898438 C 134.167969 237.519531 131.070312 230.054688 127.523438 223.660156 C 119.71875 229.015625 113.03125 235.085938 104.554688 239.574219 C 104.730469 240.230469 104.929688 240.910156 105.125 241.605469 C 104.929688 240.910156 104.730469 240.230469 104.554688 239.574219 C 97.484375 243.429688 89.738281 244.195312 81.847656 243.210938 Z M 81.847656 243.210938 "/><path style=" stroke:none;fill-rule:nonzero;fill:#ffe3d4;fill-opacity:1;" d="M 68.179688 94.25 C 81.847656 102.140625 96.78125 108.597656 111.386719 114.550781 C 113.425781 107.570312 115.230469 100.527344 117.476562 93.664062 C 116.859375 93.429688 116.246094 93.199219 115.632812 92.976562 C 116.246094 93.199219 116.859375 93.429688 117.476562 93.664062 C 120.027344 86.15625 123.285156 78.644531 127.757812 72.089844 C 130.632812 67.804688 134.753906 64.167969 138.257812 60.355469 C 125.191406 51.246094 108.628906 46.480469 93.214844 43.0625 C 81.496094 40.90625 67.8125 40.027344 58.101562 48.242188 C 53.21875 52.964844 49.226562 59.242188 48.097656 66.003906 C 47.175781 71.691406 49.023438 77.515625 52.574219 81.976562 C 56.605469 87.09375 62.605469 90.996094 68.179688 94.25 Z M 88.289062 82.957031 C 88.882812 83.238281 89.480469 83.511719 90.082031 83.777344 C 89.480469 83.511719 88.882812 83.238281 88.289062 82.957031 C 85.941406 81.855469 83.621094 80.675781 81.34375 79.414062 C 83.621094 80.675781 85.941406 81.855469 88.289062 82.957031 Z M 88.289062 82.957031 "/><path style=" stroke:none;fill-rule:nonzero;fill:#ffe3d4;fill-opacity:1;" d="M 43.480469 171.753906 C 63.96875 178.835938 86.792969 182.476562 108.132812 177.164062 C 104.363281 167.191406 102.617188 156.953125 103.527344 146.277344 C 104.992188 137.429688 107.605469 129.117188 109.746094 120.460938 C 94.257812 116.195312 78.003906 111.675781 63.410156 104.898438 C 58.761719 102.800781 54.390625 99.722656 49.390625 99.078125 C 43.421875 98.195312 35.984375 98.035156 30.527344 101.058594 C 24.132812 105.003906 20.4375 113.097656 18.457031 120.066406 C 15.800781 131.726562 15.566406 143.839844 20.804688 154.839844 C 25.453125 163.65625 34.445312 168.46875 43.480469 171.753906 Z M 43.480469 171.753906 "/><path style=" stroke:none;fill-rule:nonzero;fill:#ffe3d4;fill-opacity:1;" d="M 102.148438 191.699219 C 80.058594 195.101562 58.160156 191.480469 37.421875 183.632812 C 32.65625 181.816406 28.355469 178.984375 23.574219 177.28125 C 21.917969 182.828125 22.210938 189.175781 22.695312 194.898438 C 23.386719 201.144531 23.914062 206.925781 28.546875 211.632812 C 35.75 219.070312 46.601562 223.527344 56.429688 226.285156 C 67.109375 229.175781 78.210938 231.726562 89.300781 232.195312 C 97.558594 232.535156 104.023438 227.988281 110.480469 223.511719 C 115.671875 219.714844 121.375 215.535156 125.175781 210.285156 C 129.078125 204.886719 128.988281 198.316406 129.53125 191.933594 C 125.4375 190.511719 121.289062 188.53125 117.003906 187.84375 C 111.988281 188.164062 107.03125 190.511719 102.148438 191.699219 Z M 73.703125 215.171875 C 74.695312 215.136719 75.683594 215.074219 76.667969 214.988281 C 75.683594 215.074219 74.695312 215.136719 73.703125 215.171875 Z M 92.203125 211.074219 C 90 212.066406 87.707031 212.867188 85.355469 213.492188 C 87.707031 212.867188 90 212.066406 92.203125 211.074219 C 92.984375 210.703125 93.710938 210.296875 94.390625 209.863281 C 93.710938 210.296875 92.984375 210.703125 92.203125 211.074219 Z M 104.753906 192.851562 C 104.902344 192.34375 105.050781 191.832031 105.199219 191.320312 C 105.050781 191.832031 104.902344 192.34375 104.753906 192.851562 Z M 104.753906 192.851562 "/><path style=" stroke:none;fill-rule:nonzero;fill:#f98805;fill-opacity:1;" d="M 280.441406 164.933594 C 285.839844 168.378906 291.324219 171.679688 296.765625 175.054688 C 300.347656 169.964844 299.347656 164.949219 299.539062 159.109375 C 308.367188 166.03125 307.226562 176.109375 306.550781 186.183594 C 303.457031 209.859375 293.394531 233.222656 281.570312 253.816406 C 276.453125 263.820312 277.15625 276.945312 281.644531 287.066406 C 287.011719 298.476562 301.269531 302.113281 312.476562 297.730469 C 324.328125 293.109375 332.570312 282.007812 338.804688 271.386719 C 345.285156 261.339844 349.464844 250.339844 352.988281 238.957031 C 357.578125 223.511719 360.160156 207.628906 357.78125 191.539062 C 356.945312 188.164062 356.34375 183.792969 352.898438 182.109375 C 338.011719 173.441406 323.066406 164.859375 307.855469 156.761719 C 305.464844 155.53125 303.042969 153.976562 300.417969 153.332031 C 292.453125 154.652344 285.691406 158.890625 280.441406 164.933594 Z M 325.132812 253.859375 C 331.234375 263.90625 327.15625 277.695312 316.976562 283.328125 C 308.734375 287.902344 297.925781 285.351562 293.042969 277.152344 C 286.515625 266.136719 292.132812 251.292969 303.984375 246.804688 C 311.714844 243.679688 320.820312 246.761719 325.132812 253.859375 Z M 325.132812 253.859375 "/><path style=" stroke:none;fill-rule:nonzero;fill:#ffffff;fill-opacity:1;" d="M 301.195312 274.777344 C 303.953125 277.519531 308.132812 278.441406 311.726562 276.859375 C 319.355469 273.761719 322.257812 263.65625 317.566406 256.910156 C 314.96875 252.964844 310.128906 251.601562 305.730469 253.097656 C 297.308594 256.191406 295.152344 268.484375 301.195312 274.777344 Z M 301.195312 274.777344 "/><path style=" stroke:none;fill-rule:nonzero;fill:#f98805;fill-opacity:1;" d="M 278.902344 295.660156 C 272.582031 287.960938 271.847656 279.261719 270.804688 269.757812 C 263.253906 279.804688 254.230469 289.734375 243.496094 296.410156 C 238.597656 299.535156 233.316406 300.914062 227.550781 301.277344 C 230.398438 298.257812 233.375 295.382812 236.222656 292.347656 C 232.378906 290.542969 228.578125 288.679688 224.707031 286.964844 C 222.285156 292.816406 220.601562 298.59375 220.367188 304.976562 C 235.148438 316.828125 252.691406 325.507812 270.320312 332.257812 C 275.132812 334.574219 280.441406 332.328125 285.078125 330.628906 C 298.585938 324.90625 310.246094 313.46875 319.546875 302.335938 C 306.242188 308.597656 288.640625 307.746094 278.902344 295.660156 Z M 278.902344 295.660156 "/><path style=" stroke:none;fill-rule:nonzero;fill:#e5b1a3;fill-opacity:1;" d="M 68.179688 94.25 C 81.847656 102.140625 96.78125 108.597656 111.386719 114.550781 C 113.425781 107.570312 115.230469 100.527344 117.476562 93.664062 C 107.648438 89.910156 97.835938 87.460938 88.289062 82.957031 C 79.941406 79.042969 71.960938 74.128906 64.921875 68.160156 C 62.222656 65.753906 59.011719 62.714844 57.925781 59.183594 C 57.148438 55.707031 57.882812 51.773438 58.101562 48.242188 C 53.21875 52.964844 49.226562 59.242188 48.097656 66.003906 C 47.175781 71.691406 49.023438 77.515625 52.574219 81.976562 C 56.605469 87.09375 62.605469 90.996094 68.179688 94.25 Z M 68.179688 94.25 "/><path style=" stroke:none;fill-rule:nonzero;fill:#e5b1a3;fill-opacity:1;" d="M 127.507812 177.136719 C 137.054688 181.507812 147.867188 179.835938 156.535156 174.246094 C 169.46875 165.855469 179.664062 152.875 185.546875 138.679688 C 189.578125 129.671875 191.015625 120.257812 194.066406 110.972656 C 194.875 118.847656 195.007812 126.652344 192.96875 134.367188 C 188.890625 150.574219 186.894531 167.042969 188.667969 183.75 C 189.609375 192.40625 192.675781 200.867188 192.542969 209.375 C 196.808594 212.894531 201.09375 216.605469 206.34375 218.585938 C 212.578125 220.945312 219.515625 220.476562 225.792969 218.496094 C 235.648438 215.242188 244.289062 208.554688 249.800781 199.738281 C 251.679688 192.625 254.703125 185.964844 256.34375 178.792969 C 250.757812 183.546875 245.066406 187.433594 237.378906 187.328125 C 227.289062 187.5625 218.78125 181.316406 214.191406 172.632812 C 206.445312 158.40625 208.03125 142.214844 205.625 126.652344 C 204.554688 119.90625 203.175781 111.425781 198.597656 106.101562 C 194.582031 101.644531 189.460938 101.671875 183.933594 101.160156 C 179.28125 117.25 173.898438 132.707031 163.78125 146.289062 C 159.292969 151.980469 158.527344 158.507812 156.019531 165.019531 C 154.582031 168.6875 151.988281 171.269531 147.910156 171.636719 C 138.609375 172.367188 128.902344 170.710938 119.792969 168.847656 C 121.816406 172.207031 123.824219 175.417969 127.507812 177.136719 Z M 127.507812 177.136719 "/><path style=" stroke:none;fill-rule:nonzero;fill:#e5b1a3;fill-opacity:1;" d="M 43.480469 171.753906 C 63.96875 178.835938 86.792969 182.476562 108.132812 177.164062 C 104.363281 167.191406 102.617188 156.953125 103.527344 146.277344 C 103.011719 149.386719 102.574219 152.507812 102.164062 155.632812 C 83.140625 156.117188 64.246094 153.066406 46.222656 147.023438 C 37.464844 144.03125 29.414062 140.496094 23.515625 133.03125 C 20.363281 129.292969 18.925781 124.890625 18.457031 120.066406 C 15.800781 131.726562 15.566406 143.839844 20.804688 154.839844 C 25.453125 163.65625 34.445312 168.46875 43.480469 171.753906 Z M 43.480469 171.753906 "/><path style=" stroke:none;fill-rule:nonzero;fill:#e5b1a3;fill-opacity:1;" d="M 102.148438 191.699219 L 105.199219 191.320312 C 102.835938 199.546875 100.519531 207.085938 92.203125 211.074219 C 78.109375 217.410156 60.332031 216.003906 46.367188 209.933594 C 37.320312 206.207031 30.804688 200.03125 22.695312 194.898438 C 23.386719 201.144531 23.914062 206.925781 28.546875 211.632812 C 35.75 219.070312 46.601562 223.527344 56.429688 226.285156 C 67.109375 229.175781 78.210938 231.726562 89.300781 232.195312 C 97.558594 232.535156 104.023438 227.988281 110.480469 223.511719 C 115.671875 219.714844 121.375 215.535156 125.175781 210.285156 C 129.078125 204.886719 128.988281 198.316406 129.53125 191.933594 C 125.4375 190.511719 121.289062 188.53125 117.003906 187.84375 C 111.988281 188.164062 107.03125 190.511719 102.148438 191.699219 Z M 102.148438 191.699219 "/><path style=" stroke:none;fill-rule:nonzero;fill:#e5b1a3;fill-opacity:1;" d="M 241.414062 255.371094 C 233.507812 251.660156 230.296875 244.5625 227.742188 236.683594 C 216.347656 252.890625 194.859375 258.699219 176.613281 251.292969 C 168.371094 247.773438 160.730469 241.304688 156.253906 233.515625 C 151.019531 223.761719 150.375 211.546875 154.230469 201.203125 C 155.800781 196.953125 157.796875 192.859375 159.46875 188.648438 C 153.425781 190.777344 147.160156 191.921875 140.824219 192.785156 C 139.902344 200.792969 138.449219 208.257812 134.503906 215.375 C 140.328125 223.691406 144.652344 233.589844 146.003906 243.695312 C 147.175781 252.714844 143.1875 260.328125 138.492188 267.660156 C 134.5625 273.734375 129.355469 277.988281 123.972656 282.695312 C 137.011719 288.652344 151.269531 291.4375 165.582031 290.585938 C 178.59375 289.3125 192.160156 284.292969 201.765625 275.214844 C 210.625 266.765625 217.578125 256.824219 223.34375 246.070312 C 223.710938 254.886719 221.40625 262.703125 218.019531 270.726562 C 227.859375 273.398438 236.574219 277.578125 245.050781 283.210938 C 253.042969 274.261719 259.71875 264.332031 265.746094 253.976562 C 257.519531 256.191406 249.773438 259.15625 241.414062 255.371094 Z M 241.414062 255.371094 "/><path style=" stroke:none;fill-rule:nonzero;fill:#e5b1a3;fill-opacity:1;" d="M 127.769531 261.324219 C 131.21875 256.707031 135.046875 250.898438 134.589844 244.898438 C 134.167969 237.519531 131.070312 230.054688 127.523438 223.660156 C 119.71875 229.015625 113.03125 235.085938 104.554688 239.574219 C 105.359375 242.566406 106.636719 246.101562 106.179688 249.226562 C 105.109375 254.125 100.972656 257.527344 96.558594 259.449219 C 89.886719 262.351562 81.921875 262.703125 74.765625 262 C 67.53125 261.207031 61.667969 258.171875 55.167969 255.238281 C 57.96875 261.957031 61.242188 269.804688 68.132812 273.222656 C 75.628906 276.902344 85.53125 276.667969 93.714844 276.695312 C 106.738281 276.652344 119.675781 271.886719 127.769531 261.324219 Z M 127.769531 261.324219 "/></g></svg>