<svg xmlns="http://www.w3.org/2000/svg" xmlns:xlink="http://www.w3.org/1999/xlink" width="500" zoomAndPan="magnify" viewBox="0 0 375 374.999991" height="500" preserveAspectRatio="xMidYMid meet" version="1.2"><g id="9d2ec4653e"><path style=" stroke:none;fill-rule:nonzero;fill:#5e3528;fill-opacity:1;" d="M 362.527344 162.113281 C 349.609375 155.398438 335.328125 150.875 321.578125 146.148438 C 316.664062 144.585938 310.257812 142.441406 305.179688 143.839844 C 297.492188 147.605469 290.910156 154.449219 285.570312 161.035156 C 282.132812 148.210938 277.882812 134.757812 271.109375 123.269531 C 263.34375 110.210938 256.675781 97.953125 244.976562 87.828125 C 237.800781 81.957031 229.0625 78.074219 219.765625 77.363281 C 210.386719 76.460938 201.53125 78.023438 192.246094 78.820312 C 185.273438 79.480469 178.472656 79.03125 171.570312 80.546875 C 166.148438 81.8125 160.367188 82.003906 156.816406 86.894531 C 153.714844 90.96875 154.035156 95.277344 154.269531 100.121094 C 126.65625 83.304688 96.140625 67.9375 63.859375 63.082031 C 54.742188 61.496094 45.910156 63.507812 37.527344 67.082031 C 30.5625 70.199219 23.980469 75.160156 20.59375 82.15625 C 16.910156 89.511719 18.28125 99.199219 23.917969 105.1875 C 30.335938 111.324219 38.652344 115.777344 46.832031 119.089844 C 63.054688 125.652344 79.644531 131.597656 95.632812 138.75 C 75.289062 137.648438 56.390625 133.941406 35.890625 137.527344 C 25.117188 139.46875 14.96875 142.136719 7.757812 151.003906 C 0.0117188 160.179688 0.496094 174.484375 8.703125 183.199219 C 13.226562 187.996094 19.691406 189.605469 25.910156 190.992188 C 38.496094 193.777344 50.621094 193.835938 63.375 195.160156 C 73.714844 196 83.980469 197.246094 94.1875 199.140625 C 91.074219 212.804688 93.617188 225.832031 101.222656 237.507812 C 103.695312 241.652344 107.519531 244.707031 110.148438 248.660156 C 111.746094 259.246094 115.988281 269.183594 122.914062 277.386719 C 129.472656 285.464844 139.160156 290.199219 149.109375 292.675781 C 168.574219 297.519531 189.734375 296.949219 209.429688 293.8125 C 219.269531 293.066406 229.085938 288.578125 237.527344 283.675781 C 243.980469 279.898438 248.765625 274.59375 253.964844 269.359375 C 253.691406 276.558594 252.769531 282.976562 256.308594 289.632812 C 259.152344 295.089844 264.003906 297.671875 269.324219 300.242188 C 282.195312 306.03125 295.789062 310.117188 309.726562 312.34375 C 318.429688 313.46875 326.789062 308.992188 333.433594 303.792969 C 344.835938 294.722656 353.46875 281.542969 359.816406 268.566406 C 369.558594 248.28125 374.535156 225.558594 374.960938 203.09375 C 374.605469 190.566406 373.300781 178.558594 368.410156 166.894531 C 367.558594 164.550781 364.550781 163.296875 362.527344 162.113281 Z M 362.527344 162.113281 "/><path style=" stroke:none;fill-rule:nonzero;fill:#ffe3d4;fill-opacity:1;" d="M 273.136719 200.535156 C 276.851562 190.589844 279.542969 180.3125 276.675781 169.738281 C 272.34375 153.417969 265.402344 138.050781 256.378906 123.792969 C 250.933594 114 245.128906 104.859375 236.78125 97.21875 C 232.257812 93.441406 227.121094 90.078125 220.972656 90.292969 C 212.804688 90.566406 204.464844 92.035156 196.34375 92.910156 C 195.894531 95.777344 195.859375 99.363281 194.152344 101.804688 C 192.210938 104.679688 189.191406 106.277344 186.242188 107.949219 C 181.363281 108.222656 176.542969 107.757812 171.6875 107.488281 C 178.675781 112.683594 186.773438 116.238281 195.066406 118.808594 C 200.972656 120.617188 207.058594 121.542969 213.230469 120.558594 C 218.046875 119.777344 222.84375 119.007812 227.734375 118.808594 C 229.121094 120.972656 231.203125 122.453125 229.132812 125 C 226.65625 127.511719 221.898438 127.820312 218.582031 128.183594 C 209.722656 128.410156 201.351562 127.296875 192.695312 125.769531 C 182.535156 124.40625 173.132812 121.007812 163.804688 116.914062 C 144.761719 108.589844 127.460938 97.445312 108.101562 89.699219 C 89.402344 81.777344 70.929688 75.8125 50.300781 77.078125 C 47.152344 77.363281 44.394531 78.5 41.550781 79.765625 C 41.617188 80.925781 41.699219 82.082031 41.792969 83.234375 C 41.699219 82.082031 41.617188 80.925781 41.550781 79.765625 C 37.132812 82.203125 33.488281 85.652344 32.242188 90.707031 C 31.558594 94.046875 33.511719 97.125 34.886719 100.027344 C 37.84375 95.871094 40.484375 91.570312 42.097656 86.691406 C 42.792969 84.847656 43.515625 83 44.261719 81.164062 C 52.730469 83.175781 60.582031 85.449219 66.574219 92.164062 C 68.761719 94.507812 69.332031 97.339844 69.875 100.394531 C 69.023438 102.714844 68.242188 106.042969 66.109375 107.523438 C 63.46875 109.296875 60.117188 110.210938 57.171875 111.347656 C 75.335938 119.339844 93.511719 127.046875 110.941406 136.605469 C 119.753906 141.695312 128.964844 147.308594 135.988281 154.769531 L 133.214844 154.570312 C 126.820312 152.425781 120.332031 152 113.679688 151.300781 C 99.847656 149.261719 86.5 149.523438 72.613281 149.050781 C 61.445312 148.8125 49.875 148.375 38.886719 150.386719 C 31.523438 151.773438 24.628906 152.980469 18.828125 158.121094 C 16.046875 161.035156 14.445312 165.449219 15.273438 169.464844 C 15.785156 171.796875 17.324219 174.058594 18.519531 176.109375 C 20.414062 170.53125 20.675781 164.824219 20.664062 158.996094 C 32.125 156.746094 43.257812 156.949219 53.085938 163.945312 C 54.613281 166.648438 56.671875 169.902344 55.9375 173.136719 C 55.15625 176.144531 52.492188 178.832031 50.574219 181.234375 C 61.929688 182.539062 73.226562 184.574219 84.453125 186.730469 C 104.84375 190.683594 127.164062 197.042969 144.335938 209.097656 L 141.328125 209.382812 C 131.371094 207.308594 121.613281 204.609375 111.605469 202.65625 C 109.839844 202.359375 108.054688 202.136719 106.265625 201.980469 C 104.417969 209.890625 105.070312 216.972656 108.445312 224.339844 C 112.125 232.996094 119.136719 239.09375 127.355469 243.332031 C 137.679688 248.269531 148.242188 252.355469 159.363281 255.160156 C 153.511719 256.261719 147.789062 257.09375 141.855469 256.75 C 142.070312 256.765625 142.28125 256.78125 142.496094 256.796875 C 142.28125 256.78125 142.070312 256.765625 141.855469 256.75 C 141.277344 256.707031 140.695312 256.664062 140.121094 256.617188 C 135.464844 256.132812 130.917969 255.042969 126.503906 253.503906 C 124.75 252.863281 122.984375 252.226562 121.222656 251.621094 C 124.300781 259.613281 128.480469 267.832031 135.160156 273.421875 C 142.300781 279.234375 151.820312 281.675781 160.722656 283.179688 C 171.628906 285.085938 182.679688 285.394531 193.703125 284.613281 C 207.058594 284.019531 220.324219 280.679688 232.4375 275.03125 C 237.644531 272.652344 242.074219 269.027344 245.640625 264.5625 C 250.625 258.121094 254.921875 250.863281 257.46875 243.105469 C 258.132812 241.898438 258.832031 240.714844 259.542969 239.554688 C 261.1875 246.03125 259.921875 252.105469 258.5 258.464844 C 266.8125 259.578125 273.964844 261.699219 281.542969 265.25 C 285.496094 259.09375 288.8125 252.59375 291.808594 245.925781 C 300.535156 226.222656 307.0625 205.273438 309.203125 183.769531 C 300.65625 182.089844 292.390625 177.480469 284.859375 173.21875 C 283.367188 183.414062 278.925781 192.152344 273.136719 200.535156 Z M 134.195312 130.449219 C 135.882812 131.480469 137.570312 132.539062 139.234375 133.636719 C 137.570312 132.539062 135.882812 131.480469 134.195312 130.449219 Z M 153.453125 207.867188 C 153.257812 208.042969 153.050781 208.210938 152.839844 208.363281 C 153.050781 208.210938 153.253906 208.042969 153.453125 207.867188 C 153.695312 207.589844 153.902344 207.3125 154.082031 207.03125 C 153.902344 207.3125 153.695312 207.589844 153.453125 207.867188 Z M 157.601562 155.160156 C 157.613281 154.960938 157.617188 154.753906 157.609375 154.542969 C 157.59375 154.265625 157.5625 153.988281 157.523438 153.710938 C 157.5625 153.988281 157.59375 154.265625 157.609375 154.542969 C 157.617188 154.753906 157.613281 154.960938 157.601562 155.160156 Z M 277.765625 206.574219 C 277.5625 207.007812 277.363281 207.4375 277.160156 207.867188 C 277.363281 207.4375 277.5625 207.007812 277.765625 206.574219 Z M 273.242188 233.007812 C 273.175781 233.28125 273.117188 233.550781 273.066406 233.824219 C 273.117188 233.550781 273.175781 233.28125 273.242188 233.007812 C 273.621094 231.355469 274.011719 229.71875 274.398438 228.082031 C 274.011719 229.71875 273.621094 231.355469 273.242188 233.007812 Z M 274.484375 242.019531 C 274.914062 242.640625 275.441406 243.21875 276.0625 243.753906 C 275.441406 243.21875 274.914062 242.640625 274.484375 242.019531 Z M 276.78125 244.328125 C 276.597656 244.191406 276.425781 244.050781 276.253906 243.910156 C 276.425781 244.050781 276.597656 244.191406 276.78125 244.328125 C 277.125 244.585938 277.476562 244.820312 277.832031 245.027344 C 277.476562 244.820312 277.125 244.585938 276.78125 244.328125 Z M 276.78125 244.328125 "/><path style=" stroke:none;fill-rule:nonzero;fill:#ffe3d4;fill-opacity:1;" d="M 171.203125 93.808594 C 168.609375 93.90625 166.738281 96.296875 167.4375 98.710938 C 168.328125 102.097656 171.949219 103.839844 175.027344 104.761719 C 179.871094 106.101562 184.917969 106.007812 188.457031 101.980469 C 190.96875 99.554688 190.480469 96.898438 190.539062 93.703125 C 184.121094 93.609375 177.609375 93.335938 171.203125 93.808594 Z M 171.203125 93.808594 "/><path style=" stroke:none;fill-rule:nonzero;fill:#ffe3d4;fill-opacity:1;" d="M 62.417969 105.046875 C 65.53125 103.4375 65.425781 100.347656 65.375 97.316406 C 60.972656 90.980469 54.351562 87.960938 47.140625 85.984375 C 46.535156 87.144531 45.96875 88.328125 45.421875 89.523438 C 43.433594 93.964844 40.875 98.085938 38.34375 102.230469 C 45.875 106.480469 54.152344 109.074219 62.417969 105.046875 Z M 62.417969 105.046875 "/><path style=" stroke:none;fill-rule:nonzero;fill:#ffe3d4;fill-opacity:1;" d="M 46.109375 164.738281 C 39.726562 161.992188 31.734375 161.175781 24.9375 162.464844 C 23.683594 167.25 23.28125 172.234375 22.167969 177.066406 C 28.371094 178.214844 34.660156 179.460938 40.960938 179.886719 C 45.578125 180.621094 50.917969 176.652344 52.042969 172.234375 C 52.101562 168.398438 49.34375 166.136719 46.109375 164.738281 Z M 46.109375 164.738281 "/><path style=" stroke:none;fill-rule:nonzero;fill:#c2fcf7;fill-opacity:1;" d="M 355.574219 171.5 C 341.53125 165.984375 327.464844 160.5 313.21875 155.550781 C 311.773438 155.125 310.53125 154.582031 309.027344 155.148438 C 303.1875 157.183594 298.617188 161.328125 295.375 166.539062 C 300.214844 168.636719 305.023438 170.753906 310.007812 172.507812 C 311.265625 168.175781 310.566406 164.113281 309.925781 159.753906 C 317.234375 163.378906 317.859375 170.921875 318.640625 178.167969 C 319.648438 198.027344 314.285156 218.691406 307.15625 237.101562 C 304.789062 243.640625 305.6875 250.554688 307.855469 257.007812 C 309.394531 261.460938 311.691406 265.488281 315.621094 268.246094 C 320.523438 271.847656 327.5 272.09375 333.148438 270.367188 C 340.183594 267.9375 345.664062 262.066406 349.382812 255.800781 C 358.488281 239.992188 362.527344 222.382812 363.425781 204.277344 C 363.757812 195.375 362.90625 186.101562 360.074219 177.625 C 359.140625 175.46875 358.050781 172.234375 355.574219 171.5 Z M 344.882812 247.773438 C 343 254.425781 337.007812 259.707031 329.902344 259.578125 C 323.449219 259.71875 317.824219 254.996094 316.097656 248.921875 C 313.242188 240.121094 319.042969 229.609375 328.054688 227.40625 C 332.6875 226.46875 337.554688 227.714844 340.976562 231.027344 C 345.320312 235.386719 346.660156 241.945312 344.882812 247.773438 Z M 344.882812 247.773438 "/><path style=" stroke:none;fill-rule:nonzero;fill:#ffffff;fill-opacity:1;" d="M 327.972656 233.136719 C 322.5625 234.617188 319.96875 241.519531 321.851562 246.515625 C 323.035156 250.519531 326.5625 253.679688 330.933594 253.113281 C 336.488281 252.191406 339.636719 246.542969 338.878906 241.199219 C 338.273438 235.824219 333.539062 231.539062 327.972656 233.136719 Z M 327.972656 233.136719 "/><path style=" stroke:none;fill-rule:nonzero;fill:#c2fcf7;fill-opacity:1;" d="M 309.039062 270.070312 C 303.804688 264.765625 302.382812 258.371094 300.476562 251.457031 C 295.03125 261.082031 289.335938 270 280.558594 276.984375 C 277.304688 279.589844 273.527344 280.929688 269.488281 281.792969 C 271.535156 279.09375 273.632812 276.429688 275.574219 273.65625 C 272.316406 272.617188 269.050781 271.585938 265.769531 270.625 C 264.929688 275.007812 263.058594 281.332031 264.976562 285.511719 C 267.605469 287.796875 271.132812 289.171875 274.261719 290.652344 C 285.320312 295.492188 296.984375 299.09375 308.8125 301.519531 C 312.035156 302.277344 315.859375 300.003906 318.640625 298.535156 C 329.074219 292.367188 336.785156 281.972656 343.046875 271.824219 C 339.316406 273.597656 336 275.539062 331.867188 276.335938 C 323.6875 278.015625 314.960938 276.203125 309.039062 270.070312 Z M 309.039062 270.070312 "/><path style=" stroke:none;fill-rule:nonzero;fill:#e5b1a3;fill-opacity:1;" d="M 32.246094 90.707031 C 31.558594 94.046875 33.511719 97.125 34.886719 100.027344 C 37.84375 95.871094 40.484375 91.570312 42.097656 86.691406 C 41.882812 84.382812 41.683594 82.085938 41.550781 79.765625 C 37.132812 82.203125 33.488281 85.652344 32.246094 90.707031 Z M 32.246094 90.707031 "/><path style=" stroke:none;fill-rule:nonzero;fill:#e5b1a3;fill-opacity:1;" d="M 62.417969 105.046875 C 65.53125 103.4375 65.425781 100.347656 65.375 97.316406 C 57.5625 96.996094 52.066406 93.015625 45.421875 89.523438 C 43.433594 93.964844 40.875 98.085938 38.34375 102.230469 C 45.875 106.480469 54.152344 109.074219 62.417969 105.046875 Z M 62.417969 105.046875 "/><path style=" stroke:none;fill-rule:nonzero;fill:#e5b1a3;fill-opacity:1;" d="M 152.175781 160.925781 C 155.453125 160.441406 157.703125 157.882812 157.609375 154.542969 C 157.335938 150.082031 153.988281 145.851562 150.941406 142.796875 C 145.304688 137.304688 138.390625 132.957031 131.664062 128.917969 C 112.125 117.609375 90.882812 108.601562 69.875 100.394531 C 69.023438 102.714844 68.242188 106.042969 66.109375 107.523438 C 63.46875 109.296875 60.117188 110.210938 57.171875 111.347656 C 75.335938 119.339844 93.511719 127.046875 110.941406 136.605469 C 119.753906 141.695312 128.964844 147.308594 135.988281 154.769531 L 133.214844 154.570312 C 138.9375 158.25 145.09375 161.746094 152.175781 160.925781 Z M 152.175781 160.925781 "/><path style=" stroke:none;fill-rule:nonzero;fill:#e5b1a3;fill-opacity:1;" d="M 195.066406 118.808594 C 200.972656 120.617188 207.058594 121.542969 213.230469 120.558594 C 218.046875 119.777344 222.84375 119.007812 227.734375 118.808594 C 223.695312 114.046875 218.085938 113.074219 212.257812 112.046875 C 203.554688 110.742188 194.828125 109.984375 186.242188 107.949219 C 181.363281 108.222656 176.542969 107.757812 171.6875 107.488281 C 178.675781 112.683594 186.773438 116.238281 195.066406 118.808594 Z M 195.066406 118.808594 "/><path style=" stroke:none;fill-rule:nonzero;fill:#e5b1a3;fill-opacity:1;" d="M 15.273438 169.464844 C 15.785156 171.796875 17.324219 174.058594 18.519531 176.109375 C 20.414062 170.53125 20.675781 164.824219 20.664062 158.996094 L 18.828125 158.121094 C 16.046875 161.035156 14.445312 165.449219 15.273438 169.464844 Z M 15.273438 169.464844 "/><path style=" stroke:none;fill-rule:nonzero;fill:#e5b1a3;fill-opacity:1;" d="M 46.109375 164.742188 C 39.726562 161.992188 31.734375 161.175781 24.9375 162.464844 C 23.683594 167.25 23.28125 172.234375 22.167969 177.066406 C 28.371094 178.214844 34.660156 179.460938 40.960938 179.886719 C 45.578125 180.621094 50.917969 176.652344 52.042969 172.234375 C 52.101562 168.398438 49.34375 166.136719 46.109375 164.742188 Z M 46.109375 164.742188 "/><path style=" stroke:none;fill-rule:nonzero;fill:#e5b1a3;fill-opacity:1;" d="M 141.328125 209.382812 C 145.175781 210.507812 150.292969 210.707031 153.453125 207.867188 C 156.035156 204.917969 154.839844 201.648438 153.027344 198.691406 C 148.339844 191.429688 140.097656 187.179688 132.410156 183.792969 C 113.25 175.574219 92.8125 170.058594 72.257812 166.71875 C 65.886719 165.640625 59.410156 165.191406 53.085938 163.945312 C 54.613281 166.648438 56.671875 169.902344 55.9375 173.136719 C 55.15625 176.144531 52.492188 178.832031 50.574219 181.234375 C 61.929688 182.539062 73.226562 184.574219 84.453125 186.730469 C 104.84375 190.683594 127.164062 197.042969 144.335938 209.097656 Z M 141.328125 209.382812 "/><path style=" stroke:none;fill-rule:nonzero;fill:#e5b1a3;fill-opacity:1;" d="M 159.363281 255.160156 C 152.945312 256.371094 146.679688 257.257812 140.121094 256.617188 C 146.441406 257.105469 152.886719 257.554688 159.230469 257.28125 C 162.726562 257.175781 167.140625 254.488281 166.800781 250.554688 C 166.160156 247.867188 162.925781 245.757812 160.722656 244.316406 C 153.214844 239.933594 144.429688 238.050781 136.652344 234.058594 C 129.058594 230.257812 120.390625 225.59375 115.785156 218.191406 C 112.683594 213.398438 112.101562 208.222656 111.605469 202.65625 C 109.839844 202.359375 108.054688 202.136719 106.265625 201.980469 C 104.417969 209.890625 105.070312 216.972656 108.445312 224.339844 C 112.125 232.996094 119.136719 239.09375 127.355469 243.332031 C 137.679688 248.269531 148.242188 252.355469 159.363281 255.160156 Z M 159.363281 255.160156 "/><path style=" stroke:none;fill-rule:nonzero;fill:#e5b1a3;fill-opacity:1;" d="M 276.78125 244.328125 C 272.992188 241.589844 272.1875 237.375 273.242188 233.007812 C 275.253906 224.207031 277.671875 215.695312 277.765625 206.574219 C 274.699219 213.03125 272.070312 219.613281 268.480469 225.808594 C 265.816406 230.601562 262.609375 235.007812 259.542969 239.554688 C 261.1875 246.03125 259.921875 252.105469 258.5 258.464844 C 266.8125 259.578125 273.964844 261.699219 281.542969 265.25 C 285.496094 259.09375 288.8125 252.59375 291.808594 245.925781 C 286.644531 246.613281 281.28125 247.738281 276.78125 244.328125 Z M 276.78125 244.328125 "/><path style=" stroke:none;fill-rule:nonzero;fill:#e5b1a3;fill-opacity:1;" d="M 237.078125 261.921875 C 217.988281 274.441406 194.898438 278.964844 172.339844 276.261719 C 156.628906 274.757812 141.613281 269.183594 129.628906 258.75 C 127.957031 257.339844 127.261719 255.480469 126.503906 253.503906 C 124.75 252.863281 122.984375 252.226562 121.222656 251.621094 C 124.300781 259.613281 128.480469 267.832031 135.160156 273.421875 C 142.300781 279.234375 151.820312 281.675781 160.722656 283.179688 C 171.628906 285.085938 182.679688 285.394531 193.703125 284.613281 C 207.058594 284.019531 220.324219 280.679688 232.4375 275.03125 C 237.644531 272.652344 242.074219 269.027344 245.640625 264.5625 C 250.625 258.121094 254.921875 250.863281 257.46875 243.105469 C 251.394531 250.210938 244.941406 256.761719 237.078125 261.921875 Z M 237.078125 261.921875 "/></g></svg>