<svg xmlns="http://www.w3.org/2000/svg" xmlns:xlink="http://www.w3.org/1999/xlink" width="500" zoomAndPan="magnify" viewBox="0 0 375 374.999991" height="500" preserveAspectRatio="xMidYMid meet" version="1.2"><g id="aea6d70bad"><path style=" stroke:none;fill-rule:nonzero;fill:#5e3528;fill-opacity:1;" d="M 357.988281 143.375 C 343.453125 135.660156 327.359375 130.320312 311.859375 124.855469 C 303.371094 122.097656 293.953125 118.175781 285.007812 118.128906 C 281.308594 117.988281 277.761719 120.585938 274.816406 122.601562 C 267.226562 127.878906 261.117188 134.523438 255.085938 141.453125 C 254.550781 135.644531 254.15625 129.972656 252.546875 124.335938 C 249.414062 113.277344 243.492188 104.160156 238.578125 94.300781 C 230.390625 76.03125 220.011719 59.371094 204.859375 46.0625 C 195.976562 38.738281 184.796875 33.429688 173.25 32.34375 C 157.597656 30.28125 143.53125 34.011719 127.609375 34.5 C 118.679688 34.863281 107.921875 34.847656 99.765625 38.910156 C 93.277344 42.484375 90.867188 48.34375 90.191406 55.464844 C 74.171875 53.652344 52.628906 55.730469 41.164062 68.503906 C 31.585938 78.613281 29.320312 91.96875 31.144531 105.421875 C 24.167969 108.050781 19.207031 111.863281 15.332031 118.269531 C 6.703125 132.320312 4.65625 150.605469 9.097656 166.402344 C 10.042969 170.765625 12.027344 175.1875 12.261719 179.628906 C 8.59375 186.054688 4.8125 191.976562 3.632812 199.457031 C -0.0234375 218.910156 8.105469 240.4375 21.679688 254.488281 C 23.757812 256.929688 26.042969 258.738281 26.375 262.1875 C 28.53125 276.363281 35.414062 289.828125 45.035156 300.410156 C 55.039062 311.027344 68.863281 316.445312 82.898438 319.3125 C 94.457031 321.546875 106.300781 322.996094 118.097656 322.824219 C 133.265625 322.585938 148.257812 321.972656 162.984375 318.097656 C 174.402344 315.246094 185.09375 310.429688 195.175781 304.410156 C 201.617188 300.585938 206.671875 295.5625 212.75 290.757812 C 212.75 300.019531 212.46875 308.332031 218.339844 316.082031 C 223.679688 323.167969 233.824219 327.058594 241.808594 330.351562 C 256.25 336.082031 271.210938 340.289062 286.550781 342.808594 C 297.621094 344.445312 308.066406 339.484375 316.804688 333.121094 C 331.390625 322.207031 342.664062 306.175781 351.140625 290.207031 C 364.589844 264.597656 371.847656 235.652344 373.707031 206.859375 C 374.636719 187.976562 372.730469 167.691406 365.566406 150.054688 C 364.320312 146.320312 361.09375 145.234375 357.988281 143.375 Z M 357.988281 143.375 "/><path style=" stroke:none;fill-rule:nonzero;fill:#ffe3d4;fill-opacity:1;" d="M 286.472656 171.804688 C 275.085938 169.644531 264.234375 163.675781 254.3125 157.847656 C 251.996094 171.078125 247.148438 181.882812 239.445312 192.8125 C 241.398438 185.929688 243.761719 179.410156 244.484375 172.226562 C 245.839844 157.660156 243.667969 142.839844 238.3125 129.234375 C 233.175781 116.476562 227.066406 104.253906 219.726562 92.632812 C 213.035156 80.253906 205.347656 68.722656 195.109375 58.976562 C 189.046875 53.652344 181.738281 48.753906 173.328125 48.941406 C 156.871094 49.351562 141.011719 53.464844 124.414062 53.351562 C 118.082031 53.621094 111.339844 52.707031 105.152344 54 C 100 55.304688 101.246094 62.867188 102.191406 66.675781 C 107.214844 73.574219 115.183594 77.402344 122.664062 81.023438 C 136.050781 87.089844 149.675781 91.96875 164.605469 89.261719 C 171.425781 87.875 177.835938 87.152344 184.75 88.394531 C 184.730469 92.238281 185.503906 95.136719 181.300781 96.929688 C 171.03125 101.121094 158.039062 99.433594 147.484375 96.996094 C 133.390625 93.261719 119.59375 86.648438 106.976562 79.402344 C 100.015625 75.734375 94.03125 71.636719 86.140625 70.269531 C 79.890625 68.929688 73.683594 69.558594 67.574219 71.246094 C 62.359375 72.582031 57.527344 73.921875 53.351562 77.542969 C 44.296875 85.105469 42.074219 99.5 46.296875 110.128906 C 50.359375 119.484375 59.179688 127.265625 67.101562 133.421875 C 75.90625 140.523438 85.8125 145.769531 95.117188 152.085938 C 80.675781 151.550781 68.535156 145.34375 56.878906 137.359375 C 48.515625 132.382812 42.058594 125.6875 36.28125 117.941406 C 33.980469 119.5 31.289062 121.027344 29.429688 123.105469 C 29.328125 123.667969 29.226562 124.226562 29.125 124.789062 C 29.226562 124.226562 29.328125 123.667969 29.429688 123.105469 C 24.011719 129.640625 21.996094 138.667969 21.269531 146.933594 C 20.324219 158.402344 23.664062 170.007812 31.160156 178.796875 C 39.886719 189.082031 50.515625 197.851562 62.328125 204.386719 C 69.824219 208.910156 78.015625 212.074219 85.195312 217.019531 C 85.363281 217.003906 85.53125 216.988281 85.699219 216.972656 C 85.53125 216.988281 85.363281 217.003906 85.195312 217.019531 C 73.273438 216.578125 61.179688 212.941406 50.125 208.578125 C 40.28125 204.671875 31.554688 198.78125 24.058594 191.300781 L 22.988281 190.121094 C 19.113281 200.5625 17.363281 211.113281 21.097656 221.902344 C 25.128906 235.554688 35.050781 245.777344 47.460938 252.296875 C 60.785156 258.976562 74.707031 263.953125 88.945312 268.25 C 87.574219 268.675781 86.1875 269.085938 84.804688 269.480469 C 70.769531 272.316406 56.503906 269.433594 43.242188 264.613281 C 42.25 264.296875 41.242188 263.96875 40.25 263.652344 C 44.21875 274.078125 48.957031 283.636719 57.179688 291.417969 C 63.382812 297.277344 71.953125 300.882812 80.09375 303.136719 C 100.347656 308.492188 120.996094 309.214844 141.769531 307.453125 C 155.550781 306.160156 170.417969 303.386719 182.605469 296.570312 C 200.625 286.472656 213.554688 267.101562 219.507812 247.652344 L 220.765625 245.382812 C 221.796875 243.515625 222.886719 241.6875 224.003906 239.875 C 225.460938 237.507812 226.964844 235.167969 228.449219 232.816406 C 226.964844 235.167969 225.460938 237.507812 224.003906 239.875 C 222.886719 241.6875 221.796875 243.515625 220.765625 245.382812 C 222.375 254.265625 221.222656 262.707031 219.066406 271.371094 C 229.980469 272.535156 240.121094 275.828125 250.058594 280.378906 C 255.257812 271.386719 260.109375 262.21875 264.296875 252.707031 C 263.972656 252.765625 263.644531 252.824219 263.3125 252.886719 C 263.644531 252.824219 263.972656 252.765625 264.296875 252.707031 C 275.273438 227.210938 284.125 199.570312 286.472656 171.804688 Z M 172.652344 76.742188 C 169.660156 76.011719 166.597656 75.625 163.496094 75.449219 C 162.164062 75.375 160.828125 75.335938 159.484375 75.328125 C 160.828125 75.335938 162.164062 75.375 163.496094 75.449219 C 166.597656 75.625 169.660156 76.011719 172.652344 76.742188 C 173.023438 76.835938 173.382812 76.941406 173.734375 77.050781 C 173.382812 76.941406 173.023438 76.835938 172.652344 76.742188 Z M 56.109375 276.589844 C 57.4375 277.484375 58.800781 278.34375 60.191406 279.179688 C 58.800781 278.34375 57.4375 277.484375 56.109375 276.589844 Z M 91.386719 252.457031 C 90.761719 252.023438 90.128906 251.613281 89.484375 251.214844 C 90.128906 251.613281 90.761719 252.023438 91.386719 252.457031 C 91.722656 252.722656 92.082031 252.996094 92.449219 253.285156 C 92.082031 252.996094 91.722656 252.722656 91.386719 252.457031 Z M 122.820312 294.363281 C 124.546875 294.355469 126.277344 294.308594 128.007812 294.226562 C 126.277344 294.308594 124.546875 294.355469 122.820312 294.363281 Z M 133.203125 293.882812 C 134.9375 293.730469 136.671875 293.542969 138.402344 293.324219 C 136.671875 293.542969 134.9375 293.730469 133.203125 293.882812 Z M 181.4375 279.8125 C 183.96875 278.464844 186.445312 277.027344 188.859375 275.496094 C 186.445312 277.027344 183.96875 278.464844 181.4375 279.8125 Z M 200.355469 267.070312 C 199.449219 267.835938 198.527344 268.585938 197.59375 269.320312 C 198.527344 268.585938 199.449219 267.835938 200.355469 267.070312 C 201.21875 266.359375 202.066406 265.625 202.90625 264.871094 C 202.066406 265.625 201.21875 266.359375 200.355469 267.070312 Z M 240.136719 229.761719 C 239.972656 230.398438 239.808594 231.039062 239.652344 231.683594 C 239.808594 231.039062 239.972656 230.398438 240.136719 229.761719 C 240.464844 228.484375 240.792969 227.222656 241.082031 225.980469 C 243.367188 217.144531 244.59375 208.121094 245.335938 199.019531 C 244.59375 208.121094 243.367188 217.144531 241.082031 225.980469 C 240.792969 227.222656 240.464844 228.484375 240.136719 229.761719 Z M 252.074219 254.054688 C 253.417969 254.148438 254.785156 254.109375 256.152344 253.988281 C 254.785156 254.109375 253.417969 254.148438 252.074219 254.054688 Z M 257.191406 253.878906 C 258.574219 253.722656 259.953125 253.492188 261.304688 253.25 C 259.953125 253.492188 258.574219 253.722656 257.191406 253.878906 Z M 257.191406 253.878906 "/><path style=" stroke:none;fill-rule:nonzero;fill:#4b11ed;fill-opacity:1;" d="M 351.894531 158.875 C 350.507812 156.117188 348.003906 155.566406 345.40625 154.414062 C 327.074219 147.375 309.011719 140.210938 290.378906 133.910156 C 287.527344 132.777344 285.339844 134.289062 282.769531 135.390625 C 276.503906 138.445312 272.125 143.359375 268.015625 148.839844 C 274.34375 151.753906 280.769531 154.351562 287.179688 157.0625 C 290.0625 151.140625 288.441406 146.039062 287.464844 139.910156 C 290.710938 142.164062 293.84375 143.722656 295.386719 147.597656 C 300.898438 161.03125 299.75 176.085938 298 190.152344 C 295.589844 207.160156 291.214844 223.917969 284.929688 239.902344 C 279.621094 252.046875 282.203125 267.371094 289.179688 278.332031 C 296.679688 289.59375 312.378906 291.105469 323.5625 284.804688 C 333.941406 278.851562 340.523438 268.265625 345.234375 257.589844 C 355.644531 235.113281 359.785156 209.570312 358.414062 184.921875 C 357.582031 176.246094 356.257812 166.558594 351.894531 158.875 Z M 325.375 269.273438 C 317.53125 274.851562 305.9375 273.699219 299.8125 266.078125 C 290.457031 255.101562 295.070312 237.320312 307.890625 231.289062 C 315.609375 227.554688 325.515625 229.964844 330.632812 236.847656 C 338.191406 246.800781 335.640625 262.1875 325.375 269.273438 Z M 325.375 269.273438 "/><path style=" stroke:none;fill-rule:nonzero;fill:#ffffff;fill-opacity:1;" d="M 311.089844 237.683594 C 301.039062 241.070312 299.9375 256.550781 308.316406 262.363281 C 312.222656 265.289062 317.355469 264.582031 321.058594 261.714844 C 327.34375 256.472656 328.191406 246.375 322.332031 240.453125 C 319.40625 237.210938 315.167969 236.5 311.089844 237.683594 Z M 311.089844 237.683594 "/><path style=" stroke:none;fill-rule:nonzero;fill:#4b11ed;fill-opacity:1;" d="M 286.691406 287.101562 C 279.621094 280.046875 277.480469 271.324219 275.039062 262 C 267.953125 274.15625 259.699219 287.558594 248.25 296.082031 C 244.042969 299.402344 239.242188 301.105469 234.058594 302.222656 C 236.609375 298.632812 239.320312 295.121094 241.902344 291.542969 C 237.617188 290.128906 233.335938 288.742188 229.035156 287.355469 C 227.019531 294 226.65625 300.441406 227.207031 307.339844 C 242.515625 316.445312 260.109375 322.175781 277.289062 326.585938 C 283.179688 327.753906 287.8125 330.273438 293.667969 327.3125 C 310.050781 320.335938 322.742188 303.433594 331.832031 288.679688 C 326.414062 291.65625 321.292969 294.554688 315.042969 295.324219 C 304.726562 296.882812 294.238281 294.554688 286.691406 287.101562 Z M 286.691406 287.101562 "/><path style=" stroke:none;fill-rule:nonzero;fill:#e5b1a3;fill-opacity:1;" d="M 164.605469 89.261719 C 171.425781 87.875 177.835938 87.152344 184.75 88.394531 C 182.621094 82.191406 179.109375 78.425781 172.652344 76.742188 C 158.964844 73.402344 143.878906 77.277344 129.75 75.417969 C 119.8125 74.660156 110.960938 71.148438 102.191406 66.675781 C 107.214844 73.574219 115.183594 77.402344 122.664062 81.023438 C 136.050781 87.089844 149.675781 91.96875 164.605469 89.261719 Z M 164.605469 89.261719 "/><path style=" stroke:none;fill-rule:nonzero;fill:#e5b1a3;fill-opacity:1;" d="M 67.574219 71.246094 C 62.359375 72.582031 57.527344 73.921875 53.351562 77.542969 C 44.296875 85.105469 42.074219 99.5 46.296875 110.128906 C 50.359375 119.484375 59.179688 127.265625 67.101562 133.421875 C 75.90625 140.523438 85.8125 145.769531 95.117188 152.085938 C 98.742188 151.753906 103.417969 151.769531 105.230469 147.957031 C 107.75 143.125 105.167969 138.460938 101.96875 134.761719 C 91.84375 123.53125 75.101562 118.648438 64.769531 109.011719 C 59.351562 103.671875 53.589844 95.246094 54.878906 87.292969 C 56.046875 79.636719 61.511719 75.230469 67.574219 71.246094 Z M 67.574219 71.246094 "/><path style=" stroke:none;fill-rule:nonzero;fill:#e5b1a3;fill-opacity:1;" d="M 62.328125 204.386719 C 69.824219 208.910156 78.015625 212.074219 85.195312 217.019531 C 88.109375 216.765625 91.605469 216.40625 93.183594 213.554688 C 95.828125 208.183594 95.6875 201.492188 92.191406 196.496094 C 88.582031 191.222656 82.519531 187.789062 76.820312 185.160156 C 66.519531 180.433594 56.566406 177.613281 47.585938 170.292969 C 40.769531 164.636719 34.296875 157.769531 30.328125 149.800781 C 26.183594 141.25 27.808594 132.066406 29.429688 123.105469 C 24.011719 129.640625 21.996094 138.667969 21.269531 146.933594 C 20.324219 158.402344 23.664062 170.007812 31.160156 178.796875 C 39.886719 189.082031 50.515625 197.851562 62.328125 204.386719 Z M 62.328125 204.386719 "/><path style=" stroke:none;fill-rule:nonzero;fill:#e5b1a3;fill-opacity:1;" d="M 88.945312 268.25 C 87.574219 268.675781 86.1875 269.085938 84.804688 269.480469 C 89.9375 268.644531 95.023438 266.597656 97.023438 261.386719 C 98.316406 257.402344 94.0625 254.582031 91.386719 252.457031 C 81.417969 245.574219 68.425781 243.070312 57.542969 237.476562 C 46.390625 231.902344 33.664062 225.257812 27.886719 213.601562 C 24.058594 206.53125 23.917969 199.128906 24.058594 191.300781 L 22.988281 190.121094 C 19.113281 200.5625 17.363281 211.113281 21.097656 221.902344 C 25.128906 235.554688 35.050781 245.777344 47.460938 252.296875 C 60.785156 258.976562 74.707031 263.953125 88.945312 268.25 Z M 88.945312 268.25 "/><path style=" stroke:none;fill-rule:nonzero;fill:#e5b1a3;fill-opacity:1;" d="M 248.042969 253.304688 C 242.847656 251.621094 238.328125 247.070312 238.21875 241.367188 C 238.167969 236.265625 239.917969 230.941406 241.082031 225.980469 C 243.367188 217.144531 244.59375 208.121094 245.335938 199.019531 C 241.617188 207.253906 238.390625 215.585938 233.980469 223.507812 C 229.933594 231.035156 224.894531 237.917969 220.765625 245.382812 C 222.375 254.265625 221.222656 262.707031 219.066406 271.371094 C 229.980469 272.535156 240.121094 275.828125 250.058594 280.378906 C 255.257812 271.386719 260.109375 262.21875 264.296875 252.707031 C 259.085938 253.636719 253.210938 254.992188 248.042969 253.304688 Z M 248.042969 253.304688 "/><path style=" stroke:none;fill-rule:nonzero;fill:#e5b1a3;fill-opacity:1;" d="M 200.355469 267.070312 C 179.125 284.992188 150.414062 294.207031 122.820312 294.363281 C 101.859375 294.285156 81.449219 291.308594 63.007812 280.835938 C 55.414062 276.472656 48.453125 271.8125 43.242188 264.613281 C 42.25 264.296875 41.242188 263.96875 40.25 263.652344 C 44.21875 274.078125 48.957031 283.636719 57.179688 291.417969 C 63.382812 297.277344 71.953125 300.882812 80.09375 303.136719 C 100.347656 308.492188 120.996094 309.214844 141.769531 307.453125 C 155.550781 306.160156 170.417969 303.386719 182.605469 296.570312 C 200.625 286.472656 213.554688 267.101562 219.507812 247.652344 C 213.300781 254.265625 207.253906 261.371094 200.355469 267.070312 Z M 200.355469 267.070312 "/></g></svg>